<?xml version="1.0" encoding="UTF-8" standalone="no"?>
<svg id="svg2996" xmlns:rdf="http://www.w3.org/1999/02/22-rdf-syntax-ns#" xmlns="http://www.w3.org/2000/svg" height="100%" viewBox="50 5 875 625" width="100%" version="1.0" preserveAspectRatio="xMinYMin meet" xmlns:cc="http://creativecommons.org/ns#" xmlns:dc="http://purl.org/dc/elements/1.1/">
 <metadata id="metadata3508">
  <rdf:RDF>
   <cc:Work rdf:about="">
    <dc:format>image/svg+xml</dc:format>
    <dc:type rdf:resource="http://purl.org/dc/dcmitype/StillImage"/>
    <dc:title/>
   </cc:Work>
  </rdf:RDF>
 </metadata>
 <text id="text3611" style="word-spacing:0px;letter-spacing:0px" line-height="125%" xml:space="preserve" font-size="13.289px" transform="scale(.99998 1)" y="367.0" x="88.0" font-family="sans-serif" fill="#000000"><tspan id="tspan3615" y="365.36798" x="121.88812"/></text>
 <g id="g1663" transform="matrix(1.032 0 0 1 8.3391 .000088445)">
  <path id="path3008" stroke-linejoin="round" d="m491.1 45.657c0-0.67957 0.47034-1.2135 1.069-1.2135h371.46c0.55586 0 1.0689 0.53395 1.0689 1.2135v120.52c0 0.67955-0.51308 1.2134-1.0689 1.2134h-371.46c-0.59863 0-1.069-0.53394-1.069-1.2134zm2.138 120.52-1.0689-1.2134h371.46l-1.069 1.2134v-120.52l1.069 1.2134h-371.46l1.0689-1.2134z" stroke="#000" stroke-width=".045558px"/>
  <text id="text3010" font-size="29.142px" line-height="125%" font-family="Arial" xml:space="preserve" style="text-decoration-line:underline;text-decoration:underline" transform="scale(1.0368 .96446)" y="122.09002" x="553.02844" stroke-width=".98427" fill="#000000">Control Memory</text>
  <text id="text3012" font-size="19.333px" font-family="Arial" xml:space="preserve" transform="scale(1.0368 .96446)" style="font-variant-numeric:normal;font-variant-ligatures:normal;font-variant-caps:normal;font-feature-settings:normal" y="488.06808" x="177.34813" stroke-width=".98427" fill="#000000">MUX C</text>
  <path id="path3014" stroke-linejoin="round" d="m684.54 164.68v165.19h-1.7476v-165.19zm4.2666 163.43-5.1405 10.604-5.1405-10.604z" stroke="#000" stroke-width=".052202px"/>
  <path id="path3016" stroke-linejoin="round" d="m698.31 229.63-27.063 17.946 0.77178 0.95721 27.012-17.899z" stroke="#000" stroke-width=".049624px"/>
  <text id="text3018" font-size="14.889px" font-family="Arial" xml:space="preserve" transform="scale(1.0368 .96446)" y="247.09258" x="638.70972" stroke-width=".98427" line-height="125%" fill="#000000"><tspan id="tspan3920" y="247.09258" x="638.70972" stroke-width=".98427">80</tspan></text>
  <path id="path3024" stroke-linejoin="round" d="m228.83 190.02c0 0.2982 0.33902 0.54671 0.76837 0.54671h128.35c0.42936 0 0.76834-0.24851 0.76834-0.54671v-136.53c0-0.31478-0.33898-0.56331-0.76834-0.56331h-128.35c-0.42935 0-0.76837 0.24852-0.76837 0.56331zm1.5141-136.53-0.7458 0.54677h128.35l-0.74581-0.54677v136.53l0.74581-0.54674h-128.34l0.7458 0.54674z" stroke="#000" stroke-width=".019350px"/>
  <path id="path3026" stroke-linejoin="round" d="m394.24 53.211c0-0.37493 0.38589-0.68736 0.849-0.68736h32.931c0.46305 0 0.84897 0.31244 0.84897 0.68736v101.35c0 0.3749-0.38592 0.68734-0.84897 0.68734h-32.931c-0.46311 0-0.849-0.31244-0.849-0.68734zm1.6979 101.35-0.84898-0.68739h32.931l-0.87479 0.68739v-101.35l0.87479 0.70818h-32.931l0.84898-0.70818z" stroke="#000" stroke-width=".023149px"/>
  <path id="path3028" stroke-linejoin="round" d="m69.518 496.38c0 0.43024 0.3016 0.76994 0.66351 0.76994h286.52c0.3619 0 0.66352-0.3397 0.66352-0.76994v-48.168c0-0.40765-0.30162-0.74729-0.66352-0.74729h-286.52c-0.36193 0-0.66351 0.33964-0.66351 0.74729zm1.327-48.168-0.66352 0.74734h286.52l-0.66351-0.74734v48.168l0.66351-0.74734h-286.52l0.66352 0.74734z" stroke="#000" stroke-width=".021340px"/>
  <text id="text3038" font-size="20.273px" font-family="Arial" xml:space="preserve" transform="scale(1.0368 .96446)" line-height="125%" y="628.38428" x="56.342712" stroke-width=".98427" fill="#000000">SR</text>
  <path id="path3040" stroke-linejoin="round" d="m95.552 92.87c0 0.26531 0.31983 0.48638 0.70359 0.48638h50.019c0.4051 0 0.72493-0.22109 0.72493-0.48638v-24.158c0-0.26531-0.31983-0.48638-0.72493-0.48638h-50.024c-0.38377 0-0.70359 0.22109-0.70359 0.48638zm1.4286-24.158-0.72492 0.50112h50.019l-0.70361-0.50112v24.158l0.70361-0.48638h-50.024l0.72492 0.48638z" stroke="#000" stroke-width=".017726px"/>
  <g id="g4866" stroke-linejoin="round" transform="matrix(.72773 0 0 1.025 -271.63 122.83)" stroke="#000" stroke-width=".043902px">
   <path id="path3042" d="m828.4 256.34h12.482v1.0922h-12.48z"/>
   <path id="path3044" d="m854.34 256.34h12.482v1.0922h-12.48z"/>
   <path id="path3048" d="m840.5 243.5h13.454v1.0922h-13.45z"/>
   <path id="path3050" d="m841.07 257.26v-13.588h-1.1028v13.588z"/>
   <path id="path3052" d="m854.17 257.26v-13.938h-1.1027v13.938z"/>
   <path id="path3054" d="m866.65 257.26v-13.938h-1.1028v13.938z"/>
   <path id="path3058" d="m865.81 243.5h13.763v1.0922h-13.76z"/>
  </g>
  <path id="path3060" stroke-linejoin="round" d="m296.65 516.45-0.14502-16.967-1.4342-0.15802-0.145 17.125zm4.7156-12.007-5.5905-7.6475-5.1232 7.7043z" stroke="#000" stroke-width=".019770px"/>
  <path id="path3062" stroke-linejoin="round" d="m320.61 523.07v-19.578h-1.7237v19.578zm4.2964-18.211-5.1452-8.1574-5.1452 8.1574h10.291z" stroke="#000" stroke-width=".022904px"/>
  <text id="text3064" font-size="16.472px" font-family="Arial" xml:space="preserve" transform="scale(1.0368 .96446)" y="587.68433" x="323.83438" stroke-width=".98427" line-height="125%" fill="#000000"><tspan id="tspan14891" font-size="16.472px" font-family="Arial" line-height="125%" y="587.68433" x="323.83438" stroke-width=".98427">0</tspan></text>
  <text id="text3066" font-size="15.147px" font-family="Arial" xml:space="preserve" transform="scale(1.0368 .96446)" y="191.31694" x="304.51236" stroke-width=".98427" line-height="125%" fill="#000000">A0</text>
  <text id="text3068" font-size="19.333px" font-family="Arial" xml:space="preserve" transform="scale(1.0368 .96446)" style="font-variant-numeric:normal;font-variant-ligatures:normal;font-variant-caps:normal;font-feature-settings:normal" y="134.81702" x="259.6709" stroke-width=".98427" line-height="125%" fill="#000000">MUX A</text>
  <text id="text3072" font-size="17.734px" font-family="Arial" xml:space="preserve" transform="scale(1.0368 .96446)" y="223.62167" x="670.82727" stroke-width=".98427" line-height="125%" fill="#000000"><tspan id="tspan14893" y="223.62167" x="670.82727" stroke-width=".98427">µInstruction</tspan></text>
  <text id="text3076" font-size="19.639px" font-family="Arial" xml:space="preserve" transform="scale(1.0368 .96446)" line-height="125%" y="313.93539" x="511.7529" stroke-width=".98427" fill="#000000">MADDR</text>
  <text id="text3080" font-size="19.85px" font-family="Arial" xml:space="preserve" transform="matrix(0 -.96446 1.0368 0 0 0)" y="403.57288" x="-137.52202" stroke-width=".98427" fill="#000000">µAddr</text>
  <path id="path3082" stroke-linejoin="round" d="m429.06 103.12h56.583v1.6035h-56.583zm55.393-3.973 7.0951 4.7868-7.0951 4.7868z" stroke="#000" stroke-width=".020606px"/>
  <text id="text3084" font-size="19.85px" font-family="Arial" xml:space="preserve" transform="scale(1.0368 .96446)" y="91.471306" x="104.0646" stroke-width=".98427" fill="#000000">+1</text>
  <path id="path3086" fill-rule="evenodd" stroke-width=".98428" d="m454.78 103.94c0-1.3401 1.1063-2.417 2.4441-2.417s2.4441 1.0768 2.4441 2.417c0 1.3162-1.1063 2.3931-2.4441 2.3931s-2.4441-1.0769-2.4441-2.3931"/>
  <path id="path3088" stroke-linejoin="round" d="m453.62 104.07v-0.31108l0.0517-0.47861c0.0255-0.0957 0.0255-0.19143 0.0769-0.3111l0.12862-0.43076c0.0256-0.0957 0.0769-0.1675 0.103-0.26321l0.23154-0.40681c0.0518-0.0957 0.10288-0.19146 0.18008-0.28716l0.30867-0.35897c0.0517-0.0479 0.12862-0.11967 0.18009-0.16751l0.36015-0.28714c0.10308-0.0958 0.20582-0.16751 0.33447-0.23932l0.43733-0.2154c0.0769-0.0479 0.15434-0.0717 0.25723-0.11966l0.43738-0.1436c0.12864-0.0239 0.25726-0.0479 0.38588-0.07186l0.48879-0.04786h0.36017l0.48881 0.04786c0.12861 0.02398 0.23151 0.04786 0.36017 0.07186l0.46304 0.1436c0.1031 0.0479 0.20582 0.0716 0.30872 0.11966l0.4116 0.2154c0.103 0.0716 0.20582 0.14356 0.28302 0.21538l0.36017 0.28715c0.0768 0.0717 0.1543 0.11968 0.2058 0.19142l0.30871 0.35897c0.077 0.0957 0.12863 0.19146 0.20582 0.28716l0.20577 0.40681c0.0517 0.0957 0.0768 0.16753 0.103 0.26321l0.17561 0.4337c0.0255 0.11967 0.052 0.21538 0.052 0.31108l0.0517 0.4786c0.0256 0.11968 0.0256 0.2154 0 0.31111l-0.0517 0.50252c0 0.0956-0.0254 0.19144-0.052 0.28718l-0.15434 0.45468c-0.0255 0.0956-0.0519 0.16748-0.10299 0.26321l-0.20579 0.40682c-0.077 0.0956-0.12866 0.19147-0.2058 0.2872l-0.30875 0.35894c-0.0517 0.0718-0.1286 0.11968-0.20578 0.19144l-0.36016 0.28717c-0.0769 0.0718-0.18009 0.1436-0.28301 0.21536l-0.41161 0.21539c-0.10299 0.0479-0.20582 0.0717-0.30871 0.11969l-0.46305 0.14355c-0.1287 0.0239-0.23157 0.0479-0.36018 0.0719l-0.4888 0.0479h-0.36015l-0.48882-0.0479c-0.12862-0.024-0.25724-0.0479-0.38588-0.0719l-0.4197-0.14359c-0.10298-0.0479-0.18003-0.0717-0.25722-0.11969l-0.43733-0.21539c-0.12866-0.0718-0.23156-0.14357-0.33447-0.23929l-0.36015-0.2872c-0.0518-0.0479-0.12866-0.11965-0.1801-0.16748l-0.3087-0.35894c-0.0768-0.0956-0.12864-0.19146-0.18007-0.2872l-0.23152-0.40682c-0.0256-0.0957-0.077-0.16748-0.10297-0.26321l-0.12864-0.45469c-0.0517-0.0956-0.0517-0.19144-0.077-0.28717zm3.473 0.19144-0.0769-0.31109 0.15439 0.45468-0.103-0.26323 0.20583 0.40682-0.18012-0.28718 0.30872 0.35897-0.18007-0.16753 0.33446 0.31109-0.33446-0.23931 0.41163 0.21535-0.25729-0.11964 0.4631 0.14357-0.38591-0.0718 0.48882 0.0479h-0.36019l0.4888-0.0479-0.36016 0.0718 0.46304-0.14357-0.30871 0.11964 0.41166-0.21535-0.283 0.21535 0.36016-0.31104-0.2058 0.19144 0.30872-0.35897-0.20581 0.28718 0.23153-0.40682-0.10288 0.26323 0.12865-0.45468-0.0517 0.31109 0.0517-0.50252v0.31108l-0.0517-0.4786 0.0517 0.28715-0.12865-0.43074 0.10288 0.26323-0.23153-0.40682 0.20581 0.28718-0.30872-0.35896 0.2058 0.19144-0.36016-0.31109 0.283 0.21536-0.41166-0.21536 0.30871 0.11969-0.46304-0.14359 0.36016 0.0719-0.4888-0.0479h0.36019l-0.48882 0.0479 0.38591-0.0719-0.4631 0.14359 0.25729-0.11969-0.41163 0.21536 0.33446-0.23928-0.33446 0.31109 0.18007-0.16751-0.30872 0.35896 0.18012-0.28718-0.20583 0.40682 0.103-0.26323-0.15439 0.43074 0.0769-0.28715-0.0516 0.4786v-0.31107z" stroke="#000" stroke-width=".024813px"/>
  <path id="path3092" stroke-linejoin="round" d="m357.69 105.46h33.54v-1.6042h-33.54zm29.617 4.1044 7.1374-4.9184-7.1374-4.9185z" stroke="#000" stroke-width="0.0152px"/>
  <path id="path3094" stroke-linejoin="round" d="m286.54 272.44v-73.52h-1.7238v73.516zm5.5311-70.34-6.4059-12.016-5.3978 11.035 11.552-0.24548z" stroke="#000" stroke-width=".023826px"/>
  <path id="path3098" stroke-linejoin="round" d="m458.12 30.826h-336.44v1.1928h336.44z" stroke="#000" stroke-width=".028808px"/>
  <path id="path3100" stroke-linejoin="round" d="m121.46 31.656-0.18404 36.727h1.5334l0.18402-36.727z" stroke="#000" stroke-width=".0086348px"/>
  <path id="path3102" stroke-linejoin="round" d="m147.18 79.861h74.293v1.6036h-74.293zm72.813-3.9848 8.8978 4.7865-8.8978 4.7864v-9.573z" stroke="#000" stroke-width=".011536px"/>
  <path id="path3104" stroke-linejoin="round" d="m150.3 134.09h71.415v1.5915h-71.415zm70.074-3.997 8.0697 4.787-8.0697 4.7868v-9.5735z" stroke="#000" stroke-width=".010986px"/>
  <path id="path3108" stroke-linejoin="round" d="m340.99 549.1-0.28969-43.929-1.4326-0.55743v44.487zm3.5682-43.726-4.4164-8.6709-4.1268 8.5315z" stroke="#000" stroke-width=".032260px"/>
  <path id="path3110" stroke-linejoin="round" d="m395.58 442.06-13.954 14.576 0.98566 0.80894 13.927-14.577z" stroke="#000" stroke-width=".024813px"/>
  <text id="text3112" font-size="13.3px" font-family="Arial" xml:space="preserve" transform="scale(1.0368 .96446)" y="466.22385" x="365.51865" stroke-width=".98427" fill="#000000">4</text>
  <path id="path3120" stroke-linejoin="round" d="m575.75 252.3-15.482 12.671 1.5806 0.79993 15.482-12.671z" stroke="#000" stroke-width=".032339px"/>
  <text id="text3122" font-size="13.3px" font-family="Arial" xml:space="preserve" transform="scale(1.0368 .96446)" y="266.90698" x="528.6723" stroke-width=".98427" fill="#000000">12</text>
  <path id="path3124" stroke-linejoin="round" d="m200.35 161.6h23.164v1.6037h-23.164zm21.984-3.9853 7.1026 4.7872-7.1026 4.7871v-9.5742z" stroke="#000" stroke-width=".010308px"/>
  <text id="text3126" font-size="20.273px" font-family="Arial" xml:space="preserve" transform="scale(1.0368 .96446)" line-height="125%" y="175.45337" x="172.99814" stroke-width=".98427" fill="#000000">0</text>
  <text id="text3130" font-size="15.205px" font-family="Arial" xml:space="preserve" transform="scale(1.0368 .96446)" y="193.6165" x="157.86322" stroke-width=".98427" line-height="125%" fill="#000000">(fetch) </text>
  <path id="path3134" stroke-linejoin="round" d="m150.34 135.44-0.15493 88.867 1.2905 0.0157 0.15488-88.88z" stroke="#000" stroke-width=".014435px"/>
  <path id="path3136" stroke-linejoin="round" d="m272.42 515.73v-13.973h-1.7244v13.973zm4.3622-11.79-5.237-7.0295-4.9668 7.1224 10.385 0.0929z" stroke="#000" stroke-width=".019353px"/>
  <path id="path3138" stroke-linejoin="round" d="m431.88 446.09v-26.74h-1.4835v26.74z" stroke="#000" stroke-width=".014285px"/>
  <text id="text3140" font-size="13.937px" font-family="Arial" xml:space="preserve" transform="scale(1.0368 .96446)" y="641.18561" x="232.23949" stroke-width=".98427" line-height="125%" fill="#000000">0</text>
  <path id="path3142" stroke-linejoin="round" d="m141.48 420.97 612.11-3.0141v-1.2353l-612.11 3.0142z" stroke="#000" stroke-width=".040367px"/>
  <path id="path3142b" stroke-linejoin="round" d="m140.32 420.97 612.16-3.0141v-1.2352l-612.16 3.0141z" stroke="#000" stroke-width=".040368px"/>
  <path id="path3144" stroke-linejoin="round" d="m420.59 510.54c-0.27928-0.002-0.48415-0.31912-0.48308-0.69827l0.17011-61.043c0.00074-0.37915 0.20767-0.69379 0.48694-0.69198l20.489 0.13269c0.27925 0.002 0.49884 0.31922 0.49778 0.69836l-0.17012 61.043c-0.00075 0.37912-0.22239 0.69367-0.50167 0.69189zm20.494-1.2785-0.48701 0.71303 0.17011-61.043 0.48303 0.71931-20.489-0.1327 0.48703-0.71305-0.17011 61.043-0.48304-0.71932z" stroke="#000" stroke-width=".017596px"/>
  <path id="path3150" stroke-linejoin="round" d="m513.03 510.6c-0.30851 0.003-0.52622-0.34172-0.52824-0.73221l-0.32176-62.87c-0.003-0.39048 0.21239-0.69644 0.5209-0.69961l21.503-0.22091c0.27765-0.003 0.49516 0.2987 0.49716 0.68914l0.32181 62.87c0.003 0.39051-0.21218 0.73982-0.48982 0.74267zm21.495-1.6961-0.52066 0.743-0.32183-62.87 0.52825 0.73219-21.503 0.22094 0.48984-0.74268 0.32184 62.87-0.49742-0.73254z" stroke="#000" stroke-width=".036588px"/>
  <path id="path3156" stroke-linejoin="round" d="m607.11 508.47c-0.3212-0.003-0.54314-0.33865-0.53998-0.71324l0.51598-60.31c0.004-0.37462 0.23056-0.66367 0.55175-0.66029l22.386 0.23332c0.28903 0.002 0.51139 0.2967 0.50823 0.67128l-0.51601 60.31c-0.004 0.37456-0.2309 0.70523-0.51996 0.70222zm22.399-1.1819-0.55211 0.70193 0.51599-60.31 0.53998 0.71325-22.386-0.2333 0.51999-0.70226-0.51597 60.31-0.5079-0.71297z" stroke="#000" stroke-width=".036566px"/>
  <path id="path3162" stroke-linejoin="round" d="m662.06 343.47c0-0.43099 0.13481-0.81407 0.32736-0.81407h74.602c0.1733 0 0.30813 0.38308 0.30813 0.81407v33.378c0 0.43099-0.13483 0.81405-0.30813 0.81405h-74.602c-0.19255 0-0.32736-0.38306-0.32736-0.81405zm0.63549 33.378-0.30811-0.81411h74.602l-0.32734 0.81411v-33.378l0.32734 0.81412h-74.602l0.30811-0.81412z" stroke="#000" stroke-width=".030366px"/>
  <text id="text3164" font-size="18.372px" font-family="Arial" xml:space="preserve" transform="scale(1.0368 .96446)" y="380.1098" x="491.24451" stroke-width=".98427" line-height="125%" fill="#000000"><tspan id="tspan4277" font-size="18.372px" font-family="Arial" line-height="125%" y="380.1098" x="491.24451" stroke-width=".98427">SelA</tspan></text>
  <text id="text3168" font-size="18.372px" font-family="Arial" xml:space="preserve" transform="scale(1.0368 .96446)" y="380.87216" x="543.77551" stroke-width=".98427" line-height="125%" fill="#000000"><tspan id="tspan4279" font-size="18.372px" font-family="Arial" line-height="125%" y="380.87216" x="543.77551" stroke-width=".98427">SelB</tspan></text>
  <text id="text3172" font-size="18.372px" font-family="Arial" xml:space="preserve" transform="scale(1.0368 .96446)" y="380.87216" x="594.54614" stroke-width=".98427" line-height="125%" fill="#000000"><tspan id="tspan4281" font-size="18.372px" font-family="Arial" line-height="125%" y="380.87216" x="594.54614" stroke-width=".98427">SelC</tspan></text>
  <path id="path3176" stroke-linejoin="round" d="m500.1 343.45c0-0.43075 0.32402-0.78973 0.71286-0.78973h56.121c0.38889 0 0.7129 0.35898 0.7129 0.78973v33.385c0 0.43079-0.32401 0.78973-0.7129 0.78973h-56.121c-0.38884 0-0.71286-0.35894-0.71286-0.78973zm1.4257 33.385-0.71287-0.81369h56.121l-0.73445 0.81369v-33.385l0.73445 0.81366h-56.121l0.71287-0.81366z" stroke="#000" stroke-width=".022736px"/>
  <path id="path3178" stroke-linejoin="round" d="m556.36 343.47c0-0.43082 0.32705-0.81374 0.695-0.81374h54.252c0.36794 0 0.69509 0.38292 0.69509 0.81374v33.363c0 0.43081-0.32715 0.81374-0.69509 0.81374h-54.252c-0.36795 0-0.695-0.38293-0.695-0.81374zm1.3492 33.363-0.65412-0.81376h54.252l-0.69496 0.81376v-33.363l0.69496 0.81376h-54.252l0.65412-0.81376z" stroke="#000" stroke-width=".044237px"/>
  <path id="path3180" stroke-linejoin="round" d="m610.74 343.47c0-0.43083 0.26241-0.81381 0.63738-0.81381h51.065c0.33751 0 0.59991 0.38298 0.59991 0.81381v33.367c0 0.43083-0.2624 0.81379-0.59991 0.81379h-51.065c-0.37497 0-0.63738-0.38296-0.63738-0.81379zm1.2374 33.367-0.59982-0.81383h51.065l-0.63737 0.81383v-33.367l0.63737 0.81381h-51.065l0.59982-0.81381z" stroke="#000" stroke-width=".042364px"/>
  <path id="path3182" stroke-linejoin="round" d="m437.63 524.74-13.842 9.5004 0.77181 0.95721 13.842-9.4764z" stroke="#000" stroke-width=".024813px"/>
  <path id="path3184" stroke-linejoin="round" d="m531.8 523.43-13.842 9.5004 0.77178 0.95721 13.84-9.5004z" stroke="#000" stroke-width=".024813px"/>
  <path id="path3186" stroke-linejoin="round" d="m625.21 522.55-13.842 9.5242 0.77184 0.95722 13.842-9.5242z" stroke="#000" stroke-width=".049624px"/>
  <path id="path3188" stroke-linejoin="round" d="m432.09 428.26v12.349h-1.6979v-12.349zm4.2961 10.745-5.1452 9.5721-5.1452-9.5721h10.291z" stroke="#000" stroke-width=".024813px"/>
  <path id="path3190" stroke-linejoin="round" d="m524.85 426.22v12.372h-1.7236v-12.372zm4.2962 10.769-5.1452 9.5721-5.1452-9.5721h10.291z" stroke="#000" stroke-width=".024813px"/>
  <path id="path3192" stroke-linejoin="round" d="m618.95 426.78v12.349h-1.7494v-12.349zm4.2705 10.721-5.1452 9.5721-5.1452-9.5721h10.291z" stroke="#000" stroke-width=".049624px"/>
  <path id="path3194" stroke-linejoin="round" d="m462.62 478.41-12.451 0.0718v1.6034l12.451-0.072v-1.6034zm-10.779-3.9244-10.238 4.8581 10.316 4.7144-0.0767-9.5721z" stroke="#000" stroke-width=".024813px"/>
  <path id="path3196" stroke-linejoin="round" d="m585.49 396.89v-19.197h-1.2963v19.197z" stroke="#000" stroke-width=".014296px"/>
  <path id="path3198" fill-rule="evenodd" stroke-width=".98428" d="m428.71 419.67c0-1.3405 0.94364-2.4176 2.0848-2.4176 1.163 0 2.0847 1.0771 2.0847 2.4176 0 1.3164-0.92167 2.3938-2.0847 2.3938-1.1412 0-2.0848-1.0771-2.0848-2.3938"/>
  <path id="path3200" stroke-linejoin="round" d="m427.13 419.8v-0.31114l0.0467-0.47874c0.0228-0.0958 0.0228-0.19149 0.0695-0.3112l0.11609-0.43082c0.0228-0.0956 0.0697-0.16761 0.0927-0.26331l0.20893-0.40694c0.0467-0.0956 0.0927-0.19145 0.16248-0.28722l0.27857-0.35904 0.18572-0.19149 0.32503-0.28723c0.0927-0.0718 0.18566-0.1436 0.27852-0.21546l0.37143-0.21541c0.0695-0.0478 0.16249-0.0717 0.25535-0.1197l0.41784-0.14365c0.11607-0.0239 0.23213-0.0478 0.32502-0.0715l0.44105-0.0478h0.32497l0.44107 0.0478c0.11608 0.0239 0.23212 0.0478 0.34821 0.0715l0.41782 0.14365c0.0927 0.0478 0.16252 0.0717 0.25535 0.1197l0.37144 0.21541c0.0928 0.0719 0.1857 0.14364 0.27856 0.21546l0.32504 0.28723c0.0696 0.0719 0.11605 0.11972 0.18566 0.19149l0.27857 0.35904c0.0466 0.0958 0.11603 0.19152 0.16248 0.28722l0.20897 0.40694c0.0227 0.0958 0.0695 0.16753 0.0928 0.26331l0.11604 0.43082c0.0461 0.11974 0.0461 0.21544 0.0697 0.3112l0.0466 0.47874v0.31114l-0.0466 0.50267c-0.0229 0.0957-0.0229 0.19148-0.0697 0.28727l-0.11604 0.45474c-0.0228 0.0956-0.0697 0.16761-0.0928 0.26332l-0.20897 0.40691c-0.0462 0.0957-0.11604 0.19146-0.16248 0.2872l-0.27857 0.35906c-0.0696 0.0718-0.11607 0.11969-0.18566 0.19151l-0.32504 0.28726c-0.0927 0.0716-0.18571 0.14358-0.27856 0.21538l-0.37144 0.21543c-0.0928 0.0478-0.16248 0.0718-0.25535 0.11974l-0.41782 0.14363c-0.11604 0.0239-0.23213 0.0478-0.34821 0.0717l-0.44107 0.0478h-0.32497l-0.44105-0.0478c-0.0928-0.024-0.20895-0.0478-0.32502-0.0717l-0.41784-0.14363c-0.0928-0.0478-0.1857-0.0719-0.25535-0.11974l-0.37143-0.21543c-0.0927-0.0717-0.18568-0.14359-0.27852-0.21538l-0.32503-0.28726-0.18572-0.19151-0.27857-0.35906c-0.0695-0.0958-0.11607-0.19141-0.16248-0.2872l-0.20893-0.40691c-0.0228-0.0958-0.0697-0.16757-0.0927-0.26332l-0.11609-0.45474c-0.0461-0.0958-0.0461-0.19148-0.0695-0.28727zm3.1339 0.19154-0.0697-0.3112 0.13929 0.45478-0.0927-0.2633 0.18569 0.40691-0.16249-0.28719 0.27856 0.35899-0.18573-0.19148 0.32501 0.31117-0.27856-0.21542 0.3714 0.21542-0.25531-0.1197 0.41785 0.14361-0.34827-0.0718 0.44112 0.0478h-0.325l0.44107-0.0478-0.325 0.0718 0.41783-0.14361-0.25537 0.1197 0.37145-0.21542-0.27857 0.21542 0.32498-0.31117-0.18572 0.19148 0.27858-0.35899-0.16249 0.28719 0.18571-0.40691-0.0927 0.2633 0.13927-0.45478-0.0697 0.3112 0.0466-0.50268v0.31114l-0.0466-0.47874 0.0697 0.28729-0.13927-0.4309 0.0927 0.26331-0.18571-0.40691 0.16249 0.28721-0.27858-0.35901 0.18572 0.19147-0.32498-0.31116 0.27857 0.21545-0.37145-0.21545 0.25537 0.11972-0.41783-0.14364 0.325 0.0717-0.44107-0.0478h0.325l-0.44112 0.0478 0.34827-0.0717-0.41785 0.14364 0.25531-0.11972-0.3714 0.21545 0.27856-0.21545-0.32501 0.31116 0.18573-0.19147-0.27856 0.35901 0.16249-0.28721-0.18569 0.40691 0.0927-0.26331-0.13929 0.4309 0.0697-0.28729-0.0465 0.47874v-0.31114z" stroke="#000" stroke-width=".023572px"/>
  <path id="path3202" fill-rule="evenodd" stroke-width=".98428" d="m521.34 419.67c0-1.3405 0.9217-2.4176 2.0849-2.4176 1.1412 0 2.0627 1.0771 2.0627 2.4176 0 1.3164-0.92163 2.3938-2.0627 2.3938-1.1632 0-2.0849-1.0771-2.0849-2.3938"/>
  <path id="path3204" stroke-linejoin="round" d="m519.68 419.8c-0.0228-0.0958-0.0228-0.19145 0-0.31114l0.0461-0.47874c0-0.0958 0.0227-0.19149 0.0467-0.3112l0.1393-0.43082c0.0227-0.0956 0.0464-0.16761 0.0927-0.26331l0.18572-0.40694c0.0466-0.0956 0.11604-0.19145 0.18569-0.28722l0.27854-0.35904c0.0463-0.0719 0.11609-0.11969 0.18571-0.19149l0.32503-0.28723c0.0695-0.0718 0.16246-0.1436 0.25534-0.21546l0.37143-0.21541c0.0927-0.0478 0.18567-0.0717 0.27855-0.1197l0.41785-0.14365c0.0927-0.0239 0.20896-0.0478 0.325-0.0715l0.44106-0.0478h0.325l0.44104 0.0478c0.11608 0.0239 0.23215 0.0478 0.34819 0.0715l0.39463 0.14365c0.0927 0.0478 0.16252 0.0717 0.23219 0.1197l0.39461 0.21541c0.0928 0.0478 0.20892 0.11974 0.27858 0.21546l0.32498 0.28723 0.20891 0.21542 0.25535 0.35903c0.0695 0.0957 0.11606 0.1676 0.16249 0.2633l0.20893 0.40694c0.0229 0.0958 0.0695 0.16753 0.0927 0.26331l0.11606 0.43082c0.0467 0.11974 0.0467 0.21544 0.0695 0.3112l0.0461 0.47874v0.31114l-0.0461 0.50267c-0.0228 0.0957-0.0228 0.19148-0.0695 0.28727l-0.11606 0.45474c-0.0227 0.0956-0.0697 0.16761-0.0927 0.26332l-0.20893 0.40691c-0.0467 0.0957-0.0927 0.16754-0.16249 0.26327l-0.25535 0.35907c-0.0698 0.0717-0.13926 0.1436-0.20891 0.21543l-0.32498 0.28726c-0.0695 0.0957-0.18574 0.1675-0.27858 0.21538l-0.39461 0.21543c-0.0699 0.0478-0.13932 0.0718-0.23219 0.11974l-0.39463 0.14363c-0.11604 0.0239-0.23211 0.0478-0.34819 0.0717l-0.44104 0.0478h-0.325l-0.44106-0.0478c-0.11607-0.024-0.23214-0.0478-0.325-0.0717l-0.41319-0.13618c-0.0927-0.0478-0.18571-0.0719-0.27855-0.11973l-0.37143-0.21542c-0.0928-0.0717-0.1857-0.1436-0.25534-0.2154l-0.32503-0.28725c-0.0695-0.0717-0.13928-0.11969-0.18571-0.19149l-0.27855-0.35907c-0.0695-0.0958-0.13928-0.19143-0.18569-0.28722l-0.1857-0.4069c-0.0467-0.0958-0.0695-0.16757-0.0927-0.26333l-0.13929-0.45472c-0.0228-0.0958-0.0467-0.19148-0.0467-0.28728zm3.1104 0.19154-0.0467-0.3112 0.11612 0.45478-0.0927-0.2633 0.20893 0.40691-0.18573-0.28719 0.2786 0.35899-0.18573-0.19148 0.325 0.31117-0.25532-0.21542 0.37137 0.21542-0.27855-0.1197 0.41786 0.14361-0.325-0.0718 0.44108 0.0478h-0.32501l0.44105-0.0478-0.34822 0.0718 0.41784-0.14361-0.23213 0.1197 0.37147-0.21542-0.27862 0.21542 0.32499-0.31117-0.20889 0.21545 0.27854-0.35905-0.16246 0.26328 0.18571-0.40691-0.0928 0.2633 0.13933-0.45478-0.0695 0.3112 0.0467-0.50268v0.31114l-0.0467-0.47874 0.0695 0.28729-0.13933-0.4309 0.0928 0.26331-0.18571-0.40691 0.16246 0.26329-0.27854-0.35905 0.20889 0.21543-0.32499-0.31116 0.27862 0.21545-0.37147-0.21545 0.23213 0.11972-0.41784-0.14364 0.34822 0.0717-0.44105-0.0478h0.32501l-0.44108 0.0478 0.325-0.0717-0.41786 0.14364 0.27855-0.11972-0.37137 0.21545 0.25532-0.21545-0.325 0.31116 0.18573-0.19147-0.2786 0.35901 0.18573-0.28721-0.20893 0.40691 0.0927-0.26331-0.11612 0.4309 0.0467-0.28729-0.0467 0.47874v-0.31114z" stroke="#000" stroke-width=".023572px"/>
  <path id="path3206" fill-rule="evenodd" stroke-width=".98428" d="m615.96 419.68c0-1.3405 0.96559-2.4415 2.1068-2.4415s2.0627 1.1011 2.0627 2.4415c0 1.2925-0.92168 2.3938-2.0627 2.3938s-2.1068-1.1012-2.1068-2.3938"/>
  <path id="path3208" stroke-linejoin="round" d="m614.51 419.83c-0.0468-0.0957-0.0468-0.19149 0-0.3351l0.0463-0.4787c0-0.0958 0-0.19155 0.0467-0.28728l0.13927-0.43084c0-0.0957 0.0466-0.1915 0.0927-0.28724l0.18572-0.38298c0.0466-0.0958 0.0929-0.1915 0.13926-0.28727l0.2786-0.3351c0.0467-0.0956 0.13927-0.14359 0.18567-0.23934l0.325-0.28727c0.0927-0.0957 0.18572-0.14359 0.27858-0.19148l0.37143-0.23935c0.0925-0.0478 0.18569-0.0478 0.27855-0.0956l0.40757-0.11468c0.0927-0.0478 0.23213-0.0478 0.325-0.0957l0.41785-0.0478h0.32498l0.46427 0.0478c0.0927 0.0478 0.23213 0.0478 0.32501 0.0957l0.41786 0.14362c0.0927 0.0478 0.18568 0.0478 0.27854 0.0956l0.3714 0.23934c0.0928 0.0478 0.18574 0.0957 0.27859 0.19148l0.325 0.28723c0.0467 0.0956 0.0927 0.14362 0.13928 0.19153l0.27856 0.38296c0.0927 0.0958 0.13925 0.19148 0.1857 0.28724l0.23218 0.38298c0 0.0958 0.0467 0.19149 0.0927 0.28723l0.0929 0.43086c0.0467 0.0957 0.0467 0.19148 0.0926 0.28727l0.0467 0.47869v0.33512l-0.0467 0.47868c-0.0462 0.0956-0.0462 0.19153-0.0926 0.28727l-0.0929 0.47869c-0.0467 0.0956-0.0927 0.14368-0.0927 0.23938l-0.23218 0.43089c-0.0465 0.0956-0.0927 0.19144-0.1857 0.28719l-0.27856 0.3351c-0.0467 0.0478-0.0927 0.14365-0.13928 0.1915l-0.325 0.28724c-0.0927 0.0958-0.18569 0.14361-0.27859 0.23939l-0.3714 0.19146c-0.0927 0.0478-0.18575 0.0957-0.27854 0.14364l-0.41786 0.14362c-0.0927 0-0.23216 0.0478-0.32501 0.0478l-0.46427 0.0478h-0.32498l-0.41785-0.0478c-0.0927 0-0.23212-0.0478-0.325-0.0478l-0.41785-0.14362c-0.0927-0.0478-0.1857-0.0957-0.27855-0.14364l-0.37143-0.19146c-0.0927-0.0958-0.18571-0.1436-0.27859-0.23939l-0.32492-0.28724c-0.0463-0.0478-0.13928-0.14361-0.18571-0.23935l-0.27856-0.33515c-0.0464-0.0957-0.0927-0.1436-0.13929-0.23931l-0.18571-0.43087c-0.0466-0.0957-0.0927-0.14361-0.0927-0.23938l-0.13934-0.47869c-0.0462-0.0956-0.0462-0.19149-0.0462-0.28727zm3.1104 0.19149-0.0466-0.33509 0.0927 0.4787-0.0927-0.28724 0.23214 0.43086-0.18571-0.28723 0.27855 0.38296-0.18571-0.23935 0.32502 0.33512-0.2786-0.23938 0.37145 0.23938-0.27857-0.14364 0.41784 0.14364-0.325-0.0478 0.41783 0.0478h-0.32495l0.46425-0.0478-0.325 0.0478 0.41785-0.14364-0.27856 0.14364 0.37143-0.23938-0.27856 0.23938 0.325-0.33512-0.1857 0.19148 0.27858-0.33509-0.13932 0.28723 0.18568-0.43086-0.0927 0.28724 0.13927-0.4787-0.0927 0.33509 0.0468-0.52659v0.3351l-0.0468-0.47874 0.0927 0.28725-0.13927-0.43087 0.0927 0.23938-0.18568-0.38299 0.13932 0.28723-0.27858-0.38299 0.1857 0.19149-0.325-0.2872 0.27856 0.19147-0.37143-0.19147 0.27856 0.0958-0.41785-0.14361 0.325 0.0958-0.46425-0.0478h0.32495l-0.41783 0.0478 0.325-0.0958-0.41784 0.14361 0.27857-0.0958-0.37145 0.19147 0.2786-0.19147-0.32502 0.2872 0.18571-0.23935-0.27855 0.38298 0.18571-0.23936-0.23214 0.38299 0.0927-0.23938-0.0927 0.43087 0.0466-0.28725-0.0466 0.47874v-0.3351z" stroke="#000" stroke-width=".047146px"/>
  <path id="path3210" stroke-linejoin="round" d="m689.42 376.64v112.93h-1.7003v-112.93zm4.328 112.1-5.1522 4.9556-5.1521-4.9556h10.304z" stroke="#000" stroke-width=".035730px"/>
  <path id="path3212" stroke-linejoin="round" d="m695.12 446.63-13.842 9.4764 0.77176 1.005 13.84-9.5243z" stroke="#000" stroke-width=".049624px"/>
  <text id="text3214" font-size="13.299px" font-family="Arial" xml:space="preserve" transform="scale(1.0368 .96446)" y="467.70578" x="645.39209" stroke-width=".98427" line-height="125%" fill="#000000"><tspan id="tspan3973" y="467.70578" x="645.39209" stroke-width=".98427">49</tspan></text>
  <path id="path3216" stroke-linejoin="round" d="m416.08 548.36c0-0.47947 0.27168-0.87905 0.59767-0.87905h52.466c0.34407 0 0.61573 0.39958 0.61573 0.87905v35.242c0 0.50608-0.27166 0.87906-0.61573 0.87906h-52.466c-0.32599 0-0.59767-0.37298-0.59767-0.87906zm1.2134 35.242-0.61574-0.87906h52.466l-0.59768 0.87906v-35.242l0.59768 0.87904h-52.466l0.61574-0.87904z" stroke="#000" stroke-width=".021965px"/>
  <text id="text3218" font-size="15.205px" font-family="Arial" xml:space="preserve" transform="scale(1.0368 .96446)" y="598.85663" x="409.78314" stroke-width=".98427" line-height="125%" fill="#000000">MUX</text>
  <path id="path3220" stroke-linejoin="round" d="m400.36 570.19h15.539v1.1964h-15.539z" stroke="#000" stroke-width=".024813px"/>
  <text id="text3222" font-size="15.272px" font-family="Arial" xml:space="preserve" transform="scale(1.0368 .96446)" y="587.00757" x="363.38339" stroke-width=".98427" line-height="125%" fill="#000000">MRA</text>
  <text id="text3224" font-size="16.474px" font-family="Arial" xml:space="preserve" transform="matrix(.0018132 -.95110 1.0514 .0016867 0 0)" y="658.52899" x="-614.25494" stroke-width=".98428" line-height="125%" fill="#000000"><tspan id="tspan4437" y="658.52899" x="-614.25494" stroke-width=".98428">Rest of CPU</tspan></text>
  <text id="text3228" font-size="16.474px" font-family="Arial" xml:space="preserve" transform="matrix(.0018132 -.95110 1.0514 .0016867 0 0)" y="677.34839" x="-622.33368" stroke-width=".98428" fill="#000000">control </text>
  <text id="text3230" font-size="16.474px" font-family="Arial" xml:space="preserve" transform="matrix(.0018132 -.95110 1.0514 .0016867 0 0)" y="676.60846" x="-568.87213" stroke-width=".98428" fill="#000000">signals</text>
  <path id="path3232" stroke-linejoin="round" d="m648.47 437.9v-61.128h-1.2848v61.128z" stroke="#000" stroke-width=".051102px"/>
  <path id="path3234" stroke-linejoin="round" d="m444.54 583.13v14.62h-1.6979v-14.62zm4.2962 13.019-5.1452 9.5721-5.1452-9.5721h10.291z" stroke="#000" stroke-width=".024813px"/>
  <path id="path3236" stroke-linejoin="round" d="m511.41 548.25c0-0.48767 0.25774-0.92113 0.58917-0.92113h53.356c0.33141 0 0.58918 0.43346 0.58918 0.92113v35.873c0 0.48771-0.25777 0.867-0.58918 0.867h-53.356c-0.33143 0-0.58917-0.37929-0.58917-0.867zm1.2151 35.873-0.62591-0.92111h53.356l-0.62593 0.92111v-35.873l0.62593 0.92121h-53.356l0.62591-0.92121z" stroke="#000" stroke-width=".044668px"/>
  <text id="text3238" font-size="15.205px" font-family="Arial" xml:space="preserve" transform="scale(1.0368 .96446)" y="598.94733" x="502.75214" stroke-width=".98427" line-height="125%" fill="#000000">MUX</text>
  <path id="path3240" stroke-linejoin="round" d="m495.96 570.05h15.513v1.1964h-15.513z" stroke="#000" stroke-width=".024813px"/>
  <text id="text3242" font-size="15.271px" font-family="Arial" xml:space="preserve" transform="scale(1.0368 .96446)" line-height="125%" y="586.8493" x="457.2243" stroke-width=".98427" fill="#000000">MRB</text>
  <path id="path3244" stroke-linejoin="round" d="m539.6 583.72v14.158h-1.698v-14.158zm4.2709 12.634-5.1456 9.2544-5.1456-9.2544h10.292z" stroke="#000" stroke-width=".048796px"/>
  <path id="path3246" stroke-linejoin="round" d="m605.79 546.83c0-0.49736 0.24642-0.93956 0.56337-0.93956h51.024c0.31691 0 0.59862 0.4422 0.59862 0.93956v36.589c0 0.49741-0.28171 0.8843-0.59862 0.8843h-51.024c-0.31695 0-0.56337-0.38689-0.56337-0.8843zm1.162 36.589-0.59863-0.93953h51.023l-0.59862 0.93953v-36.589l0.59862 0.93959h-51.023l0.59863-0.93959z" stroke="#000" stroke-width=".044115px"/>
  <text id="text3248" font-size="15.205px" font-family="Arial" xml:space="preserve" transform="scale(1.0368 .96446)" y="598.15594" x="592.69159" stroke-width=".98427" line-height="125%" fill="#000000">MUX</text>
  <path id="path3252" stroke-linejoin="round" d="m591.26 570.69h15.487v1.1964h-15.487z" stroke="#000" stroke-width=".049624px"/>
  <text id="text3254" font-size="15.271px" font-family="Arial" xml:space="preserve" transform="scale(1.0368 .96446)" line-height="125%" y="587.49628" x="548.53967" stroke-width=".98427" fill="#000000">MRC</text>
  <path id="path3256" stroke-linejoin="round" d="m633.46 582.69v14.644h-1.6979v-14.644zm4.3218 13.068-5.1452 9.5721-5.1452-9.5721h10.291z" stroke="#000" stroke-width=".049624px"/>
  <path id="path3258" stroke-linejoin="round" d="m459.73 396.88h67.39v1.1833h-67.39z" stroke="#000" stroke-width=".037635px"/>
  <path id="path3260" stroke-linejoin="round" d="m459.17 541.76 1.2385-144.91-1.5103-0.0247-1.2385 144.95z" stroke="#000" stroke-width=".027358px"/>
  <path id="path3262" fill-rule="evenodd" stroke-width=".98428" d="m550.61 478.46c0-1.3401 1.0805-2.3932 2.4698-2.3932 1.3378 0 2.4183 1.0529 2.4183 2.3932 0 1.3401-1.0804 2.3931-2.4183 2.3931-1.3893 0-2.4698-1.0529-2.4698-2.3931"/>
  <path id="path3264" stroke-linejoin="round" d="m548.66 478.63v-0.28717l0.0517-0.52647c0-0.0957 0.0519-0.19144 0.0519-0.28718l0.15436-0.43072c0.0515-0.0958 0.0515-0.19143 0.10309-0.23929l0.20579-0.43076c0.0518-0.0956 0.15435-0.19144 0.20582-0.28716l0.30873-0.33503c0.0517-0.0957 0.15434-0.1436 0.20579-0.19144l0.36018-0.33501c0.10289-0.0478 0.2058-0.1436 0.3087-0.19146l0.41162-0.19144c0.10288-0.0478 0.20579-0.0958 0.3087-0.14359l0.46309-0.14357c0.10308-0.0478 0.20582-0.0478 0.36015-0.0478l0.46306-0.0478c0.15437-0.0478 0.25725-0.0478 0.36018 0l0.51451 0.0478c0.10309 0 0.25726 0 0.36015 0.0478l0.46308 0.14357c0.10299 0.0478 0.15436 0.0958 0.25726 0.0958l0.41159 0.23928c0.10291 0.0478 0.25731 0.1436 0.30876 0.1915l0.36016 0.33499c0.10269 0.0478 0.15434 0.14358 0.25724 0.19143l0.25724 0.38287c0.10308 0.0478 0.15436 0.14359 0.20583 0.23932l0.20583 0.43075c0.0517 0.0478 0.10309 0.14355 0.10309 0.23931l0.15439 0.43073c0.0518 0.0957 0.0518 0.19146 0.0518 0.28717l0.0519 0.52648v0.28713l-0.0519 0.47863c0 0.1436 0 0.2393-0.0518 0.33498l-0.15439 0.43076c0 0.0956-0.0518 0.19149-0.10309 0.23933l-0.20583 0.43075c-0.052 0.0958-0.10279 0.19143-0.20583 0.23929l-0.25724 0.38288c-0.10288 0.0478-0.15437 0.14359-0.25724 0.19144l-0.36016 0.33503c-0.0518 0.0478-0.2058 0.14357-0.30876 0.19143l-0.41159 0.19142c-0.1028 0.0478-0.15435 0.0956-0.25726 0.14364l-0.46308 0.14357c-0.10299 0.0478-0.25724 0.0478-0.36015 0.0478l-0.51451 0.0478c-0.10267 0.0478-0.20581 0.0478-0.36018 0l-0.46306-0.0478c-0.15433 0-0.25727 0-0.36015-0.0478l-0.46309-0.14357c-0.10288-0.0478-0.20578-0.0958-0.3087-0.14364l-0.41162-0.19142c-0.10299-0.0478-0.20581-0.14355-0.3087-0.19143l-0.36018-0.33503c-0.0518-0.0478-0.15435-0.0956-0.20579-0.19144l-0.30873-0.33499c-0.0517-0.0957-0.15438-0.19146-0.20582-0.28718l-0.20579-0.43075c-0.0518-0.0478-0.0518-0.14358-0.10309-0.23933l-0.15436-0.43076c0-0.0958-0.0519-0.19138-0.0519-0.33498zm3.4471 0.19143-0.0519-0.28714 0.15437 0.43072-0.10267-0.23931 0.20581 0.38288-0.20581-0.28715 0.30869 0.38288-0.20582-0.19142 0.36015 0.28715-0.25721-0.19146 0.41159 0.19146-0.30871-0.0957 0.46307 0.14357-0.36017-0.0958 0.46304 0.0478h-0.36015l0.51453-0.0478-0.41161 0.0958 0.46306-0.14357-0.25725 0.0957 0.41161-0.23929-0.30873 0.23929 0.36021-0.28715-0.20584 0.19142 0.30872-0.33502-0.20582 0.23929 0.20582-0.38288-0.10287 0.23931 0.15436-0.43072-0.052 0.28714 0.052-0.4786v0.28717l-0.052-0.47857 0.052 0.28713-0.15436-0.43076 0.10287 0.2393-0.20582-0.38287 0.20582 0.23929-0.30872-0.33502 0.20584 0.19145-0.36021-0.28715 0.30873 0.19143-0.41161-0.19143 0.25725 0.0957-0.46306-0.14355 0.41161 0.0956-0.51453-0.0478h0.36015l-0.46304 0.0478 0.36017-0.0956-0.46307 0.14355 0.30871-0.0957-0.41159 0.19143 0.25721-0.19143-0.36015 0.28715 0.20582-0.19145-0.30869 0.38293 0.20581-0.2872-0.20581 0.38287 0.10267-0.2393-0.15437 0.43076 0.0519-0.28713-0.0519 0.47857v-0.28717z" stroke="#000" stroke-width=".049624px"/>
  <path id="path3266" fill-rule="evenodd" stroke-width=".98428" d="m459.5 478.97c0-1.3161 1.1063-2.3931 2.4441-2.3931 1.3635 0 2.4441 1.0769 2.4441 2.3931 0 1.3401-1.0803 2.417-2.4441 2.417-1.3378 0-2.4441-1.0769-2.4441-2.417"/>
  <path id="path3268" stroke-linejoin="round" d="m456.63 479.14v-0.31108l0.0518-0.50254c0.0255-0.0958 0.0255-0.19145 0.0769-0.28715l0.12861-0.45469c0.0254-0.0716 0.0768-0.1675 0.10267-0.23932l0.23152-0.4068c0.0517-0.11969 0.1031-0.21538 0.18012-0.28714l0.30869-0.35896c0.0769-0.0719 0.12867-0.14362 0.20581-0.19146l0.36016-0.31109c0.10298-0.072 0.20582-0.14359 0.30871-0.19145l0.41166-0.21537c0.0769-0.0478 0.18006-0.0957 0.28297-0.11965l0.46308-0.1436c0.12861-0.0478 0.25725-0.0717 0.36013-0.0717l0.48878-0.0478c0.12867-0.0239 0.25725-0.0239 0.36019 0l0.48878 0.0478c0.12864 0 0.25728 0.0239 0.38591 0.0717l0.46306 0.1436c0.10266 0.0239 0.18008 0.0716 0.283 0.11965l0.4116 0.21537c0.10268 0.0478 0.20581 0.1197 0.30871 0.19145l0.36017 0.31109c0.0768 0.0478 0.12862 0.11968 0.2058 0.19146l0.30869 0.35896c0.0517 0.0717 0.12864 0.16748 0.18011 0.28714l0.23156 0.4068c0.0254 0.0718 0.0767 0.16753 0.10289 0.23932l0.12862 0.45469c0.0518 0.0957 0.0518 0.19143 0.0768 0.28715l0.0517 0.50254v0.31108l-0.0517 0.47863c-0.0255 0.11965-0.0255 0.21537-0.0768 0.28712l-0.12862 0.45471c-0.0254 0.0957-0.0768 0.19142-0.10289 0.28716l-0.23156 0.4068c-0.0517 0.0956-0.12864 0.19144-0.18011 0.28718l-0.30869 0.35894c-0.0769 0.0717-0.12865 0.11969-0.2058 0.19141l-0.36017 0.28721c-0.10289 0.0715-0.20581 0.14359-0.30871 0.21535l-0.4116 0.21538c-0.10287 0.0478-0.18012 0.0718-0.283 0.11968l-0.46306 0.14357c-0.12864 0.0239-0.25727 0.0478-0.38591 0.0718l-0.48878 0.0478h-0.36019l-0.48878-0.0478c-0.10319-0.0239-0.23152-0.0478-0.36013-0.0718l-0.46308-0.14357c-0.10299-0.0478-0.20581-0.0716-0.28297-0.11968l-0.41166-0.21538c-0.1031-0.0719-0.2058-0.14356-0.30871-0.21535l-0.36016-0.28721-0.20581-0.19141-0.30869-0.35894c-0.0767-0.0956-0.12865-0.19143-0.18012-0.28718l-0.23152-0.4068c-0.0255-0.0957-0.0769-0.19143-0.10267-0.28716l-0.15434-0.45471c-0.0255-0.0717-0.0255-0.16749-0.052-0.28712zm3.4731 0.16752-0.0519-0.28718 0.12864 0.45469-0.10289-0.26323 0.20581 0.40683-0.18008-0.28718 0.3087 0.35898-0.20574-0.1915 0.36011 0.31114-0.30869-0.21536 0.41161 0.21536-0.283-0.1197 0.46305 0.1436-0.38589-0.0718 0.48881 0.0478h-0.3602l0.48884-0.0478-0.36016 0.0718 0.46305-0.1436-0.28298 0.1197 0.41164-0.21536-0.30872 0.21536 0.36014-0.31114-0.20578 0.1915 0.30867-0.35898-0.18004 0.28718 0.20582-0.40683-0.103 0.26323 0.12864-0.45469-0.0518 0.28718 0.0518-0.4786v0.31108l-0.0518-0.50253 0.0767 0.3111-0.15435-0.45464 0.103 0.2632-0.20583-0.40682 0.18013 0.28716-0.30878-0.35893 0.20584 0.19145-0.36017-0.28719 0.30873 0.19145-0.41162-0.21537 0.28297 0.11968-0.46307-0.1436 0.3602 0.0718-0.48884-0.0478h0.36017l-0.48879 0.0478 0.38591-0.0718-0.46307 0.1436 0.28297-0.11968-0.4116 0.21537 0.30871-0.19145-0.3602 0.28719 0.20581-0.19145-0.30867 0.35893 0.18007-0.28716-0.20581 0.40682 0.1031-0.2632-0.15435 0.45464 0.0768-0.3111-0.0517 0.50253v-0.31108z" stroke="#000" stroke-width=".024813px"/>
  <path id="path3270" stroke-linejoin="round" d="m460.18 514.77v24.115h-1.6979v-24.115zm4.2962 22.417-5.1452 10.143-5.1453-10.143h10.29z" stroke="#000" stroke-width=".025540px"/>
  <path id="path3272" stroke-linejoin="round" d="m466.46 523.38-13.842 9.5004 0.74608 0.95723 13.842-9.5004z" stroke="#000" stroke-width=".024813px"/>
  <text id="text3274" font-size="13.3px" font-family="Arial" xml:space="preserve" transform="scale(1.0368 .96446)" y="548.36786" x="431.77493" stroke-width=".98427" fill="#000000">6</text>
  <path id="path3276" stroke-linejoin="round" d="m555.85 478.1-13.33-0.22798-0.032 1.5799 13.381 0.23031-0.0193-1.5823zm-11.576-4.1727-10.341 4.6052 10.194 4.9718 0.147-9.5769z" stroke="#000" stroke-width=".049624px"/>
  <path id="path3278" stroke-linejoin="round" d="m553.1 544.13v-147.46h-1.2705v147.46z" stroke="#000" stroke-width=".065437px"/>
  <path id="path3280" stroke-linejoin="round" d="m526.48 397.64-0.30479-21.046 1.3079-0.007 0.30478 21.046z" stroke="#000" stroke-width=".043952px"/>
  <path id="path3282" stroke-linejoin="round" d="m553.65 516.9v22.734h-1.6979v-22.734zm4.3217 21.155-5.1452 9.5721-5.1452-9.5721h10.291z" stroke="#000" stroke-width=".049624px"/>
  <path id="path3284" stroke-linejoin="round" d="m559.91 522.56-13.842 9.5242 0.77181 0.95719 13.842-9.5242z" stroke="#000" stroke-width=".049624px"/>
  <text id="text3286" font-size="13.3px" font-family="Arial" xml:space="preserve" transform="scale(1.0368 .96446)" y="548.63257" x="521.70135" stroke-width=".98427" fill="#000000">6</text>
  <path id="path3290" stroke-linejoin="round" d="m650.27 480.95-13.155 0.16888 0.004-1.5859 13.15-0.21656 0.00026 1.6336zm-11.335 4.1035-10.409-4.6214 10.225-4.9248 0.18411 9.5462z" stroke="#000" stroke-width=".049624px"/>
  <path id="path3292" stroke-linejoin="round" d="m648.22 538.16v-116.55h-1.2756v116.55z" stroke="#000" stroke-width=".059780px"/>
  <path id="path3296" stroke-linejoin="round" d="m654.71 520.59-13.842 9.5242 0.77177 0.95719 13.842-9.4764z" stroke="#000" stroke-width=".049624px"/>
  <text id="text3298" font-size="13.3px" font-family="Arial" xml:space="preserve" transform="scale(1.0368 .96446)" y="547.33221" x="612.44098" stroke-width=".98427" fill="#000000">6</text>
  <path id="path3300" stroke-linejoin="round" d="m648.45 515.1v22.784h-1.6979v-22.784zm4.2705 21.155-5.1452 9.5721-5.1452-9.5721h10.291z" stroke="#000" stroke-width=".049624px"/>
  <path id="path3302" stroke-linejoin="round" d="m736.82 546.26c0-0.49965 0.29051-0.94373 0.6173-0.94373h52.578c0.36311 0 0.61725 0.44408 0.61725 0.94373v36.752c0 0.49965-0.25414 0.88824-0.61725 0.88824h-52.578c-0.32679 0-0.6173-0.38859-0.6173-0.88824zm1.1981 36.752-0.581-0.94371h52.578l-0.58094 0.94371v-36.752l0.58094 0.9437h-52.578l0.581-0.9437z" stroke="#000" stroke-width=".044898px"/>
  <text id="text3304" font-size="15.205px" font-family="Arial" xml:space="preserve" transform="scale(1.0368 .96446)" y="597.19342" x="719.87103" stroke-width=".98427" line-height="125%" fill="#000000">MUX</text>
  <path id="path3306" stroke-linejoin="round" d="m790.57 570.52h15.539v1.1964h-15.539z" stroke="#000" stroke-width=".049624px"/>
  <path id="path3308" stroke-linejoin="round" d="m765.4 583.27v14.644h-1.7494v-14.644zm4.2705 13.068-5.1452 9.5721-5.1452-9.5721h10.291z" stroke="#000" stroke-width=".049624px"/>
  <path id="path3310" stroke-linejoin="round" d="m736.83 343.47c0-0.43071 0.4672-0.81352 1.0679-0.81352h63.071c0.60073 0 1.1346 0.38281 1.1346 0.81352v33.352c0 0.43066-0.53393 0.81348-1.1346 0.81348h-63.07c-0.60071 0-1.0679-0.38282-1.0679-0.81348zm1.6182 33.411-0.55043-0.87001h63.071l-0.50079 1.109 0.0945-33.746 0.40626 0.91202h-63.071l0.60352-0.70037z" stroke="#000" stroke-width=".056514px"/>
  <text id="text3312" font-size="16.472px" font-family="Arial" xml:space="preserve" transform="scale(1.0368 .96446)" y="379.17941" x="715.28448" stroke-width=".98427" line-height="125%" fill="#000000">SelCop</text>
  <path id="path3314" fill-rule="evenodd" stroke-width=".98428" d="m646.18 480.35c0-1.3401 1.0805-2.4408 2.4698-2.4408 1.3378 0 2.4183 1.1006 2.4183 2.4408 0 1.3401-1.0805 2.3932-2.4183 2.3932-1.3892 0-2.4698-1.0529-2.4698-2.3932"/>
  <path id="path3316" stroke-linejoin="round" d="m643.66 480.1v-0.28717l0.0518-0.52646c0-0.0956 0.0517-0.19147 0.0517-0.28718l0.15432-0.43076c0.0519-0.0956 0.0519-0.19142 0.1029-0.28714l0.25723-0.3829c0.0518-0.0957 0.10287-0.19143 0.15433-0.28716l0.30873-0.33503c0.0518-0.0958 0.10256-0.14356 0.20584-0.23928l0.36015-0.28717c0.103-0.0958 0.20582-0.14358 0.30871-0.19144l0.41161-0.23934c0.10318-0.0478 0.20584-0.0478 0.30871-0.0956l0.46307-0.14357c0.10321-0.0478 0.2058-0.0478 0.3602-0.0958l0.46306-0.0478h0.36014l0.51454 0.0478c0.10277 0.0478 0.20575 0.0478 0.36016 0.0958l0.46305 0.14357c0.10257 0.0478 0.20583 0.0478 0.30873 0.0956l0.4116 0.23934c0.10298 0.0478 0.20584 0.0958 0.25729 0.19144l0.36013 0.28717 0.20582 0.19142 0.30871 0.38289c0.103 0.0957 0.15436 0.19145 0.20579 0.28716l0.20583 0.3829c0.0519 0.0958 0.10298 0.19146 0.10298 0.28714l0.15432 0.43076c0.052 0.0958 0.052 0.19142 0.052 0.28718l0.0517 0.52646c0.0519 0.0957 0.0519 0.19142 0 0.28717l-0.0517 0.47859c0 0.14358 0 0.23931-0.052 0.33505l-0.15432 0.43072c0 0.0958-0.0516 0.19143-0.10298 0.23928l-0.20583 0.43075c-0.0519 0.0957-0.10258 0.19143-0.20579 0.28718l-0.30871 0.33502c-0.0519 0.0957-0.10321 0.14358-0.20582 0.19144l-0.36013 0.33503c-0.052 0.0478-0.15438 0.14357-0.25729 0.19144l-0.4116 0.19145c-0.10266 0.0478-0.2058 0.0957-0.30873 0.14356l-0.46305 0.1436c-0.15441 0.0478-0.25726 0.0478-0.36016 0.0478l-0.51454 0.0478c-0.10308 0.0478-0.20581 0.0478-0.36014 0l-0.46306-0.0478c-0.1544 0-0.25727 0-0.3602-0.0478l-0.46307-0.1436c-0.1032-0.0478-0.2058-0.0958-0.30871-0.14356l-0.41161-0.19145c-0.10299-0.0478-0.20581-0.1436-0.30871-0.19144l-0.34-0.34c-0.10311-0.0478-0.15436-0.14357-0.20584-0.19144l-0.30873-0.38286c-0.0518-0.0478-0.10267-0.14359-0.15433-0.23934l-0.25723-0.43075c0-0.0478-0.052-0.14355-0.1029-0.23928l-0.10309-0.43072c-0.0519-0.0958-0.10298-0.19147-0.10298-0.33505zm3.4987 0.19144-0.10288-0.28719 0.15438 0.43078-0.10309-0.23932 0.20578 0.38288-0.15432-0.23933 0.3087 0.33506-0.25728-0.19145 0.36017 0.28714-0.25727-0.19142 0.41164 0.19142-0.30872-0.0956 0.46307 0.14354-0.36016-0.0956 0.46304 0.0478h-0.36018l0.51457-0.0478-0.36019 0.0956 0.4631-0.14354-0.30873 0.0956 0.41159-0.19142-0.3087 0.19142 0.36017-0.28714-0.2058 0.19145 0.3087-0.38288-0.20581 0.28715 0.25725-0.38288-0.10309 0.23932 0.10309-0.43078-0.052 0.28719 0.052-0.47861v0.28717l-0.052-0.47862 0.052 0.28716-0.15434-0.47861 0.15434 0.28719-0.25725-0.38292 0.20581 0.28718-0.3087-0.38286 0.2058 0.19141-0.36017-0.28717 0.3087 0.19144-0.41159-0.19144 0.30873 0.0958-0.4631-0.14359 0.36019 0.0957-0.51457-0.0478h0.36018l-0.46304 0.0478 0.36016-0.0957-0.46307 0.14359 0.30872-0.0958-0.41164 0.19144 0.25727-0.19144-0.36017 0.28717 0.25728-0.23932-0.3087 0.3829 0.15432-0.23931-0.20578 0.38292 0.10309-0.28719-0.15438 0.47861 0.10288-0.28716-0.0517 0.47862v-0.28717z" stroke="#000" stroke-width=".049624px"/>
  <path id="path3318" stroke-linejoin="round" d="m774.49 420.49 0.35556 119.09-1.6991-0.007-0.35558-119.09zm4.5803 114.98-4.8133 10.042-5.167-10.093 10.044 0.0512z" stroke="#000" stroke-width=".042490px"/>
  <path id="path3320" stroke-linejoin="round" d="m753.44 417.38 0.51421 117.9h-1.6968l-0.56564-117.84 1.7482-0.0604zm4.7183 117.36-5.0269 10.519-4.8752-10.526 9.8392 0.005z" stroke="#000" stroke-width=".055616px"/>
  <text id="text3322" font-size="17.738px" font-family="Arial" xml:space="preserve" transform="scale(1.0368 .96446)" y="586.6676" x="766.7063" stroke-width=".98427" line-height="125%" fill="#000000">MC</text>
  <path id="path3324" stroke-linejoin="round" d="m780.75 516.19-13.842 9.5243 0.77176 0.95719 13.842-9.4764z" stroke="#000" stroke-width=".049624px"/>
  <path id="path3326" stroke-linejoin="round" d="m747.98 485.84-10.533 6.2965 0.54817 0.66777 10.533-6.3282z" stroke="#000" stroke-width=".035287px"/>
  <text id="text3328" font-size="13.301px" font-family="Arial" xml:space="preserve" transform="matrix(-.012108 -1.0187 .98153 -.0074702 0 0)" line-height="125%" y="754.54901" x="-514.73071" stroke-width=".98427" fill="#000000"><tspan id="tspan4439" y="754.54901" x="-514.73071" stroke-width=".98427">IR3 -- IR0</tspan></text>
  <text id="text3330" font-size="13.3px" font-family="Arial" xml:space="preserve" transform="scale(1.0368 .96446)" y="540.03467" x="735.62195" stroke-width=".98427" fill="#000000">4</text>
  <text id="text3332" font-size="13.3px" font-family="Arial" xml:space="preserve" transform="scale(1.0368 .96446)" y="549.05939" x="404.49243" stroke-width=".98427" fill="#000000">6</text>
  <text id="text3334" font-size="13.3px" font-family="Arial" xml:space="preserve" transform="scale(1.0368 .96446)" y="548.40375" x="494.78815" stroke-width=".98427" fill="#000000">6</text>
  <text id="text3336" font-size="13.3px" font-family="Arial" xml:space="preserve" transform="scale(1.0368 .96446)" y="546.96899" x="585.4173" stroke-width=".98427" fill="#000000">6</text>
  <text id="text3338" font-size="15.205px" font-family="Arial" xml:space="preserve" transform="scale(1.0368 .96446)" y="581.85583" x="411.24881" stroke-width=".98427" line-height="125%" fill="#000000">0</text>
  <text id="text3340" font-size="15.205px" font-family="Arial" xml:space="preserve" transform="scale(1.0368 .96446)" y="582.13788" x="437.73309" stroke-width=".98427" line-height="125%" fill="#000000">1</text>
  <text id="text3342" font-size="17.106px" font-family="Arial" xml:space="preserve" transform="scale(1.0368 .96446)" line-height="125%" y="642.19623" x="508.34772" stroke-width=".98427" fill="#000000">RB</text>
  <text id="text3344" font-size="17.106px" font-family="Arial" xml:space="preserve" transform="scale(1.0368 .96446)" line-height="125%" y="641.56549" x="598.88519" stroke-width=".98427" fill="#000000">RC</text>
  <text id="text3346" font-size="17.106px" font-family="Arial" xml:space="preserve" transform="scale(1.0368 .96446)" line-height="125%" y="641.61804" x="417.1109" stroke-width=".98427" fill="#000000">RA</text>
  <text id="text3348" font-size="17.106px" font-family="Arial" xml:space="preserve" transform="scale(1.0368 .96446)" line-height="125%" y="641.2514" x="723.01135" stroke-width=".98427" fill="#000000">Cop</text>
  <text id="text3350" font-size="15.205px" font-family="Arial" xml:space="preserve" transform="scale(1.0368 .96446)" y="581.85583" x="503.26019" stroke-width=".98427" line-height="125%" fill="#000000">0</text>
  <text id="text3352" font-size="15.205px" font-family="Arial" xml:space="preserve" transform="scale(1.0368 .96446)" y="582.13776" x="528.73486" stroke-width=".98427" line-height="125%" fill="#000000">1</text>
  <text id="text3354" font-size="15.205px" font-family="Arial" xml:space="preserve" transform="scale(1.0368 .96446)" y="580.63599" x="723.25281" stroke-width=".98427" line-height="125%" fill="#000000">0</text>
  <text id="text3356" font-size="15.205px" font-family="Arial" xml:space="preserve" transform="scale(1.0368 .96446)" y="579.96338" x="742.27448" stroke-width=".98427" line-height="125%" fill="#000000">1</text>
  <text id="text3358" font-size="15.147px" font-family="Arial" xml:space="preserve" transform="scale(1.0368 .96446)" y="191.07191" x="268.86707" stroke-width=".98427" line-height="125%" fill="#000000">A1</text>
  <text id="text3362" font-size="19.333px" font-family="Arial" xml:space="preserve" transform="scale(1.0368 .96446)" style="font-variant-numeric:normal;font-variant-ligatures:normal;font-variant-caps:normal;font-feature-settings:normal" y="307.11462" x="242.02252" stroke-width=".98427" fill="#000000">MUX B</text>
  <path id="path3364" stroke-linejoin="round" d="m244.44 321.19c0 0.43514 0.25723 0.77871 0.60635 0.77871h76.405c0.33073 0 0.60635-0.34357 0.60635-0.77871v-48.714c0-0.41226-0.27562-0.75581-0.60635-0.75581h-76.405c-0.34912 0-0.60635 0.34355-0.60635 0.75581zm1.2128-48.714-0.60637 0.75583h76.405l-0.60641-0.75583v48.714l0.60641-0.75582h-76.405l0.60637 0.75582z" stroke="#000" stroke-width=".020514px"/>
  <text id="text3366" font-size="15.205px" font-family="Arial" xml:space="preserve" transform="scale(1.0368 .96446)" y="326.90454" x="282.75888" stroke-width=".98427" line-height="125%" fill="#000000">0</text>
  <text id="text3368" font-size="15.205px" font-family="Arial" xml:space="preserve" transform="scale(1.0368 .96446)" y="326.58789" x="255.09564" stroke-width=".98427" line-height="125%" fill="#000000">1</text>
  <path id="path3372" stroke-linejoin="round" d="m270.35 342.71v-14.644h-1.7236v14.644zm4.2705-13.042-5.1452-9.5721-5.1453 9.5721h10.29z" stroke="#000" stroke-width=".024813px"/>
  <text id="text3374" font-size="15.838px" font-family="Arial" xml:space="preserve" transform="scale(1.0368 .96446)" y="86.504677" x="229.73895" stroke-width=".98427" line-height="125%" fill="#000000">00</text>
  <text id="text3376" font-size="15.838px" font-family="Arial" xml:space="preserve" transform="scale(1.0368 .96446)" y="116.55521" x="229.73895" stroke-width=".98427" line-height="125%" fill="#000000"><tspan id="tspan5996" font-size="15.838px" font-family="Arial" line-height="125%" y="116.55521" x="229.73895" stroke-width=".98427">01</tspan></text>
  <text id="text3378" font-size="15.838px" font-family="Arial" xml:space="preserve" transform="scale(1.0368 .96446)" y="144.53204" x="228.8494" stroke-width=".98427" line-height="125%" fill="#000000"><tspan id="tspan5998" font-size="15.838px" font-family="Arial" line-height="125%" y="144.53204" x="228.8494" stroke-width=".98427">10</tspan></text>
  <text id="text3380" font-size="15.838px" font-family="Arial" xml:space="preserve" transform="scale(1.0368 .96446)" y="172.50888" x="228.8494" stroke-width=".98427" line-height="125%" fill="#000000">11</text>
  <path id="path3382" d="m259.86 367.73 9.7239-18.092 9.7248 18.092z" fill-rule="evenodd" stroke-width=".98428" fill="#fff"/>
  <path id="path3384" stroke-linejoin="round" d="m259.86 363.61c-0.23157 0-0.43739-0.0906-0.56606-0.21684-0.10268-0.14449-0.12862-0.30709-0.0255-0.43352l9.7258-13.657c0.10288-0.16257 0.33449-0.25291 0.5918-0.25291 0.23155 0 0.46313 0.0905 0.56605 0.25291l9.7258 13.657c0.1031 0.12643 0.0768 0.28903-0.0255 0.43352-0.12866 0.12647-0.33448 0.21684-0.54033 0.21684zm19.454-0.90326-0.59179 0.65036-9.7258-13.657h1.1577l-9.7258 13.657-0.56604-0.65036z" stroke="#000" stroke-width=".021561px"/>
  <path id="path3386" d="m264.58 345.74c0-2.4887 2.1866-4.5227 4.862-4.5227 2.7012 0 4.8621 2.034 4.8621 4.5227s-2.161 4.5227-4.8621 4.5227c-2.6756 0-4.862-2.034-4.862-4.5227" fill-rule="evenodd" stroke-width=".98428" fill="#fff"/>
  <path id="path3388" stroke-linejoin="round" d="m263.96 345.82c-0.0255-0.0478-0.0255-0.0958 0-0.14363l0.10298-0.9093c0-0.0239 0-0.0718 0.0255-0.0958l0.28295-0.86148c0-0.0239 0.0255-0.0717 0.0255-0.0957l0.43734-0.76578c0.0255-0.0478 0.0517-0.0715 0.0767-0.11969l0.61742-0.67006 0.0769-0.0717 0.72036-0.55039c0.0255-0.0239 0.077-0.0478 0.10288-0.0478l0.8232-0.43075c0.0254-0.0239 0.0769-0.0239 0.12866-0.0478l0.90041-0.26325c0.0518 0 0.0769-0.0239 0.12867-0.0239l0.97753-0.0958h0.12863l0.97752 0.0958c0.0518 0 0.077 0.0239 0.12866 0.0239l0.90041 0.26325c0.0518 0.0239 0.077 0.0239 0.12866 0.0478l0.82323 0.43075c0.0255 0 0.0769 0.0239 0.10255 0.0478l0.72037 0.55039 0.0769 0.0717 0.61744 0.67006c0.0255 0.0478 0.0517 0.0718 0.077 0.11969l0.43735 0.76578c0 0.0239 0.0255 0.0719 0.0255 0.0957l0.28298 0.86148c0.0254 0.0239 0.0254 0.0719 0.0254 0.0958l0.1032 0.9093c0.0255 0.0478 0.0255 0.0957 0 0.14363l-0.1032 0.90933c0 0.0239 0 0.0717-0.0254 0.0957l-0.28298 0.86147c0 0.0239-0.0255 0.0717-0.0255 0.0957l-0.43735 0.76577c-0.0255 0.0478-0.0518 0.072-0.077 0.11969l-0.61744 0.67006-0.0769 0.0717-0.72037 0.5504c-0.0255 0.0239-0.077 0.0478-0.10255 0.0718l-0.82323 0.40682c-0.0518 0.0239-0.0768 0.0239-0.12866 0.0478l-0.90041 0.26322c-0.052 0-0.077 0.0238-0.12866 0.0238l-0.97752 0.0957h-0.12863l-0.97753-0.0957c-0.052 0-0.077-0.0238-0.12867-0.0238l-0.90041-0.26322c-0.0517-0.0239-0.077-0.0239-0.12866-0.0478l-0.8232-0.40682c-0.0255-0.0239-0.077-0.0478-0.10288-0.0718l-0.72036-0.5504-0.0769-0.0717-0.61742-0.67006c-0.0256-0.0478-0.052-0.0717-0.0767-0.11969l-0.43734-0.76577c0-0.024-0.0255-0.0718-0.0255-0.0957l-0.28295-0.86147c-0.0255-0.0238-0.0255-0.0716-0.0255-0.0957zm1.3635 0.76574-0.0255-0.0956 0.28298 0.83757-0.0254-0.0957 0.43733 0.7658-0.0769-0.1197 0.59172 0.67006-0.077-0.0717 0.72031 0.57434-0.10256-0.0717 0.82328 0.40681-0.12869-0.0478 0.92617 0.26324-0.12863-0.0239 0.97752 0.0958h-0.12866l0.97763-0.0958-0.12865 0.0239 0.92614-0.26324-0.12865 0.0478 0.82324-0.40681-0.10279 0.0717 0.72033-0.57434-0.0769 0.0717 0.59168-0.67006-0.0767 0.1197 0.4373-0.7658-0.0255 0.0957 0.28299-0.83757-0.0255 0.0956 0.1029-0.90937v0.14363l-0.1029-0.90932 0.0255 0.0956-0.28299-0.83753 0.0255 0.0958-0.4373-0.76578 0.0767 0.11968-0.59168-0.67002 0.0769 0.0716-0.72033-0.55036 0.10279 0.0478-0.82324-0.40681 0.12865 0.0478-0.92614-0.26321 0.12865 0.0239-0.97763-0.0957h0.12866l-0.97752 0.0957 0.12863-0.0239-0.92617 0.26321 0.12869-0.0478-0.82328 0.40681 0.10256-0.0478-0.72031 0.55036 0.077-0.0716-0.59172 0.67002 0.0769-0.11968-0.43733 0.76578 0.0254-0.0958-0.28298 0.83753 0.0255-0.0956-0.10299 0.90932v-0.14363z" stroke="#000" stroke-width=".024813px"/>
  <path id="path3390" stroke-linejoin="round" d="m270.63 377.46v-14.682h-1.2877v14.682z" stroke="#000" stroke-width=".022366px"/>
  <path id="path3392" stroke-linejoin="round" d="m269.47 376.9h27.775v1.2002h-27.775z" stroke="#000" stroke-width=".020786px"/>
  <path id="path3394" d="m401.41 342.94v35.106h24.449v-35.106z" fill-rule="evenodd" stroke-width=".98428" fill="#d9d9d9"/>
  <path id="path3398" d="m423.7 342.94v35.106h34.036v-35.106z" fill-rule="evenodd" stroke-width=".98428" fill="#d9d9d9"/>
  <path id="path3400" stroke-linejoin="round" d="m427.18 343.15c0-0.41707 0.31652-0.76464 0.74609-0.76464h29.91c0.40694 0 0.7461 0.34757 0.7461 0.76464v33.991c0 0.41706-0.33916 0.7646-0.7461 0.7646h-29.91c-0.42957 0-0.74609-0.34754-0.74609-0.7646zm1.4922 33.991-0.74602-0.76463h29.91l-0.76864 0.76463v-33.991l0.76864 0.76464h-29.91l0.74602-0.76464z" stroke="#000" stroke-width=".022887px"/>
  <path id="path3402" d="m376.49 342.94v35.106h24.269v-35.106z" fill-rule="evenodd" stroke-width=".98428" fill="#d9d9d9"/>
  <path id="path3404" stroke-linejoin="round" d="m374.98 343.15c0-0.417 0.46568-0.7645 1.0977-0.7645h24.716c0.59872 0 1.0976 0.3475 1.0976 0.7645v33.987c0 0.41702-0.49896 0.76449-1.0976 0.76449h-24.716c-0.63203 0-1.0977-0.34747-1.0977-0.76449zm2.1953 33.987-1.0978-0.76452h24.716l-1.131 0.76452v-33.987l1.131 0.7645h-24.716l1.0978-0.7645z" stroke="#000" stroke-width=".027761px"/>
  <text id="text3406" font-size="18.372px" font-family="Arial" xml:space="preserve" transform="scale(1.0368 .96446)" y="380.66208" x="416.76749" stroke-width=".98427" line-height="125%" fill="#000000">A0</text>
  <text id="text3408" font-size="18.372px" font-family="Arial" xml:space="preserve" transform="scale(1.0368 .96446)" y="380.87216" x="393.32016" stroke-width=".98427" line-height="125%" fill="#000000">B</text>
  <text id="text3410" font-size="18.372px" font-family="Arial" xml:space="preserve" transform="scale(1.0368 .96446)" y="381.39221" x="368.48807" stroke-width=".98427" line-height="125%" fill="#000000">C</text>
  <text id="text3412" font-size="16.475px" font-family="Arial" xml:space="preserve" transform="scale(1.0368 .96446)" y="222.90784" x="470.15753" stroke-width=".98427" fill="#000000">µAddress</text>
  <path id="path3414" stroke-linejoin="round" d="m389.9 376.66v98.715h-1.2436v-98.715z" stroke="#000" stroke-width=".039110px"/>
  <path id="path3416" stroke-linejoin="round" d="m568.53 223.61v60.269h-1.2714v-60.269z" stroke="#000" stroke-width=".039954px"/>
  <path id="path3418" stroke-linejoin="round" d="m504.36 336.52 0.0414-2.7764 0.1241-2.6327 0.0831-1.2445 0.1241-1.149 0.12413-1.101 0.12416-0.95736 0.12413-0.95739 0.16546-0.81378 0.16552-0.71803 0.20684-0.62228 0.16552-0.47874c0.0416-0.0478 0.0416-0.0957 0.0416-0.0957l0.2069-0.3351c0.0415-0.0478 0.0415-0.0958 0.0828-0.0958l0.20685-0.23936c0.0416-0.0478 0.12414-0.0958 0.20689-0.14363l0.20687-0.0478c0.0414-0.0478 0.0829-0.0478 0.12414-0.0478h60.074l-0.16546 0.0478 0.20684-0.0957-0.20684 0.14357 0.20684-0.19145-0.0828 0.0957 0.20683-0.33506-0.0416 0.0958 0.1655-0.47872 0.16548-0.52657 0.1655-0.67017 0.12413-0.76589 0.16549-0.86165 0.12413-0.9574 0.083-1.0531 0.12413-1.149 0.083-1.1966 0.0828-2.5849 0.0417-2.7763c0.0414-0.33508 0.24822-0.57444 0.53786-0.57444 0.28965 0 0.49648 0.23936 0.49648 0.57444l0.0414 2.8241 0.12414 2.5372 0.0829 1.1966 0.12412 1.149 0.083 1.0531 0.1241 0.9574 0.16551 0.86164 0.1241 0.7659 0.16551 0.67017 0.16552 0.57443 0.16547 0.43085-0.0415-0.0958 0.2069 0.33507-0.0829-0.0957 0.20689 0.19145-0.20689-0.14356 0.20689 0.0958-0.16548-0.0478h60.074c0.0413 0 0.0826 0 0.12404 0.0478l0.20699 0.0478c0.0826 0.0478 0.16552 0.0957 0.20675 0.14364l0.20698 0.23935c0.0413 0 0.0413 0.0478 0.0826 0.0958l0.20675 0.3351s0 0.0478 0.0413 0.0958l0.1655 0.43083 0.20698 0.67017 0.16541 0.71806 0.16549 0.81373 0.12418 0.90953 0.12416 1.0053 0.12406 1.101 0.12415 1.149 0.0826 1.1966 0.0827 2.6327 0.0412 2.8242h-1.0344l-0.0413-2.7764-0.0825-2.5849-0.0826-1.1489-0.12418-1.1489-0.0826-1.0531-0.12417-0.95739-0.16539-0.90951-0.12417-0.71804-0.16551-0.67016-0.16552-0.57443-0.16551-0.43081 0.0413 0.0957-0.20689-0.33508 0.0826 0.0957-0.20687-0.23933 0.20687 0.1436-0.20687-0.0478h0.1655-60.198l-0.20688-0.0957c-0.0828 0-0.16549-0.0478-0.20686-0.14362l-0.20687-0.1915c-0.0415-0.0478-0.0415-0.0958-0.083-0.0958l-0.20686-0.33511c0-0.0478 0-0.0958-0.0414-0.0958l-0.16554-0.52655-0.20685-0.62232-0.16549-0.71802-0.16551-0.81378-0.12412-0.90952-0.12414-1.0053-0.12409-1.0531-0.12414-1.1966-0.083-1.1966-0.12415-2.6328-0.0416-2.7763h1.0343l-0.0416 2.7763-0.0828 2.6328-0.0829 1.2445-0.12416 1.149-0.12409 1.0531-0.12412 1.0053-0.12414 0.90953-0.16547 0.86164-0.16552 0.71804-0.20691 0.62231-0.16548 0.47869c-0.0416 0-0.0416 0.0478-0.0416 0.0958l-0.20686 0.33511c-0.0416 0-0.0416 0.0478-0.0827 0.0956l-0.20689 0.19152c-0.0414 0.0957-0.12411 0.1436-0.20684 0.1436l-0.2069 0.0957h-60.198 0.16547l-0.20686 0.0478 0.20686-0.1436-0.20686 0.23934 0.0828-0.0958-0.20686 0.33509 0.0415-0.0956-0.16554 0.4308-0.16549 0.52657-0.16548 0.67018-0.12414 0.76587-0.16549 0.86168-0.1241 0.95737-0.0829 1.1009-0.12412 1.101-0.0829 1.1966-0.1241 2.5849-0.0414 2.7764z" stroke="#000" stroke-width=".044504px"/>
  <path id="path3422" stroke-linejoin="round" d="m98.934 575.91c0-0.39307 0.30405-0.68272 0.66892-0.68272h22.054c0.38511 0 0.68919 0.28965 0.68919 0.68272v28.693c0 0.37236-0.30408 0.68268-0.68919 0.68268h-22.057c-0.36487 0-0.66892-0.31032-0.66892-0.68268zm1.3581 28.693-0.6892-0.68271h22.054l-0.66891 0.68271v-28.693l0.66891 0.68272h-22.057l0.6892-0.68272z" stroke="#000" stroke-width=".020477px"/>
  <text id="text3424" font-size="30.022px" font-family="Arial" xml:space="preserve" transform="scale(1.0455 .95646)" y="628.29932" x="99.203278" stroke-width=".98426" fill="#ffffff">º</text>
  <path id="path3426" stroke-linejoin="round" d="m121.38 575.91c0-0.39306 0.29894-0.68271 0.65765-0.68271h21.682c0.35869 0 0.65762 0.28965 0.65762 0.68271v28.694c0 0.37238-0.29893 0.68268-0.65762 0.68268h-21.682c-0.35871 0-0.65765-0.3103-0.65765-0.68268zm1.3352 28.694-0.67753-0.68271h21.682l-0.65764 0.68271v-28.694l0.65764 0.68273h-21.682l0.67753-0.68273z" stroke="#000" stroke-width=".020304px"/>
  <path id="path3428" stroke-linejoin="round" d="m143.06 575.91c0-0.39308 0.29663-0.6827 0.65262-0.6827h21.516c0.35597 0 0.65263 0.28962 0.65263 0.6827v28.694c0 0.37236-0.29666 0.68266-0.65263 0.68266h-21.516c-0.35599 0-0.65262-0.3103-0.65262-0.68266zm1.3052 28.694-0.65262-0.68271h21.516l-0.6526 0.68271v-28.694l0.6526 0.68273h-21.516l0.65262-0.68273z" stroke="#000" stroke-width=".020227px"/>
  <path id="path3430" stroke-linejoin="round" d="m210.63 575.91c0-0.39307 0.30296-0.68272 0.66653-0.68272h21.975c0.36357 0 0.66649 0.28965 0.66649 0.68272v28.694c0 0.3724-0.30292 0.68269-0.66649 0.68269h-21.99c-0.36357 0-0.66653-0.31029-0.66653-0.68269zm1.3532 28.694-0.68674-0.6827h21.974l-0.6665 0.6827v-28.694l0.6665 0.68272h-21.974l0.68674-0.68272z" stroke="#000" stroke-width=".020441px"/>
  <path id="path3432" stroke-linejoin="round" d="m232.66 575.91c0-0.39305 0.30675-0.68269 0.67489-0.68269h22.25c0.3681 0 0.67488 0.28964 0.67488 0.68269v28.693c0 0.37235-0.30678 0.68266-0.67488 0.68266h-22.25c-0.36814 0-0.67489-0.31031-0.67489-0.68266zm1.3496 28.693-0.67489-0.68271h22.25l-0.69532 0.68271v-28.693l0.69532 0.68272h-22.25l0.67489-0.68272z" stroke="#000" stroke-width=".020568px"/>
  <text id="text3434" font-size="16.681px" font-family="Arial" xml:space="preserve" transform="scale(1.0455 .95646)" y="622.99371" x="99.690384" stroke-width=".98426" line-height="125%" fill="#000000"><tspan id="tspan3657" font-size="16.681px" font-family="Arial" line-height="125%" y="622.99371" x="99.690384" stroke-width=".98426">C</tspan></text>
  <text id="text3436" font-size="16.681px" font-family="Arial" xml:space="preserve" transform="scale(1.0455 .95646)" y="622.99371" x="121.49541" stroke-width=".98426" line-height="125%" fill="#000000"><tspan id="tspan3655" font-size="16.681px" font-family="Arial" line-height="125%" y="622.99371" x="121.49541" stroke-width=".98426">V</tspan></text>
  <text id="text3438" font-size="16.681px" font-family="Arial" xml:space="preserve" transform="scale(1.0455 .95646)" y="622.99371" x="141.88214" stroke-width=".98426" line-height="125%" fill="#000000"><tspan id="tspan3653" font-size="16.681px" font-family="Arial" line-height="125%" y="622.99371" x="141.88214" stroke-width=".98426">N</tspan></text>
  <text id="text3440" font-size="16.681px" font-family="Arial" xml:space="preserve" transform="scale(1.0455 .95646)" y="622.99371" x="210.62086" stroke-width=".98426" line-height="125%" fill="#000000">I</text>
  <text id="text3442" font-size="16.681px" font-family="Arial" xml:space="preserve" transform="scale(1.0455 .95646)" y="623.3902" x="228.11797" stroke-width=".98426" line-height="125%" fill="#000000">U</text>
  <path id="path3444" stroke-linejoin="round" d="m187.46 575.91c0-0.39315 0.13983-0.68283 0.32962-0.68283h23.373c0.18977 0 0.33963 0.28968 0.33963 0.68283v28.699c0 0.37245-0.14986 0.68281-0.33963 0.68281h-23.373c-0.18979 0-0.32962-0.31036-0.32962-0.68281zm0.65923 28.699-0.32963-0.68284h23.373l-0.32963 0.68284v-28.699l0.32963 0.68288h-23.37l0.32963-0.68288z" stroke="#000" stroke-width=".014375px"/>
  <text id="text3446" font-size="13.937px" font-family="Arial" xml:space="preserve" transform="scale(1.0368 .96446)" y="641.80933" x="98.8638" stroke-width=".98427" line-height="125%" fill="#000000">31</text>
  <text id="text3448" font-size="13.937px" font-family="Arial" xml:space="preserve" transform="scale(1.0368 .96446)" y="641.80933" x="120.6244" stroke-width=".98427" line-height="125%" fill="#000000">30</text>
  <text id="text3450" font-size="13.937px" font-family="Arial" xml:space="preserve" transform="scale(1.0368 .96446)" y="641.80933" x="141.79834" stroke-width=".98427" line-height="125%" fill="#000000">29</text>
  <text id="text3452" font-size="13.937px" font-family="Arial" xml:space="preserve" transform="scale(1.0368 .96446)" y="641.18561" x="210.84039" stroke-width=".98427" line-height="125%" fill="#000000">1</text>
  <text id="text3454" font-size="16.472px" font-family="Arial" xml:space="preserve" transform="matrix(-.010045 -1.0548 .94796 -.0093432 0 0)" y="285.12943" x="-539.30951" stroke-width=".98426" line-height="125%" fill="#000000"><tspan id="tspan14887" font-size="16.472px" font-family="Arial" line-height="125%" y="285.12943" x="-539.30951" stroke-width=".98426">MRdy</tspan></text>
  <text id="text3456" font-size="16.472px" font-family="Arial" xml:space="preserve" transform="matrix(-.030366 -1.0544 .94760 -.028246 0 0)" y="300.34824" x="-549.82556" stroke-width=".98426" line-height="125%" fill="#000000"><tspan id="tspan14885" font-size="16.472px" font-family="Arial" line-height="125%" y="300.34824" x="-549.82556" stroke-width=".98426">IORdy</tspan></text>
  <text id="text3458" font-size="16.472px" font-family="Arial" xml:space="preserve" transform="matrix(-.011773 -1.0548 .94793 -.010950 0 0)" y="336.46808" x="-529.81207" stroke-width=".98427" line-height="125%" fill="#000000"><tspan id="tspan14889" font-size="16.472px" font-family="Arial" line-height="125%" y="336.46808" x="-529.81207" stroke-width=".98427">INT</tspan></text>
  <text id="text3460" font-size="15.205px" font-family="Arial" xml:space="preserve" transform="scale(1.0368 .96446)" y="508.966" x="146.0416" stroke-width=".98427" line-height="125%" fill="#000000">7</text>
  <text id="text3462" font-size="15.205px" font-family="Arial" xml:space="preserve" transform="scale(1.0368 .96446)" y="508.96594" x="166.34883" stroke-width=".98427" line-height="125%" fill="#000000">6</text>
  <text id="text3464" font-size="15.205px" font-family="Arial" xml:space="preserve" transform="scale(1.0368 .96446)" y="509.22882" x="211.3739" stroke-width=".98427" line-height="125%" fill="#000000">5</text>
  <text id="text3466" font-size="15.205px" font-family="Arial" xml:space="preserve" transform="scale(1.0368 .96446)" y="508.96594" x="232.67946" stroke-width=".98427" line-height="125%" fill="#000000">4</text>
  <text id="text3468" font-size="15.205px" font-family="Arial" xml:space="preserve" transform="scale(1.0368 .96446)" y="508.966" x="257.12814" stroke-width=".98427" line-height="125%" fill="#000000">3</text>
  <text id="text3470" font-size="15.205px" font-family="Arial" xml:space="preserve" transform="scale(1.0368 .96446)" y="508.966" x="281.79855" stroke-width=".98427" line-height="125%" fill="#000000">2</text>
  <text id="text3472" font-size="15.205px" font-family="Arial" xml:space="preserve" transform="scale(1.0368 .96446)" y="508.966" x="303.3811" stroke-width=".98427" line-height="125%" fill="#000000">1</text>
  <text id="text3474" font-size="15.205px" font-family="Arial" xml:space="preserve" transform="scale(1.0368 .96446)" y="508.69629" x="323.93588" stroke-width=".98427" line-height="125%" fill="#000000">0</text>
  <text id="text3476" font-size="15.205px" font-family="Arial" xml:space="preserve" transform="scale(1.0368 .96446)" y="508.966" x="124.71907" stroke-width=".98427" line-height="125%" fill="#000000">8</text>
  <path id="path3480" stroke-linejoin="round" d="m224.16 576v-72.329h-1.6978v72.329zm4.2964-70.885-5.1452-8.6155-5.1452 8.6155h10.29z" stroke="#000" stroke-width=".023540px"/>
  <path id="path3482" stroke-linejoin="round" d="m246.12 576v-72.329h-1.7236v72.329zm4.2707-70.885-5.1452-8.6155-5.1451 8.6155h10.291z" stroke="#000" stroke-width=".023540px"/>
  <path id="path3484" stroke-linejoin="round" d="m134.2 576.28v-72.301h-1.7236v72.301zm4.2707-70.881-5.1451-8.615-5.1452 8.615h10.291z" stroke="#000" stroke-width=".023540px"/>
  <path id="path3486" stroke-linejoin="round" d="m156.01 576.28v-72.301h-1.7236v72.301zm4.2707-70.881-5.1452-8.615-5.1452 8.615h10.291z" stroke="#000" stroke-width=".023540px"/>
  <path id="path3488" stroke-linejoin="round" d="m177.5 576.37v-72.329h-1.6978v72.329zm4.2963-70.885-5.1451-8.6155-5.1452 8.6155h10.29z" stroke="#000" stroke-width=".023540px"/>
  <path id="path3490" stroke-linejoin="round" d="m619.57 507.06v31.27h-1.6979v-31.27zm4.3218 29.768-5.1453 9.0895-5.1452-9.0895h10.291z" stroke="#000" stroke-width=".048357px"/>
  <path id="path3492" stroke-linejoin="round" d="m525.67 510.2v30.055h-1.7237v-30.055zm4.2705 28.615-5.1452 8.7374-5.1453-8.7374h10.29z" stroke="#000" stroke-width=".023706px"/>
  <path id="path3494" stroke-linejoin="round" d="m431.92 510.37v29.854h-1.73v-29.854zm4.2965 28.423-5.1455 8.6781-5.1455-8.6781h10.292z" stroke="#000" stroke-width=".023626px"/>
  <path id="path3500" stroke-linejoin="round" d="m149.94 223.48h417.77v1.4521h-417.77z" stroke="#000" stroke-width=".024120px"/>
  <path id="path3502" stroke-linejoin="round" d="m833.99 609.18-0.11537-98.015 1.291-0.0354 0.11539 98.014z" stroke="#000" stroke-width=".067955px"/>
  <path id="path3504" stroke-linejoin="round" d="m121.67 106.81h101.8v1.5918h-101.8zm100.79-3.9855 5.9733 4.7874-5.9733 4.7874z" stroke="#000" stroke-width=".0094534px"/>
  <path id="path3118-3" stroke-linejoin="round" d="m413.02 179.85v-16.679h-1.7236v16.679zm4.2705-15.075-5.1452-9.5721-5.1452 9.5721h10.291z" stroke="#000" stroke-width=".024813px"/>
  <g id="g4875" stroke-linejoin="round" transform="matrix(.80148 0 0 .98319 99.327 23.995)" stroke="#000" stroke-width=".043902px">
   <path id="path3042-5" d="m358.27 176.57h12.482v1.0923h-12.48z"/>
   <path id="path3044-3" d="m384.56 176.57h12.483v1.0923h-12.48z"/>
   <path id="path3046-8" d="m409.52 176.57h12.483v1.0923h-12.48z"/>
   <path id="path3048-7" d="m371.07 163.72h13.454v1.0923h-13.45z"/>
   <path id="path3050-6" d="m371.62 177.48v-13.588h-1.1028v13.588z"/>
   <path id="path3052-7" d="m384.73 177.48v-13.938h-1.1028v13.938z"/>
   <path id="path3054-4" d="m397.2 177.48v-13.938h-1.1028v13.938z"/>
   <path id="path3056-8" d="m410.66 177.14v-13.588h-1.1027v13.588z"/>
   <path id="path3058-1" d="m396.38 163.72h13.763v1.0923h-13.76z"/>
  </g>
  <path id="path3100-8" stroke-linejoin="round" d="m121.18 106.95-0.16071 145.16h1.3435l0.17-145.16z" stroke="#000" stroke-width=".016067px"/>
  <path id="path3100-9" stroke-linejoin="round" d="m456.85 31.468-0.1544 72.142h1.2865l0.1544-72.142z" stroke="#000" stroke-width=".011086px"/>
  <text id="text3172-1" font-size="18.372px" font-family="Arial" xml:space="preserve" transform="scale(1.0368 .96446)" y="380.87216" x="447.88507" stroke-width=".98427" line-height="125%" fill="#000000"><tspan id="tspan4412" font-size="18.372px" font-family="Arial" line-height="125%" y="380.87216" x="455.88507" stroke-width=".98427">...</tspan></text>
  <path id="path3180-5" stroke-linejoin="round" d="m458.15 343.46c0-0.43087 0.21482-0.81387 0.52167-0.81387h41.792c0.27616 0 0.49095 0.383 0.49095 0.81387v33.369c0 0.43086-0.21479 0.81387-0.49095 0.81387h-41.792c-0.30685 0-0.52167-0.38301-0.52167-0.81387zm1.0126 33.369-0.49096-0.81392h41.792l-0.52162 0.81392v-33.369l0.52162 0.81388h-41.792l0.49096-0.81388z" stroke="#000" stroke-width=".038327px"/>
  <text id="text3172-1-5" font-size="18.372px" font-family="Arial" xml:space="preserve" transform="scale(1.0368 .96446)" y="380.87216" x="678.47314" stroke-width=".98427" line-height="125%" fill="#000000"><tspan id="tspan4435" font-size="18.372px" font-family="Arial" line-height="125%" y="380.87216" x="678.47314" stroke-width=".98427">MC</tspan></text>
  <path id="path3180-5-7" stroke-linejoin="round" d="m699.11 343.38c0-0.4309 0.19591-0.81393 0.47574-0.81393h38.114c0.25189 0 0.44773 0.38303 0.44773 0.81393v33.371c0 0.43092-0.19584 0.81392-0.44773 0.81392h-38.114c-0.27983 0-0.47574-0.383-0.47574-0.81392zm0.9234 33.371-0.4477-0.81392h38.114l-0.47569 0.81392v-33.371l0.47569 0.81391h-38.114l0.4477-0.81391z" stroke="#000" stroke-width=".036602px"/>
  <text id="text4138" font-size="16.014px" font-family="Arial" xml:space="preserve" transform="scale(1.1032 .90647)" y="195.58603" x="382.72635" stroke-width=".98427" line-height="125%" fill="#000000"><tspan id="tspan4140" y="195.58603" x="382.72635" stroke-width=".98427">CLK</tspan></text>
  <path id="path3310-3" stroke-linejoin="round" d="m799.74 343.32c0-0.43066 0.50027-0.81343 1.1436-0.81343h67.535c0.64324 0 1.215 0.38277 1.215 0.81343v33.351c0 0.43063-0.57169 0.81341-1.215 0.81341h-67.535c-0.64323 0-1.1436-0.38278-1.1436-0.81341zm1.7329 33.406-0.58939-0.86994h67.535l0.0364 0.53463-0.26221-32.793 0.22578 0.53463h-67.535l0.64625-0.70034z" stroke="#000" stroke-width=".058480px"/>
  <text id="text3312-6" font-size="16.472px" font-family="Arial" xml:space="preserve" transform="scale(1.0368 .96446)" y="379.39917" x="776.53442" stroke-width=".98427" line-height="125%" fill="#000000"><tspan id="tspan3945" font-size="16.472px" font-family="Arial" line-height="125%" y="379.39917" x="776.53442" stroke-width=".98427">ExCode</tspan></text>
  <path id="path3324-5" stroke-linejoin="round" d="m839.97 446.34-13.842 9.5243 0.77187 0.95723 13.842-9.4764z" stroke="#000" stroke-width=".049624px"/>
  <text id="text3330-3" font-size="13.3px" font-family="Arial" xml:space="preserve" transform="scale(1.0368 .96446)" y="465.94995" x="793.37909" stroke-width=".98427" fill="#000000">4</text>
  <path id="path3131-3" stroke-linejoin="round" d="m844.15 498.48c0.28949 0 0.53444 0.15083 0.66806 0.38789 0.11141 0.237 0.089 0.51709-0.0667 0.73258l-9.8421 13.294c-0.13364 0.19392-0.37855 0.30164-0.60123 0.30164-0.2449 0-0.46761-0.10784-0.60122-0.30164l-9.8643-13.294c-0.15589-0.21549-0.17816-0.49558-0.0448-0.73258 0.11142-0.23706 0.37855-0.38789 0.64577-0.38789zm-19.706 1.4221 0.6012-1.1419 9.8644 13.294h-1.2026l9.8421-13.294 0.60117 1.1419z" stroke="#000" stroke-width=".021905px"/>
  <path id="path3133-6" stroke-linejoin="round" d="m853.42 506.37h-14.271v-1.0774h14.271z" stroke="#000" stroke-width="1.1873px"/>
  <path id="path3139-7" stroke-linejoin="round" d="m833.16 476.35v16.534h1.4922v-16.534zm-3.6972 15.314 4.4543 7.2751 4.4544-7.2751z" stroke="#000" stroke-width=".020127px"/>
  <text id="text3147-5" font-size="17.739px" font-family="Arial" xml:space="preserve" transform="scale(1.0165 .98372)" line-height="125%" y="503.81442" x="829.81415" stroke-width=".98429" fill="#000000"><tspan id="tspan4426" font-size="17.739px" font-family="Arial" line-height="125%" y="503.81442" x="829.81415" stroke-width=".98429">T11</tspan></text>
  <path id="path3081-3" stroke-linejoin="round" d="m834.63 493.54v-117.44h-1.3364v117.44z" stroke="#000" stroke-width=".035377px"/>
  <path id="path3428-3" stroke-linejoin="round" d="m165 576c0-0.3931 0.29432-0.68272 0.6475-0.68272h21.349c0.3532 0 0.64749 0.28962 0.64749 0.68272v28.694c0 0.37239-0.29429 0.68271-0.64749 0.68271h-21.349c-0.35318 0-0.6475-0.31032-0.6475-0.68271zm1.295 28.694-0.64753-0.6827h21.349l-0.6475 0.6827v-28.694l0.6475 0.68267h-21.349l0.64753-0.68267z" stroke="#000" stroke-width=".020147px"/>
  <text id="text3438-6" font-size="16.681px" font-family="Arial" xml:space="preserve" transform="scale(1.0455 .95646)" y="623.10455" x="164.02104" stroke-width=".98426" line-height="125%" fill="#000000">Z</text>
  <text id="text3450-7" font-size="13.937px" font-family="Arial" xml:space="preserve" transform="scale(1.0368 .96446)" y="641.91931" x="163.35391" stroke-width=".98427" line-height="125%" fill="#000000"><tspan id="tspan3651" font-size="13.937px" font-family="Arial" line-height="125%" y="641.91931" x="163.35391" stroke-width=".98427">28</tspan></text>
  <text id="text3476-8" font-size="15.205px" font-family="Arial" xml:space="preserve" transform="scale(1.0368 .96446)" y="508.65735" x="103.92115" stroke-width=".98427" line-height="125%" fill="#000000"><tspan id="tspan3677" font-size="15.205px" font-family="Arial" line-height="125%" y="508.65735" x="103.92115" stroke-width=".98427">9</tspan></text>
  <path id="path3484-9" stroke-linejoin="round" d="m112.37 576.24v-72.301h-1.7236v72.301zm4.2707-70.881-5.1451-8.615-5.1452 8.615h10.291z" stroke="#000" stroke-width=".023540px"/>
  <text id="text3476-8-6" font-size="15.205px" font-family="Arial" xml:space="preserve" transform="scale(1.0368 .96446)" y="508.92029" x="76.138252" stroke-width=".98427" line-height="125%" fill="#000000"><tspan id="tspan3700" font-size="15.205px" font-family="Arial" line-height="125%" y="508.92029" x="76.138252" stroke-width=".98427">10</tspan></text>
  <path id="path3108-3" stroke-linejoin="round" d="m89.934 523.18v-19.504h-1.7237v19.504zm4.2963-18.144-5.1452-8.1181-5.1452 8.1181h10.29z" stroke="#000" stroke-width=".022848px"/>
  <path id="path3260-3" stroke-linejoin="round" d="m51.32 523.26 0.77784-245.94-0.94849-0.0419-0.77778 246.02z" stroke="#000" stroke-width=".28245px"/>
  <path id="path3020" stroke-linejoin="round" d="m72.36 348.14c0-0.35019 0.35028-0.64202 0.77063-0.64202h135.07c0.44375 0 0.79401 0.29183 0.79401 0.64202v26.988c0 0.36966-0.35026 0.64204-0.79401 0.64204h-135.07c-0.42036 0-0.77063-0.27238-0.77063-0.64204zm1.5646 26.988-0.79398-0.64207h135.07l-0.7706 0.64207v-26.988l0.7706 0.64206h-135.07l0.79398-0.64206z" stroke="#000" stroke-width=".021316px"/>
  <text id="text3030" font-size="22.764px" font-family="Arial" xml:space="preserve" transform="scale(1.0163 .98391)" y="288.65192" x="92.687546" stroke-width=".98429" line-height="125%" fill="#000000"><tspan id="tspan4390" y="288.65192" x="92.687546" stroke-width=".98429">co2µaddr</tspan></text>
  <path id="path3032" opacity=".325" stroke-linejoin="round" d="m72.355 348.14c0-0.35023 0.28868-0.64207 0.65436-0.64207h43.573c0.3657 0 0.63511 0.29184 0.63511 0.64207v26.989c0 0.36971-0.26941 0.64209-0.63511 0.64209h-43.57c-0.36566 0-0.65436-0.27238-0.65436-0.64209zm1.2895 26.989-0.63512-0.6421h43.573l-0.63509 0.6421v-26.989l0.63509 0.64209h-43.57l0.63512-0.64209z" stroke="#000" stroke-dasharray="0.01976434, 0.03952869" stroke-width=".019764"/>
  <text id="text3034" font-size="12.726px" font-family="Arial" xml:space="preserve" transform="scale(1.0163 .98391)" y="329.14719" x="102.73299" stroke-width=".98429" line-height="125%" fill="#000000">CO</text>
  <text id="text3036" font-size="20.273px" font-family="Arial" xml:space="preserve" transform="scale(1.0163 .98391)" line-height="125%" y="422.12982" x="110.36454" stroke-width=".98429" fill="#000000">IR</text>
  <path id="path3478" stroke-linejoin="round" d="m72.586 377.9 0.04634 2.4937 0.13913 2.3201 0.09278 1.0842 0.09279 1.0191 0.13912 0.97581 0.13913 0.88901 0.16242 0.80226 0.16242 0.73724 0.18571 0.62881 0.20878 0.56379 0.23202 0.45534c0 0.0218 0.02305 0.0435 0.02305 0.065l0.2088 0.30354c0.04634 0.0434 0.06975 0.0869 0.11608 0.10855l0.20883 0.19513c0.06974 0.0435 0.13912 0.0868 0.2088 0.10855l0.23201 0.065c0.04634 0.0218 0.11606 0.0218 0.16242 0.0218h63.152l-0.1855-0.0218 0.23201 0.065-0.20886-0.10843 0.20886 0.17347-0.0924-0.10843 0.2088 0.30354 0.16242 0.34695 0.16243 0.45534 0.18553 0.60713 0.16237 0.67221 0.13916 0.78061 0.13916 0.84565 0.13911 0.93239 0.0924 0.99744 0.0924 1.0625 0.13913 2.2984 0.023 2.4501c0.0227 0.30354 0.2784 0.54207 0.58 0.54207 0.3248 0 0.58001-0.23853 0.58001-0.54207l0.0467-2.4717 0.13914-2.2768 0.0925-1.0625 0.0925-1.0191 0.13914-0.9107 0.13913-0.86733 0.1624-0.78058 0.13915-0.69389 0.18571-0.58545 0.18552-0.47705 0.18551-0.36862-0.0467 0.065 0.20876-0.30357-0.0923 0.10842 0.20879-0.17349-0.20879 0.10844 0.20879-0.065-0.16244 0.0216h63.152c0.0696 0 0.116 0 0.16242-0.0216l0.23202-0.065c0.0696-0.0217 0.1391-0.065 0.20877-0.10844l0.23204-0.1951c0.0233-0.0218 0.0696-0.065 0.0924-0.10842l0.20881-0.30355c0.0229-0.0218 0.0229-0.0435 0.0466-0.065l0.18568-0.41199 0.232-0.56376 0.18553-0.65049 0.16245-0.73721 0.1624-0.824 0.16243-0.86733 0.11604-0.97577 0.11602-1.0191 0.0925-1.0842 0.11601-2.3202 0.0467-2.5153h-1.1601l-0.0466 2.4502-0.11603 2.2984-0.0924 1.0625-0.0924 0.99739-0.1391 0.93242-0.13915 0.86737-0.13915 0.75895-0.16242 0.69382-0.18551 0.56378-0.16242 0.47701-0.20881 0.41202 0.0466-0.065-0.2088 0.30355 0.0925-0.10831-0.2088 0.17348 0.2088-0.10855-0.23202 0.065 0.18551-0.0218h-63.152c-0.0696 0-0.11601 0-0.18548 0.0218l-0.20878 0.065c-0.0697 0.0218-0.16247 0.065-0.20888 0.10842l-0.23199 0.19514c-0.0229 0.0218-0.0696 0.065-0.0924 0.10855l-0.20883 0.30356c-0.0229 0.0218-0.0229 0.0435-0.0467 0.065l-0.20882 0.45538-0.20881 0.56376-0.1855 0.6505-0.18549 0.71556-0.13914 0.8023-0.16243 0.889-0.11603 0.97577-0.11601 1.0192-0.0924 1.0842-0.13912 2.3418-0.0467 2.4718h1.1601l-0.0466-2.4937-0.11603-2.3417-0.0925-1.0625-0.11601-1.0408-0.116-0.95409-0.13916-0.91069-0.18571-0.80227-0.16244-0.73724-0.18551-0.62883-0.20878-0.58547-0.25526-0.47702-0.20877-0.30357c-0.0227-0.0435-0.0695-0.0867-0.0923-0.10855l-0.232-0.19513c-0.0699-0.0435-0.13911-0.0867-0.20881-0.10843l-0.23202-0.065c-0.0466-0.0217-0.0925-0.0217-0.16244-0.0217h-63.153l0.18552 0.0217-0.23202-0.065 0.23202 0.10853-0.23202-0.17347 0.09279 0.10843-0.20878-0.30357 0.04634 0.065-0.16241-0.36862-0.18553-0.47705-0.18572-0.58543-0.16242-0.6939-0.13913-0.78058-0.16242-0.84564-0.11608-0.93245-0.11609-1.0191-0.09278-1.0408-0.11608-2.2984-0.04634-2.4718z" stroke="#000" stroke-width=".022430px"/>
  <path id="path3022-6" stroke-linejoin="round" d="m79.254 302.19c0 0.16964 0.47728 0.30719 1.0661 0.30719h126.36c0.58868 0 1.0661-0.13755 1.0661-0.30719v-50.301c0-0.16965-0.47722-0.30724-1.0661-0.30724h-126.36c-0.58866 0-1.0661 0.13759-1.0661 0.30724zm2.1319-50.301-0.83387 1.0039 126.13-0.16953-1.066-0.83434v50.301l0.81969-0.90964-125.88 0.0219 0.83387 0.88777z" stroke="#000" stroke-width=".0085414px"/>
  <path id="path3110-0" stroke-linejoin="round" d="m105.25 329.68-16.068 12.009 0.76874 0.9599 16.04-12.014z" stroke="#000" stroke-width=".024322px"/>
  <text id="text3112-0" font-size="13.038px" font-family="Arial" xml:space="preserve" transform="scale(1.0163 .98391)" line-height="125%" y="341.15683" x="84.522751" stroke-width=".98429" fill="#000000"><tspan id="tspan6982" stroke-width=".98429">6</tspan></text>
  <path id="path3124-2" stroke-linejoin="round" d="m189 348.63v-36.217h1.6009v36.217zm-3.9786-34.371 4.7791-11.106 4.7791 11.106h-9.5581z" stroke="#000" stroke-width=".012877px"/>
  <path id="path3124-2-4" stroke-linejoin="round" d="m96.545 348.63v-36.217h1.6009v36.217zm-3.9785-34.371 4.7791-11.106 4.7791 11.106h-9.5581z" stroke="#000" stroke-width=".012877px"/>
  <text id="text3112-0-4" font-size="13.038px" font-family="Arial" xml:space="preserve" transform="scale(1.0163 .98391)" y="341.09644" x="175.85858" stroke-width=".98429" fill="#000000">4</text>
  <path id="path3110-0-7" stroke-linejoin="round" d="m197.64 330.56-16.513 11.376 0.73142 0.98899 16.487-11.383z" stroke="#000" stroke-width=".024322px"/>
  <path id="path3260-3-8" stroke-linejoin="round" d="m51.171 278.54 29.354-0.19639-0.0085-1.4598-29.361 0.19688z" stroke="#000" stroke-width=".012106px"/>
  <path id="path3260-3-8-6" stroke-linejoin="round" d="m50.02 524.3 39.889-0.19623-0.01179-1.4587-39.9 0.19664z" stroke="#000" stroke-width=".014107px"/>
  <text id="text3038-0" font-size="16.472px" font-family="Arial" xml:space="preserve" transform="scale(1.033 .96803)" y="559.21832" x="50.328995" stroke-width=".98425" line-height="125%" fill="#000000"><tspan id="tspan3777" font-size="16.472px" font-family="Arial" line-height="125%" y="559.21832" x="50.328995" stroke-width=".98425">InEx</tspan></text>
  <path id="path3232-6" stroke-linejoin="round" d="m774.32 420.93v-45.03h-1.2918v45.031z" stroke="#000" stroke-width=".043978px"/>
  <path id="path3100-8-7" stroke-linejoin="round" d="m297.58 387.47-0.16131 61.41h1.349l0.16127-61.41z" stroke="#000" stroke-width=".010472px"/>
  <path id="path3108-1" stroke-linejoin="round" d="m299.02 387.66-0.28959-55.066-1.432-0.69881v55.766zm3.567-54.812-4.415-10.87-4.1253 10.695z" stroke="#000" stroke-width=".036112px"/>
  <path id="path3198-7" fill-rule="evenodd" stroke-width=".98428" d="m295.57 379.15c0-1.5323 1.1061-2.7636 2.4436-2.7636 1.3633 0 2.4435 1.2313 2.4435 2.7636 0 1.5048-1.0803 2.7362-2.4435 2.7362-1.3376 0-2.4436-1.2313-2.4436-2.7362"/>
  <path id="path3200-1" stroke-linejoin="round" d="m293.88 377.13v-0.35565l0.052-0.54727c0.0255-0.1095 0.0255-0.21891 0.0768-0.35571l0.12868-0.4925c0.0255-0.10949 0.0769-0.19156 0.10298-0.301l0.23149-0.46517c0.0521-0.10949 0.10299-0.21888 0.18001-0.32835l0.3087-0.41039 0.20577-0.21892 0.36009-0.32836c0.1032-0.082 0.2058-0.16416 0.30872-0.24623l0.41152-0.24624c0.0768-0.0546 0.18007-0.0822 0.28293-0.13689l0.46301-0.16417c0.1286-0.0273 0.25719-0.0546 0.36011-0.0818l0.48872-0.0546h0.3601l0.48874 0.0546c0.12859 0.0272 0.25721 0.0546 0.38584 0.0818l0.46296 0.16417c0.10299 0.0546 0.18006 0.082 0.28296 0.13689l0.41155 0.24624c0.10298 0.0819 0.20577 0.16416 0.30866 0.24623l0.36011 0.32836c0.0769 0.0823 0.12863 0.13686 0.20577 0.21892l0.30868 0.41039c0.0517 0.10949 0.12863 0.21894 0.18008 0.32835l0.23146 0.46517c0.0255 0.10949 0.0767 0.19154 0.10298 0.301l0.1286 0.4925c0.052 0.13687 0.052 0.24626 0.077 0.35571l0.052 0.54727v0.35565l-0.052 0.57461c-0.0255 0.10949-0.0255 0.21889-0.077 0.32835l-0.1286 0.51989c-0.0255 0.10949-0.077 0.19155-0.10298 0.30098l-0.23146 0.46515c-0.0517 0.1095-0.12862 0.21885-0.18008 0.32832l-0.30868 0.41045c-0.0767 0.082-0.12863 0.13682-0.20577 0.2189l-0.36011 0.32833c-0.1028 0.082-0.20577 0.16419-0.30866 0.24626l-0.41155 0.24625c-0.1031 0.0546-0.18008 0.0822-0.28296 0.13685l-0.46296 0.1642c-0.12863 0.0273-0.25726 0.0546-0.38584 0.082l-0.48874 0.0546h-0.3601l-0.48872-0.0546c-0.1031-0.0274-0.23152-0.0546-0.36011-0.082l-0.46301-0.1642c-0.10298-0.0546-0.20573-0.0819-0.28293-0.13685l-0.41152-0.24625c-0.1029-0.082-0.2058-0.16413-0.30872-0.24626l-0.36009-0.32833-0.20577-0.2189-0.3087-0.41045c-0.0768-0.10949-0.12858-0.21887-0.18001-0.32832l-0.23149-0.46515c-0.0255-0.10949-0.0767-0.19155-0.10298-0.30098l-0.12868-0.51989c-0.0518-0.10949-0.0518-0.21888-0.0768-0.32835zm3.4725 0.21893-0.0769-0.35571 0.15432 0.51987-0.10289-0.30098 0.20575 0.46514-0.18004-0.32832 0.30863 0.41042-0.20576-0.21891 0.36012 0.35574-0.30865-0.24629 0.41154 0.24629-0.28296-0.13686 0.463 0.16416-0.38584-0.0818 0.48876 0.0546h-0.36012l0.48869-0.0546-0.36008 0.0818 0.46299-0.16416-0.28296 0.13686 0.41157-0.24629-0.30865 0.24629 0.36011-0.35574-0.20579 0.21891 0.30865-0.41042-0.18007 0.32832 0.20583-0.46514-0.103 0.30098 0.15438-0.51987-0.077 0.35571 0.0518-0.57458v0.35565l-0.0518-0.54723 0.077 0.32837-0.15438-0.49252 0.103 0.30095-0.20583-0.46512 0.18007 0.32832-0.30865-0.41041 0.20579 0.21888-0.36011-0.35567 0.30865 0.24625-0.41157-0.24625 0.28296 0.13682-0.46299-0.16419 0.36008 0.082-0.48869-0.0546h0.36012l-0.48876 0.0546 0.38584-0.082-0.463 0.16419 0.28296-0.13682-0.41154 0.24625 0.30865-0.24625-0.36012 0.35567 0.20576-0.21888-0.30863 0.41041 0.18004-0.32832-0.20575 0.46512 0.10289-0.30095-0.15432 0.49252 0.0769-0.32837-0.0517 0.54723v-0.35565z" stroke="#000" stroke-width=".026529px"/>
  <text id="text3146-9" font-size="16.474px" font-family="Arial" xml:space="preserve" transform="matrix(.0044049 -.95109 1.0514 .0040973 0 0)" y="417.35092" x="-529.01935" stroke-width=".98427" line-height="125%" fill="#000000"><tspan id="tspan4821" y="417.35092" x="-529.01935" stroke-width=".98427">Sel RA</tspan></text>
  <text id="text3146-9-5" font-size="16.474px" font-family="Arial" xml:space="preserve" transform="matrix(-.0075188 -.95106 1.0514 -.0069939 0 0)" y="500.51398" x="-532.44482" stroke-width=".98427" line-height="125%" fill="#000000"><tspan id="tspan4823" y="500.51398" x="-532.44482" stroke-width=".98427">Sel RB</tspan></text>
  <text id="text3146-9-9" font-size="16.474px" font-family="Arial" xml:space="preserve" transform="matrix(.0097899 -.95102 1.0514 .0091065 0 0)" y="598.79041" x="-523.19342" stroke-width=".98428" line-height="125%" fill="#000000"><tspan id="tspan4825" y="598.79041" x="-523.19342" stroke-width=".98428">Sel RC</tspan></text>
  <text id="text3350-3" font-size="15.205px" font-family="Arial" xml:space="preserve" transform="scale(1.0368 .96446)" y="580.59686" x="592.76819" stroke-width=".98427" line-height="125%" fill="#000000">0</text>
  <text id="text3352-3" font-size="15.205px" font-family="Arial" xml:space="preserve" transform="scale(1.0368 .96446)" y="580.87885" x="619.48083" stroke-width=".98427" line-height="125%" fill="#000000">1</text>
  <path id="path3094-7" opacity=".75" stroke-linejoin="round" d="m298.07 448.26v-114.57h-1.7229v114.57zm3.647-116.21-4.2751-9.9345-3.7638 12.089 8.9081 0.13015z" stroke="#000" stroke-width=".029736px"/>
  <path id="path3498-6" stroke-linejoin="round" d="m344.31 297.07h72.266v1.5618h-72.266z" stroke="#000" stroke-width=".029054px"/>
  <path id="path3138-8" stroke-linejoin="round" d="m416.82 341.25v-43.978h-1.2943v43.978z" stroke="#000" stroke-width=".017111px"/>
  <path id="path3138-8-1" stroke-linejoin="round" d="m443.97 342.36v-91.643h-1.2873v91.643z" stroke="#000" stroke-width=".024634px"/>
  <path id="path3124-7" stroke-linejoin="round" d="m354.21 363.67h16.474v1.604h-16.474zm15.636-3.9861 5.0513 4.7881-5.0513 4.7881v-9.5763z" stroke="#000" stroke-width=".0086941px"/>
  <text id="text4138-7" font-size="16.472px" font-family="Arial" xml:space="preserve" transform="scale(1.1032 .90647)" y="396.40698" x="299.91824" stroke-width=".98427" line-height="125%" fill="#000000"><tspan id="tspan4140-2" font-size="16.472px" font-family="Arial" line-height="125%" y="396.40698" x="299.91824" stroke-width=".98427">CLK</tspan></text>
  <path id="path3194-0" stroke-linejoin="round" d="m345.34 297.02-13.854 0.0717v1.6031l13.854-0.072v-1.6031zm-11.992-3.9239-11.39 4.8575 11.477 4.7137-0.0857-9.571z" stroke="#000" stroke-width=".026170px"/>
  <path id="path3124-2-5" stroke-linejoin="round" d="m323.34 251.86v-49h1.6006v49zm-5.2377-48.322 6.0382-13.203 6.0382 12.943h-12.076z" stroke="#000" stroke-width=".014977px"/>
  <path id="path3098-2" stroke-linejoin="round" d="m442.73 250.86h-118.97v1.2045h118.97z" stroke="#000" stroke-width=".017216px"/>
  <path id="path3396" stroke-linejoin="round" d="m399.8 343.15c0-0.41704 0.4956-0.76447 1.1682-0.76447h26.299c0.63718 0 1.1681 0.34743 1.1681 0.76447v33.986c0 0.417-0.53094 0.76448-1.1681 0.76448h-26.299c-0.67255 0-1.1682-0.34748-1.1682-0.76448zm2.3361 33.986-1.1681-0.76454h26.299l-1.2035 0.76454v-33.986l1.2035 0.76449h-26.299l1.1681-0.76449z" stroke="#000" stroke-width=".028638px"/>
  <path id="path3138-1" stroke-linejoin="round" d="m524.83 443.19v-25.625h-1.671v25.625z" stroke="#000" stroke-width=".014841px"/>
  <path id="path3138-1-5" stroke-linejoin="round" d="m618.83 443.67v-24.27h-1.5777v24.27z" stroke="#000" stroke-width=".014035px"/>
  <path id="path3194-08" stroke-linejoin="round" d="m389.79 473.88-22.095 0.0718-0.11806 1.471 22.213 0.0594v-1.6024zm-21.632-3.6591-10.88 4.5922 10.646 5.2368-0.00065-9.8288z" stroke="#000" stroke-width=".030851px"/>
  <text id="text3442-2" font-size="16.611px" font-family="Arial" xml:space="preserve" transform="scale(1.0455 .95646)" line-height="125%" y="620.39172" x="183.62137" stroke-width=".98426" fill="#000000"><tspan id="tspan4917" y="620.39172" x="183.62137" stroke-width=".98426">...</tspan></text>
  <path id="path3258-4" stroke-linejoin="round" d="m552.73 396.41h32.511v1.1952h-32.511z" stroke="#000" stroke-width=".026272px"/>
  <path id="path3390-7" stroke-linejoin="round" d="m141.51 420.13v-11.945h-1.2905v11.945z" stroke="#000" stroke-width=".020196px"/>
  <text id="text3442-2-3" font-size="16.475px" font-family="Arial" xml:space="preserve" transform="scale(1.0368 .96446)" line-height="125%" y="377.03754" x="650.43158" stroke-width=".98427" fill="#000000"><tspan id="tspan4917-9" y="377.03754" x="650.43158" stroke-width=".98427">...</tspan></text>
  <text id="text3034-5" font-size="12.726px" font-family="Arial" xml:space="preserve" transform="scale(1.0163 .98391)" y="329.07574" x="191.39499" stroke-width=".98429" line-height="125%" fill="#000000"><tspan id="tspan4822" y="329.07574" x="191.39499" stroke-width=".98429">COP</tspan></text>
  <path id="path3032-0" opacity="0.329" stroke-linejoin="round" d="m172.93 347.48c0-0.35025 0.22711-0.64212 0.51477-0.64212h34.278c0.2877 0 0.49963 0.29187 0.49963 0.64212v26.991c0 0.36972-0.21193 0.64215-0.49963 0.64215h-34.278c-0.28766 0-0.51477-0.27243-0.51477-0.64215zm1.0144 26.991-0.49965-0.64216h34.278l-0.49963 0.64216v-26.991l0.49963 0.64215h-34.278l0.49965-0.64215z" stroke="#000" stroke-dasharray="0.01753076, 0.0350615" stroke-width=".017531"/>
 </g>
</svg>
