<?xml version="1.0" encoding="UTF-8" standalone="no"?>
<svg id="svg2996" xmlns:rdf="http://www.w3.org/1999/02/22-rdf-syntax-ns#" xmlns="http://www.w3.org/2000/svg" height="100%" viewBox="28 17 900 620" width="100%" version="1.0" preserveAspectRatio="xMinYMin meet" xmlns:cc="http://creativecommons.org/ns#" xmlns:dc="http://purl.org/dc/elements/1.1/">
 <metadata id="metadata3508">
  <rdf:RDF>
   <cc:Work rdf:about="">
    <dc:format>image/svg+xml</dc:format>
    <dc:type rdf:resource="http://purl.org/dc/dcmitype/StillImage"/>
    <dc:title/>
   </cc:Work>
  </rdf:RDF>
 </metadata>
 <text id="text3611" style="word-spacing:0px;letter-spacing:0px" line-height="125%" xml:space="preserve" font-size="13.289px" transform="scale(.99998 1)" y="350.36798" x="139.88812" font-family="sans-serif" fill="#000000"><tspan id="tspan3615" y="365.36798" x="121.88812"/></text>
 <g id="g4787" transform="matrix(1.0189 0 0 1.0246 -9.122 -.70742)">
  <path id="path3008" stroke-linejoin="round" d="m471.72 44.892c0-0.6487 0.51473-1.1584 1.1698-1.1584h406.5c0.6083 0 1.1697 0.50969 1.1697 1.1584v115.05c0 0.64869-0.5615 1.1583-1.1697 1.1583h-406.5c-0.65508 0-1.1698-0.50967-1.1698-1.1583zm2.3397 115.05-1.1697-1.1583h406.5l-1.1698 1.1583v-115.05l1.1698 1.1583h-406.5l1.1697-1.1583z" stroke="#000" stroke-width=".046564px"/>
  <text id="text3010" font-size="27.35px" line-height="125%" xml:space="preserve" style="text-decoration-line:underline;text-decoration:underline" transform="scale(1.0442 .95771)" y="118.23091" x="550.57758" font-family="Arial" fill="#000000">Control Memory</text>
  <text id="text3012" font-size="19.082px" xml:space="preserve" transform="scale(1.0442 .95771)" y="484.59845" x="197.87982" font-family="Arial" fill="#000000">MUX C</text>
  <path id="path3014" stroke-linejoin="round" d="m702.38 158.51v165.94h-1.6916v-165.94h1.6916zm4.1298 164.17-4.9757 10.651-4.9757-10.651h9.9512z" stroke="#000" stroke-width=".051474px"/>
  <path id="path3016" stroke-linejoin="round" d="m715.7 221.71-26.199 17.132 0.74713 0.91374 26.15-17.087z" stroke="#000" stroke-width=".047704px"/>
  <text id="text3018" font-size="14.313px" xml:space="preserve" transform="scale(1.0442 .95771)" line-height="125%" y="240.89326" x="650.57379" font-family="Arial" fill="#000000"><tspan id="tspan3920" y="240.89326" x="650.57379">80</tspan></text>
  <path id="path3024" stroke-linejoin="round" d="m216.54 186.22c0 0.29906 0.32819 0.54829 0.74385 0.54829h124.25c0.41565 0 0.74382-0.24923 0.74382-0.54829v-136.92c0-0.3157-0.32817-0.56494-0.74382-0.56494h-124.25c-0.41566 0-0.74385 0.24924-0.74385 0.56494zm1.4658-136.92-0.72199 0.54835h124.25l-0.72199-0.54835v136.92l0.72199-0.54834h-124.25l0.72199 0.54834z" stroke="#000" stroke-width=".019066px"/>
  <path id="path3026" stroke-linejoin="round" d="m382.3 49.9c0-0.36599 0.37356-0.67098 0.82187-0.67098h31.879c0.44827 0 0.82186 0.30499 0.82186 0.67098v98.937c0 0.36597-0.37359 0.67096-0.82186 0.67096h-31.879c-0.44831 0-0.82187-0.30499-0.82187-0.67096zm1.6437 98.937-0.82188-0.67099h31.879l-0.84685 0.67099v-98.937l0.84685 0.6913h-31.879l0.82188-0.6913z" stroke="#000" stroke-width=".022504px"/>
  <path id="path3028" stroke-linejoin="round" d="m77.64 488.6c0 0.41068 0.33714 0.73495 0.74171 0.73495h320.29c0.40456 0 0.74174-0.32427 0.74174-0.73495v-45.979c0-0.38911-0.33718-0.71333-0.74174-0.71333h-320.29c-0.40457 0-0.74171 0.32422-0.74171 0.71333zm1.4834-45.979-0.74172 0.71338h320.29l-0.74171-0.71338v45.979l0.74171-0.71337h-320.29l0.74172 0.71337z" stroke="#000" stroke-width=".022044px"/>
  <text id="text3038" font-size="19.082px" xml:space="preserve" transform="scale(1.0442 .95771)" y="617.58331" x="64.956177" font-family="Arial" fill="#000000">SR</text>
  <path id="path3040" stroke-linejoin="round" d="m70.574 89.515c0 0.29106 0.37361 0.5336 0.82191 0.5336h58.429c0.47324 0 0.84684-0.24255 0.84684-0.5336v-26.503c0-0.29106-0.3736-0.5336-0.84684-0.5336h-58.429c-0.44831 0-0.8219 0.24255-0.8219 0.5336zm1.6688-26.503-0.8468 0.54976h58.429l-0.82191-0.54976v26.503l0.82191-0.53359h-58.429l0.8468 0.53359z" stroke="#000" stroke-width=".020066px"/>
  <g id="g4866" stroke-linejoin="round" transform="matrix(.70449 0 0 .97841 -222.91 121.32)" stroke="#000" stroke-width=".043902px">
   <path id="path3042" d="m828.4 256.34h12.482v1.0922h-12.482z"/>
   <path id="path3044" d="m854.34 256.34h12.482v1.0922h-12.482z"/>
   <path id="path3048" d="m840.5 243.5h13.454v1.0922h-13.454z"/>
   <path id="path3050" d="m841.07 257.26v-13.588h-1.1028v13.588z"/>
   <path id="path3052" d="m854.17 257.26v-13.938h-1.1027v13.938z"/>
   <path id="path3054" d="m866.65 257.26v-13.938h-1.1028v13.938z"/>
   <path id="path3058" d="m865.81 243.5h13.763v1.0922h-13.763z"/>
  </g>
  <path id="path3060" stroke-linejoin="round" d="m329.59 538.14-0.14022-42.853-1.3867-0.39913-0.14018 43.252zm4.1305-41.613-4.9764-8.0279-4.696 8.0279z" stroke="#000" stroke-width=".030894px"/>
  <path id="path3062" stroke-linejoin="round" d="m355.42 513.83v-18.689h-1.6687v18.689h1.6687zm4.1592-17.384-4.981-7.7869-4.981 7.7869h9.9621z" stroke="#000" stroke-width=".022018px"/>
  <text id="text3064" font-size="14.425px" xml:space="preserve" transform="scale(1.0442 .95771)" line-height="125%" y="577.33771" x="359.35901" font-family="Arial" fill="#000000"><tspan id="tspan14891" y="577.33771" x="359.35901">0</tspan></text>
  <text id="text3066" font-size="14.561px" xml:space="preserve" transform="scale(1.0442 .95771)" line-height="125%" y="187.27496" x="287.02325" font-family="Arial" fill="#000000">A0</text>
  <text id="text3068" font-size="20.622px" xml:space="preserve" transform="scale(1.0442 .95771)" line-height="125%" y="130.96692" x="244.85097" font-family="Arial" fill="#000000">MUX A</text>
  <text id="text3072" font-size="17.047px" xml:space="preserve" transform="scale(1.0442 .95771)" line-height="125%" y="218.3302" x="682.88892" font-family="Arial" fill="#000000"><tspan id="tspan14893" y="218.3302" x="682.88892">µInstruction</tspan></text>
  <text id="text3076" font-size="19.082px" xml:space="preserve" transform="scale(1.0442 .95771)" y="308.81662" x="529.35449" font-family="Arial" fill="#000000">MADDR</text>
  <text id="text3080" font-size="19.082px" xml:space="preserve" transform="matrix(0 -.95771 1.0442 0 0 0)" y="388.57611" x="-133.56728" font-family="Arial" fill="#000000">µAddr</text>
  <path id="path3082" stroke-linejoin="round" d="m414.13 99.743h52.524v1.5308h-52.524v-1.5308zm51.42-3.7927 6.5862 4.5696-6.5862 4.5696v-9.1393z" stroke="#000" stroke-width=".019397px"/>
  <text id="text3084" font-size="19.082px" xml:space="preserve" transform="scale(1.0442 .95771)" y="87.30426" x="85.940697" font-family="Arial" fill="#000000">+1</text>
  <path id="path3086" fill-rule="evenodd" d="m438.85 100.52c0-1.2792 1.0709-2.3072 2.366-2.3072s2.366 1.0279 2.366 2.3072c0 1.2564-1.0709 2.2844-2.366 2.2844s-2.366-1.028-2.366-2.2844"/>
  <path id="path3088" stroke-linejoin="round" d="m437.73 100.65v-0.29696l0.0501-0.45688c0.0246-0.09138 0.0246-0.18273 0.0745-0.29696l0.12453-0.4112c0.0247-0.09138 0.0745-0.15989 0.0997-0.25126l0.22415-0.38834c0.05-0.09137 0.0996-0.18276 0.17432-0.27412l0.29882-0.34267c0.0501-0.04569 0.12453-0.11424 0.17436-0.1599l0.34864-0.27412c0.0998-0.0914 0.19925-0.1599 0.32379-0.22845l0.42337-0.20561c0.0745-0.04569 0.14942-0.06848 0.24903-0.11423l0.4234-0.13708c0.12454-0.02279 0.24905-0.04569 0.37357-0.0686l0.47318-0.04569h0.34867l0.47321 0.04569c0.12451 0.0229 0.22411 0.04569 0.34867 0.0686l0.44826 0.13708c0.0998 0.04569 0.19925 0.06836 0.29886 0.11423l0.39847 0.20561c0.0997 0.06836 0.19923 0.13705 0.27397 0.2056l0.34867 0.27412c0.0744 0.06848 0.14938 0.11424 0.19922 0.18273l0.29888 0.34267c0.0746 0.09138 0.12451 0.18276 0.19924 0.27412l0.19921 0.38834c0.0501 0.09137 0.0744 0.15991 0.0997 0.25126l0.17 0.414c0.0246 0.11424 0.0501 0.2056 0.0501 0.29696l0.05 0.45687c0.0247 0.11425 0.0247 0.20561 0 0.29697l-0.05 0.47971c0 0.0913-0.0245 0.18275-0.0501 0.27414l-0.14941 0.43403c-0.0246 0.0913-0.0501 0.15988-0.0997 0.25126l-0.19921 0.38834c-0.0746 0.0913-0.12456 0.18278-0.19924 0.27416l-0.29888 0.34264c-0.0501 0.0685-0.1245 0.11425-0.19922 0.18275l-0.34867 0.27413c-0.0745 0.0685-0.17433 0.13708-0.27397 0.20558l-0.39847 0.20561c-0.0997 0.0457-0.19924 0.0684-0.29886 0.11425l-0.44826 0.13704c-0.12459 0.0228-0.22417 0.0457-0.34867 0.0686l-0.47321 0.0457h-0.34867l-0.47318-0.0457c-0.12453-0.0229-0.24904-0.0457-0.37357-0.0686l-0.4063-0.13708c-0.0997-0.0457-0.17429-0.0684-0.24902-0.11425l-0.42338-0.20561c-0.12454-0.0685-0.22415-0.13705-0.32378-0.22842l-0.34865-0.27416c-0.0501-0.0457-0.12454-0.11422-0.17435-0.15988l-0.29883-0.34264c-0.0744-0.0913-0.12454-0.18276-0.17433-0.27416l-0.22412-0.38834c-0.0247-0.0913-0.0746-0.15988-0.0997-0.25126l-0.12452-0.43404c-0.0501-0.0913-0.0501-0.18276-0.0746-0.27413zm3.3621 0.18274-0.0745-0.29696 0.14946 0.43404-0.0997-0.25129 0.19924 0.38835-0.17435-0.27414 0.29885 0.34267-0.17432-0.15992 0.32378 0.29697-0.32378-0.22845 0.39849 0.20558-0.24906-0.11421 0.44831 0.13705-0.3736-0.0685 0.47321 0.0457h-0.34868l0.4732-0.0457-0.34867 0.0685 0.44826-0.13705-0.29885 0.11421 0.3985-0.20558-0.27396 0.20558 0.34866-0.29693-0.19923 0.18275 0.29887-0.34267-0.19923 0.27414 0.22413-0.38835-0.0996 0.25129 0.12456-0.43404-0.0501 0.29696 0.0501-0.4797v0.29696l-0.0501-0.45687 0.0501 0.27411-0.12456-0.41118 0.0996 0.25128-0.22413-0.38835 0.19923 0.27414-0.29887-0.34266 0.19923 0.18274-0.34866-0.29696 0.27396 0.20559-0.3985-0.20559 0.29885 0.11426-0.44826-0.13707 0.34867 0.06858-0.4732-0.04568h0.34868l-0.47321 0.04568 0.3736-0.06858-0.44831 0.13707 0.24906-0.11426-0.39849 0.20559 0.32378-0.22842-0.32378 0.29696 0.17432-0.1599-0.29885 0.34266 0.17435-0.27414-0.19924 0.38835 0.0997-0.25128-0.14946 0.41118 0.0745-0.27411-0.05 0.45687v-0.29696z" stroke="#000" stroke-width=".023852px"/>
  <path id="path3092" stroke-linejoin="round" d="m341.28 101.98h37.366v-1.5311h-37.366v1.5311zm36.646 3.7934 4.3014-4.5704-4.3014-4.5705v9.1408z" stroke="#000" stroke-width=".015675px"/>
  <path id="path3094" stroke-linejoin="round" d="m277.55 269.76v-74.374h-1.6687v74.374h1.6687zm4.1343-72.901-4.9811-8.9285-4.9811 8.9285h9.9621z" stroke="#000" stroke-width=".023578px"/>
  <path id="path3098" stroke-linejoin="round" d="m442.2 28.824h-341.06v1.1379h341.06z" stroke="#000" stroke-width=".028332px"/>
  <path id="path3100" stroke-linejoin="round" d="m100.28 29.616-0.17816 34.036h1.4845l0.17815-34.036z" stroke="#000" stroke-width=".0081789px"/>
  <path id="path3102" stroke-linejoin="round" d="m129.66 75.632h78.532v1.5307h-78.532v-1.5307zm76.968-3.8038 9.4054 4.5691-9.4054 4.5691v-9.1382z" stroke="#000" stroke-width=".011588px"/>
  <path id="path3104" stroke-linejoin="round" d="m136.41 131.22h72.816v1.5192h-72.816v-1.5192zm71.45-3.8155 8.2281 4.5696-8.2281 4.5695v-9.1389z" stroke="#000" stroke-width=".010839px"/>
  <path id="path3108" stroke-linejoin="round" d="m380.28 538.68-0.28044-41.934-1.3868-0.53212v42.467zm3.4543-41.74-4.2754-8.2772-3.995 8.1441z" stroke="#000" stroke-width=".031011px"/>
  <path id="path3110" stroke-linejoin="round" d="m429.04 430.04-16.823 9.7044 0.70519 1.0025 16.798-9.7124z" stroke="#000" stroke-width=".023852px"/>
  <text id="text3112" font-size="12.786px" xml:space="preserve" transform="scale(1.0442 .95771)" y="452.74756" x="395.3381" font-family="Arial" fill="#000000">4</text>
  <path id="path3120" stroke-linejoin="round" d="m468.14 210.83-9.5136 11.217 0.97131 0.70819 9.5136-11.217z" stroke="#000" stroke-width=".023852px"/>
  <text id="text3122" font-size="12.786px" xml:space="preserve" transform="scale(1.0442 .95771)" y="220.99016" x="429.23962" font-family="Arial" fill="#000000">12</text>
  <path id="path3124" stroke-linejoin="round" d="m186.75 159.39h24.194v1.5308h-24.194v-1.5308zm22.961-3.8043 7.4184 4.5698-7.4184 4.5697v-9.1395z" stroke="#000" stroke-width=".010293px"/>
  <text id="text3126" font-size="19.082px" xml:space="preserve" transform="scale(1.0442 .95771)" y="174.01848" x="158.38449" font-family="Arial" fill="#000000">0</text>
  <text id="text3130" font-size="14.276px" xml:space="preserve" transform="scale(1.0442 .95771)" line-height="125%" y="191.47908" x="143.83501" font-family="Arial" fill="#000000">(fetch) </text>
  <path id="path3134" stroke-linejoin="round" d="m136.68 130.59-0.14996 87.338 1.2492 0.0154 0.14991-87.352z" stroke="#000" stroke-width=".014080px"/>
  <path id="path3136" stroke-linejoin="round" d="m302.24 513.78v-18.689h-1.6688v18.689h1.6688zm4.1345-17.384-4.981-7.787-4.981 7.787h9.9621z" stroke="#000" stroke-width=".022018px"/>
  <path id="path3138" stroke-linejoin="round" d="m458.84 443.24v-32.973h-1.2533v32.973z" stroke="#000" stroke-width=".014580px"/>
  <text id="text3140" font-size="13.114px" xml:space="preserve" transform="scale(1.0442 .95771)" line-height="125%" y="634.56537" x="257.57681" font-family="Arial" fill="#000000">0</text>
  <path id="path3142" stroke-linejoin="round" d="m149.62 412.7 618.52-2.8766v-1.179l-618.52 2.8767z" stroke="#000" stroke-width=".039641px"/>
  <path id="path3142b" stroke-linejoin="round" d="m154.21 412.7 615.48-2.8767v-1.1789l-615.48 2.8767z" stroke="#000" stroke-width=".039544px"/>
  <path id="path3144" stroke-linejoin="round" d="m445.97 507c-0.33676-0.002-0.5838-0.30462-0.58251-0.66653l0.20512-58.27c0.0009-0.36193 0.25041-0.66227 0.58718-0.66054l24.707 0.12666c0.33674 0.002 0.60152 0.30472 0.60026 0.66662l-0.20514 58.27c-0.00091 0.3619-0.26816 0.66216-0.60492 0.66045zm24.712-1.2204-0.58725 0.68064 0.20513-58.27 0.58245 0.68664-24.707-0.12667 0.58728-0.68065-0.20513 58.27-0.58246-0.68665z" stroke="#000" stroke-width=".018878px"/>
  <path id="path3150" stroke-linejoin="round" d="m537.68 507.06c-0.35425 0.003-0.60423-0.32618-0.60656-0.69892l-0.36947-60.012c-0.003-0.37273 0.24389-0.66478 0.59813-0.66781l24.69-0.21087c0.31879-0.003 0.56855 0.28511 0.57086 0.65781l0.3695 60.012c0.003 0.37275-0.24363 0.70619-0.56242 0.70891zm24.681-1.619-0.59787 0.70921-0.36952-60.012 0.60655 0.69891-24.69 0.21089 0.56244-0.70891 0.36954 60.012-0.57114-0.69924z" stroke="#000" stroke-width=".038304px"/>
  <path id="path3156" stroke-linejoin="round" d="m629.03 505.03c-0.33164-0.003-0.5608-0.32328-0.55752-0.68084l0.53273-57.571c0.004-0.35761 0.23804-0.63352 0.56967-0.6303l23.114 0.22272c0.29843 0.002 0.528 0.28323 0.52473 0.64079l-0.53275 57.571c-0.004 0.35755-0.23841 0.67319-0.53685 0.67031zm23.126-1.1282-0.57004 0.67004 0.53276-57.571 0.55751 0.68085-23.114-0.2227 0.53689-0.67036-0.53274 57.571-0.52439-0.68058z" stroke="#000" stroke-width=".036301px"/>
  <path id="path3162" stroke-linejoin="round" d="m684.76 335.33c0-0.41142 0.13049-0.7771 0.3169-0.7771h72.22c0.16776 0 0.29829 0.36568 0.29829 0.7771v31.862c0 0.41142-0.13053 0.77708-0.29829 0.77708h-72.22c-0.18641 0-0.3169-0.36566-0.3169-0.77708zm0.61519 31.862-0.29827-0.77715h72.22l-0.31689 0.77715v-31.862l0.31689 0.77715h-72.22l0.29827-0.77715z" stroke="#000" stroke-width=".029191px"/>
  <text id="text3164" font-size="17.449px" xml:space="preserve" transform="scale(1.0442 .95771)" line-height="125%" y="373.19519" x="514.22803" font-family="Arial" fill="#000000"><tspan id="tspan4277" y="373.19519" x="514.22803">SelA</tspan></text>
  <text id="text3168" font-size="17.449px" xml:space="preserve" transform="scale(1.0442 .95771)" line-height="125%" y="373.92798" x="564.72729" font-family="Arial" fill="#000000"><tspan id="tspan4279" y="373.92798" x="564.72729">SelB</tspan></text>
  <text id="text3172" font-size="17.449px" xml:space="preserve" transform="scale(1.0442 .95771)" line-height="125%" y="373.92798" x="613.53418" font-family="Arial" fill="#000000"><tspan id="tspan4281" y="373.92798" x="613.53418">SelC</tspan></text>
  <path id="path3176" stroke-linejoin="round" d="m527.98 335.31c0-0.41119 0.31368-0.75387 0.6901-0.75387h54.33c0.37646 0 0.69013 0.34268 0.69013 0.75387v31.869c0 0.41123-0.31367 0.75387-0.69013 0.75387h-54.33c-0.37642 0-0.6901-0.34264-0.6901-0.75387zm1.3801 31.869-0.6901-0.77674h54.33l-0.711 0.77674v-31.869l0.711 0.77672h-54.33l0.6901-0.77672z" stroke="#000" stroke-width=".021857px"/>
  <path id="path3178" stroke-linejoin="round" d="m582.44 335.33c0-0.41125 0.31663-0.77678 0.67283-0.77678h52.52c0.3562 0 0.67289 0.36553 0.67289 0.77678v31.848c0 0.41124-0.31669 0.77678-0.67289 0.77678h-52.52c-0.3562 0-0.67283-0.36554-0.67283-0.77678zm1.3062 31.848-0.63324-0.77681h52.52l-0.67278 0.77681v-31.848l0.67278 0.77681h-52.52l0.63324-0.77681z" stroke="#000" stroke-width=".042526px"/>
  <path id="path3180" stroke-linejoin="round" d="m635.08 335.33c0-0.41126 0.25403-0.77685 0.61704-0.77685h49.434c0.32675 0 0.58077 0.36559 0.58077 0.77685v31.851c0 0.41126-0.25402 0.77683-0.58077 0.77683h-49.434c-0.36301 0-0.61704-0.36557-0.61704-0.77683zm1.1978 31.851-0.58067-0.77688h49.434l-0.61703 0.77688v-31.851l0.61703 0.77686h-49.434l0.58067-0.77686z" stroke="#000" stroke-width=".040726px"/>
  <path id="path3182" stroke-linejoin="round" d="m463.38 520.56-13.4 9.069 0.74716 0.91374 13.4-9.0461z" stroke="#000" stroke-width=".023852px"/>
  <path id="path3184" stroke-linejoin="round" d="m558.01 521.26-13.4 9.069 0.74715 0.91375 13.399-9.069z" stroke="#000" stroke-width=".023852px"/>
  <path id="path3186" stroke-linejoin="round" d="m646 518.47-13.4 9.0918 0.74718 0.91375 13.4-9.0918z" stroke="#000" stroke-width=".047704px"/>
  <path id="path3188" stroke-linejoin="round" d="m459.05 428.47v11.788h-1.6437v-11.788h1.6437zm4.159 10.257-4.981 9.1374-4.981-9.1374h9.962z" stroke="#000" stroke-width=".023852px"/>
  <path id="path3190" stroke-linejoin="round" d="m551.03 426.52v11.81h-1.6686v-11.81h1.6686zm4.159 10.28-4.981 9.1374-4.981-9.1374h9.9619z" stroke="#000" stroke-width=".023852px"/>
  <path id="path3192" stroke-linejoin="round" d="m640.47 427.05v11.788h-1.6935v-11.788h1.6935zm4.1342 10.234-4.981 9.1374-4.981-9.1374h9.962z" stroke="#000" stroke-width=".047704px"/>
  <path id="path3194" stroke-linejoin="round" d="m491.08 476.34-12.054 0.0685v1.5305l12.054-0.0687v-1.5305zm-10.435-3.7462-9.912 4.6375 9.987 4.5003-0.0743-9.1374z" stroke="#000" stroke-width=".023852px"/>
  <path id="path3196" stroke-linejoin="round" d="m610.63 387.21v-19.211h-1.2546v19.211z" stroke="#000" stroke-width=".014070px"/>
  <path id="path3198" fill-rule="evenodd" d="m455.77 410.58c0-1.2796 0.91351-2.3078 2.0182-2.3078 1.1259 0 2.0182 1.0282 2.0182 2.3078 0 1.2566-0.89225 2.2851-2.0182 2.2851-1.1047 0-2.0182-1.0282-2.0182-2.2851"/>
  <path id="path3200" stroke-linejoin="round" d="m454.25 410.7v-0.29701l0.0452-0.457c0.0222-0.0914 0.0222-0.18279 0.0674-0.29706l0.11236-0.41127c0.0222-0.0913 0.0675-0.15999 0.0898-0.25135l0.20226-0.38847c0.0452-0.0913 0.0897-0.18275 0.15729-0.27417l0.26967-0.34274 0.1798-0.18279 0.31465-0.27419c0.0897-0.0685 0.17973-0.13708 0.26963-0.20567l0.35957-0.20563c0.0674-0.0456 0.1573-0.0684 0.24719-0.11426l0.40451-0.13714c0.11237-0.0228 0.22471-0.0456 0.31463-0.0682l0.42699-0.0456h0.31458l0.427 0.0456c0.11236 0.0228 0.2247 0.0456 0.3371 0.0682l0.40447 0.13714c0.0897 0.0456 0.15733 0.0684 0.24721 0.11426l0.35956 0.20563c0.0898 0.0686 0.1798 0.13712 0.26968 0.20567l0.31465 0.27419c0.0675 0.0686 0.11236 0.11427 0.17974 0.18279l0.26968 0.34274c0.0451 0.0914 0.11233 0.18282 0.15729 0.27417l0.20229 0.38847c0.0221 0.0914 0.0674 0.15992 0.0898 0.25135l0.11234 0.41127c0.0447 0.11429 0.0447 0.20565 0.0675 0.29706l0.0452 0.457v0.29701l-0.0452 0.47984c-0.0222 0.0914-0.0222 0.18279-0.0675 0.27423l-0.11234 0.43409c-0.0222 0.0913-0.0675 0.16-0.0898 0.25136l-0.20229 0.38843c-0.0448 0.0914-0.11233 0.18277-0.15729 0.27417l-0.26968 0.34276c-0.0674 0.0685-0.11235 0.11425-0.17974 0.1828l-0.31465 0.27421c-0.0897 0.0683-0.17979 0.13707-0.26968 0.20561l-0.35956 0.20565c-0.0898 0.0456-0.1573 0.0685-0.24721 0.11429l-0.40447 0.13712c-0.11235 0.0228-0.22474 0.0456-0.3371 0.0684l-0.427 0.0456h-0.31458l-0.42699-0.0456c-0.0898-0.0229-0.20226-0.0456-0.31463-0.0684l-0.40451-0.13712c-0.0898-0.0456-0.17976-0.0686-0.24719-0.11429l-0.35957-0.20565c-0.0898-0.0684-0.17976-0.13707-0.26963-0.20561l-0.31465-0.27421-0.1798-0.1828-0.26967-0.34276c-0.0674-0.0914-0.11236-0.18273-0.15729-0.27417l-0.20226-0.38843c-0.0222-0.0914-0.0675-0.15996-0.0898-0.25136l-0.11236-0.43409c-0.0447-0.0914-0.0447-0.18278-0.0674-0.27423zm3.0338 0.18284-0.0675-0.29707 0.13484 0.43413-0.0897-0.25134 0.17977 0.38843-0.15732-0.27415 0.26967 0.34269-0.17979-0.18278 0.31464 0.29704-0.26967-0.20565 0.35953 0.20565-0.24715-0.11427 0.40451 0.13709-0.33714-0.0685 0.42703 0.0456h-0.31463l0.42698-0.0456-0.31461 0.0685 0.4045-0.13709-0.24722 0.11427 0.35957-0.20565-0.26966 0.20565 0.31459-0.29704-0.17978 0.18278 0.26969-0.34269-0.15731 0.27415 0.17979-0.38843-0.0897 0.25134 0.13483-0.43413-0.0675 0.29707 0.0451-0.47985v0.29701l-0.0451-0.457 0.0675 0.27425-0.13483-0.41134 0.0897 0.25135-0.17979-0.38843 0.15731 0.27417-0.26969-0.34271 0.17978 0.18278-0.31459-0.29704 0.26966 0.20566-0.35957-0.20566 0.24722 0.11429-0.4045-0.13711 0.31461 0.0684-0.42698-0.0456h0.31463l-0.42703 0.0456 0.33714-0.0684-0.40451 0.13711 0.24715-0.11429-0.35953 0.20566 0.26967-0.20566-0.31464 0.29704 0.17979-0.18278-0.26967 0.34271 0.15732-0.27417-0.17977 0.38843 0.0897-0.25135-0.13484 0.41134 0.0675-0.27425-0.045 0.457v-0.29701z" stroke="#000" stroke-width=".022660px"/>
  <path id="path3202" fill-rule="evenodd" d="m547.62 410.58c0-1.2796 0.89227-2.3078 2.0183-2.3078 1.1047 0 1.9968 1.0282 1.9968 2.3078 0 1.2566-0.89222 2.2851-1.9968 2.2851-1.126 0-2.0183-1.0282-2.0183-2.2851"/>
  <path id="path3204" stroke-linejoin="round" d="m546.02 410.7c-0.0222-0.0914-0.0222-0.18275 0-0.29701l0.0447-0.457c0-0.0914 0.0221-0.18279 0.0452-0.29706l0.13485-0.41127c0.0221-0.0913 0.045-0.15999 0.0897-0.25135l0.17978-0.38847c0.0452-0.0913 0.11233-0.18275 0.17976-0.27417l0.26966-0.34274c0.0448-0.0686 0.11238-0.11425 0.17977-0.18279l0.31465-0.27419c0.0674-0.0685 0.15729-0.13708 0.24719-0.20567l0.35957-0.20563c0.0897-0.0456 0.17975-0.0684 0.26966-0.11426l0.40451-0.13714c0.0897-0.0228 0.20229-0.0456 0.31463-0.0682l0.42698-0.0456h0.31462l0.42696 0.0456c0.11237 0.0228 0.22474 0.0456 0.33708 0.0682l0.38203 0.13714c0.0897 0.0456 0.15733 0.0684 0.22477 0.11426l0.38202 0.20563c0.0898 0.0456 0.20224 0.1143 0.26967 0.20567l0.31462 0.27419 0.20223 0.20564 0.2472 0.34273c0.0674 0.0914 0.11236 0.15998 0.15731 0.25133l0.20227 0.38847c0.0222 0.0914 0.0673 0.15992 0.0898 0.25135l0.11234 0.41127c0.0452 0.11429 0.0452 0.20565 0.0674 0.29706l0.0447 0.457v0.29701l-0.0447 0.47984c-0.0222 0.0914-0.0222 0.18279-0.0674 0.27423l-0.11234 0.43409c-0.0221 0.0913-0.0675 0.16-0.0898 0.25136l-0.20227 0.38843c-0.0452 0.0914-0.0897 0.15994-0.15731 0.25132l-0.2472 0.34277c-0.0675 0.0684-0.13482 0.13708-0.20223 0.20564l-0.31462 0.27421c-0.0674 0.0914-0.17979 0.1599-0.26967 0.20561l-0.38202 0.20565c-0.0676 0.0456-0.13487 0.0685-0.22477 0.11429l-0.38203 0.13712c-0.11234 0.0228-0.22471 0.0456-0.33708 0.0684l-0.42696 0.0456h-0.31462l-0.42698-0.0456c-0.11236-0.0229-0.22473-0.0456-0.31463-0.0684l-0.4-0.13c-0.0897-0.0456-0.17979-0.0686-0.26966-0.11429l-0.35957-0.20565c-0.0898-0.0684-0.17977-0.13707-0.24719-0.20561l-0.31465-0.27421c-0.0674-0.0684-0.13484-0.11426-0.17977-0.1828l-0.26966-0.34276c-0.0674-0.0914-0.13484-0.18273-0.17976-0.27417l-0.17978-0.38843c-0.0452-0.0914-0.0674-0.15996-0.0897-0.25136l-0.13485-0.43409c-0.0222-0.0914-0.0452-0.18278-0.0452-0.27423zm3.0112 0.18284-0.0452-0.29707 0.11241 0.43413-0.0897-0.25134 0.20225 0.38843-0.17978-0.27415 0.26969 0.34269-0.17979-0.18278 0.31463 0.29704-0.24717-0.20565 0.35951 0.20565-0.26966-0.11427 0.40452 0.13709-0.31462-0.0685 0.42699 0.0456h-0.31462l0.42697-0.0456-0.33711 0.0685 0.4045-0.13709-0.22472 0.11427 0.3596-0.20565-0.26972 0.20565 0.31462-0.29704-0.20222 0.20566 0.26965-0.34275-0.15729 0.25133 0.17979-0.38843-0.0898 0.25134 0.13488-0.43413-0.0674 0.29707 0.0452-0.47985v0.29701l-0.0452-0.457 0.0674 0.27425-0.13488-0.41134 0.0898 0.25135-0.17979-0.38843 0.15729 0.25133-0.26965-0.34273 0.20222 0.20564-0.31462-0.29704 0.26972 0.20566-0.3596-0.20566 0.22472 0.11429-0.4045-0.13711 0.33711 0.0684-0.42697-0.0456h0.31462l-0.42699 0.0456 0.31462-0.0684-0.40452 0.13711 0.26966-0.11429-0.35951 0.20566 0.24717-0.20566-0.31463 0.29704 0.17979-0.18278-0.26969 0.34271 0.17978-0.27417-0.20225 0.38843 0.0897-0.25135-0.11241 0.41134 0.0452-0.27425-0.0452 0.457v-0.29701z" stroke="#000" stroke-width=".022660px"/>
  <path id="path3206" fill-rule="evenodd" d="m637.57 410.59c0-1.2796 0.93477-2.3307 2.0395-2.3307s1.9968 1.0511 1.9968 2.3307c0 1.2338-0.89224 2.2851-1.9968 2.2851s-2.0395-1.0511-2.0395-2.2851"/>
  <path id="path3208" stroke-linejoin="round" d="m636.16 410.73c-0.0453-0.0914-0.0453-0.1828 0-0.31988l0.0448-0.45697c0-0.0914 0-0.18285 0.0452-0.27423l0.13484-0.41127c0-0.0914 0.0451-0.18282 0.0897-0.2742l0.17979-0.3656c0.0452-0.0914 0.0899-0.18279 0.13481-0.27422l0.26971-0.31988c0.0452-0.0913 0.13482-0.13708 0.17973-0.22847l0.31463-0.27422c0.0897-0.0914 0.1798-0.13708 0.26969-0.1828l0.35957-0.22848c0.0896-0.0456 0.17976-0.0456 0.26965-0.0913l0.39457-0.10947c0.0897-0.0456 0.22471-0.0456 0.31462-0.0914l0.40452-0.0456h0.3146l0.44945 0.0456c0.0897 0.0456 0.22472 0.0456 0.31463 0.0914l0.40451 0.13709c0.0897 0.0456 0.17976 0.0456 0.26966 0.0913l0.35954 0.22847c0.0898 0.0456 0.17981 0.0914 0.2697 0.1828l0.31462 0.27418c0.0452 0.0913 0.0897 0.13709 0.13483 0.18282l0.26967 0.36558c0.0897 0.0914 0.13481 0.18278 0.17977 0.2742l0.22477 0.36559c0 0.0914 0.0452 0.18279 0.0897 0.27419l0.0899 0.41128c0.0452 0.0914 0.0452 0.18279 0.0897 0.27422l0.0452 0.45696v0.31991l-0.0452 0.45694c-0.0448 0.0913-0.0448 0.18282-0.0897 0.27423l-0.0899 0.45696c-0.0452 0.0913-0.0897 0.13714-0.0897 0.2285l-0.22477 0.41132c-0.0451 0.0913-0.0897 0.18275-0.17977 0.27414l-0.26967 0.31989c-0.0452 0.0456-0.0897 0.13713-0.13483 0.18281l-0.31462 0.2742c-0.0897 0.0914-0.17977 0.13708-0.2697 0.22852l-0.35954 0.18275c-0.0897 0.0456-0.17982 0.0914-0.26966 0.13713l-0.40451 0.13709c-0.0897 0-0.22475 0.0456-0.31463 0.0456l-0.44945 0.0456h-0.3146l-0.40452-0.0456c-0.0897 0-0.22471-0.0456-0.31462-0.0456l-0.40451-0.13709c-0.0897-0.0456-0.17978-0.0914-0.26966-0.13713l-0.35957-0.18275c-0.0897-0.0914-0.17979-0.13709-0.2697-0.22852l-0.31455-0.2742c-0.0449-0.0456-0.13483-0.13709-0.17977-0.22848l-0.26968-0.31993c-0.045-0.0914-0.0897-0.13708-0.13483-0.22845l-0.17978-0.4113c-0.0452-0.0914-0.0897-0.13709-0.0897-0.2285l-0.13489-0.45696c-0.0447-0.0913-0.0447-0.1828-0.0447-0.27423zm3.0112 0.1828-0.0451-0.31989 0.0897 0.45697-0.0897-0.27419 0.22474 0.41129-0.17978-0.27418 0.26965 0.36556-0.17978-0.22848 0.31464 0.3199-0.2697-0.22851 0.35959 0.22851-0.26969-0.13711 0.40451 0.13711-0.31463-0.0456 0.4045 0.0456h-0.31458l0.44943-0.0456-0.31463 0.0456 0.40452-0.13711-0.26966 0.13711 0.35957-0.22851-0.26967 0.22851 0.31462-0.3199-0.17977 0.18279 0.26968-0.31987-0.13486 0.27418 0.17975-0.41129-0.0897 0.27419 0.13484-0.45697-0.0897 0.31989 0.0453-0.50268v0.31988l-0.0453-0.45701 0.0897 0.27421-0.13484-0.41129 0.0897 0.2285-0.17975-0.3656 0.13486 0.27418-0.26968-0.36558 0.17977 0.18278-0.31462-0.27415 0.26967 0.18277-0.35957-0.18277 0.26966 0.0914-0.40452-0.13708 0.31463 0.0914-0.44943-0.0456h0.31458l-0.4045 0.0456 0.31463-0.0914-0.40451 0.13708 0.26969-0.0914-0.35959 0.18277 0.2697-0.18277-0.31464 0.27415 0.17978-0.22848-0.26965 0.36559 0.17978-0.22849-0.22474 0.3656 0.0897-0.2285-0.0897 0.41129 0.0451-0.27421-0.0451 0.45701v-0.31988z" stroke="#000" stroke-width=".045322px"/>
  <path id="path3210" stroke-linejoin="round" d="m707.67 368.26v109.01h-1.646v-109.01h1.646zm4.1898 108.2-4.9877 4.7832-4.9876-4.7832h9.9754z" stroke="#000" stroke-width=".034538px"/>
  <path id="path3212" stroke-linejoin="round" d="m713.19 440.22-13.4 9.0461 0.74713 0.95941 13.399-9.0918z" stroke="#000" stroke-width=".047704px"/>
  <text id="text3214" font-size="12.785px" xml:space="preserve" transform="scale(1.0442 .95771)" line-height="125%" y="462.05978" x="655.23206" font-family="Arial" fill="#000000"><tspan id="tspan3973" y="462.05978" x="655.23206">49</tspan></text>
  <path id="path3216" stroke-linejoin="round" d="m443.71 543.12c0-0.45769 0.27994-0.8391 0.61584-0.8391h54.061c0.35455 0 0.63445 0.38141 0.63445 0.8391v33.641c0 0.4831-0.2799 0.83911-0.63445 0.83911h-54.061c-0.3359 0-0.61584-0.35601-0.61584-0.83911zm1.2503 33.641-0.63447-0.83914h54.061l-0.61584 0.83914v-33.641l0.61584 0.83912h-54.061l0.63447-0.83912z" stroke="#000" stroke-width=".021784px"/>
  <text id="text3218" font-size="15.863px" xml:space="preserve" transform="scale(1.0442 .95771)" line-height="125%" y="596.21533" x="433.47256" font-family="Arial" fill="#000000">MUX</text>
  <path id="path3220" stroke-linejoin="round" d="m428.6 563.95h15.043v1.1421h-15.043z" stroke="#000" stroke-width=".023852px"/>
  <text id="text3222" font-size="14.122px" xml:space="preserve" transform="scale(1.0442 .95771)" line-height="125%" y="584.82458" x="393.36951" font-family="Arial" fill="#000000">MR</text>
  <text id="text3224" font-size="15.837px" xml:space="preserve" transform="matrix(.0018260 -.94444 1.0588 .0016749 0 0)" line-height="125%" y="674.4848" x="-604.0238" font-family="Arial" fill="#000000"><tspan id="tspan4437" y="674.4848" x="-604.0238">Rest of CPU</tspan></text>
  <text id="text3228" font-size="15.837px" xml:space="preserve" transform="matrix(.0018260 -.94444 1.0588 .0016749 0 0)" y="692.57635" x="-611.7901" font-family="Arial" fill="#000000">control </text>
  <text id="text3230" font-size="15.837px" xml:space="preserve" transform="matrix(.0018260 -.94444 1.0588 .0016749 0 0)" y="691.86499" x="-560.39642" font-family="Arial" fill="#000000">signals</text>
  <path id="path3232" stroke-linejoin="round" d="m671 427.38v-59.004h-1.2438v59.004z" stroke="#000" stroke-width=".049398px"/>
  <path id="path3234" stroke-linejoin="round" d="m475.55 576.3v13.956h-1.6437v-13.956h1.6437zm4.159 12.428-4.981 9.1374-4.981-9.1374h9.962z" stroke="#000" stroke-width=".023852px"/>
  <path id="path3236" stroke-linejoin="round" d="m537.4 543.01c0-0.46551 0.25683-0.87928 0.58705-0.87928h53.163c0.33021 0 0.58704 0.41377 0.58704 0.87928v34.243c0 0.46554-0.25683 0.8276-0.58704 0.8276h-53.163c-0.33022 0-0.58705-0.36206-0.58705-0.8276zm1.2107 34.243-0.62365-0.87928h53.163l-0.62367 0.87928v-34.243l0.62367 0.87936h-53.163l0.62365-0.87936z" stroke="#000" stroke-width=".043563px"/>
  <text id="text3238" font-size="15.863px" xml:space="preserve" transform="scale(1.0442 .95771)" line-height="125%" y="596.30255" x="522.46399" font-family="Arial" fill="#000000">MUX</text>
  <path id="path3240" stroke-linejoin="round" d="m523.99 563.82h15.018v1.1421h-15.018z" stroke="#000" stroke-width=".023852px"/>
  <text id="text3242" font-size="12.808px" line-height="125%" transform="scale(1.0442 .95771)" y="584.67249" x="489.18771" font-family="Arial" xml:space="preserve" fill="#000000">MR</text>
  <path id="path3244" stroke-linejoin="round" d="m566.23 576.14v13.979h-1.6437v-13.979h1.6437zm4.1342 12.474-4.981 9.1374-4.981-9.1374h9.962z" stroke="#000" stroke-width=".047704px"/>
  <path id="path3246" stroke-linejoin="round" d="m627.62 541.65c0-0.47477 0.24586-0.89689 0.56207-0.89689h50.904c0.31618 0 0.59722 0.42212 0.59722 0.89689v34.927c0 0.47481-0.28104 0.84412-0.59722 0.84412h-50.904c-0.31621 0-0.56207-0.36931-0.56207-0.84412zm1.1592 34.927-0.59723-0.89686h50.904l-0.59724 0.89686v-34.927l0.59724 0.89692h-50.904l0.59723-0.89692z" stroke="#000" stroke-width=".043051px"/>
  <text id="text3248" font-size="15.863px" xml:space="preserve" transform="scale(1.0442 .95771)" line-height="125%" y="595.54187" x="609.30627" font-family="Arial" fill="#000000">MUX</text>
  <path id="path3252" stroke-linejoin="round" d="m613.14 564.43h14.993v1.1421h-14.993z" stroke="#000" stroke-width=".047704px"/>
  <text id="text3254" font-size="12.808px" line-height="125%" transform="scale(1.0442 .95771)" y="585.29449" x="573.10028" font-family="Arial" xml:space="preserve" fill="#000000">MR</text>
  <path id="path3256" stroke-linejoin="round" d="m655.95 575.37v13.979h-1.6437v-13.979h1.6437zm4.1839 12.474-4.981 9.1374-4.981-9.1374h9.962z" stroke="#000" stroke-width=".047704px"/>
  <path id="path3258" stroke-linejoin="round" d="m489.18 386.76h61.581v1.1306h-61.581z" stroke="#000" stroke-width=".035166px"/>
  <path id="path3260" stroke-linejoin="round" d="m488.65 538.41 1.1984-151.81-1.4614-0.0259-1.1984 151.84z" stroke="#000" stroke-width=".027544px"/>
  <path id="path3262" fill-rule="evenodd" d="m577.92 476.39c0-1.2792 1.046-2.2845 2.391-2.2845 1.2951 0 2.3411 1.0051 2.3411 2.2845 0 1.2792-1.046 2.2844-2.3411 2.2844-1.3449 0-2.391-1.0051-2.391-2.2844"/>
  <path id="path3264" stroke-linejoin="round" d="m576.03 476.54v-0.27413l0.05-0.50257c0-0.0914 0.0502-0.18274 0.0502-0.27413l0.14943-0.41117c0.05-0.0914 0.05-0.18273 0.0998-0.22842l0.19922-0.4112c0.0501-0.0913 0.14942-0.18275 0.19926-0.27412l0.29886-0.31981c0.0501-0.0914 0.14942-0.13708 0.19922-0.18275l0.34868-0.3198c0.0996-0.0456 0.19924-0.13708 0.29885-0.18276l0.39847-0.18275c0.0996-0.0456 0.19924-0.0914 0.29886-0.13708l0.44829-0.13704c0.0998-0.0456 0.19926-0.0456 0.34866-0.0456l0.44828-0.0456c0.14945-0.0456 0.24904-0.0456 0.34868 0l0.49808 0.0456c0.0998 0 0.24905 0 0.34866 0.0456l0.44829 0.13704c0.0997 0.0456 0.14944 0.0914 0.24904 0.0914l0.39847 0.22843c0.0996 0.0456 0.24909 0.13707 0.29889 0.1828l0.34867 0.31978c0.0994 0.0456 0.1494 0.13705 0.24902 0.18274l0.24903 0.36548c0.0998 0.0456 0.14943 0.13707 0.19926 0.22845l0.19926 0.41119c0.0501 0.0456 0.0998 0.13704 0.0998 0.22844l0.14945 0.41118c0.05 0.0914 0.05 0.18276 0.05 0.27412l0.0502 0.50258v0.27409l-0.0502 0.45689c0 0.13708 0 0.22844-0.05 0.31977l-0.14945 0.4112c0 0.0913-0.0501 0.18279-0.0998 0.22846l-0.19926 0.41119c-0.0502 0.0914-0.0995 0.18273-0.19926 0.22842l-0.24903 0.3655c-0.0996 0.0456-0.14944 0.13708-0.24902 0.18275l-0.34867 0.31982c-0.05 0.0456-0.19924 0.13704-0.29889 0.18273l-0.39847 0.18274c-0.0995 0.0456-0.14942 0.0913-0.24904 0.1371l-0.44829 0.13706c-0.0997 0.0456-0.24903 0.0456-0.34866 0.0456l-0.49808 0.0456c-0.0994 0.0456-0.19923 0.0456-0.34868 0l-0.44828-0.0456c-0.1494 0-0.24905 0-0.34866-0.0456l-0.44829-0.13706c-0.0996-0.0456-0.19922-0.0914-0.29886-0.1371l-0.39847-0.18274c-0.0997-0.0456-0.19925-0.13704-0.29885-0.18273l-0.34868-0.31982c-0.05-0.0456-0.14941-0.0913-0.19922-0.18275l-0.29886-0.31977c-0.0501-0.0914-0.14945-0.18277-0.19926-0.27415l-0.19922-0.41119c-0.0502-0.0456-0.0502-0.13705-0.0998-0.22846l-0.14943-0.4112c0-0.0914-0.0502-0.18269-0.0502-0.31977zm3.3371 0.18273-0.0501-0.2741 0.14945 0.41117-0.0994-0.22844 0.19925 0.36548-0.19925-0.27411 0.29884 0.3655-0.19926-0.18273 0.34867 0.27411-0.249-0.18277 0.39844 0.18277-0.29885-0.0914 0.44828 0.13705-0.34867-0.0914 0.44826 0.0456h-0.34865l0.4981-0.0456-0.39847 0.0914 0.44828-0.13705-0.24904 0.0914 0.39847-0.22842-0.29887 0.22842 0.3487-0.27411-0.19926 0.18273 0.29887-0.31981-0.19925 0.22842 0.19925-0.36548-0.0996 0.22844 0.14943-0.41117-0.0501 0.2741 0.0501-0.45686v0.27413l-0.0501-0.45685 0.0501 0.2741-0.14943-0.41119 0.0996 0.22843-0.19925-0.36549 0.19925 0.22842-0.29887-0.3198 0.19926 0.18276-0.3487-0.27412 0.29887 0.18274-0.39847-0.18274 0.24904 0.0914-0.44828-0.13703 0.39847 0.0913-0.4981-0.0456h0.34865l-0.44826 0.0456 0.34867-0.0913-0.44828 0.13703 0.29885-0.0914-0.39844 0.18274 0.249-0.18274-0.34867 0.27412 0.19926-0.18276-0.29884 0.36553 0.19925-0.27415-0.19925 0.36549 0.0994-0.22843-0.14945 0.41119 0.0501-0.2741-0.0501 0.45685v-0.27413z" stroke="#000" stroke-width=".047704px"/>
  <path id="path3266" fill-rule="evenodd" d="m488.06 476.88c0-1.2564 1.0709-2.2844 2.366-2.2844 1.32 0 2.366 1.028 2.366 2.2844 0 1.2792-1.0459 2.3072-2.366 2.3072-1.2951 0-2.366-1.028-2.366-2.3072"/>
  <path id="path3268" stroke-linejoin="round" d="m485.29 477.03v-0.29695l0.0501-0.47973c0.0246-0.0914 0.0246-0.18276 0.0745-0.27411l0.12451-0.43404c0.0245-0.0683 0.0744-0.1599 0.0994-0.22845l0.22414-0.38834c0.0501-0.11425 0.0998-0.20559 0.17436-0.2741l0.29883-0.34266c0.0745-0.0686 0.12456-0.13708 0.19925-0.18276l0.34865-0.29695c0.0997-0.0687 0.19925-0.13708 0.29886-0.18277l0.39852-0.20559c0.0745-0.0456 0.1743-0.0914 0.27393-0.11422l0.44829-0.13707c0.12452-0.0456 0.24905-0.0684 0.34865-0.0684l0.47317-0.0456c0.12456-0.0228 0.24904-0.0228 0.34869 0l0.47318 0.0456c0.12452 0 0.24906 0.0228 0.37358 0.0684l0.44827 0.13707c0.0994 0.0228 0.17434 0.0683 0.27398 0.11422l0.39846 0.20559c0.0994 0.0456 0.19924 0.11427 0.29885 0.18277l0.34867 0.29695c0.0744 0.0456 0.12452 0.11424 0.19924 0.18276l0.29883 0.34266c0.0501 0.0684 0.12453 0.15988 0.17436 0.2741l0.22417 0.38834c0.0245 0.0685 0.0743 0.15992 0.0996 0.22845l0.12452 0.43404c0.0501 0.0914 0.0501 0.18274 0.0744 0.27411l0.0501 0.47973v0.29695l-0.0501 0.45689c-0.0246 0.11422-0.0246 0.20559-0.0744 0.27409l-0.12452 0.43405c-0.0245 0.0914-0.0744 0.18274-0.0996 0.27412l-0.22417 0.38834c-0.0501 0.0913-0.12454 0.18274-0.17436 0.27413l-0.29883 0.34264c-0.0745 0.0684-0.12454 0.11426-0.19924 0.18273l-0.34867 0.27416c-0.0996 0.0682-0.19923 0.13706-0.29885 0.20557l-0.39846 0.2056c-0.0996 0.0456-0.17436 0.0685-0.27398 0.11425l-0.44827 0.13705c-0.12453 0.0228-0.24906 0.0456-0.37358 0.0685l-0.47318 0.0456h-0.34869l-0.47317-0.0456c-0.0999-0.0228-0.22413-0.0456-0.34865-0.0685l-0.44829-0.13705c-0.0997-0.0456-0.19923-0.0683-0.27393-0.11425l-0.39852-0.2056c-0.0998-0.0686-0.19923-0.13703-0.29886-0.20557l-0.34865-0.27416-0.19925-0.18273-0.29883-0.34264c-0.0743-0.0913-0.12455-0.18273-0.17436-0.27413l-0.22414-0.38834c-0.0246-0.0914-0.0745-0.18273-0.0994-0.27412l-0.14941-0.43405c-0.0246-0.0684-0.0246-0.15989-0.0501-0.27409zm3.3622 0.15991-0.0501-0.27414 0.12454 0.43404-0.0996-0.25127 0.19922 0.38835-0.17432-0.27414 0.29885 0.34268-0.19919-0.1828 0.34864 0.29701-0.29885-0.20559 0.39846 0.20559-0.27395-0.11427 0.44826 0.13709-0.37356-0.0685 0.4732 0.0456h-0.34869l0.47322-0.0456-0.34866 0.0685 0.44828-0.13709-0.27395 0.11427 0.39849-0.20559-0.29887 0.20559 0.34865-0.29701-0.19922 0.1828 0.29883-0.34268-0.1743 0.27414 0.19924-0.38835-0.0997 0.25127 0.12453-0.43404-0.05 0.27414 0.05-0.45686v0.29695l-0.05-0.47972 0.0743 0.29698-0.1494-0.434 0.0997 0.25125-0.19925-0.38834 0.17436 0.27411-0.2989-0.34263 0.19925 0.18277-0.34866-0.27415 0.29887 0.18274-0.39848-0.20558 0.27394 0.11424-0.44828-0.13708 0.3487 0.0685-0.47323-0.0456h0.34866l-0.47318 0.0456 0.37359-0.0685-0.44829 0.13708 0.27393-0.11424-0.39845 0.20558 0.29885-0.18274-0.34869 0.27415 0.19923-0.18277-0.29882 0.34263 0.17433-0.27411-0.19925 0.38834 0.0998-0.25125-0.14941 0.434 0.0744-0.29698-0.0501 0.47972v-0.29695z" stroke="#000" stroke-width=".023852px"/>
  <path id="path3270" stroke-linejoin="round" d="m488.71 511.81v23.02h-1.6437v-23.02h1.6437zm4.1591 21.399-4.981 9.6824-4.981-9.6824h9.962z" stroke="#000" stroke-width=".024552px"/>
  <path id="path3272" stroke-linejoin="round" d="m494.79 521.31-13.4 9.069 0.72225 0.91376 13.4-9.069z" stroke="#000" stroke-width=".023852px"/>
  <text id="text3274" font-size="12.786px" xml:space="preserve" transform="scale(1.0442 .95771)" y="549.71765" x="456.47723" font-family="Arial" fill="#000000">5</text>
  <path id="path3276" stroke-linejoin="round" d="m583 476.05-12.904-0.21763-0.0311 1.5082 12.954 0.21985-0.0186-1.5104zm-11.207-3.9832-10.011 4.3961 9.8684 4.7461 0.14231-9.142z" stroke="#000" stroke-width=".047704px"/>
  <path id="path3278" stroke-linejoin="round" d="m580.47 535.9v-150.41h-1.2279v150.41z" stroke="#000" stroke-width=".064972px"/>
  <path id="path3280" stroke-linejoin="round" d="m549.64 387.92-0.29489-20.976 1.2654-0.008 0.29488 20.976z" stroke="#000" stroke-width=".04316px"/>
  <path id="path3282" stroke-linejoin="round" d="m580.86 513.09v21.702h-1.6437v-21.702h1.6437zm4.1838 20.194-4.981 9.1374-4.981-9.1374h9.962z" stroke="#000" stroke-width=".047704px"/>
  <path id="path3284" stroke-linejoin="round" d="m586.93 521.71-13.4 9.0918 0.74717 0.91372 13.4-9.0918z" stroke="#000" stroke-width=".047704px"/>
  <text id="text3286" font-size="12.786px" xml:space="preserve" transform="scale(1.0442 .95771)" y="548.46844" x="542.63593" font-family="Arial" fill="#000000">5</text>
  <path id="path3290" stroke-linejoin="round" d="m672.73 478.76-12.735 0.16122 0.004-1.5139 12.73-0.20673 0.00027 1.5594zm-10.973 3.9171-10.076-4.4116 9.8977-4.7011 0.17824 9.1127z" stroke="#000" stroke-width=".047704px"/>
  <path id="path3292" stroke-linejoin="round" d="m670.76 523.68v-111.25h-1.2349v111.25z" stroke="#000" stroke-width=".057467px"/>
  <path id="path3296" stroke-linejoin="round" d="m677.04 518.55-13.4 9.0918 0.74714 0.91373 13.4-9.0461z" stroke="#000" stroke-width=".047704px"/>
  <text id="text3298" font-size="12.786px" xml:space="preserve" transform="scale(1.0442 .95771)" y="546.68384" x="629.16925" font-family="Arial" fill="#000000">5</text>
  <path id="path3300" stroke-linejoin="round" d="m670.98 511.36v21.749h-1.6437v-21.749h1.6437zm4.1342 20.194-4.981 9.1374-4.981-9.1374h9.9619z" stroke="#000" stroke-width=".047704px"/>
  <path id="path3302" stroke-linejoin="round" d="m756.55 537.25c0-0.47697 0.28122-0.90088 0.59757-0.90088h50.899c0.35153 0 0.59755 0.42391 0.59755 0.90088v35.083c0 0.47696-0.24602 0.84791-0.59755 0.84791h-50.899c-0.31635 0-0.59757-0.37095-0.59757-0.84791zm1.1599 35.083-0.56245-0.90086h50.899l-0.56241 0.90086v-35.083l0.56241 0.90084h-50.899l0.56245-0.90084z" stroke="#000" stroke-width=".043161px"/>
  <text id="text3304" font-size="15.863px" xml:space="preserve" transform="scale(1.0442 .95771)" line-height="125%" y="590.59009" x="731.09918" font-family="Arial" fill="#000000">MUX</text>
  <path id="path3306" stroke-linejoin="round" d="m808.59 556.51h15.043v1.1421h-15.043z" stroke="#000" stroke-width=".047704px"/>
  <path id="path3308" stroke-linejoin="round" d="m782.26 572.58v13.979h-1.6935v-13.979h1.6935zm4.1342 12.474-4.981 9.1374-4.981-9.1374h9.962z" stroke="#000" stroke-width=".047704px"/>
  <path id="path3310" stroke-linejoin="round" d="m757.15 335.33c0-0.41115 0.45228-0.77656 1.0338-0.77656h61.057c0.58154 0 1.0984 0.36541 1.0984 0.77656v31.838c0 0.4111-0.51687 0.77654-1.0984 0.77654h-61.057c-0.58152 0-1.0338-0.36544-1.0338-0.77654zm1.5665 31.893-0.53284-0.8305h61.057l-0.48479 1.0587 0.0916-32.214 0.39329 0.87061h-61.057l0.58425-0.66857z" stroke="#000" stroke-width=".054328px"/>
  <text id="text3312" font-size="15.59px" xml:space="preserve" transform="scale(1.0442 .95771)" line-height="125%" y="372.30072" x="729.60248" font-family="Arial" fill="#000000">SelCop</text>
  <path id="path3314" fill-rule="evenodd" d="m668.78 478.19c0-1.2792 1.046-2.33 2.391-2.33 1.2951 0 2.3411 1.0507 2.3411 2.33 0 1.2792-1.046 2.2845-2.3411 2.2845-1.3448 0-2.391-1.0051-2.391-2.2845"/>
  <path id="path3316" stroke-linejoin="round" d="m666.34 477.95v-0.27413l0.0501-0.50255c0-0.0913 0.0501-0.18278 0.0501-0.27414l0.1494-0.4112c0.0501-0.0913 0.0501-0.18273 0.0996-0.2741l0.24902-0.36551c0.05-0.0914 0.0996-0.18274 0.14941-0.27413l0.29887-0.31981c0.0502-0.0914 0.0993-0.13705 0.19926-0.22842l0.34867-0.27413c0.0997-0.0914 0.19924-0.13705 0.29885-0.18274l0.39846-0.22847c0.0999-0.0456 0.19926-0.0456 0.29887-0.0913l0.44829-0.13706c0.0999-0.0456 0.19922-0.0456 0.34869-0.0914l0.44827-0.0456h0.34865l0.4981 0.0456c0.0995 0.0456 0.1992 0.0456 0.34867 0.0914l0.44826 0.13706c0.0993 0.0456 0.19926 0.0456 0.29889 0.0913l0.39845 0.22847c0.0997 0.0456 0.19926 0.0914 0.24908 0.18274l0.34862 0.27413 0.19926 0.18273 0.29886 0.3655c0.0997 0.0914 0.14943 0.18276 0.19921 0.27413l0.19926 0.36551c0.0502 0.0914 0.0997 0.18276 0.0997 0.2741l0.1494 0.4112c0.0501 0.0914 0.0501 0.18273 0.0501 0.27414l0.0501 0.50255c0.0501 0.0914 0.0501 0.18273 0 0.27413l-0.0501 0.45686c0 0.13705 0 0.22844-0.0501 0.31983l-0.1494 0.41117c0 0.0914-0.05 0.18273-0.0997 0.22841l-0.19926 0.41119c-0.0501 0.0914-0.0993 0.18274-0.19921 0.27414l-0.29886 0.3198c-0.0501 0.0914-0.0999 0.13706-0.19926 0.18275l-0.34862 0.31982c-0.0502 0.0456-0.14945 0.13705-0.24908 0.18274l-0.39845 0.18276c-0.0994 0.0456-0.19924 0.0914-0.29889 0.13705l-0.44826 0.13707c-0.14947 0.0456-0.24903 0.0456-0.34867 0.0456l-0.4981 0.0456c-0.0998 0.0456-0.19925 0.0456-0.34865 0l-0.44827-0.0456c-0.14947 0-0.24906 0-0.34869-0.0456l-0.44829-0.13707c-0.0999-0.0456-0.19924-0.0914-0.29887-0.13705l-0.39846-0.18276c-0.0997-0.0456-0.19924-0.13707-0.29885-0.18274l-0.34867-0.31982c-0.0998-0.0456-0.14943-0.13704-0.19926-0.18275l-0.29887-0.36547c-0.0501-0.0456-0.0994-0.13707-0.14941-0.22847l-0.24902-0.41119c0-0.0456-0.0501-0.13704-0.0996-0.22841l-0.0998-0.41117c-0.0502-0.0914-0.0997-0.18278-0.0997-0.31983zm3.3871 0.18275-0.0996-0.27415 0.14945 0.41121-0.0998-0.22845 0.19921 0.3655-0.1494-0.22846 0.29885 0.31984-0.24906-0.18276 0.34867 0.27411-0.24906-0.18273 0.3985 0.18273-0.29886-0.0913 0.44828 0.13703-0.34867-0.0913 0.44827 0.0456h-0.34868l0.49812-0.0456-0.34868 0.0913 0.44831-0.13703-0.29886 0.0913 0.39846-0.18273-0.29885 0.18273 0.34866-0.27411-0.19924 0.18276 0.29886-0.36549-0.19923 0.27411 0.24903-0.3655-0.0998 0.22845 0.0998-0.41121-0.0501 0.27415 0.0501-0.45688v0.27413l-0.0501-0.45688 0.0501 0.27412-0.14942-0.45688 0.14942 0.27414-0.24903-0.36552 0.19923 0.27414-0.29886-0.36548 0.19924 0.18272-0.34866-0.27413 0.29885 0.18275-0.39846-0.18275 0.29886 0.0914-0.44831-0.13708 0.34868 0.0914-0.49812-0.0456h0.34868l-0.44827 0.0456 0.34867-0.0914-0.44828 0.13708 0.29886-0.0914-0.3985 0.18275 0.24906-0.18275-0.34867 0.27413 0.24906-0.22845-0.29885 0.36551 0.1494-0.22844-0.19921 0.36552 0.0998-0.27414-0.14945 0.45688 0.0996-0.27412-0.05 0.45688v-0.27413z" stroke="#000" stroke-width=".047704px"/>
  <path id="path3318" stroke-linejoin="round" d="m793.02 411.36 0.34419 118.77-1.6447-0.007-0.34419-118.77 1.6447 0.007zm4.4953 117.55-4.9673 7.0018-5.0016-6.9872 9.9689-0.0143z" stroke="#000" stroke-width=".041749px"/>
  <path id="path3320" stroke-linejoin="round" d="m770.68 408.39 0.49771 117.92h-1.6425l-0.54752-117.86 1.6922-0.0604zm4.6287 115.87-4.9274 12.032-5.0271-11.973 9.9544-0.0603z" stroke="#000" stroke-width=".054722px"/>
  <text id="text3322" font-size="14.93px" xml:space="preserve" transform="scale(1.0442 .95771)" line-height="125%" y="575.85217" x="779.38849" font-family="Arial" fill="#000000">MC</text>
  <path id="path3324" stroke-linejoin="round" d="m799.08 502.18-13.4 9.0918 0.74711 0.91373 13.4-9.0461z" stroke="#000" stroke-width=".047704px"/>
  <path id="path3326" stroke-linejoin="round" d="m765.4 479.58-10.197 6.0105 0.53067 0.63745 10.197-6.0408z" stroke="#000" stroke-width=".033922px"/>
  <text id="text3328" font-size="12.786px" xml:space="preserve" transform="matrix(-.012193 -1.0116 .98846 -.0074181 0 0)" y="766.9245" x="-510.72974" font-family="Arial" line-height="125%" fill="#000000"><tspan id="tspan4439" y="766.9245" x="-510.72974">IR3 -- IR0</tspan></text>
  <text id="text3330" font-size="12.786px" xml:space="preserve" transform="scale(1.0442 .95771)" y="529.53204" x="747.61127" font-family="Arial" fill="#000000">4</text>
  <text id="text3332" font-size="12.786px" xml:space="preserve" transform="scale(1.0442 .95771)" y="548.61145" x="427.13766" font-family="Arial" fill="#000000">5</text>
  <text id="text3334" font-size="12.786px" xml:space="preserve" transform="scale(1.0442 .95771)" y="547.98132" x="515.53107" font-family="Arial" fill="#000000">5</text>
  <text id="text3336" font-size="12.786px" xml:space="preserve" transform="scale(1.0442 .95771)" y="545.53296" x="599.92426" font-family="Arial" fill="#000000">5</text>
  <text id="text3338" font-size="11.802px" xml:space="preserve" transform="scale(1.0442 .95771)" line-height="125%" y="578.81177" x="434.85696" font-family="Arial" fill="#000000">0</text>
  <text id="text3340" font-size="11.802px" xml:space="preserve" transform="scale(1.0442 .95771)" line-height="125%" y="579.08282" x="462.68973" font-family="Arial" fill="#000000">1</text>
  <text id="text3342" font-size="15.837px" xml:space="preserve" transform="scale(1.0442 .95771)" y="639.91681" x="530.69263" font-family="Arial" fill="#000000">RB</text>
  <text id="text3344" font-size="15.837px" xml:space="preserve" transform="scale(1.0442 .95771)" y="638.77594" x="616.63086" font-family="Arial" fill="#000000">RC</text>
  <text id="text3346" font-size="15.837px" xml:space="preserve" transform="scale(1.0442 .95771)" y="639.36102" x="444.26028" font-family="Arial" fill="#000000">RA</text>
  <text id="text3348" font-size="15.837px" xml:space="preserve" transform="scale(1.0442 .95771)" y="637.02032" x="734.59467" font-family="Arial" fill="#000000">Cop</text>
  <text id="text3350" font-size="11.802px" xml:space="preserve" transform="scale(1.0442 .95771)" line-height="125%" y="578.81177" x="524.40686" font-family="Arial" fill="#000000">0</text>
  <text id="text3352" font-size="11.802px" xml:space="preserve" transform="scale(1.0442 .95771)" line-height="125%" y="579.0827" x="551.47327" font-family="Arial" fill="#000000">1</text>
  <text id="text3354" font-size="11.802px" xml:space="preserve" transform="scale(1.0442 .95771)" line-height="125%" y="573.61267" x="735.31152" font-family="Arial" fill="#000000">0</text>
  <text id="text3356" font-size="11.802px" xml:space="preserve" transform="scale(1.0442 .95771)" line-height="125%" y="572.96619" x="756.17456" font-family="Arial" fill="#000000">1</text>
  <text id="text3358" font-size="14.561px" xml:space="preserve" transform="scale(1.0442 .95771)" line-height="125%" y="187.03943" x="258.61319" font-family="Arial" fill="#000000">A1</text>
  <text id="text3362" font-size="19.082px" xml:space="preserve" transform="scale(1.0442 .95771)" y="306.96933" x="251.54953" font-family="Arial" fill="#000000">MUX B</text>
  <path id="path3364" stroke-linejoin="round" d="m254.26 318.01c0 0.43405 0.2574 0.77674 0.60677 0.77674h76.456c0.33095 0 0.60677-0.34269 0.60677-0.77674v-48.59c0-0.41122-0.27582-0.7539-0.60677-0.7539h-76.456c-0.34937 0-0.60677 0.34268-0.60677 0.7539zm1.2136-48.59-0.60677 0.7539h76.456l-0.60681-0.7539v48.59l0.60681-0.75389h-76.456l0.60677 0.75389z" stroke="#000" stroke-width=".020495px"/>
  <text id="text3366" font-size="13.237px" xml:space="preserve" transform="scale(1.0442 .95771)" line-height="125%" y="325.0495" x="263.79443" font-family="Arial" fill="#000000">0</text>
  <text id="text3368" font-size="13.237px" xml:space="preserve" transform="scale(1.0442 .95771)" line-height="125%" y="325.32028" x="291.48041" font-family="Arial" fill="#000000">1</text>
  <path id="path3372" stroke-linejoin="round" d="m309.5 340.06v-13.979h-1.6686v13.979h1.6686zm4.1342-12.45-4.981-9.1374-4.981 9.1374h9.9618z" stroke="#000" stroke-width=".023852px"/>
  <text id="text3374" font-size="14.561px" xml:space="preserve" transform="scale(1.0442 .95771)" line-height="125%" y="84.523232" x="216.07671" font-family="Arial" fill="#000000">00</text>
  <text id="text3376" font-size="14.561px" xml:space="preserve" transform="scale(1.0442 .95771)" line-height="125%" y="113.41145" x="216.07671" font-family="Arial" fill="#000000"><tspan id="tspan5996" y="113.41145" x="216.07671">01</tspan></text>
  <text id="text3378" font-size="14.561px" xml:space="preserve" transform="scale(1.0442 .95771)" line-height="125%" y="142.29964" x="215.22159" font-family="Arial" fill="#000000"><tspan id="tspan5998" y="142.29964" x="215.22159">10</tspan></text>
  <text id="text3380" font-size="14.561px" xml:space="preserve" transform="scale(1.0442 .95771)" line-height="125%" y="171.18787" x="215.22159" font-family="Arial" fill="#000000">11</text>
  <path id="path3382" fill-rule="evenodd" fill="#fff" d="m299.36 365.88 9.4139-17.27 9.4141 17.27z"/>
  <path id="path3384" stroke-linejoin="round" d="m299.36 361.94c-0.22419 0-0.42343-0.0865-0.548-0.20698-0.0994-0.13794-0.12451-0.29315-0.0246-0.41385l9.4155-13.037c0.0996-0.15519 0.32382-0.24143 0.57291-0.24143 0.22416 0 0.44834 0.0864 0.54798 0.24143l9.4155 13.037c0.0998 0.1207 0.0744 0.27591-0.0246 0.41385-0.12454 0.12072-0.32381 0.20698-0.52308 0.20698zm18.832-0.86223-0.57289 0.62081-9.4155-13.037h1.1208l-9.4155 13.037-0.54798-0.62081z" stroke="#000" stroke-width=".020726px"/>
  <path id="path3386" fill-rule="evenodd" fill="#fff" d="m303.92 344.88c0-2.3757 2.1168-4.3173 4.7068-4.3173 2.615 0 4.7069 1.9416 4.7069 4.3173s-2.092 4.3173-4.7069 4.3173c-2.5902 0-4.7068-1.9416-4.7068-4.3173"/>
  <path id="path3388" stroke-linejoin="round" d="m303.33 344.96c-0.0246-0.0456-0.0246-0.0914 0-0.13709l0.0997-0.86803c0-0.0228 0-0.0685 0.0246-0.0914l0.27393-0.82237c0-0.0228 0.0246-0.0684 0.0246-0.0914l0.42338-0.73101c0.0246-0.0456 0.05-0.0682 0.0743-0.11426l0.59771-0.63962 0.0745-0.0684 0.69736-0.5254c0.0246-0.0228 0.0746-0.0456 0.0996-0.0456l0.79692-0.41119c0.0245-0.0228 0.0745-0.0228 0.12455-0.0456l0.87167-0.2513c0.0501 0 0.0745-0.0228 0.12455-0.0228l0.94634-0.0914h0.12454l0.94635 0.0914c0.0501 0 0.0746 0.0228 0.12454 0.0228l0.87167 0.2513c0.0501 0.0228 0.0746 0.0228 0.12456 0.0456l0.79693 0.41119c0.0246 0 0.0745 0.0228 0.0993 0.0456l0.69737 0.5254 0.0745 0.0684 0.59774 0.63962c0.0246 0.0456 0.0501 0.0685 0.0746 0.11426l0.42338 0.73101c0 0.0228 0.0246 0.0686 0.0246 0.0914l0.27395 0.82237c0.0245 0.0228 0.0245 0.0686 0.0245 0.0914l0.0999 0.86803c0.0246 0.0456 0.0246 0.0914 0 0.13709l-0.0999 0.86804c0 0.0228 0 0.0684-0.0245 0.0914l-0.27395 0.82236c0 0.0228-0.0246 0.0684-0.0246 0.0914l-0.42338 0.73101c-0.0246 0.0456-0.0501 0.0687-0.0746 0.11426l-0.59774 0.63962-0.0745 0.0684-0.69737 0.52541c-0.0246 0.0228-0.0746 0.0456-0.0993 0.0685l-0.79693 0.38835c-0.0501 0.0228-0.0744 0.0228-0.12456 0.0456l-0.87167 0.25127c-0.0501 0-0.0746 0.0227-0.12454 0.0227l-0.94635 0.0914h-0.12454l-0.94634-0.0914c-0.0501 0-0.0746-0.0227-0.12455-0.0227l-0.87167-0.25127c-0.0501-0.0228-0.0746-0.0228-0.12455-0.0456l-0.79692-0.38835c-0.0246-0.0228-0.0746-0.0456-0.0996-0.0685l-0.69736-0.52541-0.0745-0.0684-0.59771-0.63962c-0.0247-0.0456-0.0502-0.0684-0.0743-0.11426l-0.42338-0.73101c0-0.0229-0.0246-0.0685-0.0246-0.0914l-0.27393-0.82236c-0.0246-0.0227-0.0246-0.0683-0.0246-0.0914zm1.32 0.73097-0.0246-0.0913 0.27394 0.79953-0.0245-0.0914 0.42337 0.73102-0.0745-0.11426 0.57283 0.63963-0.0746-0.0684 0.69732 0.54826-0.0993-0.0684 0.797 0.38834-0.12458-0.0456 0.8966 0.25129-0.12453-0.0228 0.94635 0.0914h-0.12454l0.94642-0.0914-0.12454 0.0228 0.89657-0.25129-0.12455 0.0456 0.79696-0.38834-0.0995 0.0684 0.69732-0.54826-0.0745 0.0684 0.5728-0.63963-0.0743 0.11426 0.42335-0.73102-0.0246 0.0914 0.27396-0.79953-0.0246 0.0913 0.0996-0.86806v0.13709l-0.0996-0.86803 0.0246 0.0913-0.27396-0.7995 0.0246 0.0914-0.42335-0.73101 0.0743 0.11425-0.5728-0.63959 0.0745 0.0683-0.69732-0.52538 0.0995 0.0456-0.79696-0.38835 0.12455 0.0456-0.89657-0.25126 0.12454 0.0228-0.94642-0.0914h0.12454l-0.94635 0.0914 0.12453-0.0228-0.8966 0.25126 0.12458-0.0456-0.797 0.38835 0.0993-0.0456-0.69732 0.52538 0.0746-0.0683-0.57283 0.63959 0.0745-0.11425-0.42337 0.73101 0.0245-0.0914-0.27394 0.7995 0.0246-0.0913-0.0997 0.86803v-0.13709z" stroke="#000" stroke-width=".023852px"/>
  <path id="path3390" stroke-linejoin="round" d="m309.78 378.42v-17.27h-1.2452v17.27z" stroke="#000" stroke-width=".023852px"/>
  <path id="path3392" stroke-linejoin="round" d="m280.07 377.57h28.868v1.1453h-28.868z" stroke="#000" stroke-width=".020701px"/>
  <path id="path3394" fill-rule="evenodd" fill="#d9d9d9" d="m432.43 334.82v33.512h23.668v-33.512h-23.668z"/>
  <path id="path3398" fill-rule="evenodd" fill="#d9d9d9" d="m454.02 334.82v33.512h32.95v-33.512h-32.95z"/>
  <path id="path3400" stroke-linejoin="round" d="m457.39 335.03c0-0.39812 0.30642-0.72991 0.72225-0.72991h28.955c0.39394 0 0.72227 0.33179 0.72227 0.72991v32.448c0 0.39812-0.32833 0.72988-0.72227 0.72988h-28.955c-0.41583 0-0.72225-0.33176-0.72225-0.72988zm1.4445 32.448-0.72221-0.7299h28.955l-0.74411 0.7299v-32.448l0.74411 0.72992h-28.955l0.72221-0.72992z" stroke="#000" stroke-width=".022002px"/>
  <path id="path3402" fill-rule="evenodd" fill="#d9d9d9" d="m408.3 334.82v33.512h23.495v-33.512h-23.495z"/>
  <path id="path3404" stroke-linejoin="round" d="m406.86 335.03c0-0.39806 0.45082-0.72978 1.0626-0.72978h23.927c0.5796 0 1.0626 0.33172 1.0626 0.72978v32.444c0 0.39808-0.48304 0.72978-1.0626 0.72978h-23.927c-0.61182 0-1.0626-0.3317-1.0626-0.72978zm2.1253 32.444-1.0627-0.72981h23.927l-1.0949 0.72981v-32.444l1.0949 0.72979h-23.927l1.0627-0.72979z" stroke="#000" stroke-width=".026687px"/>
  <text id="text3406" font-size="15.37px" xml:space="preserve" transform="scale(1.0442 .95771)" line-height="125%" y="373.72607" x="443.32898" font-family="Arial" fill="#000000">A0</text>
  <text id="text3408" font-size="16.65px" xml:space="preserve" transform="scale(1.0442 .95771)" line-height="125%" y="373.92798" x="420.09134" font-family="Arial" fill="#000000">B</text>
  <text id="text3410" font-size="16.65px" xml:space="preserve" transform="scale(1.0442 .95771)" line-height="125%" y="374.42795" x="396.21967" font-family="Arial" fill="#000000">C</text>
  <text id="text3412" font-size="15.837px" xml:space="preserve" transform="scale(1.0442 .95771)" y="216.41743" x="469.32825" font-family="Arial" fill="#000000">µAddress</text>
  <path id="path3414" stroke-linejoin="round" d="m421.94 367.98v99.832h-1.2028v-99.832z" stroke="#000" stroke-width=".038681px"/>
  <path id="path3416" stroke-linejoin="round" d="m587.58 216.54v59.001h-1.2303v-59.001z" stroke="#000" stroke-width=".038888px"/>
  <path id="path3418" stroke-linejoin="round" d="m528.2 328.41 0.039-2.6504 0.1167-2.5133 0.0781-1.188 0.1167-1.0968 0.1167-1.051 0.11672-0.91391 0.11672-0.91393 0.15557-0.77684 0.15563-0.68545 0.19449-0.59404 0.15561-0.457c0.0391-0.0456 0.0391-0.0914 0.0391-0.0914l0.19452-0.31988c0.039-0.0456 0.039-0.0914 0.0778-0.0914l0.1945-0.22849c0.0391-0.0456 0.11671-0.0914 0.19451-0.13711l0.19452-0.0456c0.039-0.0456 0.0779-0.0456 0.1167-0.0456h56.484l-0.15557 0.0456 0.19448-0.0914-0.19448 0.13706 0.19448-0.18276-0.0777 0.0914 0.19448-0.31985-0.0391 0.0914 0.15561-0.45699 0.1556-0.50267 0.1556-0.63975 0.1167-0.73114 0.15561-0.82254 0.1167-0.91394 0.078-1.0053 0.11672-1.0968 0.078-1.1423 0.0778-2.4676 0.0392-2.6503c0.039-0.31987 0.23339-0.54836 0.5057-0.54836 0.27233 0 0.4668 0.22849 0.4668 0.54836l0.039 2.696 0.11673 2.422 0.0779 1.1423 0.11672 1.0968 0.078 1.0053 0.11669 0.91394 0.15561 0.82254 0.11669 0.73114 0.15561 0.63975 0.15563 0.54837 0.15559 0.41128-0.039-0.0914 0.19453 0.31985-0.0779-0.0914 0.19451 0.18276-0.19451-0.13705 0.19451 0.0914-0.15559-0.0456h56.484c0.0388 0 0.0775 0 0.11663 0.0456l0.19461 0.0456c0.0776 0.0456 0.15562 0.0914 0.19439 0.13712l0.19461 0.22848c0.0388 0 0.0388 0.0456 0.0775 0.0914l0.19439 0.31988s0 0.0456 0.0388 0.0914l0.15562 0.41128 0.1946 0.63976 0.15552 0.68545 0.15562 0.77681 0.11674 0.86825 0.11674 0.95962 0.11664 1.051 0.11674 1.0968 0.0775 1.1423 0.0776 2.5133 0.0388 2.6961h-0.9726l-0.0388-2.6504-0.0775-2.4676-0.0775-1.0967-0.11675-1.0967-0.0775-1.0053-0.11675-0.91393-0.15551-0.86823-0.11674-0.68545-0.15562-0.63975-0.15563-0.54835-0.15562-0.41125 0.0388 0.0914-0.1945-0.31988 0.0775 0.0914-0.1945-0.22846 0.1945 0.13707-0.1945-0.0456h0.15562-56.484-0.1167l-0.19451-0.0914c-0.0778 0-0.1556-0.0456-0.1945-0.13712l-0.19449-0.1828c-0.039-0.0456-0.039-0.0914-0.078-0.0914l-0.19449-0.3199c0-0.0456 0-0.0914-0.039-0.0914l-0.15562-0.50266-0.19449-0.59407-0.15562-0.68542-0.1556-0.77685-0.1167-0.86824-0.11671-0.95966-0.11669-1.0053-0.11672-1.1423-0.0779-1.1423-0.11673-2.5134-0.0391-2.6503h0.97248l-0.0391 2.6503-0.0778 2.5134-0.0779 1.188-0.11672 1.0968-0.11669 1.0053-0.1167 0.95966-0.11672 0.86824-0.15558 0.82254-0.15564 0.68545-0.19452 0.59406-0.15561 0.45696c-0.0391 0-0.0391 0.0456-0.0391 0.0914l-0.19451 0.31991c-0.0391 0-0.0391 0.0456-0.0777 0.0913l-0.19452 0.18282c-0.039 0.0914-0.1167 0.13709-0.19448 0.13709l-0.19453 0.0914h-0.1167-56.484 0.15559l-0.1945 0.0456 0.1945-0.13707-0.1945 0.22847 0.0777-0.0914-0.1945 0.31988 0.0391-0.0913-0.15564 0.41125-0.15559 0.50266-0.1556 0.63976-0.11671 0.73112-0.1556 0.82256-0.11669 0.91392-0.0778 1.051-0.11671 1.051-0.0779 1.1423-0.11667 2.4676-0.039 2.6504z" stroke="#000" stroke-width=".042163px"/>
  <path id="path3422" stroke-linejoin="round" d="m106.69 566.6c0-0.37519 0.3463-0.65166 0.76186-0.65166h25.118c0.43863 0 0.78494 0.27647 0.78494 0.65166v27.389c0 0.35544-0.34631 0.65163-0.78494 0.65163h-25.118c-0.41556 0-0.76186-0.29619-0.76186-0.65163zm1.5468 27.389-0.78496-0.65167h25.118l-0.76185 0.65167v-27.389l0.76185 0.65169h-25.118l0.78496-0.65169z" stroke="#000" stroke-width=".021351px"/>
  <text id="text3424" font-size="28.622px" xml:space="preserve" transform="scale(1.0442 .95771)" y="616.56683" x="108.75879" font-family="Arial" fill="#ffffff">º</text>
  <path id="path3426" stroke-linejoin="round" d="m131.96 566.6c0-0.3752 0.32809-0.65167 0.72181-0.65167h23.798c0.39368 0 0.72177 0.27647 0.72177 0.65167v27.39c0 0.35546-0.32809 0.65165-0.72177 0.65165h-23.798c-0.39372 0-0.72181-0.29619-0.72181-0.65165zm1.4654 27.39-0.74363-0.65168h23.798l-0.7218 0.65168v-27.39l0.7218 0.6517h-23.798l0.74363-0.6517z" stroke="#000" stroke-width=".020782px"/>
  <path id="path3428" stroke-linejoin="round" d="m155.85 566.6c0-0.37519 0.35936-0.65163 0.79059-0.65163h26.066c0.43124 0 0.79062 0.27644 0.79062 0.65163v27.389c0 0.35543-0.35938 0.6516-0.79062 0.6516h-26.066c-0.43123 0-0.79059-0.29617-0.79059-0.6516zm1.5811 27.389-0.79059-0.65167h26.066l-0.79059 0.65167v-27.389l0.79059 0.65169h-26.066l0.79059-0.65169z" stroke="#000" stroke-width=".021750px"/>
  <path id="path3430" stroke-linejoin="round" d="m234.77 566.6c0-0.3752 0.33575-0.65168 0.73867-0.65168h24.354c0.4029 0 0.73863 0.27648 0.73863 0.65168v27.39c0 0.35547-0.33573 0.65166-0.73863 0.65166h-24.354c-0.40292 0-0.73867-0.29619-0.73867-0.65166zm1.4996 27.39-0.76107-0.65167h24.353l-0.73864 0.65167v-27.39l0.73864 0.65169h-24.353l0.76107-0.65169z" stroke="#000" stroke-width=".021024px"/>
  <path id="path3432" stroke-linejoin="round" d="m259.42 566.6c0-0.37518 0.34883-0.65164 0.76746-0.65164h25.302c0.4186 0 0.76742 0.27646 0.76742 0.65164v27.389c0 0.35543-0.34882 0.65162-0.76742 0.65162h-25.302c-0.41863 0-0.76746-0.29619-0.76746-0.65162zm1.5348 27.389-0.76744-0.65167h25.302l-0.79068 0.65167v-27.389l0.79068 0.65169h-25.302l0.76744-0.65169z" stroke="#000" stroke-width=".021429px"/>
  <text id="text3434" font-size="15.837px" xml:space="preserve" transform="scale(1.0442 .95771)" line-height="125%" y="611.50867" x="109.22317" font-family="Arial" fill="#000000"><tspan id="tspan3657" y="611.50867" x="109.22317">C</tspan></text>
  <text id="text3436" font-size="15.837px" xml:space="preserve" transform="scale(1.0442 .95771)" line-height="125%" y="611.50867" x="133.12332" font-family="Arial" fill="#000000"><tspan id="tspan3655" y="611.50867" x="133.12332">V</tspan></text>
  <text id="text3438" font-size="15.837px" xml:space="preserve" transform="scale(1.0442 .95771)" line-height="125%" y="611.50867" x="156.96597" font-family="Arial" fill="#000000"><tspan id="tspan3653" y="611.50867" x="156.96597">N</tspan></text>
  <text id="text3440" font-size="15.837px" xml:space="preserve" transform="scale(1.0442 .95771)" y="611.50867" x="235.5948" font-family="Arial" fill="#000000">I</text>
  <text id="text3442" font-size="15.837px" xml:space="preserve" transform="scale(1.0442 .95771)" y="611.50867" x="255.68669" font-family="Arial" fill="#000000">U</text>
  <path id="path3444" stroke-linejoin="round" d="m209 566.6c0-0.37527 0.15963-0.65179 0.37631-0.65179h26.683c0.21664 0 0.38773 0.27652 0.38773 0.65179v27.395c0 0.35552-0.17109 0.65177-0.38773 0.65177h-26.683c-0.21668 0-0.37631-0.29625-0.37631-0.65177zm0.75259 27.395-0.37631-0.65181h26.683l-0.37632 0.65181v-27.395l0.37632 0.65184h-26.683l0.37631-0.65184z" stroke="#000" stroke-width=".015007px"/>
  <text id="text3446" font-size="13.114px" xml:space="preserve" transform="scale(1.0442 .95771)" line-height="125%" y="634.56537" x="107.69598" font-family="Arial" fill="#000000">31</text>
  <text id="text3448" font-size="13.114px" xml:space="preserve" transform="scale(1.0442 .95771)" line-height="125%" y="634.56537" x="130.43536" font-family="Arial" fill="#000000">30</text>
  <text id="text3450" font-size="13.114px" xml:space="preserve" transform="scale(1.0442 .95771)" line-height="125%" y="634.56537" x="155.52777" font-family="Arial" fill="#000000">29</text>
  <text id="text3452" font-size="13.114px" xml:space="preserve" transform="scale(1.0442 .95771)" line-height="125%" y="634.56537" x="234.70016" font-family="Arial" fill="#000000">1</text>
  <text id="text3454" font-size="14.425px" xml:space="preserve" transform="scale(1.0442 .95771)" line-height="125%" y="552.61157" x="269.06189" font-family="Arial" fill="#000000"><tspan id="tspan14887" y="552.61157" x="269.06189">MRdy</tspan></text>
  <text id="text3456" font-size="14.425px" xml:space="preserve" transform="scale(1.0442 .95771)" line-height="125%" y="577.33771" x="295.40863" font-family="Arial" fill="#000000"><tspan id="tspan14885" y="577.33771" x="295.40863">IORdy</tspan></text>
  <text id="text3458" font-size="14.425px" xml:space="preserve" transform="scale(1.0442 .95771)" line-height="125%" y="553.16724" x="328.60443" font-family="Arial" fill="#000000"><tspan id="tspan14889" y="553.16724" x="328.60443">INT</tspan></text>
  <text id="text3460" font-size="12.69px" xml:space="preserve" transform="scale(1.0442 .95771)" line-height="125%" y="504.68802" x="159.59865" font-family="Arial" fill="#000000">7</text>
  <text id="text3462" font-size="12.69px" xml:space="preserve" transform="scale(1.0442 .95771)" line-height="125%" y="504.68799" x="183.77385" font-family="Arial" fill="#000000">6</text>
  <text id="text3464" font-size="12.69px" xml:space="preserve" transform="scale(1.0442 .95771)" line-height="125%" y="504.94073" x="233.77509" font-family="Arial" fill="#000000">5</text>
  <text id="text3466" font-size="12.69px" xml:space="preserve" transform="scale(1.0442 .95771)" line-height="125%" y="504.68799" x="257.81198" font-family="Arial" fill="#000000">4</text>
  <text id="text3468" font-size="12.69px" xml:space="preserve" transform="scale(1.0442 .95771)" line-height="125%" y="504.68802" x="284.07715" font-family="Arial" fill="#000000">3</text>
  <text id="text3470" font-size="12.69px" xml:space="preserve" transform="scale(1.0442 .95771)" line-height="125%" y="504.68802" x="311.75394" font-family="Arial" fill="#000000">2</text>
  <text id="text3472" font-size="12.69px" xml:space="preserve" transform="scale(1.0442 .95771)" line-height="125%" y="504.68802" x="335.72644" font-family="Arial" fill="#000000">1</text>
  <text id="text3474" font-size="12.69px" xml:space="preserve" transform="scale(1.0442 .95771)" line-height="125%" y="504.68802" x="359.92392" font-family="Arial" fill="#000000">0</text>
  <text id="text3476" font-size="12.69px" xml:space="preserve" transform="scale(1.0442 .95771)" line-height="125%" y="504.68802" x="135.34122" font-family="Arial" fill="#000000">8</text>
  <path id="path3480" stroke-linejoin="round" d="m248.93 566.17v-70.473h-1.6436v70.473h1.6436zm4.1592-69.066-4.9809-8.3945-4.981 8.3945h9.9618z" stroke="#000" stroke-width=".022862px"/>
  <path id="path3482" stroke-linejoin="round" d="m273.9 566.17v-70.473h-1.6686v70.473h1.6686zm4.1344-69.066-4.981-8.3945-4.9809 8.3945h9.9619z" stroke="#000" stroke-width=".022862px"/>
  <path id="path3484" stroke-linejoin="round" d="m146.04 566.44v-70.446h-1.6686v70.446h1.6686zm4.1344-69.062-4.9809-8.394-4.9809 8.394h9.962z" stroke="#000" stroke-width=".022862px"/>
  <path id="path3486" stroke-linejoin="round" d="m170.66 566.44v-70.446h-1.6686v70.446h1.6686zm4.1344-69.062-4.981-8.394-4.9809 8.394h9.962z" stroke="#000" stroke-width=".022862px"/>
  <path id="path3488" stroke-linejoin="round" d="m196.75 566.53v-70.473h-1.6436v70.473h1.6436zm4.1592-69.066-4.9809-8.3945-4.981 8.3945h9.9618z" stroke="#000" stroke-width=".022862px"/>
  <path id="path3490" stroke-linejoin="round" d="m640.53 503.69v30.673h-1.6436v-30.673h1.6436zm4.1836 29.2-4.9807 8.9161-4.9807-8.9161h9.9614z" stroke="#000" stroke-width=".047121px"/>
  <path id="path3492" stroke-linejoin="round" d="m551.82 506.68v29.195h-1.6686v-29.195h1.6686zm4.1341 27.796-4.9809 8.4872-4.9809-8.4872h9.9616z" stroke="#000" stroke-width=".022988px"/>
  <path id="path3494" stroke-linejoin="round" d="m458.88 506.85v29.709h-1.6686v-29.709h1.6686zm4.1592 28.285-4.981 8.6359-4.981-8.6359h9.962z" stroke="#000" stroke-width=".023189px"/>
  <path id="path3500" stroke-linejoin="round" d="m136.2 216.55h451.29v1.3848h-451.29z" stroke="#000" stroke-width=".024482px"/>
  <path id="path3502" stroke-linejoin="round" d="m850.1 516.76-0.11462-18.883 1.2825-0.007 0.11464 18.883z" stroke="#000" stroke-width=".029729px"/>
  <path id="path3504" stroke-linejoin="round" d="m105.45 103.27h104.51v1.5195h-104.51v-1.5195zm103.48-3.8045 6.1323 4.57-6.1323 4.57v-9.14z" stroke="#000" stroke-width=".0093584px"/>
  <path id="path3118-3" stroke-linejoin="round" d="m400.47 172.99v-15.921h-1.6686v15.921h1.6686zm4.1342-14.39-4.981-9.1374-4.981 9.1374h9.962z" stroke="#000" stroke-width=".023852px"/>
  <g id="g4875" stroke-linejoin="round" transform="matrix(.77584 0 0 1.1141 96.818 -4.4946)" stroke="#000" stroke-width=".043902px">
   <path id="path3042-5" d="m358.27 176.57h12.482v1.0923h-12.482z"/>
   <path id="path3044-3" d="m384.56 176.57h12.483v1.0923h-12.483z"/>
   <path id="path3046-8" d="m409.52 176.57h12.483v1.0923h-12.483z"/>
   <path id="path3048-7" d="m371.07 163.72h13.454v1.0923h-13.454z"/>
   <path id="path3050-6" d="m371.62 177.48v-13.588h-1.1028v13.588z"/>
   <path id="path3052-7" d="m384.73 177.48v-13.938h-1.1028v13.938z"/>
   <path id="path3054-4" d="m397.2 177.48v-13.938h-1.1028v13.938z"/>
   <path id="path3056-8" d="m410.66 177.14v-13.588h-1.1027v13.588z"/>
   <path id="path3058-1" d="m396.38 163.72h13.763v1.0923h-13.763z"/>
  </g>
  <path id="path3100-8" stroke-linejoin="round" d="m105.91 103.4-0.15554 143.28h1.3004l0.15554-143.28z" stroke="#000" stroke-width=".015704px"/>
  <path id="path3100-9" stroke-linejoin="round" d="m440.86 29.13-0.14947 71.082h1.2453l0.14945-71.082z" stroke="#000" stroke-width=".010826px"/>
  <text id="text3172-1" font-size="17.449px" xml:space="preserve" transform="scale(1.0442 .95771)" line-height="125%" y="373.92798" x="472.54575" font-family="Arial" fill="#000000"><tspan id="tspan4412" y="373.92798" x="472.54575">MR</tspan></text>
  <path id="path3180-5" stroke-linejoin="round" d="m487.36 335.32c0-0.41131 0.20796-0.77692 0.505-0.77692h40.458c0.26733 0 0.47526 0.36561 0.47526 0.77692v31.853c0 0.4113-0.20793 0.77691-0.47526 0.77691h-40.458c-0.29704 0-0.505-0.36561-0.505-0.77691zm0.98028 31.853-0.47528-0.77696h40.458l-0.50498 0.77696v-31.853l0.50498 0.77692h-40.458l0.47528-0.77692z" stroke="#000" stroke-width=".036844px"/>
  <text id="text3172-1-5" font-size="17.449px" xml:space="preserve" transform="scale(1.0442 .95771)" line-height="125%" y="373.92798" x="693.78436" font-family="Arial" fill="#000000"><tspan id="tspan4435" y="373.92798" x="693.78436">MC</tspan></text>
  <path id="path3180-5-7" stroke-linejoin="round" d="m718.38 335.24c0-0.41134 0.20093-0.77694 0.48793-0.77694h39.09c0.25834 0 0.45921 0.3656 0.45921 0.77694v31.854c0 0.41134-0.20087 0.77693-0.45921 0.77693h-39.09c-0.287 0-0.48793-0.36559-0.48793-0.77693zm0.9471 31.854-0.45917-0.77695h39.09l-0.48788 0.77695v-31.854l0.48788 0.77692h-39.09l0.45917-0.77692z" stroke="#000" stroke-width=".036217px"/>
  <text id="text4138" font-size="15.395px" xml:space="preserve" transform="scale(1.111 .90013)" line-height="125%" y="189.47194" x="368.49762" font-family="Arial" fill="#000000"><tspan id="tspan4140" y="189.47194" x="368.49762">CLK</tspan></text>
  <path id="path3310-3" stroke-linejoin="round" d="m818.04 335.18c0-0.4111 0.48429-0.7765 1.107-0.7765h65.38c0.6227 0 1.1762 0.3654 1.1762 0.7765v31.837c0 0.41107-0.55346 0.77647-1.1762 0.77647h-65.38c-0.62269 0-1.107-0.3654-1.107-0.77647zm1.6775 31.89-0.57058-0.83043h65.38l0.0352 0.51035-0.25384-31.304 0.21857 0.51035h-65.38l0.62563-0.66854z" stroke="#000" stroke-width=".056217px"/>
  <text id="text3312-6" font-size="15.59px" xml:space="preserve" transform="scale(1.0442 .95771)" line-height="125%" y="372.51196" x="788.4834" font-family="Arial" fill="#000000"><tspan id="tspan3945" font-size="15.59px" line-height="125%" y="372.51196" x="788.4834" font-family="Arial">ExCode</tspan></text>
  <path id="path3324-5" stroke-linejoin="round" d="m855.9 436.04-13.4 9.0918 0.74724 0.91376 13.4-9.0461z" stroke="#000" stroke-width=".047704px"/>
  <text id="text3330-3" font-size="12.786px" xml:space="preserve" transform="scale(1.0442 .95771)" y="460.47192" x="800.76929" font-family="Arial" fill="#000000">4</text>
  <path id="path3131-3" stroke-linejoin="round" d="m859.95 485.81c0.28026 0 0.51739 0.14398 0.64673 0.37028 0.10785 0.22624 0.0862 0.49361-0.0646 0.69931l-9.5278 12.691c-0.12936 0.18512-0.36646 0.28794-0.58201 0.28794-0.23709 0-0.4527-0.10294-0.58203-0.28794l-9.5493-12.691c-0.15091-0.2057-0.17247-0.47307-0.0433-0.69931 0.10786-0.2263 0.36646-0.37028 0.62514-0.37028zm-19.077 1.3575 0.58201-1.0901 9.5494 12.691h-1.1641l9.5278-12.691 0.58198 1.0901z" stroke="#000" stroke-width=".021058px"/>
  <path id="path3133-6" stroke-linejoin="round" d="m868.92 493.34h-13.816v-1.0285h13.816z" stroke="#000" stroke-width="1.1414px"/>
  <path id="path3139-7" stroke-linejoin="round" d="m849.32 464.69v15.783h1.4445v-15.783h-1.4445zm-3.5792 14.618 4.3121 6.9448 4.3122-6.9448h-8.6242z" stroke="#000" stroke-width=".019348px"/>
  <text id="text3147-5" font-size="14.004px" xml:space="preserve" transform="scale(1.0237 .97684)" y="494.52728" x="841.3938" font-family="Arial" line-height="125%" fill="#000000"><tspan id="tspan4426" y="494.52728" x="841.3938">T11</tspan></text>
  <path id="path3081-3" stroke-linejoin="round" d="m850.74 481.09v-113.36h-1.2937v113.36z" stroke="#000" stroke-width=".034198px"/>
  <path id="path3428-3" stroke-linejoin="round" d="m181.98 566.68c0-0.37521 0.36049-0.65166 0.79308-0.65166h26.148c0.43262 0 0.79308 0.27645 0.79308 0.65166v27.389c0 0.35545-0.36046 0.65164-0.79308 0.65164h-26.148c-0.43259 0-0.79308-0.29619-0.79308-0.65164zm1.5861 27.389-0.79309-0.65164h26.148l-0.79309 0.65164v-27.389l0.79309 0.65163h-26.148l0.79309-0.65163z" stroke="#000" stroke-width=".021785px"/>
  <text id="text3438-6" font-size="15.837px" xml:space="preserve" transform="scale(1.0442 .95771)" y="611.6145" x="182.72549" font-family="Arial" fill="#000000">Z</text>
  <text id="text3450-7" font-size="13.114px" xml:space="preserve" transform="scale(1.0442 .95771)" line-height="125%" y="634.67108" x="180.91946" font-family="Arial" fill="#000000"><tspan id="tspan3651" font-size="13.114px" line-height="125%" y="634.67108" x="180.91946" font-family="Arial">28</tspan></text>
  <text id="text3476-8" font-size="12.69px" xml:space="preserve" transform="scale(1.0442 .95771)" line-height="125%" y="504.39139" x="111.68034" font-family="Arial" fill="#000000"><tspan id="tspan3677" y="504.39139" x="111.68034">9</tspan></text>
  <path id="path3484-9" stroke-linejoin="round" d="m121.08 566.4v-70.446h-1.6686v70.446h1.6686zm4.1344-69.062-4.9809-8.394-4.981 8.394h9.962z" stroke="#000" stroke-width=".022862px"/>
  <text id="text3476-8-6" font-size="12.69px" xml:space="preserve" transform="scale(1.0442 .95771)" line-height="125%" y="504.64413" x="85.056923" font-family="Arial" fill="#000000"><tspan id="tspan3700" y="504.64413" x="85.056923">10</tspan></text>
  <path id="path3108-3" stroke-linejoin="round" d="m97.55 514.18v-18.618h-1.6687v18.618h1.6687zm4.1592-17.32-4.981-7.7495-4.981 7.7495h9.9621z" stroke="#000" stroke-width=".021964px"/>
  <path id="path3260-3" stroke-linejoin="round" d="m60.31 514.96 0.75128-242.01-0.9161-0.0413-0.75122 242.08z" stroke="#000" stroke-width=".27537px"/>
  <path id="path3020" stroke-linejoin="round" d="m80.444 347c0-0.33429 0.35895-0.61285 0.78971-0.61285h138.41c0.45473 0 0.81366 0.27856 0.81366 0.61285v25.761c0 0.35288-0.35893 0.61288-0.81366 0.61288h-138.41c-0.43076 0-0.78971-0.26-0.78971-0.61288zm1.6034 25.761-0.81364-0.61289h138.41l-0.78967 0.61289v-25.761l0.78967 0.61288h-138.41l0.81364-0.61288z" stroke="#000" stroke-width=".021082px"/>
  <text id="text3030" font-size="21.883px" xml:space="preserve" transform="scale(1.0235 .97703)" line-height="125%" y="290.57635" x="102.84141" font-family="Arial" fill="#000000"><tspan id="tspan4390" y="290.57635" x="102.84141">co2µaddr</tspan></text>
  <path id="path3032" stroke-linejoin="round" d="m80.527 347c0-0.33429 0.35896-0.61285 0.81365-0.61285h54.18c0.45472 0 0.78969 0.27856 0.78969 0.61285v25.761c0 0.35288-0.33497 0.61288-0.78969 0.61288h-54.18c-0.45468 0-0.81365-0.26-0.81365-0.61288zm1.6034 25.761-0.78972-0.61289h54.18l-0.78971 0.61289v-25.761l0.78971 0.61288h-54.18l0.78972-0.61288z" stroke="#000" stroke-width=".021082px"/>
  <text id="text3034" font-size="17.103px" xml:space="preserve" transform="scale(1.0235 .97703)" line-height="125%" y="375.08453" x="94.0914" font-family="Arial" fill="#000000">CO</text>
  <text id="text3036" font-size="18.705px" xml:space="preserve" transform="scale(1.0235 .97703)" y="432.98618" x="116.2937" font-family="Arial" fill="#000000">IR</text>
  <path id="path3478" stroke-linejoin="round" d="m82.686 375.41 0.04605 2.3804 0.13826 2.2147 0.0922 1.0349 0.09221 0.97281 0.13826 0.93148 0.13827 0.84863 0.16141 0.76583 0.16141 0.70376 0.18455 0.60025 0.20748 0.53817 0.23056 0.43466c0 0.0208 0.0229 0.0416 0.0229 0.0621l0.2075 0.28975c0.04605 0.0415 0.06931 0.0829 0.11535 0.10362l0.20753 0.18627c0.0693 0.0416 0.13826 0.0829 0.2075 0.10362l0.23055 0.0621c0.04605 0.0208 0.11534 0.0208 0.16141 0.0208h62.757l-0.18434-0.0208 0.23055 0.0621-0.20753-0.1035 0.20753 0.16559-0.092-0.10351 0.20749 0.28974 0.16141 0.3312 0.16141 0.43465 0.18437 0.57957 0.16136 0.64167 0.13827 0.74515 0.1383 0.80723 0.13824 0.89006 0.092 0.95213 0.0919 1.0142 0.13827 2.194 0.0229 2.3389c0.0227 0.28975 0.27666 0.51744 0.57637 0.51744 0.32278 0 0.5764-0.22769 0.5764-0.51744l0.0463-2.3595 0.13827-2.1734 0.092-1.0142 0.092-0.97285 0.13827-0.86935 0.13826-0.82792 0.16138-0.74513 0.13829-0.66237 0.18455-0.55887 0.18435-0.45537 0.18435-0.35188-0.0463 0.0621 0.20746-0.28977-0.0919 0.1035 0.20748-0.16561-0.20748 0.10351 0.20748-0.0621-0.16142 0.0206h62.757c0.0692 0 0.11527 0 0.16141-0.0206l0.23055-0.0621c0.0692-0.0207 0.13824-0.0621 0.20748-0.10351l0.23058-0.18624c0.0231-0.0208 0.0691-0.0621 0.092-0.10351l0.20751-0.28976c0.0227-0.0208 0.0227-0.0416 0.0463-0.0621l0.18453-0.39328 0.23055-0.53816 0.18435-0.62093 0.16144-0.70374 0.16138-0.78657 0.16142-0.82793 0.11531-0.93145 0.1153-0.97284 0.092-1.0349 0.11531-2.2148 0.0463-2.401h-1.1529l-0.0463 2.339-0.11531 2.194-0.0919 1.0142-0.092 0.95208-0.13823 0.89008-0.13826 0.82796-0.13828 0.72448-0.16141 0.66231-0.18437 0.53817-0.16139 0.45535-0.2075 0.39329 0.0463-0.0621-0.2075 0.28977 0.092-0.10339-0.2075 0.16559 0.2075-0.10362-0.23058 0.0621 0.18436-0.0208h-62.757c-0.0691 0-0.1153 0-0.18434 0.0208l-0.20748 0.0621c-0.0693 0.0208-0.16145 0.0621-0.20756 0.1035l-0.23054 0.18627c-0.0228 0.0208-0.0692 0.0621-0.0919 0.10362l-0.2075 0.2898c-0.0228 0.0208-0.0228 0.0416-0.0463 0.0621l-0.20751 0.4347-0.20751 0.53815-0.18433 0.62095-0.18434 0.68306-0.13826 0.76586-0.16142 0.84862-0.1153 0.93145-0.11529 0.97287-0.092 1.0349-0.13827 2.2354-0.0463 2.3595h1.1529l-0.0463-2.3804-0.11531-2.2354-0.092-1.0142-0.11529-0.99356-0.11528-0.91075-0.13829-0.86933-0.18456-0.76583-0.16141-0.70375-0.18435-0.60027-0.20748-0.55888-0.25366-0.45535-0.20747-0.28978c-0.0227-0.0416-0.0691-0.0829-0.0919-0.10362l-0.23056-0.18627c-0.0694-0.0416-0.13823-0.0828-0.20749-0.10351l-0.23059-0.0621c-0.0462-0.0207-0.092-0.0207-0.16141-0.0207h-62.757l0.18436 0.0207-0.23056-0.0621 0.23056 0.10362-0.23056-0.16561 0.09221 0.10351-0.20748-0.28979 0.04605 0.0621-0.1614-0.35186-0.18437-0.45539-0.18455-0.55883-0.16141-0.66239-0.13827-0.74512-0.16141-0.80724-0.11535-0.89009-0.11535-0.97279-0.0922-0.99355-0.11535-2.194-0.04605-2.3596z" stroke="#000" stroke-width=".021846px"/>
  <path id="path3022-6" stroke-linejoin="round" d="m87.353 303.48c0 0.19059 0.4928 0.34513 1.1007 0.34513h130.47c0.60782 0 1.1007-0.15454 1.1007-0.34513v-56.516c0-0.19062-0.49276-0.3452-1.1007-0.3452h-130.47c-0.6078 0-1.1007 0.15458-1.1007 0.3452zm2.2011-56.516-1.1007 0.34519h130.47l-1.1006-0.34519v56.516l1.1006-0.34521h-130.47l1.1007 0.34521z" stroke="#000" stroke-width=".0091996px"/>
  <path id="path3110-0" stroke-linejoin="round" d="m118.12 330.61-17.867 7.4156 0.50121 1.0672 17.843-7.4262z" stroke="#000" stroke-width=".023381px"/>
  <text id="text3112-0" font-size="12.533px" xml:space="preserve" transform="scale(1.0235 .97703)" y="340.97739" x="96.215965" font-family="Arial" line-height="125%" fill="#000000"><tspan id="tspan6982">6</tspan></text>
  <path id="path3124-2" stroke-linejoin="round" d="m201.57 347.47v-34.573h1.5498v34.573h-1.5498zm-3.8515-32.81 4.6265-10.601 4.6265 10.601h-9.253z" stroke="#000" stroke-width=".012379px"/>
  <path id="path3124-2-4" stroke-linejoin="round" d="m109.14 347.47v-34.573h1.5498v34.573h-1.5498zm-3.8514-32.81 4.6265-10.601 4.6265 10.601h-9.253z" stroke="#000" stroke-width=".012379px"/>
  <text id="text3112-0-4" font-size="12.533px" xml:space="preserve" transform="scale(1.0235 .97703)" y="340.54883" x="187.22774" font-family="Arial" fill="#000000">4</text>
  <path id="path3110-0-7" stroke-linejoin="round" d="m210.98 330.44-17.867 7.4156 0.50115 1.0671 17.843-7.4262z" stroke="#000" stroke-width=".023381px"/>
  <path id="path3260-3-8" stroke-linejoin="round" d="m59.439 272.92 29.144-0.18746-0.0084-1.3934-29.151 0.1879z" stroke="#000" stroke-width=".011785px"/>
  <path id="path3260-3-8-6" stroke-linejoin="round" d="m59.686 515.25 37.845-0.18733-0.01121-1.3925-37.855 0.18774z" stroke="#000" stroke-width=".013426px"/>
  <text id="text3038-0" font-size="18.403px" xml:space="preserve" transform="scale(1.0403 .96126)" line-height="125%" y="556.02277" x="60.858192" font-family="Arial" fill="#000000"><tspan id="tspan3777" y="556.02277" x="60.858192">InEx</tspan></text>
  <path id="path3232-6" stroke-linejoin="round" d="m792.85 411.01v-43.466h-1.2506v43.466z" stroke="#000" stroke-width=".042512px"/>
  <path id="path3100-8-7" stroke-linejoin="round" d="m279.2 384.12-0.15615 58.621h1.3059l0.15612-58.621z" stroke="#000" stroke-width=".010067px"/>
  <path id="path3108-1" stroke-linejoin="round" d="m280.58 384.29-0.28034-54.734-1.3862-0.69458v55.429zm3.4528-54.481-4.2737-10.804-3.9933 10.63z" stroke="#000" stroke-width=".035422px"/>
  <path id="path3198-7" fill-rule="evenodd" d="m277.25 380.03c0-1.4627 1.0707-2.6381 2.3656-2.6381 1.3198 0 2.3656 1.1754 2.3656 2.6381 0 1.4365-1.0458 2.612-2.3656 2.612-1.2949 0-2.3656-1.1754-2.3656-2.612"/>
  <path id="path3200-1" stroke-linejoin="round" d="m275.61 378.11v-0.3395l0.0502-0.52242c0.0246-0.10452 0.0246-0.20897 0.0744-0.33956l0.12456-0.47013c0.0246-0.10452 0.0745-0.18287 0.0997-0.28734l0.2241-0.44404c0.0502-0.10452 0.0997-0.20894 0.17427-0.31344l0.29883-0.39176 0.19921-0.20898 0.3486-0.31344c0.0999-0.0783 0.19922-0.15671 0.29884-0.23506l0.3984-0.23506c0.0744-0.0521 0.1743-0.0785 0.2739-0.13066l0.44823-0.15673c0.12449-0.0261 0.24897-0.0521 0.3486-0.0781l0.47313-0.0521h0.34859l0.47314 0.0521c0.12449 0.026 0.24899 0.0521 0.37352 0.0781l0.44818 0.15673c0.0997 0.0521 0.17431 0.0783 0.27392 0.13066l0.39842 0.23506c0.0997 0.0782 0.19921 0.15671 0.2988 0.23506l0.34863 0.31344c0.0745 0.0786 0.12452 0.13065 0.1992 0.20898l0.29881 0.39176c0.0501 0.10452 0.12452 0.209 0.17433 0.31344l0.22407 0.44404c0.0246 0.10452 0.0743 0.18285 0.0997 0.28734l0.1245 0.47013c0.0501 0.13065 0.0501 0.23508 0.0746 0.33956l0.0501 0.52242v0.3395l-0.0501 0.54852c-0.0246 0.10452-0.0246 0.20895-0.0746 0.31344l-0.1245 0.49627c-0.0246 0.10452-0.0746 0.18286-0.0997 0.28732l-0.22407 0.44403c-0.05 0.10452-0.12451 0.20891-0.17433 0.31341l-0.29881 0.39181c-0.0743 0.0783-0.12452 0.13061-0.1992 0.20896l-0.34863 0.31342c-0.0995 0.0783-0.19919 0.15674-0.2988 0.23508l-0.39842 0.23507c-0.0998 0.0521-0.17431 0.0785-0.27392 0.13063l-0.44818 0.15675c-0.12453 0.0261-0.24904 0.0521-0.37352 0.0783l-0.47314 0.0521h-0.34859l-0.47313-0.0521c-0.0998-0.0262-0.22412-0.0521-0.3486-0.0783l-0.44823-0.15675c-0.0997-0.0521-0.19916-0.0782-0.2739-0.13063l-0.3984-0.23507c-0.0996-0.0783-0.19922-0.15669-0.29884-0.23508l-0.3486-0.31342-0.19921-0.20896-0.29883-0.39181c-0.0744-0.10452-0.12449-0.20893-0.17427-0.31341l-0.2241-0.44403c-0.0246-0.10452-0.0743-0.18286-0.0997-0.28732l-0.12456-0.49627c-0.05-0.10452-0.05-0.20894-0.0744-0.31344zm3.3616 0.20898-0.0745-0.33955 0.14938 0.49626-0.0996-0.28731 0.1992 0.44401-0.1743-0.31341 0.29878 0.39179-0.19919-0.20897 0.34862 0.33958-0.29879-0.2351 0.3984 0.2351-0.27392-0.13064 0.44822 0.15671-0.37353-0.0781 0.47314 0.0521h-0.34862l0.4731-0.0521-0.34858 0.0781 0.4482-0.15671-0.27394 0.13064 0.39845-0.2351-0.29881 0.2351 0.34862-0.33958-0.19921 0.20897 0.29878-0.39179-0.17431 0.31341 0.19925-0.44401-0.0997 0.28731 0.14943-0.49626-0.0746 0.33955 0.0501-0.54848v0.3395l-0.0501-0.52238 0.0746 0.31346-0.14943-0.47016 0.0997 0.28728-0.19925-0.444 0.17431 0.31342-0.29878-0.39178 0.19921 0.20894-0.34862-0.33952 0.29881 0.23507-0.39845-0.23507 0.27394 0.13061-0.4482-0.15673 0.34858 0.0783-0.4731-0.0521h0.34862l-0.47314 0.0521 0.37353-0.0783-0.44822 0.15673 0.27392-0.13061-0.3984 0.23507 0.29879-0.23507-0.34862 0.33952 0.19919-0.20894-0.29878 0.39178 0.1743-0.31342-0.1992 0.444 0.0996-0.28728-0.14938 0.47016 0.0745-0.31346-0.0501 0.52238v-0.3395z" stroke="#000" stroke-width=".025503px"/>
  <text id="text3146-9" font-size="15.837px" xml:space="preserve" transform="matrix(.0044358 -.94443 1.0588 .0040686 0 0)" line-height="125%" y="439.78656" x="-529.20416" font-family="Arial" fill="#000000"><tspan id="tspan4821" y="439.78656" x="-529.20416">Sel RA</tspan></text>
  <text id="text3146-9-5" font-size="15.837px" xml:space="preserve" transform="matrix(-.0075716 -.94440 1.0588 -.0069449 0 0)" line-height="125%" y="521.06213" x="-532.95471" font-family="Arial" fill="#000000"><tspan id="tspan4823" y="521.06213" x="-532.95471">Sel RB</tspan></text>
  <text id="text3146-9-9" font-size="15.837px" xml:space="preserve" transform="matrix(.0098589 -.94438 1.0588 .0090428 0 0)" line-height="125%" y="614.78931" x="-523.38672" font-family="Arial" fill="#000000"><tspan id="tspan4825" y="614.78931" x="-523.38672">Sel RC</tspan></text>
  <text id="text3350-3" font-size="11.802px" xml:space="preserve" transform="scale(1.0442 .95771)" line-height="125%" y="577.60156" x="609.84845" font-family="Arial" fill="#000000">0</text>
  <text id="text3352-3" font-size="11.802px" xml:space="preserve" transform="scale(1.0442 .95771)" line-height="125%" y="577.87256" x="636.91467" font-family="Arial" fill="#000000">1</text>
  <path id="path3094-7" opacity=".75" stroke-linejoin="round" d="m279.67 442.15v-113.96h-1.6678v113.96h1.6678zm4.1321-111.71-4.9784-13.681-4.9785 13.681h9.9568z" stroke="#000" stroke-width=".029178px"/>
  <path id="path3498-6" stroke-linejoin="round" d="m349.7 294.59h91.36v1.1382h-91.36z" stroke="#000" stroke-width=".027888px"/>
  <path id="path3138-8" stroke-linejoin="round" d="m442.57 333.94v-39.322h-1.2535v39.322z" stroke="#000" stroke-width=".015922px"/>
  <path id="path3138-8-1" stroke-linejoin="round" d="m473.52 334.57v-89.836h-1.2459v89.836z" stroke="#000" stroke-width=".023994px"/>
  <path id="path3124-7" stroke-linejoin="round" d="m386.75 351.22h15.948v1.5311h-15.948v-1.5311zm15.136-3.8051 4.8901 4.5707-4.8901 4.5707v-9.1414z" stroke="#000" stroke-width=".0083577px"/>
  <text id="text4138-7" font-size="15.395px" xml:space="preserve" transform="scale(1.111 .90013)" line-height="125%" y="385.94257" x="326.93994" font-family="Arial" fill="#000000"><tspan id="tspan4140-2" y="385.94257" x="326.93994">CLK</tspan></text>
  <path id="path3194-0" stroke-linejoin="round" d="m353.9 294.39-13.411 0.0684v1.5303l13.411-0.0687v-1.5304zm-11.609-3.7458-11.027 4.6369 11.111 4.4996-0.083-9.1363z" stroke="#000" stroke-width=".025157px"/>
  <path id="path3124-2-5" stroke-linejoin="round" d="m308.04 245.41v-46.775h1.5495v46.775h-1.5495zm-3.8506-44.389 4.6255-14.342 4.6255 14.342h-9.251z" stroke="#000" stroke-width=".014397px"/>
  <path id="path3098-2" stroke-linejoin="round" d="m474.16 244.68h-165.73v1.1465h165.73z" stroke="#000" stroke-width=".019824px"/>
  <path id="path3396" stroke-linejoin="round" d="m430.88 335.03c0-0.39809 0.47977-0.72976 1.1309-0.72976h25.459c0.61683 0 1.1308 0.33167 1.1308 0.72976v32.443c0 0.39806-0.514 0.72977-1.1308 0.72977h-25.459c-0.65108 0-1.1309-0.33171-1.1309-0.72977zm2.2615 32.443-1.1308-0.72981h25.459l-1.1651 0.72981v-32.443l1.1651 0.72978h-25.459l1.1308-0.72978z" stroke="#000" stroke-width=".027530px"/>
  <path id="path3138-1" stroke-linejoin="round" d="m550.64 441.55v-32.973h-1.2533v32.973z" stroke="#000" stroke-width=".014580px"/>
  <path id="path3138-1-5" stroke-linejoin="round" d="m640.16 443.29v-32.973h-1.2533v32.973z" stroke="#000" stroke-width=".014580px"/>
  <path id="path3194-08" stroke-linejoin="round" d="m421.03 466.19-13.615 0.0685v1.5303l13.615-0.0688v-1.5303zm-11.786-3.7456-11.196 4.6367 11.281 4.4995-0.0839-9.1359z" stroke="#000" stroke-width=".025348px"/>
  <text id="text3442-2" font-size="15.837px" line-height="125%" transform="scale(1.0442 .95771)" y="609.0282" x="206.12616" font-family="Arial" xml:space="preserve" fill="#000000"><tspan id="tspan4917" y="609.0282" x="206.12616">...</tspan></text>
  <path id="path3258-4" stroke-linejoin="round" d="m579.4 385.87h31.002v1.1411h-31.002z" stroke="#000" stroke-width=".025067px"/>
  <path id="path3390-7" stroke-linejoin="round" d="m150.68 412v-7.6812h-1.2528v7.6812z" stroke="#000" stroke-width=".015956px"/>
 </g>
</svg>
