<?xml version="1.0" encoding="UTF-8" standalone="no"?>
<svg id="svg2996" xmlns:rdf="http://www.w3.org/1999/02/22-rdf-syntax-ns#" xmlns="http://www.w3.org/2000/svg" height="100%" viewBox="40 15 860 625" width="100%" version="1.0" preserveAspectRatio="xMinYMin meet" xmlns:cc="http://creativecommons.org/ns#" xmlns:dc="http://purl.org/dc/elements/1.1/">
 <metadata id="metadata3508">
  <rdf:RDF>
   <cc:Work rdf:about="">
    <dc:format>image/svg+xml</dc:format>
    <dc:type rdf:resource="http://purl.org/dc/dcmitype/StillImage"/>
    <dc:title/>
   </cc:Work>
  </rdf:RDF>
 </metadata>
 <text id="text3611" style="word-spacing:0px;letter-spacing:0px" line-height="125%" xml:space="preserve" font-size="13.289px" transform="scale(.99998 1)" y="362.36798" x="139.88812" font-family="sans-serif" fill="#000000"><tspan id="tspan3615" y="365.36798" x="121.88812"/></text>
 <g id="g6237" transform="matrix(1.048 0 0 1.1251 -19.241 3.7319)">
  <path id="path3008" stroke-linejoin="round" d="m468.5 36.584c0-0.57659 0.49117-1.0297 1.1163-1.0297h387.9c0.58046 0 1.1162 0.45303 1.1162 1.0297v102.26c0 0.57657-0.53581 1.0296-1.1162 1.0296h-387.9c-0.62511 0-1.1163-0.45301-1.1163-1.0296zm2.2326 102.26-1.1162-1.0296h387.9l-1.1162 1.0296v-102.26l1.1162 1.0296h-387.9l1.1162-1.0296z" stroke="#000" stroke-width=".042883px"/>
  <text id="text3010" font-size="25.188px" line-height="125%" xml:space="preserve" style="text-decoration-line:underline;text-decoration:underline" transform="scale(1.0819 .92430)" y="105.29654" x="524.02722" font-family="Arial" fill="#000000">Control Memory</text>
  <text id="text3012" font-size="17.574px" xml:space="preserve" transform="scale(1.0819 .92430)" y="442.70413" x="199.20889" font-family="Arial" fill="#000000">MUX C</text>
  <path id="path3014" stroke-linejoin="round" d="m688.6 137.57v147.49h-1.6142v-147.49h1.6142zm3.9408 145.92-4.748 9.4665-4.748-9.4665h9.4958z" stroke="#000" stroke-width=".047405px"/>
  <path id="path3016" stroke-linejoin="round" d="m701.31 193.75-25 15.227 0.71294 0.81215 24.954-15.188z" stroke="#000" stroke-width=".043934px"/>
  <text id="text3018" font-size="13.182px" xml:space="preserve" transform="scale(1.0819 .92430)" line-height="125%" y="218.26289" x="616.11914" font-family="Arial" fill="#000000"><tspan id="tspan3920" y="218.26289" x="616.11914">80</tspan></text>
  <path id="path3024" stroke-linejoin="round" d="m224.99 162.2c0 0.26581 0.31317 0.48734 0.70981 0.48734h118.56c0.39663 0 0.70978-0.22153 0.70978-0.48734v-121.7c0-0.2806-0.31315-0.50213-0.70978-0.50213h-118.56c-0.39664 0-0.70981 0.22153-0.70981 0.50213zm1.3987-121.7-0.68896 0.48739h118.56l-0.68895-0.48739v121.7l0.68895-0.48738h-118.56l0.68896 0.48738z" stroke="#000" stroke-width=".017559px"/>
  <path id="path3026" stroke-linejoin="round" d="m383.17 41.036c0-0.3253 0.35646-0.59639 0.78426-0.59639h30.42c0.42776 0 0.78426 0.27108 0.78426 0.59639v87.938c0 0.32528-0.3565 0.59637-0.78426 0.59637h-30.42c-0.4278 0-0.78426-0.27109-0.78426-0.59637zm1.5685 87.938-0.78427-0.5964h30.42l-0.8081 0.5964v-87.938l0.8081 0.61444h-30.42l0.78427-0.61444z" stroke="#000" stroke-width=".020725px"/>
  <path id="path3028" stroke-linejoin="round" d="m92.448 430.97c0 0.36503 0.32172 0.65325 0.70777 0.65325h305.64c0.38605 0 0.7078-0.28822 0.7078-0.65325v-40.867c0-0.34585-0.32175-0.63403-0.7078-0.63403h-305.64c-0.38606 0-0.70777 0.28818-0.70777 0.63403zm1.4155-40.867-0.70778 0.63407h305.64l-0.70777-0.63407v40.867l0.70777-0.63406h-305.64l0.70778 0.63406z" stroke="#000" stroke-width=".020301px"/>
  <text id="text3038" font-size="17.574px" xml:space="preserve" transform="scale(1.0819 .92430)" y="565.17706" x="76.792351" font-family="Arial" fill="#000000">SR</text>
  <path id="path3040" stroke-linejoin="round" d="m85.705 76.247c0 0.2587 0.35651 0.47428 0.7843 0.47428h55.756c0.45159 0 0.80809-0.21558 0.80809-0.47428v-23.557c0-0.2587-0.3565-0.47428-0.80809-0.47428h-55.756c-0.42779 0-0.78429 0.21558-0.78429 0.47428zm1.5924-23.557-0.80805 0.48864h55.756l-0.7843-0.48864v23.557l0.7843-0.47427h-55.756l0.80805 0.47427z" stroke="#000" stroke-width=".018480px"/>
  <g id="g4866" stroke-linejoin="round" transform="matrix(.67225 0 0 .86964 -194.35 104.51)" stroke="#000" stroke-width=".043902px">
   <path id="path3042" d="m828.4 256.34h12.482v1.0922h-12.482z"/>
   <path id="path3044" d="m854.34 256.34h12.482v1.0922h-12.482z"/>
   <path id="path3048" d="m840.5 243.5h13.454v1.0922h-13.454z"/>
   <path id="path3050" d="m841.07 257.26v-13.588h-1.1028v13.588z"/>
   <path id="path3052" d="m854.17 257.26v-13.938h-1.1027v13.938z"/>
   <path id="path3054" d="m866.65 257.26v-13.938h-1.1028v13.938z"/>
   <path id="path3058" d="m865.81 243.5h13.763v1.0922h-13.763z"/>
  </g>
  <path id="path3060" stroke-linejoin="round" d="m332.87 475-0.1338-38.089-1.3232-0.35476-0.13376 38.443zm3.9415-36.987-4.7487-7.1354-4.4811 7.1354z" stroke="#000" stroke-width=".028452px"/>
  <path id="path3062" stroke-linejoin="round" d="m357.52 453.39v-16.611h-1.5923v16.611h1.5923zm3.9689-15.452-4.7531-6.9212-4.7531 6.9212h9.5062z" stroke="#000" stroke-width=".020277px"/>
  <text id="text3064" font-size="13.285px" xml:space="preserve" transform="scale(1.0819 .92430)" line-height="125%" y="528.11267" x="347.92377" font-family="Arial" fill="#000000"><tspan id="tspan14891" y="528.11267" x="347.92377">0</tspan></text>
  <text id="text3066" font-size="13.41px" xml:space="preserve" transform="scale(1.0819 .92430)" line-height="125%" y="168.88292" x="281.30588" font-family="Arial" fill="#000000">A0</text>
  <text id="text3068" font-size="18.992px" xml:space="preserve" transform="scale(1.0819 .92430)" line-height="125%" y="117.02581" x="242.46715" font-family="Arial" fill="#000000">MUX A</text>
  <text id="text3072" font-size="15.7px" xml:space="preserve" transform="scale(1.0819 .92430)" line-height="125%" y="197.48335" x="645.87988" font-family="Arial" fill="#000000"><tspan id="tspan14893" y="197.48335" x="645.87988">µInstruction</tspan></text>
  <text id="text3076" font-size="17.574px" xml:space="preserve" transform="scale(1.0819 .92430)" y="280.81717" x="504.48178" font-family="Arial" fill="#000000">MADDR</text>
  <text id="text3080" font-size="17.574px" xml:space="preserve" transform="matrix(0 -.92430 1.0819 0 0 0)" y="374.83136" x="-119.42062" font-family="Arial" fill="#000000">µAddr</text>
  <path id="path3082" stroke-linejoin="round" d="m413.54 85.338h50.121v1.3606h-50.121v-1.3606zm49.067-3.371 6.2849 4.0616-6.2849 4.0616v-8.1233z" stroke="#000" stroke-width=".017864px"/>
  <text id="text3084" font-size="17.574px" xml:space="preserve" transform="scale(1.0819 .92430)" y="76.814522" x="96.118126" font-family="Arial" fill="#000000">+1</text>
  <path id="path3086" fill-rule="evenodd" d="m437.13 86.024c0-1.137 1.0219-2.0507 2.2577-2.0507s2.2577 0.91366 2.2577 2.0507c0 1.1167-1.0219 2.0305-2.2577 2.0305s-2.2577-0.91369-2.2577-2.0305"/>
  <path id="path3088" stroke-linejoin="round" d="m436.06 86.144v-0.26395l0.0478-0.40608c0.0235-0.08122 0.0235-0.16242 0.0711-0.26395l0.11884-0.36548c0.0236-0.08122 0.0711-0.14211 0.0951-0.22333l0.21389-0.34517c0.0477-0.08121 0.095-0.16244 0.16634-0.24364l0.28515-0.30457c0.0478-0.04061 0.11883-0.10154 0.16638-0.14212l0.33269-0.24364c0.0952-0.08124 0.19013-0.14212 0.30897-0.20305l0.404-0.18275c0.0711-0.04061 0.14258-0.06087 0.23763-0.10153l0.40403-0.12184c0.11884-0.02026 0.23765-0.04061 0.35647-0.06097l0.45153-0.04061h0.33272l0.45155 0.04061c0.11882 0.02035 0.21386 0.04061 0.33272 0.06097l0.42775 0.12184c0.0952 0.04061 0.19013 0.06076 0.28518 0.10153l0.38024 0.18275c0.0951 0.06076 0.19011 0.12181 0.26143 0.18274l0.33272 0.24364c0.071 0.06087 0.14254 0.10154 0.1901 0.16242l0.2852 0.30457c0.0712 0.08122 0.11882 0.16244 0.19013 0.24364l0.19009 0.34517c0.0478 0.08121 0.071 0.14213 0.0951 0.22333l0.14257 0.36548c0.0235 0.10154 0.0478 0.18274 0.0478 0.26395l0.0477 0.40608c0.0236 0.10154 0.0236 0.18275 0 0.26395l-0.0477 0.42638c0 0.08118-0.0234 0.16244-0.0478 0.24366l-0.14257 0.38578c-0.0235 0.08118-0.0478 0.14211-0.0951 0.22333l-0.19009 0.34517c-0.0712 0.08118-0.11886 0.16245-0.19013 0.24368l-0.2852 0.30455c-0.0478 0.06089-0.1188 0.10155-0.1901 0.16244l-0.33272 0.24365c-0.0711 0.06089-0.16635 0.12184-0.26143 0.18272l-0.38024 0.18275c-0.0951 0.04059-0.19012 0.06078-0.28518 0.10155l-0.42775 0.1218c-0.11889 0.0203-0.21391 0.04059-0.33272 0.06099l-0.45155 0.04059h-0.33272l-0.45153-0.04059c-0.11883-0.02039-0.23764-0.0406-0.35647-0.06099l-0.38771-0.12184c-0.0951-0.04059-0.16632-0.06078-0.23763-0.10155l-0.404-0.18275c-0.11884-0.06089-0.2139-0.12181-0.30897-0.20302l-0.33269-0.24368c-0.0478-0.04059-0.11884-0.10152-0.16637-0.14211l-0.28516-0.30454c-0.071-0.08117-0.11884-0.16244-0.16635-0.24368l-0.21387-0.34517c-0.0236-0.08118-0.0712-0.1421-0.0951-0.22333l-0.11882-0.38578c-0.0478-0.08117-0.0478-0.16244-0.0712-0.24366zm3.2083 0.16243-0.0711-0.26395 0.14262 0.38579-0.0951-0.22336 0.19012 0.34518-0.16637-0.24366 0.28518 0.30457-0.16635-0.14214 0.30897 0.26395-0.30897-0.20305 0.38026 0.18272-0.23766-0.10152 0.42779 0.12181-0.3565-0.06089 0.45155 0.04059h-0.33272l0.45155-0.04059-0.33272 0.06089 0.42775-0.12181-0.28518 0.10152 0.38027-0.18272-0.26143 0.18272 0.33271-0.26392-0.19011 0.16244 0.28519-0.30457-0.19011 0.24366 0.21387-0.34518-0.095 0.22336 0.11886-0.38579-0.0478 0.26395 0.0478-0.42638v0.26395l-0.0478-0.40608 0.0478 0.24363-0.11886-0.36546 0.095 0.22335-0.21387-0.34518 0.19011 0.24366-0.28519-0.30456 0.19011 0.16243-0.33271-0.26395 0.26143 0.18273-0.38027-0.18273 0.28518 0.10155-0.42775-0.12183 0.33272 0.06096-0.45155-0.0406h0.33272l-0.45155 0.0406 0.3565-0.06096-0.42779 0.12183 0.23766-0.10155-0.38026 0.18273 0.30897-0.20303-0.30897 0.26394 0.16635-0.14212-0.28518 0.30456 0.16637-0.24366-0.19012 0.34518 0.0951-0.22335-0.14262 0.36546 0.0711-0.24363-0.0477 0.40608v-0.26395z" stroke="#000" stroke-width=".021967px"/>
  <path id="path3092" stroke-linejoin="round" d="m344.03 87.328h35.656v-1.3609h-35.656v1.3609zm34.969 3.3717 4.1045-4.0623-4.1045-4.0624v8.1246z" stroke="#000" stroke-width=".014436px"/>
  <path id="path3094" stroke-linejoin="round" d="m283.21 236.45v-66.106h-1.5923v66.106h1.5923zm3.9451-64.796-4.7532-7.9359-4.7532 7.9359h9.5063z" stroke="#000" stroke-width=".021714px"/>
  <path id="path3098" stroke-linejoin="round" d="m440.33 22.303h-325.45v1.0114h325.45z" stroke="#000" stroke-width=".026092px"/>
  <path id="path3100" stroke-linejoin="round" d="m114.05 23.007-0.17001 30.252h1.4166l0.17-30.252z" stroke="#000" stroke-width=".0075324px"/>
  <path id="path3102" stroke-linejoin="round" d="m142.09 63.906h74.938v1.3606h-74.938v-1.3606zm73.446-3.3809 8.9751 4.0612-8.9751 4.0612v-8.1223z" stroke="#000" stroke-width=".010672px"/>
  <path id="path3104" stroke-linejoin="round" d="m148.53 113.31h69.484v1.3503h-69.484v-1.3503zm68.181-3.3913 7.8516 4.0615-7.8516 4.0615v-8.1229z" stroke="#000" stroke-width=".0099826px"/>
  <path id="path3108" stroke-linejoin="round" d="m381.24 475.48-0.26761-37.272-1.3233-0.47296v37.746zm3.2963-37.099-4.0797-7.357-3.8122 7.2387z" stroke="#000" stroke-width=".028559px"/>
  <path id="path3110" stroke-linejoin="round" d="m427.76 378.92-16.053 8.6255 0.67292 0.89104 16.03-8.6327z" stroke="#000" stroke-width=".021967px"/>
  <text id="text3112" font-size="11.775px" xml:space="preserve" transform="scale(1.0819 .92430)" y="413.37091" x="381.05884" font-family="Arial" fill="#000000">4</text>
  <path id="path3120" stroke-linejoin="round" d="m465.08 184.07-9.0783 9.9697 0.92686 0.62946 9.0783-9.9697z" stroke="#000" stroke-width=".021967px"/>
  <text id="text3122" font-size="11.775px" xml:space="preserve" transform="scale(1.0819 .92430)" y="199.93306" x="412.28058" font-family="Arial" fill="#000000">12</text>
  <path id="path3124" stroke-linejoin="round" d="m196.56 138.36h23.087v1.3606h-23.087v-1.3606zm21.91-3.3814 7.079 4.0617-7.079 4.0617v-8.1234z" stroke="#000" stroke-width=".0094794px"/>
  <text id="text3126" font-size="17.574px" xml:space="preserve" transform="scale(1.0819 .92430)" y="156.67432" x="162.83551" font-family="Arial" fill="#000000">0</text>
  <text id="text3130" font-size="13.148px" xml:space="preserve" transform="scale(1.0819 .92430)" line-height="125%" y="172.75471" x="149.43611" font-family="Arial" fill="#000000">(fetch) </text>
  <path id="path3134" stroke-linejoin="round" d="m148.79 112.75-0.1431 77.628 1.1921 0.0137 0.14305-77.641z" stroke="#000" stroke-width=".012967px"/>
  <path id="path3136" stroke-linejoin="round" d="m306.77 453.34v-16.611h-1.5924v16.611h1.5924zm3.9453-15.452-4.7531-6.9213-4.7531 6.9213h9.5062z" stroke="#000" stroke-width=".020277px"/>
  <path id="path3138" stroke-linejoin="round" d="m456.2 390.65v-29.307h-1.1959v29.307z" stroke="#000" stroke-width=".013427px"/>
  <text id="text3140" font-size="12.077px" xml:space="preserve" transform="scale(1.0819 .92430)" line-height="125%" y="580.81671" x="254.18706" font-family="Arial" fill="#000000">0</text>
  <path id="path3142" stroke-linejoin="round" d="m161.13 363.5 590.21-2.5568v-1.048l-590.21 2.5569z" stroke="#000" stroke-width=".036507px"/>
  <path id="path3142b" stroke-linejoin="round" d="m165.51 363.5 587.31-2.5569v-1.0478l-587.31 2.5569z" stroke="#000" stroke-width=".036418px"/>
  <path id="path3144" stroke-linejoin="round" d="m443.92 459.77c-0.32135-0.002-0.55708-0.27075-0.55585-0.59243l0.19573-51.792c0.00086-0.32169 0.23895-0.58864 0.56031-0.5871l23.576 0.11258c0.32133 0.002 0.57399 0.27084 0.57279 0.59251l-0.19575 51.792c-0.00087 0.32167-0.25589 0.58855-0.57724 0.58703zm23.581-1.0848-0.56037 0.60497 0.19574-51.792 0.5558 0.61031-23.576-0.11259 0.56041-0.60498-0.19574 51.792-0.55581-0.61032z" stroke="#000" stroke-width=".017386px"/>
  <path id="path3150" stroke-linejoin="round" d="m531.43 459.81c-0.33804 0.003-0.57658-0.28992-0.5788-0.62122l-0.35257-53.34c-0.003-0.33129 0.23273-0.59087 0.57076-0.59357l23.56-0.18742c0.3042-0.003 0.54253 0.25341 0.54474 0.58468l0.35259 53.34c0.003 0.33131-0.23248 0.62768-0.53669 0.6301zm23.552-1.439-0.57051 0.63036-0.35262-53.34 0.5788 0.62121-23.56 0.18744 0.5367-0.6301 0.35263 53.34-0.54501-0.6215z" stroke="#000" stroke-width=".035276px"/>
  <path id="path3156" stroke-linejoin="round" d="m618.61 458.01c-0.31646-0.003-0.53514-0.28734-0.53201-0.60515l0.50836-51.171c0.004-0.31785 0.22714-0.56309 0.5436-0.56023l22.056 0.19796c0.28478 0.002 0.50384 0.25175 0.50072 0.56956l-0.50837 51.171c-0.004 0.3178-0.2275 0.59835-0.51229 0.59579zm22.068-1.0028-0.54396 0.59555 0.50838-51.171 0.532 0.60516-22.056-0.19795 0.51232-0.59583-0.50836 51.171-0.5004-0.60491z" stroke="#000" stroke-width=".033432px"/>
  <path id="path3162" stroke-linejoin="round" d="m671.79 294.73c0-0.36568 0.12452-0.69071 0.3024-0.69071h68.916c0.16009 0 0.28464 0.32503 0.28464 0.69071v28.32c0 0.36568-0.12455 0.69069-0.28464 0.69069h-68.916c-0.17788 0-0.3024-0.32501-0.3024-0.69069zm0.58704 28.32-0.28462-0.69075h68.916l-0.30239 0.69075v-28.32l0.30239 0.69075h-68.916l0.28462-0.69075z" stroke="#000" stroke-width=".026884px"/>
  <text id="text3164" font-size="16.07px" xml:space="preserve" transform="scale(1.0819 .92430)" line-height="125%" y="340.10687" x="490.55099" font-family="Arial" fill="#000000"><tspan id="tspan4277" y="340.10687" x="490.55099">SelA</tspan></text>
  <text id="text3168" font-size="16.07px" xml:space="preserve" transform="scale(1.0819 .92430)" line-height="125%" y="340.78174" x="537.05847" font-family="Arial" fill="#000000"><tspan id="tspan4279" y="340.78174" x="537.05847">SelB</tspan></text>
  <text id="text3172" font-size="16.07px" xml:space="preserve" transform="scale(1.0819 .92430)" line-height="125%" y="340.78174" x="582.00739" font-family="Arial" fill="#000000"><tspan id="tspan4281" y="340.78174" x="582.00739">SelC</tspan></text>
  <path id="path3176" stroke-linejoin="round" d="m522.18 294.72c0-0.36548 0.29932-0.67006 0.65852-0.67006h51.844c0.35923 0 0.65855 0.30458 0.65855 0.67006v28.326c0 0.36551-0.29932 0.67006-0.65855 0.67006h-51.844c-0.3592 0-0.65852-0.30455-0.65852-0.67006zm1.3169 28.326-0.65852-0.69039h51.844l-0.67847 0.69039v-28.326l0.67847 0.69037h-51.844l0.65852-0.69037z" stroke="#000" stroke-width=".020129px"/>
  <path id="path3178" stroke-linejoin="round" d="m574.15 294.74c0-0.36553 0.30214-0.69043 0.64204-0.69043h50.117c0.3399 0 0.6421 0.3249 0.6421 0.69043v28.308c0 0.36552-0.3022 0.69042-0.6421 0.69042h-50.117c-0.3399 0-0.64204-0.3249-0.64204-0.69042zm1.2464 28.308-0.60426-0.69045h50.117l-0.642 0.69045v-28.308l0.642 0.69045h-50.117l0.60426-0.69045z" stroke="#000" stroke-width=".039164px"/>
  <path id="path3180" stroke-linejoin="round" d="m624.38 294.74c0-0.36554 0.2424-0.69049 0.5888-0.69049h47.172c0.3118 0 0.5542 0.32495 0.5542 0.69049v28.31c0 0.36554-0.2424 0.69047-0.5542 0.69047h-47.172c-0.3464 0-0.5888-0.32493-0.5888-0.69047zm1.143 28.31-0.5541-0.69051h47.172l-0.5888 0.69051v-28.31l0.5888 0.69049h-47.172l0.5541-0.69049z" stroke="#000" stroke-width=".037506px"/>
  <path id="path3182" stroke-linejoin="round" d="m460.54 471.81-12.786 8.0608 0.71297 0.81216 12.786-8.0404z" stroke="#000" stroke-width=".021967px"/>
  <path id="path3184" stroke-linejoin="round" d="m550.84 472.44-12.786 8.0608 0.71296 0.81217 12.786-8.0608z" stroke="#000" stroke-width=".021967px"/>
  <path id="path3186" stroke-linejoin="round" d="m634.8 469.96-12.786 8.0811 0.71299 0.81216 12.786-8.0811z" stroke="#000" stroke-width=".043934px"/>
  <path id="path3188" stroke-linejoin="round" d="m456.41 389.97v10.477h-1.5685v-10.477h1.5685zm3.9687 9.1166-4.7531 8.1216-4.753-8.1216h9.5061z" stroke="#000" stroke-width=".021967px"/>
  <path id="path3190" stroke-linejoin="round" d="m544.18 388.23v10.497h-1.5922v-10.497h1.5922zm3.9687 9.1368-4.7531 8.1216-4.7531-8.1216h9.506z" stroke="#000" stroke-width=".021967px"/>
  <path id="path3192" stroke-linejoin="round" d="m629.52 388.7v10.477h-1.616v-10.477h1.616zm3.945 9.0962-4.7531 8.1216-4.7531-8.1216h9.5061z" stroke="#000" stroke-width=".043934px"/>
  <path id="path3194" stroke-linejoin="round" d="m486.97 432.51-11.502 0.0609v1.3604l11.502-0.0611v-1.3604zm-9.9572-3.3298-9.4584 4.1219 9.53 4-0.0709-8.1216z" stroke="#000" stroke-width=".021967px"/>
  <path id="path3196" stroke-linejoin="round" d="m601.05 340.84v-17.075h-1.1972v17.075z" stroke="#000" stroke-width=".012958px"/>
  <path id="path3198" fill-rule="evenodd" d="m453.28 361.62c0-1.1373 0.8717-2.0512 1.9258-2.0512 1.0744 0 1.9258 0.91393 1.9258 2.0512 0 1.1169-0.85142 2.031-1.9258 2.031-1.0542 0-1.9258-0.9139-1.9258-2.031"/>
  <path id="path3200" stroke-linejoin="round" d="m451.82 361.73v-0.26399l0.0431-0.40619c0.0212-0.0812 0.0212-0.16247 0.0643-0.26404l0.10722-0.36554c0.0212-0.0812 0.0644-0.14221 0.0857-0.22341l0.193-0.34528c0.0431-0.0812 0.0856-0.16244 0.1501-0.24369l0.25733-0.30464 0.17157-0.16247 0.30025-0.24371c0.0856-0.0609 0.17151-0.12184 0.25729-0.1828l0.34312-0.18277c0.0643-0.0405 0.1501-0.0608 0.23588-0.10156l0.386-0.12189c0.10723-0.0203 0.21443-0.0405 0.30023-0.0606l0.40745-0.0405h0.30019l0.40746 0.0405c0.10722 0.0203 0.21442 0.0405 0.32167 0.0606l0.38597 0.12189c0.0856 0.0405 0.15013 0.0608 0.23589 0.10156l0.34311 0.18277c0.0857 0.061 0.17157 0.12187 0.25734 0.1828l0.30025 0.24371c0.0644 0.061 0.10722 0.10157 0.17152 0.16247l0.25734 0.30464c0.043 0.0812 0.10719 0.16249 0.15009 0.24369l0.19303 0.34528c0.0211 0.0812 0.0643 0.14214 0.0857 0.22341l0.1072 0.36554c0.0427 0.10159 0.0427 0.18279 0.0644 0.26404l0.0431 0.40619v0.26399l-0.0431 0.4265c-0.0212 0.0812-0.0212 0.16247-0.0644 0.24374l-0.1072 0.38583c-0.0212 0.0812-0.0644 0.14222-0.0857 0.22342l-0.19303 0.34525c-0.0428 0.0812-0.10719 0.16245-0.15009 0.24369l-0.25734 0.30465c-0.0643 0.0609-0.10721 0.10155-0.17152 0.16248l-0.30025 0.24372c-0.0856 0.0607-0.17156 0.12184-0.25734 0.18276l-0.34311 0.18278c-0.0857 0.0405-0.1501 0.0609-0.23589 0.10159l-0.38597 0.12187c-0.10721 0.0203-0.21445 0.0405-0.32167 0.0608l-0.40746 0.0405h-0.30019l-0.40745-0.0405c-0.0857-0.0204-0.193-0.0405-0.30023-0.0608l-0.386-0.12187c-0.0857-0.0405-0.17154-0.061-0.23588-0.10159l-0.34312-0.18278c-0.0857-0.0608-0.17153-0.12184-0.25729-0.18276l-0.30025-0.24372-0.17157-0.16248-0.25733-0.30465c-0.0643-0.0812-0.10722-0.16242-0.1501-0.24369l-0.193-0.34525c-0.0212-0.0812-0.0644-0.14218-0.0857-0.22342l-0.10722-0.38583c-0.0427-0.0812-0.0427-0.16246-0.0643-0.24374zm2.8949 0.16252-0.0644-0.26405 0.12867 0.38587-0.0856-0.2234 0.17155 0.34525-0.15013-0.24367 0.25733 0.30459-0.17156-0.16246 0.30024 0.26402-0.25733-0.18279 0.34308 0.18279-0.23584-0.10157 0.386 0.12185-0.32171-0.0609 0.40749 0.0405h-0.30023l0.40744-0.0405-0.30022 0.0609 0.38599-0.12185-0.2359 0.10157 0.34311-0.18279-0.25732 0.18279 0.3002-0.26402-0.17156 0.16246 0.25735-0.30459-0.15011 0.24367 0.17156-0.34525-0.0856 0.2234 0.12866-0.38587-0.0644 0.26405 0.043-0.42651v0.26399l-0.043-0.40619 0.0644 0.24376-0.12866-0.36561 0.0856 0.22341-0.17156-0.34525 0.15011 0.24369-0.25735-0.30461 0.17156 0.16246-0.3002-0.26402 0.25732 0.1828-0.34311-0.1828 0.2359 0.10159-0.38599-0.12187 0.30022 0.0608-0.40744-0.0405h0.30023l-0.40749 0.0405 0.32171-0.0608-0.386 0.12187 0.23584-0.10159-0.34308 0.1828 0.25733-0.1828-0.30024 0.26402 0.17156-0.16246-0.25733 0.30461 0.15013-0.24369-0.17155 0.34525 0.0856-0.22341-0.12867 0.36561 0.0644-0.24376-0.0429 0.40619v-0.26399z" stroke="#000" stroke-width=".020869px"/>
  <path id="path3202" fill-rule="evenodd" d="m540.93 361.62c0-1.1373 0.85144-2.0512 1.9259-2.0512 1.0542 0 1.9054 0.91393 1.9054 2.0512 0 1.1169-0.8514 2.031-1.9054 2.031-1.0745 0-1.9259-0.9139-1.9259-2.031"/>
  <path id="path3204" stroke-linejoin="round" d="m539.39 361.73c-0.0212-0.0812-0.0212-0.16243 0-0.26399l0.0427-0.40619c0-0.0812 0.0211-0.16247 0.0431-0.26404l0.12868-0.36554c0.0211-0.0812 0.0429-0.14221 0.0856-0.22341l0.17156-0.34528c0.0431-0.0812 0.10719-0.16244 0.17153-0.24369l0.25732-0.30464c0.0427-0.061 0.10724-0.10155 0.17155-0.16247l0.30025-0.24371c0.0643-0.0609 0.15009-0.12184 0.23588-0.1828l0.34311-0.18277c0.0856-0.0405 0.17153-0.0608 0.25732-0.10156l0.386-0.12189c0.0856-0.0203 0.19304-0.0405 0.30024-0.0606l0.40744-0.0405h0.30022l0.40742 0.0405c0.10723 0.0203 0.21446 0.0405 0.32166 0.0606l0.36455 0.12189c0.0856 0.0405 0.15013 0.0608 0.21448 0.10156l0.36454 0.18277c0.0857 0.0405 0.19299 0.10159 0.25733 0.1828l0.30023 0.24371 0.19297 0.18278 0.23589 0.30463c0.0643 0.0812 0.10722 0.14219 0.15011 0.22339l0.19302 0.34528c0.0212 0.0812 0.0642 0.14214 0.0857 0.22341l0.1072 0.36554c0.0431 0.10159 0.0431 0.18279 0.0643 0.26404l0.0427 0.40619v0.26399l-0.0427 0.4265c-0.0212 0.0812-0.0212 0.16247-0.0643 0.24374l-0.1072 0.38583c-0.0211 0.0812-0.0644 0.14222-0.0857 0.22342l-0.19302 0.34525c-0.0431 0.0812-0.0856 0.14216-0.15011 0.22338l-0.23589 0.30466c-0.0644 0.0608-0.12865 0.12184-0.19297 0.18278l-0.30023 0.24372c-0.0643 0.0812-0.17156 0.14213-0.25733 0.18276l-0.36454 0.18278c-0.0645 0.0405-0.12869 0.0609-0.21448 0.10159l-0.36455 0.12187c-0.1072 0.0203-0.21443 0.0405-0.32166 0.0608l-0.40742 0.0405h-0.30022l-0.40744-0.0405c-0.10722-0.0204-0.21445-0.0405-0.30024-0.0608l-0.386-0.12187c-0.0856-0.0405-0.17156-0.061-0.25732-0.10159l-0.34311-0.18278c-0.0857-0.0608-0.17155-0.12184-0.23588-0.18276l-0.30025-0.24372c-0.0643-0.0608-0.12867-0.10156-0.17155-0.16248l-0.25732-0.30465c-0.0643-0.0812-0.12867-0.16242-0.17153-0.24369l-0.17156-0.34525c-0.0431-0.0812-0.0643-0.14218-0.0856-0.22342l-0.12868-0.38583c-0.0212-0.0812-0.0431-0.16246-0.0431-0.24374zm2.8734 0.16252-0.0431-0.26405 0.10727 0.38587-0.0856-0.2234 0.193 0.34525-0.17155-0.24367 0.25734 0.30459-0.17156-0.16246 0.30023 0.26402-0.23586-0.18279 0.34306 0.18279-0.25732-0.10157 0.38601 0.12185-0.30022-0.0609 0.40745 0.0405h-0.30022l0.40743-0.0405-0.32168 0.0609 0.38599-0.12185-0.21444 0.10157 0.34314-0.18279-0.25737 0.18279 0.30022-0.26402-0.19297 0.1828 0.25731-0.30465-0.15009 0.22339 0.17156-0.34525-0.0857 0.2234 0.12871-0.38587-0.0643 0.26405 0.0431-0.42651v0.26399l-0.0431-0.40619 0.0643 0.24376-0.12871-0.36561 0.0857 0.22341-0.17156-0.34525 0.15009 0.22339-0.25731-0.30463 0.19297 0.18278-0.30022-0.26402 0.25737 0.1828-0.34314-0.1828 0.21444 0.10159-0.38599-0.12187 0.32168 0.0608-0.40743-0.0405h0.30022l-0.40745 0.0405 0.30022-0.0608-0.38601 0.12187 0.25732-0.10159-0.34306 0.1828 0.23586-0.1828-0.30023 0.26402 0.17156-0.16246-0.25734 0.30461 0.17155-0.24369-0.193 0.34525 0.0856-0.22341-0.10727 0.36561 0.0431-0.24376-0.0431 0.40619v-0.26399z" stroke="#000" stroke-width=".020869px"/>
  <path id="path3206" fill-rule="evenodd" d="m626.76 361.63c0-1.1373 0.892-2.0716 1.9461-2.0716s1.9054 0.93424 1.9054 2.0716c0 1.0966-0.85141 2.031-1.9054 2.031-1.0541 0-1.9461-0.93423-1.9461-2.031"/>
  <path id="path3208" stroke-linejoin="round" d="m625.41 361.76c-0.0432-0.0812-0.0432-0.16248 0-0.28432l0.0428-0.40617c0-0.0812 0-0.16252 0.0431-0.24374l0.12867-0.36555c0-0.0812 0.043-0.16249 0.0856-0.24371l0.17156-0.32496c0.0431-0.0812 0.0858-0.16247 0.12864-0.24373l0.25737-0.28432c0.0431-0.0812 0.12865-0.12184 0.1715-0.20307l0.30024-0.24374c0.0856-0.0812 0.17157-0.12184 0.25735-0.16247l0.34311-0.20308c0.0855-0.0405 0.17154-0.0405 0.25731-0.0812l0.37652-0.0973c0.0856-0.0405 0.21443-0.0405 0.30022-0.0812l0.38601-0.0405h0.30021l0.42888 0.0405c0.0856 0.0405 0.21444 0.0405 0.30023 0.0812l0.386 0.12185c0.0856 0.0405 0.17154 0.0405 0.25732 0.0812l0.34309 0.20307c0.0857 0.0405 0.17158 0.0812 0.25736 0.16247l0.30022 0.2437c0.0431 0.0812 0.0856 0.12185 0.12866 0.1625l0.25733 0.32494c0.0856 0.0812 0.12865 0.16246 0.17155 0.24371l0.21448 0.32495c0 0.0812 0.0431 0.16247 0.0856 0.24371l0.0858 0.36555c0.0431 0.0812 0.0431 0.16247 0.0856 0.24374l0.0431 0.40616v0.28434l-0.0431 0.40614c-0.0428 0.0812-0.0428 0.1625-0.0856 0.24375l-0.0858 0.40615c-0.0431 0.0812-0.0856 0.1219-0.0856 0.2031l-0.21448 0.36559c-0.043 0.0812-0.0856 0.16244-0.17155 0.24367l-0.25733 0.28432c-0.0431 0.0405-0.0856 0.12189-0.12866 0.16249l-0.30022 0.24372c-0.0856 0.0812-0.17154 0.12184-0.25736 0.20311l-0.34309 0.16244c-0.0856 0.0405-0.17159 0.0812-0.25732 0.12188l-0.386 0.12185c-0.0856 0-0.21446 0.0405-0.30023 0.0405l-0.42888 0.0405h-0.30021l-0.38601-0.0405c-0.0856 0-0.21443-0.0405-0.30022-0.0405l-0.386-0.12185c-0.0856-0.0405-0.17155-0.0812-0.25732-0.12188l-0.34312-0.16244c-0.0856-0.0812-0.17156-0.12185-0.25736-0.20311l-0.30015-0.24372c-0.0429-0.0405-0.12866-0.12185-0.17155-0.20308l-0.25734-0.28436c-0.0429-0.0812-0.0856-0.12184-0.12866-0.20305l-0.17155-0.36558c-0.0431-0.0812-0.0856-0.12185-0.0856-0.2031l-0.12871-0.40615c-0.0427-0.0812-0.0427-0.16248-0.0427-0.24375zm2.8734 0.16248-0.043-0.28433 0.0856 0.40617-0.0856-0.24371 0.21446 0.36557-0.17155-0.2437 0.25731 0.32492-0.17156-0.20308 0.30025 0.28433-0.25736-0.2031 0.34313 0.2031-0.25735-0.12186 0.386 0.12186-0.30023-0.0405 0.38599 0.0405h-0.30018l0.42886-0.0405-0.30023 0.0405 0.38601-0.12186-0.25732 0.12186 0.34311-0.2031-0.25733 0.2031 0.30023-0.28433-0.17155 0.16247 0.25734-0.28431-0.12869 0.2437 0.17153-0.36557-0.0856 0.24371 0.12867-0.40617-0.0856 0.28433 0.0432-0.4468v0.28432l-0.0432-0.4062 0.0856 0.24372-0.12867-0.36556 0.0856 0.20309-0.17153-0.32495 0.12869 0.2437-0.25734-0.32494 0.17155 0.16246-0.30023-0.24367 0.25733 0.16245-0.34311-0.16245 0.25732 0.0812-0.38601-0.12184 0.30023 0.0812-0.42886-0.0405h0.30018l-0.38599 0.0405 0.30023-0.0812-0.386 0.12184 0.25735-0.0812-0.34313 0.16245 0.25736-0.16245-0.30025 0.24367 0.17156-0.20308-0.25731 0.32495 0.17155-0.20309-0.21446 0.32495 0.0856-0.20309-0.0856 0.36556 0.043-0.24372-0.043 0.4062v-0.28432z" stroke="#000" stroke-width=".041739px"/>
  <path id="path3210" stroke-linejoin="round" d="m693.65 324.01v108.75h-1.5704v-108.75h1.5704zm3.9972 107.94-4.7585 4.7719-4.7584-4.7719h9.517z" stroke="#000" stroke-width=".033695px"/>
  <path id="path3212" stroke-linejoin="round" d="m698.92 400.41-12.786 8.0404 0.71294 0.85275 12.786-8.0811z" stroke="#000" stroke-width=".043934px"/>
  <text id="text3214" font-size="11.774px" xml:space="preserve" transform="scale(1.0819 .92430)" line-height="125%" y="435.40976" x="620.40918" font-family="Arial" fill="#000000"><tspan id="tspan3973" y="435.40976" x="620.40918">49</tspan></text>
  <path id="path3216" stroke-linejoin="round" d="m441.77 491.87c0-0.40681 0.26713-0.74582 0.58766-0.74582h51.587c0.33833 0 0.60542 0.33901 0.60542 0.74582v29.901c0 0.42939-0.26709 0.74582-0.60542 0.74582h-51.587c-0.32053 0-0.58766-0.31643-0.58766-0.74582zm1.1931 29.901-0.60543-0.74585h51.587l-0.58766 0.74585v-29.901l0.58766 0.74583h-51.587l0.60543-0.74583z" stroke="#000" stroke-width=".020062px"/>
  <text id="text3218" font-size="14.609px" xml:space="preserve" transform="scale(1.0819 .92430)" line-height="125%" y="558.96082" x="416.17892" font-family="Arial" fill="#000000">MUX</text>
  <path id="path3220" stroke-linejoin="round" d="m427.35 510.39h14.355v1.0152h-14.355z" stroke="#000" stroke-width=".021967px"/>
  <text id="text3222" font-size="13.006px" xml:space="preserve" transform="scale(1.0819 .92430)" line-height="125%" y="548.47046" x="379.24585" font-family="Arial" fill="#000000">MR</text>
  <text id="text3224" font-size="14.585px" xml:space="preserve" transform="matrix(.0018920 -.91149 1.0971 .0016164 0 0)" line-height="125%" y="637.92218" x="-566.26123" font-family="Arial" fill="#000000"><tspan id="tspan4437" y="637.92218" x="-566.26123">Rest of CPU</tspan></text>
  <text id="text3228" font-size="14.585px" xml:space="preserve" transform="matrix(.0018920 -.91149 1.0971 .0016164 0 0)" y="654.58368" x="-573.41364" font-family="Arial" fill="#000000">control </text>
  <text id="text3230" font-size="14.585px" xml:space="preserve" transform="matrix(.0018920 -.91149 1.0971 .0016164 0 0)" y="653.92853" x="-526.0824" font-family="Arial" fill="#000000">signals</text>
  <path id="path3232" stroke-linejoin="round" d="m658.65 376.55v-52.444h-1.1869v52.444z" stroke="#000" stroke-width=".045493px"/>
  <path id="path3234" stroke-linejoin="round" d="m472.15 521.36v12.405h-1.5685v-12.405h1.5685zm3.9687 11.046-4.7531 8.1216-4.7531-8.1216h9.5061z" stroke="#000" stroke-width=".021967px"/>
  <path id="path3236" stroke-linejoin="round" d="m531.17 491.77c0-0.41376 0.24508-0.78153 0.56019-0.78153h50.73c0.3151 0 0.56018 0.36777 0.56018 0.78153v30.436c0 0.41378-0.24508 0.73559-0.56018 0.73559h-50.73c-0.31511 0-0.56019-0.32181-0.56019-0.73559zm1.1553 30.436-0.59511-0.78153h50.73l-0.59513 0.78153v-30.436l0.59513 0.7816h-50.73l0.59511-0.7816z" stroke="#000" stroke-width=".040120px"/>
  <text id="text3238" font-size="14.609px" xml:space="preserve" transform="scale(1.0819 .92430)" line-height="125%" y="559.04114" x="498.13589" font-family="Arial" fill="#000000">MUX</text>
  <path id="path3240" stroke-linejoin="round" d="m518.37 510.27h14.331v1.0152h-14.331z" stroke="#000" stroke-width=".021967px"/>
  <text id="text3242" font-size="11.796px" line-height="125%" transform="scale(1.0819 .92430)" y="548.33038" x="467.49002" font-family="Arial" xml:space="preserve" fill="#000000">MR</text>
  <path id="path3244" stroke-linejoin="round" d="m558.68 521.21v12.425h-1.5685v-12.425h1.5685zm3.945 11.087-4.7531 8.1216-4.7531-8.1216h9.5061z" stroke="#000" stroke-width=".043934px"/>
  <path id="path3246" stroke-linejoin="round" d="m617.27 490.56c0-0.42199 0.23461-0.79718 0.53635-0.79718h48.574c0.30171 0 0.56989 0.37519 0.56989 0.79718v31.044c0 0.42203-0.26818 0.75028-0.56989 0.75028h-48.574c-0.30174 0-0.53635-0.32825-0.53635-0.75028zm1.1061 31.044-0.5699-0.79715h48.574l-0.56991 0.79715v-31.044l0.56991 0.7972h-48.574l0.5699-0.7972z" stroke="#000" stroke-width=".039648px"/>
  <text id="text3248" font-size="14.609px" xml:space="preserve" transform="scale(1.0819 .92430)" line-height="125%" y="558.34058" x="578.11365" font-family="Arial" fill="#000000">MUX</text>
  <path id="path3252" stroke-linejoin="round" d="m603.44 510.81h14.307v1.0152h-14.307z" stroke="#000" stroke-width=".043934px"/>
  <text id="text3254" font-size="11.796px" line-height="125%" transform="scale(1.0819 .92430)" y="548.90326" x="544.76959" font-family="Arial" xml:space="preserve" fill="#000000">MR</text>
  <path id="path3256" stroke-linejoin="round" d="m644.3 520.53v12.425h-1.5684v-12.425h1.5684zm3.9925 11.087-4.7531 8.1216-4.753-8.1216h9.5061z" stroke="#000" stroke-width=".043934px"/>
  <path id="path3258" stroke-linejoin="round" d="m485.15 340.45h58.763v1.0049h-58.763z" stroke="#000" stroke-width=".032386px"/>
  <path id="path3260" stroke-linejoin="round" d="m484.65 475.23 1.1436-134.93-1.3945-0.023-1.1436 134.96z" stroke="#000" stroke-width=".025367px"/>
  <path id="path3262" fill-rule="evenodd" d="m569.83 432.55c0-1.137 0.99816-2.0305 2.2816-2.0305 1.2358 0 2.234 0.89336 2.234 2.0305 0 1.137-0.99814 2.0305-2.234 2.0305-1.2834 0-2.2816-0.89339-2.2816-2.0305"/>
  <path id="path3264" stroke-linejoin="round" d="m568.03 432.68v-0.24365l0.0477-0.4467c0-0.0812 0.0479-0.16242 0.0479-0.24365l0.14259-0.36546c0.0477-0.0812 0.0477-0.16242 0.0952-0.20303l0.1901-0.36548c0.0478-0.0812 0.14258-0.16244 0.19014-0.24365l0.28519-0.28426c0.0478-0.0812 0.14258-0.12184 0.1901-0.16243l0.33273-0.28425c0.095-0.0405 0.19012-0.12184 0.28517-0.16244l0.38024-0.16243c0.095-0.0405 0.19012-0.0812 0.28518-0.12184l0.42778-0.12181c0.0952-0.0405 0.19014-0.0405 0.3327-0.0405l0.42777-0.0405c0.14261-0.0405 0.23765-0.0405 0.33273 0l0.47528 0.0405c0.0952 0 0.23766 0 0.33271 0.0405l0.42778 0.12181c0.0951 0.0405 0.1426 0.0812 0.23764 0.0812l0.38024 0.20304c0.095 0.0405 0.23769 0.12183 0.28521 0.16247l0.33272 0.28423c0.0948 0.0405 0.14256 0.12182 0.23762 0.16243l0.23764 0.32485c0.0952 0.0405 0.14259 0.12183 0.19014 0.20305l0.19014 0.36548c0.0478 0.0405 0.0952 0.1218 0.0952 0.20304l0.14262 0.36547c0.0477 0.0812 0.0477 0.16244 0.0477 0.24364l0.0479 0.44671v0.24362l-0.0479 0.4061c0 0.12184 0 0.20304-0.0477 0.28422l-0.14262 0.36548c0 0.0812-0.0478 0.16247-0.0952 0.20306l-0.19014 0.36548c-0.0479 0.0812-0.0949 0.16242-0.19014 0.20303l-0.23764 0.32486c-0.095 0.0405-0.1426 0.12184-0.23762 0.16244l-0.33272 0.28426c-0.0477 0.0405-0.19012 0.12181-0.28521 0.16242l-0.38024 0.16242c-0.0949 0.0405-0.14258 0.0812-0.23764 0.12186l-0.42778 0.12182c-0.0951 0.0405-0.23763 0.0405-0.33271 0.0405l-0.47528 0.0405c-0.0949 0.0405-0.19012 0.0405-0.33273 0l-0.42777-0.0405c-0.14256 0-0.23765 0-0.3327-0.0405l-0.42778-0.12182c-0.095-0.0405-0.1901-0.0812-0.28518-0.12186l-0.38024-0.16242c-0.0951-0.0405-0.19013-0.12181-0.28517-0.16242l-0.33273-0.28426c-0.0477-0.0405-0.14257-0.0812-0.1901-0.16244l-0.28519-0.28422c-0.0478-0.0812-0.14261-0.16245-0.19014-0.24367l-0.1901-0.36548c-0.0479-0.0405-0.0479-0.12181-0.0952-0.20306l-0.14259-0.36548c0-0.0812-0.0479-0.16238-0.0479-0.28422zm3.1844 0.16242-0.0478-0.24363 0.14261 0.36546-0.0948-0.20304 0.19013 0.32485-0.19013-0.24364 0.28517 0.32487-0.19015-0.16242 0.33272 0.24364-0.23761-0.16245 0.38021 0.16245-0.28517-0.0812 0.42776 0.12182-0.33271-0.0812 0.42775 0.0405h-0.3327l0.47531-0.0405-0.38024 0.0812 0.42777-0.12182-0.23765 0.0812 0.38024-0.20303-0.28519 0.20303 0.33274-0.24364-0.19014 0.16242 0.28519-0.28426-0.19013 0.20303 0.19013-0.32485-0.095 0.20304 0.14259-0.36546-0.0478 0.24363 0.0478-0.40607v0.24365l-0.0478-0.40606 0.0478 0.24363-0.14259-0.36548 0.095 0.20304-0.19013-0.32486 0.19013 0.20303-0.28519-0.28425 0.19014 0.16244-0.33274-0.24364 0.28519 0.16242-0.38024-0.16242 0.23765 0.0812-0.42777-0.1218 0.38024 0.0812-0.47531-0.0405h0.3327l-0.42775 0.0405 0.33271-0.0812-0.42776 0.1218 0.28517-0.0812-0.38021 0.16242 0.23761-0.16242-0.33272 0.24364 0.19015-0.16244-0.28517 0.32489 0.19013-0.24367-0.19013 0.32486 0.0948-0.20304-0.14261 0.36548 0.0478-0.24363-0.0478 0.40606v-0.24365z" stroke="#000" stroke-width=".043934px"/>
  <path id="path3266" fill-rule="evenodd" d="m484.09 432.99c0-1.1167 1.0219-2.0305 2.2577-2.0305 1.2596 0 2.2577 0.91368 2.2577 2.0305 0 1.137-0.99804 2.0507-2.2577 2.0507-1.2358 0-2.2577-0.91371-2.2577-2.0507"/>
  <path id="path3268" stroke-linejoin="round" d="m481.44 433.13v-0.26394l0.0478-0.4264c0.0235-0.0812 0.0235-0.16244 0.0711-0.24363l0.11881-0.38579c0.0234-0.0607 0.071-0.14212 0.0949-0.20305l0.21388-0.34517c0.0478-0.10155 0.0952-0.18273 0.16638-0.24363l0.28516-0.30456c0.0711-0.061 0.11886-0.12184 0.19013-0.16245l0.3327-0.26393c0.0951-0.0611 0.19013-0.12184 0.28518-0.16245l0.38029-0.18274c0.0711-0.0405 0.16632-0.0812 0.26139-0.10152l0.42778-0.12183c0.11882-0.0405 0.23765-0.0608 0.3327-0.0608l0.45151-0.0405c0.11886-0.0203 0.23765-0.0203 0.33274 0l0.45153 0.0405c0.11882 0 0.23766 0.0203 0.35648 0.0608l0.42776 0.12183c0.0949 0.0203 0.16636 0.0607 0.26144 0.10152l0.38023 0.18274c0.0949 0.0405 0.19012 0.10156 0.28517 0.16245l0.33272 0.26393c0.071 0.0405 0.11882 0.10154 0.19012 0.16245l0.28516 0.30456c0.0478 0.0608 0.11883 0.14211 0.16638 0.24363l0.21391 0.34517c0.0234 0.0609 0.0709 0.14214 0.095 0.20305l0.11882 0.38579c0.0478 0.0812 0.0478 0.16242 0.071 0.24363l0.0478 0.4264v0.26394l-0.0478 0.40609c-0.0235 0.10153-0.0235 0.18274-0.071 0.24362l-0.11882 0.3858c-0.0234 0.0812-0.071 0.16242-0.095 0.24364l-0.21391 0.34517c-0.0478 0.0812-0.11884 0.16243-0.16638 0.24366l-0.28516 0.30454c-0.0711 0.0608-0.11884 0.10156-0.19012 0.16242l-0.33272 0.24368c-0.095 0.0606-0.19011 0.12182-0.28517 0.18272l-0.38023 0.18274c-0.095 0.0405-0.16638 0.0609-0.26144 0.10155l-0.42776 0.12181c-0.11883 0.0203-0.23766 0.0405-0.35648 0.0609l-0.45153 0.0405h-0.33274l-0.45151-0.0405c-0.0953-0.0203-0.21388-0.0405-0.3327-0.0609l-0.42778-0.12181c-0.0951-0.0405-0.19011-0.0607-0.26139-0.10155l-0.38029-0.18274c-0.0952-0.061-0.19011-0.1218-0.28518-0.18272l-0.3327-0.24368-0.19013-0.16242-0.28516-0.30454c-0.0709-0.0812-0.11885-0.16242-0.16638-0.24366l-0.21388-0.34517c-0.0235-0.0812-0.0711-0.16241-0.0949-0.24364l-0.14257-0.3858c-0.0235-0.0608-0.0235-0.14211-0.0478-0.24362zm3.2084 0.14213-0.0478-0.24366 0.11884 0.38578-0.095-0.22333 0.1901 0.34517-0.16634-0.24366 0.28517 0.30458-0.19007-0.16247 0.33268 0.26399-0.28517-0.18274 0.38023 0.18274-0.26142-0.10157 0.42775 0.12185-0.35647-0.0609 0.45155 0.0405h-0.33273l0.45156-0.0405-0.3327 0.0609 0.42776-0.12185-0.26141 0.10157 0.38025-0.18274-0.28519 0.18274 0.3327-0.26399-0.19011 0.16247 0.28516-0.30458-0.16633 0.24366 0.19013-0.34517-0.0951 0.22333 0.11883-0.38578-0.0477 0.24366 0.0477-0.40607v0.26394l-0.0477-0.42639 0.0709 0.26396-0.14257-0.38575 0.0951 0.22332-0.19013-0.34517 0.16638 0.24364-0.28522-0.30454 0.19013 0.16245-0.3327-0.24367 0.28519 0.16242-0.38025-0.18272 0.26141 0.10154-0.42777-0.12184 0.33275 0.0609-0.45158-0.0405h0.33271l-0.45153 0.0405 0.35649-0.0609-0.42777 0.12184 0.26139-0.10154-0.38022 0.18272 0.28518-0.16242-0.33274 0.24367 0.19012-0.16245-0.28515 0.30454 0.16635-0.24364-0.19013 0.34517 0.0952-0.22332-0.14258 0.38575 0.071-0.26396-0.0478 0.42639v-0.26394z" stroke="#000" stroke-width=".021967px"/>
  <path id="path3270" stroke-linejoin="round" d="m484.71 464.04v20.461h-1.5685v-20.461h1.5685zm3.9688 19.02-4.753 8.606-4.7531-8.606h9.5061z" stroke="#000" stroke-width=".022611px"/>
  <path id="path3272" stroke-linejoin="round" d="m490.51 472.49-12.786 8.0608 0.6892 0.81218 12.786-8.0608z" stroke="#000" stroke-width=".021967px"/>
  <text id="text3274" font-size="11.775px" xml:space="preserve" transform="scale(1.0819 .92430)" y="516.13861" x="437.36517" font-family="Arial" fill="#000000">5</text>
  <path id="path3276" stroke-linejoin="round" d="m572.78 432.25-12.313-0.19344-0.0297 1.3405 12.361 0.19541-0.0177-1.3425zm-10.694-3.5404-9.5528 3.9074 9.4168 4.2184 0.1358-8.1256z" stroke="#000" stroke-width=".043934px"/>
  <path id="path3278" stroke-linejoin="round" d="m572.27 473.01v-133.69h-1.1717v133.69z" stroke="#000" stroke-width=".059836px"/>
  <path id="path3280" stroke-linejoin="round" d="m542.85 341.48-0.28139-18.644 1.2075-0.007 0.28139 18.644z" stroke="#000" stroke-width=".039748px"/>
  <path id="path3282" stroke-linejoin="round" d="m572.64 465.17v19.29h-1.5684v-19.29h1.5684zm3.9924 17.949-4.753 8.1216-4.7531-8.1216h9.5061z" stroke="#000" stroke-width=".043934px"/>
  <path id="path3284" stroke-linejoin="round" d="m578.43 472.84-12.786 8.0811 0.71298 0.81214 12.786-8.0811z" stroke="#000" stroke-width=".043934px"/>
  <text id="text3286" font-size="11.775px" xml:space="preserve" transform="scale(1.0819 .92430)" y="514.98816" x="516.71332" font-family="Arial" fill="#000000">5</text>
  <path id="path3290" stroke-linejoin="round" d="m658.4 434.66-12.153 0.1433 0.004-1.3456 12.148-0.18375 0.00026 1.386zm-10.471 3.4816-9.6148-3.9211 9.4448-4.1785 0.17008 8.0996z" stroke="#000" stroke-width=".043934px"/>
  <path id="path3292" stroke-linejoin="round" d="m658.43 474.59v-98.885h-1.1784v98.885z" stroke="#000" stroke-width=".052924px"/>
  <path id="path3296" stroke-linejoin="round" d="m664.42 470.03-12.786 8.0811 0.71295 0.81215 12.786-8.0404z" stroke="#000" stroke-width=".043934px"/>
  <text id="text3298" font-size="11.775px" xml:space="preserve" transform="scale(1.0819 .92430)" y="513.3446" x="596.40656" font-family="Arial" fill="#000000">5</text>
  <path id="path3300" stroke-linejoin="round" d="m658.63 463.63v19.331h-1.5685v-19.331h1.5685zm3.945 17.949-4.7531 8.1216-4.7531-8.1216h9.506z" stroke="#000" stroke-width=".043934px"/>
  <path id="path3302" stroke-linejoin="round" d="m740.3 486.65c0-0.42394 0.26835-0.80073 0.57022-0.80073h48.57c0.33545 0 0.57021 0.37679 0.57021 0.80073v31.183c0 0.42394-0.23476 0.75365-0.57021 0.75365h-48.57c-0.30187 0-0.57022-0.32971-0.57022-0.75365zm1.1068 31.183-0.53671-0.80071h48.57l-0.53668 0.80071v-31.183l0.53668 0.80069h-48.57l0.53671-0.80069z" stroke="#000" stroke-width=".039749px"/>
  <text id="text3304" font-size="14.609px" xml:space="preserve" transform="scale(1.0819 .92430)" line-height="125%" y="553.78021" x="690.2793" font-family="Arial" fill="#000000">MUX</text>
  <path id="path3306" stroke-linejoin="round" d="m789.95 503.77h14.355v1.0152h-14.355z" stroke="#000" stroke-width=".043934px"/>
  <path id="path3308" stroke-linejoin="round" d="m764.82 518.06v12.425h-1.616v-12.425h1.616zm3.945 11.087-4.753 8.1216-4.7531-8.1216h9.5061z" stroke="#000" stroke-width=".043934px"/>
  <path id="path3310" stroke-linejoin="round" d="m740.86 294.74c0-0.36544 0.43159-0.69023 0.98651-0.69023h58.263c0.55493 0 1.0482 0.32479 1.0482 0.69023v28.298c0 0.3654-0.49321 0.69021-1.0482 0.69021h-58.263c-0.55491 0-0.98651-0.32481-0.98651-0.69021zm1.4948 28.347-0.50845-0.73817h58.263l-0.46261 0.94103 0.0874-28.632 0.37529 0.77382h-58.263l0.55752-0.59424z" stroke="#000" stroke-width=".050033px"/>
  <text id="text3312" font-size="14.358px" xml:space="preserve" transform="scale(1.0819 .92430)" line-height="125%" y="339.28311" x="688.90088" font-family="Arial" fill="#000000">SelCop</text>
  <path id="path3314" fill-rule="evenodd" d="m656.54 434.15c0-1.137 0.99814-2.071 2.2815-2.071 1.2358 0 2.234 0.93393 2.234 2.071 0 1.137-0.99814 2.0305-2.234 2.0305-1.2833 0-2.2815-0.89338-2.2815-2.0305"/>
  <path id="path3316" stroke-linejoin="round" d="m654.21 433.94v-0.24365l0.0478-0.44668c0-0.0812 0.0478-0.16246 0.0478-0.24367l0.14256-0.36548c0.0478-0.0812 0.0478-0.16242 0.095-0.24363l0.23763-0.32488c0.0477-0.0812 0.095-0.16242 0.14257-0.24365l0.2852-0.28426c0.0479-0.0812 0.0948-0.12181 0.19014-0.20302l0.33271-0.24366c0.0951-0.0812 0.19013-0.12181 0.28518-0.16242l0.38023-0.20307c0.0953-0.0405 0.19014-0.0405 0.28519-0.0812l0.42778-0.12182c0.0953-0.0405 0.1901-0.0405 0.33273-0.0812l0.42776-0.0405h0.3327l0.4753 0.0405c0.0949 0.0405 0.19009 0.0405 0.33272 0.0812l0.42775 0.12182c0.0948 0.0405 0.19014 0.0405 0.28521 0.0812l0.38022 0.20307c0.0951 0.0405 0.19014 0.0812 0.23768 0.16242l0.33267 0.24366 0.19014 0.16241 0.28518 0.32487c0.0951 0.0812 0.1426 0.16244 0.1901 0.24365l0.19014 0.32488c0.0479 0.0812 0.0951 0.16244 0.0951 0.24363l0.14256 0.36548c0.0478 0.0812 0.0478 0.16242 0.0478 0.24367l0.0478 0.44668c0.0478 0.0812 0.0478 0.16241 0 0.24365l-0.0478 0.40607c0 0.12181 0 0.20304-0.0478 0.28427l-0.14256 0.36546c0 0.0812-0.0477 0.16242-0.0951 0.20302l-0.19014 0.36548c-0.0478 0.0812-0.0948 0.16242-0.1901 0.24366l-0.28518 0.28425c-0.0478 0.0812-0.0953 0.12182-0.19014 0.16243l-0.33267 0.28427c-0.0479 0.0405-0.14261 0.12181-0.23768 0.16242l-0.38022 0.16244c-0.0949 0.0405-0.19012 0.0812-0.28521 0.12182l-0.42775 0.12183c-0.14263 0.0405-0.23764 0.0405-0.33272 0.0405l-0.4753 0.0405c-0.0952 0.0405-0.19014 0.0405-0.3327 0l-0.42776-0.0405c-0.14263 0-0.23766 0-0.33273-0.0405l-0.42778-0.12183c-0.0953-0.0405-0.19012-0.0812-0.28519-0.12182l-0.38023-0.16244c-0.0951-0.0405-0.19012-0.12183-0.28518-0.16242l-0.33271-0.28427c-0.0952-0.0405-0.14259-0.1218-0.19014-0.16243l-0.2852-0.32484c-0.0478-0.0405-0.0949-0.12183-0.14257-0.20307l-0.23763-0.36548c0-0.0405-0.0478-0.1218-0.095-0.20302l-0.0952-0.36546c-0.0479-0.0812-0.0951-0.16246-0.0951-0.28427zm3.2321 0.16243-0.095-0.24367 0.14261 0.3655-0.0952-0.20306 0.1901 0.32487-0.14257-0.20306 0.28518 0.28428-0.23766-0.16244 0.33271 0.24364-0.23766-0.16242 0.38026 0.16242-0.28518-0.0812 0.42777 0.1218-0.33272-0.0812 0.42776 0.0405h-0.33273l0.47533-0.0405-0.33272 0.0812 0.42779-0.1218-0.28518 0.0812 0.38022-0.16242-0.28517 0.16242 0.3327-0.24364-0.19012 0.16244 0.28519-0.32486-0.19012 0.24364 0.23764-0.32487-0.0952 0.20306 0.0952-0.3655-0.0478 0.24367 0.0478-0.40608v0.24365l-0.0478-0.40609 0.0478 0.24365-0.14259-0.40609 0.14259 0.24366-0.23764-0.32488 0.19012 0.24366-0.28519-0.32485 0.19012 0.16241-0.3327-0.24365 0.28517 0.16243-0.38022-0.16243 0.28518 0.0812-0.42779-0.12184 0.33272 0.0812-0.47533-0.0405h0.33273l-0.42776 0.0405 0.33272-0.0812-0.42777 0.12184 0.28518-0.0812-0.38026 0.16243 0.23766-0.16243-0.33271 0.24365 0.23766-0.20305-0.28518 0.32487 0.14257-0.20304-0.1901 0.32488 0.0952-0.24366-0.14261 0.40609 0.095-0.24365-0.0477 0.40609v-0.24365z" stroke="#000" stroke-width=".043934px"/>
  <path id="path3318" stroke-linejoin="round" d="m775.1 362.31 0.32836 118.27-1.569-0.007-0.32836-118.27 1.569 0.007zm4.2886 117.05-4.7388 6.9719-4.7716-6.9574 9.5104-0.0142z" stroke="#000" stroke-width=".040691px"/>
  <path id="path3320" stroke-linejoin="round" d="m753.78 359.67 0.47479 117.09h-1.5668l-0.5223-117.03 1.6143-0.06zm4.4155 115.05-4.7005 11.947-4.7956-11.888 9.496-0.0599z" stroke="#000" stroke-width=".053258px"/>
  <text id="text3322" font-size="13.75px" xml:space="preserve" transform="scale(1.0819 .92430)" line-height="125%" y="540.20728" x="734.75153" font-family="Arial" fill="#000000">MC</text>
  <path id="path3324" stroke-linejoin="round" d="m778.3 455.47-12.786 8.0811 0.71293 0.81215 12.786-8.0404z" stroke="#000" stroke-width=".043934px"/>
  <path id="path3326" stroke-linejoin="round" d="m748.74 435.39-9.7306 5.3423 0.50639 0.56658 9.7306-5.3692z" stroke="#000" stroke-width=".031240px"/>
  <text id="text3328" font-size="11.775px" xml:space="preserve" transform="matrix(-.077618 -.97368 1.0217 -.066315 0 0)" y="693.70172" x="-522.71844" font-family="Arial" line-height="125%" fill="#000000"><tspan id="tspan4439" y="693.70172" x="-522.71844">IR3 -- IR0</tspan></text>
  <text id="text3330" font-size="11.775px" xml:space="preserve" transform="scale(1.0819 .92430)" y="497.54861" x="701.95819" font-family="Arial" fill="#000000">4</text>
  <text id="text3332" font-size="11.775px" xml:space="preserve" transform="scale(1.0819 .92430)" y="515.11987" x="410.34479" font-family="Arial" fill="#000000">5</text>
  <text id="text3334" font-size="11.775px" xml:space="preserve" transform="scale(1.0819 .92430)" y="514.53955" x="491.75101" font-family="Arial" fill="#000000">5</text>
  <text id="text3336" font-size="11.775px" xml:space="preserve" transform="scale(1.0819 .92430)" y="512.28473" x="569.47327" font-family="Arial" fill="#000000">5</text>
  <text id="text3338" font-size="10.869px" xml:space="preserve" transform="scale(1.0819 .92430)" line-height="125%" y="542.93292" x="417.45389" font-family="Arial" fill="#000000">0</text>
  <text id="text3340" font-size="10.869px" xml:space="preserve" transform="scale(1.0819 .92430)" line-height="125%" y="543.18256" x="443.08658" font-family="Arial" fill="#000000">1</text>
  <text id="text3342" font-size="14.585px" xml:space="preserve" transform="scale(1.0819 .92430)" y="599.20789" x="505.71411" font-family="Arial" fill="#000000">RB</text>
  <text id="text3344" font-size="14.585px" xml:space="preserve" transform="scale(1.0819 .92430)" y="598.15717" x="584.85925" font-family="Arial" fill="#000000">RC</text>
  <text id="text3346" font-size="14.585px" xml:space="preserve" transform="scale(1.0819 .92430)" y="598.69604" x="426.11392" font-family="Arial" fill="#000000">RA</text>
  <text id="text3348" font-size="14.585px" xml:space="preserve" transform="scale(1.0819 .92430)" y="596.54034" x="693.49847" font-family="Arial" fill="#000000">Cop</text>
  <text id="text3350" font-size="10.869px" xml:space="preserve" transform="scale(1.0819 .92430)" line-height="125%" y="542.93292" x="499.92523" font-family="Arial" fill="#000000">0</text>
  <text id="text3352" font-size="10.869px" xml:space="preserve" transform="scale(1.0819 .92430)" line-height="125%" y="543.1825" x="524.85211" font-family="Arial" fill="#000000">1</text>
  <text id="text3354" font-size="10.869px" xml:space="preserve" transform="scale(1.0819 .92430)" line-height="125%" y="538.14484" x="694.15869" font-family="Arial" fill="#000000">0</text>
  <text id="text3356" font-size="10.869px" xml:space="preserve" transform="scale(1.0819 .92430)" line-height="125%" y="537.54944" x="713.37256" font-family="Arial" fill="#000000">1</text>
  <text id="text3358" font-size="13.41px" xml:space="preserve" transform="scale(1.0819 .92430)" line-height="125%" y="168.666" x="255.14151" font-family="Arial" fill="#000000">A1</text>
  <text id="text3362" font-size="17.574px" xml:space="preserve" transform="scale(1.0819 .92430)" y="279.11591" x="248.63622" font-family="Arial" fill="#000000">MUX B</text>
  <path id="path3364" stroke-linejoin="round" d="m260.99 279.34c0 0.3858 0.24562 0.69039 0.579 0.69039h72.957c0.31581 0 0.57901-0.30459 0.57901-0.69039v-43.188c0-0.3655-0.2632-0.67009-0.57901-0.67009h-72.957c-0.33338 0-0.579 0.30459-0.579 0.67009zm1.158-43.188-0.579 0.67009h72.957l-0.57904-0.67009v43.188l0.57904-0.67008h-72.957l0.579 0.67008z" stroke="#000" stroke-width=".018875px"/>
  <text id="text3366" font-size="12.19px" xml:space="preserve" transform="scale(1.0819 .92430)" line-height="125%" y="295.76691" x="259.91321" font-family="Arial" fill="#000000">0</text>
  <text id="text3368" font-size="12.19px" xml:space="preserve" transform="scale(1.0819 .92430)" line-height="125%" y="296.0163" x="285.41071" font-family="Arial" fill="#000000">1</text>
  <path id="path3372" stroke-linejoin="round" d="m313.7 298.94v-12.425h-1.5922v12.425h1.5922zm3.945-11.066-4.7531-8.1216-4.753 8.1216h9.506z" stroke="#000" stroke-width=".021967px"/>
  <text id="text3374" font-size="13.41px" xml:space="preserve" transform="scale(1.0819 .92430)" line-height="125%" y="74.253319" x="215.96738" font-family="Arial" fill="#000000">00</text>
  <text id="text3376" font-size="13.41px" xml:space="preserve" transform="scale(1.0819 .92430)" line-height="125%" y="100.85803" x="215.96738" font-family="Arial" fill="#000000"><tspan id="tspan5996" y="100.85803" x="215.96738">01</tspan></text>
  <text id="text3378" font-size="13.41px" xml:space="preserve" transform="scale(1.0819 .92430)" line-height="125%" y="127.46272" x="215.17986" font-family="Arial" fill="#000000"><tspan id="tspan5998" y="127.46272" x="215.17986">10</tspan></text>
  <text id="text3380" font-size="13.41px" xml:space="preserve" transform="scale(1.0819 .92430)" line-height="125%" y="154.06744" x="215.17986" font-family="Arial" fill="#000000">11</text>
  <path id="path3382" fill-rule="evenodd" fill="#fff" d="m304.03 321.88 8.9831-15.35 8.9833 15.35z"/>
  <path id="path3384" stroke-linejoin="round" d="m304.03 318.38c-0.21393 0-0.40405-0.0769-0.52292-0.18397-0.0949-0.1226-0.11882-0.26056-0.0235-0.36784l8.9846-11.588c0.095-0.13794 0.309-0.21459 0.54669-0.21459 0.21391 0 0.42783 0.0768 0.52291 0.21459l8.9847 11.588c0.0952 0.10728 0.071 0.24524-0.0235 0.36784-0.11884 0.1073-0.30899 0.18397-0.49914 0.18397zm17.97-0.76637-0.54668 0.55179-8.9846-11.588h1.0696l-8.9846 11.588-0.52291-0.55179z" stroke="#000" stroke-width=".019088px"/>
  <path id="path3386" fill-rule="evenodd" fill="#fff" d="m308.38 303.22c0-2.1116 2.0199-3.8373 4.4915-3.8373 2.4954 0 4.4916 1.7257 4.4916 3.8373s-1.9963 3.8373-4.4916 3.8373c-2.4717 0-4.4915-1.7257-4.4915-3.8373"/>
  <path id="path3388" stroke-linejoin="round" d="m307.81 303.29c-0.0235-0.0405-0.0235-0.0812 0-0.12185l0.0951-0.77153c0-0.0203 0-0.0609 0.0235-0.0812l0.2614-0.73095c0-0.0203 0.0235-0.0608 0.0235-0.0812l0.40401-0.64974c0.0235-0.0405 0.0477-0.0606 0.0709-0.10156l0.57036-0.56851 0.0711-0.0608 0.66545-0.46699c0.0235-0.0203 0.0712-0.0405 0.095-0.0405l0.76046-0.36548c0.0234-0.0203 0.0711-0.0203 0.11885-0.0405l0.83178-0.22336c0.0478 0 0.0711-0.0203 0.11885-0.0203l0.90304-0.0812h0.11884l0.90305 0.0812c0.0478 0 0.0712 0.0203 0.11884 0.0203l0.83178 0.22336c0.0478 0.0203 0.0712 0.0203 0.11886 0.0405l0.76046 0.36548c0.0235 0 0.0711 0.0203 0.0948 0.0405l0.66546 0.46699 0.0711 0.0608 0.57039 0.56851c0.0235 0.0405 0.0478 0.0609 0.0712 0.10156l0.40401 0.64974c0 0.0203 0.0235 0.061 0.0235 0.0812l0.26142 0.73095c0.0234 0.0203 0.0234 0.061 0.0234 0.0812l0.0953 0.77153c0.0235 0.0405 0.0235 0.0812 0 0.12185l-0.0953 0.77154c0 0.0203 0 0.0608-0.0234 0.0812l-0.26142 0.73094c0 0.0203-0.0235 0.0608-0.0235 0.0812l-0.40401 0.64974c-0.0235 0.0405-0.0478 0.0611-0.0712 0.10156l-0.57039 0.56851-0.0711 0.0608-0.66546 0.467c-0.0235 0.0203-0.0712 0.0405-0.0948 0.0609l-0.76046 0.34518c-0.0478 0.0203-0.071 0.0203-0.11886 0.0405l-0.83178 0.22334c-0.0478 0-0.0712 0.0202-0.11884 0.0202l-0.90305 0.0812h-0.11884l-0.90304-0.0812c-0.0478 0-0.0712-0.0202-0.11885-0.0202l-0.83178-0.22334c-0.0478-0.0203-0.0712-0.0203-0.11885-0.0405l-0.76046-0.34518c-0.0235-0.0203-0.0712-0.0405-0.095-0.0609l-0.66545-0.467-0.0711-0.0608-0.57036-0.56851c-0.0236-0.0405-0.0479-0.0608-0.0709-0.10156l-0.40401-0.64974c0-0.0204-0.0235-0.0609-0.0235-0.0812l-0.2614-0.73094c-0.0235-0.0202-0.0235-0.0607-0.0235-0.0812zm1.2596 0.64971-0.0235-0.0812 0.2614 0.71065-0.0234-0.0812 0.40399 0.64975-0.0711-0.10155 0.54662 0.56852-0.0712-0.0608 0.66541 0.48731-0.0948-0.0608 0.76053 0.34517-0.11888-0.0405 0.85558 0.22335-0.11884-0.0203 0.90305 0.0812h-0.11884l0.90311-0.0812-0.11884 0.0203 0.85555-0.22335-0.11886 0.0405 0.7605-0.34517-0.095 0.0608 0.66541-0.48731-0.0711 0.0608 0.54659-0.56852-0.0709 0.10155 0.40398-0.64975-0.0235 0.0812 0.26142-0.71065-0.0235 0.0812 0.095-0.77156v0.12185l-0.095-0.77153 0.0235 0.0812-0.26142-0.71062 0.0235 0.0812-0.40398-0.64974 0.0709 0.10155-0.54659-0.56849 0.0711 0.0607-0.66541-0.46697 0.095 0.0405-0.7605-0.34517 0.11886 0.0405-0.85555-0.22333 0.11884 0.0203-0.90311-0.0812h0.11884l-0.90305 0.0812 0.11884-0.0203-0.85558 0.22333 0.11888-0.0405-0.76053 0.34517 0.0948-0.0405-0.66541 0.46697 0.0712-0.0607-0.54662 0.56849 0.0711-0.10155-0.40399 0.64974 0.0234-0.0812-0.2614 0.71062 0.0235-0.0812-0.0951 0.77153v-0.12185z" stroke="#000" stroke-width=".021967px"/>
  <path id="path3390" stroke-linejoin="round" d="m313.96 333.03v-15.35h-1.1882v15.35z" stroke="#000" stroke-width=".021967px"/>
  <path id="path3392" stroke-linejoin="round" d="m285.62 332.28h27.547v1.018h-27.547z" stroke="#000" stroke-width=".019065px"/>
  <path id="path3394" fill-rule="evenodd" fill="#d9d9d9" d="m431.01 294.28v29.786h22.585v-29.786h-22.585z"/>
  <path id="path3398" fill-rule="evenodd" fill="#d9d9d9" d="m451.61 294.28v29.786h31.442v-29.786h-31.442z"/>
  <path id="path3400" stroke-linejoin="round" d="m454.82 294.47c0-0.35386 0.2924-0.64877 0.6892-0.64877h27.63c0.37592 0 0.68922 0.29491 0.68922 0.64877v28.841c0 0.35386-0.3133 0.64874-0.68922 0.64874h-27.63c-0.3968 0-0.6892-0.29488-0.6892-0.64874zm1.3784 28.841-0.68916-0.64876h27.63l-0.71006 0.64876v-28.841l0.71006 0.64877h-27.63l0.68916-0.64877z" stroke="#000" stroke-width=".020263px"/>
  <path id="path3402" fill-rule="evenodd" fill="#d9d9d9" d="m407.97 294.28v29.786h22.42v-29.786h-22.42z"/>
  <path id="path3404" stroke-linejoin="round" d="m406.6 294.47c0-0.35381 0.43019-0.64865 1.014-0.64865h22.832c0.55308 0 1.014 0.29484 1.014 0.64865v28.837c0 0.35382-0.46093 0.64865-1.014 0.64865h-22.832c-0.58383 0-1.014-0.29483-1.014-0.64865zm2.028 28.837-1.0141-0.64868h22.832l-1.0448 0.64868v-28.837l1.0448 0.64866h-22.832l1.0141-0.64866z" stroke="#000" stroke-width=".024577px"/>
  <text id="text3406" font-size="14.155px" xml:space="preserve" transform="scale(1.0819 .92430)" line-height="125%" y="340.59579" x="425.25623" font-family="Arial" fill="#000000">A0</text>
  <text id="text3408" font-size="15.334px" xml:space="preserve" transform="scale(1.0819 .92430)" line-height="125%" y="340.78174" x="403.85544" font-family="Arial" fill="#000000">B</text>
  <text id="text3410" font-size="15.334px" xml:space="preserve" transform="scale(1.0819 .92430)" line-height="125%" y="341.24219" x="381.87073" font-family="Arial" fill="#000000">C</text>
  <text id="text3412" font-size="14.585px" xml:space="preserve" transform="scale(1.0819 .92430)" y="195.72179" x="449.20035" font-family="Arial" fill="#000000">µAddress</text>
  <path id="path3414" stroke-linejoin="round" d="m420.99 323.75v88.734h-1.1477v-88.734z" stroke="#000" stroke-width=".035623px"/>
  <path id="path3416" stroke-linejoin="round" d="m579.05 189.15v52.442h-1.174v-52.442z" stroke="#000" stroke-width=".035814px"/>
  <path id="path3418" stroke-linejoin="round" d="m522.4 288.58 0.0372-2.3558 0.11136-2.2339 0.0745-1.056 0.11136-0.97482 0.11136-0.9342 0.11138-0.81231 0.11138-0.81233 0.14845-0.69047 0.14851-0.60925 0.18559-0.528 0.14849-0.40619c0.0373-0.0405 0.0373-0.0812 0.0373-0.0812l0.18562-0.28432c0.0372-0.0405 0.0372-0.0812 0.0742-0.0812l0.1856-0.20309c0.0373-0.0405 0.11137-0.0812 0.18561-0.12186l0.18562-0.0405c0.0372-0.0405 0.0743-0.0405 0.11136-0.0405h53.9l-0.14845 0.0405 0.18558-0.0812-0.18558 0.12182 0.18558-0.16244-0.0741 0.0812 0.18558-0.28429-0.0373 0.0812 0.14849-0.40618 0.14848-0.44679 0.14848-0.56863 0.11136-0.64985 0.14849-0.7311 0.11136-0.81234 0.0744-0.89355 0.11138-0.97482 0.0744-1.0153 0.0742-2.1933 0.0374-2.3557c0.0372-0.28431 0.22271-0.4874 0.48256-0.4874 0.25987 0 0.44544 0.20309 0.44544 0.4874l0.0372 2.3963 0.11139 2.1527 0.0743 1.0153 0.11138 0.97482 0.0744 0.89355 0.11135 0.81234 0.14849 0.7311 0.11135 0.64985 0.14849 0.56863 0.1485 0.48741 0.14847 0.36555-0.0372-0.0812 0.18563 0.28429-0.0743-0.0812 0.18561 0.16244-0.18561-0.12181 0.18561 0.0812-0.14847-0.0405h53.9c0.037 0 0.074 0 0.1113 0.0405l0.1857 0.0405c0.074 0.0405 0.1485 0.0812 0.1855 0.12187l0.1857 0.20308c0.037 0 0.037 0.0405 0.074 0.0812l0.1855 0.28432s0 0.0405 0.037 0.0812l0.1485 0.36555 0.1857 0.56864 0.1484 0.60925 0.1485 0.69045 0.1114 0.77172 0.1114 0.85294 0.1113 0.9342 0.1114 0.97482 0.074 1.0153 0.074 2.2339 0.037 2.3964h-0.9281l-0.037-2.3558-0.074-2.1933-0.074-0.97481-0.1114-0.97482-0.074-0.89357-0.1114-0.81233-0.1484-0.7717-0.1114-0.60925-0.1485-0.56863-0.1485-0.48739-0.1485-0.36553 0.037 0.0812-0.1856-0.28432 0.074 0.0812-0.1856-0.20306 0.1856 0.12183-0.1856-0.0405h0.1485-53.9-0.11136l-0.18561-0.0812c-0.0742 0-0.14848-0.0405-0.1856-0.12187l-0.18559-0.16248c-0.0372-0.0405-0.0372-0.0812-0.0744-0.0812l-0.18559-0.28434c0-0.0405 0-0.0812-0.0372-0.0812l-0.1485-0.44678-0.18559-0.52803-0.1485-0.60922-0.14848-0.69048-0.11136-0.77172-0.11137-0.85297-0.11135-0.89353-0.11138-1.0153-0.0743-1.0153-0.11139-2.234-0.0373-2.3557h0.92798l-0.0373 2.3557-0.0742 2.234-0.0743 1.056-0.11138 0.97482-0.11135 0.89352-0.11136 0.85297-0.11138 0.77172-0.14846 0.73109-0.14851 0.60925-0.18562 0.52802-0.14849 0.40616c-0.0373 0-0.0373 0.0405-0.0373 0.0812l-0.18561 0.28434c-0.0373 0-0.0373 0.0405-0.0741 0.0812l-0.18562 0.16249c-0.0372 0.0812-0.11136 0.12185-0.18558 0.12185l-0.18563 0.0812h-0.11136-53.9 0.14847l-0.1856 0.0405 0.1856-0.12183-0.1856 0.20307 0.0741-0.0812-0.1856 0.28432 0.0373-0.0812-0.14852 0.36553-0.14847 0.44678-0.14848 0.56864-0.11137 0.64984-0.14848 0.73111-0.11135 0.81232-0.0742 0.9342-0.11137 0.9342-0.0743 1.0153-0.11134 2.1933-0.0372 2.3558z" stroke="#000" stroke-width=".038831px"/>
  <path id="path3422" stroke-linejoin="round" d="m120.17 500.29c0-0.33348 0.33046-0.57921 0.727-0.57921h23.969c0.41856 0 0.74902 0.24573 0.74902 0.57921v24.344c0 0.31593-0.33046 0.57919-0.74902 0.57919h-23.969c-0.39654 0-0.727-0.26326-0.727-0.57919zm1.476 24.344-0.74904-0.57922h23.969l-0.72699 0.57922v-24.344l0.72699 0.57924h-23.969l0.74904-0.57924z" stroke="#000" stroke-width=".019664px"/>
  <text id="text3424" font-size="26.36px" xml:space="preserve" transform="scale(1.0819 .92430)" y="564.24091" x="117.13253" font-family="Arial" fill="#ffffff">º</text>
  <path id="path3426" stroke-linejoin="round" d="m144.28 500.29c0-0.33349 0.31308-0.57922 0.68878-0.57922h22.709c0.37567 0 0.68875 0.24573 0.68875 0.57922v24.345c0 0.31594-0.31308 0.5792-0.68875 0.5792h-22.709c-0.3757 0-0.68878-0.26326-0.68878-0.5792zm1.3984 24.345-0.7096-0.57923h22.709l-0.68877 0.57923v-24.345l0.68877 0.57925h-22.709l0.7096-0.57925z" stroke="#000" stroke-width=".019140px"/>
  <path id="path3428" stroke-linejoin="round" d="m167.08 500.29c0-0.33348 0.34292-0.57919 0.75442-0.57919h24.873c0.41151 0 0.75444 0.24571 0.75444 0.57919v24.344c0 0.31592-0.34293 0.57916-0.75444 0.57916h-24.873c-0.4115 0-0.75442-0.26324-0.75442-0.57916zm1.5088 24.344-0.75441-0.57922h24.873l-0.75442 0.57922v-24.344l0.75442 0.57924h-24.873l0.75441-0.57924z" stroke="#000" stroke-width=".020031px"/>
  <path id="path3430" stroke-linejoin="round" d="m242.39 500.29c0-0.33349 0.32039-0.57923 0.70487-0.57923h23.24c0.38447 0 0.70483 0.24574 0.70483 0.57923v24.345c0 0.31595-0.32036 0.57921-0.70483 0.57921h-23.24c-0.38448 0-0.70487-0.26326-0.70487-0.57921zm1.431 24.345-0.72624-0.57922h23.239l-0.70484 0.57922v-24.345l0.70484 0.57924h-23.239l0.72624-0.57924z" stroke="#000" stroke-width=".019362px"/>
  <path id="path3432" stroke-linejoin="round" d="m265.91 500.29c0-0.33347 0.33287-0.5792 0.73234-0.5792h24.144c0.39945 0 0.7323 0.24573 0.7323 0.5792v24.344c0 0.31592-0.33285 0.57918-0.7323 0.57918h-24.144c-0.39947 0-0.73234-0.26326-0.73234-0.57918zm1.4646 24.344-0.73232-0.57922h24.144l-0.75449 0.57922v-24.344l0.75449 0.57924h-24.144l0.73232-0.57924z" stroke="#000" stroke-width=".019735px"/>
  <text id="text3434" font-size="14.585px" xml:space="preserve" transform="scale(1.0819 .92430)" line-height="125%" y="559.58258" x="117.5602" font-family="Arial" fill="#000000"><tspan id="tspan3657" y="559.58258" x="117.5602">C</tspan></text>
  <text id="text3436" font-size="14.585px" xml:space="preserve" transform="scale(1.0819 .92430)" line-height="125%" y="559.58258" x="139.57114" font-family="Arial" fill="#000000"><tspan id="tspan3655" y="559.58258" x="139.57114">V</tspan></text>
  <text id="text3438" font-size="14.585px" xml:space="preserve" transform="scale(1.0819 .92430)" line-height="125%" y="559.58258" x="161.52913" font-family="Arial" fill="#000000"><tspan id="tspan3653" y="559.58258" x="161.52913">N</tspan></text>
  <text id="text3440" font-size="14.585px" xml:space="preserve" transform="scale(1.0819 .92430)" y="559.58258" x="233.94264" font-family="Arial" fill="#000000">I</text>
  <text id="text3442" font-size="14.585px" xml:space="preserve" transform="scale(1.0819 .92430)" y="559.58258" x="252.44635" font-family="Arial" fill="#000000">U</text>
  <path id="path3444" stroke-linejoin="round" d="m217.8 500.29c0-0.33355 0.15233-0.57933 0.35909-0.57933h25.462c0.20673 0 0.36999 0.24578 0.36999 0.57933v24.35c0 0.316-0.16326 0.57931-0.36999 0.57931h-25.462c-0.20676 0-0.35909-0.26331-0.35909-0.57931zm0.71816 24.35-0.35909-0.57935h25.462l-0.3591 0.57935v-24.35l0.3591 0.57937h-25.462l0.35909-0.57937z" stroke="#000" stroke-width=".013821px"/>
  <text id="text3446" font-size="12.077px" xml:space="preserve" transform="scale(1.0819 .92430)" line-height="125%" y="580.81671" x="116.15374" font-family="Arial" fill="#000000">31</text>
  <text id="text3448" font-size="12.077px" xml:space="preserve" transform="scale(1.0819 .92430)" line-height="125%" y="580.81671" x="137.09566" font-family="Arial" fill="#000000">30</text>
  <text id="text3450" font-size="12.077px" xml:space="preserve" transform="scale(1.0819 .92430)" line-height="125%" y="580.81671" x="160.20461" font-family="Arial" fill="#000000">29</text>
  <text id="text3452" font-size="12.077px" xml:space="preserve" transform="scale(1.0819 .92430)" line-height="125%" y="580.81671" x="233.11873" font-family="Arial" fill="#000000">1</text>
  <text id="text3454" font-size="13.285px" xml:space="preserve" transform="scale(1.0819 .92430)" line-height="125%" y="505.34109" x="264.76428" font-family="Arial" fill="#000000"><tspan id="tspan14887" y="505.34109" x="264.76428">MRdy</tspan></text>
  <text id="text3456" font-size="13.285px" xml:space="preserve" transform="scale(1.0819 .92430)" line-height="125%" y="528.11267" x="289.02841" font-family="Arial" fill="#000000"><tspan id="tspan14885" y="528.11267" x="289.02841">IORdy</tspan></text>
  <text id="text3458" font-size="13.285px" xml:space="preserve" transform="scale(1.0819 .92430)" line-height="125%" y="505.85278" x="319.60022" font-family="Arial" fill="#000000"><tspan id="tspan14889" y="505.85278" x="319.60022">INT</tspan></text>
  <text id="text3460" font-size="11.687px" xml:space="preserve" transform="scale(1.0819 .92430)" line-height="125%" y="461.20569" x="163.95369" font-family="Arial" fill="#000000">7</text>
  <text id="text3462" font-size="11.687px" xml:space="preserve" transform="scale(1.0819 .92430)" line-height="125%" y="461.20566" x="186.21794" font-family="Arial" fill="#000000">6</text>
  <text id="text3464" font-size="11.687px" xml:space="preserve" transform="scale(1.0819 .92430)" line-height="125%" y="461.43842" x="232.26677" font-family="Arial" fill="#000000">5</text>
  <text id="text3466" font-size="11.687px" xml:space="preserve" transform="scale(1.0819 .92430)" line-height="125%" y="461.20566" x="254.40364" font-family="Arial" fill="#000000">4</text>
  <text id="text3468" font-size="11.687px" xml:space="preserve" transform="scale(1.0819 .92430)" line-height="125%" y="461.20569" x="278.59265" font-family="Arial" fill="#000000">3</text>
  <text id="text3470" font-size="11.687px" xml:space="preserve" transform="scale(1.0819 .92430)" line-height="125%" y="461.20569" x="304.0817" font-family="Arial" fill="#000000">2</text>
  <text id="text3472" font-size="11.687px" xml:space="preserve" transform="scale(1.0819 .92430)" line-height="125%" y="461.20569" x="326.15927" font-family="Arial" fill="#000000">1</text>
  <text id="text3474" font-size="11.687px" xml:space="preserve" transform="scale(1.0819 .92430)" line-height="125%" y="461.20569" x="348.44403" font-family="Arial" fill="#000000">0</text>
  <text id="text3476" font-size="11.687px" xml:space="preserve" transform="scale(1.0819 .92430)" line-height="125%" y="461.20569" x="141.61372" font-family="Arial" fill="#000000">8</text>
  <path id="path3480" stroke-linejoin="round" d="m255.9 499.91v-62.638h-1.5684v62.638h1.5684zm3.9689-61.387-4.753-7.4613-4.753 7.4613h9.506z" stroke="#000" stroke-width=".021055px"/>
  <path id="path3482" stroke-linejoin="round" d="m279.73 499.91v-62.638h-1.5923v62.638h1.5923zm3.9452-61.387-4.753-7.4613-4.753 7.4613h9.506z" stroke="#000" stroke-width=".021055px"/>
  <path id="path3484" stroke-linejoin="round" d="m157.72 500.15v-62.614h-1.5923v62.614h1.5923zm3.9452-61.384-4.753-7.4608-4.753 7.4608h9.5061z" stroke="#000" stroke-width=".021055px"/>
  <path id="path3486" stroke-linejoin="round" d="m181.21 500.15v-62.614h-1.5923v62.614h1.5923zm3.9452-61.384-4.753-7.4608-4.753 7.4608h9.5061z" stroke="#000" stroke-width=".021055px"/>
  <path id="path3488" stroke-linejoin="round" d="m206.11 500.23v-62.638h-1.5684v62.638h1.5684zm3.9689-61.387-4.753-7.4613-4.753 7.4613h9.506z" stroke="#000" stroke-width=".021055px"/>
  <path id="path3490" stroke-linejoin="round" d="m629.58 456.82v27.263h-1.5684v-27.263h1.5684zm3.9922 25.954-4.7528 7.9249-4.7528-7.9249h9.5056z" stroke="#000" stroke-width=".043396px"/>
  <path id="path3492" stroke-linejoin="round" d="m544.93 459.48v25.949h-1.5922v-25.949h1.5922zm3.9449 24.706-4.753 7.5437-4.753-7.5437h9.5058z" stroke="#000" stroke-width=".021171px"/>
  <path id="path3494" stroke-linejoin="round" d="m456.24 459.63v26.406h-1.5922v-26.406h1.5922zm3.9689 25.14-4.7531 7.6758-4.7531-7.6758h9.5061z" stroke="#000" stroke-width=".021356px"/>
  <path id="path3500" stroke-linejoin="round" d="m148.32 189.16h430.64v1.2309h-430.64z" stroke="#000" stroke-width=".022547px"/>
  <path id="path3502" stroke-linejoin="round" d="m831.47 548.43-0.10937-16.784 1.2238-0.006 0.1094 16.784z" stroke="#000" stroke-width=".027379px"/>
  <path id="path3504" stroke-linejoin="round" d="m118.98 88.476h99.727v1.3506h-99.727v-1.3506zm98.748-3.3815 5.8517 4.0619-5.8517 4.0619v-8.1239z" stroke="#000" stroke-width=".0086186px"/>
  <path id="path3118-3" stroke-linejoin="round" d="m400.51 150.44v-14.151h-1.5923v14.151h1.5923zm3.945-12.79-4.7531-8.1216-4.7531 8.1216h9.5061z" stroke="#000" stroke-width=".021967px"/>
  <g id="g4875" stroke-linejoin="round" transform="matrix(.74034 0 0 .99023 110.75 -7.312)" stroke="#000" stroke-width=".043902px">
   <path id="path3042-5" d="m358.27 176.57h12.482v1.0923h-12.482z"/>
   <path id="path3044-3" d="m384.56 176.57h12.483v1.0923h-12.483z"/>
   <path id="path3046-8" d="m409.52 176.57h12.483v1.0923h-12.483z"/>
   <path id="path3048-7" d="m371.07 163.72h13.454v1.0923h-13.454z"/>
   <path id="path3050-6" d="m371.62 177.48v-13.588h-1.1028v13.588z"/>
   <path id="path3052-7" d="m384.73 177.48v-13.938h-1.1028v13.938z"/>
   <path id="path3054-4" d="m397.2 177.48v-13.938h-1.1028v13.938z"/>
   <path id="path3056-8" d="m410.66 177.14v-13.588h-1.1027v13.588z"/>
   <path id="path3058-1" d="m396.38 163.72h13.763v1.0923h-13.763z"/>
  </g>
  <path id="path3100-8" stroke-linejoin="round" d="m119.42 88.585-0.14842 127.35h1.2408l0.14842-127.35z" stroke="#000" stroke-width=".014462px"/>
  <path id="path3100-9" stroke-linejoin="round" d="m439.04 22.575-0.14263 63.18h1.1883l0.14261-63.18z" stroke="#000" stroke-width=".0099704px"/>
  <text id="text3172-1" font-size="16.07px" xml:space="preserve" transform="scale(1.0819 .92430)" line-height="125%" y="340.78174" x="452.16351" font-family="Arial" fill="#000000"><tspan id="tspan4412" y="340.78174" x="452.16351">MR</tspan></text>
  <path id="path3180-5" stroke-linejoin="round" d="m483.42 294.73c0-0.36558 0.19844-0.69055 0.48189-0.69055h38.607c0.2551 0 0.45351 0.32497 0.45351 0.69055v28.312c0 0.36558-0.19841 0.69054-0.45351 0.69054h-38.607c-0.28345 0-0.48189-0.32496-0.48189-0.69054zm0.93542 28.312-0.45353-0.69058h38.607l-0.48187 0.69058v-28.312l0.48187 0.69055h-38.607l0.45353-0.69055z" stroke="#000" stroke-width=".033932px"/>
  <text id="text3172-1-5" font-size="16.07px" xml:space="preserve" transform="scale(1.0819 .92430)" line-height="125%" y="340.78174" x="655.91406" font-family="Arial" fill="#000000"><tspan id="tspan4435" y="340.78174" x="655.91406">MC</tspan></text>
  <path id="path3180-5-7" stroke-linejoin="round" d="m703.87 294.65c0-0.36561 0.19174-0.69057 0.4656-0.69057h37.301c0.24652 0 0.4382 0.32496 0.4382 0.69057v28.313c0 0.36561-0.19168 0.69056-0.4382 0.69056h-37.301c-0.27386 0-0.4656-0.32495-0.4656-0.69056zm0.90376 28.313-0.43816-0.69057h37.301l-0.46555 0.69057v-28.313l0.46555 0.69055h-37.301l0.43816-0.69055z" stroke="#000" stroke-width=".033354px"/>
  <text id="text4138" font-size="14.178px" xml:space="preserve" transform="scale(1.1511 .86873)" line-height="125%" y="170.67667" x="355.31967" font-family="Arial" fill="#000000"><tspan id="tspan4140" y="170.67667" x="355.31967">CLK</tspan></text>
  <path id="path3310-3" stroke-linejoin="round" d="m798.97 294.6c0-0.3654 0.46213-0.69018 1.0563-0.69018h62.388c0.5942 0 1.1224 0.32478 1.1224 0.69018v28.297c0 0.36537-0.52813 0.69015-1.1224 0.69015h-62.388c-0.59419 0-1.0563-0.32478-1.0563-0.69015zm1.6007 28.344-0.54447-0.73811h62.388l0.0336 0.45361-0.24223-27.824 0.20857 0.45361h-62.388l0.597-0.59422z" stroke="#000" stroke-width=".051773px"/>
  <text id="text3312-6" font-size="14.358px" xml:space="preserve" transform="scale(1.0819 .92430)" line-height="125%" y="339.47763" x="743.1275" font-family="Arial" fill="#000000"><tspan id="tspan3945" font-size="14.358px" line-height="125%" y="339.47763" x="743.1275" font-family="Arial">ExCode</tspan></text>
  <path id="path3324-5" stroke-linejoin="round" d="m837 396.7-12.786 8.0811 0.71305 0.81217 12.786-8.0404z" stroke="#000" stroke-width=".043934px"/>
  <text id="text3330-3" font-size="11.775px" xml:space="preserve" transform="scale(1.0819 .92430)" y="433.94742" x="756.20624" font-family="Arial" fill="#000000">4</text>
  <path id="path3131-3" stroke-linejoin="round" d="m840.87 520.93c0.26743 0 0.49371 0.12797 0.61713 0.32911 0.10292 0.20109 0.0823 0.43874-0.0616 0.62157l-9.0919 11.28c-0.12344 0.16454-0.34969 0.25593-0.55538 0.25593-0.22624 0-0.43198-0.0915-0.55539-0.25593l-9.1123-11.28c-0.14401-0.18283-0.16458-0.42048-0.0413-0.62157 0.10292-0.20114 0.34969-0.32911 0.59653-0.32911zm-18.204 1.2066 0.55538-0.96891 9.1124 11.28h-1.1109l9.0919-11.28 0.55535 0.96891z" stroke="#000" stroke-width=".019393px"/>
  <path id="path3133-6" stroke-linejoin="round" d="m849.43 527.62h-13.184v-0.91412h13.184z" stroke="#000" stroke-width="1.0511px"/>
  <path id="path3139-7" stroke-linejoin="round" d="m830.72 502.15v14.028h1.3784v-14.028h-1.3784zm-3.4154 12.993 4.1148 6.1728 4.1149-6.1728h-8.2296z" stroke="#000" stroke-width=".017818px"/>
  <text id="text3147-5" font-size="12.897px" xml:space="preserve" transform="scale(1.0607 .94277)" y="549.96875" x="793.99377" font-family="Arial" line-height="125%" fill="#000000"><tspan id="tspan4426" y="549.96875" x="793.99377">T11</tspan></text>
  <path id="path3081-3" stroke-linejoin="round" d="m832.08 503.79v-180.25h-1.2237v180.25z" stroke="#000" stroke-width=".041941px"/>
  <path id="path3428-3" stroke-linejoin="round" d="m192.01 500.37c0-0.33349 0.344-0.57921 0.75679-0.57921h24.952c0.41283 0 0.75679 0.24572 0.75679 0.57921v24.344c0 0.31593-0.34396 0.57919-0.75679 0.57919h-24.952c-0.41279 0-0.75679-0.26326-0.75679-0.57919zm1.5135 24.344-0.75679-0.5792h24.952l-0.7568 0.5792v-24.344l0.7568 0.57919h-24.952l0.75679-0.57919z" stroke="#000" stroke-width=".020063px"/>
  <text id="text3438-6" font-size="14.585px" xml:space="preserve" transform="scale(1.0819 .92430)" y="559.68005" x="185.25246" font-family="Arial" fill="#000000">Z</text>
  <text id="text3450-7" font-size="12.077px" xml:space="preserve" transform="scale(1.0819 .92430)" line-height="125%" y="580.91406" x="183.58919" font-family="Arial" fill="#000000"><tspan id="tspan3651" font-size="12.077px" line-height="125%" y="580.91406" x="183.58919" font-family="Arial">28</tspan></text>
  <text id="text3476-8" font-size="11.687px" xml:space="preserve" transform="scale(1.0819 .92430)" line-height="125%" y="460.9325" x="119.82315" font-family="Arial" fill="#000000"><tspan id="tspan3677" y="460.9325" x="119.82315">9</tspan></text>
  <path id="path3484-9" stroke-linejoin="round" d="m133.9 500.12v-62.614h-1.5923v62.614h1.5923zm3.9452-61.384-4.753-7.4608-4.753 7.4608h9.5061z" stroke="#000" stroke-width=".021055px"/>
  <text id="text3476-8-6" font-size="11.687px" xml:space="preserve" transform="scale(1.0819 .92430)" line-height="125%" y="461.16528" x="95.304207" font-family="Arial" fill="#000000"><tspan id="tspan3700" y="461.16528" x="95.304207">10</tspan></text>
  <path id="path3108-3" stroke-linejoin="round" d="m111.45 453.7v-16.548h-1.5923v16.548h1.5923zm3.9689-15.394-4.7531-6.888-4.7531 6.888h9.5062z" stroke="#000" stroke-width=".020228px"/>
  <path id="path3260-3" stroke-linejoin="round" d="m75.911 454.39 0.7169-215.11-0.87418-0.0367-0.71684 215.17z" stroke="#000" stroke-width=".25360px"/>
  <path id="path3020" stroke-linejoin="round" d="m95.123 305.1c0-0.29713 0.34253-0.54472 0.75357-0.54472h132.08c0.43392 0 0.77643 0.24759 0.77643 0.54472v22.897c0 0.31365-0.34251 0.54474-0.77643 0.54474h-132.08c-0.41104 0-0.75357-0.23109-0.75357-0.54474zm1.5301 22.897-0.77641-0.54476h132.08l-0.75353 0.54476v-22.897l0.75353 0.54474h-132.08l0.77641-0.54474z" stroke="#000" stroke-width=".019416px"/>
  <text id="text3030" font-size="20.153px" xml:space="preserve" transform="scale(1.0605 .94295)" line-height="125%" y="264.08969" x="112.02528" font-family="Arial" fill="#000000"><tspan id="tspan4390" y="264.08969" x="112.02528">co2µaddr</tspan></text>
  <path id="path3032" stroke-linejoin="round" d="m95.203 305.1c0-0.29713 0.34254-0.54472 0.77642-0.54472h51.7c0.43391 0 0.75355 0.24759 0.75355 0.54472v22.897c0 0.31365-0.31964 0.54474-0.75355 0.54474h-51.7c-0.43387 0-0.77642-0.23109-0.77642-0.54474zm1.5301 22.897-0.75358-0.54476h51.7l-0.75358 0.54476v-22.897l0.75358 0.54474h-51.7l0.75358-0.54474z" stroke="#000" stroke-width=".019416px"/>
  <text id="text3034" font-size="15.751px" xml:space="preserve" transform="scale(1.0605 .94295)" line-height="125%" y="341.91785" x="103.96693" font-family="Arial" fill="#000000">CO</text>
  <text id="text3036" font-size="17.226px" xml:space="preserve" transform="scale(1.0605 .94295)" y="395.24258" x="124.41422" font-family="Arial" fill="#000000">IR</text>
  <path id="path3478" stroke-linejoin="round" d="m97.263 330.36 0.04394 2.1158 0.13194 1.9685 0.08798 0.91986 0.08799 0.86466 0.13194 0.82792 0.13194 0.75429 0.15403 0.68069 0.15402 0.62552 0.1761 0.53352 0.19799 0.47834 0.22001 0.38634c0 0.0185 0.02185 0.037 0.02185 0.0552l0.19801 0.25754c0.04394 0.0369 0.06614 0.0737 0.11007 0.0921l0.19803 0.16556c0.06613 0.037 0.13194 0.0737 0.19801 0.0921l0.22 0.0552c0.04394 0.0185 0.11006 0.0185 0.15402 0.0185h59.886l-0.1759-0.0185 0.22 0.0552-0.19804-0.092 0.19804 0.14718-0.0878-0.092 0.19799 0.25753 0.15403 0.29438 0.15402 0.38633 0.17593 0.51514 0.15398 0.57033 0.13194 0.66231 0.13197 0.71749 0.13192 0.79111 0.0878 0.84628 0.0877 0.90146 0.13195 1.9501 0.0218 2.0788c0.0217 0.25754 0.264 0.45992 0.55 0.45992 0.30801 0 0.55002-0.20238 0.55002-0.45992l0.0442-2.0972 0.13194-1.9318 0.0878-0.90146 0.0878-0.8647 0.13195-0.7727 0.13193-0.73588 0.154-0.66229 0.13196-0.58873 0.1761-0.49674 0.17592-0.40475 0.17591-0.31276-0.0442 0.0552 0.19797-0.25756-0.0877 0.092 0.19799-0.1472-0.19799 0.092 0.19799-0.0552-0.15403 0.0183h59.886c0.066 0 0.10999 0 0.15402-0.0183l0.22-0.0552c0.066-0.0184 0.13192-0.0552 0.19799-0.092l0.22003-0.16554c0.022-0.0185 0.0659-0.0552 0.0878-0.092l0.19801-0.25755c0.0217-0.0185 0.0217-0.037 0.0442-0.0552l0.17609-0.34956 0.22-0.47833 0.17591-0.5519 0.15406-0.62551 0.15399-0.69912 0.15403-0.73589 0.11004-0.8279 0.11002-0.86468 0.0878-0.91989 0.11004-1.9686 0.0442-2.134h-1.1001l-0.0442 2.079-0.11003 1.9501-0.0877 0.90149-0.0878 0.84623-0.1319 0.79113-0.13194 0.73591-0.13195 0.64394-0.15402 0.58868-0.17594 0.47834-0.154 0.40473-0.19801 0.34957 0.0442-0.0552-0.198 0.25756 0.0878-0.0919-0.19801 0.14718 0.19801-0.0921-0.22003 0.0552 0.17592-0.0185h-59.886c-0.0659 0-0.11002 0-0.1759 0.0185l-0.19799 0.0552c-0.0661 0.0185-0.15406 0.0552-0.19806 0.092l-0.21999 0.16556c-0.0218 0.0185-0.066 0.0552-0.0877 0.0921l-0.198 0.25758c-0.0218 0.0185-0.0218 0.037-0.0442 0.0552l-0.19802 0.38637-0.19801 0.47832-0.1759 0.55192-0.1759 0.60712-0.13194 0.68072-0.15403 0.75428-0.11002 0.8279-0.11002 0.86471-0.0878 0.91987-0.13194 1.9869-0.0442 2.0972h1.1001l-0.0442-2.1158-0.11003-1.9869-0.0878-0.90149-0.11001-0.8831-0.11001-0.8095-0.13196-0.77269-0.17612-0.68069-0.15402-0.62551-0.17591-0.53354-0.19799-0.49674-0.24205-0.40473-0.19798-0.25757c-0.0217-0.037-0.0659-0.0737-0.0877-0.0921l-0.22001-0.16556c-0.0662-0.037-0.13191-0.0736-0.198-0.092l-0.22004-0.0552c-0.0441-0.0184-0.0878-0.0184-0.15402-0.0184h-59.886l0.17592 0.0184-0.22001-0.0552 0.22001 0.0921-0.22001-0.1472 0.08799 0.092-0.19798-0.25757 0.04394 0.0552-0.15402-0.31274-0.17593-0.40476-0.1761-0.49671-0.15402-0.58875-0.13195-0.66228-0.15402-0.7175-0.11007-0.79113-0.11007-0.86465-0.08798-0.88309-0.11007-1.9501-0.04394-2.0972z" stroke="#000" stroke-width=".020119px"/>
  <path id="path3022-6" stroke-linejoin="round" d="m101.72 266.43c0 0.1694 0.47025 0.30676 1.0503 0.30676h124.5c0.58 0 1.0503-0.13736 1.0503-0.30676v-50.233c0-0.16943-0.47021-0.30683-1.0503-0.30683h-124.5c-0.57999 0-1.0503 0.1374-1.0503 0.30683zm2.1004-50.233-1.0503 0.30681h124.5l-1.0503-0.30681v50.233l1.0503-0.30683h-124.5l1.0503 0.30683z" stroke="#000" stroke-width=".0084724px"/>
  <path id="path3110-0" stroke-linejoin="round" d="m131.07 290.54-17.049 6.5912 0.47828 0.94851 17.027-6.6006z" stroke="#000" stroke-width=".021533px"/>
  <text id="text3112-0" font-size="11.542px" xml:space="preserve" transform="scale(1.0605 .94295)" y="310.50671" x="105.92355" font-family="Arial" line-height="125%" fill="#000000"><tspan id="tspan6982">6</tspan></text>
  <path id="path3124-2" stroke-linejoin="round" d="m210.71 305.53v-30.73h1.4789v30.73h-1.4789zm-3.6752-29.162 4.4148-9.4223 4.4148 9.4223h-8.8296z" stroke="#000" stroke-width="0.0114px"/>
  <path id="path3124-2-4" stroke-linejoin="round" d="m122.5 305.53v-30.73h1.4789v30.73h-1.4789zm-3.6751-29.162 4.4148-9.4223 4.4148 9.4223h-8.8296z" stroke="#000" stroke-width="0.0114px"/>
  <text id="text3112-0-4" font-size="11.542px" xml:space="preserve" transform="scale(1.0605 .94295)" y="310.11203" x="189.7412" font-family="Arial" fill="#000000">4</text>
  <path id="path3110-0-7" stroke-linejoin="round" d="m219.69 290.39-17.049 6.5912 0.47821 0.9485 17.027-6.6006z" stroke="#000" stroke-width=".021533px"/>
  <path id="path3260-3-8" stroke-linejoin="round" d="m75.08 239.26 27.81-0.16662-0.008-1.2385-27.817 0.16701z" stroke="#000" stroke-width=".010854px"/>
  <path id="path3260-3-8-6" stroke-linejoin="round" d="m75.316 454.65 36.114-0.16651-0.0107-1.2377-36.122 0.16687z" stroke="#000" stroke-width=".012364px"/>
  <text id="text3038-0" font-size="16.948px" xml:space="preserve" transform="scale(1.0779 .92773)" line-height="125%" y="508.49585" x="73.0812" font-family="Arial" fill="#000000"><tspan id="tspan3777" y="508.49585" x="73.0812">InEx</tspan></text>
  <path id="path3232-6" stroke-linejoin="round" d="m774.93 362v-38.634h-1.1933v38.634z" stroke="#000" stroke-width=".039151px"/>
  <path id="path3100-8-7" stroke-linejoin="round" d="m284.78 338.1-0.14901 52.104h1.2462l0.14898-52.104z" stroke="#000" stroke-width=".0092709px"/>
  <path id="path3108-1" stroke-linejoin="round" d="m286.11 338.25-0.26751-48.649-1.3227-0.61737v49.267zm3.2948-48.424-4.0781-9.6026-3.8105 9.4484z" stroke="#000" stroke-width=".032622px"/>
  <path id="path3198-7" fill-rule="evenodd" d="m282.93 334.47c0-1.3 1.0217-2.3448 2.2574-2.3448 1.2594 0 2.2574 1.0447 2.2574 2.3448 0 1.2768-0.99799 2.3217-2.2574 2.3217-1.2356 0-2.2574-1.0447-2.2574-2.3217"/>
  <path id="path3200-1" stroke-linejoin="round" d="m281.36 332.76v-0.30176l0.0479-0.46434c0.0235-0.0929 0.0235-0.18574 0.071-0.30181l0.11886-0.41787c0.0235-0.0929 0.0711-0.16254 0.0951-0.25539l0.21384-0.39468c0.0479-0.0929 0.0951-0.18571 0.1663-0.27859l0.28516-0.34821 0.19009-0.18575 0.33265-0.27859c0.0953-0.0696 0.1901-0.13929 0.28516-0.20893l0.38017-0.20893c0.071-0.0463 0.16633-0.0698 0.26137-0.11613l0.42772-0.13931c0.11879-0.0232 0.23758-0.0463 0.33265-0.0694l0.45148-0.0463h0.33264l0.45149 0.0463c0.11879 0.0231 0.23759 0.0463 0.35643 0.0694l0.42767 0.13931c0.0951 0.0463 0.16633 0.0696 0.26138 0.11613l0.38019 0.20893c0.0951 0.0695 0.1901 0.13929 0.28513 0.20893l0.33268 0.27859c0.0711 0.0699 0.11882 0.11613 0.19008 0.18575l0.28514 0.34821c0.0478 0.0929 0.11882 0.18576 0.16635 0.27859l0.21382 0.39468c0.0235 0.0929 0.0709 0.16252 0.0951 0.25539l0.1188 0.41787c0.0478 0.11612 0.0478 0.20894 0.0712 0.30181l0.0478 0.46434v0.30176l-0.0478 0.48754c-0.0235 0.0929-0.0235 0.18572-0.0712 0.27859l-0.1188 0.4411c-0.0235 0.0929-0.0712 0.16253-0.0951 0.25538l-0.21382 0.39466c-0.0477 0.0929-0.11881 0.18569-0.16635 0.27857l-0.28514 0.34825c-0.0709 0.0696-0.11882 0.11609-0.19008 0.18573l-0.33268 0.27858c-0.095 0.0696-0.19008 0.13931-0.28513 0.20894l-0.38019 0.20894c-0.0952 0.0463-0.16633 0.0698-0.26138 0.11611l-0.42767 0.13932c-0.11884 0.0232-0.23765 0.0463-0.35643 0.0696l-0.45149 0.0463h-0.33264l-0.45148-0.0463c-0.0952-0.0233-0.21387-0.0463-0.33265-0.0696l-0.42772-0.13932c-0.0951-0.0463-0.19005-0.0695-0.26137-0.11611l-0.38017-0.20894c-0.095-0.0696-0.1901-0.13927-0.28516-0.20894l-0.33265-0.27858-0.19009-0.18573-0.28516-0.34825c-0.071-0.0929-0.11879-0.1857-0.1663-0.27857l-0.21384-0.39466c-0.0235-0.0929-0.0709-0.16253-0.0951-0.25538l-0.11886-0.4411c-0.0477-0.0929-0.0477-0.18571-0.071-0.27859zm3.2078 0.18574-0.0711-0.3018 0.14254 0.44109-0.095-0.25537 0.19008 0.39465-0.16632-0.27857 0.28511 0.34824-0.19008-0.18574 0.33267 0.30183-0.28512-0.20897 0.38017 0.20897-0.26138-0.11612 0.42771 0.13929-0.35644-0.0694 0.45149 0.0463h-0.33267l0.45145-0.0463-0.33263 0.0694 0.42769-0.13929-0.2614 0.11612 0.38022-0.20897-0.28514 0.20897 0.33267-0.30183-0.1901 0.18574 0.28511-0.34824-0.16633 0.27857 0.19013-0.39465-0.0951 0.25537 0.14259-0.44109-0.0712 0.3018 0.0478-0.4875v0.30176l-0.0478-0.46431 0.0712 0.27861-0.14259-0.41789 0.0951 0.25534-0.19013-0.39464 0.16633 0.27858-0.28511-0.34822 0.1901 0.18571-0.33267-0.30178 0.28514 0.20894-0.38022-0.20894 0.2614 0.11609-0.42769-0.1393 0.33263 0.0696-0.45145-0.0463h0.33267l-0.45149 0.0463 0.35644-0.0696-0.42771 0.1393 0.26138-0.11609-0.38017 0.20894 0.28512-0.20894-0.33267 0.30178 0.19008-0.18571-0.28511 0.34822 0.16632-0.27858-0.19008 0.39464 0.095-0.25534-0.14254 0.41789 0.0711-0.27861-0.0478 0.46431v-0.30176z" stroke="#000" stroke-width=".023487px"/>
  <text id="text3146-9" font-size="14.585px" xml:space="preserve" transform="matrix(.0045961 -.91148 1.0971 .0039267 0 0)" line-height="125%" y="421.80048" x="-497.31299" font-family="Arial" fill="#000000"><tspan id="tspan4821" y="421.80048" x="-497.31299">Sel RA</tspan></text>
  <text id="text3146-9-5" font-size="14.585px" xml:space="preserve" transform="matrix(-.0078453 -.91146 1.0971 -.0067026 0 0)" line-height="125%" y="496.53754" x="-500.96231" font-family="Arial" fill="#000000"><tspan id="tspan4823" y="496.53754" x="-500.96231">Sel RB</tspan></text>
  <text id="text3146-9-9" font-size="14.585px" xml:space="preserve" transform="matrix(.010215 -.91143 1.0971 .0087274 0 0)" line-height="125%" y="583.0202" x="-491.86731" font-family="Arial" fill="#000000"><tspan id="tspan4825" y="583.0202" x="-491.86731">Sel RC</tspan></text>
  <text id="text3350-3" font-size="10.869px" xml:space="preserve" transform="scale(1.0819 .92430)" line-height="125%" y="541.81842" x="578.61298" font-family="Arial" fill="#000000">0</text>
  <text id="text3352-3" font-size="10.869px" xml:space="preserve" transform="scale(1.0819 .92430)" line-height="125%" y="542.06799" x="603.53973" font-family="Arial" fill="#000000">1</text>
  <path id="path3094-7" opacity=".75" stroke-linejoin="round" d="m285.23 389.68v-101.29h-1.5914v101.29h1.5914zm3.943-99.288-4.7506-12.16-4.7507 12.16h9.5012z" stroke="#000" stroke-width=".026872px"/>
  <path id="path3498-6" stroke-linejoin="round" d="m352.06 258.52h87.18v1.0116h-87.18z" stroke="#000" stroke-width=".025684px"/>
  <path id="path3138-8" stroke-linejoin="round" d="m440.68 293.5v-34.95h-1.1961v34.95z" stroke="#000" stroke-width=".014664px"/>
  <path id="path3138-8-1" stroke-linejoin="round" d="m470.22 294.06v-79.848h-1.1889v79.848z" stroke="#000" stroke-width=".022097px"/>
  <path id="path3124-7" stroke-linejoin="round" d="m387.42 308.86h15.218v1.3609h-15.218v-1.3609zm14.443-3.3821 4.6663 4.0625-4.6663 4.0626v-8.1251z" stroke="#000" stroke-width=".0076971px"/>
  <text id="text4138-7" font-size="14.178px" xml:space="preserve" transform="scale(1.1511 .86873)" line-height="125%" y="351.61703" x="317.04697" font-family="Arial" fill="#000000"><tspan id="tspan4140-2" y="351.61703" x="317.04697">CLK</tspan></text>
  <path id="path3194-0" stroke-linejoin="round" d="m356.07 258.34-12.797 0.0608v1.3602l12.797-0.0611v-1.3602zm-11.078-3.3294-10.522 4.1214 10.602 3.9994-0.0792-8.1206z" stroke="#000" stroke-width=".023169px"/>
  <path id="path3124-2-5" stroke-linejoin="round" d="m312.31 214.81v-41.575h1.4786v41.575h-1.4786zm-3.6744-39.454 4.4138-12.748 4.4138 12.748h-8.8277z" stroke="#000" stroke-width=".013259px"/>
  <path id="path3098-2" stroke-linejoin="round" d="m470.82 214.16h-158.15v1.019h158.15z" stroke="#000" stroke-width=".018257px"/>
  <path id="path3396" stroke-linejoin="round" d="m429.52 294.47c0-0.35383 0.45782-0.64863 1.0791-0.64863h24.294c0.5886 0 1.0791 0.2948 1.0791 0.64863v28.837c0 0.35381-0.49048 0.64864-1.0791 0.64864h-24.294c-0.62128 0-1.0791-0.29483-1.0791-0.64864zm2.158 28.837-1.079-0.64867h24.294l-1.1118 0.64867v-28.837l1.1118 0.64865h-24.294l1.079-0.64865z" stroke="#000" stroke-width=".025354px"/>
  <path id="path3138-1" stroke-linejoin="round" d="m543.81 389.15v-29.307h-1.1959v29.307z" stroke="#000" stroke-width=".013427px"/>
  <path id="path3138-1-5" stroke-linejoin="round" d="m629.22 390.69v-29.307h-1.1959v29.307z" stroke="#000" stroke-width=".013427px"/>
  <path id="path3194-08" stroke-linejoin="round" d="m420.12 411.05-12.992 0.0609v1.3601l12.992-0.0611v-1.3602zm-11.247-3.3292-10.684 4.1212 10.764 3.9993-0.0801-8.1202z" stroke="#000" stroke-width=".023344px"/>
  <text id="text3442-2" font-size="14.585px" line-height="125%" transform="scale(1.0819 .92430)" y="557.29816" x="206.80339" font-family="Arial" xml:space="preserve" fill="#000000"><tspan id="tspan4917" y="557.29816" x="206.80339">...</tspan></text>
  <path id="path3258-4" stroke-linejoin="round" d="m571.25 339.65h29.583v1.0143h-29.583z" stroke="#000" stroke-width=".023085px"/>
  <path id="path3390-7" stroke-linejoin="round" d="m162.15 362.88v-6.8273h-1.1955v6.8273z" stroke="#000" stroke-width=".014695px"/>
 </g>
</svg>
