<?xml version="1.0" encoding="UTF-8" standalone="no"?>
<svg id="svg2996" xmlns:rdf="http://www.w3.org/1999/02/22-rdf-syntax-ns#" xmlns="http://www.w3.org/2000/svg" height="100%" viewBox="47 15 845 545" width="100%" version="1.0" preserveAspectRatio="xMinYMin meet" xmlns:cc="http://creativecommons.org/ns#" xmlns:dc="http://purl.org/dc/elements/1.1/">
 <metadata id="metadata3508">
  <rdf:RDF>
   <cc:Work rdf:about="">
    <dc:format>image/svg+xml</dc:format>
    <dc:type rdf:resource="http://purl.org/dc/dcmitype/StillImage"/>
    <dc:title/>
   </cc:Work>
  </rdf:RDF>
 </metadata>
 <text id="text3611" style="word-spacing:0px;letter-spacing:0px" transform="scale(.99998 1)" xml:space="preserve" font-size="13.289px" y="350.36798" x="139.88812" font-family="sans-serif" line-height="125%" fill="#000000"><tspan id="tspan3615" y="342.36798" x="121.88812"/></text>
 <g id="g4755" transform="matrix(1 0 0 1.0148 .000070414 -8.2241)">
  <path id="path3008" stroke-linejoin="round" d="m456.69 41.092c0-0.6113 0.52705-1.0916 1.1978-1.0916h416.27c0.62289 0 1.1978 0.4803 1.1978 1.0916v108.42c0 0.61128-0.57497 1.0915-1.1978 1.0915h-416.27c-0.67081 0-1.1978-0.48029-1.1978-1.0915zm2.3958 108.42-1.1978-1.0916h416.27l-1.1978 1.0916v-108.42l1.1978 1.0915h-416.27l1.1978-1.0915z" stroke="#000" stroke-width=".045741px"/>
  <text id="text3010" font-size="24.985px" line-height="125%" xml:space="preserve" style="text-decoration-line:underline;text-decoration:underline" transform="scale(1.0122 .98795)" y="102.81481" x="569.45844" font-family="Arial" fill="#000000">Control Memory</text>
  <text id="text3012" font-size="17.432px" xml:space="preserve" transform="scale(1.0122 .98795)" y="428.78134" x="194.49161" font-family="Arial" fill="#000000">MUX C</text>
  <path id="path3014" stroke-linejoin="round" d="m731.26 150.07v122.3h-1.499v-122.3h1.499zm3.6595 121-4.409 7.8499-4.409-7.8499h8.8178z" stroke="#000" stroke-width=".041598px"/>
  <path id="path3016" stroke-linejoin="round" d="m743.06 213.44-23.201 16.145 0.66166 0.86107 23.158-16.102z" stroke="#000" stroke-width=".043580px"/>
  <text id="text3018" font-size="13.076px" xml:space="preserve" transform="scale(1.0122 .98795)" y="224.62367" x="700.47424" font-family="Arial" line-height="125%" fill="#000000"><tspan id="tspan3920" y="224.62367" x="700.47424">80</tspan></text>
  <path id="path3020" stroke-linejoin="round" d="m82.969 331.5c0-0.31504 0.33083-0.57755 0.72784-0.57755h127.57c0.41909 0 0.74991 0.26251 0.74991 0.57755v24.276c0 0.33254-0.33082 0.57755-0.74991 0.57755h-127.57c-0.39701 0-0.72784-0.24501-0.72784-0.57755zm1.4778 24.276-0.74989-0.57757h127.57l-0.72784 0.57757v-24.276l0.72784 0.57755h-127.57l0.74989-0.57755z" stroke="#000" stroke-width=".019648px"/>
  <path id="path3024" stroke-linejoin="round" d="m217.7 178.18c0 0.28183 0.29063 0.5167 0.65874 0.5167h110.03c0.36811 0 0.65872-0.23487 0.65872-0.5167v-129.03c0-0.29751-0.29061-0.53238-0.65872-0.53238h-110.03c-0.36811 0-0.65874 0.23487-0.65874 0.53238zm1.2981-129.03-0.63939 0.51675h110.03l-0.63938-0.51675v129.03l0.63938-0.51674h-110.03l0.63939 0.51674z" stroke="#000" stroke-width=".017417px"/>
  <path id="path3026" stroke-linejoin="round" d="m376.12 49.724c0-0.3449 0.33083-0.63232 0.72784-0.63232h28.231c0.397 0 0.72786 0.28742 0.72786 0.63232v93.236c0 0.34488-0.33086 0.6323-0.72786 0.6323h-28.231c-0.39701 0-0.72784-0.28742-0.72784-0.6323zm1.4557 93.236-0.72784-0.63232h28.231l-0.74993 0.63232v-93.236l0.74993 0.65146h-28.231l0.72784-0.65146z" stroke="#000" stroke-width=".020558px"/>
  <path id="path3028" stroke-linejoin="round" d="m68.479 449.25c0 0.40899 0.32604 0.73191 0.71728 0.73191h309.74c0.39124 0 0.71728-0.32292 0.71728-0.73191v-45.788c0-0.38749-0.32604-0.71039-0.71728-0.71039h-309.74c-0.39124 0-0.71728 0.3229-0.71728 0.71039zm1.4345-45.788-0.71729 0.71041h309.74l-0.71727-0.71041v45.788l0.71727-0.71041h-309.74l0.71729 0.71041z" stroke="#000" stroke-width=".021632px"/>
  <text id="text3030" font-size="20.395px" xml:space="preserve" transform="scale(1.0122 .98795)" y="272.79852" x="103.28958" font-family="Arial" line-height="125%" fill="#000000"><tspan id="tspan4390" y="272.79852" x="103.28958">co2µaddr</tspan></text>
  <path id="path3032" stroke-linejoin="round" d="m83.046 331.5c0-0.31504 0.33085-0.57755 0.7499-0.57755h49.935c0.41907 0 0.72783 0.26251 0.72783 0.57755v24.276c0 0.33254-0.30876 0.57755-0.72783 0.57755h-49.935c-0.41906 0-0.7499-0.24501-0.7499-0.57755zm1.4778 24.276-0.72785-0.57757h49.935l-0.72787 0.57757v-24.276l0.72787 0.57755h-49.935l0.72785-0.57755z" stroke="#000" stroke-width=".019648px"/>
  <text id="text3034" font-size="15.94px" xml:space="preserve" transform="scale(1.0122 .98795)" y="354.12619" x="96.410156" font-family="Arial" line-height="125%" fill="#000000">CO</text>
  <text id="text3036" font-size="17.432px" xml:space="preserve" transform="scale(1.0122 .98795)" y="395.54056" x="117.10183" font-family="Arial" fill="#000000">IR</text>
  <text id="text3038" font-size="17.432px" xml:space="preserve" transform="scale(1.0122 .98795)" y="522.35083" x="68.31958" font-family="Arial" fill="#000000">SR</text>
  <path id="path3040" stroke-linejoin="round" d="m88.434 87.057c0 0.27428 0.33086 0.50285 0.72787 0.50285h51.744c0.4191 0 0.74995-0.22857 0.74995-0.50285v-24.975c0-0.27428-0.33085-0.50285-0.74995-0.50285h-51.744c-0.39701 0-0.72786 0.22857-0.72786 0.50285zm1.4778-24.975-0.74992 0.51808h51.744l-0.72789-0.51808v24.975l0.72789-0.50284h-51.744l0.74992 0.50284z" stroke="#000" stroke-width=".018332px"/>
  <path id="path3042" stroke-linejoin="round" d="m828.4 260.7h12.483v1.0763h-12.483z" stroke="#000" stroke-width=".043580px"/>
  <path id="path3044" stroke-linejoin="round" d="m854.34 260.7h12.482v1.0763h-12.482z" stroke="#000" stroke-width=".043580px"/>
  <path id="path3046" stroke-linejoin="round" d="m875.36 260.7h12.482v1.0763h-12.482z" stroke="#000" stroke-width=".043580px"/>
  <path id="path3048" stroke-linejoin="round" d="m840.5 248.05h13.454v1.0763h-13.454z" stroke="#000" stroke-width=".043580px"/>
  <path id="path3050" stroke-linejoin="round" d="m841.07 261.61v-13.39h-1.1028v13.39z" stroke="#000" stroke-width=".043580px"/>
  <path id="path3052" stroke-linejoin="round" d="m854.17 261.61v-13.734h-1.1027v13.734z" stroke="#000" stroke-width=".043580px"/>
  <path id="path3054" stroke-linejoin="round" d="m866.65 261.61v-13.734h-1.1028v13.734z" stroke="#000" stroke-width=".043580px"/>
  <path id="path3056" stroke-linejoin="round" d="m880.1 261.26v-13.39h-1.1027v13.39z" stroke="#000" stroke-width=".043580px"/>
  <path id="path3058" stroke-linejoin="round" d="m865.81 248.05h13.763v1.0763h-13.763z" stroke="#000" stroke-width=".043580px"/>
  <path id="path3060" stroke-linejoin="round" d="m313.37 495.98-0.12417-40.383-1.228-0.37613-0.12415 40.759zm3.658-39.215-4.407-7.5652-4.1587 7.5652z" stroke="#000" stroke-width=".028222px"/>
  <path id="path3062" stroke-linejoin="round" d="m338.16 473.06v-17.612h-1.4778v17.612h1.4778zm3.6834-16.382-4.4111-7.3381-4.4111 7.3381h8.8223z" stroke="#000" stroke-width=".020114px"/>
  <text id="text3064" font-size="13.042px" xml:space="preserve" transform="scale(1.0122 .98795)" y="516.12427" x="353.29236" font-family="Arial" line-height="125%" fill="#000000">0</text>
  <text id="text3066" font-size="11.593px" xml:space="preserve" transform="scale(1.0122 .98795)" y="174.26692" x="289.55768" font-family="Arial" line-height="125%" fill="#000000">A0</text>
  <text id="text3068" font-size="18.839px" xml:space="preserve" transform="scale(1.0122 .98795)" y="122.374" x="249.29938" font-family="Arial" line-height="125%" fill="#000000">MUX A</text>
  <text id="text3072" font-size="14.491px" xml:space="preserve" transform="scale(1.0122 .98795)" y="200.36542" x="737.5708" font-family="Arial" line-height="125%" fill="#000000">µInstruction</text>
  <text id="text3076" font-size="17.432px" xml:space="preserve" transform="scale(1.0122 .98795)" y="202.66406" x="486.14575" font-family="Arial" fill="#000000">MADDR</text>
  <text id="text3080" font-size="17.432px" xml:space="preserve" transform="matrix(0 -.98795 1.0122 0 0 0)" y="392.08975" x="-124.74949" font-family="Arial" fill="#000000">µAddr</text>
  <path id="path3082" stroke-linejoin="round" d="m404.54 90.783h47.954v1.4425h-47.954v-1.4425zm46.945-3.574 6.0131 4.3061-6.0131 4.3061v-8.6123z" stroke="#000" stroke-width=".017991px"/>
  <text id="text3084" font-size="17.432px" xml:space="preserve" transform="scale(1.0122 .98795)" y="82.487183" x="104.13128" font-family="Arial" fill="#000000">+1</text>
  <path id="path3086" fill-rule="evenodd" d="m424.93 91.511c0-1.2055 0.94837-2.1743 2.0953-2.1743s2.0953 0.9687 2.0953 2.1743c0 1.184-0.94837 2.1528-2.0953 2.1528s-2.0953-0.96874-2.0953-2.1528"/>
  <path id="path3088" stroke-linejoin="round" d="m423.93 91.638v-0.27985l0.0443-0.43054c0.022-0.08611 0.022-0.1722 0.0662-0.27985l0.11029-0.38751c0.022-0.08611 0.0662-0.15067 0.0882-0.23678l0.1985-0.36596c0.0442-0.0861 0.0882-0.17223 0.15438-0.25832l0.26465-0.32292c0.0442-0.04306 0.11027-0.10766 0.1544-0.15068l0.30876-0.25832c0.0883-0.08613 0.17644-0.15068 0.28673-0.21528l0.37493-0.19376c0.0662-0.04306 0.13233-0.06454 0.22055-0.10765l0.37494-0.12918c0.11029-0.02148 0.22054-0.04306 0.33083-0.06464l0.41905-0.04306h0.30879l0.41906 0.04306c0.11028 0.02158 0.19848 0.04306 0.30877 0.06464l0.39698 0.12918c0.0883 0.04306 0.17645 0.06443 0.26467 0.10765l0.35287 0.19376c0.0883 0.06443 0.17644 0.12915 0.24263 0.19375l0.30877 0.25832c0.0661 0.06454 0.13232 0.10766 0.17645 0.1722l0.26466 0.32292c0.0662 0.08611 0.11028 0.17223 0.17644 0.25832l0.17643 0.36596c0.0442 0.08611 0.0661 0.15069 0.0882 0.23678l0.13232 0.38751c0.022 0.10766 0.0443 0.19376 0.0443 0.27985l0.0442 0.43054c0.022 0.10766 0.022 0.19376 0 0.27985l-0.0442 0.45206c0 0.08607-0.0219 0.17222-0.0443 0.25834l-0.13232 0.40902c-0.022 0.08608-0.0442 0.15067-0.0882 0.23678l-0.17643 0.36596c-0.0662 0.08607-0.1103 0.17224-0.17644 0.25836l-0.26466 0.32289c-0.0443 0.06456-0.11028 0.10766-0.17645 0.17222l-0.30877 0.25833c-0.0662 0.06456-0.15439 0.12918-0.24263 0.19373l-0.35287 0.19376c-0.0882 0.04304-0.17644 0.06445-0.26467 0.10766l-0.39698 0.12914c-0.11031 0.02152-0.1985 0.04304-0.30877 0.06466l-0.41906 0.04304h-0.30879l-0.41905-0.04304c-0.1103-0.02162-0.22055-0.04304-0.33083-0.06466l-0.37494-0.12914c-0.0882-0.04304-0.15438-0.06445-0.22055-0.10766l-0.37493-0.19376c-0.1103-0.06456-0.1985-0.12915-0.28673-0.21525l-0.30876-0.25836c-0.0443-0.04304-0.11028-0.10764-0.1544-0.15067l-0.26465-0.32289c-0.0661-0.08607-0.11029-0.17223-0.15438-0.25836l-0.1985-0.36596c-0.022-0.08607-0.0662-0.15066-0.0882-0.23678l-0.11029-0.40902c-0.0443-0.08607-0.0443-0.17223-0.0662-0.25834zm2.9775 0.17221-0.0662-0.27985 0.13233 0.40903-0.0883-0.23681 0.17644 0.36597-0.15439-0.25834 0.26466 0.32292-0.15439-0.1507 0.28674 0.27985-0.28674-0.21528 0.35291 0.19373-0.22056-0.10763 0.397 0.12915-0.33084-0.06456 0.41906 0.04304h-0.30879l0.41907-0.04304-0.30879 0.06456 0.39699-0.12915-0.26467 0.10763 0.3529-0.19373-0.24262 0.19373 0.30878-0.27982-0.17644 0.17222 0.26468-0.32292-0.17645 0.25834 0.19849-0.36597-0.0882 0.23681 0.11031-0.40903-0.0443 0.27985 0.0443-0.45206v0.27985l-0.0443-0.43054 0.0443 0.25832-0.11031-0.38748 0.0882 0.2368-0.19849-0.36597 0.17645 0.25834-0.26468-0.32291 0.17644 0.17221-0.30878-0.27985 0.24262 0.19374-0.3529-0.19374 0.26467 0.10767-0.39699-0.12917 0.30879 0.06463-0.41907-0.04305h0.30879l-0.41906 0.04305 0.33084-0.06463-0.397 0.12917 0.22056-0.10767-0.35291 0.19374 0.28674-0.21526-0.28674 0.27984 0.15439-0.15068-0.26466 0.32291 0.15439-0.25834-0.17644 0.36597 0.0883-0.2368-0.13233 0.38748 0.0662-0.25832-0.0442 0.43054v-0.27985z" stroke="#000" stroke-width=".021790px"/>
  <path id="path3092" stroke-linejoin="round" d="m328.17 92.894h44.218v-1.4425h-44.218v1.4425zm43.366 3.5738 5.0901-4.3059-5.0901-4.3059v8.6118z" stroke="#000" stroke-width=".016551px"/>
  <path id="path3094" stroke-linejoin="round" d="m271.11 258.57v-71.728h-1.4777v71.728h1.4777zm3.6612-70.308-4.4111-8.6108-4.4111 8.6108h8.8221z" stroke="#000" stroke-width=".021790px"/>
  <path id="path3096" stroke-linejoin="round" d="m427.82 286.38v-53.653c0-0.41788-0.18619-0.76611-0.4096-0.76611h-127.15l0.422 0.76611v-45.92h-0.83153v45.92c0 0.41788 0.1862 0.76613 0.40962 0.76613h127.15l-0.42201-0.76613v53.653zm-125.07-98.01l-2.4824-9.2863-2.4824 9.2863z" stroke="#000" stroke-width=".016976px"/>
  <path id="path3098" stroke-linejoin="round" d="m427.93 29.863h-313.63v1.0718h313.63z" stroke="#000" stroke-width=".026368px"/>
  <path id="path3100" stroke-linejoin="round" d="m114.74 30.61-0.15777 32.71h1.3146l0.15775-32.71z" stroke="#000" stroke-width=".0075451px"/>
  <path id="path3102" stroke-linejoin="round" d="m140.76 73.973h69.546v1.4425h-69.546v-1.4425zm68.162-3.5846 8.3293 4.3058-8.3293 4.3058v-8.6116z" stroke="#000" stroke-width=".010586px"/>
  <path id="path3104" stroke-linejoin="round" d="m145.02 126.36h66.051v1.4317h-66.051v-1.4317zm64.811-3.5955 7.4636 4.3062-7.4636 4.3062v-8.612z" stroke="#000" stroke-width=".010022px"/>
  <path id="path3106" stroke-linejoin="round" d="m886.62 295.81h-12.895v-1.2925h12.895zm-9.5798 2.499-4.9307-3.1649 4.9307-3.4158z" stroke="#000" stroke-width=".019466px"/>
  <path id="path3108" stroke-linejoin="round" d="m362.09 496.48-0.24836-39.517-1.2281-0.50145v40.019zm3.0591-39.334-3.7862-7.8002-3.5379 7.6748z" stroke="#000" stroke-width=".028329px"/>
  <path id="path3110" stroke-linejoin="round" d="m409.02 421.03-11.602 13.712 0.86012 0.68888 11.579-13.712z" stroke="#000" stroke-width=".021790px"/>
  <text id="text3112" font-size="11.68px" xml:space="preserve" transform="scale(1.0122 .98795)" y="429.23871" x="392.24057" font-family="Arial" fill="#000000">4</text>
  <path id="path3120" stroke-linejoin="round" d="m471.52 201.38-8.4252 10.57 0.86015 0.66736 8.4252-10.57z" stroke="#000" stroke-width=".021790px"/>
  <text id="text3122" font-size="11.68px" xml:space="preserve" transform="scale(1.0122 .98795)" y="204.61232" x="448.37659" font-family="Arial" fill="#000000">12</text>
  <path id="path3124" stroke-linejoin="round" d="m191.32 152.91h21.426v1.4426h-21.426v-1.4426zm20.334-3.5851 6.5697 4.3064-6.5697 4.3064v-8.6127z" stroke="#000" stroke-width=".0094030px"/>
  <text id="text3126" font-size="17.432px" xml:space="preserve" transform="scale(1.0122 .98795)" y="161.70259" x="170.31026" font-family="Arial" fill="#000000">0</text>
  <text id="text3130" font-size="13.042px" xml:space="preserve" transform="scale(1.0122 .98795)" y="177.65326" x="157.019" font-family="Arial" line-height="125%" fill="#000000">(fetch) </text>
  <path id="path3134" stroke-linejoin="round" d="m145.11 125.76-0.13279 82.304 1.1063 0.0145 0.13276-82.318z" stroke="#000" stroke-width=".012862px"/>
  <path id="path3136" stroke-linejoin="round" d="m287.23 473.01v-17.612h-1.4778v17.612h1.4778zm3.6614-16.382-4.4111-7.3382-4.4111 7.3382h8.8223z" stroke="#000" stroke-width=".020114px"/>
  <path id="path3138" stroke-linejoin="round" d="m419.72 428.54v-83.697h-1.1028v83.697z" stroke="#000" stroke-width=".021790px"/>
  <text id="text3140" font-size="11.593px" xml:space="preserve" transform="scale(1.0122 .98795)" y="561.64697" x="252.72211" font-family="Arial" line-height="125%" fill="#000000">0</text>
  <path id="path3142" stroke-linejoin="round" d="m139.94 381.02 628.42-2.7098v-1.1106l-628.42 2.7098z" stroke="#000" stroke-width=".038780px"/>
  <path id="path3142b" stroke-linejoin="round" d="m145.08 381.02 623.2-2.7099v-1.1106l-623.2 2.7099z" stroke="#000" stroke-width=".038620px"/>
  <path id="path3144" stroke-linejoin="round" d="m444.42 454.38c-0.29821-0.002-0.51699-0.28706-0.51586-0.62811l0.18166-54.912c0.0008-0.34106 0.22177-0.62409 0.51999-0.62247l21.88 0.11937c0.29823 0.002 0.5327 0.28715 0.53158 0.6282l-0.18166 54.912c-0.00082 0.34105-0.23749 0.624-0.5357 0.62239zm21.884-1.1501-0.52005 0.64141 0.18166-54.912 0.5158 0.64708-21.88-0.11936 0.52009-0.64143-0.18166 54.912-0.51582-0.64708z" stroke="#000" stroke-width=".017246px"/>
  <path id="path3150" stroke-linejoin="round" d="m526.51 454.43c-0.31372 0.003-0.53511-0.30737-0.53715-0.65864l-0.32723-56.553c-0.003-0.35125 0.21599-0.62646 0.5297-0.62933l21.865-0.1987c0.28231-0.003 0.5035 0.26866 0.50554 0.6199l0.32723 56.553c0.003 0.35126-0.21577 0.66549-0.4981 0.66806zm21.857-1.5256-0.52947 0.66833-0.32725-56.553 0.53717 0.65863-21.865 0.19872 0.49809-0.66805 0.32726 56.553-0.5058-0.65894z" stroke="#000" stroke-width=".034992px"/>
  <path id="path3156" stroke-linejoin="round" d="m612.06 452.52c-0.2937-0.003-0.49666-0.30465-0.49373-0.64161l0.47177-54.254c0.004-0.337 0.2108-0.597 0.5045-0.59397l20.47 0.20987c0.26432 0.002 0.46763 0.26693 0.46469 0.60389l-0.47177 54.254c-0.004 0.33694-0.21114 0.6344-0.47544 0.63169zm20.481-1.0632-0.50484 0.63142 0.4718-54.254 0.49374 0.64163-20.47-0.20988 0.47546-0.63171-0.47178 54.254-0.46439-0.64135z" stroke="#000" stroke-width=".033162px"/>
  <path id="path3162" stroke-linejoin="round" d="m635.87 279.42c0-0.3876 0.19312-0.73212 0.46902-0.73212h106.88c0.2483 0 0.44144 0.34452 0.44144 0.73212v30.017c0 0.3876-0.19314 0.73212-0.44144 0.73212h-106.88c-0.2759 0-0.46902-0.34452-0.46902-0.73212zm0.91044 30.017-0.4414-0.73216h106.88l-0.46899 0.73216v-30.017l0.46899 0.73216h-106.88l0.4414-0.73216z" stroke="#000" stroke-width=".034469px"/>
  <text id="text3164" font-size="15.94px" xml:space="preserve" transform="scale(1.0122 .98795)" y="303.88074" x="487.20572" font-family="Arial" line-height="125%" fill="#000000">Sel A</text>
  <text id="text3168" font-size="15.94px" xml:space="preserve" transform="scale(1.0122 .98795)" y="304.55014" x="537.10687" font-family="Arial" line-height="125%" fill="#000000">Sel B</text>
  <text id="text3172" font-size="15.94px" xml:space="preserve" transform="scale(1.0122 .98795)" y="304.55014" x="585.33301" font-family="Arial" line-height="125%" fill="#000000">Sel C</text>
  <path id="path3176" stroke-linejoin="round" d="m485.36 279.4c0-0.38748 0.29804-0.7104 0.65566-0.7104h51.619c0.35766 0 0.65568 0.32292 0.65568 0.7104v30.031c0 0.38752-0.29802 0.71041-0.65568 0.71041h-51.619c-0.35762 0-0.65566-0.32289-0.65566-0.71041zm1.3112 30.031-0.65568-0.73195h51.619l-0.67555 0.73195v-30.031l0.67555 0.73194h-51.619l0.65568-0.73194z" stroke="#000" stroke-width=".020682px"/>
  <path id="path3178" stroke-linejoin="round" d="m537.28 279.42c0-0.38753 0.30503-0.73199 0.64821-0.73199h50.599c0.34316 0 0.64822 0.34446 0.64822 0.73199v30.012c0 0.38752-0.30506 0.73198-0.64822 0.73198h-50.599c-0.34318 0-0.64821-0.34446-0.64821-0.73198zm1.2584 30.012-0.61007-0.732h50.599l-0.64822 0.732v-30.012l0.64822 0.732h-50.599l0.61007-0.732z" stroke="#000" stroke-width=".040519px"/>
  <path id="path3180" stroke-linejoin="round" d="m587.58 279.42c0-0.38753 0.24604-0.73204 0.59753-0.73204h47.872c0.31635 0 0.5624 0.34451 0.5624 0.73204v30.014c0 0.38753-0.24605 0.73204-0.5624 0.73204h-47.872c-0.35149 0-0.59753-0.34451-0.59753-0.73204zm1.16 30.014-0.56238-0.73205h47.872l-0.59753 0.73205v-30.014l0.59753 0.73204h-47.872l0.56238-0.73204z" stroke="#000" stroke-width=".038904px"/>
  <path id="path3182" stroke-linejoin="round" d="m459.85 467.15-11.866 8.5463 0.66167 0.86109 11.866-8.5248z" stroke="#000" stroke-width=".021790px"/>
  <path id="path3184" stroke-linejoin="round" d="m544.52 467.82-11.866 8.5463 0.66165 0.86109 11.865-8.5463z" stroke="#000" stroke-width=".021790px"/>
  <path id="path3186" stroke-linejoin="round" d="m627.09 465.18-11.866 8.5678 0.66166 0.86109 11.866-8.5679z" stroke="#000" stroke-width=".043580px"/>
  <path id="path3188" stroke-linejoin="round" d="m456.01 380.38v11.108h-1.4556v-11.108h1.4556zm3.6832 9.6658-4.4111 8.6108-4.4111-8.6108h8.8222z" stroke="#000" stroke-width=".021790px"/>
  <path id="path3190" stroke-linejoin="round" d="m538.35 378.54v11.129h-1.4777v-11.129h1.4777zm3.6832 9.6872-4.4111 8.6108-4.4111-8.6108h8.8221z" stroke="#000" stroke-width=".021790px"/>
  <path id="path3192" stroke-linejoin="round" d="m622.19 379.04v11.108h-1.4998v-11.108h1.4998zm3.6612 9.6442-4.4111 8.6108-4.4111-8.6108h8.8222z" stroke="#000" stroke-width=".043580px"/>
  <path id="path3194" stroke-linejoin="round" d="m484.37 425.48-10.675 0.0645v1.4423l10.675-0.0647v-1.4423zm-9.2411-3.5304-8.778 4.3702 8.8443 4.2409-0.066-8.6108z" stroke="#000" stroke-width=".021790px"/>
  <path id="path3196" stroke-linejoin="round" d="m566.13 362.62v-52.418h-1.1027v52.418z" stroke="#000" stroke-width=".021790px"/>
  <path id="path3198" fill-rule="evenodd" d="m453.52 379.03c0-1.2056 0.88295-2.1745 1.9507-2.1745 1.0883 0 1.9507 0.96884 1.9507 2.1745 0 1.1841-0.86242 2.153-1.9507 2.153-1.0678 0-1.9507-0.96882-1.9507-2.153"/>
  <path id="path3200" stroke-linejoin="round" d="m451.25 379.14v-0.27984l0.0424-0.43062c0.0211-0.0861 0.0211-0.17222 0.0635-0.27987l0.10579-0.38752c0.0211-0.0861 0.0635-0.15074 0.0846-0.23682l0.19042-0.36603c0.0425-0.0861 0.0846-0.1722 0.1481-0.25832l0.25389-0.32294 0.1693-0.17224 0.29621-0.25836c0.0846-0.0645 0.16925-0.12916 0.25388-0.19377l0.33854-0.19376c0.0635-0.043 0.1481-0.0645 0.23273-0.10766l0.38085-0.12921c0.10579-0.0215 0.21159-0.043 0.29622-0.0643l0.40201-0.043h0.2962l0.40201 0.043c0.10579 0.0215 0.21157 0.043 0.31739 0.0643l0.38081 0.12921c0.0846 0.043 0.14812 0.0645 0.23274 0.10766l0.33855 0.19376c0.0846 0.0646 0.16926 0.12918 0.2539 0.19377l0.29623 0.25836c0.0636 0.0646 0.10579 0.10767 0.16925 0.17224l0.2539 0.32294c0.0424 0.0861 0.10577 0.17224 0.1481 0.25832l0.19042 0.36603c0.021 0.0861 0.0635 0.15068 0.0846 0.23682l0.10578 0.38752c0.0422 0.10768 0.0422 0.19377 0.0636 0.27987l0.0424 0.43062v0.27984l-0.0424 0.45213c-0.0211 0.0861-0.0211 0.17223-0.0636 0.25838l-0.10578 0.40902c-0.0211 0.0861-0.0635 0.15075-0.0846 0.23685l-0.19042 0.366c-0.0423 0.0861-0.10578 0.17221-0.1481 0.25832l-0.2539 0.32296c-0.0634 0.0645-0.10579 0.10766-0.16925 0.17223l-0.29623 0.25837c-0.0846 0.0644-0.16927 0.12917-0.2539 0.19375l-0.33855 0.19376c-0.0846 0.043-0.14809 0.0645-0.23274 0.10768l-0.38081 0.12919c-0.1058 0.0215-0.2116 0.043-0.31739 0.0645l-0.40201 0.043h-0.2962l-0.40201-0.043c-0.0846-0.0216-0.19043-0.043-0.29622-0.0645l-0.38085-0.12919c-0.0846-0.043-0.16925-0.0646-0.23273-0.10768l-0.33854-0.19376c-0.0846-0.0645-0.16925-0.12917-0.25388-0.19375l-0.29621-0.25837-0.1693-0.17223-0.25389-0.32296c-0.0635-0.0861-0.10579-0.17218-0.1481-0.25832l-0.19042-0.366c-0.0211-0.0861-0.0635-0.15072-0.0846-0.23685l-0.10579-0.40902c-0.0422-0.0861-0.0422-0.17223-0.0635-0.25838zm2.8564 0.17229-0.0636-0.27992 0.12694 0.40906-0.0846-0.23683 0.16927 0.36599-0.14811-0.2583 0.25387 0.3229-0.16925-0.17223 0.29623 0.27988-0.25391-0.19377 0.33853 0.19377-0.23272-0.10767 0.38085 0.12917-0.3174-0.0645 0.40203 0.043h-0.29622l0.40201-0.043-0.29621 0.0645 0.38084-0.12917-0.23275 0.10767 0.33853-0.19377-0.25389 0.19377 0.2962-0.27988-0.16927 0.17223 0.25391-0.3229-0.14811 0.2583 0.16927-0.36599-0.0846 0.23683 0.12695-0.40906-0.0636 0.27992 0.0424-0.45213v0.27984l-0.0424-0.43058 0.0636 0.25838-0.12695-0.38755 0.0846 0.23681-0.16927-0.36598 0.14811 0.25834-0.25391-0.32291 0.16927 0.17222-0.2962-0.27989 0.25389 0.19378-0.33853-0.19378 0.23275 0.1077-0.38084-0.1292 0.29621 0.0645-0.40201-0.043h0.29622l-0.40203 0.043 0.3174-0.0645-0.38085 0.1292 0.23272-0.1077-0.33853 0.19378 0.25391-0.19378-0.29623 0.27989 0.16925-0.17222-0.25387 0.32291 0.14811-0.25834-0.16927 0.36598 0.0846-0.23681-0.12694 0.38755 0.0636-0.25838-0.0423 0.43058v-0.27984z" stroke="#000" stroke-width=".021343px"/>
  <path id="path3202" fill-rule="evenodd" d="m535.68 379.03c0-1.2056 0.86243-2.1745 1.9508-2.1745 1.0678 0 1.9301 0.96884 1.9301 2.1745 0 1.1841-0.86238 2.153-1.9301 2.153-1.0883 0-1.9508-0.96882-1.9508-2.153"/>
  <path id="path3204" stroke-linejoin="round" d="m533.91 379.14c-0.0211-0.0861-0.0211-0.1722 0-0.27984l0.0422-0.43062c0-0.0861 0.021-0.17222 0.0425-0.27987l0.12695-0.38752c0.021-0.0861 0.0424-0.15074 0.0845-0.23682l0.16927-0.36603c0.0425-0.0861 0.10577-0.1722 0.16925-0.25832l0.25389-0.32294c0.0422-0.0647 0.1058-0.10767 0.16926-0.17224l0.29623-0.25836c0.0635-0.0645 0.1481-0.12916 0.23274-0.19377l0.33852-0.19376c0.0845-0.043 0.16926-0.0645 0.2539-0.10766l0.38084-0.12921c0.0846-0.0215 0.19046-0.043 0.29622-0.0643l0.40202-0.043h0.29622l0.40199 0.043c0.10579 0.0215 0.21159 0.043 0.31737 0.0643l0.35968 0.12921c0.0846 0.043 0.14812 0.0645 0.21159 0.10766l0.35969 0.19376c0.0846 0.043 0.19042 0.10768 0.2539 0.19377l0.29621 0.25836 0.19043 0.19376 0.23273 0.32294c0.0635 0.0861 0.10578 0.15072 0.14811 0.2368l0.19045 0.36603c0.0211 0.0861 0.0634 0.15068 0.0846 0.23682l0.10578 0.38752c0.0424 0.10768 0.0424 0.19377 0.0634 0.27987l0.0422 0.43062v0.27984l-0.0422 0.45213c-0.0211 0.0861-0.0211 0.17223-0.0634 0.25838l-0.10578 0.40902c-0.021 0.0861-0.0635 0.15075-0.0846 0.23685l-0.19045 0.366c-0.0425 0.0861-0.0845 0.1507-0.14811 0.2368l-0.23273 0.32296c-0.0636 0.0645-0.12695 0.12916-0.19043 0.19375l-0.29621 0.25837c-0.0635 0.0861-0.16927 0.15068-0.2539 0.19375l-0.35969 0.19376c-0.0636 0.043-0.12695 0.0645-0.21159 0.10768l-0.35968 0.12919c-0.10578 0.0215-0.21158 0.043-0.31737 0.0645l-0.40199 0.043h-0.29622l-0.40202-0.043c-0.10578-0.0216-0.21157-0.043-0.29622-0.0645l-0.38084-0.12919c-0.0845-0.043-0.16927-0.0646-0.2539-0.10768l-0.33852-0.19376c-0.0846-0.0645-0.16927-0.12917-0.23274-0.19375l-0.29623-0.25837c-0.0635-0.0645-0.12694-0.10765-0.16926-0.17223l-0.25389-0.32296c-0.0635-0.0861-0.12695-0.17218-0.16925-0.25832l-0.16927-0.366c-0.0425-0.0861-0.0635-0.15072-0.0845-0.23685l-0.12695-0.40902c-0.0211-0.0861-0.0425-0.17223-0.0425-0.25838zm2.835 0.17229-0.0424-0.27992 0.1058 0.40906-0.0846-0.23683 0.19042 0.36599-0.16926-0.2583 0.25389 0.3229-0.16926-0.17223 0.29623 0.27988-0.23274-0.19377 0.33851 0.19377-0.25388-0.10767 0.38084 0.12917-0.29621-0.0645 0.40202 0.043h-0.29621l0.40198-0.043-0.31739 0.0645 0.38086-0.12917-0.21158 0.10767 0.33854-0.19377-0.25391 0.19377 0.2962-0.27988-0.19041 0.19377 0.2539-0.32294-0.14811 0.2368 0.16928-0.36599-0.0847 0.23683 0.12699-0.40906-0.0635 0.27992 0.0425-0.45213v0.27984l-0.0425-0.43058 0.0635 0.25838-0.12699-0.38755 0.0847 0.23681-0.16928-0.36598 0.14811 0.23681-0.2539-0.32292 0.19041 0.19376-0.2962-0.27989 0.25391 0.19378-0.33854-0.19378 0.21158 0.1077-0.38086-0.1292 0.31739 0.0645-0.40198-0.043h0.29621l-0.40202 0.043 0.29621-0.0645-0.38084 0.1292 0.25388-0.1077-0.33851 0.19378 0.23274-0.19378-0.29623 0.27989 0.16926-0.17222-0.25389 0.32291 0.16926-0.25834-0.19042 0.36598 0.0846-0.23681-0.1058 0.38755 0.0424-0.25838-0.0424 0.43058v-0.27984z" stroke="#000" stroke-width=".021343px"/>
  <path id="path3206" fill-rule="evenodd" d="m621.15 379.04c0-1.2056 0.9035-2.196 1.9713-2.196s1.9301 0.99034 1.9301 2.196c0 1.1626-0.86242 2.153-1.9301 2.153s-1.9713-0.99035-1.9713-2.153"/>
  <path id="path3208" stroke-linejoin="round" d="m617.92 379.17c-0.0425-0.0861-0.0425-0.17223 0-0.30137l0.0423-0.4306c0-0.0861 0-0.17227 0.0425-0.25837l0.12696-0.38752c0-0.0861 0.0425-0.17224 0.0845-0.25835l0.16927-0.34449c0.0425-0.0861 0.0847-0.17222 0.12693-0.25835l0.25393-0.30141c0.0425-0.0861 0.12693-0.12917 0.16925-0.21527l0.29622-0.25838c0.0847-0.0861 0.16928-0.12916 0.2539-0.17223l0.33853-0.21528c0.0845-0.043 0.16925-0.043 0.25389-0.0861l0.37148-0.10313c0.0845-0.043 0.21159-0.043 0.2962-0.0861l0.38087-0.043h0.2962l0.42316 0.043c0.0845 0.043 0.21159 0.043 0.29622 0.0861l0.38086 0.12918c0.0846 0.043 0.16926 0.043 0.25389 0.0861l0.33851 0.21528c0.0846 0.043 0.16929 0.0861 0.25392 0.17223l0.29622 0.25835c0.0424 0.0861 0.0846 0.12917 0.12694 0.17225l0.25391 0.34446c0.0845 0.0861 0.12694 0.17223 0.16926 0.25835l0.21159 0.34448c0 0.0861 0.0425 0.17223 0.0845 0.25836l0.0847 0.38751c0.0425 0.0861 0.0425 0.17223 0.0845 0.25837l0.0425 0.43058v0.3014l-0.0425 0.43057c-0.0423 0.0861-0.0423 0.17225-0.0845 0.25838l-0.0847 0.43056c-0.0424 0.0861-0.0845 0.12921-0.0845 0.21531l-0.21159 0.38755c-0.0424 0.0861-0.0845 0.17221-0.16926 0.25831l-0.25391 0.30141c-0.0424 0.043-0.0847 0.1292-0.12694 0.17225l-0.29622 0.25836c-0.0846 0.0861-0.16925 0.12916-0.25392 0.21531l-0.33851 0.1722c-0.0846 0.043-0.16929 0.0861-0.25389 0.1292l-0.38086 0.12918c-0.0846 0-0.21158 0.043-0.29622 0.043l-0.42316 0.043h-0.2962l-0.38087-0.043c-0.0846 0-0.21156-0.043-0.2962-0.043l-0.38084-0.12918c-0.0846-0.043-0.16926-0.0861-0.25389-0.1292l-0.33854-0.1722c-0.0846-0.0861-0.16929-0.12917-0.25391-0.21531l-0.29618-0.25837c-0.0423-0.043-0.12694-0.12917-0.16926-0.21528l-0.25389-0.30145c-0.0424-0.0861-0.0845-0.12915-0.12695-0.21524l-0.16925-0.38754c-0.0425-0.0861-0.0845-0.12919-0.0845-0.21531l-0.12699-0.43056c-0.0422-0.0861-0.0422-0.17225-0.0422-0.25838zm2.8351 0.17225-0.0424-0.30141 0.0846 0.43058-0.0846-0.25836 0.21159 0.38754-0.16927-0.25835 0.2539 0.34445-0.16927-0.21528 0.29622 0.30141-0.25391-0.2153 0.33855 0.2153-0.25392-0.12917 0.38086 0.12917-0.29622-0.043 0.38083 0.043h-0.29619l0.42315-0.043-0.29622 0.043 0.38085-0.12917-0.25388 0.12917 0.33853-0.2153-0.25391 0.2153 0.29622-0.30141-0.16925 0.17224 0.25389-0.30141-0.12695 0.25835 0.16925-0.38754-0.0846 0.25836 0.12695-0.43058-0.0846 0.30141 0.0426-0.47362v0.30137l-0.0426-0.43058 0.0846 0.25835-0.12695-0.38753 0.0846 0.2153-0.16925-0.34447 0.12695 0.25835-0.25389-0.34446 0.16925 0.17222-0.29622-0.25831 0.25391 0.1722-0.33853-0.1722 0.25388 0.0861-0.38085-0.12917 0.29622 0.0861-0.42315-0.043h0.29619l-0.38083 0.043 0.29622-0.0861-0.38086 0.12917 0.25392-0.0861-0.33855 0.1722 0.25391-0.1722-0.29622 0.25831 0.16927-0.21528-0.2539 0.34447 0.16927-0.2153-0.21159 0.34447 0.0846-0.2153-0.0846 0.38753 0.0424-0.25835-0.0424 0.43058v-0.30137z" stroke="#000" stroke-width=".042687px"/>
  <path id="path3210" stroke-linejoin="round" d="m720.51 310.45v115.31h-1.4574v-115.31h1.4574zm3.7096 114.45-4.4161 5.0593-4.4161-5.0593h8.8323z" stroke="#000" stroke-width=".033424px"/>
  <path id="path3212" stroke-linejoin="round" d="m725.41 336.64-11.866 8.5248 0.66168 0.90411 11.865-8.5679z" stroke="#000" stroke-width=".043580px"/>
  <text id="text3214" font-size="11.679px" xml:space="preserve" transform="scale(1.0122 .98795)" y="342.94287" x="695.61047" font-family="Arial" line-height="125%" fill="#000000"><tspan id="tspan3973" y="342.94287" x="695.61047">49</tspan></text>
  <path id="path3216" stroke-linejoin="round" d="m442.43 488.42c0-0.43131 0.24792-0.79076 0.54538-0.79076h47.875c0.31399 0 0.56188 0.35945 0.56188 0.79076v31.701c0 0.45526-0.24789 0.79076-0.56188 0.79076h-47.875c-0.29746 0-0.54538-0.3355-0.54538-0.79076zm1.1073 31.701-0.56187-0.79077h47.875l-0.54538 0.79077v-31.701l0.54538 0.79076h-47.875l0.56187-0.79076z" stroke="#000" stroke-width="0.0199px"/>
  <text id="text3218" font-size="14.491px" xml:space="preserve" transform="scale(1.0122 .98795)" y="520.96869" x="444.87277" font-family="Arial" line-height="125%" fill="#000000">MUX</text>
  <path id="path3220" stroke-linejoin="round" d="m429.04 510.01h13.322v1.0763h-13.322z" stroke="#000" stroke-width=".021790px"/>
  <text id="text3222" font-size="11.68px" xml:space="preserve" transform="scale(1.0122 .98795)" y="512.54419" x="410.01508" font-family="Arial" fill="#000000">MR</text>
  <text id="text3224" font-size="14.468px" xml:space="preserve" transform="matrix(.0017701 -.97423 1.0264 .0017277 0 0)" y="688.65222" x="-532.01178" font-family="Arial" line-height="125%" fill="#000000"><tspan id="tspan4437" y="688.65222" x="-532.01178">Rest of CPU</tspan></text>
  <text id="text3228" font-size="14.468px" xml:space="preserve" transform="matrix(.0017701 -.97423 1.0264 .0017277 0 0)" y="705.17981" x="-539.10687" font-family="Arial" fill="#000000">control </text>
  <text id="text3230" font-size="14.468px" xml:space="preserve" transform="matrix(.0017701 -.97423 1.0264 .0017277 0 0)" y="704.53003" x="-492.15616" font-family="Arial" fill="#000000">signals</text>
  <path id="path3232" stroke-linejoin="round" d="m620.71 351.49v-40.945h-1.1075v40.945z" stroke="#000" stroke-width=".038830px"/>
  <path id="path3234" stroke-linejoin="round" d="m470.62 519.69v13.152h-1.4556v-13.152h1.4556zm3.6832 11.711-4.4111 8.6108-4.4111-8.6108h8.8222z" stroke="#000" stroke-width=".021790px"/>
  <path id="path3236" stroke-linejoin="round" d="m528.12 488.31c0-0.43868 0.22744-0.82862 0.51987-0.82862h47.08c0.29243 0 0.51986 0.38994 0.51986 0.82862v32.27c0 0.43871-0.22743 0.7799-0.51986 0.7799h-47.08c-0.29243 0-0.51987-0.34119-0.51987-0.7799zm1.0722 32.27-0.55232-0.82863h47.08l-0.55233 0.82863v-32.27l0.55233 0.82868h-47.08l0.55232-0.82868z" stroke="#000" stroke-width=".039796px"/>
  <text id="text3238" font-size="14.491px" xml:space="preserve" transform="scale(1.0122 .98795)" y="521.04846" x="528.86273" font-family="Arial" line-height="125%" fill="#000000">MUX</text>
  <path id="path3240" stroke-linejoin="round" d="m516.25 509.88h13.299v1.0763h-13.299z" stroke="#000" stroke-width=".021790px"/>
  <text id="text3242" font-size="11.68px" xml:space="preserve" transform="scale(1.0122 .98795)" y="512.40527" x="498.46411" font-family="Arial" fill="#000000">MR</text>
  <path id="path3244" stroke-linejoin="round" d="m553.65 519.53v13.174h-1.4556v-13.174h1.4556zm3.6612 11.755-4.4111 8.6108-4.4111-8.6108h8.8222z" stroke="#000" stroke-width=".043580px"/>
  <path id="path3246" stroke-linejoin="round" d="m612.67 487.03c0-0.44742 0.21773-0.8452 0.49776-0.8452h45.08c0.28002 0 0.52891 0.39778 0.52891 0.8452v32.914c0 0.44745-0.24889 0.79548-0.52891 0.79548h-45.08c-0.28003 0-0.49776-0.34803-0.49776-0.79548zm1.0265 32.914-0.5289-0.84517h45.08l-0.5289 0.84517v-32.914l0.5289 0.84521h-45.08l0.5289-0.84521z" stroke="#000" stroke-width=".039329px"/>
  <text id="text3248" font-size="14.491px" xml:space="preserve" transform="scale(1.0122 .98795)" y="520.35352" x="612.78064" font-family="Arial" line-height="125%" fill="#000000">MUX</text>
  <path id="path3252" stroke-linejoin="round" d="m599.84 508.51h13.278v1.0763h-13.278z" stroke="#000" stroke-width=".043580px"/>
  <text id="text3254" font-size="11.68px" xml:space="preserve" transform="scale(1.0122 .98795)" y="510.99231" x="579.70563" font-family="Arial" fill="#000000">MR</text>
  <path id="path3256" stroke-linejoin="round" d="m637.75 518.81v13.174h-1.4556v-13.174h1.4556zm3.7052 11.755-4.4111 8.6108-4.4111-8.6108h8.8222z" stroke="#000" stroke-width=".043580px"/>
  <path id="path3258" stroke-linejoin="round" d="m482.5 350.71h31.541v1.0737h-31.541z" stroke="#000" stroke-width=".024525px"/>
  <path id="path3260" stroke-linejoin="round" d="m482.22 470.79 1.0622-120.17-1.2953-0.0206-1.0621 120.19z" stroke="#000" stroke-width=".023070px"/>
  <path id="path3262" fill-rule="evenodd" d="m564 425.53c0-1.2055 0.92632-2.1528 2.1174-2.1528 1.1469 0 2.0732 0.94718 2.0732 2.1528 0 1.2055-0.92632 2.1528-2.0732 2.1528-1.191 0-2.1174-0.94721-2.1174-2.1528"/>
  <path id="path3264" stroke-linejoin="round" d="m562.33 425.67v-0.25832l0.0442-0.47361c0-0.0861 0.0443-0.1722 0.0443-0.25832l0.13234-0.38748c0.0443-0.0861 0.0443-0.1722 0.0883-0.21526l0.17642-0.38749c0.0442-0.0861 0.13232-0.17223 0.17645-0.25834l0.26468-0.30137c0.0442-0.0861 0.13232-0.12918 0.17642-0.17221l0.30879-0.30139c0.0881-0.043 0.17644-0.12917 0.26465-0.17221l0.35289-0.17222c0.0881-0.043 0.17644-0.0861 0.26466-0.12918l0.397-0.12915c0.0883-0.043 0.17645-0.043 0.30877-0.043l0.397-0.043c0.13234-0.043 0.22055-0.043 0.30877 0l0.44111 0.043c0.0883 0 0.22055 0 0.30877 0.043l0.397 0.12915c0.0882 0.043 0.13233 0.0861 0.22056 0.0861l0.35287 0.21527c0.0881 0.043 0.22057 0.12917 0.26467 0.17224l0.30878 0.30136c0.088 0.043 0.13233 0.12916 0.22055 0.17222l0.22054 0.34442c0.0883 0.043 0.13233 0.12917 0.17644 0.21528l0.17647 0.38749c0.0442 0.043 0.0883 0.12914 0.0883 0.21527l0.13235 0.38749c0.0442 0.0861 0.0442 0.17221 0.0442 0.25831l0.0443 0.47361v0.25831l-0.0443 0.43057c0 0.12917 0 0.21527-0.0442 0.30134l-0.13235 0.3875c0 0.0861-0.0442 0.17225-0.0883 0.21529l-0.17647 0.38749c-0.0443 0.0861-0.0881 0.17221-0.17644 0.21526l-0.22054 0.34443c-0.0881 0.043-0.13233 0.12917-0.22055 0.17223l-0.30878 0.30138c-0.0442 0.043-0.17644 0.12916-0.26467 0.17221l-0.35287 0.1722c-0.0881 0.043-0.13234 0.0861-0.22056 0.12921l-0.397 0.12914c-0.0882 0.043-0.22055 0.043-0.30877 0.043l-0.44111 0.043c-0.088 0.043-0.17643 0.043-0.30877 0l-0.397-0.043c-0.13232 0-0.22056 0-0.30877-0.043l-0.397-0.12914c-0.0881-0.043-0.17642-0.0861-0.26466-0.12921l-0.35289-0.1722c-0.0883-0.043-0.17644-0.12915-0.26465-0.17221l-0.30879-0.30138c-0.0442-0.043-0.13232-0.0861-0.17642-0.17223l-0.26468-0.30135c-0.0443-0.0861-0.13234-0.17224-0.17645-0.25834l-0.17642-0.38749c-0.0443-0.043-0.0443-0.12916-0.0883-0.21529l-0.13234-0.3875c0-0.0861-0.0443-0.17217-0.0443-0.30134zm2.9553 0.17221-0.0442-0.2583 0.13232 0.38748-0.088-0.21528 0.17645 0.34443-0.17645-0.25833 0.26466 0.34445-0.17646-0.17221 0.30878 0.25831-0.22053-0.17222 0.35287 0.17222-0.26466-0.0861 0.39699 0.12916-0.30876-0.0861 0.39698 0.043h-0.30878l0.44113-0.043-0.3529 0.0861 0.397-0.12916-0.22055 0.0861 0.35287-0.21526-0.26467 0.21526 0.3088-0.25831-0.17645 0.17221 0.26466-0.30138-0.17645 0.21526 0.17645-0.34443-0.0881 0.21528 0.13234-0.38748-0.0443 0.2583 0.0443-0.43053v0.25832l-0.0443-0.43052 0.0443 0.25831-0.13234-0.38749 0.0881 0.21527-0.17645-0.34443 0.17645 0.21526-0.26466-0.30137 0.17645 0.17221-0.3088-0.2583 0.26467 0.1722-0.35287-0.1722 0.22055 0.0861-0.397-0.12914 0.3529 0.0861-0.44113-0.043h0.30878l-0.39698 0.043 0.30876-0.0861-0.39699 0.12914 0.26466-0.0861-0.35287 0.1722 0.22053-0.1722-0.30878 0.2583 0.17646-0.17221-0.26466 0.34445 0.17645-0.25834-0.17645 0.34443 0.088-0.21527-0.13232 0.38749 0.0442-0.25831-0.0442 0.43052v-0.25832z" stroke="#000" stroke-width=".043580px"/>
  <path id="path3266" fill-rule="evenodd" d="m481.7 425.99c0-1.184 0.94839-2.1528 2.0953-2.1528 1.169 0 2.0953 0.96871 2.0953 2.1528 0 1.2055-0.92629 2.1743-2.0953 2.1743-1.1469 0-2.0953-0.96875-2.0953-2.1743"/>
  <path id="path3268" stroke-linejoin="round" d="m479.25 426.14v-0.27983l0.0442-0.45209c0.022-0.0861 0.022-0.17222 0.0662-0.25832l0.11028-0.40902c0.0219-0.0643 0.0661-0.15068 0.088-0.21528l0.1985-0.36596c0.0443-0.10766 0.0883-0.19373 0.15438-0.2583l0.26466-0.32291c0.0662-0.0646 0.1103-0.12918 0.17645-0.17223l0.30877-0.27984c0.0882-0.0647 0.17644-0.12917 0.26466-0.17223l0.35291-0.19374c0.0661-0.043 0.15438-0.0861 0.2426-0.10764l0.39698-0.12917c0.11028-0.043 0.22056-0.0645 0.30878-0.0645l0.41904-0.043c0.1103-0.0216 0.22055-0.0216 0.30878 0l0.41905 0.043c0.11029 0 0.22057 0.0215 0.33085 0.0645l0.39698 0.12917c0.088 0.0215 0.15439 0.0644 0.24262 0.10764l0.35288 0.19374c0.0881 0.043 0.17644 0.10768 0.26465 0.17223l0.30878 0.27984c0.0661 0.043 0.11028 0.10765 0.17645 0.17223l0.26465 0.32291c0.0442 0.0645 0.11028 0.15067 0.1544 0.2583l0.1985 0.36596c0.0219 0.0646 0.066 0.15071 0.0882 0.21528l0.11029 0.40902c0.0442 0.0861 0.0442 0.17222 0.0661 0.25832l0.0443 0.45209v0.27983l-0.0443 0.43056c-0.022 0.10765-0.022 0.19374-0.0661 0.2583l-0.11029 0.40904c-0.0219 0.0861-0.066 0.1722-0.0882 0.25832l-0.1985 0.36596c-0.0443 0.0861-0.11029 0.17221-0.1544 0.25833l-0.26465 0.3229c-0.0662 0.0645-0.11029 0.10767-0.17645 0.1722l-0.30878 0.25836c-0.0882 0.0643-0.17642 0.12916-0.26465 0.19373l-0.35288 0.19374c-0.0881 0.043-0.1544 0.0645-0.24262 0.10766l-0.39698 0.12916c-0.11029 0.0215-0.22056 0.043-0.33085 0.0645l-0.41905 0.043h-0.30878l-0.41904-0.043c-0.0884-0.0215-0.1985-0.043-0.30878-0.0645l-0.39698-0.12916c-0.0882-0.043-0.17644-0.0643-0.2426-0.10766l-0.35291-0.19374c-0.0883-0.0646-0.17643-0.12915-0.26466-0.19373l-0.30877-0.25836-0.17645-0.1722-0.26466-0.3229c-0.066-0.0861-0.11029-0.17221-0.15438-0.25833l-0.1985-0.36596c-0.022-0.0861-0.0662-0.17221-0.088-0.25832l-0.14-0.41c-0.0219-0.0645-0.0219-0.15067-0.0442-0.2583zm2.9776 0.15071-0.0443-0.25834 0.11028 0.40902-0.0882-0.23679 0.17644 0.36596-0.15439-0.25833 0.26466 0.32292-0.17641-0.17225 0.30876 0.27988-0.26466-0.19375 0.35288 0.19375-0.2426-0.10768 0.39697 0.12918-0.33083-0.0645 0.41905 0.043h-0.30878l0.41908-0.043-0.30878 0.0645 0.39698-0.12918-0.2426 0.10768 0.35289-0.19375-0.26467 0.19375 0.30877-0.27988-0.17644 0.17225 0.26467-0.32292-0.15439 0.25833 0.17646-0.36596-0.0882 0.23679 0.11029-0.40902-0.0442 0.25834 0.0442-0.43054v0.27983l-0.0442-0.45207 0.066 0.27986-0.13231-0.409 0.0882 0.23678-0.17644-0.36596 0.15439 0.25832-0.26469-0.3229 0.17645 0.17224-0.30876-0.25834 0.26468 0.17221-0.3529-0.19373 0.24261 0.10765-0.397-0.12917 0.3088 0.0646-0.41908-0.043h0.30877l-0.41905 0.043 0.33084-0.0646-0.39699 0.12917 0.24259-0.10765-0.35287 0.19373 0.26466-0.17221-0.30877 0.25834 0.17642-0.17224-0.26464 0.3229 0.15437-0.25832-0.17643 0.36596 0.0883-0.23678-0.13233 0.409 0.0661-0.27986-0.0442 0.45207v-0.27983z" stroke="#000" stroke-width=".021790px"/>
  <path id="path3270" stroke-linejoin="round" d="m482.28 458.91v21.693h-1.4556v-21.693h1.4556zm3.6832 20.166-4.4111 9.1244-4.4111-9.1244h8.8222z" stroke="#000" stroke-width=".022429px"/>
  <path id="path3272" stroke-linejoin="round" d="m487.66 467.87-11.866 8.5463 0.63961 0.86111 11.866-8.5463z" stroke="#000" stroke-width=".021790px"/>
  <text id="text3274" font-size="11.68px" xml:space="preserve" transform="scale(1.0122 .98795)" y="478.49207" x="465.88812" font-family="Arial" fill="#000000">5</text>
  <path id="path3276" stroke-linejoin="round" d="m566.74 425.21-11.428-0.20508-0.0277 1.4212 11.472 0.20719-0.0164-1.4233zm-9.924-3.7537-8.8655 4.1427 8.7394 4.4725 0.12603-8.6151z" stroke="#000" stroke-width=".043580px"/>
  <path id="path3278" stroke-linejoin="round" d="m566.27 468.43v-105.09h-1.095v105.09z" stroke="#000" stroke-width=".051284px"/>
  <path id="path3280" stroke-linejoin="round" d="m514.07 351.37-0.25804-42.152 1.1073-0.0166 0.25804 42.152z" stroke="#000" stroke-width=".057234px"/>
  <path id="path3282" stroke-linejoin="round" d="m566.62 460.12v20.452h-1.4556v-20.452h1.4556zm3.7052 19.03-4.4111 8.6108-4.4111-8.6108h8.8222z" stroke="#000" stroke-width=".043580px"/>
  <path id="path3284" stroke-linejoin="round" d="m571.99 468.24-11.866 8.5678 0.66165 0.86108 11.866-8.5679z" stroke="#000" stroke-width=".043580px"/>
  <text id="text3286" font-size="11.68px" xml:space="preserve" transform="scale(1.0122 .98795)" y="477.35083" x="547.29022" font-family="Arial" fill="#000000">5</text>
  <path id="path3288" stroke-linejoin="round" d="m619.5 351.33h31.647v1.0927h-31.647z" stroke="#000" stroke-width=".026828px"/>
  <path id="path3290" stroke-linejoin="round" d="m650.84 427.76-11.278 0.15194 0.004-1.4267 11.274-0.19482 0.00026 1.4696zm-9.7179 3.6913-8.923-4.1574 8.7653-4.4302 0.15786 8.5875z" stroke="#000" stroke-width=".043580px"/>
  <path id="path3292" stroke-linejoin="round" d="m650.87 470.1v-118.82h-1.0904v118.82z" stroke="#000" stroke-width=".055809px"/>
  <path id="path3296" stroke-linejoin="round" d="m656.43 465.26-11.866 8.5679 0.66166 0.86108 11.866-8.5248z" stroke="#000" stroke-width=".043580px"/>
  <text id="text3298" font-size="11.68px" xml:space="preserve" transform="scale(1.0122 .98795)" y="475.72055" x="630.92584" font-family="Arial" fill="#000000">5</text>
  <path id="path3300" stroke-linejoin="round" d="m651.06 458.49v20.495h-1.4556v-20.495h1.4556zm3.6612 19.03-4.4111 8.6108-4.4111-8.6108h8.8221z" stroke="#000" stroke-width=".043580px"/>
  <path id="path3302" stroke-linejoin="round" d="m755.68 482.89c0-0.44943 0.27955-0.8489 0.59404-0.8489h50.599c0.34945 0 0.59405 0.39947 0.59405 0.8489v33.059c0 0.44944-0.2446 0.799-0.59405 0.799h-50.599c-0.31449 0-0.59404-0.34956-0.59404-0.799zm1.153 33.059-0.5591-0.84889h50.599l-0.55909 0.84889v-33.059l0.55909 0.84888h-50.599l0.5591-0.84888z" stroke="#000" stroke-width=".041773px"/>
  <text id="text3304" font-size="14.491px" xml:space="preserve" transform="scale(1.0122 .98795)" y="515.8299" x="756.36676" font-family="Arial" line-height="125%" fill="#000000">MUX</text>
  <path id="path3306" stroke-linejoin="round" d="m807.53 503.01h13.322v1.0763h-13.322z" stroke="#000" stroke-width=".043580px"/>
  <path id="path3308" stroke-linejoin="round" d="m784.12 516.19v13.174h-1.4998v-13.174h1.4998zm3.6611 11.755-4.4111 8.6108-4.4111-8.6108h8.8222z" stroke="#000" stroke-width=".043580px"/>
  <path id="path3310" stroke-linejoin="round" d="m742.8 279.42c0-0.38741 0.44903-0.73173 1.0264-0.73173h60.619c0.57735 0 1.0905 0.34432 1.0905 0.73173v30c0 0.38737-0.51317 0.73172-1.0905 0.73172h-60.619c-0.57734 0-1.0264-0.34435-1.0264-0.73172zm1.5553 30.052-0.52901-0.78255h60.619l-0.4813 0.99763 0.091-30.355 0.39046 0.82035h-60.619l0.58007-0.62998z" stroke="#000" stroke-width=".052546px"/>
  <text id="text3312" font-size="15.94px" xml:space="preserve" transform="scale(1.0122 .98795)" y="303.06357" x="737.91772" font-family="Arial" line-height="125%" fill="#000000">SelCop</text>
  <path id="path3314" fill-rule="evenodd" d="m649.12 427.22c0-1.2055 0.92631-2.1958 2.1174-2.1958 1.1469 0 2.0732 0.99022 2.0732 2.1958 0 1.2055-0.92633 2.1528-2.0732 2.1528-1.191 0-2.1174-0.9472-2.1174-2.1528"/>
  <path id="path3316" stroke-linejoin="round" d="m646.95 427v-0.25832l0.0443-0.47359c0-0.0861 0.0442-0.17224 0.0442-0.25834l0.13232-0.3875c0.0442-0.0861 0.0442-0.17222 0.0881-0.25832l0.22054-0.34444c0.0442-0.0861 0.0881-0.17221 0.13232-0.25833l0.26467-0.30139c0.0443-0.0861 0.088-0.12914 0.17645-0.21525l0.30877-0.25833c0.0882-0.0861 0.17646-0.12915 0.26466-0.1722l0.35289-0.2153c0.0884-0.043 0.17645-0.043 0.26467-0.0861l0.39699-0.12916c0.0884-0.043 0.17643-0.043 0.30878-0.0861l0.397-0.043h0.30876l0.44112 0.043c0.0881 0.043 0.17642 0.043 0.30878 0.0861l0.39697 0.12916c0.088 0.043 0.17645 0.043 0.26469 0.0861l0.35287 0.2153c0.0882 0.043 0.17645 0.0861 0.22057 0.1722l0.30875 0.25833 0.17646 0.17221 0.26466 0.34443c0.0882 0.0861 0.13232 0.17222 0.17642 0.25833l0.17646 0.34444c0.0443 0.0861 0.0882 0.17223 0.0882 0.25832l0.13232 0.3875c0.0442 0.0861 0.0442 0.1722 0.0442 0.25834l0.0443 0.47359c0.0442 0.0861 0.0442 0.17219 0 0.25832l-0.0443 0.43053c0 0.12915 0 0.21527-0.0442 0.3014l-0.13232 0.38747c0 0.0861-0.0442 0.17222-0.0882 0.21526l-0.17646 0.3875c-0.0443 0.0861-0.088 0.1722-0.17642 0.25833l-0.26466 0.30138c-0.0443 0.0861-0.0884 0.12915-0.17646 0.17221l-0.30875 0.30139c-0.0443 0.043-0.13235 0.12915-0.22057 0.17221l-0.35287 0.17222c-0.0881 0.043-0.17644 0.0861-0.26469 0.12916l-0.39697 0.12917c-0.13236 0.043-0.22055 0.043-0.30878 0.043l-0.44112 0.043c-0.0883 0.043-0.17643 0.043-0.30876 0l-0.397-0.043c-0.13235 0-0.22055 0-0.30878-0.043l-0.39699-0.12917c-0.0884-0.043-0.17644-0.0861-0.26467-0.12916l-0.35289-0.17222c-0.0882-0.043-0.17644-0.12917-0.26466-0.17221l-0.30877-0.30139c-0.0883-0.043-0.13232-0.12914-0.17645-0.17221l-0.26467-0.34441c-0.0442-0.043-0.0881-0.12917-0.13232-0.2153l-0.22054-0.3875c0-0.043-0.0443-0.12914-0.0881-0.21526l-0.0883-0.38747c-0.0443-0.0861-0.0882-0.17225-0.0882-0.3014zm2.9995 0.17222-0.0881-0.25835 0.13234 0.38752-0.0883-0.21529 0.17643 0.34443-0.13233-0.21528 0.26467 0.3014-0.22055-0.17223 0.30876 0.25832-0.22055-0.17221 0.35289 0.17221-0.26466-0.0861 0.39699 0.12914-0.30879-0.0861 0.397 0.043h-0.30879l0.44113-0.043-0.30878 0.0861 0.39702-0.12914-0.26467 0.0861 0.35286-0.17221-0.26464 0.17221 0.30876-0.25832-0.17644 0.17223 0.26467-0.34443-0.17645 0.25831 0.22056-0.34443-0.0883 0.21529 0.0883-0.38752-0.0442 0.25835 0.0442-0.43054v0.25832l-0.0442-0.43055 0.0442 0.25833-0.13234-0.43055 0.13234 0.25833-0.22056-0.34445 0.17645 0.25834-0.26467-0.34442 0.17644 0.1722-0.30876-0.25833 0.26464 0.17221-0.35286-0.17221 0.26467 0.0861-0.39702-0.12917 0.30878 0.0861-0.44113-0.043h0.30879l-0.397 0.043 0.30879-0.0861-0.39699 0.12917 0.26466-0.0861-0.35289 0.17221 0.22055-0.17221-0.30876 0.25833 0.22055-0.21528-0.26467 0.34444 0.13233-0.21528-0.17643 0.34445 0.0883-0.25833-0.13234 0.43055 0.0881-0.25833-0.0442 0.43055v-0.25832z" stroke="#000" stroke-width=".043580px"/>
  <path id="path3318" stroke-linejoin="round" d="m793.72 351.06 0.30473 125.39-1.4562-0.008-0.30474-125.39 1.4562 0.008zm3.9801 124.1-4.3978 7.3919-4.4283-7.3766 8.8261-0.0151z" stroke="#000" stroke-width=".040364px"/>
  <path id="path3320" stroke-linejoin="round" d="m768.43 377.86 0.44095 96.849h-1.4551l-0.48503-96.801 1.4991-0.0496zm4.1006 95.169-4.3653 9.8826-4.4535-9.8333 8.8187-0.0496z" stroke="#000" stroke-width=".046678px"/>
  <text id="text3322" font-size="11.68px" xml:space="preserve" transform="scale(1.0122 .98795)" y="504.36139" x="804.16803" font-family="Arial" fill="#000000">MC</text>
  <path id="path3324" stroke-linejoin="round" d="m796.7 449.84-11.866 8.5679 0.66165 0.86108 11.866-8.5248z" stroke="#000" stroke-width=".043580px"/>
  <path id="path3326" stroke-linejoin="round" d="m766.16 425.37-11.866 8.5248 0.61756 0.90412 11.866-8.5679z" stroke="#000" stroke-width=".043580px"/>
  <text id="text3328" font-size="11.681px" xml:space="preserve" transform="matrix(-.072619 -1.0407 .95593 -.070881 0 0)" line-height="125%" y="762.19708" x="-491.76971" font-family="Arial" fill="#000000"><tspan id="tspan4439" y="762.19708" x="-491.76971">IR3 -- IR0</tspan></text>
  <text id="text3330" font-size="11.68px" xml:space="preserve" transform="scale(1.0122 .98795)" y="460.05203" x="769.78503" font-family="Arial" fill="#000000">4</text>
  <text id="text3332" font-size="11.68px" xml:space="preserve" transform="scale(1.0122 .98795)" y="477.48157" x="439.08569" font-family="Arial" fill="#000000">5</text>
  <text id="text3334" font-size="11.68px" xml:space="preserve" transform="scale(1.0122 .98795)" y="476.90588" x="520.69574" font-family="Arial" fill="#000000">5</text>
  <text id="text3336" font-size="11.68px" xml:space="preserve" transform="scale(1.0122 .98795)" y="474.66925" x="602.37616" font-family="Arial" fill="#000000">5</text>
  <text id="text3338" font-size="10.111px" xml:space="preserve" transform="scale(1.0122 .98795)" y="505.07022" x="446.13742" font-family="Arial" fill="#000000">0</text>
  <text id="text3340" font-size="10.111px" xml:space="preserve" transform="scale(1.0122 .98795)" y="505.31778" x="471.56329" font-family="Arial" fill="#000000">1</text>
  <text id="text3342" font-size="14.468px" xml:space="preserve" transform="scale(1.0122 .98795)" y="560.89099" x="536.37982" font-family="Arial" fill="#000000">RB</text>
  <text id="text3344" font-size="14.468px" xml:space="preserve" transform="scale(1.0122 .98795)" y="559.84882" x="619.47174" font-family="Arial" fill="#000000">RC</text>
  <text id="text3346" font-size="14.468px" xml:space="preserve" transform="scale(1.0122 .98795)" y="560.3833" x="454.7276" font-family="Arial" fill="#000000">RA</text>
  <text id="text3348" font-size="14.468px" xml:space="preserve" transform="scale(1.0122 .98795)" y="558.245" x="761.32892" font-family="Arial" fill="#000000">Cop</text>
  <text id="text3350" font-size="10.111px" xml:space="preserve" transform="scale(1.0122 .98795)" y="505.07028" x="528.80402" font-family="Arial" fill="#000000">0</text>
  <text id="text3352" font-size="10.111px" xml:space="preserve" transform="scale(1.0122 .98795)" y="505.31781" x="555.36334" font-family="Arial" fill="#000000">1</text>
  <text id="text3354" font-size="10.111px" xml:space="preserve" transform="scale(1.0122 .98795)" y="499.41223" x="756.6037" font-family="Arial" fill="#000000">0</text>
  <text id="text3356" font-size="10.111px" xml:space="preserve" transform="scale(1.0122 .98795)" y="498.99963" x="781.97375" font-family="Arial" fill="#000000">1</text>
  <text id="text3358" font-size="11.593px" xml:space="preserve" transform="scale(1.0122 .98795)" y="173.59752" x="259.42078" font-family="Arial" line-height="125%" fill="#000000">A1</text>
  <text id="text3362" font-size="17.432px" xml:space="preserve" transform="scale(1.0122 .98795)" y="284.98569" x="257.86935" font-family="Arial" fill="#000000">MUX B</text>
  <path id="path3364" stroke-linejoin="round" d="m248.52 304.19c0 0.40904 0.26219 0.73195 0.61803 0.73195h77.873c0.33708 0 0.61802-0.32291 0.61802-0.73195v-45.789c0-0.38751-0.28094-0.71043-0.61802-0.71043h-77.873c-0.35584 0-0.61803 0.32292-0.61803 0.71043zm1.2361-45.789-0.61801 0.71042h77.873l-0.61804-0.71042v45.789l0.61804-0.71042h-77.873l0.61801 0.71042z" stroke="#000" stroke-width=".020079px"/>
  <text id="text3366" font-size="10.111px" xml:space="preserve" transform="scale(1.0122 .98795)" y="301.50232" x="264.83566" font-family="Arial" fill="#000000">0</text>
  <text id="text3368" font-size="10.111px" xml:space="preserve" transform="scale(1.0122 .98795)" y="301.74969" x="295.67563" font-family="Arial" fill="#000000">1</text>
  <path id="path3372" stroke-linejoin="round" d="m303.85 324.97v-13.174h-1.4777v13.174h1.4777zm3.6612-11.733-4.4111-8.6108-4.4111 8.6108h8.8221z" stroke="#000" stroke-width=".021790px"/>
  <text id="text3374" font-size="11.593px" xml:space="preserve" transform="scale(1.0122 .98795)" y="79.946648" x="223.01343" font-family="Arial" line-height="125%" fill="#000000">00</text>
  <text id="text3376" font-size="11.593px" xml:space="preserve" transform="scale(1.0122 .98795)" y="106.33669" x="223.01343" font-family="Arial" line-height="125%" fill="#000000"><tspan id="tspan5996" y="106.33669" x="223.01343">01</tspan></text>
  <text id="text3378" font-size="11.593px" xml:space="preserve" transform="scale(1.0122 .98795)" y="132.7267" x="222.23225" font-family="Arial" line-height="125%" fill="#000000"><tspan id="tspan5998" y="132.7267" x="222.23225">10</tspan></text>
  <text id="text3380" font-size="11.593px" xml:space="preserve" transform="scale(1.0122 .98795)" y="159.11676" x="222.23225" font-family="Arial" line-height="125%" fill="#000000">11</text>
  <path id="path3382" fill-rule="evenodd" fill="#fff" d="m294.87 347.34 8.3369-16.274 8.337 16.274z"/>
  <path id="path3384" stroke-linejoin="round" d="m294.87 343.63c-0.19854 0-0.37499-0.0815-0.4853-0.19505-0.088-0.12999-0.11028-0.27625-0.022-0.39l8.3382-12.286c0.0881-0.14625 0.28677-0.22751 0.50735-0.22751 0.19853 0 0.39705 0.0814 0.48531 0.22751l8.3382 12.286c0.0883 0.11375 0.0661 0.26001-0.022 0.39-0.11029 0.11376-0.28676 0.19505-0.46323 0.19505zm16.677-0.81254-0.50735 0.58504-8.3382-12.286h0.99265l-8.3382 12.286-0.48528-0.58504z" stroke="#000" stroke-width=".018933px"/>
  <path id="path3386" fill-rule="evenodd" fill="#fff" d="m298.91 327.55c0-2.2388 1.8746-4.0685 4.1684-4.0685 2.3158 0 4.1684 1.8297 4.1684 4.0685s-1.8527 4.0685-4.1684 4.0685c-2.2938 0-4.1684-1.8297-4.1684-4.0685"/>
  <path id="path3388" stroke-linejoin="round" d="m298.38 327.63c-0.022-0.043-0.022-0.0861 0-0.12918l0.0882-0.81803c0-0.0215 0-0.0645 0.0219-0.0861l0.2426-0.77498c0-0.0215 0.022-0.0645 0.022-0.0861l0.37494-0.68888c0.0219-0.043 0.0442-0.0643 0.066-0.10767l0.52932-0.60276 0.0662-0.0645 0.61756-0.49512c0.022-0.0215 0.0662-0.043 0.0881-0.043l0.70577-0.38749c0.0219-0.0215 0.0661-0.0215 0.1103-0.043l0.77191-0.23681c0.0443 0 0.0662-0.0215 0.1103-0.0215l0.83809-0.0861h0.11029l0.83808 0.0861c0.0443 0 0.0662 0.0215 0.1103 0.0215l0.77193 0.23681c0.0443 0.0215 0.0662 0.0215 0.11029 0.043l0.70577 0.38749c0.022 0 0.0662 0.0215 0.088 0.043l0.61757 0.49512 0.0662 0.0645 0.52934 0.60276c0.022 0.043 0.0443 0.0645 0.0662 0.10767l0.37494 0.68888c0 0.0215 0.022 0.0646 0.022 0.0861l0.2426 0.77498c0.0219 0.0215 0.0219 0.0646 0.0219 0.0861l0.0884 0.81803c0.022 0.043 0.022 0.0861 0 0.12918l-0.0884 0.81802c0 0.0215 0 0.0645-0.0219 0.0861l-0.2426 0.77498c0 0.0215-0.022 0.0644-0.022 0.0861l-0.37494 0.68887c-0.022 0.043-0.0443 0.0647-0.0662 0.10768l-0.52934 0.60276-0.0662 0.0645-0.61757 0.49513c-0.022 0.0215-0.0662 0.043-0.088 0.0645l-0.70577 0.36597c-0.0443 0.0215-0.066 0.0215-0.11029 0.043l-0.77193 0.2368c-0.0443 0-0.0662 0.0215-0.1103 0.0215l-0.83808 0.0861h-0.11029l-0.83809-0.0861c-0.0443 0-0.0662-0.0215-0.1103-0.0215l-0.77191-0.2368c-0.0443-0.0215-0.0662-0.0215-0.1103-0.043l-0.70577-0.36597c-0.022-0.0215-0.0662-0.043-0.0881-0.0645l-0.61756-0.49513-0.0662-0.0645-0.52932-0.60276c-0.022-0.043-0.0443-0.0645-0.066-0.10768l-0.37494-0.68887c0-0.0216-0.022-0.0645-0.022-0.0861l-0.2426-0.77498c-0.0219-0.0214-0.0219-0.0643-0.0219-0.0861zm1.169 0.68886-0.022-0.0861 0.2426 0.75346-0.0219-0.0861 0.37492 0.68889-0.0662-0.10766 0.50728 0.60276-0.0662-0.0645 0.61755 0.51665-0.088-0.0644 0.70579 0.36596-0.1103-0.043 0.79401 0.23682-0.11028-0.0215 0.83809 0.0861h-0.11029l0.83812-0.0861-0.11029 0.0215 0.794-0.23682-0.1103 0.043 0.70579-0.36596-0.0881 0.0644 0.61755-0.51665-0.0662 0.0645 0.50728-0.60276-0.066 0.10766 0.37493-0.68889-0.022 0.0861 0.24261-0.75346-0.022 0.0861 0.0881-0.81804v0.12918l-0.0881-0.81802 0.022 0.0861-0.24261-0.75343 0.022 0.0861-0.37493-0.68887 0.066 0.10766-0.50728-0.60273 0.0662 0.0644-0.61755-0.4951 0.0881 0.043-0.70579-0.36596 0.1103 0.043-0.794-0.23678 0.11029 0.0215-0.83812-0.0861h0.11029l-0.83809 0.0861 0.11028-0.0215-0.79401 0.23678 0.1103-0.043-0.70579 0.36596 0.088-0.043-0.61755 0.4951 0.0662-0.0644-0.50728 0.60273 0.0662-0.10766-0.37492 0.68887 0.0219-0.0861-0.2426 0.75343 0.022-0.0861-0.0882 0.81802v-0.12918z" stroke="#000" stroke-width=".021790px"/>
  <path id="path3390" stroke-linejoin="round" d="m304.09 359.16v-16.274h-1.1027v16.274z" stroke="#000" stroke-width=".021790px"/>
  <path id="path3392" stroke-linejoin="round" d="m269.84 358.36h34.031v1.0763h-34.031z" stroke="#000" stroke-width=".021790px"/>
  <path id="path3394" fill-rule="evenodd" fill="#d9d9d9" d="m435.91 278.93v31.58h20.959v-31.58h-20.959z"/>
  <path id="path3396" stroke-linejoin="round" d="m434.8 279.13c0-0.37515 0.39452-0.68774 0.92991-0.68774h20.935c0.50724 0 0.92991 0.31259 0.92991 0.68774v30.574c0 0.37515-0.42267 0.68774-0.92991 0.68774h-20.935c-0.53539 0-0.92991-0.31259-0.92991-0.68774zm1.8597 30.574-0.9299-0.68776h20.935l-0.95808 0.68776v-30.574l0.95808 0.68775h-20.935l0.9299-0.68775z" stroke="#000" stroke-width=".024235px"/>
  <path id="path3398" fill-rule="evenodd" fill="#d9d9d9" d="m457.13 278.93v31.58h29.18v-31.58h-29.18z"/>
  <path id="path3400" stroke-linejoin="round" d="m456.39 279.13c0-0.37517 0.3088-0.68783 0.72785-0.68783h29.18c0.39699 0 0.72785 0.31266 0.72785 0.68783v30.576c0 0.37517-0.33086 0.6878-0.72785 0.6878h-29.18c-0.41905 0-0.72785-0.31263-0.72785-0.6878zm1.4557 30.576-0.72784-0.6878h29.18l-0.74988 0.6878v-30.576l0.74988 0.68781h-29.18l0.72784-0.68781z" stroke="#000" stroke-width=".021441px"/>
  <path id="path3402" fill-rule="evenodd" fill="#d9d9d9" d="m414.84 278.93v31.58h20.807v-31.58h-20.807z"/>
  <path id="path3404" stroke-linejoin="round" d="m414.5 279.13c0-0.37513 0.38852-0.68774 0.91581-0.68774h20.621c0.49955 0 0.91583 0.31261 0.91583 0.68774v30.574c0 0.37513-0.41628 0.68774-0.91583 0.68774h-20.621c-0.52729 0-0.91581-0.31261-0.91581-0.68774zm1.8316 30.574-0.91585-0.68777h20.621l-0.94356 0.68777v-30.574l0.94356 0.68774h-20.621l0.91585-0.68774z" stroke="#000" stroke-width=".024050px"/>
  <text id="text3406" font-size="13.042px" xml:space="preserve" transform="scale(1.0122 .98795)" y="303.45218" x="412.47751" font-family="Arial" line-height="125%" fill="#000000">A0</text>
  <text id="text3408" font-size="15.94px" xml:space="preserve" transform="scale(1.0122 .98795)" y="304.55014" x="435.42743" font-family="Arial" line-height="125%" fill="#000000">B</text>
  <text id="text3410" font-size="15.94px" xml:space="preserve" transform="scale(1.0122 .98795)" y="304.55014" x="459.84256" font-family="Arial" line-height="125%" fill="#000000">C</text>
  <text id="text3412" font-size="14.468px" xml:space="preserve" transform="scale(1.0122 .98795)" y="247.30067" x="522.45081" font-family="Arial" fill="#000000">µAddress</text>
  <path id="path3414" stroke-linejoin="round" d="m472.22 310.17v34.551h-1.0784v-34.551z" stroke="#000" stroke-width=".021547px"/>
  <path id="path3416" stroke-linejoin="round" d="m556.58 206.66v23.224h-1.1014v-23.224z" stroke="#000" stroke-width=".023085px"/>
  <path id="path3418" stroke-linejoin="round" d="m486.87 276.02 0.0442-2.4971 0.13234-2.368 0.0884-1.1194 0.13233-1.0333 0.13232-0.99024 0.13235-0.86109 0.13234-0.86107 0.17643-0.73193 0.17645-0.6458 0.22054-0.55971 0.17644-0.43055c0.0443-0.043 0.0443-0.0861 0.0443-0.0861l0.22057-0.30139c0.0442-0.043 0.0442-0.0861 0.088-0.0861l0.22056-0.21528c0.0443-0.043 0.13233-0.0861 0.22056-0.12917l0.22055-0.043c0.0442-0.043 0.0882-0.043 0.13233-0.043h64.048l-0.17643 0.043 0.22054-0.0861-0.22054 0.12914 0.22054-0.1722-0.088 0.0861 0.22055-0.30135-0.0442 0.0861 0.17645-0.43055 0.17644-0.47359 0.17644-0.60276 0.13233-0.68887 0.17644-0.77498 0.13234-0.8611 0.0883-0.94719 0.13236-1.0333 0.0883-1.0763 0.0881-2.325 0.0443-2.4971c0.0442-0.30138 0.26467-0.51666 0.57344-0.51666 0.30879 0 0.52931 0.21528 0.52931 0.51666l0.0442 2.5402 0.13234 2.2819 0.0882 1.0763 0.13233 1.0333 0.0883 0.94719 0.13232 0.8611 0.17645 0.77498 0.13233 0.68887 0.17645 0.60276 0.17643 0.51664 0.17644 0.38749-0.0442-0.0861 0.22057 0.30135-0.0882-0.0861 0.22055 0.1722-0.22055-0.12913 0.22055 0.0861-0.17643-0.043h64.048c0.0443 0 0.0882 0 0.13233 0.043l0.22058 0.043c0.0882 0.043 0.17643 0.0861 0.22053 0.12918l0.22057 0.21527c0.0442 0 0.0442 0.043 0.0882 0.0861l0.22054 0.30139s0 0.043 0.0442 0.0861l0.17645 0.38748 0.22056 0.60278 0.17643 0.6458 0.17643 0.73191 0.13235 0.81804 0.13234 0.90414 0.13231 0.99023 0.13234 1.0333 0.0882 1.0763 0.0882 2.368 0.0443 2.5402h-1.1028l-0.0442-2.4971-0.0882-2.325-0.0883-1.0333-0.13234-1.0333-0.0881-0.9472-0.13234-0.8611-0.17642-0.81802-0.13235-0.64582-0.17643-0.60275-0.17644-0.51665-0.17644-0.38748 0.0442 0.0861-0.22056-0.30138 0.0881 0.0861-0.22055-0.21525 0.22055 0.12915-0.22055-0.043h0.17643-64.048-0.13233l-0.22056-0.0861c-0.0881 0-0.17642-0.043-0.22054-0.12917l-0.22055-0.17223c-0.0442-0.043-0.0442-0.0861-0.0883-0.0861l-0.22054-0.30139c0-0.043 0-0.0861-0.0442-0.0861l-0.17644-0.47359-0.22056-0.55972-0.17643-0.64579-0.17645-0.73192-0.13234-0.81805-0.13234-0.90414-0.13231-0.94717-0.13234-1.0763-0.0882-1.0763-0.13235-2.368-0.0443-2.4971h1.1027l-0.0443 2.4971-0.0881 2.368-0.0882 1.1194-0.13235 1.0333-0.13233 0.94717-0.13233 0.90414-0.13234 0.81805-0.17642 0.77497-0.17646 0.64582-0.22056 0.5597-0.17645 0.43054c-0.0442 0-0.0442 0.043-0.0442 0.0861l-0.22056 0.30139c-0.0442 0-0.0442 0.043-0.0881 0.0861l-0.22058 0.17224c-0.0442 0.0861-0.13232 0.12915-0.22054 0.12915l-0.22055 0.0861h-0.13233-64.048 0.17642l-0.22054 0.043 0.22054-0.12915-0.22054 0.21526 0.088-0.0861-0.22055 0.30138 0.0443-0.0861-0.17646 0.38748-0.17644 0.47359-0.17644 0.60278-0.13233 0.68885-0.17645 0.77499-0.13231 0.86108-0.0881 0.99025-0.13231 0.99025-0.0882 1.0763-0.13232 2.325-0.0442 2.4971z" stroke="#000" stroke-width=".043580px"/>
  <path id="path3420" stroke-linejoin="round" d="m446.16 310.51v15.113l0.6187-0.73195h-63.407l0.63744 0.73195v-44.326c0-0.40904-0.28122-0.73194-0.63744-0.73194h-50.191v1.4423h50.191l-0.61871-0.71043v44.326c0 0.38747 0.28123 0.71041 0.61871 0.71041h63.407c0.35625 0 0.63747-0.32294 0.63747-0.71041v-15.113zm-111.73-33.519-7.4994 4.3055 7.4994 4.3055z" stroke="#000" stroke-width=".020089px"/>
  <path id="path3422" stroke-linejoin="round" d="m98.098 516.13c0-0.35356 0.33082-0.61408 0.72783-0.61408h23.996c0.41904 0 0.74988 0.26052 0.74988 0.61408v25.81c0 0.33495-0.33084 0.61407-0.74988 0.61407h-23.996c-0.397 0-0.72783-0.27912-0.72783-0.61407zm1.4777 25.81-0.74989-0.6141h23.996l-0.72782 0.6141v-25.81l0.72782 0.61412h-23.996l0.74989-0.61412z" stroke="#000" stroke-width=".020259px"/>
  <text id="text3424" font-size="26.147px" xml:space="preserve" transform="scale(1.0122 .98795)" y="545.20514" x="104.76016" font-family="Arial" fill="#ffffff">º</text>
  <path id="path3426" stroke-linejoin="round" d="m122.08 516.13c0-0.35356 0.33084-0.61408 0.72785-0.61408h23.997c0.39699 0 0.72783 0.26052 0.72783 0.61408v25.81c0 0.33495-0.33084 0.61407-0.72783 0.61407h-23.997c-0.39701 0-0.72785-0.27912-0.72785-0.61407zm1.4777 25.81-0.74987-0.6141h23.997l-0.72784 0.6141v-25.81l0.72784 0.61412h-23.997l0.74987-0.61412z" stroke="#000" stroke-width=".020259px"/>
  <path id="path3428" stroke-linejoin="round" d="m146.08 516.13c0-0.35356 0.33084-0.61408 0.72784-0.61408h23.996c0.39701 0 0.72784 0.26052 0.72784 0.61408v25.81c0 0.33495-0.33083 0.61407-0.72784 0.61407h-23.996c-0.397 0-0.72784-0.27912-0.72784-0.61407zm1.4556 25.81-0.72783-0.6141h23.996l-0.72785 0.6141v-25.81l0.72785 0.61412h-23.996l0.72783-0.61412z" stroke="#000" stroke-width=".020259px"/>
  <path id="path3430" stroke-linejoin="round" d="m221.69 516.13c0-0.35356 0.33083-0.61408 0.72783-0.61408h23.997c0.397 0 0.72782 0.26052 0.72782 0.61408v25.81c0 0.33495-0.33082 0.61407-0.72782 0.61407h-23.997c-0.397 0-0.72783-0.27912-0.72783-0.61407zm1.4777 25.81-0.74989-0.6141h23.996l-0.7278 0.6141v-25.81l0.7278 0.61412h-23.996l0.74989-0.61412z" stroke="#000" stroke-width=".020259px"/>
  <path id="path3432" stroke-linejoin="round" d="m245.68 516.13c0-0.35356 0.33083-0.61408 0.72783-0.61408h23.996c0.39699 0 0.7278 0.26052 0.7278 0.61408v25.81c0 0.33495-0.33081 0.61407-0.7278 0.61407h-23.996c-0.397 0-0.72783-0.27912-0.72783-0.61407zm1.4556 25.81-0.72785-0.6141h23.996l-0.74987 0.6141v-25.81l0.74987 0.61412h-23.996l0.72785-0.61412z" stroke="#000" stroke-width=".020259px"/>
  <text id="text3434" font-size="14.468px" xml:space="preserve" transform="scale(1.0122 .98795)" y="540.58423" x="104.2653" font-family="Arial" line-height="125%" fill="#000000"><tspan id="tspan3657" y="540.58423" x="104.2653">C</tspan></text>
  <text id="text3436" font-size="14.468px" xml:space="preserve" transform="scale(1.0122 .98795)" y="540.58423" x="128.54935" font-family="Arial" line-height="125%" fill="#000000"><tspan id="tspan3655" y="540.58423" x="128.54935">V</tspan></text>
  <text id="text3438" font-size="14.468px" xml:space="preserve" transform="scale(1.0122 .98795)" y="540.58423" x="152.21974" font-family="Arial" line-height="125%" fill="#000000"><tspan id="tspan3653" y="540.58423" x="152.21974">N</tspan></text>
  <text id="text3440" font-size="14.468px" xml:space="preserve" transform="scale(1.0122 .98795)" y="540.58423" x="229.9315" font-family="Arial" fill="#000000">I</text>
  <text id="text3442" font-size="14.468px" xml:space="preserve" transform="scale(1.0122 .98795)" y="540.58423" x="250.0764" font-family="Arial" fill="#000000">U</text>
  <path id="path3444" stroke-linejoin="round" d="m170.08 516.13c0-0.35356 0.30878-0.61408 0.72784-0.61408h51.609c0.41904 0 0.74987 0.26052 0.74987 0.61408v25.81c0 0.33495-0.33083 0.61407-0.74987 0.61407h-51.609c-0.41906 0-0.72784-0.27912-0.72784-0.61407zm1.4556 25.81-0.72783-0.6141h51.609l-0.72783 0.6141v-25.81l0.72783 0.61412h-51.609l0.72783-0.61412z" stroke="#000" stroke-width=".020259px"/>
  <text id="text3446" font-size="11.593px" xml:space="preserve" transform="scale(1.0122 .98795)" y="561.64697" x="103.78926" font-family="Arial" line-height="125%" fill="#000000">31</text>
  <text id="text3448" font-size="11.593px" xml:space="preserve" transform="scale(1.0122 .98795)" y="561.64697" x="126.45172" font-family="Arial" line-height="125%" fill="#000000">30</text>
  <text id="text3450" font-size="11.593px" xml:space="preserve" transform="scale(1.0122 .98795)" y="561.64697" x="150.34473" font-family="Arial" line-height="125%" fill="#000000">29</text>
  <text id="text3452" font-size="11.593px" xml:space="preserve" transform="scale(1.0122 .98795)" y="561.64697" x="228.01299" font-family="Arial" line-height="125%" fill="#000000">1</text>
  <text id="text3454" font-size="13.042px" xml:space="preserve" transform="scale(1.0122 .98795)" y="493.53635" x="265.13516" font-family="Arial" line-height="125%" fill="#000000">MRdy</text>
  <text id="text3456" font-size="13.042px" xml:space="preserve" transform="scale(1.0122 .98795)" y="516.12427" x="291.09314" font-family="Arial" line-height="125%" fill="#000000">IORdy</text>
  <text id="text3458" font-size="13.042px" xml:space="preserve" transform="scale(1.0122 .98795)" y="494.04391" x="323.30786" font-family="Arial" line-height="125%" fill="#000000">INT</text>
  <text id="text3460" font-size="11.593px" xml:space="preserve" transform="scale(1.0122 .98795)" y="449.75711" x="154.9826" font-family="Arial" line-height="125%" fill="#000000">7</text>
  <text id="text3462" font-size="11.593px" xml:space="preserve" transform="scale(1.0122 .98795)" y="449.75711" x="177.74313" font-family="Arial" line-height="125%" fill="#000000">6</text>
  <text id="text3464" font-size="11.593px" xml:space="preserve" transform="scale(1.0122 .98795)" y="449.98798" x="228.42839" font-family="Arial" line-height="125%" fill="#000000">5</text>
  <text id="text3466" font-size="11.593px" xml:space="preserve" transform="scale(1.0122 .98795)" y="449.75711" x="251.71153" font-family="Arial" line-height="125%" fill="#000000">4</text>
  <text id="text3468" font-size="11.593px" xml:space="preserve" transform="scale(1.0122 .98795)" y="449.75714" x="280.74155" font-family="Arial" line-height="125%" fill="#000000">3</text>
  <text id="text3470" font-size="11.593px" xml:space="preserve" transform="scale(1.0122 .98795)" y="449.75714" x="306.02496" font-family="Arial" line-height="125%" fill="#000000">2</text>
  <text id="text3472" font-size="11.593px" xml:space="preserve" transform="scale(1.0122 .98795)" y="449.75714" x="329.8139" font-family="Arial" line-height="125%" fill="#000000">1</text>
  <text id="text3474" font-size="11.593px" xml:space="preserve" transform="scale(1.0122 .98795)" y="449.75714" x="354.42111" font-family="Arial" line-height="125%" fill="#000000">0</text>
  <text id="text3476" font-size="11.593px" xml:space="preserve" transform="scale(1.0122 .98795)" y="449.75711" x="130.32065" font-family="Arial" line-height="125%" fill="#000000">8</text>
  <path id="path3478" stroke-linejoin="round" d="m85.035 358.28 0.04245 2.2432 0.12743 2.0871 0.08498 0.97528 0.08499 0.91675 0.12743 0.87778 0.12744 0.79973 0.14877 0.7217 0.14877 0.6632 0.17009 0.56566 0.19123 0.50715 0.2125 0.40963c0 0.0196 0.02111 0.0392 0.02111 0.0585l0.19124 0.27306c0.04245 0.0391 0.06387 0.0781 0.10631 0.0976l0.19126 0.17553c0.06387 0.0392 0.12743 0.078 0.19125 0.0976l0.21249 0.0585c0.04245 0.0196 0.10631 0.0196 0.14876 0.0196h57.841l-0.16988-0.0196 0.21248 0.0585-0.19126-0.0976 0.19126 0.15606-0.085-0.0976 0.19122 0.27305 0.14877 0.31211 0.14875 0.4096 0.16993 0.54617 0.14873 0.60468 0.12745 0.70221 0.12745 0.76071 0.12743 0.83877 0.085 0.89726 0.0849 0.95576 0.12744 2.0676 0.0212 2.2041c0.0211 0.27307 0.25499 0.48764 0.53122 0.48764 0.29749 0 0.53124-0.21457 0.53124-0.48764l0.0426-2.2236 0.12743-2.0482 0.085-0.95576 0.085-0.91678 0.12745-0.81925 0.12741-0.78022 0.14876-0.70218 0.12744-0.62419 0.17009-0.52666 0.16991-0.42913 0.16991-0.33161-0.0426 0.0585 0.19121-0.27307-0.0849 0.0976 0.19123-0.15606-0.19123 0.0976 0.19123-0.0585-0.14877 0.0194h57.841c0.0639 0 0.10625 0 0.14876-0.0194l0.2125-0.0585c0.0638-0.0195 0.12742-0.0585 0.19123-0.0976l0.2125-0.17551c0.0214-0.0196 0.0637-0.0585 0.085-0.0976l0.19124-0.27307c0.021-0.0196 0.021-0.0392 0.0426-0.0585l0.17008-0.37063 0.21248-0.50715 0.16991-0.58515 0.14877-0.66319 0.14875-0.74123 0.14879-0.78022 0.10626-0.87777 0.10627-0.91676 0.085-0.97532 0.10627-2.0871 0.0426-2.2626h-1.0625l-0.0426 2.2041-0.10627 2.0676-0.0849 0.9558-0.085 0.89723-0.1274 0.83876-0.12744 0.78024-0.12744 0.68273-0.14875 0.62415-0.16991 0.50715-0.14877 0.42911-0.19125 0.37063 0.0426-0.0585-0.19126 0.27308 0.085-0.0975-0.19127 0.15604 0.19127-0.0976-0.21252 0.0585 0.16992-0.0196h-57.841c-0.0637 0-0.10626 0-0.1699 0.0196l-0.19123 0.0585c-0.0639 0.0196-0.14878 0.0585-0.19128 0.0976l-0.21249 0.17554c-0.0211 0.0196-0.0638 0.0585-0.0849 0.0976l-0.19123 0.27309c-0.0213 0.0196-0.0213 0.0392-0.0426 0.0585l-0.19125 0.40963-0.19124 0.50714-0.16992 0.58517-0.1699 0.64369-0.12743 0.72172-0.14877 0.79972-0.10627 0.87778-0.10626 0.91679-0.085 0.97527-0.12741 2.1066-0.0426 2.2236h1.0625l-0.0426-2.2432-0.10627-2.1066-0.085-0.95579-0.10626-0.9363-0.10626-0.85827-0.12745-0.81924-0.17009-0.72169-0.14877-0.66319-0.16991-0.56568-0.19123-0.52666-0.23378-0.42911-0.19122-0.27309c-0.0211-0.0392-0.0637-0.0781-0.0849-0.0976l-0.21249-0.17553c-0.064-0.0392-0.12742-0.078-0.19125-0.0976l-0.21251-0.0585c-0.0425-0.0195-0.085-0.0195-0.14877-0.0195h-57.841l0.16991 0.0195-0.2125-0.0585 0.2125 0.0976-0.2125-0.15605 0.08499 0.0976-0.19122-0.27308 0.04245 0.0585-0.14875-0.33158-0.16992-0.42914-0.17009-0.52664-0.14876-0.62421-0.12744-0.70219-0.14877-0.76072-0.10631-0.83876-0.10631-0.91675-0.08497-0.9363-0.10631-2.0676-0.04245-2.2236z" stroke="#000" stroke-width=".020360px"/>
  <path id="path3480" stroke-linejoin="round" d="m235.5 516.2v-60.796h-1.4556v60.796h1.4556zm3.6834-59.582-4.4111-7.242-4.4111 7.242h8.8221z" stroke="#000" stroke-width=".019983px"/>
  <path id="path3482" stroke-linejoin="round" d="m258.95 516.2v-60.796h-1.4777v60.796h1.4777zm3.6614-59.582-4.4111-7.242-4.4111 7.242h8.8222z" stroke="#000" stroke-width=".019983px"/>
  <path id="path3484" stroke-linejoin="round" d="m136.1 516.43v-60.773h-1.4778v60.773h1.4778zm3.6614-59.579-4.4111-7.2414-4.4111 7.2414h8.8223z" stroke="#000" stroke-width=".019983px"/>
  <path id="path3486" stroke-linejoin="round" d="m160.44 516.43v-60.773h-1.4778v60.773h1.4778zm3.6614-59.579-4.4111-7.2414-4.4111 7.2414h8.8223z" stroke="#000" stroke-width=".019983px"/>
  <path id="path3488" stroke-linejoin="round" d="m184.16 516.51v-60.796h-1.4556v60.796h1.4556zm3.6834-59.582-4.4111-7.242-4.4111 7.242h8.8221z" stroke="#000" stroke-width=".019983px"/>
  <path id="path3490" stroke-linejoin="round" d="m622.23 451.26v28.905h-1.4555v-28.905h1.4555zm3.705 27.518-4.4108 8.4022-4.4108-8.4022h8.8216z" stroke="#000" stroke-width=".043047px"/>
  <path id="path3492" stroke-linejoin="round" d="m539.04 454.07v27.513h-1.4776v-27.513h1.4776zm3.6611 26.194-4.411 7.998-4.411-7.998h8.8219z" stroke="#000" stroke-width=".021001px"/>
  <path id="path3494" stroke-linejoin="round" d="m455.86 452.28v29.57h-1.4776v-29.57h1.4776zm3.6831 28.152-4.4108 8.5954-4.4108-8.5954h8.8216z" stroke="#000" stroke-width=".021770px"/>
  <path id="path3496" stroke-linejoin="round" d="m419.71 427.7h-35.078v1.4217h35.078v-1.4217zm-34.222-3.5972-5.1096 4.308 5.1096 4.3081v-8.6159z" stroke="#000" stroke-width=".016588px"/>
  <path id="path3498" stroke-linejoin="round" d="m419.24 344.29h52.45v1.0773h-52.45z" stroke="#000" stroke-width=".020558px"/>
  <path id="path3500" stroke-linejoin="round" d="m144.71 206.77h411.84v1.3047h-411.84z" stroke="#000" stroke-width="0.0227px"/>
  <path id="path3502" stroke-linejoin="round" d="m845.95 548.39-0.10152-17.795 1.1358-0.006 0.10152 17.795z" stroke="#000" stroke-width=".027159px"/>
  <path id="path3504" stroke-linejoin="round" d="m115.69 100.02h96.019v1.4319h-96.019v-1.4319zm95.076-3.5852 5.6341 4.3065-5.6341 4.3065v-8.6131z" stroke="#000" stroke-width=".0087077px"/>
  <path id="path3118-3" stroke-linejoin="round" d="m391.01 165.72v-15.004h-1.4777v15.004h1.4777zm3.6612-13.561-4.4111-8.6108-4.4111 8.6108h8.8222z" stroke="#000" stroke-width=".021790px"/>
  <path id="path3042-5" stroke-linejoin="round" d="m358.27 182.1h12.482v1.0763h-12.482z" stroke="#000" stroke-width=".043580px"/>
  <path id="path3044-3" stroke-linejoin="round" d="m384.56 182.1h12.483v1.0763h-12.483z" stroke="#000" stroke-width=".043580px"/>
  <path id="path3046-8" stroke-linejoin="round" d="m409.52 182.1h12.483v1.0763h-12.483z" stroke="#000" stroke-width=".043580px"/>
  <path id="path3048-7" stroke-linejoin="round" d="m371.07 169.43h13.454v1.0763h-13.454z" stroke="#000" stroke-width=".043580px"/>
  <path id="path3050-6" stroke-linejoin="round" d="m371.62 182.99v-13.39h-1.1028v13.39z" stroke="#000" stroke-width=".043580px"/>
  <path id="path3052-7" stroke-linejoin="round" d="m384.73 182.99v-13.734h-1.1028v13.734z" stroke="#000" stroke-width=".043580px"/>
  <path id="path3054-4" stroke-linejoin="round" d="m397.2 182.99v-13.734h-1.1028v13.734z" stroke="#000" stroke-width=".043580px"/>
  <path id="path3056-8" stroke-linejoin="round" d="m410.66 182.66v-13.39h-1.1027v13.39z" stroke="#000" stroke-width=".043580px"/>
  <path id="path3058-1" stroke-linejoin="round" d="m396.38 169.43h13.763v1.0763h-13.763z" stroke="#000" stroke-width=".043580px"/>
  <path id="path3022-6" stroke-linejoin="round" d="m89.337 290.47c0 0.19652 0.4542 0.35587 1.0144 0.35587h120.25c0.56018 0 1.0144-0.15935 1.0144-0.35587v-58.275c0-0.19655-0.45418-0.35595-1.0144-0.35595h-120.25c-0.56019 0-1.0144 0.1594-1.0144 0.35595zm2.0286-58.275-1.0144 0.35591h120.25l-1.0144-0.35591v58.275l1.0144-0.35594h-120.25l1.0144 0.35594z" stroke="#000" stroke-width=".0089682px"/>
  <path id="path3100-8" stroke-linejoin="round" d="m115.43 100.14-0.13774 132.39h1.1517l0.13773-132.39z" stroke="#000" stroke-width=".014206px"/>
  <path id="path3100-9" stroke-linejoin="round" d="m426.7 30.151-0.13242 57.95h1.1034l0.13241-57.95z" stroke="#000" stroke-width=".0092010px"/>
  <path id="path3100-8-5" stroke-linejoin="round" d="m885.83 265.05-0.1385 30.554h1.1582l0.13849-30.554z" stroke="#000" stroke-width=".0068449px"/>
  <text id="text3172-1" font-size="15.94px" xml:space="preserve" transform="scale(1.0122 .98795)" y="304.55014" x="633.12952" font-family="Arial" line-height="125%" fill="#000000"><tspan id="tspan4412" y="304.55014" x="633.12952">MR</tspan></text>
  <path id="path3180-5" stroke-linejoin="round" d="m635.94 279.41c0-0.38759 0.18415-0.73215 0.44721-0.73215h35.829c0.23677 0 0.42089 0.34456 0.42089 0.73215v30.018c0 0.38759-0.18412 0.73214-0.42089 0.73214h-35.829c-0.26306 0-0.44721-0.34455-0.44721-0.73214zm0.86813 30.018-0.42092-0.73219h35.829l-0.44719 0.73219v-30.018l0.44719 0.73216h-35.829l0.42092-0.73216z" stroke="#000" stroke-width=".033659px"/>
  <text id="text3172-1-5" font-size="15.94px" xml:space="preserve" transform="scale(1.0122 .98795)" y="304.55014" x="668.00708" font-family="Arial" line-height="125%" fill="#000000"><tspan id="tspan4435" y="304.55014" x="668.00708">MC</tspan></text>
  <path id="path3180-5-7" stroke-linejoin="round" d="m671 279.36c0-0.38763 0.17793-0.73217 0.43209-0.73217h34.618c0.22878 0 0.40667 0.34454 0.40667 0.73217v30.018c0 0.38762-0.17789 0.73217-0.40667 0.73217h-34.618c-0.25416 0-0.43209-0.34455-0.43209-0.73217zm0.83872 30.018-0.40663-0.73218h34.618l-0.43207 0.73218v-30.018l0.43207 0.73216h-34.618l0.40663-0.73216z" stroke="#000" stroke-width=".033085px"/>
  <text id="text4138" font-size="14.065px" xml:space="preserve" transform="scale(1.077 .92852)" y="185.73344" x="386.6311" font-family="Arial" line-height="125%" fill="#000000"><tspan id="tspan4140" y="185.73344" x="386.6311">CLK</tspan></text>
  <path id="path3110-0" stroke-linejoin="round" d="m117.69 316.06-16.467 6.9882 0.46194 1.0056 16.445-6.9982z" stroke="#000" stroke-width=".021790px"/>
  <text id="text3112-0" font-size="11.68px" xml:space="preserve" transform="scale(1.0122 .98795)" line-height="125%" y="322.33975" x="98.390182" font-family="Arial" fill="#000000"><tspan id="tspan6982">6</tspan></text>
  <path id="path3124-2" stroke-linejoin="round" d="m196.46 331.96v-32.581h1.4284v32.581h-1.4284zm-3.5497-30.919 4.2641-9.99 4.2641 9.99h-8.5281z" stroke="#000" stroke-width=".011537px"/>
  <path id="path3124-2-4" stroke-linejoin="round" d="m109.41 331.96v-32.581h1.4284v32.581h-1.4284zm-3.5497-30.919 4.2641-9.99 4.2641 9.99h-8.5281z" stroke="#000" stroke-width=".011537px"/>
  <text id="text3112-0-4" font-size="11.68px" xml:space="preserve" transform="scale(1.0122 .98795)" y="321.94031" x="185.04326" font-family="Arial" fill="#000000">4</text>
  <path id="path3110-0-7" stroke-linejoin="round" d="m205.14 315.9-16.467 6.9882 0.46192 1.0056 16.445-6.9982z" stroke="#000" stroke-width=".021790px"/>
  <path id="path3310-3" stroke-linejoin="round" d="m804.1 279.27c0-0.38735 0.49388-0.73165 1.1289-0.73165h66.673c0.635 0 1.1995 0.3443 1.1995 0.73165v29.998c0 0.38734-0.5644 0.73163-1.1995 0.73163h-66.673c-0.63498 0-1.1289-0.34429-1.1289-0.73163zm1.7107 30.049-0.58186-0.78247h66.673l0.0358 0.48087-0.25886-29.497 0.22288 0.48089h-66.673l0.63799-0.62993z" stroke="#000" stroke-width=".055106px"/>
  <text id="text3312-6" font-size="15.94px" xml:space="preserve" transform="scale(1.0122 .98795)" y="304.5502" x="799.56287" font-family="Arial" line-height="125%" fill="#000000"><tspan id="tspan3945" y="304.5502" x="799.56287">ExCode</tspan></text>
  <path id="path3324-5" stroke-linejoin="round" d="m851.08 387.51-11.866 8.5679 0.66174 0.8611 11.866-8.5248z" stroke="#000" stroke-width=".043580px"/>
  <text id="text3330-3" font-size="11.68px" xml:space="preserve" transform="scale(1.0122 .98795)" y="396.96405" x="823.50665" font-family="Arial" fill="#000000">4</text>
  <path id="path3131-3" stroke-linejoin="round" d="m854.67 519.23c0.24817 0 0.45817 0.13568 0.57271 0.34893 0.0954 0.2132 0.0764 0.46518-0.0572 0.65902l-8.4377 11.96c-0.11456 0.17445-0.32453 0.27135-0.51543 0.27135-0.20997 0-0.40089-0.097-0.51543-0.27135l-8.4568-11.96c-0.13363-0.19384-0.15272-0.44582-0.0383-0.65902 0.0956-0.21325 0.32455-0.34893 0.55361-0.34893zm-16.894 1.2793 0.51544-1.0273 8.4568 11.96h-1.0309l8.4377-11.96 0.5154 1.0273z" stroke="#000" stroke-width=".019237px"/>
  <path id="path3133-6" stroke-linejoin="round" d="m862.62 526.32h-12.235v-0.96918h12.235z" stroke="#000" stroke-width="1.0427px"/>
  <path id="path3139-7" stroke-linejoin="round" d="m845.25 499.32v14.873h1.2792v-14.873h-1.2792zm-3.1696 13.775 3.8188 6.5446 3.8188-6.5446h-7.6375z" stroke="#000" stroke-width=".017674px"/>
  <text id="text3147-5" font-size="12.793px" xml:space="preserve" transform="scale(.99239 1.0077)" line-height="125%" y="525.34613" x="871.2663" font-family="Arial" fill="#000000"><tspan id="tspan4426" y="525.34613" x="871.2663">T11</tspan></text>
  <path id="path3081-3" stroke-linejoin="round" d="m846.51 501.05v-191.1h-1.1356v191.1z" stroke="#000" stroke-width=".041603px"/>
  <path id="path3428-3" stroke-linejoin="round" d="m170.18 516.2c0-0.35357 0.33084-0.61409 0.72781-0.61409h23.997c0.39702 0 0.72784 0.26052 0.72784 0.61409v25.81c0 0.33495-0.33082 0.61408-0.72784 0.61408h-23.997c-0.39697 0-0.72781-0.27913-0.72781-0.61408zm1.4556 25.81-0.72784-0.61409h23.997l-0.72782 0.61409v-25.81l0.72782 0.61409h-23.997l0.72784-0.61409z" stroke="#000" stroke-width=".020259px"/>
  <text id="text3438-6" font-size="14.468px" xml:space="preserve" transform="scale(1.0122 .98795)" y="540.68097" x="176.72217" font-family="Arial" fill="#000000">Z</text>
  <text id="text3450-7" font-size="11.593px" xml:space="preserve" transform="scale(1.0122 .98795)" y="561.74365" x="174.15329" font-family="Arial" line-height="125%" fill="#000000"><tspan id="tspan3651" y="561.74365" x="174.15329">28</tspan></text>
  <text id="text3476-8" font-size="11.593px" xml:space="preserve" transform="scale(1.0122 .98795)" y="449.48615" x="106.81633" font-family="Arial" line-height="125%" fill="#000000"><tspan id="tspan3677" y="449.48615" x="106.81633">9</tspan></text>
  <path id="path3484-9" stroke-linejoin="round" d="m112.08 515.95v-60.773h-1.4778v60.773h1.4778zm3.6614-59.579-4.4111-7.2414-4.4111 7.2414h8.8223z" stroke="#000" stroke-width=".019983px"/>
  <text id="text3476-8-6" font-size="11.593px" xml:space="preserve" transform="scale(1.0122 .98795)" y="449.71701" x="77.988586" font-family="Arial" line-height="125%" fill="#000000"><tspan id="tspan3700" y="449.71701" x="77.988586">10</tspan></text>
  <path id="path3108-3" stroke-linejoin="round" d="m86.68 473.4v-17.545h-1.4778v17.545h1.4778zm3.6833-16.322-4.4111-7.3028-4.4111 7.3028h8.8223z" stroke="#000" stroke-width=".020065px"/>
  <path id="path3260-3" stroke-linejoin="round" d="m56.266 474.46 0.66876-212.74-0.81548-0.0363-0.6687 212.79z" stroke="#000" stroke-width=".24358px"/>
  <path id="path3260-3-8" stroke-linejoin="round" d="m55.781 261.7 32.665-0.17653-0.0094-1.3122-32.672 0.17693z" stroke="#000" stroke-width=".012107px"/>
  <path id="path3260-3-8-6" stroke-linejoin="round" d="m55.376 474.41 31.287-0.1766-0.0092-1.3126-31.295 0.17698z" stroke="#000" stroke-width=".011851px"/>
  <text id="text3038-0" font-size="17.432px" xml:space="preserve" transform="scale(1.0122 .98795)" y="255.22128" x="50.275738" font-family="Arial" line-height="125%" fill="#000000"><tspan id="tspan3777" y="255.22128" x="50.275738">InEx</tspan></text>
  <path id="path3232-6" stroke-linejoin="round" d="m775.72 350.72v-40.961h-1.1075v40.961z" stroke="#000" stroke-width=".038836px"/>
  <path id="path3502-6" stroke-linejoin="round" d="m774.51 350.55h19.248v1.0929h-19.248z" stroke="#000" stroke-width=".027708px"/>
  <path id="path3100-8-7" stroke-linejoin="round" d="m269.24 358.11-0.13836 44.827h1.157l0.13832-44.827z" stroke="#000" stroke-width=".0082857px"/>
  <path id="path3108-1" stroke-linejoin="round" d="m270.84 358.67-0.24831-45.111-1.2278-0.57247v45.684zm3.0582-44.902-3.7853-8.9041-3.537 8.7611z" stroke="#000" stroke-width=".030264px"/>
  <path id="path3198-7" fill-rule="evenodd" d="m267.89 358.58c0-1.2055 0.94838-2.1743 2.0953-2.1743 1.169 0 2.0953 0.96873 2.0953 2.1743 0 1.184-0.92633 2.1528-2.0953 2.1528-1.1469 0-2.0953-0.96873-2.0953-2.1528"/>
  <path id="path3200-1" stroke-linejoin="round" d="m266.43 358.71v-0.27982l0.0443-0.43056c0.022-0.0861 0.022-0.17223 0.0661-0.27986l0.1103-0.38747c0.022-0.0861 0.0662-0.15072 0.0882-0.23681l0.19849-0.36598c0.0443-0.0861 0.0882-0.1722 0.15438-0.25833l0.26466-0.32288 0.17646-0.17223 0.30875-0.25833c0.0884-0.0645 0.17645-0.12916 0.26468-0.19374l0.35288-0.19373c0.0661-0.043 0.15438-0.0646 0.2426-0.10768l0.39701-0.12917c0.11027-0.0215 0.22053-0.043 0.30876-0.0644l0.41906-0.043h0.30877l0.41906 0.043c0.11029 0.0215 0.22054 0.043 0.33084 0.0644l0.39696 0.12917c0.0882 0.043 0.15439 0.0645 0.24262 0.10768l0.3529 0.19373c0.0882 0.0645 0.17644 0.12916 0.26465 0.19374l0.30879 0.25833c0.0662 0.0647 0.11028 0.10768 0.17643 0.17223l0.26467 0.32288c0.0442 0.0861 0.11028 0.17225 0.1544 0.25833l0.19849 0.36598c0.0219 0.0861 0.066 0.15069 0.0882 0.23681l0.11028 0.38747c0.0442 0.10767 0.0442 0.19374 0.0662 0.27986l0.0442 0.43056v0.27982l-0.0442 0.45208c-0.022 0.0861-0.022 0.17222-0.0662 0.25833l-0.11028 0.40901c-0.022 0.0861-0.0662 0.15071-0.0882 0.23681l-0.19849 0.36597c-0.0442 0.0861-0.11028 0.17218-0.1544 0.2583l-0.26467 0.32292c-0.066 0.0645-0.11029 0.10764-0.17643 0.17222l-0.30879 0.25832c-0.0881 0.0645-0.17644 0.12917-0.26465 0.19374l-0.3529 0.19374c-0.0883 0.043-0.15438 0.0646-0.24262 0.10767l-0.39696 0.12918c-0.1103 0.0215-0.22057 0.043-0.33084 0.0645l-0.41906 0.043h-0.30877l-0.41906-0.043c-0.0883-0.0215-0.1985-0.043-0.30876-0.0645l-0.39701-0.12918c-0.0883-0.043-0.17642-0.0645-0.2426-0.10767l-0.35288-0.19374c-0.0881-0.0645-0.17644-0.12915-0.26468-0.19374l-0.30875-0.25832-0.17646-0.17222-0.26466-0.32292c-0.066-0.0861-0.11029-0.17219-0.15438-0.2583l-0.19849-0.36597c-0.022-0.0861-0.066-0.15071-0.0882-0.23681l-0.1103-0.40901c-0.0442-0.0861-0.0442-0.1722-0.0661-0.25833zm2.9775 0.17224-0.0662-0.27986 0.13231 0.40901-0.0882-0.23679 0.17644 0.36594-0.15441-0.2583 0.26466 0.3229-0.17643-0.17222 0.30877 0.27987-0.26464-0.19377 0.35287 0.19377-0.2426-0.10767 0.39698 0.12915-0.33083-0.0644 0.41906 0.043h-0.30878l0.41905-0.043-0.30877 0.0644 0.39699-0.12915-0.24263 0.10767 0.35292-0.19377-0.26467 0.19377 0.30877-0.27987-0.17645 0.17222 0.26465-0.3229-0.15438 0.2583 0.17646-0.36594-0.0882 0.23679 0.13235-0.40901-0.0662 0.27986 0.0443-0.45206v0.27982l-0.0443-0.43054 0.0662 0.25834-0.13235-0.38749 0.0882 0.23677-0.17646-0.36594 0.15438 0.25832-0.26465-0.3229 0.17645 0.17221-0.30877-0.27983 0.26467 0.19374-0.35292-0.19374 0.24263 0.10765-0.39699-0.12917 0.30877 0.0645-0.41905-0.043h0.30878l-0.41906 0.043 0.33083-0.0645-0.39698 0.12917 0.2426-0.10765-0.35287 0.19374 0.26464-0.19374-0.30877 0.27983 0.17643-0.17221-0.26466 0.3229 0.15441-0.25832-0.17644 0.36594 0.0882-0.23677-0.13231 0.38749 0.0662-0.25834-0.0442 0.43054v-0.27982z" stroke="#000" stroke-width=".021790px"/>
  <text id="text3146-9" font-size="14.468px" xml:space="preserve" transform="matrix(0.0043 -.97422 1.0264 .004197 0 0)" y="449.87173" x="-459.22382" font-family="Arial" line-height="125%" fill="#000000"><tspan id="tspan4821" y="449.87173" x="-459.22382">Sel RA</tspan></text>
  <text id="text3146-9-5" font-size="14.468px" xml:space="preserve" transform="matrix(-0.00734 -.97421 1.0264 -.0071641 0 0)" y="525.23743" x="-463.21613" font-family="Arial" line-height="125%" fill="#000000"><tspan id="tspan4823" y="525.23743" x="-463.21613">Sel RB</tspan></text>
  <text id="text3146-9-9" font-size="14.468px" xml:space="preserve" transform="matrix(.0095573 -.97419 1.0264 .0093283 0 0)" y="614.98285" x="-453.59842" font-family="Arial" line-height="125%" fill="#000000"><tspan id="tspan4825" y="614.98285" x="-453.59842">Sel RC</tspan></text>
  <text id="text3350-3" font-size="10.111px" xml:space="preserve" transform="scale(1.0122 .98795)" y="503.96469" x="611.4422" font-family="Arial" fill="#000000">0</text>
  <text id="text3352-3" font-size="10.111px" xml:space="preserve" transform="scale(1.0122 .98795)" y="504.21222" x="638.00159" font-family="Arial" fill="#000000">1</text>
  <path id="path3094-7" stroke-linejoin="round" d="m270.48 402.59v-88.727h-1.4773v88.727h1.4773zm3.6602-86.97-4.4099-10.652-4.4099 10.652h8.8197z" stroke="#000" stroke-width=".024232px"/>
 </g>
</svg>
