<?xml version="1.0" encoding="UTF-8" standalone="no"?>
<svg id="svg2996" xmlns:rdf="http://www.w3.org/1999/02/22-rdf-syntax-ns#" xmlns="http://www.w3.org/2000/svg" height="100%" viewBox="40 20 880 615" width="100%" version="1.0" preserveAspectRatio="xMinYMin meet" xmlns:cc="http://creativecommons.org/ns#" xmlns:dc="http://purl.org/dc/elements/1.1/">
 <metadata id="metadata3508">
  <rdf:RDF>
   <cc:Work rdf:about="">
    <dc:format>image/svg+xml</dc:format>
    <dc:type rdf:resource="http://purl.org/dc/dcmitype/StillImage"/>
    <dc:title/>
   </cc:Work>
  </rdf:RDF>
 </metadata>
 <text id="text3611" style="word-spacing:0px;letter-spacing:0px" transform="scale(.99998 1)" xml:space="preserve" font-size="13.289px" y="380.0" x="95.0" font-family="sans-serif" line-height="125%" fill="#000000"><tspan id="tspan3615" y="365.36798" x="121.88812"/></text>
 <g id="g4653">
  <path id="path3008" stroke-linejoin="round" d="m517.29 45.657c0-0.67957 0.48549-1.2135 1.1034-1.2135h383.42c0.57375 0 1.1033 0.53395 1.1033 1.2135v120.52c0 0.67955-0.52961 1.2134-1.1033 1.2134h-383.42c-0.61791 0-1.1034-0.53394-1.1034-1.2134zm2.2068 120.52-1.1033-1.2134h383.42l-1.1034 1.2134v-120.52l1.1034 1.2134h-383.42l1.1033-1.2134z" stroke="#000" stroke-width=".046286px"/>
  <text id="text3010" font-size="29.608px" line-height="125%" xml:space="preserve" style="text-decoration-line:underline;text-decoration:underline" transform="scale(1.0534 .94929)" y="124.04118" x="571.71545" font-family="Arial" fill="#000000">Control Memory</text>
  <text id="text3012" font-size="20.167px" xml:space="preserve" transform="scale(1.0534 .94929)" y="506.40277" x="200.62766" font-family="Arial" fill="#000000">MUX C</text>
  <path id="path3014" stroke-linejoin="round" d="m713.67 164.68v165.19h-1.8039v-165.19h1.8039zm4.404 163.43-5.306 10.604-5.306-10.604h10.612z" stroke="#000" stroke-width=".053036px"/>
  <path id="path3016" stroke-linejoin="round" d="m727.88 230.89-27.934 17.946 0.79663 0.95721 27.882-17.899z" stroke="#000" stroke-width=".050417px"/>
  <text id="text3018" font-size="15.127px" xml:space="preserve" transform="scale(1.0534 .94929)" line-height="125%" y="253.14844" x="654.12292" font-family="Arial" fill="#000000"><tspan id="tspan3920" y="253.14844" x="654.12292">80</tspan></text>
  <path id="path3024" stroke-linejoin="round" d="m236.57 193.71c0 0.31329 0.34994 0.57438 0.79312 0.57438h132.48c0.44318 0 0.79308-0.26109 0.79308-0.57438v-143.44c0-0.33071-0.3499-0.59182-0.79308-0.59182h-132.48c-0.44318 0-0.79312 0.2611-0.79312 0.59182zm1.5629-143.44-0.76982 0.57444h132.48l-0.76983-0.57444v143.44l0.76983-0.57442h-132.48l0.76982 0.57442z" stroke="#000" stroke-width=".020150px"/>
  <path id="path3026" stroke-linejoin="round" d="m413.31 50.904c0-0.3834 0.39831-0.7029 0.87632-0.7029h33.991c0.47796 0 0.8763 0.3195 0.8763 0.7029v103.64c0 0.38338-0.39834 0.70288-0.8763 0.70288h-33.991c-0.47801 0-0.87632-0.3195-0.87632-0.70288zm1.7526 103.64-0.87632-0.70292h33.991l-0.90296 0.70292v-103.64l0.90296 0.72419h-33.991l0.87632-0.72419z" stroke="#000" stroke-width=".023783px"/>
  <path id="path3028" stroke-linejoin="round" d="m78.7 506.38c0 0.43024 0.31362 0.76994 0.68997 0.76994h297.95c0.37634 0 0.68998-0.3397 0.68998-0.76994v-48.168c0-0.40765-0.31364-0.74729-0.68998-0.74729h-297.95c-0.37635 0-0.68997 0.33964-0.68997 0.74729zm1.3799-48.168-0.68998 0.74734h297.95l-0.68997-0.74734v48.168l0.68997-0.74734h-297.95l0.68998 0.74734z" stroke="#000" stroke-width=".021762px"/>
  <text id="text3038" font-size="20.597px" line-height="125%" transform="scale(1.0534 .94929)" y="642.64081" x="62.132591" font-family="Arial" xml:space="preserve" fill="#000000">SR</text>
  <path id="path3040" stroke-linejoin="round" d="m92.81 90.87c0 0.26531 0.33013 0.48638 0.72625 0.48638h51.63c0.41815 0 0.74828-0.22109 0.74828-0.48638v-24.158c0-0.26531-0.33013-0.48638-0.74828-0.48638h-51.63c-0.39613 0-0.72625 0.22109-0.72625 0.48638zm1.4746-24.158-0.74826 0.50112h51.63l-0.72627-0.50112v24.158l0.72627-0.48638h-51.63l0.74826 0.48638z" stroke="#000" stroke-width=".018009px"/>
  <g id="g4866" stroke-linejoin="round" transform="matrix(.75116 0 0 1.025 -269.46 129.27)" stroke="#000" stroke-width=".043902px">
   <path id="path3042" d="m828.4 256.34h12.482v1.0922h-12.482z"/>
   <path id="path3044" d="m854.34 256.34h12.482v1.0922h-12.482z"/>
   <path id="path3048" d="m840.5 243.5h13.454v1.0922h-13.454z"/>
   <path id="path3050" d="m841.07 257.26v-13.588h-1.1028v13.588z"/>
   <path id="path3052" d="m854.17 257.26v-13.938h-1.1027v13.938z"/>
   <path id="path3054" d="m866.65 257.26v-13.938h-1.1028v13.938z"/>
   <path id="path3058" d="m865.81 243.5h13.763v1.0922h-13.763z"/>
  </g>
  <path id="path3060" stroke-linejoin="round" d="m315.35 538.41-0.1496-27.741-1.4796-0.25838-0.14957 28zm4.2212-24.895-5.1238-7.2405-4.9175 7.3334z" stroke="#000" stroke-width=".025676px"/>
  <path id="path3062" stroke-linejoin="round" d="m339.82 532.81v-19.578h-1.7792v19.578h1.7792zm4.4347-18.211-5.3109-8.1574-5.3109 8.1574h10.622z" stroke="#000" stroke-width=".023270px"/>
  <text id="text3064" font-size="16.735px" xml:space="preserve" transform="scale(1.0534 .94929)" line-height="125%" y="607.61096" x="337.69662" font-family="Arial" fill="#000000"><tspan id="tspan14891" font-size="16.735px" line-height="125%" y="607.61096" x="337.69662" font-family="Arial">0</tspan></text>
  <text id="text3066" font-size="15.389px" xml:space="preserve" transform="scale(1.0534 .94929)" line-height="125%" y="196.48137" x="308.74686" font-family="Arial" fill="#000000">A0</text>
  <text id="text3068" font-size="21.794px" xml:space="preserve" transform="scale(1.0534 .94929)" line-height="125%" y="136.97159" x="264.17651" font-family="Arial" fill="#000000">MUX A</text>
  <text id="text3072" font-size="18.017px" xml:space="preserve" transform="scale(1.0534 .94929)" line-height="125%" y="229.30241" x="688.27551" font-family="Arial" fill="#000000"><tspan id="tspan14893" y="229.30241" x="688.27551">µInstruction</tspan></text>
  <text id="text3076" font-size="19.953px" line-height="125%" transform="scale(1.0534 .94929)" y="324.93396" x="525.44977" font-family="Arial" xml:space="preserve" fill="#000000">MADDR</text>
  <text id="text3080" font-size="20.167px" xml:space="preserve" transform="matrix(0 -.94929 1.0534 0 0 0)" y="416.07407" x="-139.71983" font-family="Arial" fill="#000000">µAddr</text>
  <path id="path3082" stroke-linejoin="round" d="m447.25 103.12h63.734v1.6034h-63.734v-1.6034zm62.394-3.9726 7.9919 4.7864-7.9919 4.7863v-9.5727z" stroke="#000" stroke-width=".021868px"/>
  <text id="text3084" font-size="20.167px" xml:space="preserve" transform="scale(1.0534 .94929)" y="90.826263" x="100.20391" font-family="Arial" fill="#000000">+1</text>
  <path id="path3086" fill-rule="evenodd" d="m477.8 103.94c0-1.3401 1.1419-2.417 2.5228-2.417s2.5228 1.0768 2.5228 2.417c0 1.3162-1.1419 2.3931-2.5228 2.3931s-2.5228-1.0769-2.5228-2.3931"/>
  <path id="path3088" stroke-linejoin="round" d="m476.6 104.07v-0.31108l0.0533-0.47861c0.0263-0.0957 0.0263-0.19143 0.0794-0.3111l0.13277-0.43076c0.0264-0.0957 0.0794-0.1675 0.10631-0.26321l0.239-0.40681c0.0534-0.0957 0.10619-0.19146 0.18587-0.28716l0.31861-0.35897c0.0534-0.0479 0.13277-0.11967 0.1859-0.16751l0.37174-0.28714c0.10641-0.0958 0.21245-0.16751 0.34524-0.23932l0.45142-0.2154c0.0794-0.0479 0.15931-0.0717 0.26552-0.11966l0.45145-0.1436c0.13279-0.0239 0.26555-0.0479 0.39831-0.07186l0.50453-0.04786h0.37177l0.50455 0.04786c0.13276 0.02398 0.23896 0.04786 0.37177 0.07186l0.47795 0.1436c0.10642 0.0479 0.21245 0.0716 0.31866 0.11966l0.42486 0.2154c0.10631 0.0716 0.21244 0.14356 0.29213 0.21538l0.37176 0.28715c0.0793 0.0717 0.15928 0.11968 0.21243 0.19142l0.31866 0.35897c0.0795 0.0957 0.13277 0.19146 0.21244 0.28716l0.2124 0.40681c0.0534 0.0957 0.0793 0.16753 0.10632 0.26321l0.18126 0.4337c0.0263 0.11967 0.0536 0.21538 0.0536 0.31108l0.0533 0.4786c0.0264 0.11968 0.0264 0.2154 0 0.31111l-0.0533 0.50252c0 0.0956-0.0262 0.19144-0.0536 0.28718l-0.15931 0.45468c-0.0263 0.0956-0.0536 0.16748-0.10631 0.26321l-0.21241 0.40682c-0.0795 0.0956-0.13281 0.19147-0.21243 0.2872l-0.31869 0.35894c-0.0534 0.0718-0.13274 0.11968-0.21241 0.19144l-0.37176 0.28717c-0.0794 0.0718-0.18589 0.1436-0.29212 0.21536l-0.42486 0.21539c-0.10631 0.0479-0.21245 0.0717-0.31866 0.11969l-0.47796 0.14355c-0.13285 0.0239-0.23902 0.0479-0.37177 0.0719l-0.50454 0.0479h-0.37176l-0.50455-0.0479c-0.13277-0.024-0.26553-0.0479-0.39831-0.0719l-0.43321-0.14359c-0.1063-0.0479-0.18583-0.0717-0.26551-0.11969l-0.45142-0.21539c-0.1328-0.0718-0.23901-0.14357-0.34524-0.23929l-0.37174-0.2872c-0.0534-0.0479-0.1328-0.11965-0.1859-0.16748l-0.31864-0.35894c-0.0793-0.0956-0.13278-0.19146-0.18587-0.2872l-0.23897-0.40682c-0.0264-0.0957-0.0795-0.16748-0.10629-0.26321l-0.13279-0.45469c-0.0533-0.0956-0.0533-0.19144-0.0795-0.28717zm3.5848 0.19144-0.0794-0.31109 0.15937 0.45468-0.10632-0.26323 0.21245 0.40682-0.18591-0.28718 0.31865 0.35897-0.18586-0.16753 0.34522 0.31109-0.34522-0.23931 0.42489 0.21535-0.26558-0.11964 0.47801 0.14357-0.39834-0.0718 0.50456 0.0479h-0.37178l0.50454-0.0479-0.37176 0.0718 0.47795-0.14357-0.31865 0.11964 0.42491-0.21535-0.29211 0.21535 0.37176-0.31104-0.21243 0.19144 0.31866-0.35897-0.21243 0.28718 0.23898-0.40682-0.10619 0.26323 0.1328-0.45468-0.0534 0.31109 0.0534-0.50252v0.31108l-0.0534-0.4786 0.0534 0.28715-0.1328-0.43074 0.10619 0.26323-0.23898-0.40682 0.21243 0.28718-0.31866-0.35896 0.21243 0.19144-0.37176-0.31109 0.29211 0.21536-0.42491-0.21536 0.31865 0.11969-0.47795-0.14359 0.37176 0.0719-0.50454-0.0479h0.37178l-0.50456 0.0479 0.39834-0.0719-0.47801 0.14359 0.26558-0.11969-0.42489 0.21536 0.34522-0.23928-0.34522 0.31109 0.18586-0.16751-0.31865 0.35896 0.18591-0.28718-0.21245 0.40682 0.10632-0.26323-0.15937 0.43074 0.0794-0.28715-0.0532 0.4786v-0.31107z" stroke="#000" stroke-width=".025209px"/>
  <path id="path3092" stroke-linejoin="round" d="m369.58 105.46h39.842v-1.604h-39.842v1.604zm39.074 3.9738 4.5863-4.7878-4.5863-4.7879v9.5757z" stroke="#000" stroke-width=".016566px"/>
  <path id="path3094" stroke-linejoin="round" d="m301.62 281.22v-77.912h-1.7792v77.912h1.7792zm4.4081-76.368-5.311-9.3532-5.3111 9.3532h10.622z" stroke="#000" stroke-width=".024919px"/>
  <path id="path3098" stroke-linejoin="round" d="m481.03 28.826h-361.46v1.1921h361.46z" stroke="#000" stroke-width=".029853px"/>
  <path id="path3100" stroke-linejoin="round" d="m118.9 29.656-0.18996 36.727h1.5828l0.18995-36.727z" stroke="#000" stroke-width=".0087727px"/>
  <path id="path3102" stroke-linejoin="round" d="m145.59 77.861h82.736v1.6036h-82.736v-1.6036zm81.088-3.9848 9.909 4.7865-9.909 4.7864v-9.573z" stroke="#000" stroke-width=".012174px"/>
  <path id="path3104" stroke-linejoin="round" d="m151.14 136.09h77.64v1.5915h-77.64v-1.5915zm76.183-3.997 8.7732 4.787-8.7732 4.7869v-9.5736z" stroke="#000" stroke-width=".011455px"/>
  <path id="path3108" stroke-linejoin="round" d="m361.12 558.84-0.29902-43.929-1.4787-0.55743v44.487zm3.6831-43.726-4.5586-8.6709-4.2597 8.5315z" stroke="#000" stroke-width=".032775px"/>
  <path id="path3110" stroke-linejoin="round" d="m420.9 451.13-14.403 14.576 1.0174 0.80894 14.375-14.577z" stroke="#000" stroke-width=".025209px"/>
  <text id="text3112" font-size="13.513px" xml:space="preserve" transform="scale(1.0534 .94929)" y="483.23096" x="383.30069" font-family="Arial" fill="#000000">4</text>
  <path id="path3120" stroke-linejoin="round" d="m504.85 219.49-10.144 11.751 1.0356 0.74188 10.144-11.751z" stroke="#000" stroke-width=".025209px"/>
  <text id="text3122" font-size="13.513px" xml:space="preserve" transform="scale(1.0534 .94929)" y="232.11363" x="459.04974" font-family="Arial" fill="#000000">12</text>
  <path id="path3124" stroke-linejoin="round" d="m204.81 165.6h25.796v1.6037h-25.796v-1.6037zm24.482-3.9853 7.9098 4.7872-7.9098 4.7871v-9.5742z" stroke="#000" stroke-width=".010878px"/>
  <text id="text3126" font-size="20.597px" line-height="125%" transform="scale(1.0534 .94929)" y="182.47112" x="172.79352" font-family="Arial" xml:space="preserve" fill="#000000">0</text>
  <text id="text3130" font-size="15.448px" xml:space="preserve" transform="scale(1.0534 .94929)" line-height="125%" y="200.92453" x="157.4167" font-family="Arial" fill="#000000">(fetch) </text>
  <path id="path3134" stroke-linejoin="round" d="m151.43 135.44-0.15989 91.493 1.3319 0.0162 0.15984-91.507z" stroke="#000" stroke-width=".014880px"/>
  <path id="path3136" stroke-linejoin="round" d="m290.34 525.21v-13.973h-1.7799v13.973zm4.5027-11.79-5.4056-7.0295-5.1267 7.1224 10.719 0.0929z" stroke="#000" stroke-width=".019662px"/>
  <path id="path3138" stroke-linejoin="round" d="m456.06 455.16v-26.74h-1.5313v26.74z" stroke="#000" stroke-width=".014513px"/>
  <text id="text3140" font-size="14.16px" xml:space="preserve" transform="scale(1.0534 .94929)" line-height="125%" y="655.64667" x="240.84065" font-family="Arial" fill="#000000">0</text>
  <path id="path3142" stroke-linejoin="round" d="m152.22 430.97 633.41-3.014v-1.2353l-633.41 3.0141z" stroke="#000" stroke-width=".041063px"/>
  <path id="path3142b" stroke-linejoin="round" d="m157.1 430.97 626.7-3.0142v-1.2352l-626.7 3.0142z" stroke="#000" stroke-width=".040845px"/>
  <path id="path3144" stroke-linejoin="round" d="m444.41 519.61c-0.28828-0.002-0.49975-0.31912-0.49864-0.69827l0.17559-61.043c0.00076-0.37915 0.21436-0.69379 0.50262-0.69198l21.149 0.13269c0.28824 0.002 0.5149 0.31922 0.51382 0.69836l-0.17561 61.043c-0.00077 0.37912-0.22955 0.69367-0.51782 0.69189zm21.154-1.2785-0.50269 0.71303 0.1756-61.043 0.49857 0.71931-21.149-0.1327 0.50271-0.71305-0.17558 61.043-0.4986-0.71932z" stroke="#000" stroke-width=".017877px"/>
  <path id="path3150" stroke-linejoin="round" d="m541.6 519.67c-0.31844 0.003-0.54316-0.34172-0.54525-0.73221l-0.33212-62.87c-0.003-0.39048 0.21923-0.69644 0.53767-0.69961l22.195-0.22091c0.28659-0.003 0.51111 0.2987 0.51318 0.68914l0.33216 62.87c0.003 0.39051-0.21901 0.73982-0.50559 0.74267zm22.187-1.6961-0.53744 0.743-0.33219-62.87 0.54526 0.73219-22.195 0.22094 0.50561-0.74268 0.3322 62.87-0.51344-0.73254z" stroke="#000" stroke-width=".037172px"/>
  <path id="path3156" stroke-linejoin="round" d="m636.93 517.54c-0.33155-0.003-0.56064-0.33865-0.55738-0.71324l0.5326-60.31c0.004-0.37462 0.23798-0.66367 0.56952-0.66029l23.107 0.23332c0.29834 0.002 0.52786 0.2967 0.52459 0.67128l-0.53262 60.31c-0.004 0.37456-0.23834 0.70523-0.5367 0.70222zm23.12-1.1819-0.56989 0.70193 0.53261-60.31 0.55737 0.71325-23.107-0.2333 0.53674-0.70226-0.53259 60.31-0.52425-0.71297z" stroke="#000" stroke-width=".037150px"/>
  <path id="path3162" stroke-linejoin="round" d="m694.3 349.91c0-0.43099 0.13914-0.81407 0.3379-0.81407h77.004c0.17888 0 0.31806 0.38308 0.31806 0.81407v33.378c0 0.43099-0.13918 0.81405-0.31806 0.81405h-77.004c-0.19876 0-0.3379-0.38306-0.3379-0.81405zm0.65595 33.378-0.31803-0.81411h77.004l-0.33787 0.81411v-33.378l0.33787 0.81412h-77.004l0.31803-0.81412z" stroke="#000" stroke-width=".030851px"/>
  <text id="text3164" font-size="18.666px" xml:space="preserve" transform="scale(1.0534 .94929)" line-height="125%" y="392.97311" x="509.46317" font-family="Arial" fill="#000000"><tspan id="tspan4277" font-size="18.666px" line-height="125%" y="392.97311" x="509.46317" font-family="Arial">SelA</tspan></text>
  <text id="text3168" font-size="18.666px" xml:space="preserve" transform="scale(1.0534 .94929)" line-height="125%" y="393.74762" x="562.8338" font-family="Arial" fill="#000000"><tspan id="tspan4279" font-size="18.666px" line-height="125%" y="393.74762" x="562.8338" font-family="Arial">SelB</tspan></text>
  <text id="text3172" font-size="18.666px" xml:space="preserve" transform="scale(1.0534 .94929)" line-height="125%" y="393.74762" x="614.41589" font-family="Arial" fill="#000000"><tspan id="tspan4281" font-size="18.666px" line-height="125%" y="393.74762" x="614.41589" font-family="Arial">SelC</tspan></text>
  <path id="path3176" stroke-linejoin="round" d="m527.13 349.89c0-0.43075 0.33445-0.78973 0.73581-0.78973h57.928c0.40141 0 0.73586 0.35898 0.73586 0.78973v33.385c0 0.43079-0.33445 0.78973-0.73586 0.78973h-57.928c-0.40136 0-0.73581-0.35894-0.73581-0.78973zm1.4716 33.385-0.73582-0.81369h57.928l-0.75809 0.81369v-33.385l0.75809 0.81366h-57.928l0.73582-0.81366z" stroke="#000" stroke-width=".023099px"/>
  <path id="path3178" stroke-linejoin="round" d="m585.2 349.91c0-0.43082 0.33759-0.81374 0.71739-0.81374h55.999c0.37979 0 0.71747 0.38292 0.71747 0.81374v33.363c0 0.43081-0.33768 0.81374-0.71747 0.81374h-55.999c-0.3798 0-0.71739-0.38293-0.71739-0.81374zm1.3927 33.363-0.67519-0.81376h55.999l-0.71734 0.81376v-33.363l0.71734 0.81376h-55.999l0.67519-0.81376z" stroke="#000" stroke-width=".044944px"/>
  <path id="path3180" stroke-linejoin="round" d="m641.33 349.91c0-0.43083 0.27086-0.81381 0.65791-0.81381h52.709c0.34838 0 0.61923 0.38298 0.61923 0.81381v33.367c0 0.43083-0.27085 0.81379-0.61923 0.81379h-52.709c-0.38705 0-0.65791-0.38296-0.65791-0.81379zm1.2772 33.367-0.61914-0.81383h52.709l-0.65789 0.81383v-33.367l0.65789 0.81381h-52.709l0.61914-0.81381z" stroke="#000" stroke-width=".043041px"/>
  <path id="path3182" stroke-linejoin="round" d="m462 533.81-14.288 9.5004 0.79666 0.95721 14.288-9.4764z" stroke="#000" stroke-width=".025209px"/>
  <path id="path3184" stroke-linejoin="round" d="m560.97 532.5-14.288 9.5004 0.79663 0.95721 14.286-9.5004z" stroke="#000" stroke-width=".025209px"/>
  <path id="path3186" stroke-linejoin="round" d="m655.62 531.62-14.288 9.5242 0.79669 0.95722 14.288-9.5242z" stroke="#000" stroke-width=".050417px"/>
  <path id="path3188" stroke-linejoin="round" d="m456.28 437.33v12.349h-1.7526v-12.349h1.7526zm4.4344 10.745-5.3109 9.5721-5.3109-9.5721h10.622z" stroke="#000" stroke-width=".025209px"/>
  <path id="path3190" stroke-linejoin="round" d="m553.8 435.29v12.372h-1.7791v-12.372h1.7791zm4.4345 10.769-5.3109 9.5721-5.3109-9.5721h10.622z" stroke="#000" stroke-width=".025209px"/>
  <path id="path3192" stroke-linejoin="round" d="m649.16 435.85v12.349h-1.8057v-12.349h1.8057zm4.408 10.721-5.3109 9.5721-5.3109-9.5721h10.622z" stroke="#000" stroke-width=".050417px"/>
  <path id="path3194" stroke-linejoin="round" d="m487.79 487.48-12.852 0.0718v1.6034l12.852-0.072v-1.6034zm-11.126-3.9244-10.568 4.8581 10.648 4.7144-0.0792-9.5721z" stroke="#000" stroke-width=".025209px"/>
  <path id="path3196" stroke-linejoin="round" d="m615.26 404.26v-20.125h-1.3377v20.125z" stroke="#000" stroke-width=".014870px"/>
  <path id="path3198" fill-rule="evenodd" d="m452.79 428.74c0-1.3405 0.97403-2.4176 2.1519-2.4176 1.2005 0 2.1518 1.0771 2.1518 2.4176 0 1.3164-0.95136 2.3938-2.1518 2.3938-1.1779 0-2.1519-1.0771-2.1519-2.3938"/>
  <path id="path3200" stroke-linejoin="round" d="m451.16 428.87v-0.31114l0.0482-0.47874c0.0236-0.0958 0.0236-0.19149 0.0718-0.3112l0.11982-0.43082c0.0236-0.0956 0.0719-0.16761 0.0957-0.26331l0.21565-0.40694c0.0482-0.0956 0.0957-0.19145 0.16771-0.28722l0.28754-0.35904 0.19171-0.19149 0.33549-0.28723c0.0957-0.0718 0.19164-0.1436 0.28749-0.21546l0.38339-0.21541c0.0718-0.0478 0.16772-0.0717 0.26357-0.1197l0.4313-0.14365c0.11981-0.0239 0.2396-0.0478 0.33548-0.0715l0.45526-0.0478h0.33543l0.45528 0.0478c0.11981 0.0239 0.23959 0.0478 0.35942 0.0715l0.43127 0.14365c0.0957 0.0478 0.16776 0.0717 0.26358 0.1197l0.38339 0.21541c0.0958 0.0719 0.19169 0.14364 0.28753 0.21546l0.33551 0.28723c0.0719 0.0719 0.11979 0.11972 0.19164 0.19149l0.28754 0.35904c0.0481 0.0958 0.11978 0.19152 0.16772 0.28722l0.21569 0.40694c0.0235 0.0958 0.0718 0.16753 0.0958 0.26331l0.11977 0.43082c0.0476 0.11974 0.0476 0.21544 0.072 0.3112l0.0481 0.47874v0.31114l-0.0481 0.50267c-0.0237 0.0957-0.0237 0.19148-0.072 0.28727l-0.11977 0.45474c-0.0236 0.0956-0.072 0.16761-0.0958 0.26332l-0.21569 0.40691c-0.0477 0.0957-0.11978 0.19146-0.16772 0.2872l-0.28754 0.35906c-0.0718 0.0718-0.1198 0.11969-0.19164 0.19151l-0.33551 0.28726c-0.0957 0.0716-0.19168 0.14358-0.28753 0.21538l-0.38339 0.21543c-0.0958 0.0478-0.16771 0.0718-0.26358 0.11974l-0.43127 0.14363c-0.11978 0.0239-0.23961 0.0478-0.35942 0.0717l-0.45528 0.0478h-0.33543l-0.45526-0.0478c-0.0958-0.024-0.21567-0.0478-0.33548-0.0717l-0.4313-0.14363c-0.0958-0.0478-0.19168-0.0719-0.26357-0.11974l-0.38339-0.21543c-0.0957-0.0717-0.19166-0.14359-0.28749-0.21538l-0.33549-0.28726-0.19171-0.19151-0.28754-0.35906c-0.0718-0.0958-0.1198-0.19141-0.16771-0.2872l-0.21565-0.40691c-0.0236-0.0958-0.072-0.16757-0.0957-0.26332l-0.11982-0.45474c-0.0476-0.0958-0.0476-0.19148-0.0718-0.28727zm3.2348 0.19154-0.072-0.3112 0.14378 0.45478-0.0957-0.2633 0.19167 0.40691-0.16773-0.28719 0.28753 0.35899-0.1917-0.19148 0.33547 0.31117-0.28753-0.21542 0.38336 0.21542-0.26353-0.1197 0.43131 0.14361-0.35948-0.0718 0.45532 0.0478h-0.33547l0.45527-0.0478-0.33546 0.0718 0.43129-0.14361-0.2636 0.1197 0.38341-0.21542-0.28754 0.21542 0.33544-0.31117-0.19169 0.19148 0.28755-0.35899-0.16773 0.28719 0.1917-0.40691-0.0957 0.2633 0.14375-0.45478-0.072 0.3112 0.0481-0.50268v0.31114l-0.0481-0.47874 0.072 0.28729-0.14375-0.4309 0.0957 0.26331-0.1917-0.40691 0.16773 0.28721-0.28755-0.35901 0.19169 0.19147-0.33544-0.31116 0.28754 0.21545-0.38341-0.21545 0.2636 0.11972-0.43129-0.14364 0.33546 0.0717-0.45527-0.0478h0.33547l-0.45532 0.0478 0.35948-0.0717-0.43131 0.14364 0.26353-0.11972-0.38336 0.21545 0.28753-0.21545-0.33547 0.31116 0.1917-0.19147-0.28753 0.35901 0.16773-0.28721-0.19167 0.40691 0.0957-0.26331-0.14378 0.4309 0.072-0.28729-0.048 0.47874v-0.31114z" stroke="#000" stroke-width=".023949px"/>
  <path id="path3202" fill-rule="evenodd" d="m550.17 428.74c0-1.3405 0.95139-2.4176 2.152-2.4176 1.1779 0 2.1291 1.0771 2.1291 2.4176 0 1.3164-0.95132 2.3938-2.1291 2.3938-1.2006 0-2.152-1.0771-2.152-2.3938"/>
  <path id="path3204" stroke-linejoin="round" d="m548.46 428.87c-0.0236-0.0958-0.0236-0.19145 0-0.31114l0.0476-0.47874c0-0.0958 0.0235-0.19149 0.0482-0.3112l0.14378-0.43082c0.0235-0.0956 0.0479-0.16761 0.0957-0.26331l0.1917-0.40694c0.0481-0.0956 0.11977-0.19145 0.19167-0.28722l0.28751-0.35904c0.0478-0.0719 0.11983-0.11969 0.19169-0.19149l0.33549-0.28723c0.0718-0.0718 0.1677-0.1436 0.26357-0.21546l0.38339-0.21541c0.0957-0.0478 0.19165-0.0717 0.28752-0.1197l0.43131-0.14365c0.0957-0.0239 0.21568-0.0478 0.33546-0.0715l0.45526-0.0478h0.33547l0.45524 0.0478c0.11982 0.0239 0.23963 0.0478 0.3594 0.0715l0.40734 0.14365c0.0957 0.0478 0.16775 0.0717 0.23967 0.1197l0.40732 0.21541c0.0958 0.0478 0.21564 0.11974 0.28754 0.21546l0.33545 0.28723 0.21563 0.21542 0.26358 0.35903c0.0718 0.0957 0.1198 0.1676 0.16773 0.2633l0.21566 0.40694c0.0236 0.0958 0.0717 0.16753 0.0957 0.26331l0.11979 0.43082c0.0482 0.11974 0.0482 0.21544 0.0718 0.3112l0.0476 0.47874v0.31114l-0.0476 0.50267c-0.0236 0.0957-0.0236 0.19148-0.0718 0.28727l-0.11979 0.45474c-0.0235 0.0956-0.0719 0.16761-0.0957 0.26332l-0.21566 0.40691c-0.0482 0.0957-0.0957 0.16754-0.16773 0.26327l-0.26358 0.35907c-0.072 0.0717-0.14374 0.1436-0.21563 0.21543l-0.33545 0.28726c-0.0718 0.0957-0.19171 0.1675-0.28754 0.21538l-0.40732 0.21543c-0.0721 0.0478-0.14381 0.0718-0.23967 0.11974l-0.40734 0.14363c-0.11977 0.0239-0.23958 0.0478-0.3594 0.0717l-0.45524 0.0478h-0.33547l-0.45526-0.0478c-0.11981-0.024-0.23961-0.0478-0.33546-0.0717l-0.4265-0.13618c-0.0957-0.0478-0.1917-0.0719-0.28752-0.11973l-0.38339-0.21542c-0.0958-0.0717-0.19169-0.1436-0.26357-0.2154l-0.33549-0.28725c-0.0718-0.0717-0.14377-0.11969-0.19169-0.19149l-0.28752-0.35907c-0.0718-0.0958-0.14377-0.19143-0.19167-0.28722l-0.19168-0.4069c-0.0482-0.0958-0.0718-0.16757-0.0957-0.26333l-0.14377-0.45472c-0.0236-0.0958-0.0482-0.19148-0.0482-0.28728zm3.2106 0.19154-0.0482-0.3112 0.11985 0.45478-0.0957-0.2633 0.21565 0.40691-0.1917-0.28719 0.28757 0.35899-0.19171-0.19148 0.33546 0.31117-0.26354-0.21542 0.38334 0.21542-0.28753-0.1197 0.43132 0.14361-0.33547-0.0718 0.45528 0.0478h-0.33547l0.45525-0.0478-0.35943 0.0718 0.43129-0.14361-0.2396 0.1197 0.38342-0.21542-0.28758 0.21542 0.33546-0.31117-0.21562 0.21545 0.28751-0.35905-0.1677 0.26328 0.1917-0.40691-0.0958 0.2633 0.14381-0.45478-0.0718 0.3112 0.0482-0.50268v0.31114l-0.0482-0.47874 0.0718 0.28729-0.14381-0.4309 0.0958 0.26331-0.1917-0.40691 0.1677 0.26329-0.28751-0.35905 0.21562 0.21543-0.33546-0.31116 0.28758 0.21545-0.38342-0.21545 0.2396 0.11972-0.43129-0.14364 0.35943 0.0717-0.45525-0.0478h0.33547l-0.45528 0.0478 0.33547-0.0717-0.43132 0.14364 0.28753-0.11972-0.38334 0.21545 0.26354-0.21545-0.33546 0.31116 0.19171-0.19147-0.28757 0.35901 0.1917-0.28721-0.21565 0.40691 0.0957-0.26331-0.11985 0.4309 0.0482-0.28729-0.0482 0.47874v-0.31114z" stroke="#000" stroke-width=".023949px"/>
  <path id="path3206" fill-rule="evenodd" d="m646.07 428.75c0-1.3405 0.99669-2.4415 2.1746-2.4415s2.1291 1.1011 2.1291 2.4415c0 1.2925-0.95135 2.3938-2.1291 2.3938s-2.1746-1.1012-2.1746-2.3938"/>
  <path id="path3208" stroke-linejoin="round" d="m644.57 428.9c-0.0483-0.0957-0.0483-0.19149 0-0.3351l0.0478-0.4787c0-0.0958 0-0.19155 0.0482-0.28728l0.14376-0.43084c0-0.0957 0.0481-0.1915 0.0957-0.28724l0.1917-0.38298c0.0481-0.0958 0.0959-0.1915 0.14374-0.28727l0.28757-0.3351c0.0482-0.0956 0.14376-0.14359 0.19165-0.23934l0.33547-0.28727c0.0957-0.0957 0.1917-0.14359 0.28755-0.19148l0.38339-0.23935c0.0955-0.0478 0.19167-0.0478 0.28752-0.0956l0.4207-0.11468c0.0957-0.0478 0.2396-0.0478 0.33546-0.0957l0.4313-0.0478h0.33546l0.47921 0.0478c0.0957 0.0478 0.23961 0.0478 0.33548 0.0957l0.43132 0.14362c0.0957 0.0478 0.19165 0.0478 0.28751 0.0956l0.38335 0.23934c0.0958 0.0478 0.19173 0.0957 0.28757 0.19148l0.33546 0.28723c0.0482 0.0956 0.0957 0.14362 0.14377 0.19153l0.28753 0.38296c0.0957 0.0958 0.14373 0.19148 0.19167 0.28724l0.23966 0.38298c0 0.0958 0.0482 0.19149 0.0957 0.28723l0.0959 0.43086c0.0482 0.0957 0.0482 0.19148 0.0956 0.28727l0.0482 0.47869v0.33512l-0.0482 0.47868c-0.0477 0.0956-0.0477 0.19153-0.0956 0.28727l-0.0959 0.47869c-0.0482 0.0956-0.0957 0.14368-0.0957 0.23938l-0.23966 0.43089c-0.048 0.0956-0.0957 0.19144-0.19167 0.28719l-0.28753 0.3351c-0.0482 0.0478-0.0957 0.14365-0.14377 0.1915l-0.33546 0.28724c-0.0957 0.0958-0.19168 0.14361-0.28757 0.23939l-0.38335 0.19146c-0.0957 0.0478-0.19174 0.0957-0.28751 0.14364l-0.43132 0.14362c-0.0957 0-0.23964 0.0478-0.33548 0.0478l-0.47921 0.0478h-0.33546l-0.4313-0.0478c-0.0957 0-0.23959-0.0478-0.33546-0.0478l-0.43131-0.14362c-0.0957-0.0478-0.19168-0.0957-0.28752-0.14364l-0.38339-0.19146c-0.0957-0.0958-0.19169-0.1436-0.28756-0.23939l-0.33539-0.28724c-0.0478-0.0478-0.14376-0.14361-0.19169-0.23935l-0.28753-0.33515c-0.0479-0.0957-0.0957-0.1436-0.14377-0.23931l-0.19169-0.43087c-0.0481-0.0957-0.0957-0.14361-0.0957-0.23938l-0.14383-0.47869c-0.0477-0.0956-0.0477-0.19149-0.0477-0.28727zm3.2106 0.19149-0.0481-0.33509 0.0957 0.4787-0.0957-0.28724 0.23962 0.43086-0.19169-0.28723 0.28752 0.38296-0.19169-0.23935 0.33549 0.33512-0.28757-0.23938 0.38341 0.23938-0.28755-0.14364 0.43131 0.14364-0.33548-0.0478 0.43129 0.0478h-0.33541l0.47919-0.0478-0.33546 0.0478 0.43131-0.14364-0.28753 0.14364 0.38339-0.23938-0.28753 0.23938 0.33546-0.33512-0.19167 0.19148 0.28754-0.33509-0.1438 0.28723 0.19166-0.43086-0.0957 0.28724 0.14376-0.4787-0.0957 0.33509 0.0483-0.52659v0.3351l-0.0483-0.47874 0.0957 0.28725-0.14376-0.43087 0.0957 0.23938-0.19166-0.38299 0.1438 0.28723-0.28754-0.38299 0.19167 0.19149-0.33546-0.2872 0.28753 0.19147-0.38339-0.19147 0.28753 0.0958-0.43131-0.14361 0.33546 0.0958-0.47919-0.0478h0.33541l-0.43129 0.0478 0.33548-0.0958-0.43131 0.14361 0.28755-0.0958-0.38341 0.19147 0.28757-0.19147-0.33549 0.2872 0.19169-0.23935-0.28752 0.38298 0.19169-0.23936-0.23962 0.38299 0.0957-0.23938-0.0957 0.43087 0.0481-0.28725-0.0481 0.47874v-0.3351z" stroke="#000" stroke-width=".047899px"/>
  <path id="path3210" stroke-linejoin="round" d="m719.83 384.41v114.19h-1.7551v-114.19h1.7551zm4.4674 113.35-5.3181 5.0108-5.318-5.0108h10.636z" stroke="#000" stroke-width=".036502px"/>
  <path id="path3212" stroke-linejoin="round" d="m725.71 455.7-14.288 9.4764 0.79662 1.005 14.286-9.5243z" stroke="#000" stroke-width=".050417px"/>
  <text id="text3214" font-size="13.512px" xml:space="preserve" transform="scale(1.0534 .94929)" line-height="125%" y="484.73654" x="663.50018" font-family="Arial" fill="#000000"><tspan id="tspan3973" y="484.73654" x="663.50018">49</tspan></text>
  <path id="path3216" stroke-linejoin="round" d="m439.75 557.43c0-0.47947 0.28043-0.87905 0.61692-0.87905h54.156c0.35516 0 0.63556 0.39958 0.63556 0.87905v35.242c0 0.50608-0.2804 0.87906-0.63556 0.87906h-54.156c-0.33649 0-0.61692-0.37298-0.61692-0.87906zm1.2525 35.242-0.63556-0.87906h54.156l-0.61692 0.87906v-35.242l0.61692 0.87904h-54.156l0.63556-0.87904z" stroke="#000" stroke-width=".022316px"/>
  <text id="text3218" font-size="15.448px" xml:space="preserve" transform="scale(1.0534 .94929)" line-height="125%" y="617.98334" x="426.08533" font-family="Arial" fill="#000000">MUX</text>
  <path id="path3220" stroke-linejoin="round" d="m423.53 579.26h16.039v1.1964h-16.039z" stroke="#000" stroke-width=".025209px"/>
  <text id="text3222" font-size="18.022px" xml:space="preserve" transform="scale(1.0534 .94929)" line-height="125%" y="605.94495" x="386.05588" font-family="Arial" fill="#000000">MR</text>
  <text id="text3224" font-size="16.737px" xml:space="preserve" transform="matrix(.0018422 -.93615 1.0682 .0016602 0 0)" line-height="125%" y="679.28876" x="-633.73859" font-family="Arial" fill="#000000"><tspan id="tspan4437" y="679.28876" x="-633.73859">Rest of CPU</tspan></text>
  <text id="text3228" font-size="16.737px" xml:space="preserve" transform="matrix(.0018422 -.93615 1.0682 .0016602 0 0)" y="698.40881" x="-641.94641" font-family="Arial" fill="#000000">control </text>
  <text id="text3230" font-size="16.737px" xml:space="preserve" transform="matrix(.0018422 -.93615 1.0682 .0016602 0 0)" y="697.65698" x="-587.63086" font-family="Arial" fill="#000000">signals</text>
  <path id="path3232" stroke-linejoin="round" d="m679.63 446.35v-61.81h-1.3262v61.81z" stroke="#000" stroke-width=".052207px"/>
  <path id="path3234" stroke-linejoin="round" d="m469.13 592.2v14.62h-1.7526v-14.62h1.7526zm4.4345 13.019-5.3109 9.5721-5.3109-9.5721h10.622z" stroke="#000" stroke-width=".025209px"/>
  <path id="path3236" stroke-linejoin="round" d="m539.92 557.32c0-0.48767 0.26605-0.92113 0.60815-0.92113h55.074c0.34208 0 0.60815 0.43346 0.60815 0.92113v35.873c0 0.48771-0.26607 0.867-0.60815 0.867h-55.074c-0.3421 0-0.60815-0.37929-0.60815-0.867zm1.2542 35.873-0.64607-0.92111h55.074l-0.64609 0.92111v-35.873l0.64609 0.92121h-55.074l0.64607-0.92121z" stroke="#000" stroke-width=".045382px"/>
  <text id="text3238" font-size="15.448px" xml:space="preserve" transform="scale(1.0534 .94929)" line-height="125%" y="618.0755" x="522.22095" font-family="Arial" fill="#000000">MUX</text>
  <path id="path3240" stroke-linejoin="round" d="m523.98 579.12h16.013v1.1964h-16.013z" stroke="#000" stroke-width=".025209px"/>
  <text id="text3242" font-size="15.515px" xml:space="preserve" transform="scale(1.0534 .94929)" y="605.78412" x="486.12534" font-family="Arial" line-height="125%" fill="#000000">MR</text>
  <path id="path3244" stroke-linejoin="round" d="m569.02 592.79v14.158h-1.7527v-14.158h1.7527zm4.4084 12.634-5.3113 9.2544-5.3113-9.2544h10.623z" stroke="#000" stroke-width=".049575px"/>
  <path id="path3246" stroke-linejoin="round" d="m635.57 555.9c0-0.49736 0.25436-0.93956 0.58151-0.93956h52.667c0.32712 0 0.61789 0.4422 0.61789 0.93956v36.589c0 0.49741-0.29077 0.8843-0.61789 0.8843h-52.667c-0.32715 0-0.58151-0.38689-0.58151-0.8843zm1.1994 36.589-0.61791-0.93953h52.666l-0.61791 0.93953v-36.589l0.61791 0.93959h-52.666l0.61791-0.93959z" stroke="#000" stroke-width=".044820px"/>
  <text id="text3248" font-size="15.448px" xml:space="preserve" transform="scale(1.0534 .94929)" line-height="125%" y="617.27148" x="611.91705" font-family="Arial" fill="#000000">MUX</text>
  <path id="path3252" stroke-linejoin="round" d="m620.57 579.76h15.986v1.1964h-15.986z" stroke="#000" stroke-width=".050417px"/>
  <text id="text3254" font-size="15.515px" xml:space="preserve" transform="scale(1.0534 .94929)" y="606.44147" x="577.21936" font-family="Arial" line-height="125%" fill="#000000">MR</text>
  <path id="path3256" stroke-linejoin="round" d="m664.13 591.76v14.644h-1.7526v-14.644h1.7526zm4.461 13.068-5.3109 9.5721-5.3109-9.5721h10.622z" stroke="#000" stroke-width=".050417px"/>
  <path id="path3258" stroke-linejoin="round" d="m485.76 403.79h65.661v1.1844h-65.661z" stroke="#000" stroke-width=".037166px"/>
  <path id="path3260" stroke-linejoin="round" d="m485.19 550.83 1.2783-147.21-1.5588-0.0251-1.2783 147.25z" stroke="#000" stroke-width=".028013px"/>
  <path id="path3262" fill-rule="evenodd" d="m580.38 487.53c0-1.3401 1.1153-2.3932 2.5493-2.3932 1.3809 0 2.4962 1.0529 2.4962 2.3932 0 1.3401-1.1152 2.3931-2.4962 2.3931-1.434 0-2.5493-1.0529-2.5493-2.3931"/>
  <path id="path3264" stroke-linejoin="round" d="m578.37 487.7v-0.28717l0.0534-0.52647c0-0.0957 0.0535-0.19144 0.0535-0.28718l0.15933-0.43072c0.0532-0.0958 0.0532-0.19143 0.10641-0.23929l0.21242-0.43076c0.0534-0.0956 0.15932-0.19144 0.21245-0.28716l0.31866-0.33503c0.0534-0.0957 0.15932-0.1436 0.21242-0.19144l0.37178-0.33501c0.1062-0.0478 0.21243-0.1436 0.31864-0.19146l0.42488-0.19144c0.10619-0.0478 0.21242-0.0958 0.31864-0.14359l0.478-0.14357c0.1064-0.0478 0.21245-0.0478 0.37175-0.0478l0.47797-0.0478c0.15935-0.0478 0.26553-0.0478 0.37178 0l0.53107 0.0478c0.10642 0 0.26555 0 0.37176 0.0478l0.47799 0.14357c0.1063 0.0478 0.15933 0.0958 0.26554 0.0958l0.42485 0.23928c0.10622 0.0478 0.26559 0.1436 0.3187 0.1915l0.37176 0.33499c0.10599 0.0478 0.15931 0.14358 0.26552 0.19143l0.26552 0.38287c0.10641 0.0478 0.15934 0.14359 0.21246 0.23932l0.21246 0.43075c0.0534 0.0478 0.10641 0.14355 0.10641 0.23931l0.15936 0.43073c0.0534 0.0957 0.0534 0.19146 0.0534 0.28717l0.0536 0.52648v0.28713l-0.0536 0.47863c0 0.1436 0 0.2393-0.0534 0.33498l-0.15936 0.43076c0 0.0956-0.0534 0.19149-0.10641 0.23933l-0.21246 0.43075c-0.0536 0.0958-0.10609 0.19143-0.21246 0.23929l-0.26552 0.38288c-0.10619 0.0478-0.15934 0.14359-0.26552 0.19144l-0.37176 0.33503c-0.0534 0.0478-0.21243 0.14357-0.3187 0.19143l-0.42485 0.19142c-0.10611 0.0478-0.15932 0.0956-0.26554 0.14364l-0.47799 0.14357c-0.10631 0.0478-0.26553 0.0478-0.37176 0.0478l-0.53107 0.0478c-0.10598 0.0478-0.21243 0.0478-0.37178 0l-0.47797-0.0478c-0.1593 0-0.26555 0-0.37175-0.0478l-0.478-0.14357c-0.10619-0.0478-0.21241-0.0958-0.31864-0.14364l-0.42488-0.19142c-0.1063-0.0478-0.21244-0.14355-0.31864-0.19143l-0.37178-0.33503c-0.0534-0.0478-0.15932-0.0956-0.21242-0.19144l-0.31866-0.33499c-0.0534-0.0957-0.15935-0.19146-0.21245-0.28718l-0.21242-0.43075c-0.0535-0.0478-0.0535-0.14358-0.10641-0.23933l-0.15933-0.43076c0-0.0958-0.0535-0.19138-0.0535-0.33498zm3.5581 0.19143-0.0535-0.28714 0.15935 0.43072-0.10598-0.23931 0.21244 0.38288-0.21244-0.28715 0.31864 0.38288-0.21246-0.19142 0.37176 0.28715-0.2655-0.19146 0.42484 0.19146-0.31864-0.0957 0.47797 0.14357-0.37176-0.0958 0.47795 0.0478h-0.37175l0.5311-0.0478-0.42487 0.0958 0.47798-0.14357-0.26554 0.0957 0.42486-0.23929-0.31866 0.23929 0.3718-0.28715-0.21246 0.19142 0.31866-0.33502-0.21245 0.23929 0.21245-0.38288-0.10619 0.23931 0.15933-0.43072-0.0536 0.28714 0.0536-0.4786v0.28717l-0.0536-0.47857 0.0536 0.28713-0.15933-0.43076 0.10619 0.2393-0.21245-0.38287 0.21245 0.23929-0.31866-0.33502 0.21246 0.19145-0.3718-0.28715 0.31866 0.19143-0.42486-0.19143 0.26554 0.0957-0.47798-0.14355 0.42487 0.0956-0.5311-0.0478h0.37175l-0.47795 0.0478 0.37176-0.0956-0.47797 0.14355 0.31864-0.0957-0.42484 0.19143 0.2655-0.19143-0.37176 0.28715 0.21246-0.19145-0.31864 0.38293 0.21244-0.2872-0.21244 0.38287 0.10598-0.2393-0.15935 0.43076 0.0535-0.28713-0.0535 0.47857v-0.28717z" stroke="#000" stroke-width=".050417px"/>
  <path id="path3266" fill-rule="evenodd" d="m484.57 488.04c0-1.3161 1.1419-2.3931 2.5228-2.3931 1.4074 0 2.5228 1.0769 2.5228 2.3931 0 1.3401-1.1151 2.417-2.5228 2.417-1.3809 0-2.5228-1.0769-2.5228-2.417"/>
  <path id="path3268" stroke-linejoin="round" d="m481.61 488.21v-0.31108l0.0534-0.50254c0.0263-0.0958 0.0263-0.19145 0.0794-0.28715l0.13275-0.45469c0.0262-0.0716 0.0793-0.1675 0.10598-0.23932l0.23898-0.4068c0.0533-0.11969 0.10642-0.21538 0.18592-0.28714l0.31863-0.35896c0.0794-0.0719 0.13281-0.14362 0.21244-0.19146l0.37175-0.31109c0.1063-0.072 0.21245-0.14359 0.31866-0.19145l0.42491-0.21537c0.0794-0.0478 0.18586-0.0957 0.29208-0.11965l0.47799-0.1436c0.13276-0.0478 0.26554-0.0717 0.37174-0.0717l0.50451-0.0478c0.13282-0.0239 0.26554-0.0239 0.37179 0l0.50453 0.0478c0.13277 0 0.26555 0.0239 0.39833 0.0717l0.47797 0.1436c0.10597 0.0239 0.18588 0.0716 0.29211 0.11965l0.42486 0.21537c0.10598 0.0478 0.21244 0.1197 0.31865 0.19145l0.37176 0.31109c0.0793 0.0478 0.13277 0.11968 0.21244 0.19146l0.31862 0.35896c0.0533 0.0717 0.13279 0.16748 0.18592 0.28714l0.23901 0.4068c0.0262 0.0718 0.0792 0.16753 0.10621 0.23932l0.13276 0.45469c0.0534 0.0957 0.0534 0.19143 0.0793 0.28715l0.0534 0.50254v0.31108l-0.0534 0.47863c-0.0263 0.11965-0.0263 0.21537-0.0793 0.28712l-0.13276 0.45471c-0.0262 0.0957-0.0793 0.19142-0.10621 0.28716l-0.23901 0.4068c-0.0534 0.0956-0.13279 0.19144-0.18592 0.28718l-0.31862 0.35894c-0.0794 0.0717-0.13279 0.11969-0.21244 0.19141l-0.37176 0.28721c-0.1062 0.0715-0.21244 0.14359-0.31865 0.21535l-0.42486 0.21538c-0.10618 0.0478-0.18591 0.0718-0.29211 0.11968l-0.47797 0.14357c-0.13279 0.0239-0.26556 0.0478-0.39833 0.0718l-0.50453 0.0478h-0.37179l-0.50451-0.0478c-0.10652-0.0239-0.23898-0.0478-0.37174-0.0718l-0.47799-0.14357c-0.1063-0.0478-0.21244-0.0716-0.29208-0.11968l-0.42491-0.21538c-0.10642-0.0719-0.21243-0.14356-0.31866-0.21535l-0.37175-0.28721-0.21244-0.19141-0.31863-0.35894c-0.0792-0.0956-0.1328-0.19143-0.18592-0.28718l-0.23898-0.4068c-0.0263-0.0957-0.0794-0.19143-0.10598-0.28716l-0.1593-0.45471c-0.0263-0.0717-0.0263-0.16749-0.0536-0.28712zm3.5849 0.16752-0.0535-0.28718 0.13278 0.45469-0.1062-0.26323 0.21243 0.40683-0.18587-0.28718 0.31864 0.35898-0.21237-0.1915 0.37172 0.31114-0.31864-0.21536 0.42486 0.21536-0.29211-0.1197 0.47796 0.1436-0.39831-0.0718 0.50454 0.0478h-0.37179l0.50458-0.0478-0.37176 0.0718 0.47797-0.1436-0.2921 0.1197 0.4249-0.21536-0.31867 0.21536 0.37174-0.31114-0.21241 0.1915 0.31862-0.35898-0.18585 0.28718 0.21245-0.40683-0.10631 0.26323 0.13278-0.45469-0.0534 0.28718 0.0534-0.4786v0.31108l-0.0534-0.50253 0.0792 0.3111-0.15931-0.45464 0.10631 0.2632-0.21246-0.40682 0.18593 0.28716-0.31872-0.35893 0.21246 0.19145-0.37176-0.28719 0.31867 0.19145-0.42488-0.21537 0.29209 0.11968-0.47798-0.1436 0.3718 0.0718-0.50458-0.0478h0.37176l-0.50453 0.0478 0.39834-0.0718-0.47798 0.1436 0.29208-0.11968-0.42485 0.21537 0.31864-0.19145-0.37179 0.28719 0.21243-0.19145-0.31861 0.35893 0.18587-0.28716-0.21243 0.40682 0.10641-0.2632-0.15932 0.45464 0.0793-0.3111-0.0533 0.50253v-0.31108z" stroke="#000" stroke-width=".025209px"/>
  <path id="path3270" stroke-linejoin="round" d="m485.27 523.84v24.115h-1.7526v-24.115h1.7526zm4.4346 22.417-5.3109 10.143-5.311-10.143h10.622z" stroke="#000" stroke-width=".025948px"/>
  <path id="path3272" stroke-linejoin="round" d="m491.75 532.45-14.288 9.5004 0.7701 0.95723 14.288-9.5004z" stroke="#000" stroke-width=".025209px"/>
  <text id="text3274" font-size="13.513px" xml:space="preserve" transform="scale(1.0534 .94929)" y="566.68768" x="448.42859" font-family="Arial" fill="#000000">5</text>
  <path id="path3276" stroke-linejoin="round" d="m585.79 487.17-13.759-0.22798-0.0331 1.5799 13.812 0.23031-0.0199-1.5823zm-11.949-4.1727-10.674 4.6052 10.522 4.9718 0.15174-9.5769z" stroke="#000" stroke-width=".050417px"/>
  <path id="path3278" stroke-linejoin="round" d="m583.1 553.2v-150.74h-1.3107v150.74z" stroke="#000" stroke-width="0.0672px"/>
  <path id="path3280" stroke-linejoin="round" d="m550.23 405.01-0.31442-21.974 1.3492-0.008 0.31441 21.974z" stroke="#000" stroke-width=".045614px"/>
  <path id="path3282" stroke-linejoin="round" d="m583.52 525.97v22.734h-1.7526v-22.734h1.7526zm4.4609 21.155-5.3109 9.5721-5.3109-9.5721h10.622z" stroke="#000" stroke-width=".050417px"/>
  <path id="path3284" stroke-linejoin="round" d="m589.98 531.63-14.288 9.5242 0.79666 0.95719 14.288-9.5242z" stroke="#000" stroke-width=".050417px"/>
  <text id="text3286" font-size="13.513px" xml:space="preserve" transform="scale(1.0534 .94929)" y="566.9566" x="541.47302" font-family="Arial" fill="#000000">5</text>
  <path id="path3290" stroke-linejoin="round" d="m681.48 490.02-13.579 0.16888 0.004-1.5859 13.573-0.21656 0.00027 1.6336zm-11.7 4.1035-10.744-4.6214 10.554-4.9248 0.19005 9.5462z" stroke="#000" stroke-width=".050417px"/>
  <path id="path3292" stroke-linejoin="round" d="m679.37 547.23v-116.55h-1.3167v116.55z" stroke="#000" stroke-width=".060735px"/>
  <path id="path3296" stroke-linejoin="round" d="m686.07 529.66-14.288 9.5242 0.79662 0.95719 14.288-9.4764z" stroke="#000" stroke-width=".050417px"/>
  <text id="text3298" font-size="13.513px" xml:space="preserve" transform="scale(1.0534 .94929)" y="565.63544" x="631.98212" font-family="Arial" fill="#000000">5</text>
  <path id="path3300" stroke-linejoin="round" d="m679.61 524.17v22.784h-1.7526v-22.784h1.7526zm4.408 21.155-5.3109 9.5721-5.3109-9.5721h10.622z" stroke="#000" stroke-width=".050417px"/>
  <path id="path3302" stroke-linejoin="round" d="m768.76 555.33c0-0.49965 0.29986-0.94373 0.63717-0.94373h54.271c0.37481 0 0.63713 0.44408 0.63713 0.94373v36.752c0 0.49965-0.26232 0.88824-0.63713 0.88824h-54.271c-0.33731 0-0.63717-0.38859-0.63717-0.88824zm1.2367 36.752-0.5997-0.94371h54.271l-0.59965 0.94371v-36.752l0.59965 0.9437h-54.271l0.5997-0.9437z" stroke="#000" stroke-width=".045615px"/>
  <text id="text3304" font-size="15.448px" xml:space="preserve" transform="scale(1.0534 .94929)" line-height="125%" y="616.29358" x="739.16949" font-family="Arial" fill="#000000">MUX</text>
  <path id="path3306" stroke-linejoin="round" d="m824.24 579.59h16.039v1.1964h-16.039z" stroke="#000" stroke-width=".050417px"/>
  <path id="path3308" stroke-linejoin="round" d="m798.26 592.34v14.644h-1.8057v-14.644h1.8057zm4.408 13.068-5.3109 9.5721-5.3109-9.5721h10.622z" stroke="#000" stroke-width=".050417px"/>
  <path id="path3310" stroke-linejoin="round" d="m771.48 349.91c0-0.43071 0.48224-0.81352 1.1023-0.81352h65.102c0.62007 0 1.1711 0.38281 1.1711 0.81352v33.352c0 0.43066-0.55112 0.81348-1.1711 0.81348h-65.102c-0.62005 0-1.1023-0.38282-1.1023-0.81348zm1.6703 33.411-0.56815-0.87001h65.102l-0.51691 1.109 0.0976-33.746 0.41934 0.91202h-65.102l0.62296-0.70037z" stroke="#000" stroke-width=".057417px"/>
  <text id="text3312" font-size="16.735px" xml:space="preserve" transform="scale(1.0534 .94929)" line-height="125%" y="392.02783" x="737.08398" font-family="Arial" fill="#000000">SelCop</text>
  <path id="path3314" fill-rule="evenodd" d="m677.26 489.42c0-1.3401 1.1153-2.4408 2.5493-2.4408 1.3809 0 2.4962 1.1006 2.4962 2.4408 0 1.3401-1.1153 2.3932-2.4962 2.3932-1.4339 0-2.5493-1.0529-2.5493-2.3932"/>
  <path id="path3316" stroke-linejoin="round" d="m674.66 489.17v-0.28717l0.0534-0.52646c0-0.0956 0.0534-0.19147 0.0534-0.28718l0.15929-0.43076c0.0535-0.0956 0.0535-0.19142 0.10621-0.28714l0.26551-0.3829c0.0534-0.0957 0.10619-0.19143 0.15931-0.28716l0.31866-0.33503c0.0535-0.0958 0.10587-0.14356 0.21247-0.23928l0.37176-0.28717c0.10631-0.0958 0.21244-0.14358 0.31864-0.19144l0.42486-0.23934c0.10651-0.0478 0.21247-0.0478 0.31866-0.0956l0.47798-0.14357c0.10653-0.0478 0.21243-0.0478 0.3718-0.0958l0.47797-0.0478h0.37173l0.53112 0.0478c0.10608 0.0478 0.21237 0.0478 0.37175 0.0958l0.47796 0.14357c0.10588 0.0478 0.21246 0.0478 0.31868 0.0956l0.42485 0.23934c0.1063 0.0478 0.21247 0.0958 0.26558 0.19144l0.37172 0.28717 0.21245 0.19142 0.31866 0.38289c0.10631 0.0957 0.15932 0.19145 0.21241 0.28716l0.21246 0.3829c0.0535 0.0958 0.1063 0.19146 0.1063 0.28714l0.15929 0.43076c0.0536 0.0958 0.0536 0.19142 0.0536 0.28718l0.0534 0.52646c0.0535 0.0957 0.0535 0.19142 0 0.28717l-0.0534 0.47859c0 0.14358 0 0.23931-0.0536 0.33505l-0.15929 0.43072c0 0.0958-0.0533 0.19143-0.1063 0.23928l-0.21246 0.43075c-0.0535 0.0957-0.10588 0.19143-0.21241 0.28718l-0.31866 0.33502c-0.0535 0.0957-0.10653 0.14358-0.21245 0.19144l-0.37172 0.33503c-0.0536 0.0478-0.15935 0.14357-0.26558 0.19144l-0.42485 0.19145c-0.10597 0.0478-0.21243 0.0957-0.31868 0.14356l-0.47796 0.1436c-0.15938 0.0478-0.26553 0.0478-0.37175 0.0478l-0.53112 0.0478c-0.10639 0.0478-0.21243 0.0478-0.37173 0l-0.47797-0.0478c-0.15937 0-0.26556 0-0.3718-0.0478l-0.47798-0.1436c-0.10652-0.0478-0.21243-0.0958-0.31866-0.14356l-0.42486-0.19145c-0.1063-0.0478-0.21244-0.1436-0.31864-0.19144l-0.37176-0.33503c-0.10642-0.0478-0.15933-0.14357-0.21247-0.19144l-0.31866-0.38286c-0.0535-0.0478-0.10598-0.14359-0.15931-0.23934l-0.26551-0.43075c0-0.0478-0.0536-0.14355-0.10621-0.23928l-0.10641-0.43072c-0.0536-0.0958-0.1063-0.19147-0.1063-0.33505zm3.6114 0.19144-0.1062-0.28719 0.15935 0.43078-0.10641-0.23932 0.21241 0.38288-0.15929-0.23933 0.31864 0.33506-0.26556-0.19145 0.37176 0.28714-0.26555-0.19142 0.42489 0.19142-0.31865-0.0956 0.47798 0.14354-0.37177-0.0956 0.47796 0.0478h-0.37178l0.53113-0.0478-0.37178 0.0956 0.47801-0.14354-0.31867 0.0956 0.42485-0.19142-0.31864 0.19142 0.37176-0.28714-0.21243 0.19145 0.31865-0.38288-0.21244 0.28715 0.26554-0.38288-0.10642 0.23932 0.10642-0.43078-0.0536 0.28719 0.0536-0.47861v0.28717l-0.0536-0.47862 0.0536 0.28716-0.15932-0.47861 0.15932 0.28719-0.26554-0.38292 0.21244 0.28718-0.31865-0.38286 0.21243 0.19141-0.37176-0.28717 0.31864 0.19144-0.42485-0.19144 0.31867 0.0958-0.47801-0.14359 0.37178 0.0957-0.53113-0.0478h0.37178l-0.47796 0.0478 0.37177-0.0957-0.47798 0.14359 0.31865-0.0958-0.42489 0.19144 0.26555-0.19144-0.37176 0.28717 0.26556-0.23932-0.31864 0.3829 0.15929-0.23931-0.21241 0.38292 0.10641-0.28719-0.15935 0.47861 0.1062-0.28716-0.0533 0.47862v-0.28717z" stroke="#000" stroke-width=".050417px"/>
  <path id="path3318" stroke-linejoin="round" d="m807.64 429.56 0.36702 119.09-1.7538-0.007-0.36703-119.09zm4.7278 114.98-4.9683 10.042-5.3334-10.093 10.367 0.0512z" stroke="#000" stroke-width=".043169px"/>
  <path id="path3320" stroke-linejoin="round" d="m785.91 426.45 0.53077 117.9h-1.7515l-0.58386-117.84 1.8045-0.0604zm4.8702 117.36-5.1888 10.519-5.0322-10.526 10.156 0.005z" stroke="#000" stroke-width=".056504px"/>
  <text id="text3322" font-size="18.022px" xml:space="preserve" transform="scale(1.0534 .94929)" line-height="125%" y="605.59949" x="786.7533" font-family="Arial" fill="#000000">MC</text>
  <path id="path3324" stroke-linejoin="round" d="m814.1 525.26-14.288 9.5243 0.7966 0.95719 14.288-9.4764z" stroke="#000" stroke-width=".050417px"/>
  <path id="path3326" stroke-linejoin="round" d="m780.28 494.91-10.872 6.2965 0.56582 0.66777 10.872-6.3282z" stroke="#000" stroke-width=".035851px"/>
  <text id="text3328" font-size="13.514px" xml:space="preserve" transform="matrix(-.012301 -1.0027 .99721 -.0073527 0 0)" y="774.72437" x="-532.06085" font-family="Arial" line-height="125%" fill="#000000"><tspan id="tspan4439" y="774.72437" x="-532.06085">IR3 -- IR0</tspan></text>
  <text id="text3330" font-size="13.513px" xml:space="preserve" transform="scale(1.0534 .94929)" y="558.22125" x="755.17212" font-family="Arial" fill="#000000">4</text>
  <text id="text3332" font-size="13.513px" xml:space="preserve" transform="scale(1.0534 .94929)" y="567.3902" x="420.71005" font-family="Arial" fill="#000000">5</text>
  <text id="text3334" font-size="13.513px" xml:space="preserve" transform="scale(1.0534 .94929)" y="566.72412" x="514.1297" font-family="Arial" fill="#000000">5</text>
  <text id="text3336" font-size="13.513px" xml:space="preserve" transform="scale(1.0534 .94929)" y="565.26642" x="604.52649" font-family="Arial" fill="#000000">5</text>
  <text id="text3338" font-size="15.448px" xml:space="preserve" transform="scale(1.0534 .94929)" line-height="125%" y="600.71088" x="427.5744" font-family="Arial" fill="#000000">0</text>
  <text id="text3340" font-size="15.448px" xml:space="preserve" transform="scale(1.0534 .94929)" line-height="125%" y="600.99738" x="454.48199" font-family="Arial" fill="#000000">1</text>
  <text id="text3342" font-size="17.379px" line-height="125%" transform="scale(1.0534 .94929)" y="662.01563" x="527.90601" font-family="Arial" xml:space="preserve" fill="#000000">RB</text>
  <text id="text3344" font-size="17.379px" line-height="125%" transform="scale(1.0534 .94929)" y="661.37482" x="618.20972" font-family="Arial" xml:space="preserve" fill="#000000">RC</text>
  <text id="text3346" font-size="17.379px" line-height="125%" transform="scale(1.0534 .94929)" y="661.42822" x="433.53021" font-family="Arial" xml:space="preserve" fill="#000000">RA</text>
  <text id="text3348" font-size="17.379px" line-height="125%" transform="scale(1.0534 .94929)" y="661.05573" x="742.35999" font-family="Arial" xml:space="preserve" fill="#000000">Cop</text>
  <text id="text3350" font-size="15.448px" xml:space="preserve" transform="scale(1.0534 .94929)" line-height="125%" y="600.71088" x="522.73718" font-family="Arial" fill="#000000">0</text>
  <text id="text3352" font-size="15.448px" xml:space="preserve" transform="scale(1.0534 .94929)" line-height="125%" y="600.99725" x="548.61896" font-family="Arial" fill="#000000">1</text>
  <text id="text3354" font-size="15.448px" xml:space="preserve" transform="scale(1.0534 .94929)" line-height="125%" y="599.4715" x="742.60529" font-family="Arial" fill="#000000">0</text>
  <text id="text3356" font-size="15.448px" xml:space="preserve" transform="scale(1.0534 .94929)" line-height="125%" y="598.78815" x="761.93097" font-family="Arial" fill="#000000">1</text>
  <text id="text3358" font-size="15.389px" xml:space="preserve" transform="scale(1.0534 .94929)" line-height="125%" y="196.23242" x="278.72141" font-family="Arial" fill="#000000">A1</text>
  <text id="text3362" font-size="20.167px" xml:space="preserve" transform="scale(1.0534 .94929)" y="320.82755" x="255.345" font-family="Arial" fill="#000000">MUX B</text>
  <path id="path3364" stroke-linejoin="round" d="m262.75 329.55c0 0.43514 0.26551 0.77871 0.62587 0.77871h78.865c0.34138 0 0.62589-0.34357 0.62589-0.77871v-48.714c0-0.41226-0.28451-0.75581-0.62589-0.75581h-78.865c-0.36036 0-0.62587 0.34355-0.62587 0.75581zm1.2518-48.714-0.6259 0.75583h78.865l-0.62593-0.75583v48.714l0.62593-0.75582h-78.865l0.6259 0.75582z" stroke="#000" stroke-width=".020842px"/>
  <text id="text3366" font-size="15.448px" xml:space="preserve" transform="scale(1.0534 .94929)" line-height="125%" y="341.62561" x="267.79117" font-family="Arial" fill="#000000">0</text>
  <text id="text3368" font-size="15.448px" xml:space="preserve" transform="scale(1.0534 .94929)" line-height="125%" y="341.9118" x="295.06464" font-family="Arial" fill="#000000">1</text>
  <path id="path3372" stroke-linejoin="round" d="m316.86 351.32v-14.644h-1.7791v14.644h1.7791zm4.408-13.042-5.3109-9.5721-5.311 9.5721h10.621z" stroke="#000" stroke-width=".025209px"/>
  <text id="text3374" font-size="16.091px" xml:space="preserve" transform="scale(1.0534 .94929)" line-height="125%" y="87.887093" x="233.76613" font-family="Arial" fill="#000000">00</text>
  <text id="text3376" font-size="16.091px" xml:space="preserve" transform="scale(1.0534 .94929)" line-height="125%" y="118.41792" x="233.76613" font-family="Arial" fill="#000000"><tspan id="tspan5996" font-size="16.091px" line-height="125%" y="118.41792" x="233.76613" font-family="Arial">01</tspan></text>
  <text id="text3378" font-size="16.091px" xml:space="preserve" transform="scale(1.0534 .94929)" line-height="125%" y="148.94872" x="232.86237" font-family="Arial" fill="#000000"><tspan id="tspan5998" font-size="16.091px" line-height="125%" y="148.94872" x="232.86237" font-family="Arial">10</tspan></text>
  <text id="text3380" font-size="16.091px" xml:space="preserve" transform="scale(1.0534 .94929)" line-height="125%" y="179.47955" x="232.86237" font-family="Arial" fill="#000000">11</text>
  <path id="path3382" fill-rule="evenodd" fill="#fff" d="m306.04 376.34 10.037-18.092 10.038 18.092z"/>
  <path id="path3384" stroke-linejoin="round" d="m306.04 372.22c-0.23903 0-0.45147-0.0906-0.58429-0.21684-0.10599-0.14449-0.13276-0.30709-0.0263-0.43352l10.039-13.657c0.10619-0.16257 0.34526-0.25291 0.61086-0.25291 0.23901 0 0.47804 0.0905 0.58428 0.25291l10.039 13.657c0.10642 0.12643 0.0793 0.28903-0.0263 0.43352-0.1328 0.12647-0.34525 0.21684-0.55773 0.21684zm20.08-0.90326-0.61085 0.65036-10.039-13.657h1.195l-10.039 13.657-0.58428-0.65036z" stroke="#000" stroke-width=".021905px"/>
  <path id="path3386" fill-rule="evenodd" fill="#fff" d="m310.91 354.35c0-2.4887 2.257-4.5227 5.0186-4.5227 2.7882 0 5.0187 2.034 5.0187 4.5227s-2.2306 4.5227-5.0187 4.5227c-2.7618 0-5.0186-2.034-5.0186-4.5227"/>
  <path id="path3388" stroke-linejoin="round" d="m310.27 354.43c-0.0263-0.0478-0.0263-0.0958 0-0.14363l0.1063-0.9093c0-0.0239 0-0.0718 0.0263-0.0958l0.29207-0.86148c0-0.0239 0.0263-0.0717 0.0263-0.0957l0.45143-0.76578c0.0263-0.0478 0.0533-0.0715 0.0792-0.11969l0.63731-0.67006 0.0794-0.0717 0.74356-0.55039c0.0263-0.0239 0.0795-0.0478 0.10619-0.0478l0.84971-0.43075c0.0262-0.0239 0.0794-0.0239 0.1328-0.0478l0.92941-0.26325c0.0534 0 0.0794-0.0239 0.13281-0.0239l1.009-0.0958h0.13278l1.009 0.0958c0.0534 0 0.0795 0.0239 0.1328 0.0239l0.9294 0.26325c0.0535 0.0239 0.0795 0.0239 0.13281 0.0478l0.84973 0.43075c0.0263 0 0.0794 0.0239 0.10586 0.0478l0.74357 0.55039 0.0794 0.0717 0.63733 0.67006c0.0263 0.0478 0.0533 0.0718 0.0795 0.11969l0.45143 0.76578c0 0.0239 0.0263 0.0719 0.0263 0.0957l0.29209 0.86148c0.0262 0.0239 0.0262 0.0719 0.0262 0.0958l0.10652 0.9093c0.0263 0.0478 0.0263 0.0957 0 0.14363l-0.10652 0.90933c0 0.0239 0 0.0717-0.0262 0.0957l-0.29209 0.86147c0 0.0239-0.0263 0.0717-0.0263 0.0957l-0.45143 0.76577c-0.0263 0.0478-0.0534 0.072-0.0795 0.11969l-0.63733 0.67006-0.0794 0.0717-0.74357 0.5504c-0.0263 0.0239-0.0795 0.0478-0.10586 0.0718l-0.84973 0.40682c-0.0534 0.0239-0.0793 0.0239-0.13281 0.0478l-0.9294 0.26322c-0.0536 0-0.0795 0.0238-0.1328 0.0238l-1.009 0.0957h-0.13278l-1.009-0.0957c-0.0536 0-0.0795-0.0238-0.13281-0.0238l-0.92941-0.26322c-0.0533-0.0239-0.0795-0.0239-0.1328-0.0478l-0.84971-0.40682c-0.0263-0.0239-0.0795-0.0478-0.10619-0.0718l-0.74356-0.5504-0.0794-0.0717-0.63731-0.67006c-0.0264-0.0478-0.0536-0.0717-0.0792-0.11969l-0.45143-0.76577c0-0.024-0.0263-0.0718-0.0263-0.0957l-0.29207-0.86147c-0.0263-0.0238-0.0263-0.0716-0.0263-0.0957zm1.4074 0.76574-0.0263-0.0956 0.29209 0.83757-0.0262-0.0957 0.45142 0.7658-0.0794-0.1197 0.61077 0.67006-0.0795-0.0717 0.74351 0.57434-0.10587-0.0717 0.84979 0.40681-0.13283-0.0478 0.95599 0.26324-0.13277-0.0239 1.009 0.0958h-0.1328l1.0091-0.0958-0.13279 0.0239 0.95597-0.26324-0.1328 0.0478 0.84976-0.40681-0.1061 0.0717 0.74352-0.57434-0.0794 0.0717 0.61074-0.67006-0.0792 0.1197 0.45139-0.7658-0.0263 0.0957 0.2921-0.83757-0.0263 0.0956 0.10621-0.90937v0.14363l-0.10621-0.90932 0.0263 0.0956-0.2921-0.83753 0.0263 0.0958-0.45139-0.76578 0.0792 0.11968-0.61074-0.67002 0.0794 0.0716-0.74352-0.55036 0.1061 0.0478-0.84976-0.40681 0.1328 0.0478-0.95597-0.26321 0.13279 0.0239-1.0091-0.0957h0.1328l-1.009 0.0957 0.13277-0.0239-0.95599 0.26321 0.13283-0.0478-0.84979 0.40681 0.10587-0.0478-0.74351 0.55036 0.0795-0.0716-0.61077 0.67002 0.0794-0.11968-0.45142 0.76578 0.0262-0.0958-0.29209 0.83753 0.0263-0.0956-0.10631 0.90932v-0.14363z" stroke="#000" stroke-width=".025209px"/>
  <path id="path3390" stroke-linejoin="round" d="m317.15 387.38v-15.991h-1.3292v15.991z" stroke="#000" stroke-width=".023714px"/>
  <path id="path3392" stroke-linejoin="round" d="m287.57 386.57h29.683v1.2002h-29.683z" stroke="#000" stroke-width=".021488px"/>
  <path id="path3394" fill-rule="evenodd" fill="#d9d9d9" d="m425.26 349.38v35.106h25.236v-35.106h-25.236z"/>
  <path id="path3398" fill-rule="evenodd" fill="#d9d9d9" d="m448.27 349.38v35.106h35.132v-35.106h-35.132z"/>
  <path id="path3400" stroke-linejoin="round" d="m451.86 349.59c0-0.41707 0.32671-0.76464 0.77011-0.76464h30.873c0.42005 0 0.77013 0.34757 0.77013 0.76464v33.991c0 0.41706-0.35008 0.7646-0.77013 0.7646h-30.873c-0.4434 0-0.77011-0.34754-0.77011-0.7646zm1.5402 33.991-0.77004-0.76463h30.873l-0.7934 0.76463v-33.991l0.7934 0.76464h-30.873l0.77004-0.76464z" stroke="#000" stroke-width=".023253px"/>
  <path id="path3402" fill-rule="evenodd" fill="#d9d9d9" d="m399.53 349.38v35.106h25.051v-35.106h-25.051z"/>
  <path id="path3404" stroke-linejoin="round" d="m397.98 349.59c0-0.417 0.48068-0.7645 1.133-0.7645h25.512c0.618 0 1.133 0.3475 1.133 0.7645v33.987c0 0.41702-0.51503 0.76449-1.133 0.76449h-25.512c-0.65237 0-1.133-0.34747-1.133-0.76449zm2.266 33.987-1.1331-0.76452h25.512l-1.1674 0.76452v-33.987l1.1674 0.7645h-25.512l1.1331-0.7645z" stroke="#000" stroke-width=".028204px"/>
  <text id="text3406" font-size="18.666px" xml:space="preserve" transform="scale(1.0534 .94929)" line-height="125%" y="393.53421" x="433.79581" font-family="Arial" fill="#000000">A0</text>
  <text id="text3408" font-size="18.666px" xml:space="preserve" transform="scale(1.0534 .94929)" line-height="125%" y="393.74762" x="409.97372" font-family="Arial" fill="#000000">B</text>
  <text id="text3410" font-size="18.666px" xml:space="preserve" transform="scale(1.0534 .94929)" line-height="125%" y="394.276" x="384.74475" font-family="Arial" fill="#000000">C</text>
  <text id="text3412" font-size="16.738px" xml:space="preserve" transform="scale(1.0534 .94929)" y="227.2809" x="491.44968" font-family="Arial" fill="#000000">µAddress</text>
  <path id="path3414" stroke-linejoin="round" d="m414.07 384.11v102.46h-1.2829v-102.46z" stroke="#000" stroke-width=".040469px"/>
  <path id="path3416" stroke-linejoin="round" d="m590.73 225.47v61.807h-1.3118v-61.807z" stroke="#000" stroke-width=".041099px"/>
  <path id="path3418" stroke-linejoin="round" d="m527.37 342.66 0.0415-2.7765 0.12442-2.6328 0.0833-1.2445 0.12441-1.149 0.12444-1.101 0.12446-0.95738 0.12444-0.95741 0.16588-0.8138 0.16593-0.71805 0.20737-0.62229 0.16593-0.47875c0.0417-0.0478 0.0417-0.0957 0.0417-0.0957l0.20741-0.3351c0.0416-0.0478 0.0416-0.0958 0.083-0.0958l0.20736-0.23936c0.0417-0.0478 0.12446-0.0958 0.20741-0.14363l0.2074-0.0478c0.0415-0.0478 0.0831-0.0478 0.12444-0.0478h60.225l-0.16587 0.0478 0.20735-0.0957-0.20735 0.14358 0.20735-0.19146-0.0829 0.0957 0.20736-0.33506-0.0417 0.0958 0.16592-0.47873 0.1659-0.52659 0.16591-0.67018 0.12444-0.76591 0.16591-0.86167 0.12444-0.95742 0.0832-1.0531 0.12445-1.149 0.0832-1.1966 0.083-2.585 0.0418-2.7764c0.0415-0.33509 0.24884-0.57445 0.5392-0.57445 0.29037 0 0.49772 0.23936 0.49772 0.57445l0.0415 2.8242 0.12446 2.5372 0.0831 1.1966 0.12444 1.149 0.0832 1.0531 0.12441 0.95742 0.16593 0.86166 0.12441 0.76592 0.16592 0.67018 0.16594 0.57445 0.16589 0.43086-0.0416-0.0958 0.20741 0.33507-0.0831-0.0957 0.20741 0.19146-0.20741-0.14357 0.20741 0.0958-0.1659-0.0478h60.225c0.0414 0 0.0827 0 0.12436 0.0478l0.20751 0.0478c0.0828 0.0478 0.16592 0.0957 0.20726 0.14364l0.2075 0.23935c0.0414 0 0.0414 0.0478 0.0827 0.0958l0.20727 0.3351s0 0.0478 0.0414 0.0958l0.16591 0.43084 0.20751 0.67018 0.16582 0.71808 0.16591 0.81375 0.12449 0.90955 0.12447 1.0053 0.12437 1.101 0.12446 1.149 0.0827 1.1966 0.0828 2.6328 0.0413 2.8243h-1.037l-0.0414-2.7765-0.0826-2.585-0.0827-1.1489-0.12448-1.1489-0.0827-1.0531-0.12448-0.95741-0.1658-0.90953-0.12449-0.71806-0.16592-0.67017-0.16594-0.57444-0.16593-0.43082 0.0414 0.0957-0.2074-0.33509 0.0827 0.0957-0.20739-0.23933 0.20739 0.1436-0.20739-0.0478h0.16592-60.225-0.12444l-0.2074-0.0957c-0.083 0-0.1659-0.0478-0.20738-0.14363l-0.20738-0.1915c-0.0416-0.0478-0.0416-0.0958-0.0832-0.0958l-0.20738-0.33512c0-0.0478 0-0.0958-0.0415-0.0958l-0.16595-0.52656-0.20737-0.62234-0.16591-0.71803-0.16592-0.8138-0.12444-0.90954-0.12444-1.0053-0.12441-1.0531-0.12446-1.1966-0.0831-1.1966-0.12447-2.6329-0.0417-2.7764h1.0369l-0.0417 2.7764-0.083 2.6329-0.0831 1.2445-0.12446 1.149-0.12441 1.0531-0.12443 1.0053-0.12445 0.90955-0.16588 0.86166-0.16595 0.71805-0.20742 0.62233-0.16591 0.4787c-0.0417 0-0.0417 0.0478-0.0417 0.0958l-0.20739 0.33512c-0.0417 0-0.0417 0.0478-0.0829 0.0956l-0.20741 0.19152c-0.0415 0.0957-0.12442 0.14361-0.20736 0.14361l-0.20742 0.0957h-0.12443-60.225 0.16589l-0.20739 0.0478 0.20739-0.1436-0.20739 0.23934 0.0829-0.0958-0.20738 0.3351 0.0416-0.0956-0.16595 0.43081-0.1659 0.52658-0.1659 0.67019-0.12445 0.76589-0.16591 0.8617-0.12441 0.95739-0.083 1.1009-0.12444 1.101-0.0831 1.1966-0.12441 2.585-0.0415 2.7765z" stroke="#000" stroke-width=".044560px"/>
  <path id="path3422" stroke-linejoin="round" d="m107.27 579.91c0-0.39307 0.31385-0.68272 0.69046-0.68272h22.764c0.39751 0 0.71138 0.28965 0.71138 0.68272v28.693c0 0.37236-0.31387 0.68268-0.71138 0.68268h-22.764c-0.37661 0-0.69046-0.31032-0.69046-0.68268zm1.4018 28.693-0.71139-0.68271h22.764l-0.69045 0.68271v-28.693l0.69045 0.68272h-22.764l0.71139-0.68272z" stroke="#000" stroke-width=".020804px"/>
  <text id="text3424" font-size="30.502px" xml:space="preserve" transform="scale(1.0622 .94140)" y="642.59869" x="105.63912" font-family="Arial" fill="#ffffff">º</text>
  <path id="path3426" stroke-linejoin="round" d="m130.44 579.91c0-0.39306 0.30856-0.68271 0.67883-0.68271h22.38c0.37024 0 0.67879 0.28965 0.67879 0.68271v28.694c0 0.37238-0.30855 0.68268-0.67879 0.68268h-22.38c-0.37027 0-0.67883-0.3103-0.67883-0.68268zm1.3782 28.694-0.69935-0.68271h22.38l-0.67882 0.68271v-28.694l0.67882 0.68273h-22.38l0.69935-0.68273z" stroke="#000" stroke-width=".020628px"/>
  <path id="path3428" stroke-linejoin="round" d="m152.82 579.91c0-0.39308 0.30619-0.6827 0.67364-0.6827h22.209c0.36744 0 0.67365 0.28962 0.67365 0.6827v28.694c0 0.37236-0.30621 0.68266-0.67365 0.68266h-22.209c-0.36745 0-0.67364-0.3103-0.67364-0.68266zm1.3472 28.694-0.67363-0.68271h22.209l-0.67361 0.68271v-28.694l0.67361 0.68273h-22.209l0.67363-0.68273z" stroke="#000" stroke-width=".020550px"/>
  <path id="path3430" stroke-linejoin="round" d="m222.56 579.91c0-0.39307 0.31271-0.68272 0.68799-0.68272h22.683c0.37527 0 0.68795 0.28965 0.68795 0.68272v28.694c0 0.3724-0.31268 0.68269-0.68795 0.68269h-22.683c-0.37528 0-0.68799-0.31029-0.68799-0.68269zm1.3968 28.694-0.70886-0.6827h22.682l-0.68797 0.6827v-28.694l0.68797 0.68272h-22.682l0.70886-0.68272z" stroke="#000" stroke-width=".020768px"/>
  <path id="path3432" stroke-linejoin="round" d="m245.3 579.91c0-0.39305 0.31663-0.68269 0.69663-0.68269h22.967c0.37995 0 0.69661 0.28964 0.69661 0.68269v28.693c0 0.37235-0.31666 0.68266-0.69661 0.68266h-22.967c-0.38 0-0.69663-0.31031-0.69663-0.68266zm1.3931 28.693-0.69662-0.68271h22.967l-0.71771 0.68271v-28.693l0.71771 0.68272h-22.967l0.69662-0.68272z" stroke="#000" stroke-width=".020897px"/>
  <text id="text3434" font-size="16.948px" xml:space="preserve" transform="scale(1.0622 .94140)" line-height="125%" y="637.20819" x="106.13403" font-family="Arial" fill="#000000"><tspan id="tspan3657" font-size="16.948px" line-height="125%" y="637.20819" x="106.13403" font-family="Arial">C</tspan></text>
  <text id="text3436" font-size="16.948px" xml:space="preserve" transform="scale(1.0622 .94140)" line-height="125%" y="637.20819" x="128.28784" font-family="Arial" fill="#000000"><tspan id="tspan3655" font-size="16.948px" line-height="125%" y="637.20819" x="128.28784" font-family="Arial">V</tspan></text>
  <text id="text3438" font-size="16.948px" xml:space="preserve" transform="scale(1.0622 .94140)" line-height="125%" y="637.20819" x="149.0007" font-family="Arial" fill="#000000"><tspan id="tspan3653" font-size="16.948px" line-height="125%" y="637.20819" x="149.0007" font-family="Arial">N</tspan></text>
  <text id="text3440" font-size="16.948px" xml:space="preserve" transform="scale(1.0622 .94140)" line-height="125%" y="637.20819" x="218.83899" font-family="Arial" fill="#000000">I</text>
  <text id="text3442" font-size="16.948px" xml:space="preserve" transform="scale(1.0622 .94140)" line-height="125%" y="637.61102" x="236.61597" font-family="Arial" fill="#000000">U</text>
  <path id="path3444" stroke-linejoin="round" d="m198.65 579.91c0-0.39315 0.14433-0.68283 0.34023-0.68283h24.126c0.19588 0 0.35057 0.28968 0.35057 0.68283v28.699c0 0.37245-0.15469 0.68281-0.35057 0.68281h-24.126c-0.1959 0-0.34023-0.31036-0.34023-0.68281zm0.68045 28.699-0.34024-0.68284h24.126l-0.34024 0.68284v-28.699l0.34024 0.68288h-24.126l0.34024-0.68288z" stroke="#000" stroke-width=".014605px"/>
  <text id="text3446" font-size="14.16px" xml:space="preserve" transform="scale(1.0534 .94929)" line-height="125%" y="656.2804" x="105.33327" font-family="Arial" fill="#000000">31</text>
  <text id="text3448" font-size="14.16px" xml:space="preserve" transform="scale(1.0534 .94929)" line-height="125%" y="656.2804" x="127.44167" font-family="Arial" fill="#000000">30</text>
  <text id="text3450" font-size="14.16px" xml:space="preserve" transform="scale(1.0534 .94929)" line-height="125%" y="656.2804" x="148.95403" font-family="Arial" fill="#000000">29</text>
  <text id="text3452" font-size="14.16px" xml:space="preserve" transform="scale(1.0534 .94929)" line-height="125%" y="655.64667" x="219.09953" font-family="Arial" fill="#000000">1</text>
  <text id="text3454" font-size="16.735px" xml:space="preserve" transform="matrix(-.010205 -1.0382 .96308 -.0091961 0 0)" line-height="125%" y="299.08752" x="-557.64935" font-family="Arial" fill="#000000"><tspan id="tspan14887" font-size="16.735px" line-height="125%" y="299.08752" x="-557.64935" font-family="Arial">MRdy</tspan></text>
  <text id="text3456" font-size="16.735px" xml:space="preserve" transform="matrix(-.030851 -1.0378 .96272 -.027801 0 0)" line-height="125%" y="313.96851" x="-580.05133" font-family="Arial" fill="#000000"><tspan id="tspan14885" font-size="16.735px" line-height="125%" y="313.96851" x="-580.05133" font-family="Arial">IORdy</tspan></text>
  <text id="text3458" font-size="16.735px" xml:space="preserve" transform="matrix(-.011961 -1.0382 .96307 -.010778 0 0)" line-height="125%" y="351.2251" x="-548.00763" font-family="Arial" fill="#000000"><tspan id="tspan14889" font-size="16.735px" line-height="125%" y="351.2251" x="-548.00763" font-family="Arial">INT</tspan></text>
  <text id="text3460" font-size="15.448px" xml:space="preserve" transform="scale(1.0534 .94929)" line-height="125%" y="527.63458" x="153.26509" font-family="Arial" fill="#000000">7</text>
  <text id="text3462" font-size="15.448px" xml:space="preserve" transform="scale(1.0534 .94929)" line-height="125%" y="527.63452" x="173.89688" font-family="Arial" fill="#000000">6</text>
  <text id="text3464" font-size="15.448px" xml:space="preserve" transform="scale(1.0534 .94929)" line-height="125%" y="527.90161" x="219.64157" font-family="Arial" fill="#000000">5</text>
  <text id="text3466" font-size="15.448px" xml:space="preserve" transform="scale(1.0534 .94929)" line-height="125%" y="527.63452" x="241.28764" font-family="Arial" fill="#000000">4</text>
  <text id="text3468" font-size="15.448px" xml:space="preserve" transform="scale(1.0534 .94929)" line-height="125%" y="527.63458" x="269.92422" font-family="Arial" fill="#000000">3</text>
  <text id="text3470" font-size="15.448px" xml:space="preserve" transform="scale(1.0534 .94929)" line-height="125%" y="527.63458" x="295.23587" font-family="Arial" fill="#000000">2</text>
  <text id="text3472" font-size="15.448px" xml:space="preserve" transform="scale(1.0534 .94929)" line-height="125%" y="527.63458" x="317.65729" font-family="Arial" fill="#000000">1</text>
  <text id="text3474" font-size="15.448px" xml:space="preserve" transform="scale(1.0534 .94929)" line-height="125%" y="527.63458" x="338.29364" font-family="Arial" fill="#000000">0</text>
  <text id="text3476" font-size="15.448px" xml:space="preserve" transform="scale(1.0534 .94929)" line-height="125%" y="527.63458" x="131.60178" font-family="Arial" fill="#000000">8</text>
  <path id="path3480" stroke-linejoin="round" d="m236.53 579.41v-66.333h-1.7525v66.333h1.7525zm4.4347-65.008-5.311-7.9013-5.3109 7.9013h10.621z" stroke="#000" stroke-width=".022903px"/>
  <path id="path3482" stroke-linejoin="round" d="m259.2 579.41v-66.333h-1.7791v66.333h1.7791zm4.4082-65.008-5.3109-7.9013-5.3108 7.9013h10.622z" stroke="#000" stroke-width=".022903px"/>
  <path id="path3484" stroke-linejoin="round" d="m143.67 579.66v-66.307h-1.7791v66.307h1.7791zm4.4083-65.004-5.3108-7.9008-5.311 7.9008h10.622z" stroke="#000" stroke-width=".022903px"/>
  <path id="path3486" stroke-linejoin="round" d="m166.18 579.66v-66.307h-1.7791v66.307h1.7791zm4.4083-65.004-5.3109-7.9008-5.311 7.9008h10.622z" stroke="#000" stroke-width=".022903px"/>
  <path id="path3488" stroke-linejoin="round" d="m188.37 579.75v-66.333h-1.7525v66.333h1.7525zm4.4347-65.008-5.3108-7.9013-5.311 7.9013h10.621z" stroke="#000" stroke-width=".022903px"/>
  <path id="path3490" stroke-linejoin="round" d="m649.79 516.13v31.27h-1.7526v-31.27h1.7526zm4.461 29.768-5.311 9.0895-5.3109-9.0895h10.622z" stroke="#000" stroke-width=".049129px"/>
  <path id="path3492" stroke-linejoin="round" d="m554.64 519.27v30.055h-1.7792v-30.055h1.7792zm4.408 28.615-5.3109 8.7374-5.311-8.7374h10.621z" stroke="#000" stroke-width=".024085px"/>
  <path id="path3494" stroke-linejoin="round" d="m456.1 519.44v29.854h-1.7792v-29.854h1.7792zm4.4349 28.423-5.3112 8.6781-5.3112-8.6781h10.623z" stroke="#000" stroke-width=".024003px"/>
  <path id="path3500" stroke-linejoin="round" d="m151.79 225.48h438.81v1.4518h-438.81z" stroke="#000" stroke-width=".024718px"/>
  <path id="path3502" stroke-linejoin="round" d="m869.06 618.25-0.11909-98.015 1.3326-0.0354 0.11911 98.014z" stroke="#000" stroke-width=".069040px"/>
  <path id="path3504" stroke-linejoin="round" d="m119.22 106.81h111.43v1.5918h-111.43v-1.5918zm110.33-3.9855 6.5385 4.7874-6.5385 4.7874v-9.5748z" stroke="#000" stroke-width=".0098905px"/>
  <path id="path3118-3" stroke-linejoin="round" d="m432.69 179.85v-16.679h-1.7791v16.679h1.7791zm4.408-15.075-5.3109-9.5721-5.3109 9.5721h10.622z" stroke="#000" stroke-width=".025209px"/>
  <g id="g4875" stroke-linejoin="round" transform="matrix(.82724 0 0 1.1671 108.92 -6.0774)" stroke="#000" stroke-width=".043902px">
   <path id="path3042-5" d="m358.27 176.57h12.482v1.0923h-12.482z"/>
   <path id="path3044-3" d="m384.56 176.57h12.483v1.0923h-12.483z"/>
   <path id="path3046-8" d="m409.52 176.57h12.483v1.0923h-12.483z"/>
   <path id="path3048-7" d="m371.07 163.72h13.454v1.0923h-13.454z"/>
   <path id="path3050-6" d="m371.62 177.48v-13.588h-1.1028v13.588z"/>
   <path id="path3052-7" d="m384.73 177.48v-13.938h-1.1028v13.938z"/>
   <path id="path3054-4" d="m397.2 177.48v-13.938h-1.1028v13.938z"/>
   <path id="path3056-8" d="m410.66 177.14v-13.588h-1.1027v13.588z"/>
   <path id="path3058-1" d="m396.38 163.72h13.763v1.0923h-13.763z"/>
  </g>
  <path id="path3100-8" stroke-linejoin="round" d="m118.62 106.95-0.16584 150.09h1.3865l0.16584-150.09z" stroke="#000" stroke-width=".016597px"/>
  <path id="path3100-9" stroke-linejoin="round" d="m479.94 29.146-0.15935 74.464h1.3278l0.15935-74.464z" stroke="#000" stroke-width=".011442px"/>
  <text id="text3172-1" font-size="18.666px" xml:space="preserve" transform="scale(1.0534 .94929)" line-height="125%" y="393.74762" x="465.41074" font-family="Arial" fill="#000000"><tspan id="tspan4412" font-size="18.666px" line-height="125%" y="393.74762" x="465.41074" font-family="Arial">MR</tspan></text>
  <path id="path3180-5" stroke-linejoin="round" d="m483.82 349.9c0-0.43087 0.22174-0.81387 0.53846-0.81387h43.138c0.28505 0 0.50676 0.383 0.50676 0.81387v33.369c0 0.43086-0.22171 0.81387-0.50676 0.81387h-43.138c-0.31672 0-0.53846-0.38301-0.53846-0.81387zm1.0452 33.369-0.50677-0.81392h43.138l-0.53842 0.81392v-33.369l0.53842 0.81388h-43.138l0.50677-0.81388z" stroke="#000" stroke-width=".038939px"/>
  <text id="text3172-1-5" font-size="18.666px" xml:space="preserve" transform="scale(1.0534 .94929)" line-height="125%" y="393.74762" x="699.22919" font-family="Arial" fill="#000000"><tspan id="tspan4435" font-size="18.666px" line-height="125%" y="393.74762" x="699.22919" font-family="Arial">MC</tspan></text>
  <path id="path3180-5-7" stroke-linejoin="round" d="m730.15 349.82c0-0.43089 0.21424-0.8139 0.52025-0.8139h41.68c0.27546 0 0.48963 0.38301 0.48963 0.8139v33.37c0 0.43091-0.21417 0.81389-0.48963 0.81389h-41.68c-0.30601 0-0.52025-0.38298-0.52025-0.81389zm1.0098 33.37-0.48959-0.8139h41.68l-0.5202 0.8139v-33.37l0.5202 0.81389h-41.68l0.48959-0.81389z" stroke="#000" stroke-width=".038276px"/>
  <text id="text4138" font-size="16.27px" xml:space="preserve" transform="scale(1.1208 .89221)" line-height="125%" y="198.71117" x="394.52921" font-family="Arial" fill="#000000"><tspan id="tspan4140" y="198.71117" x="394.52921">CLK</tspan></text>
  <path id="path3310-3" stroke-linejoin="round" d="m836.41 349.76c0-0.43066 0.51638-0.81343 1.1804-0.81343h69.71c0.66395 0 1.2541 0.38277 1.2541 0.81343v33.351c0 0.43063-0.5901 0.81341-1.2541 0.81341h-69.71c-0.66394 0-1.1804-0.38278-1.1804-0.81341zm1.7887 33.406-0.60837-0.86994h69.71l0.0376 0.53463-0.27066-32.793 0.23306 0.53463h-69.71l0.66706-0.70034z" stroke="#000" stroke-width=".059414px"/>
  <text id="text3312-6" font-size="16.735px" xml:space="preserve" transform="scale(1.0534 .94929)" line-height="125%" y="392.2511" x="799.31281" font-family="Arial" fill="#000000"><tspan id="tspan3945" font-size="16.735px" line-height="125%" y="392.2511" x="799.31281" font-family="Arial">ExCode</tspan></text>
  <path id="path3324-5" stroke-linejoin="round" d="m875.23 455.41-14.288 9.5243 0.79674 0.95723 14.288-9.4764z" stroke="#000" stroke-width=".050417px"/>
  <text id="text3330-3" font-size="13.513px" xml:space="preserve" transform="scale(1.0534 .94929)" y="482.95267" x="813.85236" font-family="Arial" fill="#000000">4</text>
  <path id="path3131-3" stroke-linejoin="round" d="m879.54 507.55c0.29883 0 0.55166 0.15083 0.68958 0.38789 0.115 0.237 0.0919 0.51709-0.0689 0.73258l-10.159 13.294c-0.13793 0.19392-0.39073 0.30164-0.62058 0.30164-0.25278 0-0.48267-0.10784-0.62058-0.30164l-10.182-13.294c-0.1609-0.21549-0.18389-0.49558-0.0462-0.73258 0.11501-0.23706 0.39074-0.38789 0.66656-0.38789zm-20.341 1.4221 0.62056-1.1419 10.182 13.294h-1.2413l10.159-13.294 0.62054 1.1419z" stroke="#000" stroke-width=".022255px"/>
  <path id="path3133-6" stroke-linejoin="round" d="m889.11 515.44h-14.731v-1.0774h14.731z" stroke="#000" stroke-width="1.2063px"/>
  <path id="path3139-7" stroke-linejoin="round" d="m868.2 485.42v16.534h1.5402v-16.534h-1.5402zm-3.8163 15.314 4.5977 7.2751 4.5978-7.2751h-9.1955z" stroke="#000" stroke-width=".020449px"/>
  <text id="text3147-5" font-size="18.022px" xml:space="preserve" transform="scale(1.0328 .96827)" y="521.22284" x="851.00531" font-family="Arial" line-height="125%" fill="#000000"><tspan id="tspan4426" font-size="18.022px" line-height="125%" y="521.22284" x="851.00531" font-family="Arial">T11</tspan></text>
  <path id="path3081-3" stroke-linejoin="round" d="m869.72 502.61v-118.75h-1.3794v118.75z" stroke="#000" stroke-width=".036142px"/>
  <path id="path3428-3" stroke-linejoin="round" d="m175.46 580c0-0.3931 0.3038-0.68272 0.66835-0.68272h22.036c0.36458 0 0.66835 0.28962 0.66835 0.68272v28.694c0 0.37239-0.30377 0.68271-0.66835 0.68271h-22.036c-0.36455 0-0.66835-0.31032-0.66835-0.68271zm1.3367 28.694-0.66837-0.6827h22.036l-0.66835 0.6827v-28.694l0.66835 0.68267h-22.036l0.66837-0.68267z" stroke="#000" stroke-width=".020469px"/>
  <text id="text3438-6" font-size="16.948px" xml:space="preserve" transform="scale(1.0622 .94140)" line-height="125%" y="637.32086" x="171.49374" font-family="Arial" fill="#000000">Z</text>
  <text id="text3450-7" font-size="14.16px" xml:space="preserve" transform="scale(1.0534 .94929)" line-height="125%" y="656.39215" x="170.85411" font-family="Arial" fill="#000000"><tspan id="tspan3651" font-size="14.16px" line-height="125%" y="656.39215" x="170.85411" font-family="Arial">28</tspan></text>
  <text id="text3476-8" font-size="15.448px" xml:space="preserve" transform="scale(1.0534 .94929)" line-height="125%" y="527.32098" x="110.47144" font-family="Arial" fill="#000000"><tspan id="tspan3677" font-size="15.448px" line-height="125%" y="527.32098" x="110.47144" font-family="Arial">9</tspan></text>
  <path id="path3484-9" stroke-linejoin="round" d="m121.14 579.63v-66.307h-1.7791v66.307h1.7791zm4.4083-65.004-5.3108-7.9008-5.3109 7.9008h10.622z" stroke="#000" stroke-width=".022903px"/>
  <text id="text3476-8-6" font-size="15.448px" xml:space="preserve" transform="scale(1.0534 .94929)" line-height="125%" y="527.58813" x="83.444572" font-family="Arial" fill="#000000"><tspan id="tspan3700" font-size="15.448px" line-height="125%" y="527.58813" x="83.444572" font-family="Arial">10</tspan></text>
  <path id="path3108-3" stroke-linejoin="round" d="m99.239 533.18v-19.504h-1.7792v19.504h1.7792zm4.4347-18.144-5.3109-8.1181-5.3109 8.1181h10.622z" stroke="#000" stroke-width=".023213px"/>
  <path id="path3260-3" stroke-linejoin="round" d="m55.347 533.26 0.80221-248.7-0.97821-0.0424-0.80215 248.78z" stroke="#000" stroke-width=".28845px"/>
  <path id="path3020" stroke-linejoin="round" d="m78.908 362.14c0-0.35019 0.38273-0.64201 0.84202-0.64201h147.58c0.48486 0 0.86757 0.29182 0.86757 0.64201v26.987c0 0.36966-0.38271 0.64203-0.86757 0.64203h-147.58c-0.4593 0-0.84202-0.27237-0.84202-0.64203zm1.7096 26.987-0.86754-0.64205h147.58l-0.84199 0.64205v-26.987l0.84199 0.64204h-147.58l0.86754-0.64204z" stroke="#000" stroke-width=".022281px"/>
  <text id="text3030" font-size="23.127px" xml:space="preserve" transform="scale(1.0326 .96846)" line-height="125%" y="305.67923" x="100.01141" font-family="Arial" fill="#000000"><tspan id="tspan4390" y="305.67923" x="100.01141">co2µaddr</tspan></text>
  <path id="path3032" opacity=".325" stroke-linejoin="round" d="m78.995 362.14c0-0.35023 0.29798-0.64207 0.67543-0.64207h44.976c0.37748 0 0.65556 0.29184 0.65556 0.64207v26.989c0 0.36971-0.27808 0.64209-0.65556 0.64209h-44.976c-0.37744 0-0.67543-0.27238-0.67543-0.64209zm1.331 26.989-0.65557-0.6421h44.976l-0.65554 0.6421v-26.989l0.65554 0.64209h-44.976l0.65557-0.64209z" stroke="#000" stroke-dasharray="0.02008004, 0.0401601" stroke-width=".020080"/>
  <text id="text3034" font-size="12.929px" xml:space="preserve" transform="scale(1.0326 .96846)" line-height="125%" y="348.85522" x="109.85925" font-family="Arial" fill="#000000">CO</text>
  <text id="text3036" font-size="20.597px" line-height="125%" transform="scale(1.0326 .96846)" y="445.6265" x="110.17467" font-family="Arial" xml:space="preserve" fill="#000000">IR</text>
  <path id="path3478" stroke-linejoin="round" d="m81.298 391.9 0.0491 2.4937 0.14742 2.3201 0.09831 1.0842 0.09832 1.0191 0.14741 0.97579 0.14742 0.889 0.1721 0.80226 0.1721 0.73723 0.19677 0.6288 0.22122 0.56378 0.24584 0.45534c0 0.0218 0.02442 0.0435 0.02442 0.065l0.22124 0.30353c0.0491 0.0434 0.0739 0.0869 0.123 0.10855l0.22127 0.19513c0.07389 0.0435 0.14741 0.0868 0.22124 0.10855l0.24583 0.065c0.0491 0.0218 0.12298 0.0218 0.1721 0.0218h66.914l-0.19654-0.0218 0.24583 0.065-0.2213-0.10843 0.2213 0.17347-0.098-0.10843 0.22123 0.30353 0.1721 0.34695 0.17211 0.45533 0.19658 0.60713 0.17204 0.6722 0.14744 0.7806 0.14746 0.84564 0.1474 0.93238 0.098 0.99743 0.0979 1.0625 0.14742 2.2984 0.0243 2.4501c0.0241 0.30354 0.29499 0.54206 0.61455 0.54206 0.34416 0 0.61457-0.23852 0.61457-0.54206l0.0494-2.4717 0.14743-2.2768 0.098-1.0625 0.098-1.0191 0.14743-0.91069 0.14742-0.86732 0.17208-0.78057 0.14744-0.69388 0.19677-0.58545 0.19657-0.47704 0.19656-0.36862-0.0494 0.065 0.22119-0.30356-0.0979 0.10842 0.22123-0.17349-0.22123 0.10844 0.22123-0.065-0.17212 0.0216h66.914c0.0738 0 0.12291 0 0.1721-0.0216l0.24583-0.065c0.0738-0.0217 0.14739-0.065 0.22121-0.10844l0.24586-0.1951c0.0246-0.0218 0.0737-0.065 0.098-0.10842l0.22125-0.30354c0.0242-0.0218 0.0242-0.0435 0.0494-0.065l0.19674-0.41199 0.24582-0.56375 0.19658-0.65048 0.17213-0.73721 0.17207-0.82399 0.17211-0.86732 0.12295-0.97575 0.12294-1.0191 0.098-1.0842 0.12293-2.3202 0.0494-2.5153h-1.2292l-0.0494 2.4502-0.12294 2.2984-0.0979 1.0625-0.098 0.99738-0.14738 0.93241-0.14744 0.86736-0.14743 0.75894-0.1721 0.69381-0.19657 0.56377-0.1721 0.47701-0.22124 0.41201 0.0494-0.065-0.22124 0.30355 0.098-0.10831-0.22124 0.17348 0.22124-0.10855-0.24585 0.065 0.19657-0.0218h-66.914c-0.0737 0-0.12292 0-0.19654 0.0218l-0.22121 0.065c-0.0739 0.0218-0.17215 0.065-0.22132 0.10842l-0.24581 0.19513c-0.0242 0.0218-0.0738 0.065-0.0979 0.10855l-0.22128 0.30356c-0.0242 0.0218-0.0242 0.0435-0.0494 0.065l-0.22126 0.45537-0.22125 0.56376-0.19654 0.65049-0.19655 0.71555-0.14742 0.80229-0.17211 0.88899-0.12295 0.97576-0.12292 1.0192-0.098 1.0842-0.14742 2.3418-0.0494 2.4718h1.2292l-0.0494-2.4937-0.12295-2.3417-0.098-1.0625-0.12293-1.0408-0.12291-0.95408-0.14744-0.91068-0.19679-0.80226-0.17211-0.73723-0.19655-0.62882-0.22123-0.58547-0.27047-0.47701-0.2212-0.30357c-0.0241-0.0435-0.0737-0.0867-0.0979-0.10855l-0.24583-0.19512c-0.074-0.0435-0.1474-0.0867-0.22124-0.10843l-0.24586-0.065c-0.0493-0.0217-0.098-0.0217-0.17211-0.0217h-66.914l0.19657 0.0217-0.24584-0.065 0.24584 0.10853-0.24584-0.17347 0.09832 0.10843-0.22122-0.30357 0.0491 0.065-0.17209-0.36861-0.19658-0.47705-0.19678-0.58542-0.1721-0.69389-0.14742-0.78057-0.1721-0.84563-0.12299-0.93244-0.123-1.0191-0.09831-1.0408-0.123-2.2984-0.0491-2.4718z" stroke="#000" stroke-width=".023088px"/>
  <path id="path3022-6" stroke-linejoin="round" d="m84.181 316.55c0 0.19966 0.52545 0.36155 1.1736 0.36155h139.12c0.64808 0 1.1736-0.16189 1.1736-0.36155v-59.204c0-0.19968-0.52539-0.36162-1.1736-0.36162h-139.12c-0.64806 0-1.1736 0.16194-1.1736 0.36162zm2.347-59.204-1.1736 0.36162h139.12l-1.1735-0.36162v59.204l1.1735-0.36163h-139.12l1.1736 0.36163z" stroke="#000" stroke-width=".0097228px"/>
  <path id="path3110-0" stroke-linejoin="round" d="m114.3 343.68-16.585 12.009 0.79349 0.9599 16.557-12.014z" stroke="#000" stroke-width=".024710px"/>
  <text id="text3112-0" font-size="13.246px" xml:space="preserve" transform="scale(1.0326 .96846)" y="361.05652" x="91.358421" font-family="Arial" line-height="125%" fill="#000000"><tspan id="tspan6982">6</tspan></text>
  <path id="path3124-2" stroke-linejoin="round" d="m205.96 362.63v-36.217h1.6524v36.217h-1.6524zm-4.1067-34.371 4.933-11.106 4.933 11.106h-9.8659z" stroke="#000" stroke-width=".013083px"/>
  <path id="path3124-2-4" stroke-linejoin="round" d="m105.32 362.63v-36.217h1.6525v36.217h-1.6525zm-4.1066-34.371 4.933-11.106 4.933 11.106h-9.8659z" stroke="#000" stroke-width=".013083px"/>
  <text id="text3112-0-4" font-size="13.246px" xml:space="preserve" transform="scale(1.0326 .96846)" y="360.99515" x="189.19431" font-family="Arial" fill="#000000">4</text>
  <path id="path3110-0-7" stroke-linejoin="round" d="m214.88 344.56-17.045 11.376 0.75496 0.98899 17.018-11.383z" stroke="#000" stroke-width=".024710px"/>
  <path id="path3260-3-8" stroke-linejoin="round" d="m55.193 284.54 30.299-0.19639-0.0088-1.4598-30.307 0.19688z" stroke="#000" stroke-width=".012299px"/>
  <path id="path3260-3-8-6" stroke-linejoin="round" d="m54.213 534.3 45.006-0.19615-0.01333-1.4581-45.018 0.19656z" stroke="#000" stroke-width=".014982px"/>
  <text id="text3038-0" font-size="16.735px" xml:space="preserve" transform="scale(1.0495 .95279)" line-height="125%" y="578.65967" x="54.962479" font-family="Arial" fill="#000000"><tspan id="tspan3777" font-size="16.735px" line-height="125%" y="578.65967" x="54.962479" font-family="Arial">InEx</tspan></text>
  <path id="path3232-6" stroke-linejoin="round" d="m807.46 429.19v-45.533h-1.3334v45.533z" stroke="#000" stroke-width=".044929px"/>
  <path id="path3100-8-7" stroke-linejoin="round" d="m286.64 397.47-0.16649 61.41h1.3924l0.16646-61.41z" stroke="#000" stroke-width=".010639px"/>
  <path id="path3108-1" stroke-linejoin="round" d="m288.12 397.66-0.2989-57.337-1.478-0.72763v58.066zm3.6815-57.072-4.5568-11.318-4.2578 11.136z" stroke="#000" stroke-width=".037436px"/>
  <path id="path3198-7" fill-rule="evenodd" d="m284.56 389.15c0-1.5323 1.1417-2.7636 2.5223-2.7636 1.4072 0 2.5222 1.2313 2.5222 2.7636 0 1.5048-1.1151 2.7362-2.5222 2.7362-1.3807 0-2.5223-1.2313-2.5223-2.7362"/>
  <path id="path3200-1" stroke-linejoin="round" d="m282.82 387.13v-0.35565l0.0536-0.54727c0.0263-0.1095 0.0263-0.21891 0.0793-0.35571l0.13282-0.4925c0.0263-0.10949 0.0794-0.19156 0.1063-0.301l0.23895-0.46517c0.0537-0.10949 0.1063-0.21888 0.1858-0.32835l0.31864-0.41039 0.21239-0.21892 0.3717-0.32836c0.10652-0.082 0.21242-0.16416 0.31865-0.24623l0.42478-0.24624c0.0793-0.0546 0.18586-0.0822 0.29204-0.13689l0.47792-0.16417c0.13274-0.0273 0.26547-0.0546 0.3717-0.0818l0.50447-0.0546h0.37169l0.50447 0.0546c0.13273 0.0272 0.2655 0.0546 0.39827 0.0818l0.47787 0.16417c0.10631 0.0546 0.18586 0.082 0.29207 0.13689l0.42481 0.24624c0.10629 0.0819 0.21239 0.16416 0.31859 0.24623l0.37171 0.32836c0.0794 0.0823 0.13278 0.13686 0.2124 0.21892l0.31861 0.41039c0.0534 0.10949 0.13277 0.21894 0.18588 0.32835l0.23892 0.46517c0.0263 0.10949 0.0792 0.19154 0.10629 0.301l0.13275 0.4925c0.0536 0.13687 0.0536 0.24626 0.0795 0.35571l0.0536 0.54727v0.35565l-0.0536 0.57461c-0.0263 0.10949-0.0263 0.21889-0.0795 0.32835l-0.13275 0.51989c-0.0263 0.10949-0.0795 0.19155-0.10629 0.30098l-0.23892 0.46515c-0.0533 0.1095-0.13276 0.21885-0.18588 0.32832l-0.31861 0.41045c-0.0792 0.082-0.13277 0.13682-0.2124 0.2189l-0.37171 0.32833c-0.1061 0.082-0.21239 0.16419-0.31859 0.24626l-0.42481 0.24625c-0.10642 0.0546-0.18588 0.0822-0.29207 0.13685l-0.47787 0.1642c-0.13277 0.0273-0.26555 0.0546-0.39827 0.082l-0.50447 0.0546h-0.37169l-0.50447-0.0546c-0.10641-0.0274-0.23897-0.0546-0.3717-0.082l-0.47792-0.1642c-0.1063-0.0546-0.21235-0.0819-0.29204-0.13685l-0.42478-0.24625c-0.10621-0.082-0.21242-0.16413-0.31865-0.24626l-0.3717-0.32833-0.21239-0.2189-0.31864-0.41045c-0.0793-0.10949-0.13272-0.21887-0.1858-0.32832l-0.23895-0.46515c-0.0263-0.10949-0.0792-0.19155-0.1063-0.30098l-0.13282-0.51989c-0.0534-0.10949-0.0534-0.21888-0.0793-0.32835zm3.5843 0.21893-0.0794-0.35571 0.15928 0.51987-0.1062-0.30098 0.21238 0.46514-0.18584-0.32832 0.31857 0.41042-0.21238-0.21891 0.37171 0.35574-0.31858-0.24629 0.42479 0.24629-0.29207-0.13686 0.47791 0.16416-0.39827-0.0818 0.5045 0.0546h-0.37172l0.50443-0.0546-0.37167 0.0818 0.47789-0.16416-0.29208 0.13686 0.42484-0.24629-0.3186 0.24629 0.37171-0.35574-0.21242 0.21891 0.31859-0.41042-0.18587 0.32832 0.21246-0.46514-0.10631 0.30098 0.15934-0.51987-0.0795 0.35571 0.0534-0.57458v0.35565l-0.0534-0.54723 0.0795 0.32837-0.15934-0.49252 0.10631 0.30095-0.21246-0.46512 0.18587 0.32832-0.31859-0.41041 0.21242 0.21888-0.37171-0.35567 0.3186 0.24625-0.42484-0.24625 0.29208 0.13682-0.47789-0.16419 0.37167 0.082-0.50443-0.0546h0.37172l-0.5045 0.0546 0.39827-0.082-0.47791 0.16419 0.29207-0.13682-0.42479 0.24625 0.31858-0.24625-0.37171 0.35567 0.21238-0.21888-0.31857 0.41041 0.18584-0.32832-0.21238 0.46512 0.1062-0.30095-0.15928 0.49252 0.0794-0.32837-0.0534 0.54723v-0.35565z" stroke="#000" stroke-width=".026953px"/>
  <text id="text3146-9" font-size="16.737px" xml:space="preserve" transform="matrix(.0044752 -.93613 1.0682 .0040329 0 0)" line-height="125%" y="433.67728" x="-547.12036" font-family="Arial" fill="#000000"><tspan id="tspan4821" y="433.67728" x="-547.12036">Sel RA</tspan></text>
  <text id="text3146-9-5" font-size="16.737px" xml:space="preserve" transform="matrix(-.0076389 -.93610 1.0682 -.0068839 0 0)" line-height="125%" y="519.71558" x="-550.72388" font-family="Arial" fill="#000000"><tspan id="tspan4823" y="519.71558" x="-550.72388">Sel RB</tspan></text>
  <text id="text3146-9-9" font-size="16.737px" xml:space="preserve" transform="matrix(.0099463 -.93607 1.0682 .0089633 0 0)" line-height="125%" y="618.06262" x="-541.14825" font-family="Arial" fill="#000000"><tspan id="tspan4825" y="618.06262" x="-541.14825">Sel RC</tspan></text>
  <text id="text3350-3" font-size="15.448px" xml:space="preserve" transform="scale(1.0534 .94929)" line-height="125%" y="599.43176" x="611.99493" font-family="Arial" fill="#000000">0</text>
  <text id="text3352-3" font-size="15.448px" xml:space="preserve" transform="scale(1.0534 .94929)" line-height="125%" y="599.71826" x="639.13452" font-family="Arial" fill="#000000">1</text>
  <path id="path3094-7" opacity=".75" stroke-linejoin="round" d="m287.14 458.26v-117.93h-1.7783v117.93h1.7783zm4.4059-115.6-5.3083-14.158-5.3084 14.158h10.616z" stroke="#000" stroke-width=".030650px"/>
  <path id="path3498-6" stroke-linejoin="round" d="m363.9 307.23h74.535v1.196h-74.535z" stroke="#000" stroke-width=".025821px"/>
  <path id="path3138-8" stroke-linejoin="round" d="m438.75 348.46v-41.192h-1.3365v41.192z" stroke="#000" stroke-width=".016828px"/>
  <path id="path3138-8-1" stroke-linejoin="round" d="m469.65 349.11v-94.11h-1.3284v94.11z" stroke="#000" stroke-width=".025359px"/>
  <path id="path3124-7" stroke-linejoin="round" d="m376.54 370.11h17.005v1.604h-17.005v-1.604zm16.139-3.9861 5.214 4.7881-5.214 4.7881v-9.5763z" stroke="#000" stroke-width=".0088330px"/>
  <text id="text4138-7" font-size="16.735px" xml:space="preserve" transform="scale(1.1208 .89221)" line-height="125%" y="410.33167" x="317.17639" font-family="Arial" fill="#000000"><tspan id="tspan4140-2" font-size="16.735px" line-height="125%" y="410.33167" x="317.17639" font-family="Arial">CLK</tspan></text>
  <path id="path3194-0" stroke-linejoin="round" d="m366.19 307.02-14.3 0.0717v1.6031l14.3-0.072v-1.6031zm-12.378-3.9239-11.757 4.8575 11.847 4.7137-0.0885-9.571z" stroke="#000" stroke-width=".026588px"/>
  <path id="path3124-2-5" stroke-linejoin="round" d="m334.13 255.72v-49h1.6521v49h-1.6521zm-4.1056-46.501 4.9319-15.024 4.9319 15.024h-9.8638z" stroke="#000" stroke-width=".015216px"/>
  <path id="path3098-2" stroke-linejoin="round" d="m469.23 254.95h-134.67v1.2037h134.67z" stroke="#000" stroke-width=".018310px"/>
  <path id="path3396" stroke-linejoin="round" d="m423.6 349.59c0-0.41704 0.51156-0.76447 1.2058-0.76447h27.146c0.6577 0 1.2057 0.34743 1.2057 0.76447v33.986c0 0.417-0.54803 0.76448-1.2057 0.76448h-27.146c-0.69421 0-1.2058-0.34748-1.2058-0.76448zm2.4113 33.986-1.2057-0.76454h27.146l-1.2423 0.76454v-33.986l1.2423 0.76449h-27.146l1.2057-0.76449z" stroke="#000" stroke-width=".029095px"/>
  <path id="path3138-1" stroke-linejoin="round" d="m553.77 452.26v-25.625h-1.7248v25.625z" stroke="#000" stroke-width=".015078px"/>
  <path id="path3138-1-5" stroke-linejoin="round" d="m649.03 452.74v-24.27h-1.6285v24.27z" stroke="#000" stroke-width=".014259px"/>
  <path id="path3194-08" stroke-linejoin="round" d="m413.19 484.95-24.597 0.0718-0.13143 1.4708 24.729 0.0594v-1.6022zm-24.082-3.6587-12.112 4.5917 11.852 5.2362-0.00071-9.8276z" stroke="#000" stroke-width=".032549px"/>
  <text id="text3442-2" font-size="16.877px" xml:space="preserve" transform="scale(1.0622 .94140)" y="634.56464" x="191.40759" font-family="Arial" line-height="125%" fill="#000000"><tspan id="tspan4917" y="634.56464" x="191.40759">...</tspan></text>
  <path id="path3258-4" stroke-linejoin="round" d="m581.95 402.85h33.055v1.1954h-33.055z" stroke="#000" stroke-width=".026493px"/>
  <path id="path3390-7" stroke-linejoin="round" d="m153.79 430.23v-8.0466h-1.3358v8.0466z" stroke="#000" stroke-width=".016864px"/>
  <text id="text3442-2-3" font-size="16.738px" xml:space="preserve" transform="scale(1.0534 .94929)" y="389.85172" x="669.37408" font-family="Arial" line-height="125%" fill="#000000"><tspan id="tspan4917-9" y="389.85172" x="669.37408">...</tspan></text>
  <text id="text3034-5" font-size="12.929px" xml:space="preserve" transform="scale(1.0326 .96846)" line-height="125%" y="348.78262" x="204.97864" font-family="Arial" fill="#000000"><tspan id="tspan4822" y="348.78262" x="204.97864">COP</tspan></text>
  <path id="path3032-0" opacity="0.329" stroke-linejoin="round" d="m191.07 361.48c0-0.35025 0.23442-0.64212 0.53135-0.64212h35.382c0.29696 0 0.51572 0.29187 0.51572 0.64212v26.991c0 0.36972-0.21876 0.64215-0.51572 0.64215h-35.382c-0.29693 0-0.53135-0.27243-0.53135-0.64215zm1.0471 26.991-0.51574-0.64216h35.382l-0.51571 0.64216v-26.991l0.51571 0.64215h-35.382l0.51574-0.64215z" stroke="#000" stroke-dasharray="0.01781078, 0.03562156" stroke-width=".017811"/>
 </g>
</svg>
