<?xml version="1.0" encoding="UTF-8" standalone="no"?>
<svg id="svg2996" xmlns:rdf="http://www.w3.org/1999/02/22-rdf-syntax-ns#" xmlns="http://www.w3.org/2000/svg" height="100%" viewBox="47 15 845 545" width="100%" version="1.0" preserveAspectRatio="xMinYMin meet" xmlns:cc="http://creativecommons.org/ns#" xmlns:dc="http://purl.org/dc/elements/1.1/">
 <metadata id="metadata3508">
  <rdf:RDF>
   <cc:Work rdf:about="">
    <dc:format>image/svg+xml</dc:format>
    <dc:type rdf:resource="http://purl.org/dc/dcmitype/StillImage"/>
    <dc:title/>
   </cc:Work>
  </rdf:RDF>
 </metadata>
 <text id="text3611" style="word-spacing:0px;letter-spacing:0px" transform="scale(.99998 1)" xml:space="preserve" font-size="13.289px" y="350.36798" x="139.88812" font-family="sans-serif" line-height="125%" fill="#000000"><tspan id="tspan3615" y="342.36798" x="121.88812"/></text>
 <g id="g8013" transform="matrix(1.0062 0 0 1 -.32737 .000032691)">
  <path id="path3008" stroke-linejoin="round" d="m465.62 33.476c0-0.62036 0.5255-1.1078 1.1943-1.1078h415.03c0.62105 0 1.1943 0.48742 1.1943 1.1078v110.02c0 0.62034-0.57327 1.1077-1.1943 1.1077h-415.03c-0.66883 0-1.1943-0.48741-1.1943-1.1077zm2.3887 110.02-1.1943-1.1078h415.03l-1.1943 1.1078v-110.02l1.1943 1.1077h-415.03l1.1943-1.1077z" stroke="#000" stroke-width=".046011px"/>
  <text id="text3010" font-size="25.446px" line-height="125%" xml:space="preserve" style="text-decoration-line:underline;text-decoration:underline" transform="scale(1.0158 .98442)" y="96.357422" x="574.84058" font-family="Arial" fill="#000000">Control Memory</text>
  <text id="text3012" font-size="17.753px" xml:space="preserve" transform="scale(1.0158 .98442)" y="428.33759" x="196.93709" font-family="Arial" fill="#000000">MUX C</text>
  <path id="path3014" stroke-linejoin="round" d="m703.71 144.07v124.11h-1.5321v-124.11h1.5321zm3.7403 122.8-4.5064 7.9662-4.5064-7.9662h9.0126z" stroke="#000" stroke-width=".042366px"/>
  <path id="path3016" stroke-linejoin="round" d="m715.77 208.38-23.714 16.384 0.67628 0.87382 23.67-16.341z" stroke="#000" stroke-width=".044384px"/>
  <text id="text3018" font-size="13.317px" xml:space="preserve" transform="scale(1.0158 .98442)" y="220.41348" x="670.36707" font-family="Arial" line-height="125%" fill="#000000"><tspan id="tspan3920" y="220.41348" x="670.36707">80</tspan></text>
  <path id="path3020" stroke-linejoin="round" d="m83.641 328.19c0-0.3197 0.33814-0.5861 0.74392-0.5861h130.39c0.42835 0 0.76648 0.2664 0.76648 0.5861v24.635c0 0.33747-0.33813 0.58611-0.76648 0.58611h-130.39c-0.40578 0-0.74392-0.24864-0.74392-0.58611zm1.5104 24.635-0.76646-0.58613h130.39l-0.74391 0.58613v-24.635l0.74391 0.58611h-130.39l0.76646-0.58611z" stroke="#000" stroke-width=".020011px"/>
  <path id="path3024" stroke-linejoin="round" d="m221.35 172.6c0 0.286 0.29706 0.52435 0.6733 0.52435h112.46c0.37624 0 0.67327-0.23835 0.67327-0.52435v-130.94c0-0.30192-0.29703-0.54027-0.67327-0.54027h-112.46c-0.37624 0-0.6733 0.23835-0.6733 0.54027zm1.3268-130.94-0.65351 0.5244h112.46l-0.65351-0.5244v130.94l0.65351-0.5244h-112.46l0.65351 0.5244z" stroke="#000" stroke-width=".017738px"/>
  <path id="path3026" stroke-linejoin="round" d="m383.27 42.237c0-0.35001 0.33814-0.64168 0.74392-0.64168h28.855c0.40577 0 0.74394 0.29168 0.74394 0.64168v94.617c0 0.34999-0.33817 0.64166-0.74394 0.64166h-28.855c-0.40578 0-0.74392-0.29167-0.74392-0.64166zm1.4878 94.617-0.74392-0.64169h28.855l-0.7665 0.64169v-94.617l0.7665 0.66111h-28.855l0.74392-0.66111z" stroke="#000" stroke-width=".020937px"/>
  <path id="path3028" stroke-linejoin="round" d="m68.832 447.69c0 0.41505 0.33324 0.74276 0.73312 0.74276h316.58c0.39989 0 0.73314-0.32771 0.73314-0.74276v-46.467c0-0.39323-0.33325-0.72091-0.73314-0.72091h-316.58c-0.39988 0-0.73312 0.32768-0.73312 0.72091zm1.4662-46.467-0.73314 0.72094h316.58l-0.73311-0.72094v46.467l0.73311-0.72093h-316.58l0.73314 0.72093z" stroke="#000" stroke-width=".022031px"/>
  <text id="text3030" font-size="20.771px" xml:space="preserve" transform="scale(1.0158 .98442)" y="269.47705" x="104.05253" font-family="Arial" line-height="125%" fill="#000000"><tspan id="tspan4390" y="269.47705" x="104.05253">co2µaddr</tspan></text>
  <path id="path3032" stroke-linejoin="round" d="m83.72 328.19c0-0.3197 0.33816-0.5861 0.76647-0.5861h51.039c0.42833 0 0.74391 0.2664 0.74391 0.5861v24.635c0 0.33747-0.31558 0.58611-0.74391 0.58611h-51.039c-0.42831 0-0.76647-0.24864-0.76647-0.58611zm1.5104 24.635-0.74393-0.58613h51.039l-0.74395 0.58613v-24.635l0.74395 0.58611h-51.039l0.74393-0.58611z" stroke="#000" stroke-width=".020011px"/>
  <text id="text3034" font-size="16.234px" xml:space="preserve" transform="scale(1.0158 .98442)" y="352.30511" x="97.046173" font-family="Arial" line-height="125%" fill="#000000">CO</text>
  <text id="text3036" font-size="17.753px" xml:space="preserve" transform="scale(1.0158 .98442)" y="394.48352" x="118.11958" font-family="Arial" fill="#000000">IR</text>
  <text id="text3038" font-size="17.753px" xml:space="preserve" transform="scale(1.0158 .98442)" y="523.6333" x="68.43737" font-family="Arial" fill="#000000">SR</text>
  <path id="path3040" stroke-linejoin="round" d="m89.228 80.122c0 0.27835 0.33817 0.5103 0.74395 0.5103h52.888c0.42836 0 0.76652-0.23196 0.76652-0.5103v-25.345c0-0.27835-0.33816-0.5103-0.76652-0.5103h-52.888c-0.40578 0-0.74394 0.23196-0.74394 0.5103zm1.5104-25.345-0.76648 0.52576h52.888l-0.74397-0.52576v25.345l0.74397-0.51029h-52.888l0.76648 0.51029z" stroke="#000" stroke-width=".018670px"/>
  <g id="g4866" stroke-linejoin="round" stroke="#000" stroke-width=".043902px" transform="matrix(.63767 0 0 .93568 -144.82 68.671)">
   <path id="path3042" d="m828.4 256.34h12.482v1.0922h-12.482z"/>
   <path id="path3044" d="m854.34 256.34h12.482v1.0922h-12.482z"/>
   <path id="path3048" d="m840.5 243.5h13.454v1.0922h-13.454z"/>
   <path id="path3050" d="m841.07 257.26v-13.588h-1.1028v13.588z"/>
   <path id="path3052" d="m854.17 257.26v-13.938h-1.1027v13.938z"/>
   <path id="path3054" d="m866.65 257.26v-13.938h-1.1028v13.938z"/>
   <path id="path3058" d="m865.81 243.5h13.763v1.0922h-13.763z"/>
  </g>
  <path id="path3060" stroke-linejoin="round" d="m319.13 495.1-0.12691-40.982-1.2551-0.3817-0.12689 41.363zm3.7388-39.796-4.5044-7.6773-4.2506 7.6773z" stroke="#000" stroke-width=".028743px"/>
  <path id="path3062" stroke-linejoin="round" d="m344.47 471.85v-17.873h-1.5104v17.873h1.5104zm3.7647-16.625-4.5086-7.4468-4.5086 7.4468h9.0172z" stroke="#000" stroke-width=".020485px"/>
  <text id="text3064" font-size="13.282px" xml:space="preserve" transform="scale(1.0158 .98442)" y="517.29181" x="358.66751" font-family="Arial" line-height="125%" fill="#000000">0</text>
  <text id="text3066" font-size="11.807px" xml:space="preserve" transform="scale(1.0158 .98442)" y="169.12772" x="293.75699" font-family="Arial" line-height="125%" fill="#000000">A0</text>
  <text id="text3068" font-size="19.186px" xml:space="preserve" transform="scale(1.0158 .98442)" y="116.27745" x="252.75598" font-family="Arial" line-height="125%" fill="#000000">MUX A</text>
  <text id="text3072" font-size="14.758px" xml:space="preserve" transform="scale(1.0158 .98442)" y="195.7077" x="708.14801" font-family="Arial" line-height="125%" fill="#000000">µInstruction</text>
  <text id="text3076" font-size="17.753px" xml:space="preserve" transform="scale(1.0158 .98442)" y="198.04874" x="493.97183" font-family="Arial" fill="#000000">MADDR</text>
  <text id="text3080" font-size="17.753px" xml:space="preserve" transform="matrix(0 -.98442 1.0158 0 0 0)" y="398.1806" x="-118.69676" font-family="Arial" fill="#000000">µAddr</text>
  <path id="path3082" stroke-linejoin="round" d="m412.32 83.904h49.013v1.4639h-49.013v-1.4639zm47.983-3.6269 6.146 4.3699-6.146 4.3699v-8.7399z" stroke="#000" stroke-width=".018323px"/>
  <text id="text3084" font-size="17.753px" xml:space="preserve" transform="scale(1.0158 .98442)" y="75.654778" x="104.90973" font-family="Arial" fill="#000000">+1</text>
  <path id="path3086" fill-rule="evenodd" d="m433.16 84.643c0-1.2234 0.96932-2.2065 2.1416-2.2065 1.1722 0 2.1416 0.98305 2.1416 2.2065 0 1.2015-0.96932 2.1847-2.1416 2.1847s-2.1416-0.98309-2.1416-2.1847"/>
  <path id="path3088" stroke-linejoin="round" d="m432.14 84.771v-0.284l0.0453-0.43692c0.0224-0.08739 0.0224-0.17476 0.0676-0.284l0.11272-0.39325c0.0225-0.08739 0.0676-0.1529 0.0902-0.24028l0.20289-0.37138c0.0452-0.08738 0.0902-0.17478 0.15778-0.26215l0.27051-0.3277c0.0452-0.0437 0.1127-0.10925 0.1578-0.15291l0.31558-0.26215c0.0903-0.08741 0.18034-0.15292 0.29307-0.21846l0.38322-0.19663c0.0676-0.0437 0.13525-0.0655 0.22542-0.10924l0.38323-0.13109c0.11272-0.0218 0.22541-0.0437 0.33813-0.0656l0.42831-0.0437h0.31561l0.42833 0.0437c0.11271 0.0219 0.20285 0.0437 0.31559 0.0656l0.40574 0.13109c0.0903 0.0437 0.18035 0.06538 0.27052 0.10924l0.36068 0.19663c0.0903 0.06538 0.18033 0.13106 0.24798 0.19662l0.31559 0.26215c0.0675 0.0655 0.13524 0.10925 0.18035 0.17476l0.27051 0.3277c0.0676 0.08739 0.11272 0.17478 0.18034 0.26215l0.18033 0.37138c0.0452 0.08738 0.0675 0.15292 0.0902 0.24028l0.13524 0.39325c0.0224 0.10925 0.0453 0.19662 0.0453 0.284l0.0452 0.43692c0.0225 0.10926 0.0225 0.19663 0 0.284l-0.0452 0.45876c0 0.08735-0.0223 0.17477-0.0453 0.26216l-0.13524 0.41508c-0.0224 0.08735-0.0452 0.1529-0.0902 0.24028l-0.2 0.371c-0.0676 0.08735-0.11274 0.17479-0.18034 0.26218l-0.27051 0.32768c-0.0453 0.06552-0.11271 0.10926-0.18035 0.17477l-0.31559 0.26215c-0.0676 0.06552-0.15779 0.1311-0.24798 0.1966l-0.36068 0.19663c-0.0902 0.04368-0.18034 0.0654-0.27052 0.10926l-0.40574 0.13106c-0.11276 0.02184-0.20289 0.04368-0.31559 0.06562l-0.42833 0.04368h-0.31561l-0.42831-0.04368c-0.11273-0.02194-0.22542-0.04368-0.33813-0.06562l-0.38323-0.13106c-0.0902-0.04368-0.15779-0.0654-0.22542-0.10926l-0.38322-0.19663c-0.11274-0.06552-0.20289-0.13107-0.29307-0.21844l-0.31558-0.26218c-0.0453-0.04368-0.11271-0.10924-0.1578-0.1529l-0.27051-0.32768c-0.0675-0.08734-0.11272-0.17478-0.15778-0.26218l-0.20289-0.37138c-0.0225-0.08735-0.0676-0.15289-0.0902-0.24028l-0.11272-0.41508c-0.0453-0.08734-0.0453-0.17478-0.0676-0.26216zm3.0433 0.17476-0.0676-0.284 0.13527 0.41509-0.0903-0.24032 0.18033 0.37139-0.15779-0.26216 0.2705 0.32771-0.1578-0.15293 0.29308 0.284-0.29308-0.21847 0.36071 0.1966-0.22544-0.10923 0.40578 0.13107-0.33815-0.06552 0.42832 0.04368h-0.31561l0.42832-0.04368-0.31561 0.06552 0.40576-0.13107-0.27052 0.10923 0.3607-0.1966-0.24798 0.1966 0.3156-0.28397-0.18033 0.17477 0.27052-0.32771-0.18034 0.26216 0.20288-0.37139-0.0902 0.24032 0.11275-0.41509-0.0453 0.284 0.0453-0.45876v0.284l-0.0453-0.43691 0.0453 0.26214-0.11275-0.39322 0.0902 0.24031-0.20288-0.37139 0.18034 0.26216-0.27052-0.32769 0.18033 0.17476-0.3156-0.284 0.24798 0.19661-0.3607-0.19661 0.27052 0.10926-0.40576-0.13109 0.31561 0.06559-0.42832-0.04369h0.31561l-0.42832 0.04369 0.33815-0.06559-0.40578 0.13109 0.22544-0.10926-0.36071 0.19661 0.29308-0.21845-0.29308 0.28399 0.1578-0.15291-0.2705 0.32769 0.15779-0.26216-0.18033 0.37139 0.0903-0.24031-0.13527 0.39322 0.0676-0.26214-0.0452 0.43691v-0.284z" stroke="#000" stroke-width=".022192px"/>
  <path id="path3092" stroke-linejoin="round" d="m334.26 86.046h45.195v-1.4639h-45.195v1.4639zm44.324 3.6268 5.2026-4.3697-5.2026-4.3697v8.7394z" stroke="#000" stroke-width=".016857px"/>
  <path id="path3094" stroke-linejoin="round" d="m275.94 254.18v-72.791h-1.5103v72.791h1.5103zm3.742-71.349-4.5086-8.7384-4.5086 8.7384h9.017z" stroke="#000" stroke-width=".022192px"/>
  <path id="path3096" stroke-linejoin="round" d="m436.11 282.4v-54.448c0-0.42407-0.19031-0.77746-0.41865-0.77746h-129.96l0.43132 0.77746v-46.601h-0.8499v46.601c0 0.42407 0.19032 0.77748 0.41868 0.77748h129.96l-0.43133-0.77748v54.448zm-127.84-99.471-2.5372-9.4238-2.5372 9.4238z" stroke="#000" stroke-width=".017289px"/>
  <path id="path3098" stroke-linejoin="round" d="m436.22 22.081h-320.56v1.0877h320.56z" stroke="#000" stroke-width=".026855px"/>
  <path id="path3100" stroke-linejoin="round" d="m116.11 22.839-0.16126 33.194h1.3436l0.16125-33.194z" stroke="#000" stroke-width=".0076843px"/>
  <path id="path3102" stroke-linejoin="round" d="m142.71 66.844h71.083v1.4639h-71.083v-1.4639zm69.668-3.6377 8.5134 4.3696-8.5134 4.3696v-8.7392z" stroke="#000" stroke-width=".010781px"/>
  <path id="path3104" stroke-linejoin="round" d="m147.06 120.01h67.511v1.4529h-67.511v-1.4529zm66.243-3.6488 7.6285 4.37-7.6285 4.37v-8.7396z" stroke="#000" stroke-width=".010207px"/>
  <path id="path3108" stroke-linejoin="round" d="m368.93 495.62-0.25385-40.102-1.2552-0.50888v40.612zm3.1267-39.917-3.8699-7.9157-3.6161 7.7885z" stroke="#000" stroke-width=".028852px"/>
  <path id="path3110" stroke-linejoin="round" d="m416.9 419.05-11.858 13.915 0.87913 0.69908 11.835-13.915z" stroke="#000" stroke-width=".022192px"/>
  <text id="text3112" font-size="11.896px" xml:space="preserve" transform="scale(1.0158 .98442)" y="428.80334" x="398.33426" font-family="Arial" fill="#000000">4</text>
  <path id="path3120" stroke-linejoin="round" d="m480.78 196.14-8.6113 10.727 0.87916 0.67725 8.6113-10.727z" stroke="#000" stroke-width=".022192px"/>
  <text id="text3122" font-size="11.896px" xml:space="preserve" transform="scale(1.0158 .98442)" y="200.03294" x="455.50586" font-family="Arial" fill="#000000">12</text>
  <path id="path3124" stroke-linejoin="round" d="m194.38 146.95h21.899v1.464h-21.899v-1.464zm20.783-3.6382 6.7149 4.3702-6.7149 4.3702v-8.7403z" stroke="#000" stroke-width=".0095764px"/>
  <text id="text3126" font-size="17.753px" xml:space="preserve" transform="scale(1.0158 .98442)" y="156.33159" x="172.30963" font-family="Arial" fill="#000000">0</text>
  <text id="text3130" font-size="13.282px" xml:space="preserve" transform="scale(1.0158 .98442)" y="172.57652" x="158.77316" font-family="Arial" line-height="125%" fill="#000000">(fetch) </text>
  <path id="path3134" stroke-linejoin="round" d="m147.15 119.4-0.13573 83.523 1.1308 0.0147 0.13569-83.538z" stroke="#000" stroke-width="0.0131px"/>
  <path id="path3136" stroke-linejoin="round" d="m292.42 471.8v-17.873h-1.5104v17.873h1.5104zm3.7423-16.625-4.5086-7.4469-4.5086 7.4469h9.0172z" stroke="#000" stroke-width=".020485px"/>
  <path id="path3138" stroke-linejoin="round" d="m427.83 426.66v-84.936h-1.1272v84.936z" stroke="#000" stroke-width=".022192px"/>
  <text id="text3140" font-size="11.807px" xml:space="preserve" transform="scale(1.0158 .98442)" y="563.65436" x="256.24185" font-family="Arial" line-height="125%" fill="#000000">0</text>
  <path id="path3142" stroke-linejoin="round" d="m141.87 378.44 622.33-2.7503v-1.1272l-622.33 2.7504z" stroke="#000" stroke-width=".038880px"/>
  <path id="path3142b" stroke-linejoin="round" d="m147.12 378.44 616.52-2.7505v-1.1272l-616.52 2.7505z" stroke="#000" stroke-width="0.0387px"/>
  <path id="path3144" stroke-linejoin="round" d="m453.08 452.89c-0.30481-0.002-0.52842-0.29131-0.52726-0.63742l0.18567-55.726c0.00082-0.34612 0.22667-0.63334 0.53148-0.63169l22.363 0.12113c0.30482 0.002 0.54447 0.29141 0.54333 0.63751l-0.18568 55.726c-0.00083 0.3461-0.24273 0.63324-0.54754 0.63161zm22.368-1.1672-0.53154 0.65091 0.18567-55.726 0.5272 0.65666-22.363-0.12113 0.53158-0.65093-0.18567 55.726-0.52722-0.65667z" stroke="#000" stroke-width=".017564px"/>
  <path id="path3150" stroke-linejoin="round" d="m536.98 452.94c-0.32066 0.003-0.54694-0.31193-0.54902-0.6684l-0.33446-57.391c-0.003-0.35645 0.22076-0.63574 0.5414-0.63865l22.348-0.20165c0.28855-0.003 0.51462 0.27265 0.51672 0.62909l0.33445 57.391c0.003 0.35646-0.22053 0.67534-0.5091 0.67795zm22.34-1.5482-0.54117 0.67824-0.33448-57.391 0.54904 0.66839-22.348 0.20166 0.5091-0.67795 0.33449 57.391-0.51698-0.6687z" stroke="#000" stroke-width=".035637px"/>
  <path id="path3156" stroke-linejoin="round" d="m624.42 451c-0.3002-0.003-0.50763-0.30916-0.50464-0.65111l0.48219-55.057c0.004-0.34199 0.21546-0.60585 0.51565-0.60277l20.922 0.21298c0.27016 0.002 0.47796 0.27088 0.47496 0.61283l-0.4822 55.058c-0.004 0.34194-0.2158 0.6438-0.48594 0.64105zm20.933-1.0789-0.51599 0.64078 0.48223-55.057 0.50464 0.65113-20.922-0.21299 0.48597-0.64107-0.48221 55.058-0.47465-0.65085z" stroke="#000" stroke-width=".033774px"/>
  <path id="path3162" stroke-linejoin="round" d="m648.75 275.33c0-0.39336 0.18648-0.743 0.45287-0.743h103.2c0.23975 0 0.42625 0.34964 0.42625 0.743v30.463c0 0.39337-0.1865 0.743-0.42625 0.743h-103.2c-0.26639 0-0.45287-0.34963-0.45287-0.743zm0.87909 30.463-0.4262-0.74302h103.2l-0.45285 0.74302v-30.463l0.45285 0.74303h-103.2l0.4262-0.74303z" stroke="#000" stroke-width=".034121px"/>
  <text id="text3164" font-size="16.234px" xml:space="preserve" transform="scale(1.0158 .98442)" y="301.13269" x="495.05136" font-family="Arial" line-height="125%" fill="#000000">Sel A</text>
  <text id="text3168" font-size="16.234px" xml:space="preserve" transform="scale(1.0158 .98442)" y="301.81445" x="545.87305" font-family="Arial" line-height="125%" fill="#000000">Sel B</text>
  <text id="text3172" font-size="16.234px" xml:space="preserve" transform="scale(1.0158 .98442)" y="301.81445" x="594.98895" font-family="Arial" line-height="125%" fill="#000000">Sel C</text>
  <path id="path3176" stroke-linejoin="round" d="m494.92 275.31c0-0.39322 0.30462-0.72092 0.67015-0.72092h52.76c0.36556 0 0.67017 0.3277 0.67017 0.72092v30.476c0 0.39326-0.30461 0.72094-0.67017 0.72094h-52.76c-0.36553 0-0.67015-0.32768-0.67015-0.72094zm1.3402 30.476-0.67016-0.74279h52.76l-0.69046 0.74279v-30.476l0.69046 0.74278h-52.76l0.67016-0.74278z" stroke="#000" stroke-width=".021063px"/>
  <path id="path3178" stroke-linejoin="round" d="m547.99 275.33c0-0.39327 0.31177-0.74283 0.66252-0.74283h51.716c0.35073 0 0.66253 0.34956 0.66253 0.74283v30.456c0 0.39326-0.3118 0.74283-0.66253 0.74283h-51.716c-0.35075 0-0.66252-0.34957-0.66252-0.74283zm1.2862 30.456-0.62355-0.74284h51.716l-0.66255 0.74284v-30.456l0.66255 0.74285h-51.716l0.62355-0.74285z" stroke="#000" stroke-width=".041267px"/>
  <path id="path3180" stroke-linejoin="round" d="m599.4 275.33c0-0.39327 0.25148-0.74288 0.61073-0.74288h48.929c0.32333 0 0.57482 0.34961 0.57482 0.74288v30.459c0 0.39327-0.25149 0.74288-0.57482 0.74288h-48.929c-0.35925 0-0.61073-0.34961-0.61073-0.74288zm1.1856 30.459-0.57481-0.7429h48.929l-0.61073 0.7429v-30.459l0.61073 0.74289h-48.929l0.57481-0.74289z" stroke="#000" stroke-width=".039622px"/>
  <path id="path3182" stroke-linejoin="round" d="m468.85 465.85-12.128 8.6729 0.67629 0.87385 12.128-8.6511z" stroke="#000" stroke-width=".022192px"/>
  <path id="path3184" stroke-linejoin="round" d="m555.39 466.52-12.128 8.6729 0.67627 0.87385 12.127-8.6729z" stroke="#000" stroke-width=".022192px"/>
  <path id="path3186" stroke-linejoin="round" d="m639.78 463.85-12.128 8.6948 0.67629 0.87385 12.128-8.6948z" stroke="#000" stroke-width=".044384px"/>
  <path id="path3188" stroke-linejoin="round" d="m464.92 377.79v11.273h-1.4878v-11.273h1.4878zm3.7646 9.809-4.5085 8.7384-4.5086-8.7384h9.0171z" stroke="#000" stroke-width=".022192px"/>
  <path id="path3190" stroke-linejoin="round" d="m549.08 375.93v11.294h-1.5103v-11.294h1.5103zm3.7646 9.8308-4.5086 8.7384-4.5086-8.7384h9.017z" stroke="#000" stroke-width=".022192px"/>
  <path id="path3192" stroke-linejoin="round" d="m634.77 376.43v11.273h-1.5329v-11.273h1.5329zm3.7421 9.787-4.5086 8.7384-4.5086-8.7384h9.0171z" stroke="#000" stroke-width=".044384px"/>
  <path id="path3194" stroke-linejoin="round" d="m493.91 423.56-10.911 0.0655v1.4637l10.911-0.0657v-1.4637zm-9.4453-3.5826-8.9719 4.4349 9.0397 4.3037-0.0674-8.7384z" stroke="#000" stroke-width=".022192px"/>
  <path id="path3196" stroke-linejoin="round" d="m577.48 359.76v-53.195h-1.1271v53.195z" stroke="#000" stroke-width=".022192px"/>
  <path id="path3198" fill-rule="evenodd" d="m462.37 376.42c0-1.2235 0.90245-2.2067 1.9938-2.2067 1.1124 0 1.9938 0.98319 1.9938 2.2067 0 1.2016-0.88148 2.1849-1.9938 2.1849-1.0914 0-1.9938-0.98317-1.9938-2.1849"/>
  <path id="path3200" stroke-linejoin="round" d="m460.06 376.54v-0.28399l0.0434-0.43699c0.0215-0.0874 0.0215-0.17478 0.0649-0.28402l0.10813-0.39326c0.0215-0.0874 0.0649-0.15298 0.0864-0.24033l0.19463-0.37145c0.0435-0.0874 0.0864-0.17475 0.15137-0.26215l0.2595-0.32773 0.17303-0.17479 0.30277-0.26218c0.0864-0.0655 0.17299-0.13108 0.25948-0.19665l0.34602-0.19663c0.0649-0.0436 0.15138-0.0654 0.23788-0.10925l0.38926-0.13113c0.10813-0.0218 0.21626-0.0436 0.30276-0.0652l0.4109-0.0436h0.30274l0.41089 0.0436c0.10814 0.0218 0.21625 0.0436 0.32441 0.0652l0.38922 0.13113c0.0864 0.0436 0.1514 0.0654 0.23789 0.10925l0.34602 0.19663c0.0864 0.0656 0.173 0.1311 0.25951 0.19665l0.30278 0.26218c0.065 0.0656 0.10813 0.10927 0.17298 0.17479l0.25952 0.32773c0.0434 0.0874 0.1081 0.17479 0.15137 0.26215l0.19463 0.37145c0.0214 0.0874 0.0649 0.15291 0.0864 0.24033l0.10811 0.39326c0.0432 0.10927 0.0432 0.19664 0.065 0.28402l0.0434 0.43699v0.28399l-0.0434 0.45883c-0.0215 0.0874-0.0215 0.17478-0.065 0.26221l-0.10811 0.41508c-0.0215 0.0874-0.0649 0.15298-0.0864 0.24036l-0.19463 0.37142c-0.0433 0.0874-0.10811 0.17476-0.15137 0.26215l-0.25952 0.32774c-0.0648 0.0655-0.10812 0.10925-0.17298 0.17478l-0.30278 0.2622c-0.0864 0.0653-0.17301 0.13108-0.25951 0.19662l-0.34602 0.19663c-0.0864 0.0436-0.15137 0.0655-0.23789 0.10928l-0.38922 0.1311c-0.10814 0.0218-0.21627 0.0436-0.32441 0.0655l-0.41089 0.0436h-0.30274l-0.4109-0.0436c-0.0864-0.0219-0.19463-0.0436-0.30276-0.0655l-0.38926-0.1311c-0.0864-0.0436-0.17299-0.0656-0.23788-0.10928l-0.34602-0.19663c-0.0864-0.0655-0.17298-0.13108-0.25948-0.19662l-0.30277-0.2622-0.17303-0.17478-0.2595-0.32774c-0.0649-0.0874-0.10812-0.17474-0.15137-0.26215l-0.19463-0.37142c-0.0215-0.0874-0.0649-0.15296-0.0864-0.24036l-0.10813-0.41508c-0.0432-0.0874-0.0432-0.17478-0.0649-0.26221zm2.9195 0.17484-0.065-0.28406 0.12976 0.41512-0.0864-0.24034 0.17301 0.37141-0.15139-0.26213 0.25948 0.32769-0.17299-0.17478 0.30277 0.28402-0.25951-0.19664 0.346 0.19664-0.23785-0.10926 0.38926 0.13108-0.32442-0.0655 0.41092 0.0436h-0.30276l0.41089-0.0436-0.30276 0.0655 0.38926-0.13108-0.2379 0.10926 0.34601-0.19664-0.2595 0.19664 0.30275-0.28402-0.17301 0.17478 0.25952-0.32769-0.15138 0.26213 0.17301-0.37141-0.0864 0.24034 0.12975-0.41512-0.065 0.28406 0.0434-0.45883v0.28399l-0.0434-0.43696 0.065 0.26221-0.12975-0.39329 0.0864 0.24032-0.17301-0.37141 0.15138 0.26217-0.25952-0.32769 0.17301 0.17477-0.30275-0.28404 0.2595 0.19665-0.34601-0.19665 0.2379 0.1093-0.38926-0.13112 0.30276 0.0655-0.41089-0.0436h0.30276l-0.41092 0.0436 0.32442-0.0655-0.38926 0.13112 0.23785-0.1093-0.346 0.19665 0.25951-0.19665-0.30277 0.28404 0.17299-0.17477-0.25948 0.32769 0.15139-0.26217-0.17301 0.37141 0.0864-0.24032-0.12976 0.39329 0.065-0.26221-0.0433 0.43696v-0.28399z" stroke="#000" stroke-width=".021737px"/>
  <path id="path3202" fill-rule="evenodd" d="m546.35 376.42c0-1.2235 0.88149-2.2067 1.9939-2.2067 1.0913 0 1.9727 0.98319 1.9727 2.2067 0 1.2016-0.88143 2.1849-1.9727 2.1849-1.1124 0-1.9939-0.98317-1.9939-2.1849"/>
  <path id="path3204" stroke-linejoin="round" d="m544.54 376.54c-0.0215-0.0874-0.0215-0.17475 0-0.28399l0.0432-0.43699c0-0.0874 0.0214-0.17478 0.0435-0.28402l0.12976-0.39326c0.0214-0.0874 0.0434-0.15298 0.0863-0.24033l0.173-0.37145c0.0435-0.0874 0.10812-0.17475 0.17299-0.26215l0.2595-0.32773c0.0432-0.0657 0.10814-0.10926 0.173-0.17479l0.30278-0.26218c0.0649-0.0655 0.15137-0.13108 0.23788-0.19665l0.34601-0.19663c0.0863-0.0436 0.17299-0.0654 0.2595-0.10925l0.38926-0.13113c0.0864-0.0218 0.19467-0.0436 0.30276-0.0652l0.4109-0.0436h0.30277l0.41087 0.0436c0.10813 0.0218 0.21626 0.0436 0.32438 0.0652l0.36762 0.13113c0.0864 0.0436 0.1514 0.0654 0.21628 0.10925l0.36763 0.19663c0.0864 0.0436 0.19463 0.10928 0.25952 0.19665l0.30275 0.26218 0.19463 0.19663 0.23788 0.32773c0.0649 0.0874 0.10812 0.15295 0.15138 0.24031l0.19465 0.37145c0.0215 0.0874 0.0648 0.15291 0.0864 0.24033l0.10812 0.39326c0.0434 0.10927 0.0434 0.19664 0.0648 0.28402l0.0432 0.43699v0.28399l-0.0432 0.45883c-0.0215 0.0874-0.0215 0.17478-0.0648 0.26221l-0.10812 0.41508c-0.0214 0.0874-0.0649 0.15298-0.0864 0.24036l-0.19465 0.37142c-0.0435 0.0874-0.0863 0.15293-0.15138 0.24031l-0.23788 0.32774c-0.065 0.0655-0.12975 0.13107-0.19463 0.19662l-0.30275 0.2622c-0.0649 0.0874-0.17302 0.15291-0.25952 0.19662l-0.36763 0.19663c-0.065 0.0436-0.12976 0.0655-0.21628 0.10928l-0.36762 0.1311c-0.10812 0.0218-0.21625 0.0436-0.32438 0.0655l-0.41087 0.0436h-0.30277l-0.4109-0.0436c-0.10811-0.0219-0.21625-0.0436-0.30276-0.0655l-0.38926-0.1311c-0.0863-0.0436-0.17301-0.0656-0.2595-0.10928l-0.34601-0.19663c-0.0864-0.0655-0.17301-0.13108-0.23788-0.19662l-0.30278-0.2622c-0.0649-0.0654-0.12974-0.10924-0.173-0.17478l-0.2595-0.32774c-0.0649-0.0874-0.12975-0.17474-0.17299-0.26215l-0.173-0.37142c-0.0435-0.0874-0.0649-0.15296-0.0863-0.24036l-0.12976-0.41508c-0.0215-0.0874-0.0435-0.17478-0.0435-0.26221zm2.8977 0.17484-0.0434-0.28406 0.10814 0.41512-0.0864-0.24034 0.19463 0.37141-0.173-0.26213 0.2595 0.32769-0.173-0.17478 0.30278 0.28402-0.23789-0.19664 0.34599 0.19664-0.25949-0.10926 0.38925 0.13108-0.30275-0.0655 0.4109 0.0436h-0.30275l0.41087-0.0436-0.32441 0.0655 0.38927-0.13108-0.21625 0.10926 0.34602-0.19664-0.25952 0.19664 0.30274-0.28402-0.19461 0.19664 0.25951-0.32773-0.15139 0.24031 0.17302-0.37141-0.0865 0.24034 0.1298-0.41512-0.0649 0.28406 0.0435-0.45883v0.28399l-0.0435-0.43696 0.0649 0.26221-0.1298-0.39329 0.0865 0.24032-0.17302-0.37141 0.15139 0.24032-0.25951-0.3277 0.19461 0.19663-0.30274-0.28404 0.25952 0.19665-0.34602-0.19665 0.21625 0.1093-0.38927-0.13112 0.32441 0.0655-0.41087-0.0436h0.30275l-0.4109 0.0436 0.30275-0.0655-0.38925 0.13112 0.25949-0.1093-0.34599 0.19665 0.23789-0.19665-0.30278 0.28404 0.173-0.17477-0.2595 0.32769 0.173-0.26217-0.19463 0.37141 0.0864-0.24032-0.10814 0.39329 0.0434-0.26221-0.0434 0.43696v-0.28399z" stroke="#000" stroke-width=".021737px"/>
  <path id="path3206" fill-rule="evenodd" d="m633.71 376.43c0-1.2235 0.92346-2.2285 2.0148-2.2285 1.0914 0 1.9727 1.005 1.9727 2.2285 0 1.1798-0.88147 2.1849-1.9727 2.1849-1.0913 0-2.0148-1.005-2.0148-2.1849"/>
  <path id="path3208" stroke-linejoin="round" d="m630.41 376.57c-0.0435-0.0874-0.0435-0.17478 0-0.30584l0.0433-0.43697c0-0.0874 0-0.17483 0.0435-0.2622l0.12976-0.39326c0-0.0874 0.0435-0.1748 0.0863-0.26218l0.17301-0.34959c0.0435-0.0874 0.0865-0.17478 0.12973-0.26218l0.25954-0.30588c0.0435-0.0874 0.12973-0.13108 0.17299-0.21846l0.30276-0.2622c0.0865-0.0874 0.17302-0.13108 0.25951-0.17479l0.34602-0.21847c0.0863-0.0436 0.17298-0.0436 0.25949-0.0874l0.37969-0.10466c0.0863-0.0436 0.21627-0.0436 0.30275-0.0874l0.38928-0.0436h0.30274l0.43252 0.0436c0.0863 0.0436 0.21626 0.0436 0.30276 0.0874l0.38927 0.13109c0.0864 0.0436 0.173 0.0436 0.2595 0.0874l0.346 0.21847c0.0864 0.0436 0.17303 0.0874 0.25953 0.17478l0.30276 0.26218c0.0434 0.0874 0.0864 0.13108 0.12974 0.1748l0.25952 0.34956c0.0863 0.0874 0.12974 0.17479 0.173 0.26218l0.21627 0.34958c0 0.0874 0.0435 0.17479 0.0863 0.26219l0.0865 0.39325c0.0435 0.0874 0.0435 0.17479 0.0863 0.2622l0.0435 0.43696v0.30587l-0.0435 0.43694c-0.0433 0.0874-0.0433 0.17481-0.0863 0.26221l-0.0865 0.43694c-0.0434 0.0874-0.0863 0.13113-0.0863 0.2185l-0.21627 0.39329c-0.0434 0.0874-0.0863 0.17476-0.173 0.26214l-0.25952 0.30588c-0.0434 0.0436-0.0865 0.13111-0.12974 0.1748l-0.30276 0.26218c-0.0864 0.0874-0.17299 0.13108-0.25953 0.2185l-0.346 0.17476c-0.0864 0.0436-0.17303 0.0874-0.2595 0.13111l-0.38927 0.13109c-0.0864 0-0.21625 0.0436-0.30276 0.0436l-0.43252 0.0436h-0.30274l-0.38928-0.0436c-0.0864 0-0.21624-0.0436-0.30275-0.0436l-0.38925-0.13109c-0.0864-0.0436-0.17301-0.0874-0.25951-0.13111l-0.34601-0.17476c-0.0864-0.0874-0.17303-0.13108-0.25952-0.2185l-0.30273-0.26219c-0.0433-0.0436-0.12974-0.13109-0.17299-0.21847l-0.25951-0.30592c-0.0434-0.0874-0.0863-0.13106-0.12976-0.21843l-0.17298-0.39328c-0.0435-0.0874-0.0863-0.1311-0.0863-0.2185l-0.1298-0.43694c-0.0432-0.0874-0.0432-0.1748-0.0432-0.26221zm2.8977 0.1748-0.0434-0.30587 0.0864 0.43696-0.0864-0.26219 0.21626 0.39328-0.173-0.26218 0.2595 0.34955-0.17301-0.21846 0.30277 0.30587-0.25952-0.21849 0.34603 0.21849-0.25953-0.13108 0.38927 0.13108-0.30276-0.0436 0.38925 0.0436h-0.30274l0.4325-0.0436-0.30277 0.0436 0.38927-0.13108-0.25948 0.13108 0.346-0.21849-0.25952 0.21849 0.30277-0.30587-0.17299 0.17479 0.2595-0.30588-0.12976 0.26218 0.17299-0.39328-0.0864 0.26219 0.12976-0.43696-0.0864 0.30587 0.0436-0.48064v0.30584l-0.0436-0.43696 0.0864 0.26218-0.12976-0.39327 0.0864 0.21849-0.17299-0.34958 0.12976 0.26218-0.2595-0.34956 0.17299 0.17477-0.30277-0.26214 0.25952 0.17475-0.346-0.17475 0.25948 0.0874-0.38927-0.13109 0.30277 0.0874-0.4325-0.0436h0.30274l-0.38925 0.0436 0.30276-0.0874-0.38927 0.13109 0.25953-0.0874-0.34603 0.17475 0.25952-0.17475-0.30277 0.26214 0.17301-0.21847-0.2595 0.34957 0.173-0.21849-0.21626 0.34958 0.0864-0.21849-0.0864 0.39327 0.0434-0.26218-0.0434 0.43696v-0.30584z" stroke="#000" stroke-width=".043474px"/>
  <path id="path3210" stroke-linejoin="round" d="m706.96 306.82v117.01h-1.4896v-117.01h1.4896zm3.7916 116.14-4.5137 5.1343-4.5136-5.1343h9.0274z" stroke="#000" stroke-width=".034041px"/>
  <path id="path3212" stroke-linejoin="round" d="m711.97 333.41-12.128 8.6511 0.6763 0.91751 12.127-8.6948z" stroke="#000" stroke-width=".044384px"/>
  <text id="text3214" font-size="11.895px" xml:space="preserve" transform="scale(1.0158 .98442)" y="340.9155" x="679.43433" font-family="Arial" line-height="125%" fill="#000000"><tspan id="tspan3973" y="340.9155" x="679.43433">49</tspan></text>
  <path id="path3216" stroke-linejoin="round" d="m451.04 487.43c0-0.4377 0.25339-0.80247 0.55743-0.80247h48.933c0.32093 0 0.57429 0.36477 0.57429 0.80247v32.171c0 0.462-0.25336 0.80247-0.57429 0.80247h-48.933c-0.30404 0-0.55743-0.34047-0.55743-0.80247zm1.1317 32.171-0.57428-0.80249h48.933l-0.55744 0.80249v-32.171l0.55744 0.80248h-48.933l0.57428-0.80248z" stroke="#000" stroke-width=".020267px"/>
  <text id="text3218" font-size="14.758px" xml:space="preserve" transform="scale(1.0158 .98442)" y="522.22565" x="451.93744" font-family="Arial" line-height="125%" fill="#000000">MUX</text>
  <path id="path3220" stroke-linejoin="round" d="m437.36 509.34h13.616v1.0922h-13.616z" stroke="#000" stroke-width=".022192px"/>
  <text id="text3222" font-size="11.896px" xml:space="preserve" transform="scale(1.0158 .98442)" y="513.64569" x="416.43665" font-family="Arial" fill="#000000">MR</text>
  <text id="text3224" font-size="14.735px" xml:space="preserve" transform="matrix(.0017764 -.97075 1.0301 .0017215 0 0)" y="686.43292" x="-533.38147" font-family="Arial" line-height="125%" fill="#000000"><tspan id="tspan4437" y="686.43292" x="-533.38147">Rest of CPU</tspan></text>
  <text id="text3228" font-size="14.735px" xml:space="preserve" transform="matrix(.0017764 -.97075 1.0301 .0017215 0 0)" y="703.26538" x="-540.60736" font-family="Arial" fill="#000000">control </text>
  <text id="text3230" font-size="14.735px" xml:space="preserve" transform="matrix(.0017764 -.97075 1.0301 .0017215 0 0)" y="702.60364" x="-492.79025" font-family="Arial" fill="#000000">signals</text>
  <path id="path3232" stroke-linejoin="round" d="m633.26 348.48v-41.552h-1.132v41.552z" stroke="#000" stroke-width=".039546px"/>
  <path id="path3234" stroke-linejoin="round" d="m479.86 519.17v13.346h-1.4878v-13.346h1.4878zm3.7646 11.884-4.5086 8.7384-4.5086-8.7384h9.0171z" stroke="#000" stroke-width=".022192px"/>
  <path id="path3236" stroke-linejoin="round" d="m538.63 487.32c0-0.44518 0.23247-0.84089 0.53136-0.84089h48.121c0.29889 0 0.53135 0.39571 0.53135 0.84089v32.748c0 0.44521-0.23246 0.79146-0.53135 0.79146h-48.121c-0.29889 0-0.53136-0.34625-0.53136-0.79146zm1.0959 32.748-0.56452-0.8409h48.121l-0.56453 0.8409v-32.748l0.56453 0.84096h-48.121l0.56452-0.84096z" stroke="#000" stroke-width=".040531px"/>
  <text id="text3238" font-size="14.758px" xml:space="preserve" transform="scale(1.0158 .98442)" y="522.30682" x="537.47681" font-family="Arial" line-height="125%" fill="#000000">MUX</text>
  <path id="path3240" stroke-linejoin="round" d="m526.49 509.21h13.593v1.0923h-13.593z" stroke="#000" stroke-width=".022192px"/>
  <text id="text3242" font-size="11.896px" xml:space="preserve" transform="scale(1.0158 .98442)" y="513.50421" x="506.51743" font-family="Arial" fill="#000000">MR</text>
  <path id="path3244" stroke-linejoin="round" d="m564.73 519.01v13.369h-1.4878v-13.369h1.4878zm3.742 11.929-4.5086 8.7384-4.5086-8.7384h9.0171z" stroke="#000" stroke-width=".044384px"/>
  <path id="path3246" stroke-linejoin="round" d="m625.04 486.02c0-0.45404 0.22254-0.85772 0.50875-0.85772h46.076c0.2862 0 0.54059 0.40368 0.54059 0.85772v33.402c0 0.45408-0.25439 0.80727-0.54059 0.80727h-46.076c-0.28621 0-0.50875-0.35319-0.50875-0.80727zm1.0492 33.402-0.54059-0.85769h46.076l-0.54059 0.85769v-33.402l0.54059 0.85774h-46.076l0.54059-0.85774z" stroke="#000" stroke-width=".040054px"/>
  <text id="text3248" font-size="14.758px" xml:space="preserve" transform="scale(1.0158 .98442)" y="521.59906" x="622.94293" font-family="Arial" line-height="125%" fill="#000000">MUX</text>
  <path id="path3252" stroke-linejoin="round" d="m611.93 507.81h13.571v1.0923h-13.571z" stroke="#000" stroke-width=".044384px"/>
  <text id="text3254" font-size="11.896px" xml:space="preserve" transform="scale(1.0158 .98442)" y="512.06519" x="589.25769" font-family="Arial" fill="#000000">MR</text>
  <path id="path3256" stroke-linejoin="round" d="m650.68 518.27v13.369h-1.4878v-13.369h1.4878zm3.7871 11.929-4.5086 8.7384-4.5086-8.7384h9.0171z" stroke="#000" stroke-width=".044384px"/>
  <path id="path3258" stroke-linejoin="round" d="m492 347.68h32.237v1.0896h-32.237z" stroke="#000" stroke-width=".024978px"/>
  <path id="path3260" stroke-linejoin="round" d="m491.72 469.54 1.0857-121.95-1.3239-0.0209-1.0856 121.97z" stroke="#000" stroke-width=".023496px"/>
  <path id="path3262" fill-rule="evenodd" d="m575.3 423.61c0-1.2234 0.9468-2.1847 2.1641-2.1847 1.1722 0 2.119 0.96121 2.119 2.1847 0 1.2233-0.94679 2.1847-2.119 2.1847-1.2173 0-2.1641-0.96125-2.1641-2.1847"/>
  <path id="path3264" stroke-linejoin="round" d="m573.6 423.75v-0.26215l0.0452-0.48063c0-0.0874 0.0453-0.17475 0.0453-0.26215l0.13526-0.39322c0.0453-0.0874 0.0453-0.17475 0.0903-0.21845l0.18032-0.39323c0.0452-0.0874 0.13524-0.17478 0.18035-0.26216l0.27052-0.30584c0.0452-0.0874 0.13525-0.13109 0.18032-0.17476l0.31561-0.30585c0.0901-0.0436 0.18034-0.13109 0.27051-0.17477l0.36068-0.17477c0.0901-0.0436 0.18034-0.0874 0.27051-0.13109l0.40577-0.13106c0.0903-0.0436 0.18035-0.0436 0.31559-0.0436l0.40577-0.0436c0.13527-0.0436 0.22543-0.0436 0.3156 0l0.45085 0.0436c0.0903 0 0.22542 0 0.31559 0.0436l0.40577 0.13106c0.0902 0.0436 0.13526 0.0874 0.22543 0.0874l0.36068 0.21846c0.0901 0.0436 0.22544 0.13109 0.27052 0.1748l0.3156 0.30582c0.09 0.0436 0.13525 0.13107 0.22542 0.17477l0.22541 0.34952c0.0903 0.0436 0.13525 0.13109 0.18034 0.21847l0.18036 0.39323c0.0452 0.0436 0.0903 0.13106 0.0903 0.21846l0.13528 0.39323c0.0452 0.0874 0.0452 0.17477 0.0452 0.26214l0.0453 0.48063v0.26213l-0.0453 0.43695c0 0.13109 0 0.21846-0.0452 0.30581l-0.13528 0.39324c0 0.0874-0.0452 0.1748-0.0903 0.21848l-0.18036 0.39323c-0.0453 0.0874-0.0901 0.17476-0.18034 0.21845l-0.22541 0.34953c-0.0901 0.0436-0.13526 0.13109-0.22542 0.17478l-0.3156 0.30585c-0.0452 0.0436-0.18034 0.13107-0.27052 0.17476l-0.36068 0.17475c-0.0901 0.0436-0.13526 0.0874-0.22543 0.13112l-0.40577 0.13106c-0.0902 0.0436-0.22542 0.0436-0.31559 0.0436l-0.45085 0.0436c-0.09 0.0436-0.18033 0.0436-0.3156 0l-0.40577-0.0436c-0.13524 0-0.22543 0-0.31559-0.0436l-0.40577-0.13106c-0.0901-0.0436-0.18032-0.0874-0.27051-0.13112l-0.36068-0.17475c-0.0903-0.0436-0.18035-0.13106-0.27051-0.17476l-0.31561-0.30585c-0.0452-0.0436-0.13524-0.0874-0.18032-0.17478l-0.27052-0.30581c-0.0453-0.0874-0.13527-0.17479-0.18035-0.26217l-0.18032-0.39323c-0.0453-0.0436-0.0453-0.13107-0.0903-0.21848l-0.13526-0.39324c0-0.0874-0.0453-0.17472-0.0453-0.30581zm3.0206 0.17476-0.0452-0.26213 0.13526 0.39322-0.09-0.21847 0.18035 0.34953-0.18035-0.26215 0.27051 0.34955-0.18036-0.17476 0.3156 0.26214-0.2254-0.17478 0.36066 0.17478-0.2705-0.0874 0.40576 0.13107-0.31559-0.0874 0.40575 0.0436h-0.3156l0.45088-0.0436-0.3607 0.0874 0.40577-0.13107-0.22542 0.0874 0.36066-0.21845-0.27051 0.21845 0.31562-0.26214-0.18035 0.17476 0.27051-0.30585-0.18035 0.21845 0.18035-0.34953-0.0901 0.21847 0.13526-0.39322-0.0453 0.26213 0.0453-0.43691v0.26215l-0.0453-0.4369 0.0453 0.26213-0.13526-0.39323 0.0901 0.21846-0.18035-0.34953 0.18035 0.21845-0.27051-0.30584 0.18035 0.17477-0.31562-0.26213 0.27051 0.17475-0.36066-0.17475 0.22542 0.0874-0.40577-0.13105 0.3607 0.0874-0.45088-0.0436h0.3156l-0.40575 0.0436 0.31559-0.0874-0.40576 0.13105 0.2705-0.0874-0.36066 0.17475 0.2254-0.17475-0.3156 0.26213 0.18036-0.17477-0.27051 0.34956 0.18035-0.26217-0.18035 0.34953 0.09-0.21846-0.13526 0.39323 0.0452-0.26213-0.0452 0.4369v-0.26215z" stroke="#000" stroke-width=".044384px"/>
  <path id="path3266" fill-rule="evenodd" d="m491.18 424.08c0-1.2015 0.96935-2.1847 2.1416-2.1847 1.1948 0 2.1416 0.98306 2.1416 2.1847 0 1.2234-0.94675 2.2065-2.1416 2.2065-1.1722 0-2.1416-0.9831-2.1416-2.2065"/>
  <path id="path3268" stroke-linejoin="round" d="m488.67 424.23v-0.28398l0.0452-0.45879c0.0224-0.0874 0.0224-0.17477 0.0676-0.26214l0.11272-0.41508c0.0223-0.0653 0.0675-0.15292 0.09-0.21847l0.20288-0.37139c0.0453-0.10925 0.0903-0.1966 0.1578-0.26212l0.2705-0.3277c0.0676-0.0656 0.11275-0.13109 0.18035-0.17478l0.31559-0.28398c0.0902-0.0657 0.18034-0.13109 0.27051-0.17479l0.36071-0.19661c0.0675-0.0436 0.15779-0.0874 0.24796-0.10923l0.40576-0.13108c0.11271-0.0436 0.22543-0.0655 0.3156-0.0655l0.42829-0.0436c0.11274-0.0219 0.22543-0.0219 0.31561 0l0.4283 0.0436c0.11273 0 0.22544 0.0218 0.33816 0.0655l0.40575 0.13108c0.09 0.0218 0.15781 0.0653 0.24799 0.10923l0.36067 0.19661c0.0901 0.0436 0.18034 0.10928 0.2705 0.17479l0.3156 0.28398c0.0675 0.0436 0.11272 0.10925 0.18035 0.17478l0.2705 0.3277c0.0452 0.0654 0.11271 0.1529 0.15781 0.26212l0.20289 0.37139c0.0223 0.0655 0.0674 0.15294 0.0902 0.21847l0.11272 0.41508c0.0452 0.0874 0.0452 0.17477 0.0675 0.26214l0.0453 0.45879v0.28398l-0.0453 0.43694c-0.0224 0.10924-0.0224 0.19661-0.0675 0.26212l-0.11272 0.4151c-0.0223 0.0874-0.0674 0.17475-0.0902 0.26215l-0.20289 0.37138c-0.0453 0.0874-0.11272 0.17476-0.15781 0.26216l-0.2705 0.32768c-0.0676 0.0655-0.11272 0.10927-0.18035 0.17475l-0.3156 0.26219c-0.0902 0.0652-0.18032 0.13107-0.2705 0.1966l-0.36067 0.19661c-0.0901 0.0436-0.15782 0.0655-0.24799 0.10926l-0.40575 0.13107c-0.11273 0.0218-0.22543 0.0436-0.33816 0.0655l-0.4283 0.0436h-0.31561l-0.42829-0.0436c-0.0904-0.0218-0.20289-0.0436-0.3156-0.0655l-0.40576-0.13107c-0.0902-0.0436-0.18034-0.0653-0.24796-0.10926l-0.36071-0.19661c-0.0903-0.0656-0.18033-0.13106-0.27051-0.1966l-0.31559-0.26219-0.18035-0.17475-0.2705-0.32768c-0.0674-0.0874-0.11273-0.17476-0.1578-0.26216l-0.20288-0.37138c-0.0224-0.0874-0.0676-0.17476-0.09-0.26215l-0.13525-0.4151c-0.0224-0.0654-0.0224-0.1529-0.0452-0.26212zm3.0433 0.15294-0.0453-0.26217 0.11271 0.41508-0.0902-0.2403 0.18033 0.37139-0.15779-0.26216 0.2705 0.3277-0.1803-0.1748 0.31558 0.28403-0.27051-0.19662 0.36068 0.19662-0.24797-0.10928 0.40574 0.1311-0.33813-0.0655 0.42831 0.0436h-0.31561l0.42834-0.0436-0.3156 0.0655 0.40575-0.1311-0.24795 0.10928 0.36068-0.19662-0.27052 0.19662 0.3156-0.28403-0.18034 0.1748 0.27051-0.3277-0.1578 0.26216 0.18036-0.37139-0.0902 0.2403 0.11273-0.41508-0.0452 0.26217 0.0452-0.43692v0.28398l-0.0452-0.45877 0.0674 0.28401-0.13523-0.41506 0.0902 0.24028-0.18033-0.37138 0.1578 0.26215-0.27054-0.32768 0.18034 0.17479-0.31558-0.26217 0.27053 0.17476-0.3607-0.1966 0.24798 0.10925-0.40577-0.13109 0.31562 0.0656-0.42834-0.0436h0.31559l-0.4283 0.0436 0.33814-0.0656-0.40576 0.13109 0.24795-0.10925-0.36067 0.1966 0.27052-0.17476-0.31561 0.26217 0.18032-0.17479-0.27048 0.32768 0.15778-0.26215-0.18033 0.37138 0.0903-0.24028-0.13525 0.41506 0.0675-0.28401-0.0452 0.45877v-0.28398z" stroke="#000" stroke-width=".022192px"/>
  <path id="path3270" stroke-linejoin="round" d="m491.77 457.49v22.014h-1.4878v-22.014h1.4878zm3.7646 20.465-4.5086 9.2596-4.5086-9.2596h9.0171z" stroke="#000" stroke-width=".022843px"/>
  <path id="path3272" stroke-linejoin="round" d="m497.27 466.58-12.128 8.6729 0.65375 0.87386 12.128-8.6729z" stroke="#000" stroke-width=".022192px"/>
  <text id="text3274" font-size="11.896px" xml:space="preserve" transform="scale(1.0158 .98442)" y="478.96539" x="473.34045" font-family="Arial" fill="#000000">5</text>
  <path id="path3276" stroke-linejoin="round" d="m578.1 423.29-11.68-0.20812-0.0283 1.4423 11.725 0.21026-0.0168-1.4444zm-10.143-3.8093-9.0614 4.2041 8.9325 4.5388 0.12881-8.7428z" stroke="#000" stroke-width=".044384px"/>
  <path id="path3278" stroke-linejoin="round" d="m577.62 467.14v-106.64h-1.1192v106.64z" stroke="#000" stroke-width=".052230px"/>
  <path id="path3280" stroke-linejoin="round" d="m524.27 348.35-0.26374-42.776 1.1318-0.0168 0.26374 42.776z" stroke="#000" stroke-width=".058290px"/>
  <path id="path3282" stroke-linejoin="round" d="m577.98 458.71v20.755h-1.4878v-20.755h1.4878zm3.787 19.312-4.5085 8.7384-4.5086-8.7384h9.0171z" stroke="#000" stroke-width=".044384px"/>
  <path id="path3284" stroke-linejoin="round" d="m583.46 466.95-12.129 8.6948 0.67628 0.87383 12.128-8.6948z" stroke="#000" stroke-width=".044384px"/>
  <text id="text3286" font-size="11.896px" xml:space="preserve" transform="scale(1.0158 .98442)" y="477.80307" x="556.24438" font-family="Arial" fill="#000000">5</text>
  <path id="path3288" stroke-linejoin="round" d="m632.02 348.31h32.346v1.1089h-32.346z" stroke="#000" stroke-width=".027323px"/>
  <path id="path3290" stroke-linejoin="round" d="m664.06 425.87-11.527 0.15419 0.004-1.4478 11.523-0.19771 0.00026 1.4913zm-9.9326 3.746-9.1202-4.219 8.9589-4.4958 0.16135 8.7147z" stroke="#000" stroke-width=".044384px"/>
  <path id="path3292" stroke-linejoin="round" d="m664.09 468.84v-120.58h-1.1145v120.58z" stroke="#000" stroke-width=".056838px"/>
  <path id="path3296" stroke-linejoin="round" d="m669.77 463.93-12.128 8.6948 0.67628 0.87384 12.128-8.6511z" stroke="#000" stroke-width=".044384px"/>
  <text id="text3298" font-size="11.896px" xml:space="preserve" transform="scale(1.0158 .98442)" y="476.14273" x="641.42291" font-family="Arial" fill="#000000">5</text>
  <path id="path3300" stroke-linejoin="round" d="m664.28 457.05v20.799h-1.4878v-20.799h1.4878zm3.742 19.312-4.5086 8.7384-4.5086-8.7384h9.017z" stroke="#000" stroke-width=".044384px"/>
  <path id="path3302" stroke-linejoin="round" d="m750.95 481.82c0-0.45609 0.28573-0.86148 0.60717-0.86148h51.717c0.35717 0 0.60717 0.40539 0.60717 0.86148v33.548c0 0.4561-0.25 0.81084-0.60717 0.81084h-51.717c-0.32144 0-0.60717-0.35474-0.60717-0.81084zm1.1785 33.548-0.57146-0.86147h51.717l-0.57144 0.86147v-33.548l0.57144 0.86145h-51.717l0.57146-0.86145z" stroke="#000" stroke-width=".042544px"/>
  <text id="text3304" font-size="14.758px" xml:space="preserve" transform="scale(1.0158 .98442)" y="516.99207" x="749.22955" font-family="Arial" line-height="125%" fill="#000000">MUX</text>
  <path id="path3306" stroke-linejoin="round" d="m803.94 500.23h13.616v1.0922h-13.616z" stroke="#000" stroke-width=".044384px"/>
  <path id="path3308" stroke-linejoin="round" d="m780.02 515.61v13.369h-1.5329v-13.369h1.5329zm3.742 11.929-4.5086 8.7384-4.5086-8.7384h9.0171z" stroke="#000" stroke-width=".044384px"/>
  <path id="path3310" stroke-linejoin="round" d="m751.92 275.33c0-0.39315 0.45895-0.74257 1.049-0.74257h61.958c0.59011 0 1.1146 0.34942 1.1146 0.74257v30.445c0 0.39311-0.5245 0.74256-1.1146 0.74256h-61.958c-0.5901 0-1.049-0.34945-1.049-0.74256zm1.5896 30.497-0.5407-0.79414h61.958l-0.49194 1.0124 0.093-30.805 0.39909 0.8325h-61.958l0.59288-0.63931z" stroke="#000" stroke-width=".053516px"/>
  <text id="text3312" font-size="16.234px" xml:space="preserve" transform="scale(1.0158 .98442)" y="300.30051" x="744.35156" font-family="Arial" line-height="125%" fill="#000000">SelCop</text>
  <path id="path3314" fill-rule="evenodd" d="m662.3 425.33c0-1.2234 0.94677-2.2283 2.1641-2.2283 1.1722 0 2.119 1.0049 2.119 2.2283s-0.9468 2.1847-2.119 2.1847c-1.2173 0-2.1641-0.96123-2.1641-2.1847"/>
  <path id="path3316" stroke-linejoin="round" d="m660.09 425.1v-0.26215l0.0453-0.48061c0-0.0874 0.0452-0.17479 0.0452-0.26217l0.13524-0.39324c0.0452-0.0874 0.0452-0.17477 0.0901-0.26214l0.22541-0.34955c0.0452-0.0874 0.0901-0.17476 0.13524-0.26215l0.27052-0.30586c0.0453-0.0874 0.09-0.13105 0.18036-0.21844l0.31559-0.26215c0.0902-0.0874 0.18036-0.13107 0.2705-0.17476l0.36069-0.21849c0.0904-0.0436 0.18035-0.0436 0.27052-0.0874l0.40576-0.13107c0.0904-0.0436 0.18033-0.0436 0.31561-0.0874l0.40577-0.0436h0.31558l0.45086 0.0436c0.0901 0.0436 0.18032 0.0436 0.3156 0.0874l0.40575 0.13107c0.09 0.0436 0.18035 0.0436 0.27054 0.0874l0.36066 0.21849c0.0902 0.0436 0.18035 0.0874 0.22544 0.17476l0.31557 0.26215 0.18036 0.17476 0.27052 0.34954c0.0902 0.0874 0.13524 0.17477 0.18032 0.26215l0.18035 0.34955c0.0453 0.0874 0.0902 0.17478 0.0902 0.26214l0.13524 0.39324c0.0452 0.0874 0.0452 0.17476 0.0452 0.26217l0.0453 0.48061c0.0452 0.0874 0.0452 0.17474 0 0.26215l-0.0453 0.4369c0 0.13107 0 0.21846-0.0452 0.30587l-0.13524 0.39321c0 0.0874-0.0452 0.17477-0.0902 0.21845l-0.18035 0.39324c-0.0453 0.0874-0.09 0.17475-0.18032 0.26216l-0.27052 0.30584c-0.0453 0.0874-0.0904 0.13107-0.18036 0.17476l-0.31557 0.30586c-0.0453 0.0436-0.13527 0.13106-0.22544 0.17476l-0.36066 0.17477c-0.0901 0.0436-0.18034 0.0874-0.27054 0.13107l-0.40575 0.13109c-0.13528 0.0436-0.22542 0.0436-0.3156 0.0436l-0.45086 0.0436c-0.0903 0.0436-0.18033 0.0436-0.31558 0l-0.40577-0.0436c-0.13528 0-0.22543 0-0.31561-0.0436l-0.40576-0.13109c-0.0904-0.0436-0.18034-0.0874-0.27052-0.13107l-0.36069-0.17477c-0.0902-0.0436-0.18033-0.13108-0.2705-0.17476l-0.31559-0.30586c-0.0903-0.0436-0.13525-0.13105-0.18036-0.17476l-0.27052-0.34951c-0.0452-0.0436-0.0901-0.13108-0.13524-0.21849l-0.22541-0.39324c0-0.0436-0.0453-0.13105-0.0901-0.21845l-0.0903-0.39321c-0.0453-0.0874-0.0902-0.1748-0.0902-0.30587zm3.0658 0.17477-0.0901-0.26218 0.13527 0.39326-0.0903-0.21848 0.18033 0.34953-0.13525-0.21847 0.27052 0.30587-0.22543-0.17478 0.31559 0.26215-0.22543-0.17477 0.36069 0.17477-0.2705-0.0874 0.40576 0.13105-0.31561-0.0874 0.40577 0.0436h-0.31562l0.45088-0.0436-0.3156 0.0874 0.40579-0.13105-0.27052 0.0874 0.36066-0.17477-0.27049 0.17477 0.31558-0.26215-0.18034 0.17478 0.27052-0.34953-0.18035 0.26213 0.22543-0.34953-0.0903 0.21848 0.0903-0.39326-0.0452 0.26218 0.0452-0.43692v0.26215l-0.0452-0.43693 0.0452 0.26215-0.13526-0.43692 0.13526 0.26215-0.22543-0.34955 0.18035 0.26217-0.27052-0.34953 0.18034 0.17476-0.31558-0.26216 0.27049 0.17476-0.36066-0.17476 0.27052 0.0874-0.40579-0.13108 0.3156 0.0874-0.45088-0.0436h0.31562l-0.40577 0.0436 0.31561-0.0874-0.40576 0.13108 0.2705-0.0874-0.36069 0.17476 0.22543-0.17476-0.31559 0.26216 0.22543-0.21847-0.27052 0.34954 0.13525-0.21847-0.18033 0.34955 0.0903-0.26215-0.13527 0.43692 0.0901-0.26215-0.0452 0.43693v-0.26215z" stroke="#000" stroke-width=".044384px"/>
  <path id="path3318" stroke-linejoin="round" d="m789.83 348.03 0.31147 127.25-1.4883-0.008-0.31147-127.25 1.4883 0.008zm4.068 125.94-4.495 7.5014-4.5261-7.4859 9.0211-0.0153z" stroke="#000" stroke-width=".041108px"/>
  <path id="path3320" stroke-linejoin="round" d="m763.98 375.24 0.45069 98.284h-1.4872l-0.49575-98.235 1.5322-0.0503zm4.1912 96.579-4.4617 10.029-4.5519-9.9789 9.0135-0.0503z" stroke="#000" stroke-width=".047539px"/>
  <text id="text3322" font-size="11.896px" xml:space="preserve" transform="scale(1.0158 .98442)" y="503.2803" x="797.91272" font-family="Arial" fill="#000000">MC</text>
  <path id="path3324" stroke-linejoin="round" d="m792.88 448.28-12.128 8.6948 0.67626 0.87383 12.129-8.6511z" stroke="#000" stroke-width=".044384px"/>
  <path id="path3326" stroke-linejoin="round" d="m761.66 423.45-12.128 8.6511 0.6312 0.91752 12.128-8.6948z" stroke="#000" stroke-width=".044384px"/>
  <text id="text3328" font-size="11.896px" xml:space="preserve" transform="matrix(-.072879 -1.037 .95935 -.070628 0 0)" line-height="125%" y="754.64008" x="-491.43924" font-family="Arial" fill="#000000"><tspan id="tspan4439" y="754.64008" x="-491.43924">IR3 -- IR0</tspan></text>
  <text id="text3330" font-size="11.896px" xml:space="preserve" transform="scale(1.0158 .98442)" y="460.18515" x="762.89539" font-family="Arial" fill="#000000">4</text>
  <text id="text3332" font-size="11.896px" xml:space="preserve" transform="scale(1.0158 .98442)" y="477.93622" x="446.04361" font-family="Arial" fill="#000000">5</text>
  <text id="text3334" font-size="11.896px" xml:space="preserve" transform="scale(1.0158 .98442)" y="477.34991" x="529.15918" font-family="Arial" fill="#000000">5</text>
  <text id="text3336" font-size="11.896px" xml:space="preserve" transform="scale(1.0158 .98442)" y="475.07205" x="612.34656" font-family="Arial" fill="#000000">5</text>
  <text id="text3338" font-size="10.297px" xml:space="preserve" transform="scale(1.0158 .98442)" y="506.03384" x="453.2254" font-family="Arial" fill="#000000">0</text>
  <text id="text3340" font-size="10.297px" xml:space="preserve" transform="scale(1.0158 .98442)" y="506.28598" x="479.12036" font-family="Arial" fill="#000000">1</text>
  <text id="text3342" font-size="14.735px" xml:space="preserve" transform="scale(1.0158 .98442)" y="562.88446" x="545.13263" font-family="Arial" fill="#000000">RB</text>
  <text id="text3344" font-size="14.735px" xml:space="preserve" transform="scale(1.0158 .98442)" y="561.82306" x="629.75751" font-family="Arial" fill="#000000">RC</text>
  <text id="text3346" font-size="14.735px" xml:space="preserve" transform="scale(1.0158 .98442)" y="562.36743" x="461.97406" font-family="Arial" fill="#000000">RA</text>
  <text id="text3348" font-size="14.735px" xml:space="preserve" transform="scale(1.0158 .98442)" y="560.18964" x="754.28333" font-family="Arial" fill="#000000">Cop</text>
  <text id="text3350" font-size="10.297px" xml:space="preserve" transform="scale(1.0158 .98442)" y="506.03391" x="537.41705" font-family="Arial" fill="#000000">0</text>
  <text id="text3352" font-size="10.297px" xml:space="preserve" transform="scale(1.0158 .98442)" y="506.28601" x="564.46637" font-family="Arial" fill="#000000">1</text>
  <text id="text3354" font-size="10.297px" xml:space="preserve" transform="scale(1.0158 .98442)" y="500.27148" x="749.47095" font-family="Arial" fill="#000000">0</text>
  <text id="text3356" font-size="10.297px" xml:space="preserve" transform="scale(1.0158 .98442)" y="497.81961" x="775.30902" font-family="Arial" fill="#000000">1</text>
  <text id="text3358" font-size="11.807px" xml:space="preserve" transform="scale(1.0158 .98442)" y="168.44598" x="263.06412" font-family="Arial" line-height="125%" fill="#000000">A1</text>
  <text id="text3362" font-size="17.753px" xml:space="preserve" transform="scale(1.0158 .98442)" y="281.8891" x="261.48407" font-family="Arial" fill="#000000">MUX B</text>
  <path id="path3364" stroke-linejoin="round" d="m252.85 300.47c0 0.4151 0.26798 0.74279 0.63169 0.74279h79.594c0.34453 0 0.63167-0.32769 0.63167-0.74279v-46.468c0-0.39325-0.28714-0.72095-0.63167-0.72095h-79.594c-0.36371 0-0.63169 0.3277-0.63169 0.72095zm1.2634-46.468-0.63167 0.72095h79.594l-0.6317-0.72095v46.468l0.6317-0.72095h-79.594l0.63167 0.72095z" stroke="#000" stroke-width=".020449px"/>
  <text id="text3366" font-size="10.297px" xml:space="preserve" transform="scale(1.0158 .98442)" y="298.71042" x="268.57889" font-family="Arial" fill="#000000">0</text>
  <text id="text3368" font-size="10.297px" xml:space="preserve" transform="scale(1.0158 .98442)" y="298.96237" x="299.98782" font-family="Arial" fill="#000000">1</text>
  <path id="path3372" stroke-linejoin="round" d="m309.41 321.56v-13.369h-1.5103v13.369h1.5103zm3.742-11.907-4.5085-8.7384-4.5086 8.7384h9.017z" stroke="#000" stroke-width=".022192px"/>
  <text id="text3374" font-size="11.807px" xml:space="preserve" transform="scale(1.0158 .98442)" y="73.067368" x="225.98508" font-family="Arial" line-height="125%" fill="#000000">00</text>
  <text id="text3376" font-size="11.807px" xml:space="preserve" transform="scale(1.0158 .98442)" y="99.944283" x="225.98508" font-family="Arial" line-height="125%" fill="#000000"><tspan id="tspan5996" y="99.944283" x="225.98508">01</tspan></text>
  <text id="text3378" font-size="11.807px" xml:space="preserve" transform="scale(1.0158 .98442)" y="126.82114" x="225.18951" font-family="Arial" line-height="125%" fill="#000000"><tspan id="tspan5998" y="126.82114" x="225.18951">10</tspan></text>
  <text id="text3380" font-size="11.807px" xml:space="preserve" transform="scale(1.0158 .98442)" y="153.69806" x="225.18951" font-family="Arial" line-height="125%" fill="#000000">11</text>
  <path id="path3382" fill-rule="evenodd" fill="#fff" d="m300.23 344.27 8.521-16.516 8.5212 16.516z"/>
  <path id="path3384" stroke-linejoin="round" d="m300.23 340.5c-0.20293 0-0.38328-0.0827-0.49603-0.19794-0.09-0.13191-0.11271-0.28034-0.0224-0.39577l8.5225-12.468c0.0901-0.14841 0.2931-0.23088 0.51855-0.23088 0.20291 0 0.40582 0.0826 0.49603 0.23088l8.5225 12.468c0.0903 0.11543 0.0675 0.26386-0.0224 0.39577-0.11273 0.11545-0.2931 0.19794-0.47347 0.19794zm17.045-0.82457-0.51856 0.5937-8.5225-12.468h1.0146l-8.5225 12.468-0.496-0.5937z" stroke="#000" stroke-width=".019283px"/>
  <path id="path3386" fill-rule="evenodd" fill="#fff" d="m304.36 324.18c0-2.272 1.916-4.1288 4.2604-4.1288 2.367 0 4.2605 1.8568 4.2605 4.1288s-1.8936 4.1288-4.2605 4.1288c-2.3445 0-4.2604-1.8568-4.2604-4.1288"/>
  <path id="path3388" stroke-linejoin="round" d="m303.81 324.26c-0.0224-0.0436-0.0224-0.0874 0-0.1311l0.0902-0.83014c0-0.0218 0-0.0655 0.0224-0.0874l0.24795-0.78646c0-0.0218 0.0224-0.0655 0.0224-0.0874l0.38322-0.69908c0.0224-0.0436 0.0452-0.0653 0.0674-0.10927l0.54102-0.61169 0.0676-0.0654 0.63122-0.50246c0.0224-0.0218 0.0676-0.0436 0.0901-0.0436l0.72136-0.39323c0.0223-0.0218 0.0675-0.0218 0.11274-0.0436l0.78897-0.24032c0.0453 0 0.0676-0.0218 0.11273-0.0218l0.8566-0.0874h0.11273l0.8566 0.0874c0.0453 0 0.0676 0.0218 0.11273 0.0218l0.78899 0.24032c0.0453 0.0218 0.0676 0.0218 0.11273 0.0436l0.72136 0.39323c0.0224 0 0.0676 0.0218 0.09 0.0436l0.63122 0.50246 0.0676 0.0654 0.54104 0.61169c0.0224 0.0436 0.0453 0.0655 0.0676 0.10927l0.38323 0.69908c0 0.0218 0.0224 0.0656 0.0224 0.0874l0.24797 0.78646c0.0223 0.0218 0.0223 0.0656 0.0223 0.0874l0.0904 0.83014c0.0224 0.0436 0.0224 0.0874 0 0.1311l-0.0904 0.83014c0 0.0218 0 0.0654-0.0223 0.0874l-0.24797 0.78646c0 0.0218-0.0224 0.0654-0.0224 0.0874l-0.38323 0.69908c-0.0224 0.0436-0.0453 0.0657-0.0676 0.10927l-0.54104 0.61169-0.0676 0.0655-0.63122 0.50246c-0.0224 0.0218-0.0676 0.0436-0.09 0.0655l-0.72136 0.37139c-0.0453 0.0218-0.0674 0.0218-0.11273 0.0436l-0.78899 0.24031c-0.0453 0-0.0676 0.0218-0.11273 0.0218l-0.8566 0.0874h-0.11273l-0.8566-0.0874c-0.0453 0-0.0676-0.0218-0.11273-0.0218l-0.78897-0.24031c-0.0453-0.0218-0.0676-0.0218-0.11274-0.0436l-0.72136-0.37139c-0.0224-0.0218-0.0676-0.0436-0.0901-0.0655l-0.63122-0.50246-0.0676-0.0655-0.54102-0.61169c-0.0225-0.0436-0.0453-0.0654-0.0674-0.10927l-0.38322-0.69908c0-0.0219-0.0224-0.0655-0.0224-0.0874l-0.24795-0.78646c-0.0224-0.0217-0.0224-0.0652-0.0224-0.0874zm1.1948 0.69906-0.0224-0.0874 0.24797 0.76462-0.0223-0.0874 0.3832 0.69909-0.0676-0.10925 0.51849 0.61169-0.0676-0.0655 0.63119 0.52431-0.09-0.0654 0.72139 0.37138-0.11275-0.0436 0.81156 0.24032-0.11272-0.0218 0.8566 0.0874h-0.11273l0.85664-0.0874-0.11272 0.0218 0.81154-0.24032-0.11274 0.0436 0.72138-0.37138-0.0901 0.0654 0.63119-0.52431-0.0676 0.0655 0.51849-0.61169-0.0674 0.10925 0.38321-0.69909-0.0224 0.0874 0.24797-0.76462-0.0224 0.0874 0.0901-0.83016v0.1311l-0.0901-0.83014 0.0224 0.0874-0.24797-0.7646 0.0224 0.0874-0.38321-0.69908 0.0674 0.10926-0.51849-0.61166 0.0676 0.0653-0.63119-0.50243 0.0901 0.0436-0.72138-0.37138 0.11274 0.0436-0.81154-0.24029 0.11272 0.0218-0.85664-0.0874h0.11273l-0.8566 0.0874 0.11272-0.0218-0.81156 0.24029 0.11275-0.0436-0.72139 0.37138 0.09-0.0436-0.63119 0.50243 0.0676-0.0653-0.51849 0.61166 0.0676-0.10926-0.3832 0.69908 0.0223-0.0874-0.24797 0.7646 0.0224-0.0874-0.0902 0.83014v-0.1311z" stroke="#000" stroke-width=".022192px"/>
  <path id="path3390" stroke-linejoin="round" d="m309.65 356.26v-16.516h-1.1271v16.516z" stroke="#000" stroke-width=".022192px"/>
  <path id="path3392" stroke-linejoin="round" d="m274.64 355.45h34.783v1.0923h-34.783z" stroke="#000" stroke-width=".022192px"/>
  <path id="path3394" fill-rule="evenodd" fill="#d9d9d9" d="m444.38 274.84v32.048h21.423v-32.048h-21.423z"/>
  <path id="path3396" stroke-linejoin="round" d="m443.25 275.04c0-0.38071 0.40325-0.69793 0.95046-0.69793h21.398c0.51844 0 0.95045 0.31722 0.95045 0.69793v31.027c0 0.3807-0.43201 0.69793-0.95045 0.69793h-21.398c-0.54721 0-0.95046-0.31723-0.95046-0.69793zm1.9008 31.027-0.95043-0.69795h21.398l-0.97925 0.69795v-31.027l0.97925 0.69793h-21.398l0.95043-0.69793z" stroke="#000" stroke-width=".024682px"/>
  <path id="path3398" fill-rule="evenodd" fill="#d9d9d9" d="m466.07 274.84v32.048h29.824v-32.048h-29.824z"/>
  <path id="path3400" stroke-linejoin="round" d="m465.31 275.04c0-0.38073 0.31562-0.69802 0.74393-0.69802h29.824c0.40577 0 0.74394 0.31729 0.74394 0.69802v31.029c0 0.38073-0.33817 0.69799-0.74394 0.69799h-29.824c-0.42831 0-0.74393-0.31726-0.74393-0.69799zm1.4879 31.029-0.74392-0.69799h29.824l-0.76644 0.69799v-31.029l0.76644 0.698h-29.824l0.74392-0.698z" stroke="#000" stroke-width=".021837px"/>
  <path id="path3402" fill-rule="evenodd" fill="#d9d9d9" d="m422.85 274.84v32.048h21.267v-32.048h-21.267z"/>
  <path id="path3404" stroke-linejoin="round" d="m422.5 275.04c0-0.38069 0.3971-0.69793 0.93605-0.69793h21.076c0.51058 0 0.93606 0.31724 0.93606 0.69793v31.027c0 0.38069-0.42548 0.69793-0.93606 0.69793h-21.076c-0.53895 0-0.93605-0.31724-0.93605-0.69793zm1.8721 31.027-0.93609-0.69796h21.076l-0.9644 0.69796v-31.027l0.9644 0.69792h-21.076l0.93609-0.69792z" stroke="#000" stroke-width=".024494px"/>
  <text id="text3406" font-size="13.282px" xml:space="preserve" transform="scale(1.0158 .98442)" y="300.69626" x="418.94452" font-family="Arial" line-height="125%" fill="#000000">A0</text>
  <text id="text3408" font-size="16.234px" xml:space="preserve" transform="scale(1.0158 .98442)" y="301.81445" x="442.31784" font-family="Arial" line-height="125%" fill="#000000">B</text>
  <text id="text3410" font-size="16.234px" xml:space="preserve" transform="scale(1.0158 .98442)" y="301.81445" x="467.18335" font-family="Arial" line-height="125%" fill="#000000">C</text>
  <text id="text3412" font-size="14.735px" xml:space="preserve" transform="scale(1.0158 .98442)" y="243.50885" x="530.94666" font-family="Arial" fill="#000000">µAddress</text>
  <path id="path3414" stroke-linejoin="round" d="m481.49 306.54v35.063h-1.1022v-35.063z" stroke="#000" stroke-width=".021945px"/>
  <path id="path3416" stroke-linejoin="round" d="m567.72 201.49v23.568h-1.1258v-23.568z" stroke="#000" stroke-width=".023511px"/>
  <path id="path3418" stroke-linejoin="round" d="m496.47 271.88 0.0452-2.5341 0.13526-2.4031 0.0904-1.1359 0.13525-1.0486 0.13525-1.0049 0.13527-0.87385 0.13527-0.87383 0.18033-0.74277 0.18035-0.65537 0.22541-0.568 0.18034-0.43693c0.0453-0.0436 0.0453-0.0874 0.0453-0.0874l0.22545-0.30586c0.0452-0.0436 0.0452-0.0874 0.09-0.0874l0.22543-0.21847c0.0453-0.0436 0.13526-0.0874 0.22544-0.13109l0.22543-0.0436c0.0452-0.0436 0.0902-0.0436 0.13525-0.0436h65.463l-0.18033 0.0436 0.22542-0.0874-0.22542 0.13105 0.22542-0.17475-0.09 0.0874 0.22542-0.30582-0.0452 0.0874 0.18035-0.43693 0.18034-0.48061 0.18034-0.61169 0.13525-0.69907 0.18034-0.78646 0.13526-0.87386 0.0903-0.96122 0.13528-1.0486 0.0903-1.0923 0.0901-2.3594 0.0453-2.5341c0.0452-0.30584 0.27051-0.52431 0.5861-0.52431 0.31562 0 0.54101 0.21847 0.54101 0.52431l0.0452 2.5778 0.13527 2.3157 0.0902 1.0923 0.13526 1.0486 0.0903 0.96122 0.13524 0.87386 0.18035 0.78646 0.13525 0.69907 0.18035 0.61169 0.18033 0.5243 0.18034 0.39323-0.0452-0.0874 0.22544 0.30582-0.0902-0.0874 0.22543 0.17475-0.22543-0.13104 0.22543 0.0874-0.18033-0.0436h65.463c0.0453 0 0.0902 0 0.13526 0.0436l0.22546 0.0436c0.0902 0.0436 0.18033 0.0874 0.2254 0.1311l0.22544 0.21846c0.0452 0 0.0452 0.0436 0.0902 0.0874l0.22541 0.30586s0 0.0436 0.0452 0.0874l0.18035 0.39322 0.22543 0.61171 0.18033 0.65537 0.18032 0.74275 0.13529 0.83016 0.13526 0.91754 0.13523 1.0049 0.13527 1.0486 0.0902 1.0922 0.0902 2.4031 0.0453 2.5778h-1.1272l-0.0452-2.5341-0.0902-2.3594-0.0903-1.0486-0.13527-1.0486-0.0901-0.96123-0.13527-0.87386-0.18032-0.83014-0.13527-0.65539-0.18033-0.61168-0.18033-0.5243-0.18034-0.39322 0.0452 0.0874-0.22543-0.30585 0.0901 0.0874-0.22543-0.21844 0.22543 0.13106-0.22543-0.0436h0.18033-65.463-0.13526l-0.22544-0.0874c-0.0901 0-0.18032-0.0436-0.22541-0.13109l-0.22542-0.17478c-0.0452-0.0436-0.0452-0.0874-0.0903-0.0874l-0.22541-0.30586c0-0.0436 0-0.0874-0.0452-0.0874l-0.18034-0.48061-0.22543-0.56801-0.18034-0.65536-0.18034-0.74276-0.13527-0.83017-0.13526-0.91754-0.13523-0.9612-0.13527-1.0923-0.0902-1.0923-0.13528-2.4031-0.0453-2.5341h1.1271l-0.0453 2.5341-0.0901 2.4031-0.0902 1.136-0.13527 1.0486-0.13525 0.9612-0.13526 0.91754-0.13526 0.83017-0.18032 0.78645-0.18037 0.65539-0.22543 0.56799-0.18035 0.43692c-0.0452 0-0.0452 0.0436-0.0452 0.0874l-0.22543 0.30586c-0.0452 0-0.0452 0.0436-0.0901 0.0874l-0.22545 0.17479c-0.0452 0.0874-0.13525 0.13107-0.22541 0.13107l-0.22543 0.0874h-0.13525-65.463 0.18032l-0.22541 0.0436 0.22541-0.13106-0.22541 0.21845 0.09-0.0874-0.22542 0.30585 0.0453-0.0874-0.18037 0.39322-0.18034 0.48061-0.18033 0.61171-0.13526 0.69905-0.18034 0.78647-0.13524 0.87384-0.0901 1.0049-0.13523 1.0049-0.0902 1.0922-0.13524 2.3594-0.0452 2.5341z" stroke="#000" stroke-width=".044384px"/>
  <path id="path3422" stroke-linejoin="round" d="m99.105 515.55c0-0.3588 0.33813-0.62318 0.74391-0.62318h24.526c0.4283 0 0.76644 0.26438 0.76644 0.62318v26.193c0 0.33992-0.33814 0.62317-0.76644 0.62317h-24.526c-0.40577 0-0.74391-0.28325-0.74391-0.62317zm1.5103 26.193-0.76646-0.62319h24.526l-0.7439 0.62319v-26.193l0.7439 0.62322h-24.526l0.76646-0.62322z" stroke="#000" stroke-width=".020632px"/>
  <text id="text3424" font-size="26.629px" xml:space="preserve" transform="scale(1.0158 .98442)" y="546.90918" x="105.55022" font-family="Arial" fill="#ffffff">º</text>
  <path id="path3426" stroke-linejoin="round" d="m123.62 515.55c0-0.3588 0.33815-0.62318 0.74394-0.62318h24.528c0.40577 0 0.74391 0.26438 0.74391 0.62318v26.193c0 0.33992-0.33814 0.62317-0.74391 0.62317h-24.528c-0.40579 0-0.74394-0.28325-0.74394-0.62317zm1.5103 26.193-0.76643-0.62319h24.528l-0.74392 0.62319v-26.193l0.74392 0.62322h-24.528l0.76643-0.62322z" stroke="#000" stroke-width=".020632px"/>
  <path id="path3428" stroke-linejoin="round" d="m148.14 515.55c0-0.3588 0.33816-0.62318 0.74393-0.62318h24.526c0.40578 0 0.74392 0.26438 0.74392 0.62318v26.193c0 0.33992-0.33814 0.62317-0.74392 0.62317h-24.526c-0.40577 0-0.74393-0.28325-0.74393-0.62317zm1.4878 26.193-0.74391-0.62319h24.526l-0.74393 0.62319v-26.193l0.74393 0.62322h-24.526l0.74391-0.62322z" stroke="#000" stroke-width=".020632px"/>
  <path id="path3430" stroke-linejoin="round" d="m225.43 515.55c0-0.3588 0.33814-0.62318 0.74392-0.62318h24.528c0.40577 0 0.7439 0.26438 0.7439 0.62318v26.193c0 0.33992-0.33813 0.62317-0.7439 0.62317h-24.528c-0.40578 0-0.74392-0.28325-0.74392-0.62317zm1.5103 26.193-0.76647-0.62319h24.526l-0.74388 0.62319v-26.193l0.74388 0.62322h-24.526l0.76647-0.62322z" stroke="#000" stroke-width=".020632px"/>
  <path id="path3432" stroke-linejoin="round" d="m249.95 515.55c0-0.3588 0.33813-0.62318 0.74391-0.62318h24.526c0.40576 0 0.74388 0.26438 0.74388 0.62318v26.193c0 0.33992-0.33812 0.62317-0.74388 0.62317h-24.526c-0.40578 0-0.74391-0.28325-0.74391-0.62317zm1.4878 26.193-0.74393-0.62319h24.526l-0.76644 0.62319v-26.193l0.76644 0.62322h-24.526l0.74393-0.62322z" stroke="#000" stroke-width=".020632px"/>
  <text id="text3434" font-size="14.735px" xml:space="preserve" transform="scale(1.0158 .98442)" y="542.20306" x="105.04623" font-family="Arial" line-height="125%" fill="#000000"><tspan id="tspan3657" y="542.20306" x="105.04623">C</tspan></text>
  <text id="text3436" font-size="14.735px" xml:space="preserve" transform="scale(1.0158 .98442)" y="542.20306" x="129.77831" font-family="Arial" line-height="125%" fill="#000000"><tspan id="tspan3655" y="542.20306" x="129.77831">V</tspan></text>
  <text id="text3438" font-size="14.735px" xml:space="preserve" transform="scale(1.0158 .98442)" y="542.20306" x="153.88536" font-family="Arial" line-height="125%" fill="#000000"><tspan id="tspan3653" y="542.20306" x="153.88536">N</tspan></text>
  <text id="text3440" font-size="14.735px" xml:space="preserve" transform="scale(1.0158 .98442)" y="542.20306" x="233.03081" font-family="Arial" fill="#000000">I</text>
  <text id="text3442" font-size="14.735px" xml:space="preserve" transform="scale(1.0158 .98442)" y="542.20306" x="253.54735" font-family="Arial" fill="#000000">U</text>
  <path id="path3444" stroke-linejoin="round" d="m172.68 515.55c0-0.3588 0.3156-0.62318 0.74392-0.62318h52.75c0.4283 0 0.76645 0.26438 0.76645 0.62318v26.193c0 0.33992-0.33815 0.62317-0.76645 0.62317h-52.75c-0.42832 0-0.74392-0.28325-0.74392-0.62317zm1.4878 26.193-0.74391-0.62319h52.75l-0.74391 0.62319v-26.193l0.74391 0.62322h-52.75l0.74391-0.62322z" stroke="#000" stroke-width=".020632px"/>
  <text id="text3446" font-size="11.807px" xml:space="preserve" transform="scale(1.0158 .98442)" y="563.65436" x="104.56142" font-family="Arial" line-height="125%" fill="#000000">31</text>
  <text id="text3448" font-size="11.807px" xml:space="preserve" transform="scale(1.0158 .98442)" y="563.65436" x="127.64197" font-family="Arial" line-height="125%" fill="#000000">30</text>
  <text id="text3450" font-size="11.807px" xml:space="preserve" transform="scale(1.0158 .98442)" y="563.65436" x="151.97575" font-family="Arial" line-height="125%" fill="#000000">29</text>
  <text id="text3452" font-size="11.807px" xml:space="preserve" transform="scale(1.0158 .98442)" y="563.65436" x="231.0769" font-family="Arial" line-height="125%" fill="#000000">1</text>
  <text id="text3454" font-size="13.282px" xml:space="preserve" transform="scale(1.0158 .98442)" y="494.2872" x="268.88391" font-family="Arial" line-height="125%" fill="#000000">MRdy</text>
  <text id="text3456" font-size="13.282px" xml:space="preserve" transform="scale(1.0158 .98442)" y="517.29181" x="295.32077" font-family="Arial" line-height="125%" fill="#000000">IORdy</text>
  <text id="text3458" font-size="13.282px" xml:space="preserve" transform="scale(1.0158 .98442)" y="494.80414" x="328.12979" font-family="Arial" line-height="125%" fill="#000000">INT</text>
  <text id="text3460" font-size="11.807px" xml:space="preserve" transform="scale(1.0158 .98442)" y="449.70029" x="156.6992" font-family="Arial" line-height="125%" fill="#000000">7</text>
  <text id="text3462" font-size="11.807px" xml:space="preserve" transform="scale(1.0158 .98442)" y="449.70029" x="179.87964" font-family="Arial" line-height="125%" fill="#000000">6</text>
  <text id="text3464" font-size="11.807px" xml:space="preserve" transform="scale(1.0158 .98442)" y="449.93542" x="231.49997" font-family="Arial" line-height="125%" fill="#000000">5</text>
  <text id="text3466" font-size="11.807px" xml:space="preserve" transform="scale(1.0158 .98442)" y="449.70029" x="255.21265" font-family="Arial" line-height="125%" fill="#000000">4</text>
  <text id="text3468" font-size="11.807px" xml:space="preserve" transform="scale(1.0158 .98442)" y="449.70032" x="284.77823" font-family="Arial" line-height="125%" fill="#000000">3</text>
  <text id="text3470" font-size="11.807px" xml:space="preserve" transform="scale(1.0158 .98442)" y="449.70032" x="310.52811" font-family="Arial" line-height="125%" fill="#000000">2</text>
  <text id="text3472" font-size="11.807px" xml:space="preserve" transform="scale(1.0158 .98442)" y="449.70032" x="334.75589" font-family="Arial" line-height="125%" fill="#000000">1</text>
  <text id="text3474" font-size="11.807px" xml:space="preserve" transform="scale(1.0158 .98442)" y="449.70032" x="359.81705" font-family="Arial" line-height="125%" fill="#000000">0</text>
  <text id="text3476" font-size="11.807px" xml:space="preserve" transform="scale(1.0158 .98442)" y="449.70029" x="131.58226" font-family="Arial" line-height="125%" fill="#000000">8</text>
  <path id="path3478" stroke-linejoin="round" d="m85.753 355.36 0.04339 2.2764 0.13024 2.118 0.08685 0.98973 0.08686 0.93033 0.13025 0.89078 0.13026 0.81158 0.15205 0.73239 0.15205 0.67303 0.17385 0.57404 0.19546 0.51466 0.21719 0.4157c0 0.0199 0.02157 0.0398 0.02157 0.0594l0.19547 0.2771c0.04339 0.0397 0.06528 0.0793 0.10866 0.0991l0.19549 0.17813c0.06528 0.0398 0.13025 0.0792 0.19547 0.0991l0.21718 0.0594c0.04339 0.0199 0.10866 0.0199 0.15205 0.0199h59.119l-0.17364-0.0199 0.21718 0.0594-0.19549-0.099 0.19549 0.15837-0.0868-0.099 0.19544 0.27709 0.15206 0.31674 0.15204 0.41567 0.17369 0.55426 0.15201 0.61364 0.13027 0.71261 0.13026 0.77198 0.13025 0.8512 0.0868 0.91055 0.0867 0.96992 0.13025 2.0982 0.0216 2.2368c0.0215 0.27711 0.26062 0.49486 0.54295 0.49486 0.30407 0 0.54298-0.21775 0.54298-0.49486l0.0436-2.2565 0.13025-2.0785 0.0868-0.96992 0.0868-0.93036 0.13027-0.83139 0.13023-0.79178 0.15204-0.71258 0.13026-0.63344 0.17385-0.53446 0.17365-0.43549 0.17367-0.33652-0.0436 0.0594 0.19543-0.27711-0.0867 0.099 0.19546-0.15837-0.19546 0.099 0.19546-0.0594-0.15207 0.0197h59.119c0.0653 0 0.1086 0 0.15205-0.0197l0.21719-0.0594c0.0652-0.0198 0.13024-0.0594 0.19546-0.099l0.2172-0.17811c0.0218-0.0199 0.0651-0.0594 0.0868-0.099l0.19547-0.27711c0.0214-0.0199 0.0214-0.0398 0.0436-0.0594l0.17383-0.37612 0.21719-0.51466 0.17365-0.59382 0.15207-0.67302 0.15203-0.75221 0.15207-0.79178 0.10861-0.89077 0.10863-0.93035 0.0868-0.98976 0.10862-2.118 0.0436-2.2961h-1.086l-0.0436 2.2368-0.10862 2.0982-0.0867 0.96996-0.0868 0.91052-0.13021 0.85119-0.13026 0.7918-0.13025 0.69284-0.15205 0.6334-0.17367 0.51466-0.15205 0.43547-0.19548 0.37612 0.0436-0.0594-0.19549 0.27712 0.0868-0.0989-0.19549 0.15835 0.19549-0.0991-0.21721 0.0594 0.17366-0.0199h-59.119c-0.0651 0-0.10861 0-0.17366 0.0199l-0.19545 0.0594c-0.0653 0.0199-0.15207 0.0594-0.19551 0.099l-0.21718 0.17814c-0.0215 0.0199-0.0652 0.0594-0.0867 0.0991l-0.19545 0.27713c-0.0217 0.0199-0.0217 0.0398-0.0436 0.0594l-0.19548 0.4157-0.19547 0.51465-0.17367 0.59384-0.17365 0.65323-0.13025 0.73241-0.15205 0.81157-0.10862 0.89078-0.10861 0.93038-0.0868 0.98972-0.13022 2.1378-0.0436 2.2565h1.086l-0.0436-2.2764-0.10862-2.1378-0.0868-0.96995-0.10861-0.95017-0.1086-0.87098-0.13027-0.83138-0.17385-0.73238-0.15205-0.67302-0.17367-0.57406-0.19545-0.53446-0.23895-0.43547-0.19545-0.27713c-0.0215-0.0398-0.0651-0.0793-0.0867-0.0991l-0.21718-0.17813c-0.0654-0.0398-0.13024-0.0792-0.19548-0.099l-0.21721-0.0594c-0.0435-0.0198-0.0868-0.0198-0.15205-0.0198h-59.119l0.17366 0.0198-0.21719-0.0594 0.21719 0.0991-0.21719-0.15837 0.08686 0.099-0.19545-0.27713 0.04339 0.0594-0.15204-0.33649-0.17368-0.4355-0.17385-0.53444-0.15205-0.63346-0.13026-0.71259-0.15205-0.77199-0.10866-0.85119-0.10866-0.93033-0.08685-0.95017-0.10866-2.0982-0.04339-2.2565z" stroke="#000" stroke-width=".020735px"/>
  <path id="path3480" stroke-linejoin="round" d="m239.55 515.62v-61.697h-1.4878v61.697h1.4878zm3.7647-60.465-4.5086-7.3492-4.5086 7.3492h9.017z" stroke="#000" stroke-width=".020352px"/>
  <path id="path3482" stroke-linejoin="round" d="m263.51 515.62v-61.697h-1.5103v61.697h1.5103zm3.7423-60.465-4.5086-7.3492-4.5085 7.3492h9.0171z" stroke="#000" stroke-width=".020352px"/>
  <path id="path3484" stroke-linejoin="round" d="m137.94 515.86v-61.673h-1.5104v61.673h1.5104zm3.7423-60.462-4.5086-7.3487-4.5085 7.3487h9.0172z" stroke="#000" stroke-width=".020352px"/>
  <path id="path3486" stroke-linejoin="round" d="m162.82 515.86v-61.673h-1.5104v61.673h1.5104zm3.7423-60.462-4.5086-7.3487-4.5086 7.3487h9.0172z" stroke="#000" stroke-width=".020352px"/>
  <path id="path3488" stroke-linejoin="round" d="m187.07 515.93v-61.697h-1.4878v61.697h1.4878zm3.7647-60.465-4.5086-7.3492-4.5086 7.3492h9.017z" stroke="#000" stroke-width=".020352px"/>
  <path id="path3490" stroke-linejoin="round" d="m634.82 449.72v29.333h-1.4877v-29.333h1.4877zm3.7869 27.925-4.5083 8.5267-4.5083-8.5267h9.0165z" stroke="#000" stroke-width=".043841px"/>
  <path id="path3492" stroke-linejoin="round" d="m549.79 452.58v27.92h-1.5103v-27.92h1.5103zm3.742 26.582-4.5084 8.1166-4.5085-8.1166h9.0168z" stroke="#000" stroke-width=".021388px"/>
  <path id="path3494" stroke-linejoin="round" d="m464.77 450.76v30.008h-1.5102v-30.008h1.5102zm3.7644 28.569-4.5083 8.7228-4.5083-8.7228h9.0165z" stroke="#000" stroke-width=".022171px"/>
  <path id="path3496" stroke-linejoin="round" d="m427.83 425.82h-35.853v1.4427h35.853v-1.4427zm-34.978-3.6505-5.2225 4.3718 5.2225 4.3719v-8.7436z" stroke="#000" stroke-width=".016894px"/>
  <path id="path3498" stroke-linejoin="round" d="m427.34 341.17h53.609v1.0933h-53.609z" stroke="#000" stroke-width=".020937px"/>
  <path id="path3500" stroke-linejoin="round" d="m146.75 201.61h420.94v1.324h-420.94z" stroke="#000" stroke-width=".023119px"/>
  <path id="path3502" stroke-linejoin="round" d="m843.28 548.29-0.10376-18.058 1.1608-0.006 0.10377 18.058z" stroke="#000" stroke-width=".027660px"/>
  <path id="path3504" stroke-linejoin="round" d="m117.08 93.28h98.141v1.4531h-98.141v-1.4531zm97.176-3.6383 5.7586 4.3703-5.7586 4.3703v-8.7407z" stroke="#000" stroke-width=".0088683px"/>
  <path id="path3118-3" stroke-linejoin="round" d="m398.49 159.95v-15.226h-1.5104v15.226h1.5104zm3.742-13.762-4.5086-8.7384-4.5086 8.7384h9.0171z" stroke="#000" stroke-width=".022192px"/>
  <g id="g4875" stroke-linejoin="round" stroke="#000" stroke-width=".043902px" transform="matrix(.83093 0 0 1.0652 73.379 -10.659)">
   <path id="path3042-5" d="m358.27 176.57h12.482v1.0923h-12.482z"/>
   <path id="path3044-3" d="m384.56 176.57h12.483v1.0923h-12.483z"/>
   <path id="path3046-8" d="m409.52 176.57h12.483v1.0923h-12.483z"/>
   <path id="path3048-7" d="m371.07 163.72h13.454v1.0923h-13.454z"/>
   <path id="path3050-6" d="m371.62 177.48v-13.588h-1.1028v13.588z"/>
   <path id="path3052-7" d="m384.73 177.48v-13.938h-1.1028v13.938z"/>
   <path id="path3054-4" d="m397.2 177.48v-13.938h-1.1028v13.938z"/>
   <path id="path3056-8" d="m410.66 177.14v-13.588h-1.1027v13.588z"/>
   <path id="path3058-1" d="m396.38 163.72h13.763v1.0923h-13.763z"/>
  </g>
  <path id="path3022-6" stroke-linejoin="round" d="m90.15 286.55c0 0.19943 0.46424 0.36114 1.0368 0.36114h122.9c0.57256 0 1.0368-0.16171 1.0368-0.36114v-59.138c0-0.19946-0.46421-0.36122-1.0368-0.36122h-122.9c-0.57256 0-1.0368 0.16176-1.0368 0.36122zm2.0735-59.138-1.0368 0.36119h122.9l-1.0369-0.36119v59.138l1.0369-0.36121h-122.9l1.0368 0.36121z" stroke="#000" stroke-width=".0091337px"/>
  <path id="path3100-8" stroke-linejoin="round" d="m116.82 93.397-0.1408 134.35h1.1771l0.14078-134.35z" stroke="#000" stroke-width=".014468px"/>
  <path id="path3100-9" stroke-linejoin="round" d="m434.96 22.374-0.13535 58.808h1.1278l0.13533-58.808z" stroke="#000" stroke-width=".0093708px"/>
  <text id="text3172-1" font-size="16.234px" xml:space="preserve" transform="scale(1.0158 .98442)" y="301.81445" x="643.66718" font-family="Arial" line-height="125%" fill="#000000"><tspan id="tspan4412" y="301.81445" x="643.66718">MR</tspan></text>
  <path id="path3180-5" stroke-linejoin="round" d="m648.83 275.32c0-0.39334 0.18821-0.743 0.45708-0.743h36.621c0.242 0 0.43019 0.34966 0.43019 0.743v30.462c0 0.39334-0.18819 0.74299-0.43019 0.74299h-36.621c-0.26887 0-0.45708-0.34965-0.45708-0.74299zm0.8873 30.462-0.43022-0.74303h36.621l-0.45707 0.74303v-30.462l0.45707 0.743h-36.621l0.43022-0.743z" stroke="#000" stroke-width=".034280px"/>
  <text id="text3172-1-5" font-size="16.234px" xml:space="preserve" transform="scale(1.0158 .98442)" y="301.81445" x="712.10352" font-family="Arial" line-height="125%" fill="#000000"><tspan id="tspan4435" y="301.81445" x="712.10352">MC</tspan></text>
  <path id="path3180-5-7" stroke-linejoin="round" d="m684.66 275.28c0-0.39338 0.18187-0.74302 0.44164-0.74302h35.382c0.23384 0 0.41566 0.34964 0.41566 0.74302v30.463c0 0.39337-0.18182 0.74302-0.41566 0.74302h-35.382c-0.25977 0-0.44164-0.34965-0.44164-0.74302zm0.85725 30.463-0.41561-0.74302h35.382l-0.44161 0.74302v-30.463l0.44161 0.743h-35.382l0.41561-0.743z" stroke="#000" stroke-width=".033696px"/>
  <text id="text4138" font-size="14.324px" xml:space="preserve" transform="scale(1.0808 .92521)" y="180.27106" x="390.79874" font-family="Arial" line-height="125%" fill="#000000"><tspan id="tspan4140" y="180.27106" x="390.79874">CLK</tspan></text>
  <path id="path3110-0" stroke-linejoin="round" d="m119.13 312.52-16.831 7.0917 0.47216 1.0205 16.809-7.1019z" stroke="#000" stroke-width=".022192px"/>
  <text id="text3112-0" font-size="11.896px" xml:space="preserve" transform="scale(1.0158 .98442)" line-height="125%" y="319.93228" x="99.062737" font-family="Arial" fill="#000000"><tspan id="tspan6982">6</tspan></text>
  <path id="path3124-2" stroke-linejoin="round" d="m199.64 328.65v-33.063h1.46v33.063h-1.46zm-3.6281-31.378 4.3583-10.138 4.3583 10.138h-8.7166z" stroke="#000" stroke-width=".011750px"/>
  <path id="path3124-2-4" stroke-linejoin="round" d="m110.67 328.65v-33.063h1.46v33.063h-1.46zm-3.6281-31.378 4.3583-10.138 4.3583 10.138h-8.7166z" stroke="#000" stroke-width=".011750px"/>
  <text id="text3112-0-4" font-size="11.896px" xml:space="preserve" transform="scale(1.0158 .98442)" y="319.52548" x="187.31444" font-family="Arial" fill="#000000">4</text>
  <path id="path3110-0-7" stroke-linejoin="round" d="m208.51 312.36-16.831 7.0918 0.47212 1.0205 16.809-7.1019z" stroke="#000" stroke-width=".022192px"/>
  <path id="path3310-3" stroke-linejoin="round" d="m814.58 275.18c0-0.39309 0.50479-0.74249 1.1538-0.74249h68.146c0.64904 0 1.226 0.3494 1.226 0.74249v30.443c0 0.39307-0.57687 0.74247-1.226 0.74247h-68.146c-0.64901 0-1.1538-0.3494-1.1538-0.74247zm1.7485 30.494-0.59472-0.79407h68.146l0.0366 0.488-0.26459-29.934 0.22781 0.48801h-68.146l0.65209-0.63926z" stroke="#000" stroke-width=".056123px"/>
  <text id="text3312-6" font-size="16.234px" xml:space="preserve" transform="scale(1.0158 .98442)" y="300.49704" x="805.16516" font-family="Arial" line-height="125%" fill="#000000"><tspan id="tspan3945" y="300.49704" x="805.16516">ExCode</tspan></text>
  <path id="path3324-5" stroke-linejoin="round" d="m848.53 385.03-12.128 8.6948 0.67636 0.87385 12.128-8.6511z" stroke="#000" stroke-width=".044384px"/>
  <text id="text3330-3" font-size="11.896px" xml:space="preserve" transform="scale(1.0158 .98442)" y="395.93329" x="817.67291" font-family="Arial" fill="#000000">4</text>
  <path id="path3131-3" stroke-linejoin="round" d="m852.2 518.7c0.25366 0 0.4683 0.13769 0.58537 0.3541 0.0976 0.21636 0.078 0.47207-0.0584 0.66878l-8.6241 12.137c-0.11709 0.17704-0.33169 0.27537-0.52682 0.27537-0.2146 0-0.40974-0.0984-0.52681-0.27537l-8.6436-12.137c-0.13659-0.19671-0.1561-0.45242-0.0391-0.66878 0.0977-0.21641 0.33172-0.3541 0.56585-0.3541zm-17.268 1.2982 0.52682-1.0425 8.6436 12.137h-1.0537l8.6241-12.137 0.52679 1.0425z" stroke="#000" stroke-width=".019591px"/>
  <path id="path3133-6" stroke-linejoin="round" d="m860.32 525.89h-12.505v-0.98354h12.505z" stroke="#000" stroke-width="1.0619px"/>
  <path id="path3139-7" stroke-linejoin="round" d="m842.57 498.5v15.093h1.3075v-15.093h-1.3075zm-3.2396 13.979 3.9032 6.6416 3.9032-6.6416h-7.8062z" stroke="#000" stroke-width="0.018px"/>
  <text id="text3147-5" font-size="13.029px" xml:space="preserve" transform="scale(.99594 1.0041)" line-height="125%" y="526.84729" x="865.8938" font-family="Arial" fill="#000000"><tspan id="tspan4426" y="526.84729" x="865.8938">T11</tspan></text>
  <path id="path3081-3" stroke-linejoin="round" d="m843.85 500.25v-193.94h-1.1607v193.94z" stroke="#000" stroke-width=".042371px"/>
  <path id="path3428-3" stroke-linejoin="round" d="m172.78 515.62c0-0.35881 0.33815-0.62319 0.74389-0.62319h24.528c0.40579 0 0.74391 0.26438 0.74391 0.62319v26.193c0 0.33991-0.33812 0.62318-0.74391 0.62318h-24.528c-0.40574 0-0.74389-0.28327-0.74389-0.62318zm1.4878 26.193-0.74392-0.62319h24.528l-0.74391 0.62319v-26.193l0.74391 0.62318h-24.528l0.74392-0.62318z" stroke="#000" stroke-width=".020632px"/>
  <text id="text3438-6" font-size="14.735px" xml:space="preserve" transform="scale(1.0158 .98442)" y="542.30151" x="178.83984" font-family="Arial" fill="#000000">Z</text>
  <text id="text3450-7" font-size="11.807px" xml:space="preserve" transform="scale(1.0158 .98442)" y="563.75281" x="176.22356" font-family="Arial" line-height="125%" fill="#000000"><tspan id="tspan3651" y="563.75281" x="176.22356">28</tspan></text>
  <text id="text3476-8" font-size="11.807px" xml:space="preserve" transform="scale(1.0158 .98442)" y="449.42435" x="107.64434" font-family="Arial" line-height="125%" fill="#000000"><tspan id="tspan3677" y="449.42435" x="107.64434">9</tspan></text>
  <path id="path3484-9" stroke-linejoin="round" d="m113.4 515.37v-61.673h-1.5104v61.673h1.5104zm3.7423-60.462-4.5086-7.3487-4.5086 7.3487h9.0172z" stroke="#000" stroke-width=".020352px"/>
  <text id="text3476-8-6" font-size="11.807px" xml:space="preserve" transform="scale(1.0158 .98442)" y="449.65948" x="78.28476" font-family="Arial" line-height="125%" fill="#000000"><tspan id="tspan3700" y="449.65948" x="78.28476">10</tspan></text>
  <path id="path3108-3" stroke-linejoin="round" d="m87.434 472.19v-17.805h-1.5104v17.805h1.5104zm3.7647-16.564-4.5086-7.411-4.5086 7.411h9.0172z" stroke="#000" stroke-width=".020435px"/>
  <path id="path3260-3" stroke-linejoin="round" d="m56.348 473.26 0.68354-215.89-0.8335-0.0368-0.68348 215.95z" stroke="#000" stroke-width=".24808px"/>
  <path id="path3260-3-8" stroke-linejoin="round" d="m55.853 257.35 33.387-0.17914-0.0096-1.3316-33.394 0.17955z" stroke="#000" stroke-width=".012331px"/>
  <path id="path3260-3-8-6" stroke-linejoin="round" d="m55.439 473.21 31.979-0.17921-0.0094-1.3321-31.987 0.1796z" stroke="#000" stroke-width=".012070px"/>
  <text id="text3038-0" font-size="17.753px" xml:space="preserve" transform="scale(1.0158 .98442)" y="251.57558" x="50.060654" font-family="Arial" line-height="125%" fill="#000000"><tspan id="tspan3777" y="251.57558" x="50.060654">InEx</tspan></text>
  <path id="path3232-6" stroke-linejoin="round" d="m789.68 347.7v-41.568h-1.1319v41.568z" stroke="#000" stroke-width=".039552px"/>
  <path id="path3100-8-7" stroke-linejoin="round" d="m274.03 355.19-0.14142 45.491h1.1825l0.14138-45.491z" stroke="#000" stroke-width=".0084386px"/>
  <path id="path3108-1" stroke-linejoin="round" d="m275.66 355.76-0.2538-45.779-1.2549-0.58095v46.36zm3.1258-45.567-3.8689-9.036-3.6151 8.8909z" stroke="#000" stroke-width=".030822px"/>
  <path id="path3198-7" fill-rule="evenodd" d="m272.65 355.67c0-1.2234 0.96933-2.2065 2.1416-2.2065 1.1948 0 2.1416 0.98308 2.1416 2.2065 0 1.2015-0.9468 2.1847-2.1416 2.1847-1.1722 0-2.1416-0.98308-2.1416-2.1847"/>
  <path id="path3200-1" stroke-linejoin="round" d="m271.16 355.8v-0.28396l0.0453-0.43694c0.0224-0.0874 0.0224-0.17478 0.0675-0.28401l0.11274-0.39321c0.0224-0.0874 0.0676-0.15295 0.0902-0.24032l0.20288-0.3714c0.0453-0.0874 0.0902-0.17475 0.15779-0.26215l0.27051-0.32767 0.18036-0.17478 0.31557-0.26216c0.0904-0.0654 0.18035-0.13107 0.27053-0.19661l0.36068-0.1966c0.0675-0.0436 0.15779-0.0656 0.24796-0.10927l0.40578-0.13109c0.1127-0.0218 0.2254-0.0436 0.31558-0.0654l0.42832-0.0436h0.31559l0.42832 0.0436c0.11272 0.0218 0.22542 0.0436 0.33815 0.0654l0.40574 0.13109c0.0902 0.0436 0.15779 0.0654 0.24797 0.10927l0.36069 0.1966c0.0902 0.0655 0.18035 0.13108 0.27051 0.19661l0.31561 0.26216c0.0676 0.0657 0.11271 0.10928 0.18033 0.17478l0.27052 0.32767c0.0452 0.0874 0.11272 0.1748 0.15781 0.26215l0.20287 0.3714c0.0224 0.0874 0.0674 0.15293 0.0902 0.24032l0.11272 0.39321c0.0452 0.10927 0.0452 0.19661 0.0676 0.28401l0.0452 0.43694v0.28396l-0.0452 0.45878c-0.0224 0.0874-0.0224 0.17477-0.0676 0.26216l-0.11272 0.41507c-0.0224 0.0874-0.0676 0.15294-0.0902 0.24032l-0.20287 0.37139c-0.0452 0.0874-0.11272 0.17473-0.15781 0.26213l-0.27052 0.3277c-0.0674 0.0655-0.11273 0.10923-0.18033 0.17477l-0.31561 0.26215c-0.0901 0.0654-0.18035 0.13108-0.27051 0.19661l-0.36069 0.19661c-0.0903 0.0436-0.15779 0.0656-0.24797 0.10926l-0.40574 0.1311c-0.11273 0.0218-0.22545 0.0436-0.33815 0.0654l-0.42832 0.0436h-0.31559l-0.42832-0.0436c-0.0903-0.0218-0.20289-0.0436-0.31558-0.0654l-0.40578-0.1311c-0.0903-0.0436-0.18032-0.0654-0.24796-0.10926l-0.36068-0.19661c-0.0901-0.0655-0.18034-0.13106-0.27053-0.19661l-0.31557-0.26215-0.18036-0.17477-0.27051-0.3277c-0.0674-0.0874-0.11272-0.17475-0.15779-0.26213l-0.20288-0.37139c-0.0224-0.0874-0.0674-0.15295-0.0902-0.24032l-0.11274-0.41507c-0.0452-0.0874-0.0452-0.17475-0.0675-0.26216zm3.0432 0.1748-0.0676-0.28401 0.13523 0.41507-0.0902-0.2403 0.18033 0.37136-0.15781-0.26212 0.2705 0.32768-0.18032-0.17477 0.31559 0.28401-0.27049-0.19664 0.36067 0.19664-0.24797-0.10926 0.40576 0.13106-0.33814-0.0653 0.42832 0.0436h-0.3156l0.4283-0.0436-0.31559 0.0653 0.40576-0.13106-0.24798 0.10926 0.36071-0.19664-0.27052 0.19664 0.3156-0.28401-0.18035 0.17477 0.27049-0.32768-0.15779 0.26212 0.18037-0.37136-0.0902 0.2403 0.13528-0.41507-0.0676 0.28401 0.0453-0.45876v0.28396l-0.0453-0.43691 0.0676 0.26216-0.13528-0.39323 0.0902 0.24028-0.18037-0.37136 0.15779 0.26215-0.27049-0.32769 0.18035 0.17476-0.3156-0.28397 0.27052 0.19661-0.36071-0.19661 0.24798 0.10924-0.40576-0.13108 0.31559 0.0654-0.4283-0.0436h0.3156l-0.42832 0.0436 0.33814-0.0654-0.40576 0.13108 0.24797-0.10924-0.36067 0.19661 0.27049-0.19661-0.31559 0.28397 0.18032-0.17476-0.2705 0.32769 0.15781-0.26215-0.18033 0.37136 0.0902-0.24028-0.13523 0.39323 0.0676-0.26216-0.0452 0.43691v-0.28396z" stroke="#000" stroke-width=".022192px"/>
  <text id="text3146-9" font-size="14.734px" xml:space="preserve" transform="matrix(.0043154 -.97075 1.0301 .0041820 0 0)" y="457.00894" x="-459.22891" font-family="Arial" line-height="125%" fill="#000000"><tspan id="tspan4821" y="457.00894" x="-459.22891">Sel RA</tspan></text>
  <text id="text3146-9-5" font-size="14.734px" xml:space="preserve" transform="matrix(-.0073663 -.97073 1.0301 -.0071386 0 0)" y="533.86115" x="-463.28189" font-family="Arial" line-height="125%" fill="#000000"><tspan id="tspan4823" y="533.86115" x="-463.28189">Sel RB</tspan></text>
  <text id="text3146-9-9" font-size="14.734px" xml:space="preserve" transform="matrix(.0095915 -.97071 1.0301 .0092950 0 0)" y="625.1228" x="-453.50598" font-family="Arial" line-height="125%" fill="#000000"><tspan id="tspan4825" y="625.1228" x="-453.50598">Sel RC</tspan></text>
  <text id="text3350-3" font-size="10.297px" xml:space="preserve" transform="scale(1.0158 .98442)" y="504.90796" x="621.57983" font-family="Arial" fill="#000000">0</text>
  <text id="text3352-3" font-size="10.297px" xml:space="preserve" transform="scale(1.0158 .98442)" y="505.16003" x="648.62915" font-family="Arial" fill="#000000">1</text>
  <path id="path3094-7" stroke-linejoin="round" d="m274.83 400.33v-90.042h-1.5099v90.042h1.5099zm3.741-88.259-4.5073-10.809-4.5073 10.809h9.0146z" stroke="#000" stroke-width=".024679px"/>
  <path id="path3498-6" stroke-linejoin="round" d="m360.1 323.41h95.359v1.0865h-95.359z" stroke="#000" stroke-width=".027837px"/>
  <path id="path3138-8" stroke-linejoin="round" d="m360.79 323.95v-46.074h-1.1331v46.074z" stroke="#000" stroke-width=".016387px"/>
  <path id="path3138-8-1" stroke-linejoin="round" d="m455.74 324.06v-17.238h-1.1395v17.238z" stroke="#000" stroke-width=".010052px"/>
  <path id="path3124-7" stroke-linejoin="round" d="m405.18 290.52h14.435v1.4643h-14.435v-1.4643zm13.7-3.6389 4.4263 4.3711-4.4263 4.3711v-8.7421z" stroke="#000" stroke-width=".0077759px"/>
  <text id="text4138-7" font-size="14.324px" xml:space="preserve" transform="scale(1.0808 .92521)" y="310.05554" x="355.17303" font-family="Arial" line-height="125%" fill="#000000"><tspan id="tspan4140-2" y="310.05554" x="355.17303">CLK</tspan></text>
  <path id="path3194-0" stroke-linejoin="round" d="m360.48 277.88-16.013 0.0655v1.4629l16.013-0.0657v-1.4629zm-13.862-3.5808-13.167 4.4325 13.267 4.3014-0.099-8.7338z" stroke="#000" stroke-width=".026877px"/>
 </g>
</svg>
