<?xml version="1.0" encoding="UTF-8" standalone="no"?>
<svg id="svg2996" xmlns:rdf="http://www.w3.org/1999/02/22-rdf-syntax-ns#" xmlns="http://www.w3.org/2000/svg" height="100%" viewBox="47 15 845 545" width="100%" version="1.0" preserveAspectRatio="xMinYMin meet" xmlns:cc="http://creativecommons.org/ns#" xmlns:dc="http://purl.org/dc/elements/1.1/">
 <metadata id="metadata3508">
  <rdf:RDF>
   <cc:Work rdf:about="">
    <dc:format>image/svg+xml</dc:format>
    <dc:type rdf:resource="http://purl.org/dc/dcmitype/StillImage"/>
    <dc:title/>
   </cc:Work>
  </rdf:RDF>
 </metadata>
 <text id="text3611" style="word-spacing:0px;letter-spacing:0px" transform="scale(.99998 1)" xml:space="preserve" font-size="13.289px" y="350.36798" x="139.88812" font-family="sans-serif" line-height="125%" fill="#000000"><tspan id="tspan3615" y="342.36798" x="121.88812"/></text>
 <g id="g4749" transform="matrix(1.0156 0 0 1.0024 -8.8831 -.048183)">
  <path id="path3008" stroke-linejoin="round" d="m457.8 65.909c0-0.45496 0.52941-0.81246 1.2032-0.81246h418.12c0.62567 0 1.2032 0.35747 1.2032 0.81246v80.69c0 0.45495-0.57753 0.81239-1.2032 0.81239h-418.12c-0.6738 0-1.2032-0.35747-1.2032-0.81239zm2.4065 80.69-1.2031-0.8124h418.12l-1.2032 0.8124v-80.69l1.2032 0.81239h-418.12l1.2031-0.81239z" stroke="#000" stroke-width=".039549px"/>
  <text id="text3010" font-size="24.501px" line-height="125%" xml:space="preserve" style="text-decoration-line:underline;text-decoration:underline" transform="scale(1.0147 .98547)" y="115.5513" x="574.88141" font-family="Arial" fill="#000000">Control Memory</text>
  <text id="text3012" font-size="17.094px" xml:space="preserve" transform="scale(1.0147 .98547)" y="431.07504" x="199.42227" font-family="Arial" fill="#000000">MUX C</text>
  <path id="path3014" stroke-linejoin="round" d="m729.7 145.6v130.68h-1.4734v-130.68h1.4734zm3.5968 129.29-4.3336 8.3878-4.3336-8.3878h8.6669z" stroke="#000" stroke-width=".042630px"/>
  <path id="path3016" stroke-linejoin="round" d="m741.3 219.23-22.809 15.792 0.65047 0.84227 22.767-15.751z" stroke="#000" stroke-width=".042736px"/>
  <text id="text3018" font-size="12.822px" xml:space="preserve" transform="scale(1.0147 .98547)" y="230.87248" x="697.54327" font-family="Arial" line-height="125%" fill="#000000"><tspan id="tspan3920" y="230.87248" x="697.54327">80</tspan></text>
  <path id="path3020" stroke-linejoin="round" d="m86.454 334.71c0-0.30816 0.32523-0.56494 0.71553-0.56494h125.41c0.412 0 0.73722 0.25678 0.73722 0.56494v23.746c0 0.32528-0.32522 0.56494-0.73722 0.56494h-125.41c-0.3903 0-0.71553-0.23966-0.71553-0.56494zm1.4528 23.746-0.73721-0.56496h125.41l-0.71554 0.56496v-23.746l0.71554 0.56495h-125.41l0.73721-0.56495z" stroke="#000" stroke-width=".019267px"/>
  <path id="path3024" stroke-linejoin="round" d="m216.47 184.68c0 0.3093 0.30238 0.56709 0.68537 0.56709h114.48c0.38299 0 0.68536-0.25779 0.68536-0.56709v-141.61c0-0.32652-0.30237-0.5843-0.68536-0.5843h-114.48c-0.38299 0-0.68537 0.25778-0.68537 0.5843zm1.3506-141.61-0.66522 0.56714h114.48l-0.66521-0.56714v141.61l0.66521-0.56713h-114.48l0.66522 0.56713z" stroke="#000" stroke-width=".018612px"/>
  <path id="path3026" stroke-linejoin="round" d="m378.59 47.744c0-0.37904 0.32522-0.6949 0.7155-0.6949h27.753c0.39027 0 0.71552 0.31587 0.71552 0.6949v102.46c0 0.37902-0.32525 0.69488-0.71552 0.69488h-27.753c-0.39028 0-0.7155-0.31586-0.7155-0.69488zm1.431 102.46-0.71552-0.6949h27.753l-0.73721 0.6949v-102.46l0.73721 0.71594h-27.753l0.71552-0.71594z" stroke="#000" stroke-width=".021368px"/>
  <path id="path3028" stroke-linejoin="round" d="m76.148 449.89c0 0.40007 0.32053 0.71594 0.70515 0.71594h304.5c0.38462 0 0.70516-0.31587 0.70516-0.71594v-44.789c0-0.37903-0.32054-0.69488-0.70516-0.69488h-304.5c-0.38462 0-0.70515 0.31585-0.70515 0.69488zm1.4103-44.789-0.70516 0.6949h304.5l-0.70515-0.6949v44.789l0.70515-0.6949h-304.5l0.70516 0.6949z" stroke="#000" stroke-width=".021213px"/>
  <text id="text3030" font-size="20px" xml:space="preserve" transform="scale(1.0147 .98547)" y="278.11404" x="106.10582" font-family="Arial" line-height="125%" fill="#000000"><tspan id="tspan4390" y="278.11404" x="106.10582">co2µaddr</tspan></text>
  <path id="path3032" stroke-linejoin="round" d="m86.53 334.71c0-0.30816 0.32525-0.56494 0.73722-0.56494h49.091c0.41198 0 0.71552 0.25678 0.71552 0.56494v23.746c0 0.32528-0.30354 0.56494-0.71552 0.56494h-49.091c-0.41197 0-0.73722-0.23966-0.73722-0.56494zm1.4528 23.746-0.71554-0.56496h49.091l-0.71556 0.56496v-23.746l0.71556 0.56495h-49.091l0.71554-0.56495z" stroke="#000" stroke-width=".019267px"/>
  <text id="text3034" font-size="15.631px" xml:space="preserve" transform="scale(1.0147 .98547)" y="357.86618" x="99.359665" font-family="Arial" line-height="125%" fill="#000000">CO</text>
  <text id="text3036" font-size="17.094px" xml:space="preserve" transform="scale(1.0147 .98547)" y="398.47821" x="119.65049" font-family="Arial" fill="#000000">IR</text>
  <text id="text3038" font-size="17.094px" xml:space="preserve" transform="scale(1.0147 .98547)" y="522.83185" x="75.694542" font-family="Arial" fill="#000000">SR</text>
  <path id="path3040" stroke-linejoin="round" d="m83.95 81.636c0 0.26829 0.32527 0.49187 0.71556 0.49187h50.869c0.41201 0 0.73726-0.22358 0.73726-0.49187v-24.43c0-0.26829-0.32525-0.49188-0.73726-0.49188h-50.869c-0.3903 0-0.71555 0.22358-0.71555 0.49188zm1.4528-24.43-0.73724 0.50677h50.869l-0.71558-0.50677v24.43l0.71558-0.49186h-50.869l0.73724 0.49186z" stroke="#000" stroke-width=".017976px"/>
  <path id="path3042" stroke-linejoin="round" d="m828.43 265.46h12.271v1.0528h-12.271z" stroke="#000" stroke-width=".042736px"/>
  <path id="path3044" stroke-linejoin="round" d="m853.94 265.46h12.271v1.0528h-12.271z" stroke="#000" stroke-width=".042736px"/>
  <path id="path3046" stroke-linejoin="round" d="m874.61 265.46h12.271v1.0528h-12.271z" stroke="#000" stroke-width=".042736px"/>
  <path id="path3048" stroke-linejoin="round" d="m841.02 253.08h13.227v1.0528h-13.227z" stroke="#000" stroke-width=".042736px"/>
  <path id="path3050" stroke-linejoin="round" d="m841.58 266.35v-13.098h-1.0842v13.098z" stroke="#000" stroke-width=".042736px"/>
  <path id="path3052" stroke-linejoin="round" d="m854.47 266.35v-13.434h-1.0841v13.434z" stroke="#000" stroke-width=".042736px"/>
  <path id="path3054" stroke-linejoin="round" d="m866.73 266.35v-13.434h-1.0842v13.434z" stroke="#000" stroke-width=".042736px"/>
  <path id="path3056" stroke-linejoin="round" d="m879.95 266.01v-13.098h-1.0841v13.098z" stroke="#000" stroke-width=".042736px"/>
  <path id="path3058" stroke-linejoin="round" d="m865.91 253.08h13.53v1.0528h-13.53z" stroke="#000" stroke-width=".042736px"/>
  <path id="path3060" stroke-linejoin="round" d="m316.9 495.6-0.12207-39.502-1.2072-0.36791-0.12206 39.869zm3.5961-38.359-4.3325-7.4-4.0884 7.4z" stroke="#000" stroke-width=".027675px"/>
  <path id="path3062" stroke-linejoin="round" d="m341.27 473.18v-17.227h-1.4528v17.227h1.4528zm3.6211-16.024-4.3365-7.1779-4.3365 7.1779h8.6731z" stroke="#000" stroke-width=".019724px"/>
  <text id="text3064" font-size="12.789px" xml:space="preserve" transform="scale(1.0147 .98547)" y="516.72589" x="355.14661" font-family="Arial" line-height="125%" fill="#000000">0</text>
  <text id="text3066" font-size="11.369px" xml:space="preserve" transform="scale(1.0147 .98547)" y="182.80415" x="252.32295" font-family="Arial" line-height="125%" fill="#000000">A0</text>
  <text id="text3068" font-size="18.474px" xml:space="preserve" transform="scale(1.0147 .98547)" y="122.50542" x="249.28699" font-family="Arial" line-height="125%" fill="#000000">MUX A</text>
  <text id="text3072" font-size="14.21px" xml:space="preserve" transform="scale(1.0147 .98547)" y="198.98593" x="731.98053" font-family="Arial" line-height="125%" fill="#000000">µInstruction</text>
  <text id="text3076" font-size="17.094px" xml:space="preserve" transform="scale(1.0147 .98547)" y="209.33827" x="485.42627" font-family="Arial" fill="#000000">MADDR</text>
  <text id="text3080" font-size="17.094px" xml:space="preserve" transform="matrix(0 -.98547 1.0147 0 0 0)" y="393.19238" x="-124.9924" font-family="Arial" fill="#000000">µAddr</text>
  <path id="path3082" stroke-linejoin="round" d="m406.53 99.247h47.143v1.411h-47.143v-1.411zm46.152-3.4959 5.9114 4.2121-5.9114 4.2121v-8.4243z" stroke="#000" stroke-width=".017643px"/>
  <text id="text3084" font-size="17.094px" xml:space="preserve" transform="scale(1.0147 .98547)" y="77.317612" x="99.168671" font-family="Arial" fill="#000000">+1</text>
  <path id="path3086" fill-rule="evenodd" d="m426.57 99.959c0-1.1792 0.93234-2.1268 2.0599-2.1268 1.1275 0 2.0598 0.94755 2.0598 2.1268 0 1.1581-0.93233 2.1058-2.0598 2.1058s-2.0599-0.94758-2.0599-2.1058"/>
  <path id="path3088" stroke-linejoin="round" d="m425.59 100.08v-0.27375l0.0435-0.42114c0.0217-0.08423 0.0217-0.16845 0.0651-0.27374l0.10842-0.37905c0.0217-0.08423 0.0651-0.14738 0.0867-0.23161l0.19515-0.35797c0.0434-0.08423 0.0867-0.16847 0.15176-0.25268l0.26018-0.31587c0.0434-0.04212 0.10841-0.10531 0.15179-0.14739l0.30354-0.25268c0.0868-0.08424 0.17346-0.1474 0.28188-0.21058l0.36859-0.18952c0.0651-0.04212 0.1301-0.06313 0.21682-0.1053l0.36861-0.12636c0.10842-0.02101 0.21681-0.04212 0.32523-0.06323l0.41196-0.04212h0.30357l0.41197 0.04212c0.10842 0.02111 0.19514 0.04212 0.30355 0.06323l0.39028 0.12636c0.0868 0.04212 0.17346 0.06303 0.26019 0.1053l0.34691 0.18952c0.0868 0.06303 0.17346 0.12633 0.23852 0.18952l0.30355 0.25268c0.065 0.06313 0.13009 0.10531 0.17347 0.16845l0.26018 0.31587c0.0651 0.08423 0.10842 0.16847 0.17346 0.25268l0.17345 0.35797c0.0434 0.08423 0.065 0.1474 0.0867 0.23161l0.13009 0.37905c0.0217 0.10531 0.0435 0.18952 0.0435 0.27374l0.0434 0.42114c0.0217 0.10532 0.0217 0.18953 0 0.27375l-0.0434 0.4422c0 0.0842-0.0216 0.16846-0.0435 0.25269l-0.13009 0.40009c-0.0217 0.0842-0.0434 0.14738-0.0867 0.23161l-0.17345 0.35797c-0.0651 0.0842-0.10843 0.16848-0.17346 0.25271l-0.26018 0.31584c-0.0435 0.0631-0.10842 0.10532-0.17347 0.16847l-0.30355 0.25268c-0.0651 0.0632-0.15178 0.12636-0.23852 0.1895l-0.34691 0.18953c-0.0867 0.0421-0.17346 0.0631-0.26019 0.10531l-0.39028 0.12633c-0.10843 0.0211-0.19514 0.0421-0.30355 0.0632l-0.41197 0.0421h-0.30357l-0.41196-0.0421c-0.10843-0.0211-0.21682-0.0421-0.32523-0.0632l-0.36861-0.12633c-0.0867-0.0421-0.15177-0.063-0.21682-0.10531l-0.36859-0.18953c-0.10843-0.0632-0.19515-0.12633-0.28188-0.21055l-0.30354-0.25271c-0.0435-0.0421-0.10842-0.1053-0.15179-0.14739l-0.26018-0.31584c-0.065-0.0842-0.10842-0.16847-0.15176-0.25271l-0.19515-0.35797c-0.0217-0.0842-0.0651-0.14738-0.0867-0.23161l-0.10842-0.40009c-0.0435-0.0842-0.0435-0.16847-0.0651-0.25269zm2.9271 0.16845-0.0651-0.27374 0.13009 0.40009-0.0868-0.23163 0.17345 0.35798-0.15178-0.2527 0.26019 0.31587-0.15178-0.14741 0.28189 0.27375-0.28189-0.21058 0.34695 0.1895-0.21684-0.10529 0.39029 0.12634-0.32524-0.0632 0.41196 0.0421h-0.30356l0.41198-0.0421-0.30357 0.0632 0.39029-0.12634-0.2602 0.10529 0.34693-0.1895-0.23851 0.1895 0.30356-0.27372-0.17347 0.16846 0.26021-0.31587-0.17347 0.2527 0.19514-0.35798-0.0867 0.23163 0.10844-0.40009-0.0435 0.27374 0.0435-0.4422v0.27375l-0.0435-0.42114 0.0435 0.25268-0.10844-0.37902 0.0867 0.23163-0.19514-0.35798 0.17347 0.2527-0.26021-0.31586 0.17347 0.16845-0.30356-0.27374 0.23851 0.18951-0.34693-0.18951 0.2602 0.10532-0.39029-0.12635 0.30357 0.06322-0.41198-0.04211h0.30356l-0.41196 0.04211 0.32524-0.06322-0.39029 0.12635 0.21684-0.10532-0.34695 0.18951 0.28189-0.21056-0.28189 0.27373 0.15178-0.14739-0.26019 0.31586 0.15178-0.2527-0.17345 0.35798 0.0868-0.23163-0.13009 0.37902 0.0651-0.25268-0.0434 0.42114v-0.27375z" stroke="#000" stroke-width=".021368px"/>
  <path id="path3092" stroke-linejoin="round" d="m331.45 101.31h43.471v-1.411h-43.471v1.411zm42.633 3.4958 5.004-4.2119-5.004-4.2119v8.4238z" stroke="#000" stroke-width=".016231px"/>
  <path id="path3094" stroke-linejoin="round" d="m299.62 262.72v-70.162h-1.4527v70.162h1.4527zm3.5992-68.773-4.3365-8.4228-4.3365 8.4228h8.6729z" stroke="#000" stroke-width=".021368px"/>
  <path id="path3096" stroke-linejoin="round" d="m432.6 290.58v-52.48c0-0.40874-0.24978-0.74937-0.54948-0.74937h-170.57l0.56613 0.74937v-44.917h-1.1155v44.917c0 0.40875 0.24978 0.74938 0.54949 0.74938h170.57l-0.56612-0.74938v52.48zm-167.79-95.876-3.3301-9.0833-3.3301 9.0833z" stroke="#000" stroke-width=".019446px"/>
  <path id="path3098" stroke-linejoin="round" d="m429.52 19.861h-319.18v1.048h319.18z" stroke="#000" stroke-width=".026303px"/>
  <path id="path3100" stroke-linejoin="round" d="m109.81 20.305-0.1551 37.724h1.2924l0.15508-37.724z" stroke="#000" stroke-width=".0080340px"/>
  <path id="path3102" stroke-linejoin="round" d="m136.19 68.838h73.015v1.411h-73.015v-1.411zm71.561-3.5062 8.7447 4.2116-8.7447 4.2116v-8.4232z" stroke="#000" stroke-width=".010727px"/>
  <path id="path3104" stroke-linejoin="round" d="m139.1 98.468h73.511v1.4003h-73.511v-1.4003zm72.13-3.5168 8.3065 4.2119-8.3065 4.2119v-8.4235z" stroke="#000" stroke-width=".010456px"/>
  <path id="path3106" stroke-linejoin="round" d="m885.94 299.8h-13.527v-1.2641h13.527zm-10.05 2.4443-5.1726-3.0955 5.1726-3.3409z" stroke="#000" stroke-width=".019718px"/>
  <path id="path3108" stroke-linejoin="round" d="m364.79 496.09-0.24416-38.654-1.2073-0.49051v39.146zm3.0074-38.476-3.7222-7.6299-3.4781 7.5072z" stroke="#000" stroke-width=".027781px"/>
  <path id="path3110" stroke-linejoin="round" d="m406.99 422.29-11.405 13.413 0.84559 0.67384 11.383-13.413z" stroke="#000" stroke-width=".021368px"/>
  <text id="text3112" font-size="11.454px" xml:space="preserve" transform="scale(1.0147 .98547)" y="431.52356" x="389.45905" font-family="Arial" fill="#000000">4</text>
  <path id="path3120" stroke-linejoin="round" d="m472.38 207.43-8.2827 10.339 0.84561 0.65278 8.2827-10.339z" stroke="#000" stroke-width=".021368px"/>
  <text id="text3122" font-size="11.454px" xml:space="preserve" transform="scale(1.0147 .98547)" y="211.24879" x="448.38879" font-family="Arial" fill="#000000">12</text>
  <path id="path3124" stroke-linejoin="round" d="m184.62 160.02h26.148v1.411h-26.148v-1.411zm24.815-3.5064 8.0176 4.2119-8.0176 4.2119v-8.4236z" stroke="#000" stroke-width=".010273px"/>
  <text id="text3126" font-size="17.094px" xml:space="preserve" transform="scale(1.0147 .98547)" y="169.17035" x="164.06558" font-family="Arial" fill="#000000">0</text>
  <text id="text3130" font-size="12.789px" xml:space="preserve" transform="scale(1.0147 .98547)" y="184.81201" x="151.03183" font-family="Arial" line-height="125%" fill="#000000">(fetch) </text>
  <path id="path3134" stroke-linejoin="round" d="m139.67 97.881-0.13029 116.08 1.0854 0.0203 0.13025-116.1z" stroke="#000" stroke-width=".015130px"/>
  <path id="path3136" stroke-linejoin="round" d="m291.2 473.13v-17.227h-1.4528v17.227h1.4528zm3.5995-16.025-4.3365-7.178-4.3365 7.178h8.6731z" stroke="#000" stroke-width=".019724px"/>
  <path id="path3138" stroke-linejoin="round" d="m421.45 429.63v-81.869h-1.0842v81.869z" stroke="#000" stroke-width=".021368px"/>
  <text id="text3140" font-size="11.369px" xml:space="preserve" transform="scale(1.0147 .98547)" y="561.3667" x="256.52469" font-family="Arial" line-height="125%" fill="#000000">0</text>
  <path id="path3142" stroke-linejoin="round" d="m146.4 383.15 619.37-2.6506v-1.0863l-619.37 2.6506z" stroke="#000" stroke-width=".038078px"/>
  <path id="path3142b" stroke-linejoin="round" d="m151.45 383.15 615.86-2.6507v-1.0863l-615.86 2.6507z" stroke="#000" stroke-width=".037970px"/>
  <path id="path3144" stroke-linejoin="round" d="m445.74 454.91c-0.29317-0.002-0.50825-0.28079-0.50714-0.6144l0.17859-53.713c0.00079-0.33362 0.21803-0.61047 0.5112-0.60888l21.51 0.11676c0.29319 0.002 0.5237 0.28088 0.52259 0.61448l-0.17859 53.713c-0.0008 0.3336-0.23347 0.61038-0.52664 0.6088zm21.514-1.125-0.51127 0.62741 0.17859-53.713 0.50708 0.63295-21.51-0.11675 0.5113-0.62743-0.17859 53.713-0.5071-0.63295z" stroke="#000" stroke-width=".016912px"/>
  <path id="path3150" stroke-linejoin="round" d="m530.37 454.96c-0.30842 0.003-0.52607-0.30067-0.52807-0.64426l-0.3217-55.319c-0.003-0.34358 0.21234-0.61279 0.52074-0.61559l21.495-0.19437c0.27754-0.003 0.49498 0.2628 0.49699 0.60638l0.32169 55.319c0.003 0.34359-0.21211 0.65096-0.48967 0.65347zm21.488-1.4923-0.52052 0.65373-0.32171-55.319 0.52808 0.64426-21.495 0.19438 0.48967-0.65347 0.32173 55.319-0.49726-0.64455z" stroke="#000" stroke-width=".034314px"/>
  <path id="path3156" stroke-linejoin="round" d="m618.41 453.09c-0.28873-0.003-0.48826-0.29801-0.48538-0.62761l0.4638-53.069c0.004-0.32964 0.20723-0.58396 0.49596-0.581l20.124 0.20529c0.25986 0.002 0.45973 0.2611 0.45684 0.59071l-0.46379 53.069c-0.004 0.32959-0.20757 0.62055-0.46741 0.6179zm20.135-1.04-0.4963 0.61764 0.46382-53.069 0.48539 0.62763-20.124-0.20531 0.46742-0.61791-0.46381 53.069-0.45653-0.62736z" stroke="#000" stroke-width=".032520px"/>
  <path id="path3162" stroke-linejoin="round" d="m638.46 283.76c0-0.37914 0.18986-0.71614 0.46109-0.71614h105.08c0.2441 0 0.43397 0.337 0.43397 0.71614v29.362c0 0.37913-0.18987 0.71614-0.43397 0.71614h-105.08c-0.27123 0-0.46109-0.33701-0.46109-0.71614zm0.89505 29.362-0.43394-0.71618h105.08l-0.46106 0.71618v-29.362l0.46106 0.71617h-105.08l0.43394-0.71617z" stroke="#000" stroke-width=".033801px"/>
  <text id="text3164" font-size="15.631px" xml:space="preserve" transform="scale(1.0147 .98547)" y="309.25055" x="487.40955" font-family="Arial" line-height="125%" fill="#000000">Sel A</text>
  <text id="text3168" font-size="15.631px" xml:space="preserve" transform="scale(1.0147 .98547)" y="309.25055" x="537.34076" font-family="Arial" line-height="125%" fill="#000000">Sel B</text>
  <text id="text3172" font-size="15.631px" xml:space="preserve" transform="scale(1.0147 .98547)" y="309.25055" x="586.20569" font-family="Arial" line-height="125%" fill="#000000">Sel C</text>
  <path id="path3176" stroke-linejoin="round" d="m485.98 283.74c0-0.37902 0.30738-0.69489 0.67621-0.69489h53.237c0.36886 0 0.67622 0.31587 0.67622 0.69489v29.375c0 0.37906-0.30736 0.69489-0.67622 0.69489h-53.237c-0.36883 0-0.67621-0.31583-0.67621-0.69489zm1.3523 29.375-0.67622-0.71596h53.237l-0.69672 0.71596v-29.375l0.69672 0.71595h-53.237l0.67622-0.71595z" stroke="#000" stroke-width=".020772px"/>
  <path id="path3178" stroke-linejoin="round" d="m538.99 283.76c0-0.37907 0.30738-0.716 0.65319-0.716h50.988c0.3458 0 0.65321 0.33693 0.65321 0.716v29.356c0 0.37906-0.30741 0.71599-0.65321 0.71599h-50.988c-0.34581 0-0.65319-0.33693-0.65319-0.71599zm1.268 29.356-0.61477-0.71601h50.988l-0.6532 0.71601v-29.356l0.6532 0.71601h-50.988l0.61477-0.71601z" stroke="#000" stroke-width=".040228px"/>
  <path id="path3180" stroke-linejoin="round" d="m589.72 283.76c0-0.37907 0.25309-0.71604 0.61465-0.71604h49.243c0.32541 0 0.57851 0.33697 0.57851 0.71604v29.358c0 0.37905-0.2531 0.71604-0.57851 0.71604h-49.243c-0.36156 0-0.61465-0.33699-0.61465-0.71604zm1.1932 29.358-0.57849-0.71605h49.243l-0.61465 0.71605v-29.358l0.61465 0.71603h-49.243l0.57849-0.71603z" stroke="#000" stroke-width=".039024px"/>
  <path id="path3182" stroke-linejoin="round" d="m460.9 467.4-11.666 8.3597 0.65048 0.84229 11.666-8.3387z" stroke="#000" stroke-width=".021368px"/>
  <path id="path3184" stroke-linejoin="round" d="m548.08 468.05-11.666 8.3598 0.65046 0.84229 11.665-8.3598z" stroke="#000" stroke-width=".021368px"/>
  <path id="path3186" stroke-linejoin="round" d="m633.19 465.47-11.666 8.3808 0.65047 0.84229 11.666-8.3808z" stroke="#000" stroke-width=".042736px"/>
  <path id="path3188" stroke-linejoin="round" d="m457.13 382.52v10.866h-1.431v-10.866h1.431zm3.621 9.4548-4.3365 8.4228-4.3365-8.4228h8.673z" stroke="#000" stroke-width=".021368px"/>
  <path id="path3190" stroke-linejoin="round" d="m542.01 380.72v10.886h-1.4527v-10.886h1.4527zm3.621 9.4758-4.3365 8.4228-4.3365-8.4228h8.6729z" stroke="#000" stroke-width=".021368px"/>
  <path id="path3192" stroke-linejoin="round" d="m628.37 381.21v10.866h-1.4744v-10.866h1.4744zm3.5993 9.4336-4.3365 8.4228-4.3365-8.4228h8.673z" stroke="#000" stroke-width=".042736px"/>
  <path id="path3194" stroke-linejoin="round" d="m485.01 426.64-10.495 0.0631v1.4108l10.495-0.0632v-1.4108zm-9.0848-3.4533-8.6295 4.2747 8.6947 4.1483-0.0649-8.4228z" stroke="#000" stroke-width=".021368px"/>
  <path id="path3196" stroke-linejoin="round" d="m569.32 365.15v-51.274h-1.0841v51.274z" stroke="#000" stroke-width=".021368px"/>
  <path id="path3198" fill-rule="evenodd" d="m454.67 381.2c0-1.1793 0.86803-2.127 1.9177-2.127 1.0699 0 1.9178 0.94768 1.9178 2.127 0 1.1582-0.84784 2.106-1.9178 2.106-1.0497 0-1.9177-0.94767-1.9177-2.106"/>
  <path id="path3200" stroke-linejoin="round" d="m452.45 381.31v-0.27373l0.0417-0.42122c0.0208-0.0842 0.0208-0.16846 0.0624-0.27376l0.104-0.37906c0.0208-0.0842 0.0624-0.14745 0.0832-0.23165l0.1872-0.35804c0.0418-0.0842 0.0832-0.16844 0.1456-0.25269l0.2496-0.31588 0.16643-0.16848 0.2912-0.25272c0.0832-0.063 0.16639-0.12634 0.24959-0.18954l0.33281-0.18953c0.0624-0.0421 0.1456-0.063 0.2288-0.10531l0.37441-0.12639c0.10401-0.021 0.20801-0.0421 0.29121-0.063l0.39522-0.0421h0.29119l0.39521 0.0421c0.104 0.021 0.208 0.0421 0.31202 0.063l0.37438 0.12639c0.0832 0.0421 0.14561 0.063 0.2288 0.10531l0.33282 0.18953c0.0832 0.0632 0.16641 0.12636 0.24962 0.18954l0.29122 0.25272c0.0625 0.0631 0.10399 0.10532 0.16639 0.16848l0.2496 0.31588c0.0416 0.0842 0.10399 0.16849 0.1456 0.25269l0.1872 0.35804c0.0207 0.0842 0.0624 0.14739 0.0832 0.23165l0.10399 0.37906c0.0415 0.10533 0.0415 0.18954 0.0625 0.27376l0.0416 0.42122v0.27373l-0.0416 0.44226c-0.0208 0.0842-0.0208 0.16847-0.0625 0.25273l-0.10399 0.4001c-0.0208 0.0842-0.0624 0.14745-0.0832 0.23168l-0.1872 0.35801c-0.0416 0.0842-0.10399 0.16845-0.1456 0.25267l-0.2496 0.31592c-0.0623 0.063-0.10401 0.10531-0.16639 0.16847l-0.29122 0.25272c-0.0832 0.063-0.16641 0.12635-0.24962 0.18952l-0.33282 0.18953c-0.0832 0.0421-0.14558 0.063-0.2288 0.10533l-0.37438 0.12638c-0.104 0.021-0.20802 0.0421-0.31202 0.063l-0.39521 0.0421h-0.29119l-0.39522-0.0421c-0.0832-0.0211-0.1872-0.0421-0.29121-0.063l-0.37441-0.12638c-0.0832-0.0421-0.16638-0.0631-0.2288-0.10533l-0.33281-0.18953c-0.0832-0.063-0.16639-0.12634-0.24959-0.18952l-0.2912-0.25272-0.16643-0.16847-0.2496-0.31592c-0.0624-0.0842-0.104-0.16842-0.1456-0.25267l-0.1872-0.35801c-0.0208-0.0842-0.0624-0.14743-0.0832-0.23168l-0.104-0.4001c-0.0415-0.0842-0.0415-0.16847-0.0624-0.25273zm2.8081 0.16852-0.0625-0.2738 0.12479 0.40013-0.0832-0.23166 0.1664 0.358-0.1456-0.25267 0.24958 0.31585-0.16639-0.16847 0.29122 0.27378-0.24961-0.18954 0.3328 0.18954-0.22879-0.10533 0.37441 0.12636-0.31203-0.0631 0.39523 0.0421h-0.29121l0.39521-0.0421-0.2912 0.0631 0.3744-0.12636-0.22882 0.10533 0.33282-0.18954-0.24961 0.18954 0.2912-0.27378-0.1664 0.16847 0.24961-0.31585-0.14561 0.25267 0.16641-0.358-0.0832 0.23166 0.1248-0.40013-0.0625 0.2738 0.0417-0.44225v0.27373l-0.0417-0.42118 0.0625 0.25274-0.1248-0.37909 0.0832 0.23164-0.16641-0.35799 0.14561 0.2527-0.24961-0.31587 0.1664 0.16846-0.2912-0.27377 0.24961 0.18955-0.33282-0.18955 0.22882 0.10534-0.3744-0.12637 0.2912 0.063-0.39521-0.0421h0.29121l-0.39523 0.0421 0.31203-0.063-0.37441 0.12637 0.22879-0.10534-0.3328 0.18955 0.24961-0.18955-0.29122 0.27377 0.16639-0.16846-0.24958 0.31587 0.1456-0.2527-0.1664 0.35799 0.0832-0.23164-0.12479 0.37909 0.0625-0.25274-0.0415 0.42118v-0.27373z" stroke="#000" stroke-width=".020930px"/>
  <path id="path3202" fill-rule="evenodd" d="m539.38 381.2c0-1.1793 0.84784-2.127 1.9178-2.127 1.0497 0 1.8974 0.94768 1.8974 2.127 0 1.1582-0.8478 2.106-1.8974 2.106-1.0699 0-1.9178-0.94767-1.9178-2.106"/>
  <path id="path3204" stroke-linejoin="round" d="m537.64 381.31c-0.0208-0.0842-0.0208-0.16844 0-0.27373l0.0415-0.42122c0-0.0842 0.0207-0.16846 0.0417-0.27376l0.1248-0.37906c0.0207-0.0842 0.0417-0.14745 0.0831-0.23165l0.16641-0.35804c0.0417-0.0842 0.10399-0.16844 0.16639-0.25269l0.2496-0.31588c0.0415-0.0632 0.10401-0.10532 0.1664-0.16848l0.29122-0.25272c0.0624-0.063 0.14559-0.12634 0.2288-0.18954l0.3328-0.18953c0.0831-0.0421 0.1664-0.063 0.24961-0.10531l0.3744-0.12639c0.0832-0.021 0.18723-0.0421 0.29121-0.063l0.39522-0.0421h0.29121l0.3952 0.0421c0.104 0.021 0.20801 0.0421 0.312 0.063l0.3536 0.12639c0.0832 0.0421 0.14562 0.063 0.20801 0.10531l0.35361 0.18953c0.0832 0.0421 0.1872 0.10533 0.24961 0.18954l0.2912 0.25272 0.18721 0.18953 0.22879 0.31589c0.0624 0.0842 0.104 0.14743 0.14561 0.23163l0.18723 0.35804c0.0208 0.0842 0.0623 0.14739 0.0832 0.23165l0.104 0.37906c0.0417 0.10533 0.0417 0.18954 0.0623 0.27376l0.0415 0.42122v0.27373l-0.0415 0.44226c-0.0208 0.0842-0.0208 0.16847-0.0623 0.25273l-0.104 0.4001c-0.0207 0.0842-0.0624 0.14745-0.0832 0.23168l-0.18723 0.35801c-0.0417 0.0842-0.0831 0.14741-0.14561 0.23162l-0.22879 0.31592c-0.0625 0.063-0.1248 0.12634-0.18721 0.18952l-0.2912 0.25272c-0.0624 0.0842-0.16641 0.14739-0.24961 0.18952l-0.35361 0.18953c-0.0625 0.0421-0.1248 0.063-0.20801 0.10533l-0.3536 0.12638c-0.10399 0.021-0.208 0.0421-0.312 0.063l-0.3952 0.0421h-0.29121l-0.39522-0.0421c-0.104-0.0211-0.20799-0.0421-0.29121-0.063l-0.3744-0.12638c-0.0831-0.0421-0.16641-0.0631-0.24961-0.10533l-0.3328-0.18953c-0.0832-0.063-0.16641-0.12634-0.2288-0.18952l-0.29122-0.25272c-0.0624-0.0631-0.12479-0.10531-0.1664-0.16847l-0.2496-0.31592c-0.0624-0.0842-0.12481-0.16842-0.16639-0.25267l-0.16641-0.35801c-0.0417-0.0842-0.0624-0.14743-0.0831-0.23168l-0.1248-0.4001c-0.0208-0.0842-0.0417-0.16847-0.0417-0.25273zm2.7871 0.16852-0.0417-0.2738 0.104 0.40013-0.0832-0.23166 0.18721 0.358-0.1664-0.25267 0.2496 0.31585-0.1664-0.16847 0.29122 0.27378-0.22881-0.18954 0.33279 0.18954-0.24959-0.10533 0.37441 0.12636-0.29121-0.0631 0.39522 0.0421h-0.2912l0.39519-0.0421-0.31203 0.0631 0.37442-0.12636-0.208 0.10533 0.33281-0.18954-0.24961 0.18954 0.29119-0.27378-0.18719 0.18954 0.24961-0.31588-0.14561 0.23163 0.16642-0.358-0.0833 0.23166 0.12484-0.40013-0.0624 0.2738 0.0417-0.44225v0.27373l-0.0417-0.42118 0.0624 0.25274-0.12484-0.37909 0.0833 0.23164-0.16642-0.35799 0.14561 0.23164-0.24961-0.31588 0.18719 0.18953-0.29119-0.27377 0.24961 0.18955-0.33281-0.18955 0.208 0.10534-0.37442-0.12637 0.31203 0.063-0.39519-0.0421h0.2912l-0.39522 0.0421 0.29121-0.063-0.37441 0.12637 0.24959-0.10534-0.33279 0.18955 0.22881-0.18955-0.29122 0.27377 0.1664-0.16846-0.2496 0.31587 0.1664-0.2527-0.18721 0.35799 0.0832-0.23164-0.104 0.37909 0.0417-0.25274-0.0417 0.42118v-0.27373z" stroke="#000" stroke-width=".020930px"/>
  <path id="path3206" fill-rule="evenodd" d="m627.35 381.21c0-1.1793 0.88823-2.1481 1.938-2.1481 1.0497 0 1.8974 0.96872 1.8974 2.1481 0 1.1372-0.84784 2.106-1.8974 2.106s-1.938-0.96872-1.938-2.106"/>
  <path id="path3208" stroke-linejoin="round" d="m624.17 381.34c-0.0417-0.0842-0.0417-0.16847 0-0.2948l0.0416-0.42119c0-0.0842 0-0.16851 0.0417-0.25273l0.12482-0.37906c0-0.0842 0.0417-0.16848 0.0831-0.25271l0.1664-0.33697c0.0417-0.0842 0.0833-0.16847 0.12479-0.25271l0.24963-0.29483c0.0417-0.0842 0.12478-0.12635 0.16639-0.21057l0.29121-0.25274c0.0833-0.0842 0.16642-0.12634 0.24961-0.16847l0.33281-0.21058c0.0831-0.0421 0.16639-0.0421 0.2496-0.0842l0.36519-0.10088c0.0831-0.0421 0.20801-0.0421 0.2912-0.0842l0.37443-0.0421h0.29119l0.416 0.0421c0.0831 0.0421 0.20801 0.0421 0.29121 0.0842l0.37442 0.12636c0.0832 0.0421 0.16641 0.0421 0.24961 0.0842l0.33278 0.21058c0.0832 0.0421 0.16643 0.0842 0.24963 0.16847l0.29121 0.25271c0.0417 0.0842 0.0832 0.12635 0.12479 0.16849l0.24961 0.33694c0.0831 0.0842 0.1248 0.16847 0.1664 0.25271l0.20801 0.33695c0 0.0842 0.0417 0.16848 0.0831 0.25273l0.0833 0.37905c0.0417 0.0842 0.0417 0.16847 0.0831 0.25272l0.0417 0.42119v0.29481l-0.0417 0.42118c-0.0416 0.0842-0.0416 0.16849-0.0831 0.25274l-0.0833 0.42115c-0.0417 0.0842-0.0831 0.1264-0.0831 0.21062l-0.20801 0.37909c-0.0417 0.0842-0.0831 0.16845-0.1664 0.25267l-0.24961 0.29483c-0.0417 0.0421-0.0833 0.12637-0.12479 0.16849l-0.29121 0.25272c-0.0832 0.0842-0.16639 0.12634-0.24963 0.2106l-0.33278 0.16844c-0.0832 0.0421-0.16643 0.0842-0.24961 0.12639l-0.37442 0.12635c-0.0832 0-0.208 0.0421-0.29121 0.0421l-0.416 0.0421h-0.29119l-0.37443-0.0421c-0.0832 0-0.20799-0.0421-0.2912-0.0421l-0.3744-0.12635c-0.0832-0.0421-0.1664-0.0842-0.2496-0.12639l-0.33281-0.16844c-0.0832-0.0842-0.16643-0.12635-0.24962-0.2106l-0.29117-0.25273c-0.0416-0.0421-0.1248-0.12635-0.1664-0.21059l-0.2496-0.29486c-0.0417-0.0842-0.0831-0.12633-0.1248-0.21054l-0.16639-0.37908c-0.0417-0.0842-0.0831-0.12637-0.0831-0.21062l-0.12484-0.42115c-0.0415-0.0842-0.0415-0.16849-0.0415-0.25274zm2.7871 0.16849-0.0417-0.29484 0.0832 0.42119-0.0832-0.25273 0.20802 0.37908-0.16642-0.2527 0.24962 0.33693-0.16641-0.21058 0.29121 0.29482-0.24961-0.21059 0.33282 0.21059-0.24962-0.12634 0.37441 0.12634-0.29121-0.0421 0.37439 0.0421h-0.29118l0.416-0.0421-0.29121 0.0421 0.37441-0.12634-0.24959 0.12634 0.3328-0.21059-0.24961 0.21059 0.29121-0.29482-0.16639 0.16848 0.2496-0.29483-0.12481 0.2527 0.16639-0.37908-0.0832 0.25273 0.12481-0.42119-0.0832 0.29484 0.0418-0.46329v0.2948l-0.0418-0.42118 0.0832 0.25271-0.12481-0.37907 0.0832 0.2106-0.16639-0.33696 0.12481 0.25272-0.2496-0.33694 0.16639 0.16846-0.29121-0.25268 0.24961 0.16844-0.3328-0.16844 0.24959 0.0842-0.37441-0.12635 0.29121 0.0842-0.416-0.0421h0.29118l-0.37439 0.0421 0.29121-0.0842-0.37441 0.12635 0.24962-0.0842-0.33282 0.16844 0.24961-0.16844-0.29121 0.25268 0.16641-0.21058-0.24962 0.33694 0.16642-0.2106-0.20802 0.33696 0.0832-0.2106-0.0832 0.37907 0.0417-0.25271-0.0417 0.42118v-0.2948z" stroke="#000" stroke-width=".041860px"/>
  <path id="path3210" stroke-linejoin="round" d="m723.06 314.12v112.79h-1.4328v-112.79h1.4328zm3.6469 111.95-4.3414 4.9489-4.3414-4.9489h8.6829z" stroke="#000" stroke-width=".032776px"/>
  <path id="path3212" stroke-linejoin="round" d="m727.88 339.74-11.666 8.3387 0.65049 0.88437 11.665-8.3808z" stroke="#000" stroke-width=".042736px"/>
  <text id="text3214" font-size="11.453px" xml:space="preserve" transform="scale(1.0147 .98547)" y="346.89951" x="696.65503" font-family="Arial" line-height="125%" fill="#000000"><tspan id="tspan3973" y="346.89951" x="696.65503">49</tspan></text>
  <path id="path3216" stroke-linejoin="round" d="m443.78 488.2c0-0.4219 0.24372-0.7735 0.53615-0.7735h47.066c0.30869 0 0.55238 0.3516 0.55238 0.7735v31.009c0 0.44533-0.24369 0.7735-0.55238 0.7735h-47.066c-0.29243 0-0.53615-0.32817-0.53615-0.7735zm1.0885 31.009-0.55238-0.7735h47.066l-0.53616 0.7735v-31.009l0.53616 0.7735h-47.066l0.55238-0.7735z" stroke="#000" stroke-width=".019515px"/>
  <text id="text3218" font-size="14.21px" xml:space="preserve" transform="scale(1.0147 .98547)" y="521.4765" x="444.95285" font-family="Arial" line-height="125%" fill="#000000">MUX</text>
  <path id="path3220" stroke-linejoin="round" d="m430.62 509.32h13.096v1.0528h-13.096z" stroke="#000" stroke-width=".021368px"/>
  <text id="text3222" font-size="11.454px" xml:space="preserve" transform="scale(1.0147 .98547)" y="513.21521" x="410.77048" font-family="Arial" fill="#000000">MR</text>
  <text id="text3224" font-size="14.187px" xml:space="preserve" transform="matrix(.0017745 -.97179 1.029 .0017233 0 0)" y="689.64844" x="-532.42957" font-family="Arial" line-height="125%" fill="#000000"><tspan id="tspan4437" y="689.64844" x="-532.42957">Rest of CPU</tspan></text>
  <text id="text3228" font-size="14.187px" xml:space="preserve" transform="matrix(.0017745 -.97179 1.029 .0017233 0 0)" y="705.8559" x="-539.38721" font-family="Arial" fill="#000000">control </text>
  <text id="text3230" font-size="14.187px" xml:space="preserve" transform="matrix(.0017745 -.97179 1.029 .0017233 0 0)" y="705.21869" x="-493.34601" font-family="Arial" fill="#000000">signals</text>
  <path id="path3232" stroke-linejoin="round" d="m626.92 354.27v-40.051h-1.0888v40.051z" stroke="#000" stroke-width=".038078px"/>
  <path id="path3234" stroke-linejoin="round" d="m471.49 518.79v12.864h-1.431v-12.864h1.431zm3.621 11.455-4.3365 8.4228-4.3365-8.4228h8.673z" stroke="#000" stroke-width=".021368px"/>
  <path id="path3236" stroke-linejoin="round" d="m531.96 488.09c0-0.42911 0.2236-0.81053 0.51109-0.81053h46.284c0.28749 0 0.51107 0.38142 0.51107 0.81053v31.565c0 0.42914-0.22358 0.76288-0.51107 0.76288h-46.284c-0.28749 0-0.51109-0.33374-0.51109-0.76288zm1.0541 31.565-0.54298-0.81054h46.284l-0.54299 0.81054v-31.565l0.54299 0.81058h-46.284l0.54298-0.81058z" stroke="#000" stroke-width=".039025px"/>
  <text id="text3238" font-size="14.21px" xml:space="preserve" transform="scale(1.0147 .98547)" y="521.55475" x="531.19702" font-family="Arial" line-height="125%" fill="#000000">MUX</text>
  <path id="path3240" stroke-linejoin="round" d="m520.28 509.2h13.074v1.0528h-13.074z" stroke="#000" stroke-width=".021368px"/>
  <text id="text3242" font-size="11.454px" xml:space="preserve" transform="scale(1.0147 .98547)" y="513.07898" x="501.38727" font-family="Arial" fill="#000000">MR</text>
  <path id="path3244" stroke-linejoin="round" d="m557.06 518.64v12.886h-1.431v-12.886h1.431zm3.5993 11.499-4.3365 8.4228-4.3365-8.4228h8.673z" stroke="#000" stroke-width=".042736px"/>
  <path id="path3246" stroke-linejoin="round" d="m619.01 486.85c0-0.43764 0.21406-0.82674 0.48935-0.82674h44.318c0.27528 0 0.51996 0.3891 0.51996 0.82674v32.196c0 0.43768-0.24468 0.77811-0.51996 0.77811h-44.318c-0.27529 0-0.48935-0.34043-0.48935-0.77811zm1.0092 32.196-0.51996-0.82672h44.318l-0.51996 0.82672v-32.196l0.51996 0.82676h-44.318l0.51996-0.82676z" stroke="#000" stroke-width=".038567px"/>
  <text id="text3248" font-size="14.21px" xml:space="preserve" transform="scale(1.0147 .98547)" y="520.87323" x="617.37048" font-family="Arial" line-height="125%" fill="#000000">MUX</text>
  <path id="path3252" stroke-linejoin="round" d="m606.4 507.85h13.053v1.0528h-13.053z" stroke="#000" stroke-width=".042736px"/>
  <text id="text3254" font-size="11.454px" xml:space="preserve" transform="scale(1.0147 .98547)" y="511.69336" x="584.93628" font-family="Arial" fill="#000000">MR</text>
  <path id="path3256" stroke-linejoin="round" d="m643.67 517.93v12.886h-1.431v-12.886h1.431zm3.6426 11.499-4.3365 8.4228-4.3365-8.4228h8.673z" stroke="#000" stroke-width=".042736px"/>
  <path id="path3258" stroke-linejoin="round" d="m483.17 353.5h31.007v1.0503h-31.007z" stroke="#000" stroke-width=".024050px"/>
  <path id="path3260" stroke-linejoin="round" d="m482.9 470.96 1.0442-117.54-1.2734-0.0201-1.0442 117.56z" stroke="#000" stroke-width=".022623px"/>
  <path id="path3262" fill-rule="evenodd" d="m567.23 426.69c0-1.1792 0.91066-2.1058 2.0816-2.1058 1.1275 0 2.0382 0.92651 2.0382 2.1058 0 1.1792-0.91065 2.1058-2.0382 2.1058-1.1709 0-2.0816-0.92652-2.0816-2.1058"/>
  <path id="path3264" stroke-linejoin="round" d="m565.59 426.82v-0.25268l0.0434-0.46327c0-0.0842 0.0435-0.16844 0.0435-0.25268l0.13011-0.37903c0.0435-0.0842 0.0435-0.16844 0.0868-0.21056l0.17344-0.37903c0.0434-0.0842 0.13008-0.16847 0.17346-0.25269l0.2602-0.29479c0.0434-0.0842 0.13009-0.12637 0.17344-0.16846l0.30357-0.29481c0.0867-0.0421 0.17345-0.12634 0.26018-0.16845l0.34692-0.16846c0.0867-0.0421 0.17346-0.0842 0.26019-0.12635l0.39028-0.12634c0.0868-0.0421 0.17347-0.0421 0.30355-0.0421l0.39029-0.0421c0.1301-0.0421 0.21682-0.0421 0.30355 0l0.43365 0.0421c0.0868 0 0.21682 0 0.30355 0.0421l0.39029 0.12634c0.0868 0.0421 0.13009 0.0842 0.21682 0.0842l0.34692 0.21057c0.0866 0.0421 0.21683 0.12635 0.26019 0.16848l0.30356 0.29478c0.0866 0.0421 0.13009 0.12635 0.21681 0.16847l0.21682 0.3369c0.0868 0.0421 0.1301 0.12635 0.17346 0.21057l0.17348 0.37903c0.0434 0.0421 0.0868 0.12633 0.0868 0.21058l0.13011 0.37903c0.0434 0.0842 0.0434 0.16845 0.0434 0.25267l0.0435 0.46327v0.25267l-0.0435 0.42117c0 0.12635 0 0.21057-0.0434 0.29476l-0.13011 0.37905c0 0.0842-0.0434 0.16848-0.0868 0.21058l-0.17348 0.37903c-0.0435 0.0842-0.0866 0.16845-0.17346 0.21056l-0.21682 0.33691c-0.0866 0.0421-0.13008 0.12635-0.21681 0.16847l-0.30356 0.29481c-0.0434 0.0421-0.17346 0.12633-0.26019 0.16845l-0.34692 0.16844c-0.0866 0.0421-0.13009 0.0842-0.21682 0.12638l-0.39029 0.12632c-0.0868 0.0421-0.21682 0.0421-0.30355 0.0421l-0.43365 0.0421c-0.0866 0.0421-0.17345 0.0421-0.30355 0l-0.39029-0.0421c-0.13008 0-0.21682 0-0.30355-0.0421l-0.39028-0.12632c-0.0867-0.0421-0.17344-0.0842-0.26019-0.12638l-0.34692-0.16844c-0.0868-0.0421-0.17346-0.12634-0.26018-0.16845l-0.29-0.3c-0.0434-0.0421-0.13008-0.0842-0.17344-0.16847l-0.2602-0.29477c-0.0435-0.0842-0.1301-0.16848-0.17346-0.2527l-0.17344-0.37903c-0.0435-0.0421-0.0435-0.12634-0.0868-0.21058l-0.13011-0.37905c0-0.0842-0.0435-0.16841-0.0435-0.29476zm2.9053 0.16845-0.0434-0.25266 0.13009 0.37902-0.0866-0.21058 0.17347 0.33691-0.17347-0.25269 0.26019 0.33693-0.17347-0.16845 0.30356 0.25267-0.21681-0.16846 0.3469 0.16846-0.26018-0.0842 0.39028 0.12634-0.30355-0.0842 0.39028 0.0421h-0.30356l0.43366-0.0421-0.34693 0.0842 0.39029-0.12634-0.21682 0.0842 0.34691-0.21056-0.2602 0.21056 0.30358-0.25267-0.17347 0.16845 0.26018-0.29481-0.17346 0.21057 0.17346-0.33691-0.0866 0.21058 0.13009-0.37902-0.0435 0.25266 0.0435-0.42113v0.25268l-0.0435-0.42112 0.0435 0.25267-0.13009-0.37903 0.0866 0.21057-0.17346-0.33692 0.17346 0.21057-0.26018-0.29479 0.17347 0.16845-0.30358-0.25267 0.2602 0.16844-0.34691-0.16844 0.21682 0.0842-0.39029-0.12632 0.34693 0.0842-0.43366-0.0421h0.30356l-0.39028 0.0421 0.30355-0.0842-0.39028 0.12632 0.26018-0.0842-0.3469 0.16844 0.21681-0.16844-0.30356 0.25267 0.17347-0.16845-0.26019 0.33693 0.17347-0.25271-0.17347 0.33692 0.0866-0.21057-0.13009 0.37903 0.0434-0.25267-0.0434 0.42112v-0.25268z" stroke="#000" stroke-width=".042736px"/>
  <path id="path3266" fill-rule="evenodd" d="m482.38 427.14c0-1.1581 0.93235-2.1058 2.0598-2.1058 1.1492 0 2.0598 0.94757 2.0598 2.1058 0 1.1792-0.91064 2.1268-2.0598 2.1268-1.1275 0-2.0598-0.9476-2.0598-2.1268"/>
  <path id="path3268" stroke-linejoin="round" d="m479.97 427.28v-0.27372l0.0434-0.44222c0.0217-0.0842 0.0217-0.16846 0.0651-0.25268l0.10842-0.40009c0.0216-0.063 0.065-0.14739 0.0866-0.21058l0.19514-0.35797c0.0435-0.10531 0.0868-0.1895 0.15177-0.25266l0.26019-0.31587c0.0651-0.0631 0.10843-0.12635 0.17347-0.16847l0.30355-0.27372c0.0867-0.0632 0.17346-0.12636 0.26018-0.16847l0.34694-0.18951c0.065-0.0421 0.15177-0.0842 0.2385-0.1053l0.39027-0.12635c0.10842-0.0421 0.21683-0.063 0.30356-0.063l0.41196-0.0421c0.10843-0.0211 0.21682-0.0211 0.30355 0l0.41197 0.0421c0.10843 0 0.21684 0.021 0.32525 0.063l0.39027 0.12635c0.0866 0.021 0.15178 0.063 0.23852 0.1053l0.34691 0.18951c0.0866 0.0421 0.17346 0.10532 0.26018 0.16847l0.30355 0.27372c0.065 0.0421 0.10842 0.10531 0.17347 0.16847l0.26018 0.31587c0.0434 0.0631 0.10842 0.14738 0.15179 0.25266l0.19514 0.35797c0.0216 0.0632 0.0649 0.14741 0.0867 0.21058l0.10842 0.40009c0.0434 0.0842 0.0434 0.16846 0.065 0.25268l0.0435 0.44222v0.27372l-0.0435 0.42116c-0.0217 0.1053-0.0217 0.18951-0.065 0.25267l-0.10842 0.4001c-0.0216 0.0842-0.0649 0.16844-0.0867 0.25268l-0.19514 0.35797c-0.0435 0.0842-0.10843 0.16845-0.15179 0.25269l-0.26018 0.31586c-0.0651 0.063-0.10842 0.10531-0.17347 0.16844l-0.30355 0.25271c-0.0867 0.063-0.17344 0.12635-0.26018 0.1895l-0.34691 0.18951c-0.0867 0.0421-0.15179 0.063-0.23852 0.10532l-0.39027 0.12633c-0.10842 0.021-0.21682 0.0421-0.32525 0.063l-0.41197 0.0421h-0.30355l-0.41196-0.0421c-0.0869-0.021-0.19514-0.0421-0.30356-0.063l-0.39027-0.12633c-0.0867-0.0421-0.17345-0.063-0.2385-0.10532l-0.34694-0.18951c-0.0868-0.0631-0.17345-0.12633-0.26018-0.1895l-0.30355-0.25271-0.17347-0.16844-0.26019-0.31586c-0.0649-0.0842-0.10842-0.16845-0.15177-0.25269l-0.19514-0.35797c-0.0217-0.0842-0.0651-0.16845-0.0866-0.25268l-0.13009-0.4001c-0.0216-0.0631-0.0216-0.14739-0.0434-0.25267zm2.9272 0.14742-0.0435-0.2527 0.10841 0.40009-0.0867-0.23162 0.17346 0.35797-0.15178-0.25269 0.26019 0.31587-0.17344-0.16848 0.30354 0.27376-0.26018-0.18952 0.34692 0.18952-0.23851-0.10532 0.39027 0.12635-0.32524-0.0631 0.41196 0.0421h-0.30355l0.41199-0.0421-0.30356 0.0631 0.39027-0.12635-0.2385 0.10532 0.34692-0.18952-0.26019 0.18952 0.30355-0.27376-0.17346 0.16848 0.26019-0.31587-0.15178 0.25269 0.17348-0.35797-0.0867 0.23162 0.10842-0.40009-0.0434 0.2527 0.0434-0.42114v0.27372l-0.0434-0.4422 0.0649 0.27375-0.13007-0.40008 0.0867 0.23162-0.17346-0.35797 0.15178 0.25268-0.2602-0.31585 0.17346 0.16848-0.30354-0.2527 0.2602 0.16845-0.34693-0.1895 0.23851 0.1053-0.39029-0.12635 0.30358 0.0631-0.41199-0.0421h0.30355l-0.41197 0.0421 0.32525-0.0631-0.39028 0.12635 0.23849-0.1053-0.34691 0.1895 0.26019-0.16845-0.30355 0.2527 0.17344-0.16848-0.26017 0.31585 0.15176-0.25268-0.17345 0.35797 0.0868-0.23162-0.13009 0.40008 0.065-0.27375-0.0434 0.4422v-0.27372z" stroke="#000" stroke-width=".021368px"/>
  <path id="path3270" stroke-linejoin="round" d="m482.95 459.34v21.219h-1.431v-21.219h1.431zm3.621 19.726-4.3365 8.9252-4.3365-8.9252h8.673z" stroke="#000" stroke-width=".021995px"/>
  <path id="path3272" stroke-linejoin="round" d="m488.24 468.1-11.666 8.3597 0.62879 0.84231 11.666-8.3598z" stroke="#000" stroke-width=".021368px"/>
  <text id="text3274" font-size="11.454px" xml:space="preserve" transform="scale(1.0147 .98547)" y="479.82275" x="465.5611" font-family="Arial" fill="#000000">5</text>
  <path id="path3276" stroke-linejoin="round" d="m569.92 426.38-11.235-0.20061-0.0273 1.3902 11.278 0.20267-0.0161-1.3922zm-9.7563-3.6717-8.7156 4.0523 8.5916 4.3749 0.12389-8.4271z" stroke="#000" stroke-width=".042736px"/>
  <path id="path3278" stroke-linejoin="round" d="m569.46 468.64v-102.79h-1.0765v102.79z" stroke="#000" stroke-width=".050290px"/>
  <path id="path3280" stroke-linejoin="round" d="m514.21 354.15-0.25368-41.232 1.0886-0.0163 0.25367 41.232z" stroke="#000" stroke-width=".056125px"/>
  <path id="path3282" stroke-linejoin="round" d="m569.8 460.52v20.005h-1.431v-20.005h1.431zm3.6426 18.615-4.3365 8.4228-4.3365-8.4228h8.673z" stroke="#000" stroke-width=".042736px"/>
  <path id="path3284" stroke-linejoin="round" d="m575.08 468.46-11.666 8.3808 0.65046 0.84228 11.666-8.3808z" stroke="#000" stroke-width=".042736px"/>
  <text id="text3286" font-size="11.454px" xml:space="preserve" transform="scale(1.0147 .98547)" y="478.70361" x="549.26752" font-family="Arial" fill="#000000">5</text>
  <path id="path3288" stroke-linejoin="round" d="m625.72 354.11h31.112v1.0688h-31.112z" stroke="#000" stroke-width=".026308px"/>
  <path id="path3290" stroke-linejoin="round" d="m656.54 428.87-11.087 0.14862 0.004-1.3956 11.083-0.19056 0.00025 1.4375zm-9.5536 3.6107-8.7722-4.0666 8.6171-4.3335 0.15518 8.4z" stroke="#000" stroke-width=".042736px"/>
  <path id="path3292" stroke-linejoin="round" d="m656.57 470.28v-116.88h-1.0718v116.88z" stroke="#000" stroke-width=".054876px"/>
  <path id="path3296" stroke-linejoin="round" d="m662.03 465.55-11.666 8.3808 0.65047 0.84228 11.666-8.3387z" stroke="#000" stroke-width=".042736px"/>
  <text id="text3298" font-size="11.454px" xml:space="preserve" transform="scale(1.0147 .98547)" y="477.10492" x="635.16418" font-family="Arial" fill="#000000">5</text>
  <path id="path3300" stroke-linejoin="round" d="m656.75 458.92v20.048h-1.431v-20.048h1.431zm3.5992 18.615-4.3365 8.4228-4.3365-8.4228h8.6729z" stroke="#000" stroke-width=".042736px"/>
  <path id="path3302" stroke-linejoin="round" d="m755.67 482.79c0-0.43962 0.27483-0.83037 0.584-0.83037h49.743c0.34354 0 0.58401 0.39075 0.58401 0.83037v32.337c0 0.43962-0.24047 0.78155-0.58401 0.78155h-49.743c-0.30917 0-0.584-0.34193-0.584-0.78155zm1.1335 32.337-0.54965-0.83037h49.743l-0.54963 0.83037v-32.337l0.54963 0.83035h-49.743l0.54965-0.83035z" stroke="#000" stroke-width=".040964px"/>
  <text id="text3304" font-size="14.21px" xml:space="preserve" transform="scale(1.0147 .98547)" y="516.43726" x="754.2937" font-family="Arial" line-height="125%" fill="#000000">MUX</text>
  <path id="path3306" stroke-linejoin="round" d="m806.64 502.47h13.096v1.0528h-13.096z" stroke="#000" stroke-width=".042736px"/>
  <path id="path3308" stroke-linejoin="round" d="m783.63 515.36v12.886h-1.4744v-12.886h1.4744zm3.5992 11.499-4.3365 8.4228-4.3365-8.4228h8.673z" stroke="#000" stroke-width=".042736px"/>
  <path id="path3310" stroke-linejoin="round" d="m743.6 283.76c0-0.37894 0.44143-0.71575 1.009-0.71575h59.594c0.56758 0 1.0721 0.33681 1.0721 0.71575v29.345c0 0.37892-0.50449 0.71575-1.0721 0.71575h-59.594c-0.56759 0-1.009-0.33683-1.009-0.71575zm1.529 29.396-0.52007-0.76547h59.594l-0.47317 0.97585 0.0895-29.692 0.38387 0.80244h-59.594l0.57026-0.61622z" stroke="#000" stroke-width=".051528px"/>
  <text id="text3312" font-size="15.631px" xml:space="preserve" transform="scale(1.0147 .98547)" y="307.79276" x="736.77826" font-family="Arial" line-height="125%" fill="#000000">SelCop</text>
  <path id="path3314" fill-rule="evenodd" d="m654.85 428.34c0-1.1792 0.91064-2.1478 2.0816-2.1478 1.1275 0 2.0382 0.96861 2.0382 2.1478s-0.91067 2.1058-2.0382 2.1058c-1.1709 0-2.0816-0.92652-2.0816-2.1058"/>
  <path id="path3316" stroke-linejoin="round" d="m652.72 428.12v-0.25268l0.0435-0.46325c0-0.0842 0.0434-0.16848 0.0434-0.2527l0.13009-0.37903c0.0434-0.0842 0.0434-0.16846 0.0866-0.25269l0.21682-0.33692c0.0434-0.0842 0.0866-0.16845 0.13007-0.25269l0.2602-0.29481c0.0435-0.0842 0.0866-0.12632 0.17347-0.21055l0.30355-0.25269c0.0867-0.0842 0.17347-0.12633 0.26019-0.16845l0.34692-0.21059c0.0869-0.0421 0.17346-0.0421 0.26019-0.0842l0.39028-0.12634c0.0869-0.0421 0.17345-0.0421 0.30356-0.0842l0.39028-0.0421h0.30355l0.43366 0.0421c0.0866 0.0421 0.17344 0.0421 0.30355 0.0842l0.39027 0.12634c0.0866 0.0421 0.17346 0.0421 0.2602 0.0842l0.34692 0.21059c0.0867 0.0421 0.17346 0.0842 0.21683 0.16845l0.30353 0.25269 0.17348 0.16845 0.26018 0.33691c0.0867 0.0842 0.13008 0.16846 0.17345 0.25269l0.17347 0.33692c0.0435 0.0842 0.0867 0.16847 0.0867 0.25269l0.13009 0.37903c0.0434 0.0842 0.0434 0.16845 0.0434 0.2527l0.0435 0.46325c0.0434 0.0842 0.0434 0.16844 0 0.25268l-0.0435 0.42114c0 0.12633 0 0.21057-0.0434 0.29481l-0.13009 0.37902c0 0.0842-0.0434 0.16846-0.0867 0.21056l-0.17347 0.37904c-0.0435 0.0842-0.0866 0.16844-0.17345 0.25268l-0.26018 0.29481c-0.0435 0.0842-0.0869 0.12633-0.17348 0.16845l-0.30353 0.29481c-0.0435 0.0421-0.13011 0.12633-0.21683 0.16845l-0.34692 0.16846c-0.0866 0.0421-0.17345 0.0842-0.2602 0.12633l-0.39027 0.12636c-0.13011 0.0421-0.21682 0.0421-0.30355 0.0421l-0.43366 0.0421c-0.0868 0.0421-0.17345 0.0421-0.30355 0l-0.39028-0.0421c-0.13011 0-0.21683 0-0.30356-0.0421l-0.39028-0.12636c-0.0869-0.0421-0.17346-0.0842-0.26019-0.12633l-0.34692-0.16846c-0.0867-0.0421-0.17346-0.12635-0.26019-0.16845l-0.30355-0.29481c-0.0868-0.0421-0.13009-0.12633-0.17347-0.16845l-0.2602-0.3369c-0.0434-0.0421-0.0866-0.12635-0.13007-0.21059l-0.21682-0.37904c0-0.0421-0.0435-0.12633-0.0866-0.21056l-0.0868-0.37902c-0.0435-0.0842-0.0867-0.16848-0.0867-0.29481zm2.9488 0.16846-0.0867-0.2527 0.1301 0.37905-0.0868-0.21058 0.17345 0.33691-0.13009-0.21058 0.26019 0.29481-0.21682-0.16847 0.30354 0.25269-0.21682-0.16845 0.34693 0.16845-0.26019-0.0842 0.39027 0.12633-0.30356-0.0842 0.39029 0.0421h-0.30357l0.43367-0.0421-0.30356 0.0842 0.3903-0.12633-0.26019 0.0842 0.3469-0.16845-0.26017 0.16845 0.30354-0.25269-0.17346 0.16847 0.2602-0.33691-0.17347 0.25268 0.21683-0.33691-0.0868 0.21058 0.0868-0.37905-0.0434 0.2527 0.0434-0.42114v0.25268l-0.0434-0.42115 0.0434 0.25269-0.1301-0.42115 0.1301 0.25269-0.21683-0.33692 0.17347 0.25269-0.2602-0.3369 0.17346 0.16844-0.30354-0.25268 0.26017 0.16845-0.3469-0.16845 0.26019 0.0842-0.3903-0.12635 0.30356 0.0842-0.43367-0.0421h0.30357l-0.39029 0.0421 0.30356-0.0842-0.39027 0.12635 0.26019-0.0842-0.34693 0.16845 0.21682-0.16845-0.30354 0.25268 0.21682-0.21057-0.26019 0.33692 0.13009-0.21058-0.17345 0.33692 0.0868-0.25269-0.1301 0.42115 0.0867-0.25269-0.0434 0.42115v-0.25268z" stroke="#000" stroke-width=".042736px"/>
  <path id="path3318" stroke-linejoin="round" d="m795.03 353.84 0.29958 122.66-1.4315-0.008-0.29959-122.66 1.4316 0.008zm3.9128 121.4-4.3235 7.2306-4.3534-7.2156 8.6769-0.0148z" stroke="#000" stroke-width=".039582px"/>
  <path id="path3320" stroke-linejoin="round" d="m768.2 380.06 0.43349 94.735h-1.4305l-0.47682-94.687 1.4738-0.0485zm4.0312 93.091-4.2915 9.6668-4.3782-9.6186 8.6696-0.0485z" stroke="#000" stroke-width=".045773px"/>
  <text id="text3322" font-size="11.454px" xml:space="preserve" transform="scale(1.0147 .98547)" y="505.19092" x="801.16888" font-family="Arial" fill="#000000">MC</text>
  <path id="path3324" stroke-linejoin="round" d="m797.96 450.46-11.666 8.3808 0.65047 0.84228 11.666-8.3387z" stroke="#000" stroke-width=".042736px"/>
  <path id="path3326" stroke-linejoin="round" d="m765.97 426.53-11.666 8.3387 0.60712 0.88438 11.666-8.3808z" stroke="#000" stroke-width=".042736px"/>
  <text id="text3328" font-size="11.454px" xml:space="preserve" transform="matrix(-.072802 -1.0381 .95833 -.070703 0 0)" line-height="125%" y="759.92242" x="-493.15637" font-family="Arial" fill="#000000"><tspan id="tspan4439" y="759.92242" x="-493.15637">IR3 -- IR0</tspan></text>
  <text id="text3330" font-size="11.454px" xml:space="preserve" transform="scale(1.0147 .98547)" y="461.73996" x="769.39264" font-family="Arial" fill="#000000">4</text>
  <text id="text3332" font-size="11.454px" xml:space="preserve" transform="scale(1.0147 .98547)" y="478.83182" x="439.27789" font-family="Arial" fill="#000000">5</text>
  <text id="text3334" font-size="11.454px" xml:space="preserve" transform="scale(1.0147 .98547)" y="478.2673" x="523.18823" font-family="Arial" fill="#000000">5</text>
  <text id="text3336" font-size="11.454px" xml:space="preserve" transform="scale(1.0147 .98547)" y="476.07397" x="607.1676" font-family="Arial" fill="#000000">5</text>
  <text id="text3338" font-size="9.9146px" xml:space="preserve" transform="scale(1.0147 .98547)" y="505.88602" x="446.19299" font-family="Arial" fill="#000000">0</text>
  <text id="text3340" font-size="9.9146px" xml:space="preserve" transform="scale(1.0147 .98547)" y="506.12878" x="471.12631" font-family="Arial" fill="#000000">1</text>
  <text id="text3342" font-size="14.187px" xml:space="preserve" transform="scale(1.0147 .98547)" y="560.62537" x="538.56848" font-family="Arial" fill="#000000">RB</text>
  <text id="text3344" font-size="14.187px" xml:space="preserve" transform="scale(1.0147 .98547)" y="559.60339" x="623.93195" font-family="Arial" fill="#000000">RC</text>
  <text id="text3346" font-size="14.187px" xml:space="preserve" transform="scale(1.0147 .98547)" y="560.12756" x="454.61679" font-family="Arial" fill="#000000">RA</text>
  <text id="text3348" font-size="14.187px" xml:space="preserve" transform="scale(1.0147 .98547)" y="558.03064" x="759.15973" font-family="Arial" fill="#000000">Cop</text>
  <text id="text3350" font-size="9.9146px" xml:space="preserve" transform="scale(1.0147 .98547)" y="505.88608" x="531.1394" font-family="Arial" fill="#000000">0</text>
  <text id="text3352" font-size="9.9146px" xml:space="preserve" transform="scale(1.0147 .98547)" y="506.12878" x="557.1842" font-family="Arial" fill="#000000">1</text>
  <text id="text3354" font-size="9.9146px" xml:space="preserve" transform="scale(1.0147 .98547)" y="500.33765" x="754.526" font-family="Arial" fill="#000000">0</text>
  <text id="text3356" font-size="9.9146px" xml:space="preserve" transform="scale(1.0147 .98547)" y="499.93301" x="780.29443" font-family="Arial" fill="#000000">1</text>
  <text id="text3358" font-size="11.369px" xml:space="preserve" transform="scale(1.0147 .98547)" y="182.80415" x="287.00433" font-family="Arial" line-height="125%" fill="#000000">A1</text>
  <text id="text3362" font-size="17.094px" xml:space="preserve" transform="scale(1.0147 .98547)" y="290.06512" x="261.5722" font-family="Arial" fill="#000000">MUX B</text>
  <path id="path3364" stroke-linejoin="round" d="m253.15 307.99c0 0.4001 0.25777 0.71597 0.60758 0.71597h76.556c0.33138 0 0.60757-0.31587 0.60757-0.71597v-44.79c0-0.37905-0.27619-0.69492-0.60757-0.69492h-76.556c-0.34981 0-0.60758 0.31587-0.60758 0.69492zm1.2152-44.79-0.60756 0.69491h76.556l-0.60759-0.69491v44.79l0.60759-0.69491h-76.556l0.60756 0.69491z" stroke="#000" stroke-width=".019690px"/>
  <text id="text3366" font-size="9.9146px" xml:space="preserve" transform="scale(1.0147 .98547)" y="306.26175" x="268.40356" font-family="Arial" fill="#000000">0</text>
  <text id="text3368" font-size="9.9146px" xml:space="preserve" transform="scale(1.0147 .98547)" y="306.50436" x="298.64609" font-family="Arial" fill="#000000">1</text>
  <path id="path3372" stroke-linejoin="round" d="m307.54 328.32v-12.886h-1.4527v12.886h1.4527zm3.5993-11.477-4.3365-8.4228-4.3365 8.4228h8.6729z" stroke="#000" stroke-width=".021368px"/>
  <text id="text3374" font-size="11.369px" xml:space="preserve" transform="scale(1.0147 .98547)" y="74.826294" x="221.56964" font-family="Arial" line-height="125%" fill="#000000">00</text>
  <text id="text3376" font-size="11.369px" xml:space="preserve" transform="scale(1.0147 .98547)" y="103.39678" x="221.56964" font-family="Arial" line-height="125%" fill="#000000">01</text>
  <text id="text3378" font-size="11.369px" xml:space="preserve" transform="scale(1.0147 .98547)" y="135.67131" x="220.88919" font-family="Arial" line-height="125%" fill="#000000">10</text>
  <text id="text3380" font-size="11.369px" xml:space="preserve" transform="scale(1.0147 .98547)" y="166.63461" x="221.56964" font-family="Arial" line-height="125%" fill="#000000">11</text>
  <path id="path3382" fill-rule="evenodd" fill="#fff" d="m298.71 350.21 8.1959-15.919 8.196 15.919z"/>
  <path id="path3384" stroke-linejoin="round" d="m298.71 346.57c-0.19518 0-0.36865-0.0797-0.4771-0.19079-0.0866-0.12715-0.10841-0.27022-0.0217-0.38149l8.1973-12.018c0.0866-0.14306 0.28191-0.22255 0.49877-0.22255 0.19517 0 0.39034 0.0796 0.4771 0.22255l8.1973 12.018c0.0868 0.11127 0.065 0.25434-0.0217 0.38149-0.10843 0.11128-0.28192 0.19079-0.4554 0.19079zm16.395-0.79481-0.49878 0.57227-8.1972-12.018h0.97587l-8.1973 12.018-0.47707-0.57227z" stroke="#000" stroke-width=".018567px"/>
  <path id="path3386" fill-rule="evenodd" fill="#fff" d="m302.69 330.85c0-2.19 1.8429-3.9797 4.0979-3.9797 2.2767 0 4.0979 1.7897 4.0979 3.9797s-1.8213 3.9797-4.0979 3.9797c-2.2551 0-4.0979-1.7897-4.0979-3.9797"/>
  <path id="path3388" stroke-linejoin="round" d="m302.16 330.92c-0.0217-0.0421-0.0217-0.0842 0-0.12636l0.0867-0.80018c0-0.021 0-0.063 0.0216-0.0842l0.23849-0.75806c0-0.0211 0.0217-0.0631 0.0217-0.0842l0.36859-0.67384c0.0216-0.0421 0.0434-0.063 0.0649-0.10531l0.52038-0.58961 0.0651-0.063 0.60712-0.48431c0.0217-0.0211 0.0651-0.0421 0.0866-0.0421l0.69384-0.37904c0.0216-0.021 0.065-0.021 0.10843-0.0421l0.75887-0.23164c0.0435 0 0.0651-0.021 0.10843-0.021l0.82392-0.0842h0.10842l0.82392 0.0842c0.0435 0 0.0651 0.021 0.10843 0.021l0.75888 0.23164c0.0435 0.021 0.0651 0.021 0.10843 0.0421l0.69383 0.37904c0.0217 0 0.0651 0.021 0.0866 0.0421l0.60712 0.48431 0.0651 0.063 0.52038 0.58961c0.0217 0.0421 0.0435 0.063 0.0651 0.10531l0.3686 0.67384c0 0.021 0.0217 0.0632 0.0217 0.0842l0.23851 0.75806c0.0216 0.0211 0.0216 0.0631 0.0216 0.0842l0.0869 0.80018c0.0217 0.0421 0.0217 0.0842 0 0.12636l-0.0869 0.80016c0 0.021 0 0.0631-0.0216 0.0842l-0.23851 0.75806c0 0.021-0.0217 0.063-0.0217 0.0842l-0.3686 0.67384c-0.0217 0.0421-0.0435 0.0632-0.0651 0.10532l-0.52038 0.5896-0.0651 0.0631-0.60712 0.48433c-0.0217 0.021-0.0651 0.0421-0.0866 0.063l-0.69383 0.35798c-0.0435 0.021-0.0649 0.021-0.10843 0.0421l-0.75888 0.23163c-0.0435 0-0.0651 0.021-0.10843 0.021l-0.82392 0.0842h-0.10842l-0.82392-0.0842c-0.0435 0-0.0651-0.021-0.10843-0.021l-0.75887-0.23163c-0.0435-0.021-0.0651-0.021-0.10843-0.0421l-0.69384-0.35798c-0.0217-0.021-0.0651-0.0421-0.0866-0.063l-0.60712-0.48433-0.0651-0.0631-0.52038-0.5896c-0.0217-0.0421-0.0435-0.0631-0.0649-0.10532l-0.36859-0.67384c0-0.0211-0.0217-0.0631-0.0217-0.0842l-0.23849-0.75806c-0.0216-0.021-0.0216-0.063-0.0216-0.0842zm1.1492 0.67382-0.0217-0.0842 0.2385 0.73701-0.0216-0.0842 0.36859 0.67384-0.0651-0.1053 0.49871 0.5896-0.0651-0.0631 0.60711 0.50537-0.0866-0.063 0.69385 0.35797-0.10843-0.0421 0.78058 0.23164-0.10841-0.021 0.82392 0.0842h-0.10843l0.82395-0.0842-0.10842 0.021 0.78057-0.23164-0.10843 0.0421 0.69385-0.35797-0.0866 0.063 0.60711-0.50537-0.0651 0.0631 0.4987-0.5896-0.0649 0.1053 0.36859-0.67384-0.0217 0.0842 0.23852-0.73701-0.0217 0.0842 0.0866-0.80018v0.12636l-0.0866-0.80017 0.0217 0.0842-0.23852-0.73699 0.0217 0.0842-0.36859-0.67384 0.0649 0.10532-0.4987-0.58958 0.0651 0.063-0.60711-0.48429 0.0866 0.0421-0.69385-0.35797 0.10843 0.0421-0.78057-0.23162 0.10842 0.021-0.82395-0.0842h0.10843l-0.82392 0.0842 0.10841-0.021-0.78058 0.23162 0.10843-0.0421-0.69385 0.35797 0.0866-0.0421-0.60711 0.48429 0.0651-0.063-0.49871 0.58958 0.0651-0.10532-0.36859 0.67384 0.0216-0.0842-0.2385 0.73699 0.0217-0.0842-0.0867 0.80017v-0.12636z" stroke="#000" stroke-width=".021368px"/>
  <path id="path3390" stroke-linejoin="round" d="m307.77 361.77v-15.919h-1.0841v15.919z" stroke="#000" stroke-width=".021368px"/>
  <path id="path3392" stroke-linejoin="round" d="m274.1 360.98h33.456v1.0528h-33.456z" stroke="#000" stroke-width=".021368px"/>
  <path id="path3394" fill-rule="evenodd" fill="#d9d9d9" d="m437.36 283.29v30.891h20.605v-30.891h-20.605z"/>
  <path id="path3396" stroke-linejoin="round" d="m436.28 283.49c0-0.36696 0.38785-0.67272 0.91419-0.67272h20.582c0.49866 0 0.91419 0.30576 0.91419 0.67272v29.907c0 0.36695-0.41553 0.67272-0.91419 0.67272h-20.582c-0.52634 0-0.91419-0.30577-0.91419-0.67272zm1.8282 29.907-0.91418-0.67275h20.581l-0.94188 0.67275v-29.907l0.94188 0.67274h-20.581l0.91418-0.67274z" stroke="#000" stroke-width=".023765px"/>
  <path id="path3398" fill-rule="evenodd" fill="#d9d9d9" d="m458.23 283.29v30.891h28.686v-30.891h-28.686z"/>
  <path id="path3400" stroke-linejoin="round" d="m457.5 283.48c0-0.36699 0.30357-0.67281 0.71554-0.67281h28.686c0.39028 0 0.71554 0.30582 0.71554 0.67281v29.909c0 0.36699-0.32526 0.67279-0.71554 0.67279h-28.686c-0.41197 0-0.71554-0.3058-0.71554-0.67279zm1.4311 29.909-0.71553-0.67278h28.686l-0.7372 0.67278v-29.909l0.7372 0.67279h-28.686l0.71553-0.67279z" stroke="#000" stroke-width=".021026px"/>
  <path id="path3402" fill-rule="evenodd" fill="#d9d9d9" d="m416.65 283.29v30.891h20.455v-30.891h-20.455z"/>
  <path id="path3404" stroke-linejoin="round" d="m416.32 283.48c0-0.36695 0.38195-0.67273 0.90033-0.67273h20.272c0.4911 0 0.90034 0.30578 0.90034 0.67273v29.907c0 0.36694-0.40924 0.67272-0.90034 0.67272h-20.272c-0.51838 0-0.90033-0.30578-0.90033-0.67272zm1.8007 29.907-0.90037-0.67276h20.272l-0.92762 0.67276v-29.907l0.92762 0.67273h-20.272l0.90037-0.67273z" stroke="#000" stroke-width=".023584px"/>
  <text id="text3406" font-size="12.789px" xml:space="preserve" transform="scale(1.0147 .98547)" y="308.17386" x="413.18518" font-family="Arial" line-height="125%" fill="#000000">A0</text>
  <text id="text3408" font-size="15.631px" xml:space="preserve" transform="scale(1.0147 .98547)" y="309.25055" x="435.69052" font-family="Arial" line-height="125%" fill="#000000">B</text>
  <text id="text3410" font-size="15.631px" xml:space="preserve" transform="scale(1.0147 .98547)" y="309.25055" x="459.63263" font-family="Arial" line-height="125%" fill="#000000">C</text>
  <text id="text3412" font-size="14.187px" xml:space="preserve" transform="scale(1.0147 .98547)" y="253.11017" x="521.02802" font-family="Arial" fill="#000000">µAddress</text>
  <path id="path3414" stroke-linejoin="round" d="m473.06 313.85v33.797h-1.0601v-33.797z" stroke="#000" stroke-width=".021130px"/>
  <path id="path3416" stroke-linejoin="round" d="m565.85 212.59v22.717h-1.0828v-22.717z" stroke="#000" stroke-width=".022638px"/>
  <path id="path3418" stroke-linejoin="round" d="m487.46 280.44 0.0434-2.4426 0.1301-2.3163 0.0869-1.0949 0.13009-1.0108 0.13008-0.96862 0.13011-0.84229 0.1301-0.84227 0.17345-0.71595 0.17347-0.63171 0.21681-0.54749 0.17346-0.42114c0.0435-0.0421 0.0435-0.0842 0.0435-0.0842l0.21684-0.29481c0.0434-0.0421 0.0434-0.0842 0.0866-0.0842l0.21683-0.21058c0.0435-0.0421 0.13009-0.0842 0.21683-0.12635l0.21682-0.0421c0.0434-0.0421 0.0867-0.0421 0.1301-0.0421h62.965l-0.17345 0.0421 0.21681-0.0842-0.21681 0.12632 0.21681-0.16844-0.0866 0.0842 0.21683-0.29478-0.0434 0.0842 0.17347-0.42115 0.17345-0.46325 0.17346-0.5896 0.13009-0.67383 0.17346-0.75806 0.13009-0.8423 0.0868-0.92651 0.13012-1.0107 0.0868-1.0528 0.0867-2.2742 0.0435-2.4426c0.0434-0.29481 0.26019-0.50538 0.56374-0.50538 0.30357 0 0.52036 0.21057 0.52036 0.50538l0.0434 2.4847 0.13009 2.2321 0.0867 1.0528 0.13009 1.0108 0.0868 0.92651 0.13009 0.8423 0.17346 0.75806 0.1301 0.67383 0.17346 0.5896 0.17345 0.50536 0.17346 0.37903-0.0434-0.0842 0.21684 0.29478-0.0867-0.0842 0.21682 0.16844-0.21682-0.12631 0.21682 0.0842-0.17345-0.0421h62.965c0.0435 0 0.0867 0 0.13009 0.0421l0.21685 0.0421c0.0868 0.0421 0.17345 0.0842 0.21681 0.12636l0.21683 0.21057c0.0434 0 0.0434 0.0421 0.0867 0.0842l0.21682 0.29481s0 0.0421 0.0434 0.0842l0.17346 0.37901 0.21683 0.58962 0.17345 0.63171 0.17345 0.71593 0.13011 0.80018 0.1301 0.8844 0.13008 0.96861 0.1301 1.0108 0.0867 1.0528 0.0867 2.3163 0.0435 2.4847h-1.0842l-0.0434-2.4426-0.0867-2.2742-0.0868-1.0108-0.1301-1.0107-0.0866-0.92652-0.13011-0.8423-0.17344-0.80017-0.13011-0.63171-0.17345-0.5896-0.17345-0.50537-0.17346-0.37902 0.0434 0.0842-0.21682-0.29481 0.0866 0.0842-0.21682-0.21056 0.21682 0.12633-0.21682-0.0421h0.17345-62.965-0.13009l-0.21683-0.0842c-0.0867 0-0.17344-0.0421-0.21682-0.12634l-0.21682-0.16847c-0.0434-0.0421-0.0434-0.0842-0.0868-0.0842l-0.21682-0.29481c0-0.0421 0-0.0842-0.0434-0.0842l-0.17345-0.46325-0.21683-0.5475-0.17345-0.63169-0.17346-0.71594-0.13011-0.80019-0.1301-0.8844-0.13008-0.9265-0.1301-1.0528-0.0867-1.0528-0.13011-2.3163-0.0435-2.4426h1.0841l-0.0435 2.4426-0.0867 2.3163-0.0867 1.095-0.13011 1.0107-0.13009 0.9265-0.13009 0.8844-0.13011 0.80019-0.17344 0.75805-0.17347 0.63172-0.21683 0.54748-0.17346 0.42114c-0.0434 0-0.0434 0.0421-0.0434 0.0842l-0.21683 0.29481c-0.0434 0-0.0434 0.0421-0.0866 0.0842l-0.21684 0.16848c-0.0434 0.0842-0.13009 0.12633-0.21681 0.12633l-0.21683 0.0842h-0.13008-62.965 0.17345l-0.21682 0.0421 0.21682-0.12633-0.21682 0.21056 0.0866-0.0842-0.21682 0.29481 0.0435-0.0842-0.17347 0.37902-0.17346 0.46326-0.17346 0.58961-0.13009 0.67381-0.17346 0.75807-0.13008 0.84229-0.0866 0.96863-0.13008 0.96863-0.0867 1.0528-0.13008 2.2742-0.0434 2.4426z" stroke="#000" stroke-width=".042736px"/>
  <path id="path3420" stroke-linejoin="round" d="m447.45 314.18v14.783l0.60824-0.71597h-62.335l0.62666 0.71597v-43.358c0-0.40011-0.27646-0.71596-0.62666-0.71596h-49.342v1.4108h49.342l-0.60825-0.69492v43.358c0 0.37901 0.27647 0.6949 0.60825 0.6949h62.335c0.35023 0 0.62669-0.31589 0.62669-0.6949v-14.783zm-109.84-32.788-7.3726 4.2115 7.3726 4.2115z" stroke="#000" stroke-width="0.0197px"/>
  <path id="path3422" stroke-linejoin="round" d="m105.27 515.3c0-0.34584 0.32523-0.60067 0.71552-0.60067h23.591c0.41195 0 0.7372 0.25483 0.7372 0.60067v25.247c0 0.32764-0.32525 0.60067-0.7372 0.60067h-23.591c-0.39029 0-0.71552-0.27303-0.71552-0.60067zm1.4527 25.247-0.73721-0.60069h23.591l-0.71552 0.60069v-25.247l0.71552 0.60071h-23.591l0.73721-0.60071z" stroke="#000" stroke-width=".019866px"/>
  <text id="text3424" font-size="25.64px" xml:space="preserve" transform="scale(1.0147 .98547)" y="545.24341" x="111.42918" font-family="Arial" fill="#ffffff">º</text>
  <path id="path3426" stroke-linejoin="round" d="m128.84 515.3c0-0.34584 0.32525-0.60067 0.71554-0.60067h23.592c0.39028 0 0.71553 0.25483 0.71553 0.60067v25.247c0 0.32764-0.32525 0.60067-0.71553 0.60067h-23.592c-0.39029 0-0.71554-0.27303-0.71554-0.60067zm1.4527 25.247-0.73719-0.60069h23.592l-0.71553 0.60069v-25.247l0.71553 0.60071h-23.592l0.73719-0.60071z" stroke="#000" stroke-width=".019866px"/>
  <path id="path3428" stroke-linejoin="round" d="m152.43 515.3c0-0.34584 0.32525-0.60067 0.71553-0.60067h23.591c0.3903 0 0.71554 0.25483 0.71554 0.60067v25.247c0 0.32764-0.32524 0.60067-0.71554 0.60067h-23.591c-0.39028 0-0.71553-0.27303-0.71553-0.60067zm1.431 25.247-0.71553-0.60069h23.591l-0.71554 0.60069v-25.247l0.71554 0.60071h-23.591l0.71553-0.60071z" stroke="#000" stroke-width=".019866px"/>
  <path id="path3430" stroke-linejoin="round" d="m226.77 515.3c0-0.34584 0.32524-0.60067 0.71552-0.60067h23.592c0.39028 0 0.71551 0.25483 0.71551 0.60067v25.247c0 0.32764-0.32523 0.60067-0.71551 0.60067h-23.592c-0.39028 0-0.71552-0.27303-0.71552-0.60067zm1.4527 25.247-0.73722-0.60069h23.591l-0.7155 0.60069v-25.247l0.7155 0.60071h-23.591l0.73722-0.60071z" stroke="#000" stroke-width=".019866px"/>
  <path id="path3432" stroke-linejoin="round" d="m250.36 515.3c0-0.34584 0.32524-0.60067 0.71552-0.60067h23.591c0.39028 0 0.7155 0.25483 0.7155 0.60067v25.247c0 0.32764-0.32522 0.60067-0.7155 0.60067h-23.591c-0.39028 0-0.71552-0.27303-0.71552-0.60067zm1.431 25.247-0.71554-0.60069h23.591l-0.73719 0.60069v-25.247l0.73719 0.60071h-23.591l0.71554-0.60071z" stroke="#000" stroke-width=".019866px"/>
  <text id="text3434" font-size="14.187px" xml:space="preserve" transform="scale(1.0147 .98547)" y="540.71204" x="110.94389" font-family="Arial" line-height="125%" fill="#000000"><tspan id="tspan3657" y="540.71204" x="110.94389">C</tspan></text>
  <text id="text3436" font-size="14.187px" xml:space="preserve" transform="scale(1.0147 .98547)" y="540.71204" x="134.75748" font-family="Arial" line-height="125%" fill="#000000"><tspan id="tspan3655" y="540.71204" x="134.75748">V</tspan></text>
  <text id="text3438" font-size="14.187px" xml:space="preserve" transform="scale(1.0147 .98547)" y="540.71204" x="157.96931" font-family="Arial" line-height="125%" fill="#000000"><tspan id="tspan3653" y="540.71204" x="157.96931">N</tspan></text>
  <text id="text3440" font-size="14.187px" xml:space="preserve" transform="scale(1.0147 .98547)" y="540.71204" x="234.1756" font-family="Arial" fill="#000000">I</text>
  <text id="text3442" font-size="14.187px" xml:space="preserve" transform="scale(1.0147 .98547)" y="540.71204" x="253.93022" font-family="Arial" fill="#000000">U</text>
  <path id="path3444" stroke-linejoin="round" d="m176.03 515.3c0-0.34584 0.30356-0.60067 0.71553-0.60067h50.737c0.41196 0 0.7372 0.25483 0.7372 0.60067v25.247c0 0.32764-0.32524 0.60067-0.7372 0.60067h-50.737c-0.41197 0-0.71553-0.27303-0.71553-0.60067zm1.431 25.247-0.71553-0.60069h50.737l-0.71552 0.60069v-25.247l0.71552 0.60071h-50.737l0.71553-0.60071z" stroke="#000" stroke-width=".019866px"/>
  <text id="text3446" font-size="11.369px" xml:space="preserve" transform="scale(1.0147 .98547)" y="561.3667" x="110.47707" font-family="Arial" line-height="125%" fill="#000000">31</text>
  <text id="text3448" font-size="11.369px" xml:space="preserve" transform="scale(1.0147 .98547)" y="561.3667" x="132.7005" font-family="Arial" line-height="125%" fill="#000000">30</text>
  <text id="text3450" font-size="11.369px" xml:space="preserve" transform="scale(1.0147 .98547)" y="561.3667" x="156.13063" font-family="Arial" line-height="125%" fill="#000000">29</text>
  <text id="text3452" font-size="11.369px" xml:space="preserve" transform="scale(1.0147 .98547)" y="561.3667" x="232.29425" font-family="Arial" line-height="125%" fill="#000000">1</text>
  <text id="text3454" font-size="12.789px" xml:space="preserve" transform="scale(1.0147 .98547)" y="494.57556" x="268.69724" font-family="Arial" line-height="125%" fill="#000000">MRdy</text>
  <text id="text3456" font-size="12.789px" xml:space="preserve" transform="scale(1.0147 .98547)" y="516.72589" x="294.15234" font-family="Arial" line-height="125%" fill="#000000">IORdy</text>
  <text id="text3458" font-size="12.789px" xml:space="preserve" transform="scale(1.0147 .98547)" y="495.0733" x="325.74301" font-family="Arial" line-height="125%" fill="#000000">INT</text>
  <text id="text3460" font-size="11.369px" xml:space="preserve" transform="scale(1.0147 .98547)" y="451.64447" x="160.67867" font-family="Arial" line-height="125%" fill="#000000">7</text>
  <text id="text3462" font-size="11.369px" xml:space="preserve" transform="scale(1.0147 .98547)" y="451.64447" x="182.99826" font-family="Arial" line-height="125%" fill="#000000">6</text>
  <text id="text3464" font-size="11.369px" xml:space="preserve" transform="scale(1.0147 .98547)" y="451.87085" x="232.7016" font-family="Arial" line-height="125%" fill="#000000">5</text>
  <text id="text3466" font-size="11.369px" xml:space="preserve" transform="scale(1.0147 .98547)" y="451.64447" x="255.53368" font-family="Arial" line-height="125%" fill="#000000">4</text>
  <text id="text3468" font-size="11.369px" xml:space="preserve" transform="scale(1.0147 .98547)" y="451.64447" x="284.00128" font-family="Arial" line-height="125%" fill="#000000">3</text>
  <text id="text3470" font-size="11.369px" xml:space="preserve" transform="scale(1.0147 .98547)" y="451.64447" x="308.79492" font-family="Arial" line-height="125%" fill="#000000">2</text>
  <text id="text3472" font-size="11.369px" xml:space="preserve" transform="scale(1.0147 .98547)" y="451.64447" x="332.12299" font-family="Arial" line-height="125%" fill="#000000">1</text>
  <text id="text3474" font-size="11.369px" xml:space="preserve" transform="scale(1.0147 .98547)" y="451.64447" x="356.25348" font-family="Arial" line-height="125%" fill="#000000">0</text>
  <text id="text3476" font-size="11.369px" xml:space="preserve" transform="scale(1.0147 .98547)" y="451.64447" x="136.49448" font-family="Arial" line-height="125%" fill="#000000">8</text>
  <path id="path3478" stroke-linejoin="round" d="m88.485 360.9 0.04173 2.1942 0.12528 2.0415 0.08354 0.95398 0.08355 0.89674 0.12527 0.85862 0.12529 0.78227 0.14625 0.70594 0.14625 0.64872 0.16722 0.55332 0.188 0.49607 0.2089 0.40069c0 0.0192 0.02076 0.0383 0.02076 0.0573l0.18801 0.2671c0.04173 0.0382 0.06279 0.0764 0.10451 0.0955l0.18803 0.1717c0.06279 0.0383 0.12528 0.0763 0.18801 0.0955l0.20889 0.0573c0.04173 0.0192 0.10451 0.0192 0.14625 0.0192h56.863l-0.16701-0.0192 0.20889 0.0573-0.18802-0.0955 0.18802 0.15265-0.0836-0.0955 0.18799 0.26709 0.14625 0.3053 0.14624 0.40066 0.16706 0.53425 0.14622 0.59147 0.12529 0.68688 0.12529 0.74411 0.12528 0.82045 0.0836 0.87768 0.0835 0.9349 0.12528 2.0224 0.0209 2.156c0.0208 0.26711 0.25068 0.477 0.52225 0.477 0.29245 0 0.52225-0.20989 0.52225-0.477l0.0418-2.175 0.12528-2.0034 0.0836-0.9349 0.0836-0.89677 0.12529-0.80136 0.12526-0.76319 0.14625-0.68685 0.12528-0.61057 0.16721-0.51515 0.16704-0.41976 0.16704-0.32438-0.0418 0.0573 0.18798-0.26711-0.0835 0.0955 0.188-0.15265-0.188 0.0955 0.188-0.0573-0.14626 0.019h56.863c0.0628 0 0.10446 0 0.14625-0.019l0.20891-0.0573c0.0627-0.0191 0.12527-0.0573 0.188-0.0955l0.20891-0.17168c0.0211-0.0192 0.0626-0.0573 0.0836-0.0955l0.18801-0.26711c0.0207-0.0192 0.0207-0.0383 0.0418-0.0573l0.16721-0.36254 0.20889-0.49607 0.16703-0.57238 0.14625-0.64872 0.14624-0.72504 0.14627-0.76319 0.10447-0.8586 0.10447-0.89675 0.0836-0.95402 0.10446-2.0415 0.0418-2.2132h-1.0445l-0.0418 2.156-0.10447 2.0224-0.0835 0.93493-0.0836 0.87765-0.12524 0.82044-0.12529 0.76321-0.12528 0.66782-0.14624 0.61053-0.16704 0.49607-0.14625 0.41974-0.18802 0.36254 0.0418-0.0573-0.18802 0.26712 0.0836-0.0954-0.18804 0.15264 0.18804-0.0955-0.20892 0.0573 0.16704-0.0192h-56.863c-0.0626 0-0.10446 0-0.16704 0.0192l-0.18799 0.0573c-0.0628 0.0192-0.14626 0.0573-0.18804 0.0955l-0.2089 0.17171c-0.0208 0.0192-0.0627 0.0573-0.0835 0.0955l-0.188 0.26712c-0.021 0.0191-0.021 0.0383-0.0418 0.0573l-0.18801 0.40068-0.188 0.49607-0.16705 0.5724-0.16703 0.62963-0.12528 0.70596-0.14625 0.78227-0.10447 0.85861-0.10447 0.89677-0.0836 0.95398-0.12527 2.0606-0.0418 2.175h1.0445l-0.0418-2.1942-0.10447-2.0606-0.0836-0.93492-0.10446-0.91586-0.10447-0.83953-0.12529-0.80135-0.16722-0.70594-0.14624-0.64871-0.16704-0.55334-0.188-0.51515-0.22983-0.41974-0.18798-0.26713c-0.0208-0.0383-0.0626-0.0764-0.0835-0.0955l-0.20889-0.1717c-0.0629-0.0383-0.12527-0.0763-0.18803-0.0955l-0.20891-0.0573c-0.0418-0.0191-0.0836-0.0191-0.14625-0.0191h-56.863l0.16704 0.0191-0.2089-0.0573 0.2089 0.0955-0.2089-0.15264 0.08355 0.0955-0.18799-0.26712 0.04173 0.0573-0.14624-0.32434-0.16705-0.41977-0.16722-0.51514-0.14625-0.61058-0.12529-0.68686-0.14625-0.74411-0.10451-0.82045-0.10451-0.89674-0.08354-0.91586-0.10451-2.0224-0.04173-2.175z" stroke="#000" stroke-width=".019965px"/>
  <path id="path3480" stroke-linejoin="round" d="m240.35 515.38v-59.469h-1.431v59.469h1.431zm3.6211-58.282-4.3365-7.0838-4.3365 7.0838h8.6729z" stroke="#000" stroke-width=".019596px"/>
  <path id="path3482" stroke-linejoin="round" d="m263.4 515.38v-59.469h-1.4527v59.469h1.4527zm3.5995-58.282-4.3365-7.0838-4.3365 7.0838h8.673z" stroke="#000" stroke-width=".019596px"/>
  <path id="path3484" stroke-linejoin="round" d="m142.62 515.6v-59.446h-1.4528v59.446h1.4528zm3.5995-58.279-4.3365-7.0833-4.3365 7.0833h8.6731z" stroke="#000" stroke-width=".019596px"/>
  <path id="path3486" stroke-linejoin="round" d="m166.55 515.6v-59.446h-1.4528v59.446h1.4528zm3.5995-58.279-4.3365-7.0833-4.3365 7.0833h8.6731z" stroke="#000" stroke-width=".019596px"/>
  <path id="path3488" stroke-linejoin="round" d="m189.87 515.68v-59.469h-1.431v59.469h1.431zm3.6211-58.282-4.3365-7.0838-4.3365 7.0838h8.6729z" stroke="#000" stroke-width=".019596px"/>
  <path id="path3490" stroke-linejoin="round" d="m628.42 451.85v28.273h-1.4309v-28.273h1.4309zm3.6424 26.917-4.3362 8.2188-4.3362-8.2188h8.6725z" stroke="#000" stroke-width=".042213px"/>
  <path id="path3492" stroke-linejoin="round" d="m542.69 454.61v26.912h-1.4527v-26.912h1.4527zm3.5992 25.622-4.3364 7.8234-4.3364-7.8234h8.6727z" stroke="#000" stroke-width=".020594px"/>
  <path id="path3494" stroke-linejoin="round" d="m456.98 452.85v28.924h-1.4526v-28.924h1.4526zm3.6208 27.538-4.3362 8.4078-4.3362-8.4078h8.6725z" stroke="#000" stroke-width=".021348px"/>
  <path id="path3496" stroke-linejoin="round" d="m421.44 428.81h-34.485v1.3906h34.485v-1.3906zm-33.644-3.5186-5.0232 4.2139 5.0232 4.214v-8.4278z" stroke="#000" stroke-width=".016267px"/>
  <path id="path3498" stroke-linejoin="round" d="m420.98 347.22h51.563v1.0538h-51.563z" stroke="#000" stroke-width=".020160px"/>
  <path id="path3500" stroke-linejoin="round" d="m140.25 212.71h425.29v1.2758h-425.29z" stroke="#000" stroke-width=".022811px"/>
  <path id="path3502" stroke-linejoin="round" d="m842.44 546.87-0.0998-17.406 1.1166-0.006 0.0998 17.406z" stroke="#000" stroke-width=".026632px"/>
  <path id="path3504" stroke-linejoin="round" d="m110.9 130.01h99.874v1.4006h-99.874v-1.4006zm98.893-3.5068 5.8603 4.2124-5.8603 4.2124v-8.4248z" stroke="#000" stroke-width=".0087832px"/>
  <path id="path3118-3" stroke-linejoin="round" d="m393.23 172.55v-14.676h-1.4527v14.676h1.4527zm3.5993-13.265-4.3365-8.4228-4.3365 8.4228h8.673z" stroke="#000" stroke-width=".021368px"/>
  <path id="path3042-5" stroke-linejoin="round" d="m361.04 188.57h12.271v1.0528h-12.271z" stroke="#000" stroke-width=".042736px"/>
  <path id="path3044-3" stroke-linejoin="round" d="m386.88 188.57h12.271v1.0528h-12.271z" stroke="#000" stroke-width=".042736px"/>
  <path id="path3046-8" stroke-linejoin="round" d="m411.42 188.57h12.271v1.0528h-12.271z" stroke="#000" stroke-width=".042736px"/>
  <path id="path3048-7" stroke-linejoin="round" d="m373.62 176.18h13.227v1.0528h-13.227z" stroke="#000" stroke-width=".042736px"/>
  <path id="path3050-6" stroke-linejoin="round" d="m374.17 189.45v-13.098h-1.0842v13.098z" stroke="#000" stroke-width=".042736px"/>
  <path id="path3052-7" stroke-linejoin="round" d="m387.05 189.45v-13.434h-1.0842v13.434z" stroke="#000" stroke-width=".042736px"/>
  <path id="path3054-4" stroke-linejoin="round" d="m399.32 189.45v-13.434h-1.0842v13.434z" stroke="#000" stroke-width=".042736px"/>
  <path id="path3056-8" stroke-linejoin="round" d="m412.55 189.12v-13.098h-1.0841v13.098z" stroke="#000" stroke-width=".042736px"/>
  <path id="path3058-1" stroke-linejoin="round" d="m398.5 176.18h13.53v1.0528h-13.53z" stroke="#000" stroke-width=".042736px"/>
  <path id="path3022-6" stroke-linejoin="round" d="m92.714 294.57c0 0.19223 0.44652 0.3481 0.99727 0.3481h118.21c0.5507 0 0.99726-0.15587 0.99726-0.3481v-57.003c0-0.19226-0.44651-0.34817-0.99726-0.34817h-118.21c-0.55071 0-0.99727 0.15591-0.99727 0.34817zm1.9943-57.003-0.99727 0.34815h118.21l-0.99728-0.34815v57.003l0.99728-0.34817h-118.21l0.99727 0.34817z" stroke="#000" stroke-width=".0087945px"/>
  <path id="path3100-8" stroke-linejoin="round" d="m110.49 129.75-0.13553 108.15h1.1333l0.13552-108.15z" stroke="#000" stroke-width=".012737px"/>
  <path id="path3100-9" stroke-linejoin="round" d="m428.31 20.103-0.13008 78.476h1.084l0.13008-78.476z" stroke="#000" stroke-width=".010613px"/>
  <path id="path3100-8-5" stroke-linejoin="round" d="m884.89 269.71-0.13616 29.887h1.1386l0.13616-29.887z" stroke="#000" stroke-width=".0067123px"/>
  <text id="text3172-1" font-size="15.631px" xml:space="preserve" transform="scale(1.0147 .98547)" y="309.25055" x="634.02008" font-family="Arial" line-height="125%" fill="#000000"><tspan id="tspan4412" y="309.25055" x="634.02008">MR</tspan></text>
  <path id="path3180-5" stroke-linejoin="round" d="m638.54 283.75c0-0.37913 0.18104-0.71616 0.43966-0.71616h35.224c0.23276 0 0.41378 0.33703 0.41378 0.71616v29.362c0 0.37913-0.18102 0.71616-0.41378 0.71616h-35.224c-0.25862 0-0.43966-0.33703-0.43966-0.71616zm0.85345 29.362-0.41379-0.7162h35.224l-0.43962 0.7162v-29.362l0.43962 0.71618h-35.224l0.41379-0.71618z" stroke="#000" stroke-width=".033007px"/>
  <text id="text3172-1-5" font-size="15.631px" xml:space="preserve" transform="scale(1.0147 .98547)" y="309.25055" x="668.22198" font-family="Arial" line-height="125%" fill="#000000"><tspan id="tspan4435" y="309.25055" x="668.22198">MC</tspan></text>
  <path id="path3180-5-7" stroke-linejoin="round" d="m673 283.71c0-0.37917 0.17491-0.71619 0.42478-0.71619h34.032c0.22491 0 0.39979 0.33702 0.39979 0.71619v29.363c0 0.37916-0.17488 0.71618-0.39979 0.71618h-34.032c-0.24987 0-0.42478-0.33702-0.42478-0.71618zm0.82454 29.363-0.39976-0.7162h34.032l-0.42476 0.7162v-29.363l0.42476 0.71618h-34.032l0.39976-0.71618z" stroke="#000" stroke-width=".032444px"/>
  <text id="text4138" font-size="13.792px" xml:space="preserve" transform="scale(1.0797 .92619)" y="193.41415" x="387.31622" font-family="Arial" line-height="125%" fill="#000000"><tspan id="tspan4140" y="193.41415" x="387.31622">CLK</tspan></text>
  <path id="path3110-0" stroke-linejoin="round" d="m120.59 319.61-16.188 6.8356 0.45413 0.98368 16.167-6.8455z" stroke="#000" stroke-width=".021368px"/>
  <text id="text3112-0" font-size="11.454px" xml:space="preserve" transform="scale(1.0147 .98547)" line-height="125%" y="326.69553" x="101.30134" font-family="Arial" fill="#000000"><tspan id="tspan6982">6</tspan></text>
  <path id="path3124-2" stroke-linejoin="round" d="m198.03 335.15v-31.869h1.4042v31.869h-1.4042zm-3.4897-30.244 4.192-9.7719 4.192 9.7719h-8.3839z" stroke="#000" stroke-width=".011313px"/>
  <path id="path3124-2-4" stroke-linejoin="round" d="m112.45 335.15v-31.869h1.4042v31.869h-1.4042zm-3.4897-30.244 4.192-9.7719 4.192 9.7719h-8.3839z" stroke="#000" stroke-width=".011313px"/>
  <text id="text3112-0-4" font-size="11.454px" xml:space="preserve" transform="scale(1.0147 .98547)" y="326.3038" x="186.2757" font-family="Arial" fill="#000000">4</text>
  <path id="path3110-0-7" stroke-linejoin="round" d="m206.56 319.45-16.188 6.8357 0.45412 0.98367 16.167-6.8455z" stroke="#000" stroke-width=".021368px"/>
  <path id="path3310-3" stroke-linejoin="round" d="m803.86 283.62c0-0.3789 0.48553-0.71568 1.1098-0.71568h65.546c0.62427 0 1.1792 0.33678 1.1792 0.71568v29.343c0 0.37888-0.55486 0.71565-1.1792 0.71565h-65.546c-0.62424 0-1.1098-0.33677-1.1098-0.71565zm1.6818 29.393-0.57203-0.76539h65.546l0.0352 0.47038-0.25449-28.853 0.21911 0.4704h-65.546l0.62721-0.61618z" stroke="#000" stroke-width=".054039px"/>
  <text id="text3312-6" font-size="15.631px" xml:space="preserve" transform="scale(1.0147 .98547)" y="309.25061" x="797.22919" font-family="Arial" line-height="125%" fill="#000000"><tspan id="tspan3945" y="309.25061" x="797.22919">ExCode</tspan></text>
  <path id="path3324-5" stroke-linejoin="round" d="m847.49 389.5-11.666 8.3808 0.65055 0.8423 11.666-8.3387z" stroke="#000" stroke-width=".042736px"/>
  <text id="text3330-3" font-size="11.454px" xml:space="preserve" transform="scale(1.0147 .98547)" y="399.87418" x="818.1922" font-family="Arial" fill="#000000">4</text>
  <path id="path3131-3" stroke-linejoin="round" d="m851.02 518.34c0.24398 0 0.45042 0.13272 0.56302 0.34131 0.0938 0.20855 0.0751 0.45503-0.0562 0.64464l-8.295 11.699c-0.11263 0.17064-0.31904 0.26543-0.50672 0.26543-0.20642 0-0.39411-0.0949-0.50672-0.26543l-8.3138-11.699c-0.13137-0.18961-0.15014-0.43609-0.0376-0.64464 0.0939-0.20859 0.31906-0.34131 0.54425-0.34131zm-16.609 1.2513 0.50672-1.0049 8.3138 11.699h-1.0135l8.295-11.699 0.50669 1.0049z" stroke="#000" stroke-width=".018864px"/>
  <path id="path3133-6" stroke-linejoin="round" d="m858.83 525.28h-12.028v-0.94803h12.028z" stroke="#000" stroke-width="1.0225px"/>
  <path id="path3139-7" stroke-linejoin="round" d="m841.76 498.87v14.548h1.2576v-14.548h-1.2576zm-3.116 13.475 3.7542 6.4018 3.7542-6.4018h-7.5084z" stroke="#000" stroke-width=".017332px"/>
  <text id="text3147-5" font-size="12.545px" xml:space="preserve" transform="scale(.99488 1.0051)" line-height="125%" y="525.56171" x="865.23895" font-family="Arial" fill="#000000"><tspan id="tspan4426" y="525.56171" x="865.23895">T11</tspan></text>
  <path id="path3081-3" stroke-linejoin="round" d="m842.99 500.56v-186.93h-1.1164v186.93z" stroke="#000" stroke-width=".040797px"/>
  <path id="path3428-3" stroke-linejoin="round" d="m176.13 515.38c0-0.34585 0.32524-0.60068 0.7155-0.60068h23.592c0.3903 0 0.71553 0.25483 0.71553 0.60068v25.247c0 0.32764-0.32523 0.60067-0.71553 0.60067h-23.592c-0.39026 0-0.7155-0.27303-0.7155-0.60067zm1.431 25.247-0.71554-0.60069h23.592l-0.71552 0.60069v-25.247l0.71552 0.60069h-23.592l0.71554-0.60069z" stroke="#000" stroke-width=".019866px"/>
  <text id="text3438-6" font-size="14.187px" xml:space="preserve" transform="scale(1.0147 .98547)" y="540.80688" x="181.99707" font-family="Arial" fill="#000000">Z</text>
  <text id="text3450-7" font-size="11.369px" xml:space="preserve" transform="scale(1.0147 .98547)" y="561.46155" x="179.47795" font-family="Arial" line-height="125%" fill="#000000"><tspan id="tspan3651" y="561.46155" x="179.47795">28</tspan></text>
  <text id="text3476-8" font-size="11.369px" xml:space="preserve" transform="scale(1.0147 .98547)" y="451.37875" x="113.4455" font-family="Arial" line-height="125%" fill="#000000"><tspan id="tspan3677" y="451.37875" x="113.4455">9</tspan></text>
  <path id="path3484-9" stroke-linejoin="round" d="m119.01 515.13v-59.446h-1.4528v59.446h1.4528zm3.5995-58.279-4.3365-7.0833-4.3365 7.0833h8.6731z" stroke="#000" stroke-width=".019596px"/>
  <text id="text3476-8-6" font-size="11.369px" xml:space="preserve" transform="scale(1.0147 .98547)" y="451.60516" x="85.176231" font-family="Arial" line-height="125%" fill="#000000"><tspan id="tspan3700" y="451.60516" x="85.176231">10</tspan></text>
  <path id="path3108-3" stroke-linejoin="round" d="m94.041 473.51v-17.162h-1.4528v17.162h1.4528zm3.6211-15.966-4.3365-7.1434-4.3365 7.1434h8.6731z" stroke="#000" stroke-width=".019676px"/>
  <path id="path3260-3" stroke-linejoin="round" d="m60.203 474.55 0.65745-208.1-0.80169-0.0355-0.6574 208.15z" stroke="#000" stroke-width=".23886px"/>
  <path id="path3260-3-8" stroke-linejoin="round" d="m59.726 266.43 32.113-0.17268-0.0093-1.2836-32.12 0.17307z" stroke="#000" stroke-width=".011873px"/>
  <path id="path3260-3-8-6" stroke-linejoin="round" d="m60.559 474.49 33.465-0.17268-0.0098-1.2835-33.474 0.17306z" stroke="#000" stroke-width=".012120px"/>
  <text id="text3038-0" font-size="17.094px" xml:space="preserve" transform="scale(1.0147 .98547)" y="260.87732" x="54.118988" font-family="Arial" line-height="125%" fill="#000000"><tspan id="tspan3777" y="260.87732" x="54.118988">InEx</tspan></text>
  <path id="path3232-6" stroke-linejoin="round" d="m775.37 352.87v-39.42h-1.089v39.42z" stroke="#000" stroke-width=".037780px"/>
  <path id="path3502-6" stroke-linejoin="round" d="m773.54 353.35h20.837v1.0677h-20.837z" stroke="#000" stroke-width=".028494px"/>
  <path id="path3100-8-7" stroke-linejoin="round" d="m273.51 360.74-0.13601 43.848h1.1374l0.13599-43.848z" stroke="#000" stroke-width=".0081252px"/>
  <path id="path3108-1" stroke-linejoin="round" d="m275.08 361.28-0.2441-44.126-1.207-0.55997v44.686zm3.0065-43.921-3.7213-8.7097-3.4772 8.5698z" stroke="#000" stroke-width=".029678px"/>
  <path id="path3198-7" fill-rule="evenodd" d="m272.19 361.2c0-1.1792 0.93235-2.1268 2.0598-2.1268 1.1492 0 2.0599 0.94758 2.0599 2.1268 0 1.1581-0.91067 2.1058-2.0599 2.1058-1.1275 0-2.0598-0.94758-2.0598-2.1058"/>
  <path id="path3200-1" stroke-linejoin="round" d="m270.75 361.33v-0.27372l0.0435-0.42115c0.0217-0.0842 0.0217-0.16847 0.065-0.27375l0.10844-0.37902c0.0217-0.0842 0.0651-0.14742 0.0867-0.23163l0.19513-0.35799c0.0435-0.0842 0.0867-0.16844 0.15177-0.25269l0.26019-0.31583 0.17348-0.16847 0.30353-0.2527c0.0869-0.063 0.17347-0.12633 0.2602-0.18951l0.34692-0.1895c0.065-0.0421 0.15177-0.0631 0.2385-0.10532l0.39029-0.12635c0.10841-0.021 0.21681-0.0421 0.30354-0.063l0.41198-0.0421h0.30355l0.41197 0.0421c0.10843 0.021 0.21682 0.0421 0.32525 0.063l0.39025 0.12635c0.0867 0.0421 0.15178 0.063 0.23851 0.10532l0.34693 0.1895c0.0868 0.0632 0.17346 0.12634 0.26018 0.18951l0.30357 0.2527c0.0651 0.0632 0.10841 0.10532 0.17345 0.16847l0.26019 0.31583c0.0434 0.0842 0.10842 0.16848 0.15179 0.25269l0.19514 0.35799c0.0216 0.0842 0.0649 0.1474 0.0867 0.23163l0.10842 0.37902c0.0434 0.10532 0.0434 0.18951 0.0651 0.27375l0.0434 0.42115v0.27372l-0.0434 0.44221c-0.0217 0.0842-0.0217 0.16846-0.0651 0.25269l-0.10842 0.40008c-0.0217 0.0842-0.0651 0.14742-0.0867 0.23164l-0.19514 0.35798c-0.0434 0.0842-0.10841 0.16842-0.15179 0.25266l-0.26019 0.31587c-0.0649 0.063-0.10843 0.1053-0.17345 0.16846l-0.30357 0.25268c-0.0867 0.063-0.17345 0.12635-0.26018 0.18951l-0.34693 0.18952c-0.0868 0.0421-0.15177 0.0631-0.23851 0.10531l-0.39025 0.12636c-0.10843 0.021-0.21684 0.0421-0.32525 0.063l-0.41197 0.0421h-0.30355l-0.41198-0.0421c-0.0868-0.021-0.19514-0.0421-0.30354-0.063l-0.39029-0.12636c-0.0868-0.0421-0.17344-0.063-0.2385-0.10531l-0.34692-0.18952c-0.0866-0.0631-0.17346-0.12633-0.2602-0.18951l-0.30353-0.25268-0.17348-0.16846-0.26019-0.31587c-0.0649-0.0842-0.10841-0.16843-0.15177-0.25266l-0.19513-0.35798c-0.0217-0.0842-0.0649-0.14742-0.0867-0.23164l-0.10844-0.40008c-0.0434-0.0842-0.0434-0.16844-0.065-0.25269zm2.9271 0.16848-0.0651-0.27376 0.13008 0.40009-0.0867-0.23163 0.17346 0.35796-0.15179-0.25266 0.26018 0.31585-0.17345-0.16846 0.30355 0.27375-0.26017-0.18953 0.34691 0.18953-0.2385-0.10531 0.39027 0.12633-0.32524-0.063 0.41198 0.0421h-0.30356l0.41197-0.0421-0.30355 0.063 0.39027-0.12633-0.23852 0.10531 0.34695-0.18953-0.2602 0.18953 0.30355-0.27375-0.17346 0.16846 0.26018-0.31585-0.15178 0.25266 0.17348-0.35796-0.0867 0.23163 0.13011-0.40009-0.0651 0.27376 0.0435-0.4422v0.27372l-0.0435-0.42114 0.0651 0.2527-0.13011-0.37903 0.0867 0.2316-0.17348-0.35795 0.15178 0.25268-0.26018-0.31585 0.17346 0.16845-0.30355-0.27373 0.2602 0.18951-0.34695-0.18951 0.23852 0.10531-0.39027-0.12635 0.30355 0.063-0.41197-0.0421h0.30356l-0.41198 0.0421 0.32524-0.063-0.39027 0.12635 0.2385-0.10531-0.34691 0.18951 0.26017-0.18951-0.30355 0.27373 0.17345-0.16845-0.26018 0.31585 0.15179-0.25268-0.17346 0.35795 0.0867-0.2316-0.13008 0.37903 0.0651-0.2527-0.0434 0.42114v-0.27372z" stroke="#000" stroke-width=".021368px"/>
  <text id="text3146-9" font-size="14.187px" xml:space="preserve" transform="matrix(.0043108 -.97178 1.029 .0041865 0 0)" y="449.77917" x="-461.04001" font-family="Arial" line-height="125%" fill="#000000"><tspan id="tspan4821" y="449.77917" x="-461.04001">Sel RA</tspan></text>
  <text id="text3146-9-5" font-size="14.187px" xml:space="preserve" transform="matrix(-.0073584 -.97176 1.029 -.0071462 0 0)" y="527.39001" x="-465.08295" font-family="Arial" line-height="125%" fill="#000000"><tspan id="tspan4823" y="527.39001" x="-465.08295">Sel RB</tspan></text>
  <text id="text3146-9-9" font-size="14.187px" xml:space="preserve" transform="matrix(.0095813 -.97174 1.029 .0093049 0 0)" y="619.40088" x="-455.40469" font-family="Arial" line-height="125%" fill="#000000"><tspan id="tspan4825" y="619.40088" x="-455.40469">Sel RC</tspan></text>
  <text id="text3350-3" font-size="9.9146px" xml:space="preserve" transform="scale(1.0147 .98547)" y="504.80191" x="616.05804" font-family="Arial" fill="#000000">0</text>
  <text id="text3352-3" font-size="9.9146px" xml:space="preserve" transform="scale(1.0147 .98547)" y="505.04462" x="642.10284" font-family="Arial" fill="#000000">1</text>
 </g>
</svg>
