<?xml version="1.0" encoding="UTF-8" standalone="no"?>
<svg id="svg2996" xmlns:rdf="http://www.w3.org/1999/02/22-rdf-syntax-ns#" xmlns="http://www.w3.org/2000/svg" height="100%" viewBox="40 20 880 615" width="100%" version="1.0" preserveAspectRatio="xMinYMin meet" xmlns:cc="http://creativecommons.org/ns#" xmlns:dc="http://purl.org/dc/elements/1.1/">
 <metadata id="metadata3508">
  <rdf:RDF>
   <cc:Work rdf:about="">
    <dc:format>image/svg+xml</dc:format>
    <dc:type rdf:resource="http://purl.org/dc/dcmitype/StillImage"/>
    <dc:title/>
   </cc:Work>
  </rdf:RDF>
 </metadata>
 <text id="text3611" style="word-spacing:0px;letter-spacing:0px" xml:space="preserve" transform="scale(.99998 1)" line-height="125%" font-size="13.289px" y="372.3" x="100.0" font-family="sans-serif" fill="#000000"><tspan id="tspan3615" y="365.36798" x="121.88812"/></text>
 <g id="g5495">
  <path id="path3008" stroke-linejoin="round" d="m500.63 45.288c0-0.66466 0.50082-1.1869 1.1382-1.1869h395.51c0.59184 0 1.1381 0.52223 1.1381 1.1869v117.88c0 0.66466-0.54631 1.1868-1.1381 1.1868h-395.51c-0.63737 0-1.1382-0.52221-1.1382-1.1868zm2.2764 117.88-1.1381-1.1868h395.51l-1.1382 1.1868v-117.88l1.1382 1.1868h-395.51l1.1381-1.1868z" stroke="#000" stroke-width=".046492px"/>
  <text id="text3010" font-size="28.068px" line-height="125%" xml:space="preserve" style="text-decoration-line:underline;text-decoration:underline" transform="scale(1.0458 .95616)" y="119.04389" x="568.39984" font-family="Arial" fill="#000000">Control Memory</text>
  <text id="text3012" font-size="19.583px" xml:space="preserve" transform="scale(1.0458 .95616)" y="496.58282" x="196.68237" font-family="Arial" fill="#000000">MUX C</text>
  <path id="path3014" stroke-linejoin="round" d="m715.27 161.7v161.57h-1.739v-161.57h1.739zm4.2455 159.85-5.1151 10.371-5.1151-10.371h10.23z" stroke="#000" stroke-width=".051499px"/>
  <path id="path3016" stroke-linejoin="round" d="m728.96 226.46-26.929 17.553 0.76796 0.93622 26.879-17.507z" stroke="#000" stroke-width=".048956px"/>
  <text id="text3018" font-size="14.689px" xml:space="preserve" transform="scale(1.0458 .95616)" y="246.47864" x="661.26282" font-family="Arial" line-height="125%" fill="#000000"><tspan id="tspan3920" y="246.47864" x="661.26282">80</tspan></text>
  <path id="path3024" stroke-linejoin="round" d="m230.01 190.09c0 0.30642 0.33734 0.56178 0.76458 0.56178h127.71c0.42724 0 0.76455-0.25536 0.76455-0.56178v-140.29c0-0.32346-0.33731-0.57884-0.76455-0.57884h-127.71c-0.42724 0-0.76458 0.25537-0.76458 0.57884zm1.5067-140.29-0.74212 0.56184h127.71l-0.74212-0.56184v140.29l0.74212-0.56183h-127.71l0.74212 0.56183z" stroke="#000" stroke-width=".019566px"/>
  <path id="path3026" stroke-linejoin="round" d="m400.39 50.42c0-0.37499 0.38397-0.68749 0.84478-0.68749h32.768c0.46076 0 0.84476 0.31249 0.84476 0.68749v101.37c0 0.37497-0.384 0.68747-0.84476 0.68747h-32.768c-0.46081 0-0.84478-0.3125-0.84478-0.68747zm1.6895 101.37-0.84479-0.6875h32.768l-0.87047 0.6875v-101.37l0.87047 0.70831h-32.768l0.84479-0.70831z" stroke="#000" stroke-width=".023094px"/>
  <path id="path3028" stroke-linejoin="round" d="m75.737 499.91c0 0.42079 0.32733 0.75305 0.72012 0.75305h310.97c0.39278 0 0.72014-0.33226 0.72014-0.75305v-47.111c0-0.3987-0.32736-0.7309-0.72014-0.7309h-310.97c-0.3928 0-0.72012 0.3322-0.72012 0.7309zm1.4402-47.111-0.72013 0.73094h310.97l-0.72013-0.73094v47.111l0.72013-0.73093h-310.97l0.72013 0.73093z" stroke="#000" stroke-width=".021987px"/>
  <text id="text3038" font-size="19.583px" xml:space="preserve" transform="scale(1.0458 .95616)" y="637.2428" x="62.197708" font-family="Arial" fill="#000000">SR</text>
  <path id="path3040" stroke-linejoin="round" d="m91.42 89.509c0 0.25949 0.31825 0.47572 0.70012 0.47572h49.772c0.40311 0 0.72136-0.21624 0.72136-0.47572v-23.628c0-0.25949-0.31825-0.47572-0.72136-0.47572h-49.772c-0.38188 0-0.70012 0.21624-0.70012 0.47572zm1.4215-23.628-0.72133 0.49013h49.772l-0.70013-0.49013v23.628l0.70013-0.47571h-49.772l0.72133 0.47571z" stroke="#000" stroke-width=".017487px"/>
  <g id="g4866" stroke-linejoin="round" transform="matrix(.72413 0 0 1.0025 -235.81 123.6)" stroke="#000" stroke-width=".043902px">
   <path id="path3042" d="m828.4 256.34h12.482v1.0922h-12.482z"/>
   <path id="path3044" d="m854.34 256.34h12.482v1.0922h-12.482z"/>
   <path id="path3048" d="m840.5 243.5h13.454v1.0922h-13.454z"/>
   <path id="path3050" d="m841.07 257.26v-13.588h-1.1028v13.588z"/>
   <path id="path3052" d="m854.17 257.26v-13.938h-1.1027v13.938z"/>
   <path id="path3054" d="m866.65 257.26v-13.938h-1.1028v13.938z"/>
   <path id="path3058" d="m865.81 243.5h13.763v1.0922h-13.763z"/>
  </g>
  <path id="path3060" stroke-linejoin="round" d="m315.95 550.67-0.14413-43.907-1.4254-0.40895-0.14409 44.316zm4.2456-42.637-5.1151-8.2254-4.8269 8.2254z" stroke="#000" stroke-width=".031705px"/>
  <path id="path3062" stroke-linejoin="round" d="m342.5 525.76v-19.149h-1.7152v19.149h1.7152zm4.2751-17.812-5.1198-7.9785-5.1198 7.9785h10.24z" stroke="#000" stroke-width=".022596px"/>
  <text id="text3064" font-size="15.066px" xml:space="preserve" transform="scale(1.0458 .95616)" y="594.86041" x="346.96805" font-family="Arial" line-height="125%" fill="#000000"><tspan id="tspan14891" font-size="15.066px" line-height="125%" y="594.86041" x="346.96805" font-family="Arial">0</tspan></text>
  <text id="text3066" font-size="14.943px" xml:space="preserve" transform="scale(1.0458 .95616)" y="191.45247" x="301.67078" font-family="Arial" line-height="125%" fill="#000000">A0</text>
  <text id="text3068" font-size="21.163px" xml:space="preserve" transform="scale(1.0458 .95616)" y="133.66594" x="258.39105" font-family="Arial" line-height="125%" fill="#000000">MUX A</text>
  <text id="text3072" font-size="17.495px" xml:space="preserve" transform="scale(1.0458 .95616)" y="223.32312" x="694.42639" font-family="Arial" line-height="125%" fill="#000000"><tspan id="tspan14893" y="223.32312" x="694.42639">µInstruction</tspan></text>
  <text id="text3076" font-size="19.583px" xml:space="preserve" transform="scale(1.0458 .95616)" y="316.18546" x="536.86066" font-family="Arial" fill="#000000">MADDR</text>
  <text id="text3080" font-size="19.583px" xml:space="preserve" transform="matrix(0 -.95616 1.0458 0 0 0)" y="405.89008" x="-136.33458" font-family="Arial" fill="#000000">µAddr</text>
  <path id="path3082" stroke-linejoin="round" d="m433.11 101.49h61.441v1.5682h-61.441v-1.5682zm60.149-3.8855 7.7043 4.6814-7.7043 4.6814v-9.3628z" stroke="#000" stroke-width=".021234px"/>
  <text id="text3084" font-size="19.583px" xml:space="preserve" transform="scale(1.0458 .95616)" y="88.856827" x="99.166595" font-family="Arial" fill="#000000">+1</text>
  <path id="path3086" fill-rule="evenodd" d="m462.56 102.29c0-1.3107 1.1008-2.364 2.432-2.364s2.432 1.0532 2.432 2.364c0 1.2873-1.1008 2.3406-2.432 2.3406s-2.432-1.0533-2.432-2.3406"/>
  <path id="path3088" stroke-linejoin="round" d="m461.4 102.42v-0.30427l0.0514-0.46811c0.0253-0.0936 0.0253-0.18723 0.0766-0.30427l0.128-0.42132c0.0254-0.0936 0.0766-0.16382 0.10248-0.25744l0.2304-0.39789c0.0514-0.0936 0.10237-0.18726 0.17918-0.28086l0.30715-0.3511c0.0514-0.04681 0.12799-0.11705 0.17921-0.16383l0.35836-0.28086c0.10259-0.09365 0.20481-0.16383 0.33282-0.23407l0.43517-0.21067c0.0766-0.04681 0.15359-0.07016 0.25597-0.11704l0.4352-0.14045c0.12802-0.02335 0.256-0.04681 0.38399-0.07029l0.48637-0.04681h0.35839l0.4864 0.04681c0.12798 0.02346 0.23036 0.04681 0.35839 0.07029l0.46075 0.14045c0.10259 0.04681 0.20481 0.07004 0.30719 0.11704l0.40958 0.21067c0.10248 0.07004 0.20479 0.14042 0.28161 0.21066l0.35839 0.28086c0.0765 0.07017 0.15354 0.11705 0.20478 0.18722l0.3072 0.3511c0.0767 0.0936 0.12799 0.18726 0.2048 0.28086l0.20475 0.39789c0.0514 0.0936 0.0765 0.16385 0.10249 0.25744l0.17474 0.42419c0.0253 0.11705 0.0516 0.21066 0.0516 0.30426l0.0513 0.46811c0.0254 0.11706 0.0254 0.21067 0 0.30428l-0.0513 0.49151c0 0.0935-0.0252 0.18724-0.0516 0.28088l-0.15358 0.44471c-0.0253 0.0935-0.0516 0.16381-0.10248 0.25744l-0.20476 0.39789c-0.0767 0.0935-0.12804 0.18728-0.2048 0.28091l-0.30721 0.35107c-0.0514 0.0702-0.12797 0.11706-0.20477 0.18724l-0.35839 0.28088c-0.0766 0.0702-0.17919 0.14045-0.28161 0.21063l-0.40957 0.21067c-0.10248 0.0468-0.2048 0.0701-0.30719 0.11706l-0.46076 0.14041c-0.12807 0.0234-0.23042 0.0468-0.35839 0.0703l-0.48639 0.0468h-0.35839l-0.48638-0.0468c-0.128-0.0235-0.25598-0.0468-0.38398-0.0703l-0.41763-0.14045c-0.10247-0.0468-0.17914-0.0701-0.25595-0.11706l-0.43518-0.21067c-0.12802-0.0702-0.23041-0.14042-0.33281-0.23404l-0.35837-0.2809c-0.0514-0.0468-0.12802-0.11703-0.17921-0.16381l-0.30717-0.35107c-0.0765-0.0935-0.128-0.18726-0.17918-0.28091l-0.23037-0.39789c-0.0254-0.0936-0.0767-0.16381-0.10248-0.25744l-0.128-0.44472c-0.0514-0.0935-0.0514-0.18725-0.0767-0.28087zm3.4558 0.18724-0.0766-0.30427 0.15363 0.44472-0.10249-0.25747 0.2048 0.3979-0.17921-0.28088 0.30718 0.3511-0.17918-0.16386 0.33281 0.30428-0.33281-0.23407 0.4096 0.21063-0.25601-0.11702 0.46081 0.14043-0.38402-0.0702 0.48641 0.0468h-0.3584l0.48639-0.0468-0.35839 0.0702 0.46075-0.14043-0.30718 0.11702 0.40962-0.21063-0.2816 0.21063 0.35838-0.30423-0.20479 0.18725 0.3072-0.3511-0.20478 0.28088 0.23038-0.3979-0.10238 0.25747 0.12803-0.44472-0.0514 0.30427 0.0514-0.49151v0.30427l-0.0514-0.46811 0.0514 0.28085-0.12803-0.42129 0.10238 0.25746-0.23038-0.3979 0.20478 0.28088-0.3072-0.35109 0.20479 0.18724-0.35838-0.30427 0.2816 0.21065-0.40962-0.21065 0.30718 0.11707-0.46075-0.14044 0.35839 0.0703-0.48639-0.0468h0.3584l-0.48641 0.0468 0.38402-0.0703-0.46081 0.14044 0.25601-0.11707-0.4096 0.21065 0.33281-0.23404-0.33281 0.30427 0.17918-0.16384-0.30718 0.35109 0.17921-0.28088-0.2048 0.3979 0.10249-0.25746-0.15363 0.42129 0.0766-0.28085-0.0513 0.46811v-0.30426z" stroke="#000" stroke-width=".024478px"/>
  <path id="path3092" stroke-linejoin="round" d="m358.23 103.78h38.408v-1.5688h-38.408v1.5688zm37.668 3.8867 4.4213-4.6828-4.4213-4.6829v9.3657z" stroke="#000" stroke-width=".016086px"/>
  <path id="path3094" stroke-linejoin="round" d="m292.72 275.69v-76.204h-1.7152v76.204h1.7152zm4.2495-74.694-5.1199-9.1481-5.12 9.1481h10.24z" stroke="#000" stroke-width=".024197px"/>
  <path id="path3098" stroke-linejoin="round" d="m465.67 28.826h-348.45v1.166h348.45z" stroke="#000" stroke-width=".028988px"/>
  <path id="path3100" stroke-linejoin="round" d="m116.57 29.637-0.18312 35.922h1.5258l0.18311-35.922z" stroke="#000" stroke-width=".0085185px"/>
  <path id="path3102" stroke-linejoin="round" d="m142.3 76.785h79.759v1.5684h-79.759v-1.5684zm78.17-3.8974 9.5524 4.6815-9.5524 4.6815v-9.3631z" stroke="#000" stroke-width=".011821px"/>
  <path id="path3104" stroke-linejoin="round" d="m147.65 133.74h74.846v1.5566h-74.846v-1.5566zm73.442-3.9094 8.4575 4.682-8.4575 4.6819v-9.3637z" stroke="#000" stroke-width=".011123px"/>
  <path id="path3108" stroke-linejoin="round" d="m368.05 551.22-0.28826-42.966-1.4255-0.54521v43.512zm3.5506-42.767-4.3946-8.4808-4.1064 8.3444z" stroke="#000" stroke-width=".031825px"/>
  <path id="path3110" stroke-linejoin="round" d="m433.6 441.87-13.885 14.256 0.98084 0.79121 13.858-14.257z" stroke="#000" stroke-width=".024478px"/>
  <text id="text3112" font-size="13.122px" xml:space="preserve" transform="scale(1.0458 .95616)" y="470.17072" x="399.32535" font-family="Arial" fill="#000000">4</text>
  <path id="path3120" stroke-linejoin="round" d="m488.63 215.31-9.7788 11.493 0.99839 0.72561 9.7788-11.493z" stroke="#000" stroke-width=".024478px"/>
  <text id="text3122" font-size="13.122px" xml:space="preserve" transform="scale(1.0458 .95616)" y="226.05293" x="447.62131" font-family="Arial" fill="#000000">12</text>
  <path id="path3124" stroke-linejoin="round" d="m199.39 162.6h24.868v1.5685h-24.868v-1.5685zm23.601-3.8979 7.6252 4.6822-7.6252 4.6821v-9.3643z" stroke="#000" stroke-width=".010563px"/>
  <text id="text3126" font-size="19.583px" xml:space="preserve" transform="scale(1.0458 .95616)" y="177.84792" x="169.65422" font-family="Arial" fill="#000000">0</text>
  <text id="text3130" font-size="14.651px" xml:space="preserve" transform="scale(1.0458 .95616)" y="195.76698" x="154.72269" font-family="Arial" line-height="125%" fill="#000000">(fetch) </text>
  <path id="path3134" stroke-linejoin="round" d="m147.93 133.1-0.15413 89.487 1.284 0.0158 0.15409-89.501z" stroke="#000" stroke-width=".014449px"/>
  <path id="path3136" stroke-linejoin="round" d="m287.84 525.71v-19.149h-1.7153v19.149h1.7153zm4.2497-17.812-5.1198-7.9786-5.1198 7.9786h10.24z" stroke="#000" stroke-width=".022596px"/>
  <path id="path3138" stroke-linejoin="round" d="m467.49 453.44v-33.783h-1.4743v33.783z" stroke="#000" stroke-width=".016006px"/>
  <text id="text3140" font-size="13.458px" xml:space="preserve" transform="scale(1.0458 .95616)" y="648.78369" x="236.72595" font-family="Arial" line-height="125%" fill="#000000">0</text>
  <path id="path3142" stroke-linejoin="round" d="m148.69 422.15 634.18-2.9474v-1.208l-634.18 2.9475z" stroke="#000" stroke-width=".040631px"/>
  <path id="path3142b" stroke-linejoin="round" d="m153.4 422.15 631.06-2.9475v-1.2079l-631.06 2.9475z" stroke="#000" stroke-width=".040531px"/>
  <path id="path3144" stroke-linejoin="round" d="m456.26 514.77c-0.2779-0.002-0.48176-0.31212-0.4807-0.68296l0.16928-59.705c0.00073-0.37084 0.20664-0.67858 0.48454-0.67681l20.388 0.12978c0.27787 0.002 0.49638 0.31222 0.49534 0.68305l-0.16929 59.705c-0.00075 0.37081-0.22129 0.67847-0.49919 0.67672zm20.393-1.2505-0.4846 0.6974 0.16928-59.705 0.48063 0.70354-20.388-0.12978 0.48462-0.69742-0.16927 59.705-0.48065-0.70355z" stroke="#000" stroke-width=".017359px"/>
  <path id="path3150" stroke-linejoin="round" d="m549.96 514.83c-0.30698 0.003-0.52362-0.33423-0.52563-0.71616l-0.32018-61.491c-0.003-0.38192 0.21135-0.68117 0.51833-0.68427l21.396-0.21607c0.27627-0.003 0.49271 0.29215 0.49471 0.67403l0.32021 61.491c0.003 0.38195-0.21113 0.7236-0.4874 0.72639zm21.389-1.6589-0.51811 0.7267-0.32023-61.491 0.52564 0.71613-21.396 0.2161 0.48742-0.7264 0.32024 61.491-0.49496-0.71647z" stroke="#000" stroke-width=".036095px"/>
  <path id="path3156" stroke-linejoin="round" d="m641.86 512.75c-0.31963-0.003-0.54047-0.33123-0.53732-0.6976l0.51343-58.988c0.004-0.36641 0.22941-0.64912 0.54903-0.64582l22.276 0.22821c0.28761 0.002 0.50887 0.29019 0.50572 0.65656l-0.51345 58.988c-0.004 0.36635-0.22977 0.68977-0.5174 0.68682zm22.288-1.156-0.54939 0.68654 0.51345-58.988 0.53732 0.69761-22.276-0.22818 0.51743-0.68686-0.51343 58.988-0.50538-0.69734z" stroke="#000" stroke-width=".036073px"/>
  <path id="path3162" stroke-linejoin="round" d="m697.16 342.87c0-0.42154 0.13413-0.79622 0.32574-0.79622h74.233c0.17244 0 0.30661 0.37468 0.30661 0.79622v32.646c0 0.42154-0.13417 0.7962-0.30661 0.7962h-74.233c-0.19161 0-0.32574-0.37466-0.32574-0.7962zm0.63234 32.646-0.30658-0.79626h74.233l-0.32572 0.79626v-32.646l0.32572 0.79627h-74.233l0.30658-0.79627z" stroke="#000" stroke-width=".029957px"/>
  <text id="text3164" font-size="17.907px" xml:space="preserve" transform="scale(1.0458 .95616)" y="382.25443" x="521.33698" font-family="Arial" line-height="125%" fill="#000000"><tspan id="tspan4277" y="382.25443" x="521.33698">SelA</tspan></text>
  <text id="text3168" font-size="17.907px" xml:space="preserve" transform="scale(1.0458 .95616)" y="383.00644" x="573.16223" font-family="Arial" line-height="125%" fill="#000000"><tspan id="tspan4279" y="383.00644" x="573.16223">SelB</tspan></text>
  <text id="text3172" font-size="17.907px" xml:space="preserve" transform="scale(1.0458 .95616)" y="383.00644" x="623.25061" font-family="Arial" line-height="125%" fill="#000000"><tspan id="tspan4281" y="383.00644" x="623.25061">SelC</tspan></text>
  <path id="path3176" stroke-linejoin="round" d="m536.01 342.85c0-0.42131 0.32243-0.77242 0.70934-0.77242h55.844c0.38696 0 0.70937 0.35111 0.70937 0.77242v32.653c0 0.42135-0.32241 0.77242-0.70937 0.77242h-55.844c-0.38691 0-0.70934-0.35107-0.70934-0.77242zm1.4186 32.653-0.70934-0.79584h55.844l-0.73082 0.79584v-32.653l0.73082 0.79582h-55.844l0.70934-0.79582z" stroke="#000" stroke-width=".022430px"/>
  <path id="path3178" stroke-linejoin="round" d="m591.99 342.87c0-0.42137 0.32545-0.79589 0.69158-0.79589h53.984c0.36612 0 0.69165 0.37452 0.69165 0.79589v32.631c0 0.42136-0.32553 0.79589-0.69165 0.79589h-53.984c-0.36613 0-0.69158-0.37453-0.69158-0.79589zm1.3426 32.631-0.65089-0.79592h53.984l-0.69153 0.79592v-32.631l0.69153 0.79592h-53.984l0.65089-0.79592z" stroke="#000" stroke-width=".043642px"/>
  <path id="path3180" stroke-linejoin="round" d="m646.1 342.87c0-0.42138 0.26111-0.79596 0.63424-0.79596h50.812c0.33585 0 0.59695 0.37458 0.59695 0.79596v32.635c0 0.42138-0.2611 0.79594-0.59695 0.79594h-50.812c-0.37313 0-0.63424-0.37456-0.63424-0.79594zm1.2312 32.635-0.59686-0.79599h50.812l-0.63423 0.79599v-32.635l0.63423 0.79597h-50.812l0.59686-0.79597z" stroke="#000" stroke-width=".041794px"/>
  <path id="path3182" stroke-linejoin="round" d="m473.22 528.66-13.774 9.2921 0.76798 0.93622 13.774-9.2686z" stroke="#000" stroke-width=".024478px"/>
  <path id="path3184" stroke-linejoin="round" d="m568.63 527.38-13.774 9.2921 0.76797 0.93623 13.772-9.2921z" stroke="#000" stroke-width=".024478px"/>
  <path id="path3186" stroke-linejoin="round" d="m659.87 526.52-13.774 9.3154 0.76801 0.93623 13.774-9.3154z" stroke="#000" stroke-width=".048956px"/>
  <path id="path3188" stroke-linejoin="round" d="m467.71 434.3v12.078h-1.6895v-12.078h1.6895zm4.2749 10.509-5.1198 9.3622-5.1198-9.3622h10.24z" stroke="#000" stroke-width=".024478px"/>
  <path id="path3190" stroke-linejoin="round" d="m561.72 432.3v12.101h-1.7151v-12.101h1.7151zm4.2749 10.533-5.1198 9.3622-5.1198-9.3622h10.24z" stroke="#000" stroke-width=".024478px"/>
  <path id="path3192" stroke-linejoin="round" d="m653.65 432.85v12.078h-1.7407v-12.078h1.7407zm4.2494 10.486-5.1198 9.3622-5.1198-9.3622h10.24z" stroke="#000" stroke-width=".048956px"/>
  <path id="path3194" stroke-linejoin="round" d="m498.08 483.35-12.39 0.0702v1.5682l12.39-0.0704v-1.5682zm-10.726-3.8384-10.188 4.7516 10.265 4.611-0.0764-9.3622z" stroke="#000" stroke-width=".024478px"/>
  <path id="path3196" stroke-linejoin="round" d="m620.97 396.03v-19.684h-1.2896v19.684z" stroke="#000" stroke-width=".014439px"/>
  <path id="path3198" fill-rule="evenodd" d="m464.34 419.97c0-1.3111 0.93898-2.3646 2.0745-2.3646 1.1573 0 2.0744 1.0535 2.0744 2.3646 0 1.2875-0.91712 2.3413-2.0744 2.3413-1.1355 0-2.0745-1.0535-2.0745-2.3413"/>
  <path id="path3200" stroke-linejoin="round" d="m462.77 420.1v-0.30432l0.0465-0.46824c0.0228-0.0937 0.0228-0.18729 0.0693-0.30437l0.1155-0.42138c0.0228-0.0935 0.0694-0.16393 0.0923-0.25754l0.2079-0.39802c0.0465-0.0935 0.0922-0.18725 0.16167-0.28092l0.27719-0.35117 0.18481-0.18729 0.32342-0.28093c0.0922-0.0702 0.18474-0.14045 0.27715-0.21073l0.36959-0.21069c0.0693-0.0467 0.16169-0.0701 0.25409-0.11707l0.41578-0.14051c0.1155-0.0234 0.23097-0.0467 0.3234-0.0699l0.43889-0.0467h0.32335l0.4389 0.0467c0.1155 0.0234 0.23097 0.0467 0.34649 0.0699l0.41575 0.14051c0.0922 0.0467 0.16172 0.0701 0.2541 0.11707l0.36959 0.21069c0.0923 0.0703 0.1848 0.14049 0.27719 0.21073l0.32343 0.28093c0.0694 0.0703 0.11548 0.11709 0.18475 0.18729l0.27719 0.35117c0.0464 0.0937 0.11547 0.18732 0.16168 0.28092l0.20793 0.39802c0.0227 0.0937 0.0693 0.16386 0.0923 0.25754l0.11547 0.42138c0.0459 0.11711 0.0459 0.21071 0.0694 0.30437l0.0464 0.46824v0.30432l-0.0464 0.49164c-0.0228 0.0936-0.0228 0.18729-0.0694 0.28098l-0.11547 0.44477c-0.0228 0.0935-0.0694 0.16393-0.0923 0.25754l-0.20793 0.39799c-0.046 0.0936-0.11547 0.18726-0.16168 0.28091l-0.27719 0.35119c-0.0693 0.0702-0.11549 0.11706-0.18475 0.1873l-0.32343 0.28096c-0.0922 0.07-0.18479 0.14044-0.27719 0.21066l-0.36959 0.21071c-0.0923 0.0467-0.16168 0.0702-0.2541 0.11711l-0.41575 0.14049c-0.11547 0.0234-0.23099 0.0467-0.34649 0.0701l-0.4389 0.0467h-0.32335l-0.43889-0.0467c-0.0923-0.0235-0.2079-0.0467-0.3234-0.0701l-0.41578-0.14049c-0.0923-0.0467-0.18478-0.0703-0.25409-0.11711l-0.36959-0.21071c-0.0923-0.0701-0.18477-0.14044-0.27715-0.21066l-0.32342-0.28096-0.18481-0.1873-0.27719-0.35119c-0.0693-0.0937-0.11549-0.18722-0.16167-0.28091l-0.2079-0.39799c-0.0228-0.0937-0.0694-0.16389-0.0923-0.25754l-0.1155-0.44477c-0.0459-0.0937-0.0459-0.18728-0.0693-0.28098zm3.1184 0.18734-0.0694-0.30438 0.1386 0.44481-0.0922-0.25752 0.18478 0.39798-0.1617-0.28089 0.27718 0.35112-0.1848-0.18728 0.32341 0.30435-0.27719-0.21071 0.36956 0.21071-0.25404-0.11708 0.41578 0.14046-0.34654-0.0702 0.43894 0.0467h-0.3234l0.43888-0.0467-0.32338 0.0702 0.41577-0.14046-0.25411 0.11708 0.3696-0.21071-0.27718 0.21071 0.32336-0.30435-0.18479 0.18728 0.27721-0.35112-0.1617 0.28089 0.1848-0.39798-0.0922 0.25752 0.13858-0.44481-0.0694 0.30438 0.0464-0.49166v0.30432l-0.0464-0.46824 0.0694 0.28099-0.13858-0.42145 0.0922 0.25753-0.1848-0.39799 0.1617 0.28092-0.27721-0.35114 0.18479 0.18727-0.32336-0.30434 0.27718 0.21072-0.3696-0.21072 0.25411 0.1171-0.41577-0.14049 0.32338 0.0701-0.43888-0.0467h0.3234l-0.43894 0.0467 0.34654-0.0701-0.41578 0.14049 0.25404-0.1171-0.36956 0.21072 0.27719-0.21072-0.32341 0.30434 0.1848-0.18727-0.27718 0.35114 0.1617-0.28092-0.18478 0.39799 0.0922-0.25753-0.1386 0.42145 0.0694-0.28099-0.0463 0.46824v-0.30432z" stroke="#000" stroke-width=".023255px"/>
  <path id="path3202" fill-rule="evenodd" d="m558.22 419.97c0-1.3111 0.91714-2.3646 2.0746-2.3646 1.1355 0 2.0525 1.0535 2.0525 2.3646 0 1.2875-0.91709 2.3413-2.0525 2.3413-1.1574 0-2.0746-1.0535-2.0746-2.3413"/>
  <path id="path3204" stroke-linejoin="round" d="m556.57 420.1c-0.0228-0.0937-0.0228-0.18725 0-0.30432l0.0459-0.46824c0-0.0937 0.0227-0.18729 0.0465-0.30437l0.13861-0.42138c0.0227-0.0935 0.0462-0.16393 0.0922-0.25754l0.1848-0.39802c0.0464-0.0935 0.11546-0.18725 0.18477-0.28092l0.27717-0.35117c0.0461-0.0703 0.11552-0.11706 0.18479-0.18729l0.32342-0.28093c0.0693-0.0702 0.16167-0.14045 0.25408-0.21073l0.36959-0.21069c0.0922-0.0467 0.18476-0.0701 0.27718-0.11707l0.41579-0.14051c0.0922-0.0234 0.20792-0.0467 0.32339-0.0699l0.43888-0.0467h0.3234l0.43886 0.0467c0.1155 0.0234 0.231 0.0467 0.34647 0.0699l0.39268 0.14051c0.0922 0.0467 0.16171 0.0701 0.23104 0.11707l0.39267 0.21069c0.0923 0.0467 0.20787 0.11711 0.27719 0.21073l0.32338 0.28093 0.20787 0.2107 0.2541 0.35116c0.0693 0.0936 0.11548 0.16392 0.16169 0.25752l0.2079 0.39802c0.0228 0.0937 0.0692 0.16386 0.0923 0.25754l0.11547 0.42138c0.0465 0.11711 0.0465 0.21071 0.0693 0.30437l0.0459 0.46824v0.30432l-0.0459 0.49164c-0.0228 0.0936-0.0228 0.18729-0.0693 0.28098l-0.11547 0.44477c-0.0227 0.0935-0.0694 0.16393-0.0923 0.25754l-0.2079 0.39799c-0.0465 0.0936-0.0922 0.16387-0.16169 0.2575l-0.2541 0.3512c-0.0694 0.0701-0.13857 0.14045-0.20787 0.2107l-0.32338 0.28096c-0.0693 0.0936-0.18481 0.16383-0.27719 0.21066l-0.39267 0.21071c-0.0695 0.0467-0.13863 0.0702-0.23104 0.11711l-0.39268 0.14049c-0.11547 0.0234-0.23097 0.0467-0.34647 0.0701l-0.43886 0.0467h-0.3234l-0.43888-0.0467c-0.11549-0.0235-0.23099-0.0467-0.32339-0.0701l-0.41115-0.1332c-0.0922-0.0467-0.18481-0.0703-0.27718-0.1171l-0.3696-0.21071c-0.0923-0.0701-0.18478-0.14044-0.25408-0.21067l-0.32341-0.28095c-0.0693-0.0701-0.1386-0.11707-0.18479-0.1873l-0.27718-0.35119c-0.0693-0.0937-0.1386-0.18723-0.18477-0.28092l-0.18479-0.39798c-0.0465-0.0937-0.0693-0.1639-0.0922-0.25755l-0.13861-0.44476c-0.0228-0.0937-0.0465-0.18728-0.0465-0.28098zm3.0951 0.18734-0.0465-0.30438 0.11554 0.44481-0.0922-0.25752 0.20789 0.39798-0.18479-0.28089 0.27721 0.35112-0.18481-0.18728 0.3234 0.30435-0.25406-0.21071 0.36954 0.21071-0.27718-0.11708 0.4158 0.14046-0.3234-0.0702 0.4389 0.0467h-0.3234l0.43887-0.0467-0.3465 0.0702 0.41578-0.14046-0.23099 0.11708 0.36963-0.21071-0.27724 0.21071 0.32339-0.30435-0.20786 0.21072 0.27717-0.35118-0.16167 0.25751 0.1848-0.39798-0.0923 0.25752 0.13864-0.44481-0.0693 0.30438 0.0465-0.49166v0.30432l-0.0465-0.46824 0.0693 0.28099-0.13864-0.42145 0.0923 0.25753-0.1848-0.39799 0.16167 0.25752-0.27717-0.35117 0.20786 0.2107-0.32339-0.30434 0.27724 0.21072-0.36963-0.21072 0.23099 0.1171-0.41578-0.14049 0.3465 0.0701-0.43887-0.0467h0.3234l-0.4389 0.0467 0.3234-0.0701-0.4158 0.14049 0.27718-0.1171-0.36954 0.21072 0.25406-0.21072-0.3234 0.30434 0.18481-0.18727-0.27721 0.35114 0.18479-0.28092-0.20789 0.39799 0.0922-0.25753-0.11554 0.42145 0.0465-0.28099-0.0465 0.46824v-0.30432z" stroke="#000" stroke-width=".023255px"/>
  <path id="path3206" fill-rule="evenodd" d="m650.67 419.98c0-1.3111 0.96083-2.388 2.0964-2.388 1.1355 0 2.0525 1.077 2.0525 2.388 0 1.2642-0.91711 2.3413-2.0525 2.3413s-2.0964-1.077-2.0964-2.3413"/>
  <path id="path3208" stroke-linejoin="round" d="m649.22 420.13c-0.0466-0.0936-0.0466-0.1873 0-0.32775l0.0461-0.46821c0-0.0937 0-0.18735 0.0465-0.28098l0.13859-0.42139c0-0.0936 0.0464-0.18731 0.0922-0.28094l0.1848-0.37459c0.0464-0.0937 0.0924-0.18729 0.13856-0.28097l0.27723-0.32775c0.0465-0.0935 0.13858-0.14045 0.18475-0.23409l0.3234-0.28097c0.0922-0.0936 0.1848-0.14045 0.2772-0.18729l0.3696-0.2341c0.0921-0.0467 0.18477-0.0467 0.27717-0.0935l0.40556-0.11216c0.0922-0.0467 0.23098-0.0467 0.32339-0.0936l0.41579-0.0467h0.32338l0.46197 0.0467c0.0922 0.0467 0.23099 0.0467 0.32341 0.0936l0.41579 0.14046c0.0922 0.0467 0.18476 0.0467 0.27717 0.0935l0.36956 0.23409c0.0923 0.0467 0.18483 0.0936 0.27722 0.18729l0.32339 0.28093c0.0465 0.0935 0.0922 0.14046 0.13859 0.18732l0.27719 0.37457c0.0922 0.0937 0.13856 0.18728 0.18477 0.28094l0.23104 0.37459c0 0.0937 0.0465 0.18728 0.0922 0.28093l0.0924 0.4214c0.0465 0.0936 0.0465 0.18729 0.0922 0.28097l0.0465 0.4682v0.32778l-0.0465 0.46818c-0.046 0.0935-0.046 0.18732-0.0922 0.28097l-0.0924 0.4682c-0.0465 0.0935-0.0922 0.14052-0.0922 0.23413l-0.23104 0.42143c-0.0463 0.0935-0.0922 0.18725-0.18477 0.28089l-0.27719 0.32776c-0.0465 0.0467-0.0922 0.1405-0.13859 0.1873l-0.32339 0.28095c-0.0922 0.0937-0.18478 0.14045-0.27722 0.23414l-0.36956 0.18725c-0.0922 0.0467-0.18484 0.0936-0.27717 0.1405l-0.41579 0.14046c-0.0922 0-0.23102 0.0467-0.32341 0.0467l-0.46197 0.0467h-0.32338l-0.41579-0.0467c-0.0922 0-0.23097-0.0467-0.32339-0.0467l-0.41578-0.14046c-0.0922-0.0467-0.18479-0.0936-0.27718-0.1405l-0.3696-0.18725c-0.0922-0.0937-0.18479-0.14046-0.27721-0.23414l-0.32332-0.28095c-0.0461-0.0467-0.13859-0.14046-0.18479-0.2341l-0.27719-0.3278c-0.0462-0.0936-0.0922-0.14045-0.13859-0.23407l-0.18479-0.42141c-0.0464-0.0936-0.0922-0.14047-0.0922-0.23413l-0.13866-0.4682c-0.046-0.0935-0.046-0.18729-0.046-0.28097zm3.0951 0.18729-0.0464-0.32775 0.0922 0.46821-0.0922-0.28094 0.231 0.42141-0.18479-0.28093 0.27717 0.37456-0.18479-0.2341 0.32341 0.32777-0.27722-0.23413 0.36962 0.23413-0.27721-0.14049 0.41579 0.14049-0.32341-0.0467 0.41577 0.0467h-0.32334l0.46195-0.0467-0.32339 0.0467 0.41579-0.14049-0.27718 0.14049 0.3696-0.23413-0.27719 0.23413 0.32339-0.32777-0.18478 0.18728 0.2772-0.32774-0.13862 0.28093 0.18476-0.42141-0.0922 0.28094 0.1386-0.46821-0.0922 0.32775 0.0466-0.51504v0.32775l-0.0466-0.46825 0.0922 0.28095-0.1386-0.42141 0.0922 0.23412-0.18476-0.37459 0.13862 0.28093-0.2772-0.37458 0.18478 0.18728-0.32339-0.2809 0.27719 0.18727-0.3696-0.18727 0.27718 0.0937-0.41579-0.14045 0.32339 0.0937-0.46195-0.0467h0.32334l-0.41577 0.0467 0.32341-0.0937-0.41579 0.14045 0.27721-0.0937-0.36962 0.18727 0.27722-0.18727-0.32341 0.2809 0.18479-0.2341-0.27717 0.37458 0.18479-0.23411-0.231 0.37459 0.0922-0.23412-0.0922 0.42141 0.0464-0.28095-0.0464 0.46825v-0.32775z" stroke="#000" stroke-width=".046511px"/>
  <path id="path3210" stroke-linejoin="round" d="m721.77 376.61v111.69h-1.6919v-111.69h1.6919zm4.3066 110.86-5.1267 4.9009-5.1266-4.9009h10.253z" stroke="#000" stroke-width=".035444px"/>
  <path id="path3212" stroke-linejoin="round" d="m727.44 446.34-13.774 9.2686 0.76796 0.98301 13.772-9.3155z" stroke="#000" stroke-width=".048956px"/>
  <text id="text3214" font-size="13.121px" xml:space="preserve" transform="scale(1.0458 .95616)" y="471.36066" x="670.91357" font-family="Arial" line-height="125%" fill="#000000"><tspan id="tspan3973" y="471.36066" x="670.91357">49</tspan></text>
  <path id="path3216" stroke-linejoin="round" d="m451.77 551.77c0-0.46896 0.27035-0.85977 0.59473-0.85977h52.207c0.34238 0 0.61269 0.39081 0.61269 0.85977v34.469c0 0.49499-0.27031 0.85978-0.61269 0.85978h-52.207c-0.32438 0-0.59473-0.36479-0.59473-0.85978zm1.2074 34.469-0.61269-0.85979h52.207l-0.59472 0.85979v-34.469l0.59472 0.85977h-52.207l0.61269-0.85977z" stroke="#000" stroke-width=".021669px"/>
  <text id="text3218" font-size="16.28px" xml:space="preserve" transform="scale(1.0458 .95616)" y="606.94714" x="438.46112" font-family="Arial" line-height="125%" fill="#000000">MUX</text>
  <path id="path3220" stroke-linejoin="round" d="m436.14 573.12h15.462v1.1702h-15.462z" stroke="#000" stroke-width=".024478px"/>
  <text id="text3222" font-size="16.321px" xml:space="preserve" transform="scale(1.0458 .95616)" y="595.25726" x="401.50323" font-family="Arial" line-height="125%" fill="#000000">MR</text>
  <text id="text3224" font-size="16.252px" xml:space="preserve" transform="matrix(.0018289 -.94295 1.0605 .0016722 0 0)" y="685.86102" x="-615.9953" font-family="Arial" line-height="125%" fill="#000000"><tspan id="tspan4437" y="685.86102" x="-615.9953">Rest of CPU</tspan></text>
  <text id="text3228" font-size="16.252px" xml:space="preserve" transform="matrix(.0018289 -.94295 1.0605 .0016722 0 0)" y="704.427" x="-623.96527" font-family="Arial" fill="#000000">control </text>
  <text id="text3230" font-size="16.252px" xml:space="preserve" transform="matrix(.0018289 -.94295 1.0605 .0016722 0 0)" y="703.69696" x="-571.22382" font-family="Arial" fill="#000000">signals</text>
  <path id="path3232" stroke-linejoin="round" d="m683.02 437.19v-60.455h-1.2785v60.455z" stroke="#000" stroke-width=".050694px"/>
  <path id="path3234" stroke-linejoin="round" d="m480.1 585.77v14.299h-1.6895v-14.299h1.6895zm4.2749 12.734-5.1198 9.3622-5.1198-9.3622h10.24z" stroke="#000" stroke-width=".024478px"/>
  <path id="path3236" stroke-linejoin="round" d="m548.34 551.66c0-0.47698 0.25648-0.90093 0.58627-0.90093h53.092c0.32977 0 0.58626 0.42395 0.58626 0.90093v35.086c0 0.47701-0.25649 0.84798-0.58626 0.84798h-53.092c-0.32979 0-0.58627-0.37097-0.58627-0.84798zm1.2091 35.086-0.62282-0.90092h53.092l-0.62284 0.90092v-35.086l0.62284 0.901h-53.092l0.62282-0.901z" stroke="#000" stroke-width=".044067px"/>
  <text id="text3238" font-size="16.28px" xml:space="preserve" transform="scale(1.0458 .95616)" y="607.03662" x="531.81293" font-family="Arial" line-height="125%" fill="#000000">MUX</text>
  <path id="path3240" stroke-linejoin="round" d="m532.97 572.98h15.437v1.1702h-15.437z" stroke="#000" stroke-width=".024478px"/>
  <text id="text3242" font-size="15.066px" xml:space="preserve" transform="scale(1.0458 .95616)" line-height="125%" y="595.10114" x="498.67499" font-family="Arial" fill="#000000">MR</text>
  <path id="path3244" stroke-linejoin="round" d="m576.39 585.61v14.323h-1.6895v-14.323h1.6895zm4.2494 12.781-5.1198 9.3622-5.1198-9.3622h10.24z" stroke="#000" stroke-width=".048956px"/>
  <path id="path3246" stroke-linejoin="round" d="m640.55 550.27c0-0.48646 0.24521-0.91897 0.56059-0.91897h50.772c0.31535 0 0.59566 0.43251 0.59566 0.91897v35.787c0 0.4865-0.28031 0.86491-0.59566 0.86491h-50.772c-0.31538 0-0.56059-0.37841-0.56059-0.86491zm1.1562 35.787-0.59567-0.91893h50.771l-0.59567 0.91893v-35.787l0.59567 0.91899h-50.771l0.59567-0.91899z" stroke="#000" stroke-width=".043521px"/>
  <text id="text3248" font-size="16.28px" xml:space="preserve" transform="scale(1.0458 .95616)" y="606.25592" x="618.91174" font-family="Arial" line-height="125%" fill="#000000">MUX</text>
  <path id="path3252" stroke-linejoin="round" d="m626.09 573.61h15.411v1.1702h-15.411z" stroke="#000" stroke-width=".048956px"/>
  <text id="text3254" font-size="15.066px" xml:space="preserve" transform="scale(1.0458 .95616)" line-height="125%" y="595.7395" x="587.13116" font-family="Arial" fill="#000000">MR</text>
  <path id="path3256" stroke-linejoin="round" d="m668.08 585.34v14.323h-1.6895v-14.323h1.6895zm4.3005 12.781-5.1198 9.3622-5.1198-9.3622h10.24z" stroke="#000" stroke-width=".048956px"/>
  <path id="path3258" stroke-linejoin="round" d="m496.13 395.57h63.298v1.1584h-63.298z" stroke="#000" stroke-width=".036089px"/>
  <path id="path3260" stroke-linejoin="round" d="m495.58 550.95 1.2318-155.54-1.5021-0.0265-1.2318 155.58z" stroke="#000" stroke-width=".028267px"/>
  <path id="path3262" fill-rule="evenodd" d="m587.34 483.4c0-1.3107 1.0752-2.3407 2.4576-2.3407 1.3312 0 2.4064 1.0298 2.4064 2.3407 0 1.3107-1.0751 2.3406-2.4064 2.3406-1.3824 0-2.4576-1.0298-2.4576-2.3406"/>
  <path id="path3264" stroke-linejoin="round" d="m585.4 483.56v-0.28087l0.0514-0.51493c0-0.0936 0.0516-0.18724 0.0516-0.28088l0.1536-0.42128c0.0513-0.0937 0.0513-0.18723 0.10258-0.23404l0.20477-0.42132c0.0514-0.0935 0.15359-0.18724 0.20481-0.28086l0.3072-0.32768c0.0514-0.0936 0.15358-0.14045 0.20477-0.18724l0.3584-0.32767c0.10238-0.0467 0.20479-0.14045 0.30717-0.18726l0.40959-0.18724c0.10238-0.0467 0.20479-0.0937 0.30718-0.14045l0.4608-0.14041c0.10257-0.0467 0.20481-0.0467 0.35838-0.0467l0.46077-0.0467c0.15361-0.0467 0.25598-0.0467 0.3584 0l0.51196 0.0467c0.10259 0 0.25599 0 0.35838 0.0467l0.46079 0.14041c0.10248 0.0467 0.1536 0.0937 0.25598 0.0937l0.40957 0.23404c0.10239 0.0467 0.25604 0.14045 0.30723 0.1873l0.35839 0.32765c0.10217 0.0467 0.15357 0.14042 0.25596 0.18723l0.25597 0.37447c0.10258 0.0467 0.1536 0.14045 0.20481 0.23407l0.20482 0.42131c0.0514 0.0467 0.10258 0.14041 0.10258 0.23406l0.15362 0.42129c0.0514 0.0936 0.0514 0.18726 0.0514 0.28087l0.0516 0.51494v0.28083l-0.0516 0.46813c0 0.14046 0 0.23406-0.0514 0.32764l-0.15362 0.42132c0 0.0935-0.0515 0.18728-0.10258 0.23408l-0.20482 0.4213c-0.0516 0.0937-0.10227 0.18723-0.20481 0.23404l-0.25597 0.37449c-0.10237 0.0467-0.15361 0.14045-0.25596 0.18725l-0.35839 0.32768c-0.0514 0.0467-0.20479 0.14042-0.30723 0.18723l-0.40957 0.18723c-0.10228 0.0467-0.15358 0.0935-0.25598 0.14048l-0.46079 0.14043c-0.10248 0.0467-0.25597 0.0467-0.35838 0.0467l-0.51196 0.0467c-0.10217 0.0467-0.20479 0.0467-0.3584 0l-0.46077-0.0467c-0.15357 0-0.256 0-0.35838-0.0467l-0.4608-0.14043c-0.10237-0.0467-0.20476-0.0937-0.30718-0.14048l-0.40959-0.18723c-0.10247-0.0467-0.20479-0.14041-0.30717-0.18723l-0.3584-0.32768c-0.0515-0.0467-0.15358-0.0935-0.20477-0.18725l-0.3072-0.32764c-0.0515-0.0936-0.15361-0.18726-0.20481-0.28089l-0.20477-0.4213c-0.0516-0.0467-0.0516-0.14043-0.10258-0.23408l-0.1536-0.42132c0-0.0937-0.0516-0.18718-0.0516-0.32764zm3.4301 0.18723-0.0516-0.28084 0.15362 0.42128-0.10217-0.23406 0.2048 0.37447-0.2048-0.28085 0.30717 0.37449-0.20482-0.18722 0.35839 0.28085-0.25594-0.18727 0.40954 0.18727-0.30717-0.0936 0.46078 0.14042-0.35839-0.0937 0.46075 0.0467h-0.35837l0.51198-0.0467-0.40958 0.0937 0.46079-0.14042-0.25599 0.0936 0.40958-0.23404-0.3072 0.23404 0.35842-0.28085-0.20481 0.18722 0.30719-0.32768-0.2048 0.23404 0.2048-0.37447-0.10237 0.23406 0.1536-0.42128-0.0516 0.28084 0.0516-0.4681v0.28087l-0.0516-0.46808 0.0516 0.28084-0.1536-0.42131 0.10237 0.23405-0.2048-0.37448 0.2048 0.23404-0.30719-0.32767 0.20481 0.18726-0.35842-0.28086 0.3072 0.18723-0.40958-0.18723 0.25599 0.0936-0.46079-0.1404 0.40958 0.0935-0.51198-0.0467h0.35837l-0.46075 0.0467 0.35839-0.0935-0.46078 0.1404 0.30717-0.0936-0.40954 0.18723 0.25594-0.18723-0.35839 0.28086 0.20482-0.18726-0.30717 0.37453 0.2048-0.2809-0.2048 0.37448 0.10217-0.23405-0.15362 0.42131 0.0516-0.28084-0.0516 0.46808v-0.28087z" stroke="#000" stroke-width=".048956px"/>
  <path id="path3266" fill-rule="evenodd" d="m494.98 483.9c0-1.2873 1.1008-2.3406 2.432-2.3406 1.3568 0 2.432 1.0533 2.432 2.3406 0 1.3107-1.075 2.364-2.432 2.364-1.3312 0-2.432-1.0533-2.432-2.364"/>
  <path id="path3268" stroke-linejoin="round" d="m492.13 484.06v-0.30426l0.0514-0.49153c0.0253-0.0937 0.0253-0.18725 0.0766-0.28085l0.12798-0.44472c0.0252-0.07 0.0765-0.16383 0.10217-0.23407l0.23038-0.39789c0.0514-0.11706 0.10259-0.21065 0.17923-0.28084l0.30716-0.35109c0.0766-0.0703 0.12803-0.14046 0.2048-0.18726l0.35837-0.30426c0.10248-0.0704 0.2048-0.14045 0.30719-0.18726l0.40962-0.21065c0.0766-0.0467 0.17917-0.0936 0.28157-0.11703l0.46079-0.14044c0.12799-0.0467 0.25599-0.0701 0.35837-0.0701l0.48636-0.0467c0.12803-0.0234 0.25598-0.0234 0.35841 0l0.48637 0.0467c0.12799 0 0.256 0.0234 0.38399 0.0701l0.46077 0.14044c0.10217 0.0234 0.1792 0.07 0.28161 0.11703l0.40957 0.21065c0.10217 0.0467 0.2048 0.11708 0.30718 0.18726l0.35839 0.30426c0.0765 0.0467 0.12799 0.11705 0.20479 0.18726l0.30716 0.35109c0.0514 0.0701 0.12801 0.16381 0.17923 0.28084l0.23041 0.39789c0.0252 0.0702 0.0764 0.16386 0.10238 0.23407l0.12799 0.44472c0.0514 0.0936 0.0514 0.18723 0.0765 0.28085l0.0515 0.49153v0.30426l-0.0515 0.46813c-0.0253 0.11703-0.0253 0.21065-0.0765 0.28083l-0.12799 0.44473c-0.0252 0.0936-0.0765 0.18723-0.10238 0.28086l-0.23041 0.39789c-0.0514 0.0935-0.12802 0.18724-0.17923 0.28088l-0.30716 0.35107c-0.0766 0.0701-0.12801 0.11707-0.20479 0.18722l-0.35839 0.28091c-0.10237 0.0699-0.20479 0.14043-0.30718 0.21062l-0.40957 0.21066c-0.10237 0.0467-0.17922 0.0702-0.28161 0.11706l-0.46077 0.14042c-0.128 0.0234-0.256 0.0467-0.38399 0.0702l-0.48637 0.0467h-0.35841l-0.48636-0.0467c-0.10269-0.0234-0.23038-0.0467-0.35837-0.0702l-0.46079-0.14042c-0.10247-0.0467-0.20479-0.07-0.28157-0.11706l-0.40962-0.21066c-0.10259-0.0703-0.20478-0.1404-0.30719-0.21062l-0.35837-0.28091-0.2048-0.18722-0.30716-0.35107c-0.0764-0.0935-0.12802-0.18723-0.17923-0.28088l-0.23038-0.39789c-0.0253-0.0936-0.0766-0.18722-0.10217-0.28086l-0.15357-0.44473c-0.0253-0.0701-0.0253-0.16382-0.0516-0.28083zm3.4559 0.16384-0.0516-0.28088 0.12801 0.44472-0.10238-0.25746 0.20478 0.39791-0.17918-0.28089 0.30718 0.35111-0.20474-0.18729 0.35835 0.30431-0.30717-0.21064 0.40956 0.21064-0.28159-0.11708 0.46076 0.14046-0.38398-0.0702 0.48639 0.0467h-0.35841l0.48642-0.0467-0.35838 0.0702 0.46077-0.14046-0.28159 0.11708 0.40961-0.21064-0.3072 0.21064 0.35837-0.30431-0.20478 0.18729 0.30716-0.35111-0.17916 0.28089 0.2048-0.39791-0.10248 0.25746 0.128-0.44472-0.0514 0.28088 0.0514-0.4681v0.30426l-0.0514-0.49152 0.0764 0.30428-0.15357-0.44467 0.10248 0.25743-0.20481-0.3979 0.17923 0.28086-0.30724-0.35106 0.20481 0.18726-0.35838-0.28089 0.3072 0.18724-0.40959-0.21064 0.28158 0.11705-0.46078-0.14045 0.35842 0.0702-0.48642-0.0467h0.35838l-0.48637 0.0467 0.384-0.0702-0.46078 0.14045 0.28157-0.11705-0.40956 0.21064 0.30717-0.18724-0.35841 0.28089 0.20479-0.18726-0.30715 0.35106 0.17919-0.28086-0.2048 0.3979 0.10258-0.25743-0.15358 0.44467 0.0765-0.30428-0.0514 0.49152v-0.30426z" stroke="#000" stroke-width=".024478px"/>
  <path id="path3270" stroke-linejoin="round" d="m495.65 518.91v23.586h-1.6895v-23.586h1.6895zm4.275 21.925-5.1198 9.9206-5.1199-9.9206h10.24z" stroke="#000" stroke-width=".025196px"/>
  <path id="path3272" stroke-linejoin="round" d="m501.9 527.33-13.774 9.2921 0.74238 0.93624 13.774-9.2921z" stroke="#000" stroke-width=".024478px"/>
  <text id="text3274" font-size="13.122px" xml:space="preserve" transform="scale(1.0458 .95616)" y="557.13684" x="462.06982" font-family="Arial" fill="#000000">5</text>
  <path id="path3276" stroke-linejoin="round" d="m592.56 483.05-13.264-0.22298-0.032 1.5453 13.315 0.22526-0.0192-1.5476zm-11.519-4.0812-10.29 4.5042 10.143 4.8628 0.14628-9.3669z" stroke="#000" stroke-width=".048956px"/>
  <path id="path3278" stroke-linejoin="round" d="m589.96 548.38v-154.11h-1.2621v154.11z" stroke="#000" stroke-width=".066677px"/>
  <path id="path3280" stroke-linejoin="round" d="m558.28 396.76-0.30311-21.492 1.3007-0.008 0.30309 21.492z" stroke="#000" stroke-width=".044292px"/>
  <path id="path3282" stroke-linejoin="round" d="m590.37 521v22.236h-1.6895v-22.236h1.6895zm4.3004 20.691-5.1198 9.3622-5.1198-9.3622h10.24z" stroke="#000" stroke-width=".048956px"/>
  <path id="path3284" stroke-linejoin="round" d="m596.6 526.53-13.774 9.3154 0.768 0.9362 13.774-9.3154z" stroke="#000" stroke-width=".048956px"/>
  <text id="text3286" font-size="13.122px" xml:space="preserve" transform="scale(1.0458 .95616)" y="557.39801" x="552.41992" font-family="Arial" fill="#000000">5</text>
  <path id="path3290" stroke-linejoin="round" d="m684.8 485.83-13.09 0.16518 0.004-1.5511 13.085-0.21182 0.00027 1.5978zm-11.279 4.0135-10.357-4.5201 10.174-4.8168 0.18321 9.3369z" stroke="#000" stroke-width=".048956px"/>
  <path id="path3292" stroke-linejoin="round" d="m682.77 535.86v-113.99h-1.2693v113.99z" stroke="#000" stroke-width=".058975px"/>
  <path id="path3296" stroke-linejoin="round" d="m689.23 524.6-13.774 9.3154 0.76796 0.93621 13.774-9.2686z" stroke="#000" stroke-width=".048956px"/>
  <text id="text3298" font-size="13.122px" xml:space="preserve" transform="scale(1.0458 .95616)" y="556.11505" x="640.30817" font-family="Arial" fill="#000000">5</text>
  <path id="path3300" stroke-linejoin="round" d="m683 519.23v22.284h-1.6895v-22.284h1.6895zm4.2494 20.691-5.1198 9.3622-5.1198-9.3622h10.24z" stroke="#000" stroke-width=".048956px"/>
  <path id="path3302" stroke-linejoin="round" d="m768.94 545.76c0-0.4887 0.28907-0.92304 0.61424-0.92304h52.318c0.36133 0 0.61421 0.43434 0.61421 0.92304v35.946c0 0.4887-0.25288 0.86877-0.61421 0.86877h-52.318c-0.32517 0-0.61424-0.38007-0.61424-0.86877zm1.1922 35.946-0.57812-0.92302h52.318l-0.57808 0.92302v-35.946l0.57808 0.923h-52.318l0.57812-0.923z" stroke="#000" stroke-width=".044293px"/>
  <text id="text3304" font-size="16.28px" xml:space="preserve" transform="scale(1.0458 .95616)" y="601.17419" x="742.47931" font-family="Arial" line-height="125%" fill="#000000">MUX</text>
  <path id="path3306" stroke-linejoin="round" d="m822.43 569.49h15.462v1.1702h-15.462z" stroke="#000" stroke-width=".048956px"/>
  <path id="path3308" stroke-linejoin="round" d="m797.38 581.96v14.323h-1.7407v-14.323h1.7407zm4.2494 12.781-5.1198 9.3622-5.1198-9.3622h10.24z" stroke="#000" stroke-width=".048956px"/>
  <path id="path3310" stroke-linejoin="round" d="m771.57 342.87c0-0.42127 0.46488-0.79567 1.0626-0.79567h62.759c0.59775 0 1.129 0.3744 1.129 0.79567v32.621c0 0.42122-0.53128 0.79565-1.129 0.79565h-62.759c-0.59773 0-1.0626-0.37443-1.0626-0.79565zm1.6102 32.678-0.5477-0.85093h62.759l-0.4983 1.0847 0.0941-33.006 0.40425 0.89202h-62.759l0.60055-0.68501z" stroke="#000" stroke-width=".055753px"/>
  <text id="text3312" font-size="15.999px" xml:space="preserve" transform="scale(1.0458 .95616)" y="381.33649" x="742.36658" font-family="Arial" line-height="125%" fill="#000000">SelCop</text>
  <path id="path3314" fill-rule="evenodd" d="m680.74 485.25c0-1.3107 1.0752-2.3873 2.4576-2.3873 1.3312 0 2.4064 1.0765 2.4064 2.3873 0 1.3107-1.0752 2.3407-2.4064 2.3407-1.3823 0-2.4576-1.0298-2.4576-2.3407"/>
  <path id="path3316" stroke-linejoin="round" d="m678.23 485v-0.28087l0.0514-0.51492c0-0.0935 0.0515-0.18727 0.0515-0.28088l0.15356-0.42132c0.0516-0.0935 0.0516-0.18722 0.10238-0.28084l0.25596-0.3745c0.0515-0.0936 0.10237-0.18724 0.15358-0.28087l0.30719-0.32768c0.0516-0.0937 0.10207-0.14042 0.20482-0.23404l0.35839-0.28087c0.10248-0.0937 0.2048-0.14043 0.30718-0.18724l0.40957-0.23409c0.10268-0.0467 0.20482-0.0467 0.3072-0.0935l0.46078-0.14043c0.10269-0.0467 0.20478-0.0467 0.35841-0.0937l0.46077-0.0467h0.35836l0.512 0.0467c0.10227 0.0467 0.20474 0.0467 0.35838 0.0937l0.46076 0.14043c0.10207 0.0467 0.20482 0.0467 0.30722 0.0935l0.40956 0.23409c0.10247 0.0467 0.20482 0.0937 0.25602 0.18724l0.35834 0.28087 0.20481 0.18723 0.30719 0.37449c0.10248 0.0936 0.15359 0.18725 0.20477 0.28087l0.20481 0.3745c0.0516 0.0937 0.10248 0.18726 0.10248 0.28084l0.15356 0.42132c0.0516 0.0937 0.0516 0.18722 0.0516 0.28088l0.0514 0.51492c0.0516 0.0936 0.0516 0.18722 0 0.28087l-0.0514 0.4681c0 0.14042 0 0.23406-0.0516 0.3277l-0.15356 0.42128c0 0.0937-0.0513 0.18723-0.10248 0.23403l-0.20481 0.42131c-0.0516 0.0936-0.10207 0.18723-0.20477 0.28088l-0.30719 0.32767c-0.0516 0.0936-0.10269 0.14043-0.20481 0.18724l-0.35834 0.32769c-0.0516 0.0467-0.15362 0.14042-0.25602 0.18724l-0.40956 0.18725c-0.10217 0.0467-0.2048 0.0936-0.30722 0.14042l-0.46076 0.14044c-0.15364 0.0467-0.25597 0.0467-0.35838 0.0467l-0.512 0.0467c-0.10257 0.0467-0.20479 0.0467-0.35836 0l-0.46077-0.0467c-0.15363 0-0.256 0-0.35841-0.0467l-0.46078-0.14044c-0.10269-0.0467-0.2048-0.0937-0.3072-0.14042l-0.40957-0.18725c-0.10248-0.0467-0.2048-0.14045-0.30718-0.18724l-0.35839-0.32769c-0.10259-0.0467-0.15359-0.14041-0.20482-0.18724l-0.30719-0.37446c-0.0515-0.0467-0.10217-0.14045-0.15358-0.23409l-0.25596-0.42131c0-0.0467-0.0516-0.14041-0.10238-0.23403l-0.10258-0.42128c-0.0516-0.0937-0.10248-0.18728-0.10248-0.3277zm3.4815 0.18725-0.10238-0.2809 0.15362 0.42133-0.10258-0.23407 0.20476 0.37449-0.15356-0.23408 0.30718 0.32771-0.25601-0.18726 0.35839 0.28085-0.256-0.18722 0.4096 0.18722-0.30718-0.0935 0.46078 0.1404-0.35839-0.0935 0.46076 0.0467h-0.3584l0.51201-0.0467-0.3584 0.0935 0.46081-0.1404-0.3072 0.0935 0.40957-0.18722-0.30718 0.18722 0.35838-0.28085-0.20479 0.18726 0.30719-0.37448-0.20479 0.28085 0.25598-0.37449-0.10259 0.23407 0.10259-0.42133-0.0516 0.2809 0.0516-0.46812v0.28087l-0.0516-0.46812 0.0516 0.28086-0.15359-0.46812 0.15359 0.28089-0.25598-0.37451 0.20479 0.28088-0.30719-0.37447 0.20479 0.18721-0.35838-0.28087 0.30718 0.18725-0.40957-0.18725 0.3072 0.0937-0.46081-0.14045 0.3584 0.0936-0.51201-0.0467h0.3584l-0.46076 0.0467 0.35839-0.0936-0.46078 0.14045 0.30718-0.0937-0.4096 0.18725 0.256-0.18725-0.35839 0.28087 0.25601-0.23407-0.30718 0.37451 0.15356-0.23406-0.20476 0.37451 0.10258-0.28089-0.15362 0.46812 0.10238-0.28086-0.0513 0.46812v-0.28087z" stroke="#000" stroke-width=".048956px"/>
  <path id="path3318" stroke-linejoin="round" d="m806.42 420.77 0.3538 118.19-1.6906-0.007-0.35381-118.19 1.6906 0.007zm4.6209 116.98-5.1061 6.9677-5.1413-6.9532 10.247-0.0143z" stroke="#000" stroke-width=".042225px"/>
  <path id="path3320" stroke-linejoin="round" d="m785.48 417.73 0.51163 117.92h-1.6884l-0.56282-117.86 1.7395-0.0604zm4.758 115.87-5.0651 12.032-5.1676-11.973 10.233-0.0603z" stroke="#000" stroke-width=".055481px"/>
  <text id="text3322" font-size="16.321px" xml:space="preserve" transform="scale(1.0458 .95616)" y="590.78979" x="790.59766" font-family="Arial" line-height="125%" fill="#000000">MC</text>
  <path id="path3324" stroke-linejoin="round" d="m812.65 509.83-13.774 9.3155 0.76794 0.9362 13.774-9.2686z" stroke="#000" stroke-width=".048956px"/>
  <path id="path3326" stroke-linejoin="round" d="m780.05 486.67-10.481 6.1584 0.54546 0.65313 10.481-6.1894z" stroke="#000" stroke-width=".034812px"/>
  <text id="text3328" font-size="13.122px" xml:space="preserve" transform="matrix(-.012212 -1.01 .99003 -.0074062 0 0)" line-height="125%" y="780.35663" x="-519.42371" font-family="Arial" fill="#000000"><tspan id="tspan4439" y="780.35663" x="-519.42371">IR3 -- IR0</tspan></text>
  <text id="text3330" font-size="13.122px" xml:space="preserve" transform="scale(1.0458 .95616)" y="537.96423" x="759.93091" font-family="Arial" fill="#000000">4</text>
  <text id="text3332" font-size="13.122px" xml:space="preserve" transform="scale(1.0458 .95616)" y="557.81903" x="435.15393" font-family="Arial" fill="#000000">5</text>
  <text id="text3334" font-size="13.122px" xml:space="preserve" transform="scale(1.0458 .95616)" y="557.1723" x="525.86841" font-family="Arial" fill="#000000">5</text>
  <text id="text3336" font-size="13.122px" xml:space="preserve" transform="scale(1.0458 .95616)" y="555.75677" x="613.64758" font-family="Arial" fill="#000000">5</text>
  <text id="text3338" font-size="12.555px" xml:space="preserve" transform="scale(1.0458 .95616)" y="589.08655" x="442.31702" font-family="Arial" line-height="125%" fill="#000000">0</text>
  <text id="text3340" font-size="12.555px" xml:space="preserve" transform="scale(1.0458 .95616)" y="589.36475" x="468.44543" font-family="Arial" line-height="125%" fill="#000000">1</text>
  <text id="text3342" font-size="16.253px" xml:space="preserve" transform="scale(1.0458 .95616)" y="649.70441" x="539.24579" font-family="Arial" fill="#000000">RB</text>
  <text id="text3344" font-size="16.253px" xml:space="preserve" transform="scale(1.0458 .95616)" y="649.08215" x="626.93457" font-family="Arial" fill="#000000">RC</text>
  <text id="text3346" font-size="16.253px" xml:space="preserve" transform="scale(1.0458 .95616)" y="649.13403" x="447.60287" font-family="Arial" fill="#000000">RA</text>
  <text id="text3348" font-size="16.253px" xml:space="preserve" transform="scale(1.0458 .95616)" y="644.6402" x="747.48981" font-family="Arial" fill="#000000">Cop</text>
  <text id="text3350" font-size="12.555px" xml:space="preserve" transform="scale(1.0458 .95616)" y="589.08655" x="534.72412" font-family="Arial" line-height="125%" fill="#000000">0</text>
  <text id="text3352" font-size="12.555px" xml:space="preserve" transform="scale(1.0458 .95616)" y="589.36462" x="559.85651" font-family="Arial" line-height="125%" fill="#000000">1</text>
  <text id="text3354" font-size="12.555px" xml:space="preserve" transform="scale(1.0458 .95616)" y="583.75098" x="748.22552" font-family="Arial" line-height="125%" fill="#000000">0</text>
  <text id="text3356" font-size="12.555px" xml:space="preserve" transform="scale(1.0458 .95616)" y="583.08746" x="766.99164" font-family="Arial" line-height="125%" fill="#000000">1</text>
  <text id="text3358" font-size="14.943px" xml:space="preserve" transform="scale(1.0458 .95616)" y="191.21074" x="272.51474" font-family="Arial" line-height="125%" fill="#000000">A1</text>
  <text id="text3362" font-size="19.583px" xml:space="preserve" transform="scale(1.0458 .95616)" y="314.28967" x="248.82021" font-family="Arial" fill="#000000">MUX B</text>
  <path id="path3364" stroke-linejoin="round" d="m252.64 325.13c0 0.44472 0.26458 0.79584 0.62368 0.79584h78.587c0.34018 0 0.62369-0.35112 0.62369-0.79584v-49.785c0-0.42133-0.28351-0.77244-0.62369-0.77244h-78.587c-0.3591 0-0.62368 0.35111-0.62368 0.77244zm1.2474-49.785-0.62369 0.77245h78.587l-0.62373-0.77245v49.785l0.62373-0.77244h-78.587l0.62369 0.77244z" stroke="#000" stroke-width=".021033px"/>
  <text id="text3366" font-size="13.585px" xml:space="preserve" transform="scale(1.0458 .95616)" y="332.84454" x="262.39853" font-family="Arial" line-height="125%" fill="#000000">0</text>
  <text id="text3368" font-size="13.585px" xml:space="preserve" transform="scale(1.0458 .95616)" y="333.12247" x="288.88226" font-family="Arial" line-height="125%" fill="#000000">1</text>
  <path id="path3372" stroke-linejoin="round" d="m307.41 347.72v-14.323h-1.7151v14.323h1.7151zm4.2494-12.756-5.1198-9.3622-5.1199 9.3622h10.239z" stroke="#000" stroke-width=".024478px"/>
  <text id="text3374" font-size="15.066px" xml:space="preserve" transform="scale(1.0458 .95616)" y="86.002769" x="228.86125" font-family="Arial" line-height="125%" fill="#000000">00</text>
  <text id="text3376" font-size="15.066px" xml:space="preserve" transform="scale(1.0458 .95616)" y="115.64951" x="228.86125" font-family="Arial" line-height="125%" fill="#000000"><tspan id="tspan5996" font-size="15.066px" line-height="125%" y="115.64951" x="228.86125" font-family="Arial">01</tspan></text>
  <text id="text3378" font-size="15.066px" xml:space="preserve" transform="scale(1.0458 .95616)" y="145.29623" x="227.98367" font-family="Arial" line-height="125%" fill="#000000"><tspan id="tspan5998" font-size="15.066px" line-height="125%" y="145.29623" x="227.98367" font-family="Arial">10</tspan></text>
  <text id="text3380" font-size="15.066px" xml:space="preserve" transform="scale(1.0458 .95616)" y="174.94298" x="227.98367" font-family="Arial" line-height="125%" fill="#000000">11</text>
  <path id="path3382" fill-rule="evenodd" fill="#fff" d="m296.98 374.17 9.6763-17.695 9.6765 17.695z"/>
  <path id="path3384" stroke-linejoin="round" d="m296.98 370.14c-0.23043 0-0.43523-0.0886-0.56327-0.21207-0.10217-0.14133-0.12798-0.30036-0.0253-0.42403l9.678-13.358c0.10238-0.15901 0.33285-0.24737 0.58888-0.24737 0.23041 0 0.46084 0.0885 0.56326 0.24737l9.678 13.358c0.10259 0.12367 0.0765 0.2827-0.0253 0.42403-0.12802 0.12369-0.33283 0.21207-0.53766 0.21207zm19.357-0.88344-0.58886 0.63609-9.678-13.358h1.152l-9.678 13.358-0.56326-0.63609z" stroke="#000" stroke-width=".021270px"/>
  <path id="path3386" fill-rule="evenodd" fill="#fff" d="m301.67 352.66c0-2.4341 2.1758-4.4235 4.838-4.4235 2.6879 0 4.8381 1.9894 4.8381 4.4235s-2.1503 4.4235-4.8381 4.4235c-2.6624 0-4.838-1.9894-4.838-4.4235"/>
  <path id="path3388" stroke-linejoin="round" d="m301.06 352.74c-0.0253-0.0467-0.0253-0.0937 0-0.14047l0.10248-0.88937c0-0.0234 0-0.0702 0.0253-0.0937l0.28156-0.8426c0-0.0234 0.0253-0.0701 0.0253-0.0936l0.43518-0.74899c0.0253-0.0467 0.0514-0.0699 0.0764-0.11707l0.61438-0.65536 0.0766-0.0701 0.7168-0.53832c0.0253-0.0234 0.0767-0.0467 0.10237-0.0467l0.81913-0.42131c0.0252-0.0234 0.0766-0.0234 0.12803-0.0467l0.89596-0.25748c0.0515 0 0.0766-0.0234 0.12803-0.0234l0.97272-0.0937h0.12801l0.97273 0.0937c0.0515 0 0.0767 0.0234 0.12802 0.0234l0.89596 0.25748c0.0515 0.0234 0.0767 0.0234 0.12803 0.0467l0.81915 0.42131c0.0253 0 0.0766 0.0234 0.10206 0.0467l0.71681 0.53832 0.0766 0.0701 0.6144 0.65536c0.0253 0.0467 0.0514 0.0702 0.0767 0.11707l0.43518 0.74899c0 0.0234 0.0253 0.0703 0.0253 0.0936l0.28158 0.8426c0.0252 0.0234 0.0252 0.0703 0.0252 0.0937l0.10268 0.88937c0.0253 0.0467 0.0253 0.0936 0 0.14047l-0.10268 0.88939c0 0.0234 0 0.0701-0.0252 0.0936l-0.28158 0.84259c0 0.0234-0.0253 0.0701-0.0253 0.0936l-0.43518 0.74899c-0.0253 0.0467-0.0514 0.0704-0.0767 0.11707l-0.6144 0.65536-0.0766 0.0701-0.71681 0.53833c-0.0253 0.0234-0.0767 0.0467-0.10206 0.0702l-0.81915 0.3979c-0.0514 0.0234-0.0765 0.0234-0.12803 0.0467l-0.89596 0.25745c-0.0516 0-0.0767 0.0233-0.12802 0.0233l-0.97273 0.0936h-0.12801l-0.97272-0.0936c-0.0516 0-0.0767-0.0233-0.12803-0.0233l-0.89596-0.25745c-0.0514-0.0234-0.0767-0.0234-0.12803-0.0467l-0.81913-0.3979c-0.0253-0.0234-0.0767-0.0467-0.10237-0.0702l-0.7168-0.53833-0.0766-0.0701-0.61438-0.65536c-0.0254-0.0467-0.0516-0.0701-0.0764-0.11707l-0.43518-0.74899c0-0.0235-0.0253-0.0702-0.0253-0.0936l-0.28156-0.84259c-0.0253-0.0233-0.0253-0.07-0.0253-0.0936zm1.3568 0.74895-0.0253-0.0935 0.28158 0.8192-0.0252-0.0936 0.43518 0.749-0.0766-0.11707 0.58879 0.65537-0.0767-0.0701 0.71676 0.56174-0.10206-0.0701 0.81921 0.39789-0.12805-0.0467 0.92159 0.25747-0.128-0.0234 0.97273 0.0937h-0.12801l0.9728-0.0937-0.12802 0.0234 0.92157-0.25747-0.12802 0.0467 0.81918-0.39789-0.10228 0.0701 0.71676-0.56174-0.0766 0.0701 0.58876-0.65537-0.0764 0.11707 0.43515-0.749-0.0253 0.0936 0.28158-0.8192-0.0253 0.0935 0.10238-0.88942v0.14047l-0.10238-0.88938 0.0253 0.0935-0.28158-0.81917 0.0253 0.0937-0.43515-0.74899 0.0764 0.11706-0.58876-0.65533 0.0766 0.07-0.71676-0.5383 0.10228 0.0467-0.81918-0.3979 0.12802 0.0467-0.92157-0.25744 0.12802 0.0234-0.9728-0.0936h0.12801l-0.97273 0.0936 0.128-0.0234-0.92159 0.25744 0.12805-0.0467-0.81921 0.3979 0.10206-0.0467-0.71676 0.5383 0.0767-0.07-0.58879 0.65533 0.0766-0.11706-0.43518 0.74899 0.0252-0.0937-0.28158 0.81917 0.0253-0.0935-0.10248 0.88938v-0.14047z" stroke="#000" stroke-width=".024478px"/>
  <path id="path3390" stroke-linejoin="round" d="m307.69 387.02v-17.695h-1.2799v17.695z" stroke="#000" stroke-width=".024478px"/>
  <path id="path3392" stroke-linejoin="round" d="m279.17 386.15h28.615v1.1739h-28.615z" stroke="#000" stroke-width=".020865px"/>
  <path id="path3394" fill-rule="evenodd" fill="#d9d9d9" d="m437.8 342.35v34.336h24.328v-34.336h-24.328z"/>
  <path id="path3398" fill-rule="evenodd" fill="#d9d9d9" d="m459.99 342.35v34.336h33.868v-34.336h-33.868z"/>
  <path id="path3400" stroke-linejoin="round" d="m463.45 342.56c0-0.40792 0.31496-0.74787 0.74239-0.74787h29.762c0.40493 0 0.74241 0.33995 0.74241 0.74787v33.246c0 0.40791-0.33748 0.74783-0.74241 0.74783h-29.762c-0.42743 0-0.74239-0.33992-0.74239-0.74783zm1.4848 33.246-0.74234-0.74786h29.762l-0.76485 0.74786v-33.246l0.76485 0.74787h-29.762l0.74234-0.74787z" stroke="#000" stroke-width=".022579px"/>
  <path id="path3402" fill-rule="evenodd" fill="#d9d9d9" d="m413 342.35v34.336h24.15v-34.336h-24.15z"/>
  <path id="path3404" stroke-linejoin="round" d="m411.51 342.56c0-0.40785 0.46338-0.74773 1.0922-0.74773h24.594c0.59576 0 1.0922 0.33988 1.0922 0.74773v33.242c0 0.40787-0.4965 0.74773-1.0922 0.74773h-24.594c-0.62889 0-1.0922-0.33986-1.0922-0.74773zm2.1845 33.242-1.0923-0.74776h24.594l-1.1254 0.74776v-33.242l1.1254 0.74774h-24.594l1.0923-0.74774z" stroke="#000" stroke-width=".027387px"/>
  <text id="text3406" font-size="16.321px" xml:space="preserve" transform="scale(1.0458 .95616)" y="382.79926" x="447.86078" font-family="Arial" line-height="125%" fill="#000000">A0</text>
  <text id="text3408" font-size="17.577px" xml:space="preserve" transform="scale(1.0458 .95616)" y="383.00644" x="424.72852" font-family="Arial" line-height="125%" fill="#000000">B</text>
  <text id="text3410" font-size="17.577px" xml:space="preserve" transform="scale(1.0458 .95616)" y="383.51956" x="400.23007" font-family="Arial" line-height="125%" fill="#000000">C</text>
  <text id="text3412" font-size="16.253px" xml:space="preserve" transform="scale(1.0458 .95616)" y="221.36014" x="475.25824" font-family="Arial" fill="#000000">µAddress</text>
  <path id="path3414" stroke-linejoin="round" d="m427.02 376.32v102.29h-1.2363v-102.29z" stroke="#000" stroke-width=".039696px"/>
  <path id="path3416" stroke-linejoin="round" d="m597.27 221.16v60.452h-1.2646v-60.452z" stroke="#000" stroke-width=".039908px"/>
  <path id="path3418" stroke-linejoin="round" d="m536.24 335.78 0.04-2.7156 0.11994-2.5751 0.0803-1.2172 0.11994-1.1238 0.11996-1.0768 0.11998-0.93639 0.11997-0.93642 0.1599-0.79595 0.15997-0.70231 0.19991-0.60865 0.15995-0.46824c0.0402-0.0467 0.0402-0.0936 0.0402-0.0936l0.19995-0.32775c0.0401-0.0467 0.0401-0.0937 0.08-0.0937l0.19991-0.23411c0.0402-0.0467 0.11997-0.0937 0.19994-0.14048l0.19994-0.0467c0.04-0.0467 0.0801-0.0467 0.11995-0.0467h58.058l-0.1599 0.0467 0.19989-0.0936-0.19989 0.14043 0.19989-0.18726-0.0799 0.0936 0.19989-0.32772-0.0402 0.0937 0.15995-0.46823 0.15993-0.51504 0.15994-0.65549 0.11996-0.74912 0.15994-0.84278 0.11996-0.93642 0.0802-1.03 0.11998-1.1238 0.0802-1.1704 0.08-2.5283 0.0403-2.7155c0.04-0.32774 0.23989-0.56185 0.5198-0.56185 0.27992 0 0.47981 0.23411 0.47981 0.56185l0.04 2.7623 0.11999 2.4816 0.0801 1.1704 0.11996 1.1238 0.0802 1.03 0.11994 0.93643 0.15996 0.84277 0.11993 0.74913 0.15995 0.65548 0.15997 0.56186 0.15992 0.4214-0.0401-0.0937 0.19995 0.32772-0.0801-0.0936 0.19994 0.18726-0.19994-0.14042 0.19994 0.0937-0.15993-0.0467h58.058c0.0399 0 0.0797 0 0.11989 0.0467l0.20004 0.0467c0.0798 0.0467 0.15995 0.0936 0.1998 0.14049l0.20004 0.2341c0.0399 0 0.0399 0.0467 0.0797 0.0937l0.19981 0.32775s0 0.0467 0.0399 0.0937l0.15995 0.4214 0.20003 0.65549 0.15986 0.70232 0.15995 0.79592 0.12 0.8896 0.11999 0.98323 0.1199 1.0769 0.11998 1.1238 0.0797 1.1704 0.0798 2.5751 0.0398 2.7624h-0.9997l-0.0399-2.7156-0.0797-2.5283-0.0797-1.1237-0.12-1.1237-0.0797-1.03-0.12-0.93642-0.15984-0.88958-0.12-0.70232-0.15996-0.65548-0.15996-0.56184-0.15996-0.42137 0.0399 0.0936-0.19993-0.32775 0.0797 0.0936-0.19993-0.23408 0.19993 0.14044-0.19993-0.0467h0.15996-58.058-0.11996l-0.19994-0.0936c-0.08 0-0.15993-0.0467-0.19991-0.14049l-0.19992-0.1873c-0.0401-0.0467-0.0401-0.0937-0.0802-0.0937l-0.19992-0.32777c0-0.0467 0-0.0937-0.04-0.0937l-0.15997-0.51502-0.19991-0.60869-0.15995-0.70228-0.15994-0.79596-0.11996-0.8896-0.11997-0.98326-0.11993-1.03-0.11998-1.1704-0.0801-1.1704-0.11999-2.5752-0.0402-2.7155h0.99959l-0.0402 2.7155-0.08 2.5752-0.0801 1.2172-0.11997 1.1238-0.11994 1.03-0.11995 0.98327-0.11998 0.8896-0.15991 0.84277-0.15998 0.70231-0.19995 0.60868-0.15994 0.4682c-0.0402 0-0.0402 0.0467-0.0402 0.0937l-0.19993 0.32778c-0.0402 0-0.0402 0.0467-0.0799 0.0935l-0.19994 0.18732c-0.04 0.0936-0.11995 0.14046-0.1999 0.14046l-0.19996 0.0936h-0.11995-58.058 0.15993l-0.19993 0.0467 0.19993-0.14044-0.19993 0.23409 0.0799-0.0937-0.19992 0.32775 0.0401-0.0935-0.15998 0.42136-0.15993 0.51503-0.15993 0.6555-0.11997 0.7491-0.15994 0.8428-0.11993 0.9364-0.08 1.0768-0.11997 1.0769-0.0801 1.1704-0.11993 2.5283-0.04 2.7156z" stroke="#000" stroke-width=".043269px"/>
  <path id="path3422" stroke-linejoin="round" d="m105.36 579.83c0-0.38445 0.30255-0.66774 0.66561-0.66774h21.945c0.38321 0 0.68578 0.28329 0.68578 0.66774v28.064c0 0.3642-0.30257 0.66771-0.68578 0.66771h-21.945c-0.36306 0-0.66561-0.30351-0.66561-0.66771zm1.3514 28.064-0.68579-0.66773h21.945l-0.6656 0.66773v-28.064l0.6656 0.66776h-21.945l0.68579-0.66776z" stroke="#000" stroke-width=".020201px"/>
  <text id="text3424" font-size="29.618px" xml:space="preserve" transform="scale(1.0546 .94825)" y="637.28949" x="104.42516" font-family="Arial" fill="#ffffff">º</text>
  <path id="path3426" stroke-linejoin="round" d="m127.7 579.83c0-0.38444 0.29745-0.66773 0.6544-0.66773h21.575c0.35692 0 0.65437 0.28329 0.65437 0.66773v28.065c0 0.36422-0.29745 0.66771-0.65437 0.66771h-21.575c-0.35695 0-0.6544-0.30349-0.6544-0.66771zm1.3286 28.065-0.67418-0.66774h21.575l-0.65439 0.66774v-28.065l0.65439 0.66777h-21.575l0.67418-0.66777z" stroke="#000" stroke-width=".020030px"/>
  <path id="path3428" stroke-linejoin="round" d="m149.27 579.83c0-0.38446 0.29517-0.66772 0.6494-0.66772h21.41c0.35422 0 0.64942 0.28326 0.64942 0.66772v28.065c0 0.3642-0.2952 0.66769-0.64942 0.66769h-21.41c-0.35423 0-0.6494-0.30349-0.6494-0.66769zm1.2987 28.065-0.64939-0.66774h21.41l-0.64938 0.66774v-28.065l0.64938 0.66777h-21.41l0.64939-0.66777z" stroke="#000" stroke-width=".019954px"/>
  <path id="path3430" stroke-linejoin="round" d="m216.5 579.83c0-0.38445 0.30146-0.66774 0.66323-0.66774h21.867c0.36176 0 0.66319 0.28329 0.66319 0.66774v28.065c0 0.36424-0.30143 0.66772-0.66319 0.66772h-21.867c-0.36177 0-0.66323-0.30348-0.66323-0.66772zm1.3465 28.065-0.68335-0.66773h21.866l-0.66322 0.66773v-28.065l0.66322 0.66776h-21.866l0.68335-0.66776z" stroke="#000" stroke-width=".020166px"/>
  <path id="path3432" stroke-linejoin="round" d="m238.42 579.83c0-0.38443 0.30524-0.66771 0.67156-0.66771h22.141c0.36628 0 0.67154 0.28328 0.67154 0.66771v28.064c0 0.36419-0.30526 0.66769-0.67154 0.66769h-22.141c-0.36632 0-0.67156-0.3035-0.67156-0.66769zm1.343 28.064-0.67155-0.66773h22.141l-0.69189 0.66773v-28.064l0.69189 0.66776h-22.141l0.67155-0.66776z" stroke="#000" stroke-width=".020291px"/>
  <text id="text3434" font-size="16.457px" xml:space="preserve" transform="scale(1.0546 .94825)" y="632.05524" x="104.90571" font-family="Arial" line-height="125%" fill="#000000"><tspan id="tspan3657" font-size="16.457px" line-height="125%" y="632.05524" x="104.90571" font-family="Arial">C</tspan></text>
  <text id="text3436" font-size="16.457px" xml:space="preserve" transform="scale(1.0546 .94825)" y="632.05524" x="126.41723" font-family="Arial" line-height="125%" fill="#000000"><tspan id="tspan3655" font-size="16.457px" line-height="125%" y="632.05524" x="126.41723" font-family="Arial">V</tspan></text>
  <text id="text3438" font-size="16.457px" xml:space="preserve" transform="scale(1.0546 .94825)" y="632.05524" x="146.5296" font-family="Arial" line-height="125%" fill="#000000"><tspan id="tspan3653" font-size="16.457px" line-height="125%" y="632.05524" x="146.5296" font-family="Arial">N</tspan></text>
  <text id="text3440" font-size="16.457px" line-height="125%" transform="scale(1.0546 .94825)" y="632.05524" x="214.34311" font-family="Arial" xml:space="preserve" fill="#000000">I</text>
  <text id="text3442" font-size="16.457px" line-height="125%" transform="scale(1.0546 .94825)" y="632.44641" x="231.60469" font-family="Arial" xml:space="preserve" fill="#000000">U</text>
  <path id="path3444" stroke-linejoin="round" d="m193.45 579.83c0-0.38452 0.13914-0.66785 0.32799-0.66785h23.258c0.18883 0 0.33795 0.28333 0.33795 0.66785v28.07c0 0.36428-0.14912 0.66783-0.33795 0.66783h-23.258c-0.18885 0-0.32799-0.30355-0.32799-0.66783zm0.65597 28.07-0.328-0.66787h23.258l-0.328 0.66787v-28.07l0.328 0.66791h-23.258l0.328-0.66791z" stroke="#000" stroke-width=".014182px"/>
  <text id="text3446" font-size="13.458px" xml:space="preserve" transform="scale(1.0458 .95616)" y="650.48743" x="105.14247" font-family="Arial" line-height="125%" fill="#000000">31</text>
  <text id="text3448" font-size="13.458px" xml:space="preserve" transform="scale(1.0458 .95616)" y="650.48743" x="124.62059" font-family="Arial" line-height="125%" fill="#000000">30</text>
  <text id="text3450" font-size="13.458px" xml:space="preserve" transform="scale(1.0458 .95616)" y="650.48743" x="146.00754" font-family="Arial" line-height="125%" fill="#000000">29</text>
  <text id="text3452" font-size="13.458px" xml:space="preserve" transform="scale(1.0458 .95616)" y="648.78369" x="217.10698" font-family="Arial" line-height="125%" fill="#000000">1</text>
  <text id="text3454" font-size="15.066px" xml:space="preserve" transform="scale(1.0458 .95616)" y="566.38177" x="252.86897" font-family="Arial" line-height="125%" fill="#000000"><tspan id="tspan14887" font-size="15.066px" line-height="125%" y="566.38177" x="252.86897" font-family="Arial">MRdy</tspan></text>
  <text id="text3456" font-size="15.066px" xml:space="preserve" transform="scale(1.0458 .95616)" y="593.30878" x="281.33853" font-family="Arial" line-height="125%" fill="#000000"><tspan id="tspan14885" font-size="15.066px" line-height="125%" y="593.30878" x="281.33853" font-family="Arial">IORdy</tspan></text>
  <text id="text3458" font-size="15.066px" xml:space="preserve" transform="scale(1.0458 .95616)" y="566.95197" x="315.40594" font-family="Arial" line-height="125%" fill="#000000"><tspan id="tspan14889" font-size="15.066px" line-height="125%" y="566.95197" x="315.40594" font-family="Arial">INT</tspan></text>
  <text id="text3460" font-size="13.81px" xml:space="preserve" transform="scale(1.0458 .95616)" y="517.19989" x="150.69127" font-family="Arial" line-height="125%" fill="#000000">7</text>
  <text id="text3462" font-size="13.81px" xml:space="preserve" transform="scale(1.0458 .95616)" y="517.19983" x="170.72563" font-family="Arial" line-height="125%" fill="#000000">6</text>
  <text id="text3464" font-size="13.81px" xml:space="preserve" transform="scale(1.0458 .95616)" y="517.45923" x="215.14569" font-family="Arial" line-height="125%" fill="#000000">5</text>
  <text id="text3466" font-size="13.81px" xml:space="preserve" transform="scale(1.0458 .95616)" y="517.19983" x="236.16496" font-family="Arial" line-height="125%" fill="#000000">4</text>
  <text id="text3468" font-size="13.81px" xml:space="preserve" transform="scale(1.0458 .95616)" y="517.19989" x="269.7095" font-family="Arial" line-height="125%" fill="#000000">3</text>
  <text id="text3470" font-size="13.81px" xml:space="preserve" transform="scale(1.0458 .95616)" y="517.19989" x="298.11301" font-family="Arial" line-height="125%" fill="#000000">2</text>
  <text id="text3472" font-size="13.81px" xml:space="preserve" transform="scale(1.0458 .95616)" y="517.19989" x="322.71497" font-family="Arial" line-height="125%" fill="#000000">1</text>
  <text id="text3474" font-size="13.81px" xml:space="preserve" transform="scale(1.0458 .95616)" y="517.19989" x="347.54779" font-family="Arial" line-height="125%" fill="#000000">0</text>
  <text id="text3476" font-size="13.81px" xml:space="preserve" transform="scale(1.0458 .95616)" y="517.19989" x="129.65526" font-family="Arial" line-height="125%" fill="#000000">8</text>
  <path id="path3480" stroke-linejoin="round" d="m229.97 579.39v-72.207h-1.6894v72.207h1.6894zm4.2751-70.765-5.1198-8.601-5.1198 8.601h10.239z" stroke="#000" stroke-width=".023462px"/>
  <path id="path3482" stroke-linejoin="round" d="m251.82 579.39v-72.207h-1.7151v72.207h1.7151zm4.2496-70.765-5.1198-8.601-5.1197 8.601h10.24z" stroke="#000" stroke-width=".023462px"/>
  <path id="path3484" stroke-linejoin="round" d="m140.45 579.67v-72.179h-1.7151v72.179h1.7151zm4.2496-70.761-5.1197-8.6005-5.1198 8.6005h10.24z" stroke="#000" stroke-width=".023462px"/>
  <path id="path3486" stroke-linejoin="round" d="m162.15 579.67v-72.179h-1.7151v72.179h1.7151zm4.2496-70.761-5.1198-8.6005-5.1198 8.6005h10.24z" stroke="#000" stroke-width=".023462px"/>
  <path id="path3488" stroke-linejoin="round" d="m183.54 579.76v-72.207h-1.6894v72.207h1.6894zm4.2751-70.765-5.1197-8.601-5.1198 8.601h10.239z" stroke="#000" stroke-width=".023462px"/>
  <path id="path3490" stroke-linejoin="round" d="m654.25 511.37v30.584h-1.6895v-30.584h1.6895zm4.3005 29.115-5.1199 8.8902-5.1198-8.8902h10.24z" stroke="#000" stroke-width=".047705px"/>
  <path id="path3492" stroke-linejoin="round" d="m562.53 514.44v29.913h-1.7151v-29.913h1.7151zm4.2493 28.48-5.1197 8.696-5.1198-8.696h10.239z" stroke="#000" stroke-width=".023591px"/>
  <path id="path3494" stroke-linejoin="round" d="m467.53 514.61v30.44h-1.7151v-30.44h1.7151zm4.2751 28.981-5.1198 8.8483-5.1198-8.8483h10.24z" stroke="#000" stroke-width=".023797px"/>
  <path id="path3500" stroke-linejoin="round" d="m148.28 221.17h448.9v1.4193h-448.9z" stroke="#000" stroke-width=".024719px"/>
  <path id="path3502" stroke-linejoin="round" d="m865.63 605.33-0.11481-95.866 1.2846-0.0347 0.11483 95.865z" stroke="#000" stroke-width=".067039px"/>
  <path id="path3504" stroke-linejoin="round" d="m116.88 105.1h107.42v1.5569h-107.42v-1.5569zm106.36-3.8981 6.3032 4.6824-6.3032 4.6824v-9.3648z" stroke="#000" stroke-width=".0096039px"/>
  <path id="path3118-3" stroke-linejoin="round" d="m419.07 176.54v-16.313h-1.7151v16.313h1.7151zm4.2494-14.744-5.1198-9.3622-5.1198 9.3622h10.24z" stroke="#000" stroke-width=".024478px"/>
  <g id="g4875" stroke-linejoin="round" transform="matrix(.79747 0 0 1.1415 106.95 -5.3125)" stroke="#000" stroke-width=".043902px">
   <path id="path3042-5" d="m358.27 176.57h12.482v1.0923h-12.482z"/>
   <path id="path3044-3" d="m384.56 176.57h12.483v1.0923h-12.483z"/>
   <path id="path3046-8" d="m409.52 176.57h12.483v1.0923h-12.483z"/>
   <path id="path3048-7" d="m371.07 163.72h13.454v1.0923h-13.454z"/>
   <path id="path3050-6" d="m371.62 177.48v-13.588h-1.1028v13.588z"/>
   <path id="path3052-7" d="m384.73 177.48v-13.938h-1.1028v13.938z"/>
   <path id="path3054-4" d="m397.2 177.48v-13.938h-1.1028v13.938z"/>
   <path id="path3056-8" d="m410.66 177.14v-13.588h-1.1027v13.588z"/>
   <path id="path3058-1" d="m396.38 163.72h13.763v1.0923h-13.763z"/>
  </g>
  <path id="path3100-8" stroke-linejoin="round" d="m116.3 105.24-0.15988 146.8h1.3366l0.15988-146.8z" stroke="#000" stroke-width=".016116px"/>
  <path id="path3100-9" stroke-linejoin="round" d="m464.62 29.139-0.15363 72.831h1.28l0.15361-72.831z" stroke="#000" stroke-width=".011110px"/>
  <text id="text3172-1" font-size="17.907px" xml:space="preserve" transform="scale(1.0458 .95616)" y="383.00644" x="478.56024" font-family="Arial" line-height="125%" fill="#000000"><tspan id="tspan4412" y="383.00644" x="478.56024">MR</tspan></text>
  <path id="path3180-5" stroke-linejoin="round" d="m494.26 342.86c0-0.42143 0.21376-0.79603 0.51908-0.79603h41.586c0.27479 0 0.48852 0.3746 0.48852 0.79603v32.637c0 0.42141-0.21373 0.79602-0.48852 0.79602h-41.586c-0.30532 0-0.51908-0.37461-0.51908-0.79602zm1.0076 32.637-0.48853-0.79608h41.586l-0.51905 0.79608v-32.637l0.51905 0.79603h-41.586l0.48853-0.79603z" stroke="#000" stroke-width=".037811px"/>
  <text id="text3172-1-5" font-size="17.907px" xml:space="preserve" transform="scale(1.0458 .95616)" y="383.00644" x="705.60797" font-family="Arial" line-height="125%" fill="#000000"><tspan id="tspan4435" y="383.00644" x="705.60797">MC</tspan></text>
  <path id="path3180-5-7" stroke-linejoin="round" d="m731.72 342.78c0-0.42145 0.20653-0.79605 0.50153-0.79605h40.18c0.26555 0 0.47201 0.3746 0.47201 0.79605v32.638c0 0.42146-0.20646 0.79604-0.47201 0.79604h-40.18c-0.295 0-0.50153-0.37458-0.50153-0.79604zm0.9735 32.638-0.47197-0.79606h40.18l-0.50148 0.79606v-32.638l0.50148 0.79604h-40.18l0.47197-0.79604z" stroke="#000" stroke-width=".037167px"/>
  <text id="text4138" font-size="15.799px" xml:space="preserve" transform="scale(1.1127 .89867)" y="193.66016" x="384.85739" font-family="Arial" line-height="125%" fill="#000000"><tspan id="tspan4140" y="193.66016" x="384.85739">CLK</tspan></text>
  <path id="path3310-3" stroke-linejoin="round" d="m834.16 342.72c0-0.42122 0.49779-0.7956 1.1379-0.7956h67.202c0.64006 0 1.209 0.37438 1.209 0.7956v32.62c0 0.42118-0.56888 0.79557-1.209 0.79557h-67.202c-0.64005 0-1.1379-0.37439-1.1379-0.79557zm1.7243 32.674-0.58648-0.85086h67.202l0.0362 0.52291-0.26091-32.074 0.22467 0.5229h-67.202l0.64306-0.68498z" stroke="#000" stroke-width=".057692px"/>
  <text id="text3312-6" font-size="15.999px" xml:space="preserve" transform="scale(1.0458 .95616)" y="381.55325" x="802.79346" font-family="Arial" line-height="125%" fill="#000000"><tspan id="tspan3945" font-size="15.999px" line-height="125%" y="381.55325" x="802.79346" font-family="Arial">ExCode</tspan></text>
  <path id="path3324-5" stroke-linejoin="round" d="m871.58 446.06-13.774 9.3155 0.76807 0.93624 13.774-9.2686z" stroke="#000" stroke-width=".048956px"/>
  <text id="text3330-3" font-size="13.122px" xml:space="preserve" transform="scale(1.0458 .95616)" y="469.62842" x="816.91199" font-family="Arial" fill="#000000">4</text>
  <path id="path3131-3" stroke-linejoin="round" d="m875.74 497.05c0.28807 0 0.53181 0.14752 0.66476 0.37938 0.11086 0.23181 0.0886 0.50576-0.0664 0.71652l-9.7934 13.003c-0.13296 0.18967-0.37667 0.29502-0.59824 0.29502-0.24369 0-0.46531-0.10547-0.59825-0.29502l-9.8155-13.003c-0.15511-0.21076-0.17728-0.48471-0.0445-0.71652 0.11087-0.23186 0.37668-0.37938 0.64257-0.37938zm-19.609 1.3909 0.59823-1.1169 9.8156 13.003h-1.1966l9.7934-13.003 0.59821 1.1169z" stroke="#000" stroke-width=".021610px"/>
  <path id="path3133-6" stroke-linejoin="round" d="m884.96 504.77h-14.201v-1.0538h14.201z" stroke="#000" stroke-width="1.1713px"/>
  <path id="path3139-7" stroke-linejoin="round" d="m864.81 475.41v16.171h1.4848v-16.171h-1.4848zm-3.679 14.978 4.4323 7.1156 4.4324-7.1156h-8.8646z" stroke="#000" stroke-width=".019856px"/>
  <text id="text3147-5" font-size="16.321px" xml:space="preserve" transform="scale(1.0253 .97529)" line-height="125%" y="506.77423" x="853.51642" font-family="Arial" fill="#000000"><tspan id="tspan4426" font-size="16.321px" line-height="125%" y="506.77423" x="853.51642" font-family="Arial">T11</tspan></text>
  <path id="path3081-3" stroke-linejoin="round" d="m866.27 492.22v-116.15h-1.3298v116.15z" stroke="#000" stroke-width=".035095px"/>
  <path id="path3428-3" stroke-linejoin="round" d="m171.1 579.91c0-0.38447 0.29287-0.66775 0.6443-0.66775h21.243c0.35146 0 0.6443 0.28328 0.6443 0.66775v28.065c0 0.36422-0.29284 0.66773-0.6443 0.66773h-21.243c-0.35143 0-0.6443-0.30351-0.6443-0.66773zm1.2886 28.065-0.64431-0.66773h21.243l-0.6443 0.66773v-28.065l0.6443 0.66771h-21.243l0.64431-0.66771z" stroke="#000" stroke-width=".019876px"/>
  <text id="text3438-6" font-size="16.457px" line-height="125%" transform="scale(1.0546 .94825)" y="632.16467" x="168.37051" font-family="Arial" xml:space="preserve" fill="#000000">Z</text>
  <text id="text3450-7" font-size="13.458px" xml:space="preserve" transform="scale(1.0458 .95616)" y="650.59595" x="166.27844" font-family="Arial" line-height="125%" fill="#000000"><tspan id="tspan3651" font-size="13.458px" line-height="125%" y="650.59595" x="166.27844" font-family="Arial">28</tspan></text>
  <text id="text3476-8" font-size="13.81px" xml:space="preserve" transform="scale(1.0458 .95616)" y="516.89545" x="109.1368" font-family="Arial" line-height="125%" fill="#000000"><tspan id="tspan3677" font-size="13.81px" line-height="125%" y="516.89545" x="109.1368" font-family="Arial">9</tspan></text>
  <path id="path3484-9" stroke-linejoin="round" d="m118.73 579.63v-72.179h-1.7151v72.179h1.7151zm4.2496-70.761-5.1197-8.6005-5.1198 8.6005h10.24z" stroke="#000" stroke-width=".023462px"/>
  <text id="text3476-8-6" font-size="13.81px" xml:space="preserve" transform="scale(1.0458 .95616)" y="517.15485" x="84.755409" font-family="Arial" line-height="125%" fill="#000000"><tspan id="tspan3700" font-size="13.81px" line-height="125%" y="517.15485" x="84.755409" font-family="Arial">10</tspan></text>
  <path id="path3108-3" stroke-linejoin="round" d="m97.618 526.12v-19.076h-1.7152v19.076h1.7152zm4.2751-17.746-5.1198-7.9401-5.1198 7.9401h10.24z" stroke="#000" stroke-width=".022540px"/>
  <path id="path3260-3" stroke-linejoin="round" d="m55.305 526.92 0.77222-247.96-0.94164-0.0423-0.77216 248.04z" stroke="#000" stroke-width=".28259px"/>
  <path id="path3020" stroke-linejoin="round" d="m78.018 354.83c0-0.34251 0.36896-0.62793 0.81172-0.62793h142.27c0.46741 0 0.83634 0.28542 0.83634 0.62793v26.395c0 0.36156-0.36893 0.62796-0.83634 0.62796h-142.27c-0.44277 0-0.81172-0.2664-0.81172-0.62796zm1.6481 26.395-0.83632-0.62797h142.27l-0.81169 0.62797v-26.395l0.81169 0.62796h-142.27l0.83632-0.62796z" stroke="#000" stroke-width=".021635px"/>
  <text id="text3030" font-size="22.457px" xml:space="preserve" transform="scale(1.0251 .97548)" y="297.47336" x="99.016716" font-family="Arial" line-height="125%" fill="#000000"><tspan id="tspan4390" y="297.47336" x="99.016716">co2µaddr</tspan></text>
  <path id="path3032" opacity=".325" stroke-linejoin="round" d="m78.102 354.83c0-0.34255 0.28726-0.62799 0.65113-0.62799h43.358c0.36389 0 0.63196 0.28544 0.63196 0.62799v26.397c0 0.3616-0.26807 0.62802-0.63196 0.62802h-43.358c-0.36386 0-0.65113-0.26642-0.65113-0.62802zm1.2831 26.397-0.63198-0.62802h43.358l-0.63196 0.62802v-26.397l0.63196 0.62801h-43.358l0.63198-0.62801z" stroke="#000" stroke-dasharray="0.01949812, 0.03899625" stroke-width=".019498"/>
  <text id="text3034" font-size="12.555px" xml:space="preserve" transform="scale(1.0251 .97548)" y="339.39883" x="108.57932" font-family="Arial" line-height="125%" fill="#000000">CO</text>
  <text id="text3036" font-size="19.196px" xml:space="preserve" transform="scale(1.0251 .97548)" y="433.36731" x="108.88561" font-family="Arial" fill="#000000">IR</text>
  <path id="path3478" stroke-linejoin="round" d="m80.322 383.94 0.04733 2.439 0.14211 2.2692 0.09477 1.0604 0.09478 0.99675 0.14211 0.95439 0.14212 0.86951 0.16591 0.78467 0.16591 0.72107 0.18969 0.61501 0.21326 0.55141 0.23699 0.44536c0 0.0213 0.02354 0.0426 0.02354 0.0636l0.21328 0.29688c0.04733 0.0425 0.07124 0.0849 0.11857 0.10617l0.21331 0.19085c0.07123 0.0426 0.14211 0.0849 0.21328 0.10617l0.23698 0.0636c0.04733 0.0213 0.11856 0.0213 0.16591 0.0213h64.506l-0.18947-0.0213 0.23698 0.0636-0.21333-0.10605 0.21333 0.16966-0.0945-0.10605 0.21327 0.29687 0.16591 0.33934 0.16591 0.44535 0.18951 0.59382 0.16585 0.65746 0.14214 0.76348 0.14215 0.82709 0.14209 0.91195 0.0945 0.97555 0.0944 1.0392 0.14212 2.248 0.0235 2.3964c0.0233 0.29688 0.28438 0.53017 0.59244 0.53017 0.33177 0 0.59246-0.23329 0.59246-0.53017l0.0476-2.4175 0.14212-2.2269 0.0945-1.0392 0.0945-0.99678 0.14212-0.89073 0.14212-0.84829 0.16588-0.76346 0.14214-0.67867 0.18969-0.57261 0.18949-0.46658 0.18949-0.36053-0.0476 0.0636 0.21324-0.2969-0.0944 0.10604 0.21326-0.16968-0.21326 0.10606 0.21326-0.0636-0.16592 0.0211h64.506c0.0711 0 0.11849 0 0.16591-0.0211l0.23698-0.0636c0.0711-0.0212 0.14209-0.0636 0.21326-0.10606l0.23701-0.19082c0.0237-0.0213 0.071-0.0636 0.0945-0.10605l0.21329-0.29689c0.0233-0.0213 0.0233-0.0426 0.0476-0.0636l0.18966-0.40295 0.23698-0.5514 0.1895-0.63621 0.16594-0.72105 0.16588-0.80592 0.16591-0.8483 0.11853-0.95436 0.11851-0.99677 0.0945-1.0604 0.11851-2.2693 0.0476-2.4601h-1.185l-0.0476 2.3965-0.11852 2.248-0.0944 1.0392-0.0945 0.9755-0.14208 0.91198-0.14212 0.84833-0.14213 0.7423-0.16591 0.6786-0.1895 0.55141-0.1659 0.46655-0.21329 0.40297 0.0476-0.0636-0.21328 0.2969 0.0945-0.10594-0.21329 0.16967 0.21329-0.10617-0.23701 0.0636 0.1895-0.0213h-64.506c-0.071 0-0.1185 0-0.18947 0.0213l-0.21326 0.0636c-0.0712 0.0213-0.16595 0.0636-0.21335 0.10605l-0.23697 0.19085c-0.0234 0.0213-0.0711 0.0636-0.0944 0.10617l-0.21328 0.29693c-0.0234 0.0213-0.0234 0.0426-0.0476 0.0636l-0.2133 0.44539-0.21329 0.55139-0.18947 0.63623-0.18948 0.69986-0.14211 0.7847-0.16592 0.8695-0.11852 0.95436-0.1185 0.9968-0.0945 1.0604-0.14212 2.2904-0.0476 2.4176h1.185l-0.0476-2.439-0.11853-2.2904-0.0945-1.0392-0.11851-1.018-0.11849-0.93316-0.14214-0.89071-0.18971-0.78467-0.16591-0.72107-0.18948-0.61503-0.21327-0.57263-0.26073-0.46655-0.21325-0.29691c-0.0233-0.0426-0.071-0.0849-0.0944-0.10617l-0.23698-0.19085c-0.0713-0.0426-0.14209-0.0848-0.21328-0.10606l-0.23701-0.0636c-0.0475-0.0212-0.0945-0.0212-0.16592-0.0212h-64.506l0.1895 0.0212-0.23699-0.0636 0.23699 0.10616-0.23699-0.16968 0.09478 0.10606-0.21326-0.29692 0.04733 0.0636-0.1659-0.36052-0.18951-0.46659-0.1897-0.57258-0.16591-0.67868-0.14212-0.76345-0.16591-0.8271-0.11856-0.91199-0.11857-0.99672-0.09477-1.018-0.11857-2.248-0.04733-2.4176z" stroke="#000" stroke-width=".022419px"/>
  <path id="path3022-6" stroke-linejoin="round" d="m83.102 310.24c0 0.19528 0.50654 0.35362 1.1314 0.35362h134.11c0.62476 0 1.1314-0.15834 1.1314-0.35362v-57.906c0-0.1953-0.50649-0.35369-1.1314-0.35369h-134.11c-0.62474 0-1.1314 0.15839-1.1314 0.35369zm2.2625-57.906-1.1314 0.35369h134.11l-1.1313-0.35369v57.906l1.1313-0.3537h-134.11l1.1314 0.3537z" stroke="#000" stroke-width=".0094410px"/>
  <path id="path3110-0" stroke-linejoin="round" d="m112.14 336.78-15.988 11.746 0.76494 0.93886 15.961-11.751z" stroke="#000" stroke-width=".023994px"/>
  <text id="text3112-0" font-size="12.862px" xml:space="preserve" transform="scale(1.0251 .97548)" line-height="125%" y="351.24677" x="90.614342" font-family="Arial" fill="#000000"><tspan id="tspan6982">6</tspan></text>
  <path id="path3124-2" stroke-linejoin="round" d="m200.5 355.31v-35.423h1.593v35.423h-1.593zm-3.9589-33.617 4.7555-10.862 4.7555 10.862h-9.5109z" stroke="#000" stroke-width=".012704px"/>
  <path id="path3124-2-4" stroke-linejoin="round" d="m103.48 355.31v-35.423h1.593v35.423h-1.593zm-3.9588-33.617 4.7555-10.862 4.7555 10.862h-9.5109z" stroke="#000" stroke-width=".012704px"/>
  <text id="text3112-0-4" font-size="12.862px" xml:space="preserve" transform="scale(1.0251 .97548)" y="351.18716" x="185.61659" font-family="Arial" fill="#000000">4</text>
  <path id="path3110-0-7" stroke-linejoin="round" d="m209.1 337.64-16.432 11.127 0.7278 0.9673 16.406-11.133z" stroke="#000" stroke-width=".023994px"/>
  <path id="path3260-3-8" stroke-linejoin="round" d="m55.157 278.93 29.209-0.19209-0.0085-1.4278-29.216 0.19255z" stroke="#000" stroke-width=".011943px"/>
  <path id="path3260-3-8-6" stroke-linejoin="round" d="m54.212 527.22 43.387-0.19185-0.01285-1.4261-43.398 0.19226z" stroke="#000" stroke-width=".014548px"/>
  <text id="text3038-0" font-size="18.886px" xml:space="preserve" transform="scale(1.042 .95973)" y="567.78937" x="53.242382" font-family="Arial" line-height="125%" fill="#000000"><tspan id="tspan3777" y="567.78937" x="53.242382">InEx</tspan></text>
  <path id="path3232-6" stroke-linejoin="round" d="m806.25 420.41v-44.535h-1.2854v44.535z" stroke="#000" stroke-width=".043627px"/>
  <path id="path3100-8-7" stroke-linejoin="round" d="m278.28 392.86-0.1605 60.063h1.3423l0.16047-60.063z" stroke="#000" stroke-width=".010331px"/>
  <path id="path3108-1" stroke-linejoin="round" d="m279.7 393.04-0.28815-56.08-1.4248-0.71167v56.793zm3.549-55.821-4.3928-11.07-4.1046 10.892z" stroke="#000" stroke-width=".036351px"/>
  <path id="path3198-7" fill-rule="evenodd" d="m276.27 388.67c0-1.4987 1.1006-2.703 2.4315-2.703 1.3566 0 2.4315 1.2043 2.4315 2.703 0 1.4718-1.075 2.6762-2.4315 2.6762-1.331 0-2.4315-1.2043-2.4315-2.6762"/>
  <path id="path3200-1" stroke-linejoin="round" d="m274.59 386.7v-0.34786l0.0516-0.53527c0.0253-0.10709 0.0253-0.21411 0.0765-0.34791l0.12803-0.4817c0.0253-0.10709 0.0766-0.18736 0.10248-0.2944l0.23035-0.45497c0.0517-0.10709 0.10248-0.21408 0.17912-0.32115l0.30717-0.4014 0.20475-0.21412 0.35832-0.32115c0.10269-0.0802 0.20478-0.16056 0.30718-0.24084l0.4095-0.24084c0.0765-0.0534 0.17917-0.0804 0.28154-0.13388l0.46072-0.16058c0.12796-0.0267 0.25591-0.0534 0.35832-0.08l0.48632-0.0534h0.35831l0.48632 0.0534c0.12796 0.0266 0.25594 0.0534 0.38394 0.08l0.46067 0.16058c0.10248 0.0534 0.17917 0.0802 0.28156 0.13388l0.40952 0.24084c0.10248 0.0801 0.20476 0.16057 0.30713 0.24084l0.35834 0.32115c0.0766 0.0805 0.128 0.13387 0.20476 0.21412l0.30714 0.4014c0.0514 0.10709 0.12799 0.21414 0.17919 0.32115l0.23032 0.45497c0.0253 0.10709 0.0764 0.18734 0.10247 0.2944l0.12797 0.4817c0.0516 0.13386 0.0516 0.24086 0.0767 0.34791l0.0516 0.53527v0.34786l-0.0516 0.56201c-0.0253 0.10709-0.0253 0.21409-0.0767 0.32115l-0.12797 0.50848c-0.0253 0.10709-0.0767 0.18736-0.10247 0.29439l-0.23032 0.45495c-0.0514 0.10709-0.12798 0.21405-0.17919 0.32112l-0.30714 0.40145c-0.0764 0.0802-0.12799 0.13382-0.20476 0.2141l-0.35834 0.32113c-0.10228 0.0802-0.20474 0.16059-0.30713 0.24086l-0.40952 0.24085c-0.10259 0.0534-0.17918 0.0804-0.28156 0.13385l-0.46067 0.1606c-0.128 0.0267-0.25599 0.0534-0.38394 0.0802l-0.48632 0.0534h-0.35831l-0.48632-0.0534c-0.10258-0.0268-0.23037-0.0534-0.35832-0.0802l-0.46072-0.1606c-0.10249-0.0534-0.20472-0.0801-0.28154-0.13385l-0.4095-0.24085c-0.10238-0.0802-0.20477-0.16054-0.30718-0.24086l-0.35832-0.32113-0.20475-0.2141-0.30717-0.40145c-0.0765-0.10709-0.12795-0.21407-0.17912-0.32112l-0.23035-0.45495c-0.0253-0.10709-0.0764-0.18736-0.10248-0.29439l-0.12803-0.50848c-0.0514-0.10709-0.0514-0.21408-0.0765-0.32115zm3.4553 0.21412-0.0766-0.34791 0.15354 0.50847-0.10237-0.29438 0.20474 0.45494-0.17915-0.32112 0.3071 0.40142-0.20474-0.21411 0.35834 0.34794-0.30712-0.24089 0.40951 0.24089-0.28156-0.13386 0.46071 0.16057-0.38394-0.08 0.48634 0.0534h-0.35834l0.48628-0.0534-0.3583 0.08 0.4607-0.16057-0.28157 0.13386 0.40955-0.24089-0.30714 0.24089 0.35834-0.34794-0.20477 0.21411 0.30712-0.40142-0.17918 0.32112 0.20481-0.45494-0.10248 0.29438 0.1536-0.50847-0.0767 0.34791 0.0514-0.56198v0.34786l-0.0514-0.53523 0.0767 0.32117-0.1536-0.48173 0.10248 0.29435-0.20481-0.45492 0.17918 0.32113-0.30712-0.40142 0.20477 0.21408-0.35834-0.34787 0.30714 0.24085-0.40955-0.24085 0.28157 0.13382-0.4607-0.16059 0.3583 0.0802-0.48628-0.0534h0.35834l-0.48634 0.0534 0.38394-0.0802-0.46071 0.16059 0.28156-0.13382-0.40951 0.24085 0.30712-0.24085-0.35834 0.34787 0.20474-0.21408-0.3071 0.40142 0.17915-0.32113-0.20474 0.45492 0.10237-0.29435-0.15354 0.48173 0.0766-0.32117-0.0514 0.53523v-0.34786z" stroke="#000" stroke-width=".026172px"/>
  <text id="text3146-9" font-size="16.252px" xml:space="preserve" transform="matrix(.0044429 -.94293 1.0605 .0040622 0 0)" y="447.39627" x="-538.10773" font-family="Arial" line-height="125%" fill="#000000"><tspan id="tspan4821" y="447.39627" x="-538.10773">Sel RA</tspan></text>
  <text id="text3146-9-5" font-size="16.252px" xml:space="preserve" transform="matrix(-.0075838 -.94290 1.0605 -.0069339 0 0)" y="530.86096" x="-541.91205" font-family="Arial" line-height="125%" fill="#000000"><tspan id="tspan4823" y="530.86096" x="-541.91205">Sel RB</tspan></text>
  <text id="text3146-9-9" font-size="16.252px" xml:space="preserve" transform="matrix(.0098746 -.94287 1.0605 .0090284 0 0)" y="626.47015" x="-532.16815" font-family="Arial" line-height="125%" fill="#000000"><tspan id="tspan4825" y="626.47015" x="-532.16815">Sel RC</tspan></text>
  <text id="text3350-3" font-size="12.555px" xml:space="preserve" transform="scale(1.0458 .95616)" y="587.84454" x="621.39728" font-family="Arial" line-height="125%" fill="#000000">0</text>
  <text id="text3352-3" font-size="12.555px" xml:space="preserve" transform="scale(1.0458 .95616)" y="588.12268" x="647.75098" font-family="Arial" line-height="125%" fill="#000000">1</text>
  <path id="path3094-7" opacity=".75" stroke-linejoin="round" d="m278.76 452.32v-116.76h-1.7143v116.76h1.7143zm4.2473-114.46-5.1172-14.018-5.1173 14.018h10.234z" stroke="#000" stroke-width=".029944px"/>
  <path id="path3498-6" stroke-linejoin="round" d="m352.76 301.13h96.552v1.1658h-96.552z" stroke="#000" stroke-width=".029015px"/>
  <path id="path3138-8" stroke-linejoin="round" d="m450.24 341.45v-40.289h-1.2884v40.289z" stroke="#000" stroke-width=".016340px"/>
  <path id="path3138-8-1" stroke-linejoin="round" d="m480.03 342.09v-92.046h-1.2806v92.046z" stroke="#000" stroke-width=".024624px"/>
  <path id="path3124-7" stroke-linejoin="round" d="m390.84 359.15h16.393v1.5688h-16.393v-1.5688zm15.558-3.8987 5.0264 4.6831-5.0264 4.6831v-9.3663z" stroke="#000" stroke-width=".0085770px"/>
  <text id="text4138-7" font-size="15.799px" xml:space="preserve" transform="scale(1.1127 .89867)" y="395.28989" x="329.51624" font-family="Arial" line-height="125%" fill="#000000"><tspan id="tspan4140-2" y="395.28989" x="329.51624">CLK</tspan></text>
  <path id="path3194-0" stroke-linejoin="round" d="m354.96 300.92-13.785 0.0701v1.5679l13.785-0.0704v-1.568zm-11.933-3.8379-11.334 4.751 11.421 4.6103-0.0853-9.3611z" stroke="#000" stroke-width=".025817px"/>
  <path id="path3124-2-5" stroke-linejoin="round" d="m324.06 250.74v-47.926h1.5927v47.926h-1.5927zm-3.9579-45.481 4.7544-14.695 4.7544 14.695h-9.5089z" stroke="#000" stroke-width=".014775px"/>
  <path id="path3098-2" stroke-linejoin="round" d="m480.6 249.99h-156.13v1.1756h156.13z" stroke="#000" stroke-width=".019484px"/>
  <path id="path3396" stroke-linejoin="round" d="m436.2 342.56c0-0.40789 0.49315-0.74771 1.1624-0.74771h26.169c0.63403 0 1.1623 0.33982 1.1623 0.74771v33.241c0 0.40785-0.52832 0.74772-1.1623 0.74772h-26.169c-0.66923 0-1.1624-0.33987-1.1624-0.74772zm2.3245 33.241-1.1623-0.74777h26.169l-1.1976 0.74777v-33.241l1.1976 0.74773h-26.169l1.1623-0.74773z" stroke="#000" stroke-width=".028252px"/>
  <path id="path3138-1" stroke-linejoin="round" d="m561.69 451.7v-33.782h-1.6604v33.782z" stroke="#000" stroke-width=".016986px"/>
  <path id="path3138-1-5" stroke-linejoin="round" d="m653.52 452.18v-32.472h-1.5676v32.472z" stroke="#000" stroke-width=".016182px"/>
  <path id="path3194-08" stroke-linejoin="round" d="m426.17 476.95-22.414 0.0702v1.5668l22.414-0.0704v-1.5668zm-19.403-3.8349-18.431 4.7473 18.571 4.6068-0.13814-9.3538z" stroke="#000" stroke-width=".032909px"/>
  <text id="text3442-2" font-size="16.388px" xml:space="preserve" transform="scale(1.0546 .94825)" line-height="125%" y="629.4884" x="187.70702" font-family="Arial" fill="#000000"><tspan id="tspan4917" y="629.4884" x="187.70702">...</tspan></text>
  <path id="path3258-4" stroke-linejoin="round" d="m588.86 394.65h31.866v1.1692h-31.866z" stroke="#000" stroke-width=".025725px"/>
  <path id="path3390-7" stroke-linejoin="round" d="m150.21 421.43v-7.8702h-1.2877v7.8702z" stroke="#000" stroke-width=".016375px"/>
  <text id="text3442-2-3" font-size="16.253px" xml:space="preserve" transform="scale(1.0458 .95616)" line-height="125%" y="379.22336" x="676.8678" font-family="Arial" fill="#000000"><tspan id="tspan4917-9" y="379.22336" x="676.8678">...</tspan></text>
  <text id="text3034-5" font-size="12.555px" xml:space="preserve" transform="scale(1.0251 .97548)" y="339.32834" x="200.94376" font-family="Arial" line-height="125%" fill="#000000"><tspan id="tspan4822" y="339.32834" x="200.94376">COP</tspan></text>
  <path id="path3032-0" opacity="0.329" stroke-linejoin="round" d="m186.14 354.19c0-0.34257 0.22599-0.62804 0.51224-0.62804h34.109c0.28627 0 0.49716 0.28547 0.49716 0.62804v26.399c0 0.36162-0.21089 0.62807-0.49716 0.62807h-34.109c-0.28625 0-0.51224-0.26645-0.51224-0.62807zm1.0094 26.399-0.49718-0.62808h34.109l-0.49715 0.62808v-26.399l0.49715 0.62807h-34.109l0.49718-0.62807z" stroke="#000" stroke-dasharray="0.01729462, 0.03458923" stroke-width=".017295"/>
 </g>
</svg>
