<?xml version="1.0" encoding="UTF-8" standalone="no"?>
<svg id="svg2996" xmlns:rdf="http://www.w3.org/1999/02/22-rdf-syntax-ns#" xmlns="http://www.w3.org/2000/svg" height="100%" viewBox="52 15 865 540" width="100%" version="1.0" preserveAspectRatio="xMinYMin meet" xmlns:cc="http://creativecommons.org/ns#" xmlns:dc="http://purl.org/dc/elements/1.1/">
 <metadata id="metadata3508">
  <rdf:RDF>
   <cc:Work rdf:about="">
    <dc:format>image/svg+xml</dc:format>
    <dc:type rdf:resource="http://purl.org/dc/dcmitype/StillImage"/>
    <dc:title/>
   </cc:Work>
  </rdf:RDF>
 </metadata>
 <text id="text3611" style="word-spacing:0px;letter-spacing:0px" line-height="125%" transform="scale(.99998 1)" font-size="13.289px" y="350.36798" x="139.88812" font-family="sans-serif" xml:space="preserve" fill="#000000"><tspan id="tspan3615" y="342.36798" x="121.88812"/></text>
 <g id="g3947" transform="matrix(1.0312 0 0 1.0312 -11.941 -9.4533)">
  <path id="path3008" stroke-linejoin="round" d="m453.66 85.877c0-0.41684 0.52446-0.74438 1.1919-0.74438h414.22c0.61983 0 1.1919 0.32751 1.1919 0.74438v73.928c0 0.41683-0.57214 0.74432-1.1919 0.74432h-414.22c-0.6675 0-1.1919-0.32752-1.1919-0.74432zm2.384 73.928-1.1919-0.74432h414.22l-1.1919 0.74432v-73.928l1.1919 0.74432h-414.22l1.1919-0.74432z" stroke="#000" stroke-width=".037678px"/>
  <text id="text3010" font-size="22.5px" transform="scale(1.0171 .98319)" xml:space="preserve" style="text-decoration-line:underline;text-decoration:underline" y="132.04147" x="578.86133" font-family="Arial" line-height="125%" fill="#000000">Control Memory</text>
  <text id="text3012" font-size="15.698px" xml:space="preserve" transform="scale(1.0171 .98319)" y="421.80301" x="201.37093" font-family="Arial" fill="#000000">MUX C</text>
  <path id="path3014" stroke-linejoin="round" d="m742.17 158.89v119.73h-1.3562v-119.73h1.3562zm3.3108 118.46-3.9889 7.6851-3.9889-7.6851h7.9777z" stroke="#000" stroke-width=".039150px"/>
  <path id="path3016" stroke-linejoin="round" d="m751.57 223.27-20.995 14.469 0.59874 0.77171 20.956-14.431z" stroke="#000" stroke-width=".039246px"/>
  <text id="text3018" font-size="11.775px" line-height="125%" transform="scale(1.0171 .98319)" y="234.81348" x="708.65271" font-family="Arial" xml:space="preserve" fill="#000000"><tspan id="tspan3920" x="708.65271" y="234.81348">80</tspan></text>
  <path id="path3020" stroke-linejoin="round" d="m100.56 332.16c0-0.28235 0.29937-0.51762 0.65863-0.51762h115.44c0.37923 0 0.67859 0.23527 0.67859 0.51762v21.756c0 0.29803-0.29936 0.51761-0.67859 0.51761h-115.44c-0.35926 0-0.65863-0.21958-0.65863-0.51761zm1.3373 21.756-0.67859-0.51763h115.44l-0.65863 0.51763v-21.756l0.65863 0.51761h-115.44l0.67859-0.51761z" stroke="#000" stroke-width=".017694px"/>
  <path id="path3024" stroke-linejoin="round" d="m231.52 194.68c0 0.28863 0.27833 0.52918 0.63087 0.52918h105.37c0.35254 0 0.63087-0.24055 0.63087-0.52918v-132.14c0-0.30468-0.27833-0.54522-0.63087-0.54522h-105.37c-0.35254 0-0.63087 0.24054-0.63087 0.54522zm1.2432-132.14-0.61232 0.5292h105.37l-0.61232-0.5292v132.14l0.61232-0.52919h-105.37l0.61232 0.52919z" stroke="#000" stroke-width=".017249px"/>
  <path id="path3026" stroke-linejoin="round" d="m380.75 69.233c0-0.34728 0.29936-0.63668 0.65861-0.63668h25.546c0.35924 0 0.65862 0.2894 0.65862 0.63668v93.88c0 0.34727-0.29938 0.63667-0.65862 0.63667h-25.546c-0.35925 0-0.65861-0.2894-0.65861-0.63667zm1.3172 93.88-0.65861-0.63667h25.546l-0.67858 0.63667v-93.88l0.67858 0.65596h-25.546l0.65861-0.65596z" stroke="#000" stroke-width=".019623px"/>
  <path id="path3028" stroke-linejoin="round" d="m83.86 437.69c0 0.36657 0.30129 0.65597 0.66283 0.65597h286.23c0.36155 0 0.66284-0.2894 0.66284-0.65597v-41.036c0-0.34728-0.30129-0.63668-0.66284-0.63668h-286.23c-0.36154 0-0.66283 0.2894-0.66283 0.63668zm1.3256-41.036-0.66284 0.63666h286.23l-0.66283-0.63666v41.036l0.66283-0.63666h-286.23l0.66284 0.63666z" stroke="#000" stroke-width=".019686px"/>
  <text id="text3030" font-size="18.367px" xml:space="preserve" transform="scale(1.0171 .98319)" y="281.33112" x="120.49339" font-family="Arial" line-height="125%" fill="#000000"><tspan id="tspan4390" y="281.33112" x="120.49339">co2µaddr</tspan></text>
  <path id="path3032" stroke-linejoin="round" d="m100.63 332.16c0-0.28235 0.29939-0.51762 0.6786-0.51762h45.187c0.37922 0 0.65864 0.23527 0.65864 0.51762v21.756c0 0.29803-0.27942 0.51761-0.65864 0.51761h-45.187c-0.37921 0-0.6786-0.21958-0.6786-0.51761zm1.3373 21.756-0.65864-0.51763h45.187l-0.65865 0.51763v-21.756l0.65865 0.51761h-45.187l0.65864-0.51761z" stroke="#000" stroke-width=".017694px"/>
  <text id="text3034" font-size="14.355px" xml:space="preserve" transform="scale(1.0171 .98319)" y="354.57159" x="111.87583" font-family="Arial" line-height="125%" fill="#000000">CO</text>
  <text id="text3036" font-size="15.698px" xml:space="preserve" transform="scale(1.0171 .98319)" y="337.63364" x="79.262108" font-family="Arial" fill="#000000">IR</text>
  <text id="text3038" font-size="15.698px" xml:space="preserve" transform="scale(1.0171 .98319)" y="506.06802" x="85.105522" font-family="Arial" fill="#000000">SR</text>
  <path id="path3040" stroke-linejoin="round" d="m105.62 96.549c0 0.24582 0.2994 0.45067 0.65866 0.45067h46.824c0.37924 0 0.67862-0.20485 0.67862-0.45067v-22.383c0-0.24582-0.29938-0.45067-0.67862-0.45067h-46.824c-0.35926 0-0.65865 0.20485-0.65865 0.45067zm1.3373-22.383-0.67861 0.46432h46.824l-0.65867-0.46432v22.383l0.65867-0.45066h-46.824l0.67861 0.45066z" stroke="#000" stroke-width=".016509px"/>
  <path id="path3042" stroke-linejoin="round" d="m829.3 268.71h11.296v0.96463h-11.296z" stroke="#000" stroke-width=".039246px"/>
  <path id="path3044" stroke-linejoin="round" d="m852.77 268.71h11.296v0.96463h-11.296z" stroke="#000" stroke-width=".039246px"/>
  <path id="path3046" stroke-linejoin="round" d="m875.72 268.71h11.296v0.96463h-11.296z" stroke="#000" stroke-width=".039246px"/>
  <path id="path3048" stroke-linejoin="round" d="m840.89 257.37h12.175v0.96463h-12.175z" stroke="#000" stroke-width=".039246px"/>
  <path id="path3050" stroke-linejoin="round" d="m841.4 269.52v-12h-0.99792v12z" stroke="#000" stroke-width=".039246px"/>
  <path id="path3052" stroke-linejoin="round" d="m853.26 269.52v-12.309h-0.99792v12.309z" stroke="#000" stroke-width=".039246px"/>
  <path id="path3054" stroke-linejoin="round" d="m864.55 269.52v-12.309h-0.99792v12.309z" stroke="#000" stroke-width=".039246px"/>
  <path id="path3056" stroke-linejoin="round" d="m876.72 269.21v-12h-0.99792v12z" stroke="#000" stroke-width=".039246px"/>
  <path id="path3058" stroke-linejoin="round" d="m863.79 257.37h12.454v0.96463h-12.454z" stroke="#000" stroke-width=".039246px"/>
  <path id="path3060" stroke-linejoin="round" d="m309.4 479.57-0.11236-36.192-1.1112-0.33708-0.11236 36.529zm3.3101-35.145-3.988-6.7801-3.7633 6.7801z" stroke="#000" stroke-width=".025416px"/>
  <path id="path3062" stroke-linejoin="round" d="m331.83 459.03v-15.784h-1.3373v15.784h1.3373zm3.3331-14.682-3.9917-6.5766-3.9917 6.5766h7.9834z" stroke="#000" stroke-width=".018114px"/>
  <text id="text3064" font-size="11.745px" xml:space="preserve" transform="scale(1.0171 .98319)" y="500.46057" x="343.55057" font-family="Arial" line-height="125%" fill="#000000">0</text>
  <text id="text3066" font-size="10.44px" xml:space="preserve" transform="scale(1.0171 .98319)" y="193.80321" x="263.44489" font-family="Arial" line-height="125%" fill="#000000">A0</text>
  <text id="text3068" font-size="16.965px" xml:space="preserve" transform="scale(1.0171 .98319)" y="137.19522" x="263.15671" font-family="Arial" line-height="125%" fill="#000000">MUX A</text>
  <text id="text3072" font-size="13.05px" xml:space="preserve" transform="scale(1.0171 .98319)" y="216.55435" x="732.11328" font-family="Arial" line-height="125%" fill="#000000">µInstruction</text>
  <text id="text3076" font-size="15.698px" xml:space="preserve" transform="scale(1.0171 .98319)" y="218.17084" x="477.51553" font-family="Arial" fill="#000000">MADDR</text>
  <text id="text3080" font-size="15.698px" xml:space="preserve" transform="matrix(0 -.98319 1.0171 0 0 0)" y="392.81247" x="-140.71172" font-family="Arial" fill="#000000">µAddr</text>
  <path id="path3082" stroke-linejoin="round" d="m406.47 116.42h43.394v1.2928h-43.394v-1.2928zm42.482-3.2031 5.4413 3.8592-5.4413 3.8592v-7.7185z" stroke="#000" stroke-width=".016202px"/>
  <text id="text3084" font-size="15.698px" xml:space="preserve" transform="scale(1.0171 .98319)" y="93.128075" x="118.9405" font-family="Arial" fill="#000000">+1</text>
  <path id="path3086" fill-rule="evenodd" d="m424.91 117.07c0-1.0804 0.85819-1.9486 1.896-1.9486s1.896 0.86818 1.896 1.9486c0 1.0611-0.8582 1.9294-1.896 1.9294s-1.896-0.86819-1.896-1.9294"/>
  <path id="path3088" stroke-linejoin="round" d="m424.01 117.19v-0.25081l0.0399-0.38586c0.02-0.0772 0.02-0.15434 0.0599-0.25082l0.0998-0.34728c0.02-0.0772 0.0599-0.13504 0.0799-0.21221l0.17962-0.32798c0.0399-0.0772 0.0799-0.15435 0.1397-0.23152l0.23949-0.2894c0.0399-0.0386 0.0998-0.0965 0.13972-0.13504l0.27941-0.23152c0.0799-0.0772 0.15966-0.13505 0.25945-0.19293l0.33929-0.17364c0.0599-0.0386 0.11975-0.0578 0.19958-0.0965l0.33929-0.11576c0.0998-0.0193 0.19958-0.0386 0.29937-0.0579l0.3792-0.0386h0.27942l0.37921 0.0386c0.0998 0.0193 0.17962 0.0386 0.27941 0.0579l0.35925 0.11576c0.0799 0.0386 0.15966 0.0578 0.2395 0.0965l0.31932 0.17364c0.0799 0.0578 0.15967 0.11575 0.21955 0.17363l0.27941 0.23152c0.0598 0.0579 0.11975 0.0965 0.15967 0.15434l0.23949 0.2894c0.0599 0.0772 0.0998 0.15435 0.15967 0.23152l0.15966 0.32798c0.0399 0.0772 0.0599 0.13505 0.0799 0.21221l0.11975 0.34728c0.02 0.0965 0.0399 0.17364 0.0399 0.25082l0.0399 0.38586c0.02 0.0965 0.02 0.17364 0 0.25081l-0.0399 0.40516c0 0.0772-0.0199 0.15434-0.0399 0.23152l-0.11975 0.36656c-0.02 0.0772-0.0399 0.13505-0.0799 0.21221l-0.15966 0.32799c-0.0599 0.0772-0.0998 0.15435-0.15967 0.23153l-0.23949 0.28938c-0.0399 0.0578-0.0998 0.0965-0.15967 0.15435l-0.27941 0.23152c-0.0599 0.0579-0.13971 0.11576-0.21955 0.17363l-0.31932 0.17364c-0.0799 0.0386-0.15967 0.0579-0.2395 0.0965l-0.35925 0.11575c-0.0998 0.0193-0.17962 0.0386-0.27941 0.0579l-0.37921 0.0386h-0.27942l-0.3792-0.0386c-0.0998-0.0193-0.19958-0.0386-0.29937-0.0579l-0.33929-0.11575c-0.0799-0.0386-0.1397-0.0578-0.19958-0.0965l-0.33929-0.17364c-0.0998-0.0579-0.17962-0.11575-0.25945-0.19292l-0.27941-0.23153c-0.0399-0.0386-0.0998-0.0965-0.13972-0.13505l-0.23949-0.28938c-0.0598-0.0772-0.0998-0.15435-0.1397-0.23153l-0.17962-0.32799c-0.02-0.0772-0.0599-0.13504-0.0799-0.21221l-0.0998-0.36656c-0.0399-0.0772-0.0399-0.15436-0.0599-0.23152zm2.6943 0.15434-0.0599-0.25081 0.11975 0.36657-0.0799-0.21222 0.15966 0.32798-0.1397-0.23152 0.23949 0.2894-0.1397-0.13505 0.25946 0.25081-0.25946-0.19294 0.31934 0.17364-0.19958-0.0965 0.35924 0.11576-0.29937-0.0579 0.3792 0.0386h-0.27942l0.37922-0.0386-0.27943 0.0579 0.35925-0.11576-0.2395 0.0965 0.31933-0.17364-0.21954 0.17364 0.27942-0.2508-0.15967 0.15434 0.23951-0.2894-0.15967 0.23152 0.17962-0.32798-0.0799 0.21222 0.0998-0.36657-0.0399 0.25081 0.0399-0.40515v0.25081l-0.0399-0.38586 0.0399 0.23151-0.0998-0.34727 0.0799 0.21222-0.17962-0.32798 0.15967 0.23152-0.23951-0.28939 0.15967 0.15433-0.27942-0.2508 0.21954 0.17363-0.31933-0.17363 0.2395 0.0965-0.35925-0.11577 0.27943 0.0579-0.37922-0.0386h0.27942l-0.3792 0.0386 0.29937-0.0579-0.35924 0.11577 0.19958-0.0965-0.31934 0.17363 0.25946-0.19292-0.25946 0.2508 0.1397-0.13504-0.23949 0.28939 0.1397-0.23152-0.15966 0.32798 0.0799-0.21222-0.11975 0.34727 0.0599-0.23151-0.0399 0.38586v-0.25081z" stroke="#000" stroke-width=".019623px"/>
  <path id="path3092" stroke-linejoin="round" d="m337.36 118.31h40.014v-1.2928h-40.014v1.2928zm39.243 3.203 4.6061-3.859-4.6061-3.859v7.718z" stroke="#000" stroke-width=".014905px"/>
  <path id="path3094" stroke-linejoin="round" d="m308.06 266.2v-64.284h-1.3372v64.284h1.3372zm3.313-63.011-3.9917-7.7172-3.9917 7.7172h7.9832z" stroke="#000" stroke-width=".019623px"/>
  <path id="path3096" stroke-linejoin="round" d="m440 291.72v-48.083c0-0.3745-0.24356-0.68659-0.53582-0.68659h-166.33l0.55205 0.68659v-41.154h-1.0878v41.154c0 0.3745 0.24356 0.68659 0.53582 0.68659h166.33l-0.55205-0.68659v48.083zm-163.62-87.843-3.2473-8.3223-3.2473 8.3223z" stroke="#000" stroke-width=".018381px"/>
  <path id="path3098" stroke-linejoin="round" d="m427.63 36.07h-298.29v0.96h298.29z" stroke="#000" stroke-width=".024337px"/>
  <path id="path3100" stroke-linejoin="round" d="m129.42 36.596-0.14275 37.272h1.1895l0.14274-37.272z" stroke="#000" stroke-width=".0076614px"/>
  <path id="path3102" stroke-linejoin="round" d="m153.13 84.822h71.295v1.2927h-71.295v-1.2927zm69.875-3.2123 8.5387 3.8586-8.5387 3.8586v-7.7173z" stroke="#000" stroke-width=".010146px"/>
  <path id="path3104" stroke-linejoin="round" d="m156.71 111.97h68.285v1.283h-68.285v-1.283zm67.003-3.2222 7.716 3.859-7.716 3.859v-7.7178z" stroke="#000" stroke-width=".0096463px"/>
  <path id="path3106" stroke-linejoin="round" d="m882.39 300.17h-12.452v-1.1582h12.452zm-9.2506 2.2395-4.7613-2.8361 4.7613-3.061z" stroke="#000" stroke-width=".018108px"/>
  <path id="path3108" stroke-linejoin="round" d="m353.48 480.02-0.22472-35.416-1.1113-0.44943v35.866zm2.7682-35.252-3.4262-6.9906-3.2015 6.8783z" stroke="#000" stroke-width=".025512px"/>
  <path id="path3110" stroke-linejoin="round" d="m398.93 412.4-10.498 12.289 0.77836 0.61738 10.478-12.289z" stroke="#000" stroke-width=".019623px"/>
  <text id="text3112" font-size="10.519px" xml:space="preserve" transform="scale(1.0171 .98319)" y="422.21494" x="381.55643" font-family="Arial" fill="#000000">4</text>
  <path id="path3120" stroke-linejoin="round" d="m467.08 215.54-7.624 9.4726 0.77837 0.59809 7.624-9.4726z" stroke="#000" stroke-width=".019623px"/>
  <text id="text3122" font-size="10.519px" xml:space="preserve" transform="scale(1.0171 .98319)" y="219.92537" x="443.50214" font-family="Arial" fill="#000000">12</text>
  <path id="path3124" stroke-linejoin="round" d="m197.26 170.23h28.005v1.2926h-28.005v-1.2926zm26.578-3.2123 8.5872 3.8586-8.5872 3.8586v-7.7172z" stroke="#000" stroke-width=".010176px"/>
  <text id="text3126" font-size="15.698px" xml:space="preserve" transform="scale(1.0171 .98319)" y="179.38184" x="178.53864" font-family="Arial" fill="#000000">0</text>
  <text id="text3130" font-size="11.745px" xml:space="preserve" transform="scale(1.0171 .98319)" y="193.7464" x="166.56908" font-family="Arial" line-height="125%" fill="#000000">(fetch) </text>
  <path id="path3134" stroke-linejoin="round" d="m156.91 111.18-0.11989 110.34 0.99881 0.0193 0.11987-110.36z" stroke="#000" stroke-width=".014151px"/>
  <path id="path3136" stroke-linejoin="round" d="m285.75 458.98v-15.784h-1.3373v15.784h1.3373zm3.3132-14.682-3.9917-6.5766-3.9917 6.5766h7.9834z" stroke="#000" stroke-width=".018114px"/>
  <path id="path3138" stroke-linejoin="round" d="m410.4 419.12v-75.011h-0.99792v75.011z" stroke="#000" stroke-width=".019623px"/>
  <text id="text3140" font-size="10.44px" xml:space="preserve" transform="scale(1.0171 .98319)" y="541.45642" x="251.17101" font-family="Arial" line-height="125%" fill="#000000">0</text>
  <path id="path3142" stroke-linejoin="round" d="m158.33 376.54 630.49-2.4279v-0.99506l-630.49 2.4279z" stroke="#000" stroke-width=".036769px"/>
  <path id="path3142b" stroke-linejoin="round" d="m163.33 376.54 622.93-2.4281v-0.99512l-622.93 2.4281z" stroke="#000" stroke-width=".036549px"/>
  <path id="path3144" stroke-linejoin="round" d="m431.21 391.49c0-0.3432 0.29939-0.59608 0.65863-0.59608h57.839c0.35924 0 0.65863 0.25288 0.65863 0.59608v25.18c0 0.3432-0.29939 0.61414-0.65863 0.61414h-57.839c-0.35924 0-0.65863-0.27094-0.65863-0.61414zm1.3372 25.18-0.67858-0.59608h57.839l-0.67859 0.59608v-25.18l0.67859 0.59608h-57.839l0.67858-0.59608z" stroke="#000" stroke-width=".018987px"/>
  <text id="text3146" font-size="13.029px" line-height="125%" transform="scale(1.0171 .98319)" y="415.14148" x="431.78284" font-family="Arial" xml:space="preserve" fill="#000000"><tspan id="tspan3949" y="415.14148" x="431.78284">Sel RA</tspan></text>
  <path id="path3150" stroke-linejoin="round" d="m528.89 391.07c0-0.36875 0.30721-0.62687 0.65282-0.62687h55.643c0.3456 0 0.61441 0.25812 0.61441 0.62687v25.701c0 0.33186-0.26881 0.58999-0.61441 0.58999h-55.643c-0.34561 0-0.65282-0.25813-0.65282-0.58999zm1.3056 25.701-0.65281-0.62686h55.643l-0.65281 0.62686v-25.701l0.65281 0.59h-55.643l0.65281-0.59z" stroke="#000" stroke-width=".037630px"/>
  <text id="text3152" font-size="13.029px" line-height="125%" transform="scale(1.0171 .98319)" y="416.05573" x="527.06" font-family="Arial" xml:space="preserve" fill="#000000"><tspan id="tspan3951" y="416.05573" x="527.06">Sel RB</tspan></text>
  <path id="path3156" stroke-linejoin="round" d="m625.82 391.5c0-0.36875 0.30904-0.62686 0.6567-0.62686h55.975c0.34768 0 0.61809 0.25811 0.61809 0.62686v25.701c0 0.33187-0.27041 0.58999-0.61809 0.58999h-55.975c-0.34766 0-0.6567-0.25812-0.6567-0.58999zm1.3134 25.701-0.65671-0.62686h55.975l-0.65671 0.62686v-25.701l0.65671 0.58999h-55.975l0.65671-0.58999z" stroke="#000" stroke-width=".037742px"/>
  <text id="text3158" font-size="13.029px" line-height="125%" transform="scale(1.0171 .98319)" y="416.03903" x="622.16376" font-family="Arial" xml:space="preserve" fill="#000000"><tspan id="tspan3953" y="416.03903" x="622.16376">Sel RC</tspan></text>
  <path id="path3162" stroke-linejoin="round" d="m639.32 285.48c0-0.34735 0.20277-0.65609 0.49243-0.65609h112.22c0.26069 0 0.46346 0.30874 0.46346 0.65609v26.9c0 0.34736-0.20277 0.65609-0.46346 0.65609h-112.22c-0.28966 0-0.49243-0.30873-0.49243-0.65609zm0.95589 26.9-0.46344-0.65611h112.22l-0.49241 0.65611v-26.9l0.49241 0.65611h-112.22l0.46344-0.65611z" stroke="#000" stroke-width=".033435px"/>
  <text id="text3164" font-size="14.355px" xml:space="preserve" transform="scale(1.0171 .98319)" y="309.92535" x="486.86456" font-family="Arial" line-height="125%" fill="#000000">Sel A</text>
  <text id="text3168" font-size="14.355px" xml:space="preserve" transform="scale(1.0171 .98319)" y="309.92535" x="534.95874" font-family="Arial" line-height="125%" fill="#000000">Sel B</text>
  <text id="text3172" font-size="14.355px" xml:space="preserve" transform="scale(1.0171 .98319)" y="309.92535" x="584.93884" font-family="Arial" line-height="125%" fill="#000000">Sel C</text>
  <path id="path3176" stroke-linejoin="round" d="m487.2 285.46c0-0.34728 0.28293-0.63668 0.62244-0.63668h49.003c0.33951 0 0.62244 0.2894 0.62244 0.63668v26.914c0 0.34729-0.28293 0.63668-0.62244 0.63668h-49.003c-0.33951 0-0.62244-0.28939-0.62244-0.63668zm1.2448 26.914-0.62244-0.65598h49.003l-0.6413 0.65598v-26.914l0.6413 0.65597h-49.003l0.62244-0.65597z" stroke="#000" stroke-width=".019076px"/>
  <path id="path3178" stroke-linejoin="round" d="m536.42 285.48c0-0.34729 0.30348-0.65598 0.6449-0.65598h50.34c0.34141 0 0.64491 0.30869 0.64491 0.65598v26.895c0 0.34729-0.3035 0.65598-0.64491 0.65598h-50.34c-0.34142 0-0.6449-0.30869-0.6449-0.65598zm1.2519 26.895-0.60697-0.65599h50.34l-0.64491 0.65599v-26.895l0.64491 0.65599h-50.34l0.60697-0.65599z" stroke="#000" stroke-width=".038260px"/>
  <path id="path3180" stroke-linejoin="round" d="m587.04 285.48c0-0.34729 0.26756-0.65598 0.64981-0.65598h52.061c0.34403 0 0.6116 0.30869 0.6116 0.65598v26.896c0 0.34728-0.26757 0.65598-0.6116 0.65598h-52.061c-0.38225 0-0.64981-0.3087-0.64981-0.65598zm1.2614 26.896-0.61159-0.65599h52.061l-0.6498 0.65599v-26.896l0.6498 0.65599h-52.061l0.61159-0.65599z" stroke="#000" stroke-width=".038405px"/>
  <path id="path3182" stroke-linejoin="round" d="m451.03 431.31-10.738 7.6594 0.59875 0.77173 10.738-7.6401z" stroke="#000" stroke-width=".019623px"/>
  <path id="path3184" stroke-linejoin="round" d="m558.09 431.9-10.738 7.6594 0.59875 0.77172 10.737-7.6594z" stroke="#000" stroke-width=".019623px"/>
  <path id="path3186" stroke-linejoin="round" d="m656.03 431.41-10.738 7.6787 0.59875 0.77172 10.738-7.6787z" stroke="#000" stroke-width=".039246px"/>
  <path id="path3188" stroke-linejoin="round" d="m461.28 374.75v9.9555h-1.3172v-9.9555h1.3172zm3.333 8.6627-3.9917 7.7172-3.9917-7.7172h7.9833z" stroke="#000" stroke-width=".019623px"/>
  <path id="path3190" stroke-linejoin="round" d="m558.38 374.32v9.9746h-1.3372v-9.9746h1.3372zm3.333 8.6819-3.9917 7.7172-3.9917-7.7172h7.9832z" stroke="#000" stroke-width=".019623px"/>
  <path id="path3192" stroke-linejoin="round" d="m655.52 374.76v9.9555h-1.3572v-9.9555h1.3572zm3.313 8.6433-3.9917 7.7172-3.9917-7.7172h7.9833z" stroke="#000" stroke-width=".039246px"/>
  <path id="path3194" stroke-linejoin="round" d="m506.01 404.22-9.66 0.0578v1.2926l9.66-0.0579v-1.2926zm-8.3624-3.164-7.9433 3.9166 8.0033 3.8008-0.0598-7.7172z" stroke="#000" stroke-width=".019623px"/>
  <path id="path3196" stroke-linejoin="round" d="m563.92 360.04v-46.978h-0.99792v46.978z" stroke="#000" stroke-width=".019623px"/>
  <path id="path3198" fill-rule="evenodd" d="m458.68 374.75c0-1.0804 0.85821-1.9486 1.896-1.9486 1.0578 0 1.896 0.86819 1.896 1.9486 0 1.0611-0.83824 1.9294-1.896 1.9294-1.0378 0-1.896-0.86819-1.896-1.9294"/>
  <path id="path3200" stroke-linejoin="round" d="m457.36 374.86v-0.2508l0.0399-0.38587c0.02-0.0772 0.02-0.15434 0.0598-0.2508l0.0998-0.34728c0.02-0.0772 0.0599-0.13506 0.0799-0.21222l0.17962-0.32799c0.0399-0.0772 0.0799-0.15434 0.1397-0.23152l0.23949-0.28938 0.15968-0.15436 0.27941-0.23151c0.0799-0.0578 0.15966-0.11576 0.23949-0.17364l0.31934-0.17364c0.0598-0.0386 0.1397-0.0578 0.21953-0.0965l0.35925-0.11576c0.0998-0.0193 0.19958-0.0386 0.27941-0.0578l0.37921-0.0386h0.27942l0.3792 0.0386c0.0998 0.0193 0.19958 0.0386 0.29938 0.0578l0.35923 0.11576c0.0799 0.0386 0.13971 0.0578 0.21954 0.0965l0.31933 0.17364c0.0799 0.0579 0.15967 0.11575 0.2395 0.17364l0.27942 0.23151c0.0599 0.0579 0.0998 0.0965 0.15966 0.15436l0.2395 0.28938c0.0399 0.0772 0.0998 0.15436 0.13972 0.23152l0.17962 0.32799c0.0199 0.0772 0.0598 0.13504 0.0799 0.21222l0.0998 0.34728c0.0399 0.0965 0.0399 0.17363 0.0599 0.2508l0.0399 0.38587v0.2508l-0.0399 0.40516c-0.02 0.0772-0.02 0.15434-0.0599 0.23152l-0.0998 0.36656c-0.02 0.0772-0.0599 0.13506-0.0799 0.21223l-0.17962 0.32798c-0.0399 0.0772-0.0998 0.15434-0.13972 0.23151l-0.2395 0.2894c-0.0598 0.0578-0.0998 0.0965-0.15966 0.15435l-0.27942 0.23151c-0.0799 0.0578-0.15966 0.11577-0.2395 0.17364l-0.31933 0.17364c-0.0799 0.0386-0.1397 0.0578-0.21954 0.0965l-0.35923 0.11576c-0.0998 0.0193-0.19959 0.0386-0.29938 0.0578l-0.3792 0.0386h-0.27942l-0.37921-0.0386c-0.0799-0.0193-0.17962-0.0386-0.27941-0.0578l-0.35925-0.11576c-0.0799-0.0386-0.15965-0.0578-0.21953-0.0965l-0.31934-0.17364c-0.0798-0.0578-0.15965-0.11575-0.23949-0.17364l-0.27941-0.23151-0.15968-0.15435-0.23949-0.2894c-0.0598-0.0772-0.0998-0.15434-0.1397-0.23151l-0.17962-0.32798c-0.02-0.0772-0.0598-0.13506-0.0799-0.21223l-0.0998-0.36656c-0.0399-0.0772-0.0399-0.15434-0.0598-0.23152zm2.6943 0.15435-0.0599-0.25081 0.11975 0.36656-0.0799-0.21222 0.15966 0.32798-0.13971-0.23151 0.23949 0.2894-0.15966-0.15435 0.27942 0.25082-0.23949-0.17365 0.31932 0.17365-0.21953-0.0965 0.35924 0.11575-0.29938-0.0578 0.37922 0.0386h-0.27942l0.37921-0.0386-0.27942 0.0578 0.35925-0.11575-0.21955 0.0965 0.31934-0.17365-0.2395 0.17365 0.27941-0.25082-0.15967 0.15435 0.2395-0.2894-0.13971 0.23151 0.15967-0.32798-0.0799 0.21222 0.11975-0.36656-0.0599 0.25081 0.0399-0.40515v0.2508l-0.0399-0.38586 0.0599 0.23152-0.11975-0.34727 0.0799 0.21221-0.15967-0.32797 0.13971 0.23151-0.2395-0.28939 0.15967 0.15434-0.27941-0.2508 0.2395 0.17364-0.31934-0.17364 0.21955 0.0965-0.35925-0.11576 0.27942 0.0578-0.37921-0.0386h0.27942l-0.37922 0.0386 0.29938-0.0578-0.35924 0.11576 0.21953-0.0965-0.31932 0.17364 0.23949-0.17364-0.27942 0.2508 0.15966-0.15434-0.23949 0.28939 0.13971-0.23151-0.15966 0.32797 0.0799-0.21221-0.11975 0.34727 0.0599-0.23152-0.0399 0.38586v-0.2508z" stroke="#000" stroke-width=".019623px"/>
  <path id="path3202" fill-rule="evenodd" d="m555.86 374.75c0-1.0804 0.83824-1.9486 1.896-1.9486 1.0378 0 1.876 0.86819 1.876 1.9486 0 1.0611-0.83822 1.9294-1.876 1.9294-1.0578 0-1.896-0.86819-1.896-1.9294"/>
  <path id="path3204" stroke-linejoin="round" d="m554.55 374.86c-0.02-0.0772-0.02-0.15434 0-0.2508l0.0399-0.38587c0-0.0772 0.0199-0.15434 0.0399-0.2508l0.11975-0.34728c0.0199-0.0772 0.0399-0.13506 0.0798-0.21222l0.15967-0.32799c0.0399-0.0772 0.0998-0.15434 0.15966-0.23152l0.2395-0.28938c0.0399-0.0579 0.0998-0.0965 0.15966-0.15436l0.27942-0.23151c0.0598-0.0578 0.1397-0.11576 0.21953-0.17364l0.31934-0.17364c0.0798-0.0386 0.15965-0.0578 0.23949-0.0965l0.35924-0.11576c0.0799-0.0193 0.17964-0.0386 0.27941-0.0578l0.37922-0.0386h0.27941l0.3792 0.0386c0.0998 0.0193 0.19959 0.0386 0.29938 0.0578l0.33928 0.11576c0.0799 0.0386 0.13971 0.0578 0.19959 0.0965l0.33928 0.17364c0.0799 0.0386 0.17962 0.0965 0.2395 0.17364l0.27941 0.23151 0.17963 0.17365 0.21953 0.28939c0.0598 0.0772 0.0998 0.13506 0.13971 0.21222l0.17963 0.32799c0.02 0.0772 0.0598 0.13504 0.0799 0.21222l0.0998 0.34728c0.0399 0.0965 0.0399 0.17363 0.0598 0.2508l0.0399 0.38587v0.2508l-0.0399 0.40516c-0.02 0.0772-0.02 0.15434-0.0598 0.23152l-0.0998 0.36656c-0.0199 0.0772-0.0598 0.13506-0.0799 0.21223l-0.17963 0.32798c-0.0399 0.0772-0.0798 0.13506-0.13971 0.21222l-0.21953 0.2894c-0.0599 0.0578-0.11975 0.11576-0.17963 0.17364l-0.27941 0.23151c-0.0598 0.0772-0.15967 0.13505-0.2395 0.17364l-0.33928 0.17364c-0.0599 0.0386-0.11976 0.0578-0.19959 0.0965l-0.33928 0.11576c-0.0998 0.0193-0.19959 0.0386-0.29938 0.0578l-0.3792 0.0386h-0.27941l-0.37922-0.0386c-0.0998-0.0193-0.19956-0.0386-0.27941-0.0578l-0.35924-0.11576c-0.0798-0.0386-0.15966-0.0578-0.23949-0.0965l-0.31934-0.17364c-0.0799-0.0578-0.15967-0.11575-0.21953-0.17364l-0.27942-0.23151c-0.0598-0.0579-0.11975-0.0965-0.15966-0.15435l-0.2395-0.2894c-0.0598-0.0772-0.11975-0.15434-0.15966-0.23151l-0.15967-0.32798c-0.0399-0.0772-0.0598-0.13506-0.0798-0.21223l-0.11975-0.36656c-0.02-0.0772-0.0399-0.15434-0.0399-0.23152zm2.6743 0.15435-0.0399-0.25081 0.0998 0.36656-0.0799-0.21222 0.17963 0.32798-0.15966-0.23151 0.2395 0.2894-0.15967-0.15435 0.27942 0.25082-0.21954-0.17365 0.31932 0.17365-0.23949-0.0965 0.35925 0.11575-0.27942-0.0578 0.37921 0.0386h-0.27941l0.3792-0.0386-0.29938 0.0578 0.35925-0.11575-0.19958 0.0965 0.31933-0.17365-0.2395 0.17365 0.27941-0.25082-0.17962 0.17364 0.2395-0.2894-0.13971 0.21222 0.15967-0.32798-0.0799 0.21222 0.11976-0.36656-0.0598 0.25081 0.0399-0.40515v0.2508l-0.0399-0.38586 0.0598 0.23152-0.11976-0.34727 0.0799 0.21221-0.15967-0.32797 0.13971 0.21222-0.2395-0.2894 0.17962 0.17364-0.27941-0.2508 0.2395 0.17364-0.31933-0.17364 0.19958 0.0965-0.35925-0.11576 0.29938 0.0578-0.3792-0.0386h0.27941l-0.37921 0.0386 0.27942-0.0578-0.35925 0.11576 0.23949-0.0965-0.31932 0.17364 0.21954-0.17364-0.27942 0.2508 0.15967-0.15434-0.2395 0.28939 0.15966-0.23151-0.17963 0.32797 0.0799-0.21221-0.0998 0.34727 0.0399-0.23152-0.0399 0.38586v-0.2508z" stroke="#000" stroke-width=".019623px"/>
  <path id="path3206" fill-rule="evenodd" d="m652.92 374.76c0-1.0804 0.87816-1.9679 1.916-1.9679s1.876 0.88748 1.876 1.9679c0 1.0418-0.83824 1.9294-1.876 1.9294s-1.916-0.88748-1.916-1.9294"/>
  <path id="path3208" stroke-linejoin="round" d="m651.65 374.88c-0.0399-0.0772-0.0399-0.15435 0-0.2701l0.0399-0.38586c0-0.0772 0-0.15435 0.0399-0.23152l0.11976-0.34728c0-0.0772 0.0399-0.15434 0.0798-0.23151l0.15967-0.3087c0.0399-0.0772 0.0799-0.15434 0.11975-0.23152l0.23951-0.2701c0.0399-0.0772 0.11973-0.11575 0.15965-0.19292l0.27942-0.23152c0.0799-0.0772 0.15966-0.11575 0.2395-0.15435l0.31933-0.19293c0.0798-0.0386 0.15966-0.0386 0.23949-0.0772l0.35041-0.0924c0.0798-0.0386 0.19958-0.0386 0.27941-0.0772l0.35925-0.0386h0.27941l0.39916 0.0386c0.0798 0.0386 0.19958 0.0386 0.27941 0.0772l0.35925 0.11576c0.0799 0.0386 0.15967 0.0386 0.2395 0.0772l0.31932 0.19293c0.0799 0.0386 0.15968 0.0772 0.23951 0.15435l0.27942 0.23151c0.0399 0.0772 0.0798 0.11577 0.11973 0.15436l0.23951 0.30868c0.0798 0.0772 0.11974 0.15435 0.15966 0.23151l0.19959 0.3087c0 0.0772 0.0399 0.15434 0.0798 0.23152l0.0799 0.34728c0.0399 0.0772 0.0399 0.15433 0.0798 0.2315l0.0399 0.38587v0.2701l-0.0399 0.38586c-0.0399 0.0772-0.0399 0.15434-0.0798 0.23152l-0.0799 0.38585c-0.0399 0.0772-0.0798 0.11577-0.0798 0.19294l-0.19959 0.34728c-0.0399 0.0772-0.0798 0.15434-0.15966 0.23151l-0.23951 0.2701c-0.0399 0.0386-0.0799 0.11577-0.11973 0.15435l-0.27942 0.23151c-0.0799 0.0772-0.15967 0.11577-0.23951 0.19294l-0.31932 0.15434c-0.0799 0.0386-0.15967 0.0772-0.2395 0.11576l-0.35925 0.11576c-0.0799 0-0.19958 0.0386-0.27941 0.0386l-0.39916 0.0386h-0.27941l-0.35925-0.0386c-0.0799 0-0.19958-0.0386-0.27941-0.0386l-0.35925-0.11576c-0.0799-0.0386-0.15967-0.0772-0.2395-0.11576l-0.31932-0.15434c-0.0799-0.0772-0.15968-0.11575-0.23951-0.19294l-0.27942-0.23151c-0.0399-0.0386-0.11973-0.11576-0.15965-0.19294l-0.2395-0.2701c-0.0399-0.0772-0.0798-0.11576-0.11975-0.19292l-0.15967-0.34728c-0.0399-0.0772-0.0798-0.11576-0.0798-0.19294l-0.11976-0.38585c-0.0399-0.0772-0.0399-0.15434-0.0399-0.23152zm2.6743 0.15433-0.0399-0.27009 0.0799 0.38586-0.0799-0.23152 0.19959 0.34728-0.15968-0.23153 0.23951 0.3087-0.15968-0.19293 0.27943 0.2701-0.2395-0.19293 0.31933 0.19293-0.2395-0.11575 0.35925 0.11575-0.27942-0.0386 0.35924 0.0386h-0.2794l0.39916-0.0386-0.27942 0.0386 0.35925-0.11575-0.2395 0.11575 0.31933-0.19293-0.2395 0.19293 0.27941-0.2701-0.15965 0.15435 0.23949-0.27012-0.11975 0.23153 0.15967-0.34728-0.0799 0.23152 0.11975-0.38586-0.0799 0.27009 0.0399-0.42443v0.2701l-0.0399-0.38586 0.0799 0.23151-0.11975-0.34728 0.0799 0.19294-0.15967-0.30869 0.11975 0.23152-0.23949-0.30869 0.15965 0.15434-0.27941-0.23151 0.2395 0.15434-0.31933-0.15434 0.2395 0.0772-0.35925-0.11576 0.27942 0.0772-0.39916-0.0386h0.2794l-0.35924 0.0386 0.27942-0.0772-0.35925 0.11576 0.2395-0.0772-0.31933 0.15434 0.2395-0.15434-0.27943 0.23151 0.15968-0.19293-0.23951 0.3087 0.15968-0.19294-0.19959 0.30869 0.0799-0.19294-0.0799 0.34728 0.0399-0.23151-0.0399 0.38586v-0.2701z" stroke="#000" stroke-width=".039246px"/>
  <path id="path3210" stroke-linejoin="round" d="m728.79 312.95v185.24h-1.3171v-185.24h1.3171zm3.3525 183.86-3.991 8.128-3.991-8.128h7.9821z" stroke="#000" stroke-width=".040274px"/>
  <path id="path3212" stroke-linejoin="round" d="m733.22 437.68-10.738 7.6401 0.59876 0.81029 10.737-7.6787z" stroke="#000" stroke-width=".039246px"/>
  <text id="text3214" font-size="10.518px" line-height="125%" transform="scale(1.0171 .98319)" y="447.13953" x="701.94189" font-family="Arial" xml:space="preserve" fill="#000000"><tspan id="tspan3973" y="447.13953" x="701.94189">49</tspan></text>
  <path id="path3216" stroke-linejoin="round" d="m434.06 452.16c0-0.34728 0.28346-0.63668 0.62359-0.63668h54.744c0.35905 0 0.6425 0.2894 0.6425 0.63668v25.525c0 0.36657-0.28345 0.63667-0.6425 0.63667h-54.744c-0.34013 0-0.62359-0.2701-0.62359-0.63667zm1.2661 25.525-0.6425-0.63669h54.744l-0.62361 0.63669v-25.525l0.62361 0.63668h-54.744l0.6425-0.63668z" stroke="#000" stroke-width=".019094px"/>
  <text id="text3218" font-size="13.05px" xml:space="preserve" transform="scale(1.0171 .98319)" y="482.01456" x="440.11179" font-family="Arial" line-height="125%" fill="#000000">MUX</text>
  <path id="path3220" stroke-linejoin="round" d="m422.52 464.11h12.055v0.96463h-12.055z" stroke="#000" stroke-width=".019623px"/>
  <text id="text3222" font-size="10.519px" xml:space="preserve" transform="scale(1.0171 .98319)" y="476.32852" x="395.22778" font-family="Arial" fill="#000000">MR</text>
  <text id="text3224" font-size="13.029px" xml:space="preserve" transform="scale(1.0171 .98319)" y="528.85333" x="684.94135" font-family="Arial" line-height="125%" fill="#000000"><tspan id="tspan4437" y="528.85333" x="684.94135">Rest of CPU</tspan></text>
  <text id="text3228" font-size="13.029px" xml:space="preserve" transform="scale(1.0171 .98319)" y="543.73749" x="678.55176" font-family="Arial" fill="#000000">control </text>
  <text id="text3230" font-size="13.029px" xml:space="preserve" transform="scale(1.0171 .98319)" y="543.15234" x="720.83356" font-family="Arial" fill="#000000">signals</text>
  <path id="path3232" stroke-linejoin="round" d="m616.93 348.36v-34.983h-1.003v34.983z" stroke="#000" stroke-width=".034157px"/>
  <path id="path3234" stroke-linejoin="round" d="m464.06 478.39v11.787h-1.3172v-11.787h1.3172zm3.333 10.496-3.9917 7.7172-3.9917-7.7172h7.9833z" stroke="#000" stroke-width=".019623px"/>
  <path id="path3236" stroke-linejoin="round" d="m538.17 452.05c0-0.34729 0.2603-0.65599 0.59497-0.65599h53.883c0.33467 0 0.59497 0.3087 0.59497 0.65599v25.546c0 0.3473-0.2603 0.61741-0.59497 0.61741h-53.883c-0.33467 0-0.59497-0.27011-0.59497-0.61741zm1.2271 25.546-0.63215-0.65599h53.883l-0.63215 0.65599v-25.546l0.63215 0.656h-53.883l0.63215-0.656z" stroke="#000" stroke-width=".037881px"/>
  <text id="text3238" font-size="13.05px" xml:space="preserve" transform="scale(1.0171 .98319)" y="482.08636" x="542.44427" font-family="Arial" line-height="125%" fill="#000000">MUX</text>
  <path id="path3240" stroke-linejoin="round" d="m526.62 464h12.035v0.96463h-12.035z" stroke="#000" stroke-width=".019623px"/>
  <text id="text3242" font-size="10.519px" xml:space="preserve" transform="scale(1.0171 .98319)" y="476.2034" x="499.64838" font-family="Arial" fill="#000000">MR</text>
  <path id="path3244" stroke-linejoin="round" d="m566.35 478.25v11.807h-1.3172v-11.807h1.3172zm3.313 10.535-3.9917 7.7172-3.9917-7.7172h7.9833z" stroke="#000" stroke-width=".039246px"/>
  <path id="path3246" stroke-linejoin="round" d="m638.99 452.66c0-0.34729 0.24638-0.65601 0.5632-0.65601h51.005c0.3168 0 0.59841 0.30872 0.59841 0.65601v25.547c0 0.3473-0.28161 0.61743-0.59841 0.61743h-51.005c-0.31682 0-0.5632-0.27013-0.5632-0.61743zm1.1615 25.547-0.59841-0.65602h51.005l-0.59841 0.65602v-25.547l0.59841 0.65603h-51.005l0.59841-0.65603z" stroke="#000" stroke-width=".036856px"/>
  <text id="text3248" font-size="13.05px" xml:space="preserve" transform="scale(1.0171 .98319)" y="483.36121" x="639.60687" font-family="Arial" line-height="125%" fill="#000000">MUX</text>
  <text id="text3250" font-size="9.1051px" xml:space="preserve" transform="scale(1.0171 .98319)" y="469.18521" x="637.49188" font-family="Arial" fill="#000000">0         1</text>
  <path id="path3252" stroke-linejoin="round" d="m627.45 464.63h12.015v0.96463h-12.015z" stroke="#000" stroke-width=".039246px"/>
  <text id="text3254" font-size="10.519px" xml:space="preserve" transform="scale(1.0171 .98319)" y="476.83163" x="597.57831" font-family="Arial" fill="#000000">MR</text>
  <path id="path3256" stroke-linejoin="round" d="m664.41 478.87v11.807h-1.3172v-11.807h1.3172zm3.3529 10.535-3.9917 7.7172-3.9917-7.7172h7.9833z" stroke="#000" stroke-width=".039246px"/>
  <path id="path3258" stroke-linejoin="round" d="m477.73 424.96h31.51v0.96118h-31.51z" stroke="#000" stroke-width=".023194px"/>
  <path id="path3260" stroke-linejoin="round" d="m509.16 424.87 0.96099-112.83-1.1718-0.0193-0.9609 112.85z" stroke="#000" stroke-width=".021264px"/>
  <path id="path3262" fill-rule="evenodd" d="m603.79 404.31c0-1.0804 0.83825-1.9294 1.916-1.9294 1.0378 0 1.8761 0.8489 1.8761 1.9294 0 1.0804-0.83824 1.9294-1.8761 1.9294-1.0778 0-1.916-0.84889-1.916-1.9294"/>
  <path id="path3264" stroke-linejoin="round" d="m602.28 404.43v-0.23152l0.0399-0.42445c0-0.0772 0.0399-0.15434 0.0399-0.23152l0.11976-0.34727c0.0399-0.0772 0.0399-0.15434 0.0799-0.19292l0.15966-0.34728c0.0399-0.0772 0.11974-0.15435 0.15967-0.23152l0.2395-0.2701c0.0399-0.0772 0.11974-0.11576 0.15965-0.15434l0.27942-0.27011c0.0799-0.0386 0.15966-0.11576 0.2395-0.15434l0.31933-0.15435c0.0798-0.0386 0.15966-0.0772 0.23949-0.11575l0.35925-0.11577c0.0799-0.0386 0.15967-0.0386 0.27941-0.0386l0.35925-0.0386c0.11975-0.0386 0.19958-0.0386 0.27941 0l0.39917 0.0386c0.0799 0 0.19958 0 0.27941 0.0386l0.35925 0.11577c0.0799 0.0386 0.11974 0.0772 0.19958 0.0772l0.31933 0.19292c0.0798 0.0386 0.19958 0.11576 0.2395 0.15436l0.27942 0.27009c0.0798 0.0386 0.11974 0.11577 0.19956 0.15435l0.19959 0.30869c0.0799 0.0386 0.11975 0.11576 0.15966 0.19292l0.15968 0.34728c0.0399 0.0386 0.0799 0.11576 0.0799 0.19294l0.11976 0.34727c0.0399 0.0772 0.0399 0.15434 0.0399 0.23151l0.0399 0.42445v0.23151l-0.0399 0.38587c0 0.11576 0 0.19293-0.0399 0.27009l-0.11976 0.34728c0 0.0772-0.0399 0.15436-0.0799 0.19294l-0.15968 0.34728c-0.0399 0.0772-0.0798 0.15433-0.15966 0.19292l-0.19959 0.30869c-0.0798 0.0386-0.11973 0.11576-0.19956 0.15435l-0.27942 0.2701c-0.0399 0.0386-0.15967 0.11575-0.2395 0.15435l-0.31933 0.15433c-0.0798 0.0386-0.11975 0.0772-0.19958 0.11577l-0.35925 0.11575c-0.0799 0.0386-0.19958 0.0386-0.27941 0.0386l-0.39917 0.0386c-0.0798 0.0386-0.15966 0.0386-0.27941 0l-0.35925-0.0386c-0.11974 0-0.19958 0-0.27941-0.0386l-0.35925-0.11575c-0.0798-0.0386-0.15965-0.0772-0.23949-0.11577l-0.31933-0.15433c-0.0799-0.0386-0.15967-0.11576-0.2395-0.15435l-0.27942-0.2701c-0.0399-0.0386-0.11974-0.0772-0.15965-0.15435l-0.2395-0.2701c-0.0399-0.0772-0.11976-0.15435-0.15967-0.23151l-0.15966-0.34728c-0.0399-0.0386-0.0399-0.11576-0.0799-0.19294l-0.11976-0.34728c0-0.0772-0.0399-0.15433-0.0399-0.27009zm2.6743 0.15434-0.0399-0.23151 0.11974 0.34728-0.0798-0.19294 0.15967 0.30869-0.15967-0.23152 0.2395 0.3087-0.15967-0.15435 0.27942 0.23151-0.19958-0.15434 0.31932 0.15434-0.23949-0.0772 0.35925 0.11575-0.27942-0.0772 0.35925 0.0386h-0.27942l0.39917-0.0386-0.31934 0.0772 0.35925-0.11575-0.19957 0.0772 0.31932-0.19292-0.2395 0.19292 0.27943-0.23151-0.15968 0.15435 0.2395-0.27012-0.15967 0.19294 0.15967-0.30869-0.0798 0.19294 0.11974-0.34728-0.0399 0.23151 0.0399-0.38586v0.23152l-0.0399-0.38585 0.0399 0.2315-0.11974-0.34727 0.0798 0.19293-0.15967-0.3087 0.15967 0.19294-0.2395-0.2701 0.15968 0.15434-0.27943-0.23151 0.2395 0.15433-0.31932-0.15433 0.19957 0.0772-0.35925-0.11575 0.31934 0.0772-0.39917-0.0386h0.27942l-0.35925 0.0386 0.27942-0.0772-0.35925 0.11575 0.23949-0.0772-0.31932 0.15433 0.19958-0.15433-0.27942 0.23151 0.15967-0.15434-0.2395 0.3087 0.15967-0.23154-0.15967 0.3087 0.0798-0.19293-0.11974 0.34727 0.0399-0.2315-0.0399 0.38585v-0.23152z" stroke="#000" stroke-width=".039246px"/>
  <path id="path3266" fill-rule="evenodd" d="m507.52 404.67c0-1.0611 0.8582-1.9294 1.896-1.9294 1.0578 0 1.896 0.86819 1.896 1.9294 0 1.0804-0.83824 1.9486-1.896 1.9486-1.0378 0-1.896-0.8682-1.896-1.9486"/>
  <path id="path3268" stroke-linejoin="round" d="m505.3 404.8v-0.25079l0.0399-0.40517c0.02-0.0772 0.02-0.15435 0.0599-0.23151l0.0998-0.36657c0.0199-0.0578 0.0598-0.13505 0.0798-0.19293l0.17962-0.32799c0.0399-0.0965 0.0799-0.17362 0.1397-0.2315l0.2395-0.2894c0.0599-0.0578 0.0998-0.11577 0.15967-0.15436l0.27941-0.25079c0.0799-0.0579 0.15967-0.11577 0.2395-0.15435l0.31934-0.17363c0.0598-0.0386 0.1397-0.0772 0.21953-0.0965l0.35924-0.11577c0.0998-0.0386 0.19959-0.0578 0.27942-0.0578l0.3792-0.0386c0.0998-0.0193 0.19958-0.0193 0.27942 0l0.3792 0.0386c0.0998 0 0.19959 0.0193 0.29938 0.0578l0.35924 0.11577c0.0798 0.0193 0.13971 0.0578 0.21955 0.0965l0.31932 0.17363c0.0798 0.0386 0.15966 0.0965 0.23949 0.15435l0.27942 0.25079c0.0598 0.0386 0.0998 0.0965 0.15967 0.15436l0.23949 0.2894c0.0399 0.0578 0.0998 0.13504 0.13972 0.2315l0.17962 0.32799c0.0199 0.0579 0.0598 0.13505 0.0799 0.19293l0.0998 0.36657c0.0399 0.0772 0.0399 0.15434 0.0598 0.23151l0.0399 0.40517v0.25079l-0.0399 0.38587c-0.02 0.0965-0.02 0.17363-0.0598 0.23151l-0.0998 0.36657c-0.0199 0.0772-0.0598 0.15435-0.0799 0.23152l-0.17962 0.32798c-0.0399 0.0772-0.0998 0.15434-0.13972 0.23152l-0.23949 0.28939c-0.0599 0.0578-0.0998 0.0965-0.15967 0.15435l-0.27942 0.23152c-0.0799 0.0578-0.15965 0.11576-0.23949 0.17364l-0.31932 0.17363c-0.0799 0.0386-0.13971 0.0578-0.21955 0.0965l-0.35924 0.11575c-0.0998 0.0193-0.19958 0.0386-0.29938 0.0578l-0.3792 0.0386h-0.27942l-0.3792-0.0386c-0.0799-0.0193-0.17962-0.0386-0.27942-0.0578l-0.35924-0.11575c-0.0799-0.0386-0.15966-0.0578-0.21953-0.0965l-0.31934-0.17363c-0.0799-0.0579-0.15966-0.11576-0.2395-0.17364l-0.27941-0.23152-0.15967-0.15435-0.2395-0.28939c-0.0598-0.0772-0.0998-0.15434-0.1397-0.23152l-0.17962-0.32798c-0.02-0.0772-0.0599-0.15434-0.0798-0.23152l-0.11974-0.36657c-0.0199-0.0578-0.0199-0.13504-0.0399-0.23151zm2.6944 0.13506-0.0399-0.23152 0.0998 0.36657-0.0799-0.21222 0.15966 0.32798-0.13971-0.23152 0.2395 0.2894-0.15965-0.15435 0.27941 0.25082-0.2395-0.17365 0.31933 0.17365-0.21954-0.0965 0.35924 0.11575-0.29938-0.0578 0.37921 0.0386h-0.27942l0.37922-0.0386-0.27942 0.0578 0.35924-0.11575-0.21953 0.0965 0.31933-0.17365-0.2395 0.17365 0.27941-0.25082-0.15966 0.15435 0.23949-0.2894-0.13971 0.23152 0.15968-0.32798-0.0799 0.21222 0.0998-0.36657-0.0399 0.23152 0.0399-0.38585v0.25079l-0.0399-0.40515 0.0598 0.25082-0.11974-0.36658 0.0799 0.21223-0.15967-0.32798 0.1397 0.23151-0.23949-0.2894 0.15966 0.15436-0.27941-0.23152 0.23951 0.15434-0.31934-0.17364 0.21954 0.0965-0.35925-0.11576 0.27943 0.0578-0.37922-0.0386h0.27942l-0.37921 0.0386 0.29938-0.0578-0.35924 0.11576 0.21953-0.0965-0.31933 0.17364 0.2395-0.15434-0.27941 0.23152 0.15965-0.15436-0.23949 0.2894 0.1397-0.23151-0.15966 0.32798 0.0799-0.21223-0.11976 0.36658 0.0598-0.25082-0.0399 0.40515v-0.25079z" stroke="#000" stroke-width=".019623px"/>
  <path id="path3270" stroke-linejoin="round" d="m478.53 425.79v19.442h-1.3172v-19.442h1.3172zm3.333 18.073-3.9917 8.1775-3.9917-8.1775h7.9833z" stroke="#000" stroke-width=".020199px"/>
  <path id="path3272" stroke-linejoin="round" d="m483.4 431.95-10.738 7.6594 0.57879 0.77173 10.738-7.6594z" stroke="#000" stroke-width=".019623px"/>
  <text id="text3274" font-size="10.519px" xml:space="preserve" transform="scale(1.0171 .98319)" y="443.76178" x="459.66232" font-family="Arial" fill="#000000">5</text>
  <path id="path3276" stroke-linejoin="round" d="m602.35 404.03-10.341-0.18379-0.0251 1.2737 10.381 0.1857-0.0148-1.2756zm-8.9804-3.3641-8.0225 3.7128 7.9084 4.0084 0.11404-7.7211z" stroke="#000" stroke-width=".039246px"/>
  <path id="path3278" stroke-linejoin="round" d="m605.85 427v-67.526h-0.99792v67.526z" stroke="#000" stroke-width=".039246px"/>
  <path id="path3280" stroke-linejoin="round" d="m580.66 426.48h24.72v0.96362h-24.72z" stroke="#000" stroke-width=".040886px"/>
  <path id="path3282" stroke-linejoin="round" d="m582 426.87v18.329h-1.3172v-18.329h1.3172zm3.3529 17.055-3.9917 7.7172-3.9917-7.7172h7.9833z" stroke="#000" stroke-width=".039246px"/>
  <path id="path3284" stroke-linejoin="round" d="m586.86 432.28-10.738 7.6787 0.59873 0.77172 10.738-7.6787z" stroke="#000" stroke-width=".039246px"/>
  <text id="text3286" font-size="10.519px" xml:space="preserve" transform="scale(1.0171 .98319)" y="442.73404" x="560.96674" font-family="Arial" fill="#000000">5</text>
  <path id="path3288" stroke-linejoin="round" d="m616.24 348.07h85.256v0.96255h-85.256z" stroke="#000" stroke-width=".041327px"/>
  <path id="path3290" stroke-linejoin="round" d="m699.78 404.49-10.206 0.13617 0.004-1.2786 10.202-0.1746 0.00024 1.3171zm-8.7938 3.3082-8.0746-3.7259 7.9318-3.9704 0.14283 7.6963z" stroke="#000" stroke-width=".039246px"/>
  <path id="path3292" stroke-linejoin="round" d="m701.77 426.08v-78.007h-0.99398v78.007z" stroke="#000" stroke-width=".043173px"/>
  <path id="path3294" stroke-linejoin="round" d="m678.76 426.32h22.705v0.96383h-22.705z" stroke="#000" stroke-width=".040755px"/>
  <path id="path3296" stroke-linejoin="round" d="m684.54 433.35-10.738 7.6787 0.59875 0.77172 10.738-7.6401z" stroke="#000" stroke-width=".039246px"/>
  <text id="text3298" font-size="10.519px" xml:space="preserve" transform="scale(1.0171 .98319)" y="443.1666" x="657.19769" font-family="Arial" fill="#000000">5</text>
  <path id="path3300" stroke-linejoin="round" d="m679.91 427.28v18.368h-1.3172v-18.368h1.3172zm3.313 17.055-3.9917 7.7172-3.9917-7.7172h7.9832z" stroke="#000" stroke-width=".039246px"/>
  <path id="path3302" stroke-linejoin="round" d="m774.08 452.78c0-0.34731 0.28209-0.65602 0.59944-0.65602h51.058c0.35261 0 0.59944 0.30871 0.59944 0.65602v25.547c0 0.34731-0.24683 0.61744-0.59944 0.61744h-51.058c-0.31735 0-0.59944-0.27013-0.59944-0.61744zm1.1635 25.547-0.56418-0.65602h51.058l-0.56417 0.65602v-25.547l0.56417 0.65602h-51.058l0.56418-0.65602z" stroke="#000" stroke-width=".036888px"/>
  <text id="text3304" font-size="13.05px" xml:space="preserve" transform="scale(1.0171 .98319)" y="483.24652" x="772.54291" font-family="Arial" line-height="125%" fill="#000000">MUX</text>
  <path id="path3306" stroke-linejoin="round" d="m762 464.71h12.055v0.96463h-12.055z" stroke="#000" stroke-width=".039246px"/>
  <path id="path3308" stroke-linejoin="round" d="m799.65 478.99v11.807h-1.3572v-11.807h1.3572zm3.313 10.535-3.9917 7.7172-3.9917-7.7172h7.9833z" stroke="#000" stroke-width=".039246px"/>
  <path id="path3310" stroke-linejoin="round" d="m751.37 285.48c0-0.34718 0.40633-0.65578 0.92878-0.65578h54.855c0.52245 0 0.98685 0.3086 0.98685 0.65578v26.887c0 0.34717-0.46437 0.65578-0.98685 0.65578h-54.855c-0.52245 0-0.92878-0.30861-0.92878-0.65578zm1.4074 26.933-0.47872-0.70133h54.855l-0.43555 0.89409 0.0823-27.205 0.35334 0.73521h-54.855l0.52491-0.56461z" stroke="#000" stroke-width=".047321px"/>
  <text id="text3312" font-size="14.355px" xml:space="preserve" transform="scale(1.0171 .98319)" y="308.58661" x="742.40289" font-family="Arial" line-height="125%" fill="#000000">SelCop</text>
  <path id="path3314" fill-rule="evenodd" d="m700.18 404.01c0-1.0804 0.83823-1.9679 1.916-1.9679 1.0378 0 1.8761 0.88747 1.8761 1.9679s-0.83825 1.9294-1.8761 1.9294c-1.0778 0-1.916-0.84889-1.916-1.9294"/>
  <path id="path3316" stroke-linejoin="round" d="m698.22 403.81v-0.23152l0.0399-0.42444c0-0.0772 0.0399-0.15435 0.0399-0.23152l0.11974-0.34728c0.0399-0.0772 0.0399-0.15434 0.0798-0.23151l0.19958-0.30869c0.0399-0.0772 0.0798-0.15435 0.11974-0.23152l0.2395-0.27011c0.0399-0.0772 0.0798-0.11574 0.15967-0.19292l0.27941-0.23152c0.0799-0.0772 0.15967-0.11575 0.2395-0.15434l0.31934-0.19294c0.0799-0.0386 0.15966-0.0386 0.23949-0.0772l0.35925-0.11575c0.0799-0.0386 0.15965-0.0386 0.27941-0.0772l0.35924-0.0386h0.27942l0.39917 0.0386c0.0798 0.0386 0.15965 0.0386 0.27941 0.0772l0.35924 0.11575c0.0798 0.0386 0.15966 0.0386 0.2395 0.0772l0.31933 0.19294c0.0799 0.0386 0.15967 0.0772 0.19959 0.15434l0.2794 0.23152 0.15967 0.15434 0.2395 0.30869c0.0799 0.0772 0.11974 0.15434 0.15966 0.23152l0.15967 0.30869c0.0399 0.0772 0.0798 0.15434 0.0798 0.23151l0.11975 0.34728c0.0399 0.0772 0.0399 0.15434 0.0399 0.23152l0.0399 0.42444c0.0399 0.0772 0.0399 0.15435 0 0.23152l-0.0399 0.38587c0 0.11574 0 0.19292-0.0399 0.2701l-0.11975 0.34727c0 0.0772-0.0399 0.15434-0.0798 0.19292l-0.15967 0.34728c-0.0399 0.0772-0.0798 0.15435-0.15966 0.23152l-0.2395 0.2701c-0.0399 0.0772-0.0799 0.11576-0.15967 0.15435l-0.2794 0.2701c-0.0399 0.0386-0.11976 0.11576-0.19959 0.15434l-0.31933 0.15435c-0.0798 0.0386-0.15966 0.0772-0.2395 0.11575l-0.35924 0.11577c-0.11976 0.0386-0.19958 0.0386-0.27941 0.0386l-0.39917 0.0386c-0.0799 0.0386-0.15966 0.0386-0.27942 0l-0.35924-0.0386c-0.11976 0-0.19958 0-0.27941-0.0386l-0.35925-0.11577c-0.0799-0.0386-0.15967-0.0772-0.23949-0.11575l-0.31934-0.15435c-0.0799-0.0386-0.15966-0.11575-0.2395-0.15434l-0.27941-0.2701c-0.0799-0.0386-0.11974-0.11575-0.15967-0.15435l-0.2395-0.30868c-0.0399-0.0386-0.0798-0.11576-0.11974-0.19294l-0.19958-0.34728c0-0.0386-0.0399-0.11575-0.0798-0.19292l-0.0799-0.34727c-0.0399-0.0772-0.0799-0.15436-0.0799-0.2701zm2.7143 0.15434-0.0799-0.23151 0.11976 0.34728-0.0799-0.19294 0.15966 0.3087-0.11975-0.19294 0.2395 0.2701-0.19958-0.15434 0.27941 0.23151-0.19958-0.15433 0.31934 0.15433-0.2395-0.0772 0.35923 0.11575-0.27941-0.0772 0.35925 0.0386h-0.27942l0.39917-0.0386-0.27941 0.0772 0.35925-0.11575-0.2395 0.0772 0.31932-0.15433-0.23949 0.15433 0.27941-0.23151-0.15966 0.15434 0.2395-0.30869-0.15967 0.23153 0.19959-0.3087-0.0799 0.19294 0.0799-0.34728-0.0399 0.23151 0.0399-0.38586v0.23152l-0.0399-0.38586 0.0399 0.23151-0.11976-0.38586 0.11976 0.23152-0.19959-0.30869 0.15967 0.23152-0.2395-0.30868 0.15966 0.15433-0.27941-0.23151 0.23949 0.15434-0.31932-0.15434 0.2395 0.0772-0.35925-0.11576 0.27941 0.0772-0.39917-0.0386h0.27942l-0.35925 0.0386 0.27941-0.0772-0.35923 0.11576 0.2395-0.0772-0.31934 0.15434 0.19958-0.15434-0.27941 0.23151 0.19958-0.19293-0.2395 0.3087 0.11975-0.19294-0.15966 0.30869 0.0799-0.23152-0.11976 0.38586 0.0799-0.23151-0.0399 0.38586v-0.23152z" stroke="#000" stroke-width=".039246px"/>
  <path id="path3318" stroke-linejoin="round" d="m812.19 341.59 0.27581 105.84-1.3179-0.008-0.27581-105.84 1.3179 0.008zm3.6021 104.76-3.9802 6.2395-4.0078-6.2266 7.988-0.0128z" stroke="#000" stroke-width=".035279px"/>
  <path id="path3320" stroke-linejoin="round" d="m787.41 373.32 0.39919 73.371h-1.3173l-0.4391-73.334 1.3572-0.0375zm3.7123 72.098-3.9519 7.4869-4.0318-7.4495 7.9836-0.0375z" stroke="#000" stroke-width=".038656px"/>
  <text id="text3322" font-size="10.519px" xml:space="preserve" transform="scale(1.0171 .98319)" y="476.04984" x="731.00671" font-family="Arial" fill="#000000">MC</text>
  <path id="path3324" stroke-linejoin="round" d="m816.77 408.31-10.738 7.6787 0.59875 0.77173 10.738-7.6401z" stroke="#000" stroke-width=".039246px"/>
  <path id="path3326" stroke-linejoin="round" d="m793.2 406.9-10.738 7.6401 0.55883 0.81031 10.738-7.6787z" stroke="#000" stroke-width=".039246px"/>
  <text id="text3328" font-size="10.519px" xml:space="preserve" transform="matrix(-.072971 -1.0357 .96056 -.070540 0 0)" line-height="125%" y="779.72406" x="-475.81787" font-family="Arial" fill="#000000"><tspan id="tspan4439" y="779.72406" x="-475.81787">IR3 -- IR0</tspan></text>
  <text id="text3330" font-size="10.519px" xml:space="preserve" transform="scale(1.0171 .98319)" y="419.55252" x="787.45264" font-family="Arial" fill="#000000">4</text>
  <text id="text3332" font-size="10.519px" xml:space="preserve" transform="scale(1.0171 .98319)" y="442.85181" x="429.74255" font-family="Arial" fill="#000000">5</text>
  <text id="text3334" font-size="10.519px" xml:space="preserve" transform="scale(1.0171 .98319)" y="442.33331" x="533.1618" font-family="Arial" fill="#000000">5</text>
  <text id="text3336" font-size="10.519px" xml:space="preserve" transform="scale(1.0171 .98319)" y="442.21982" x="629.55939" font-family="Arial" fill="#000000">5</text>
  <text id="text3338" font-size="9.1051px" xml:space="preserve" transform="scale(1.0171 .98319)" y="468.98151" x="436.71805" font-family="Arial" fill="#000000">0</text>
  <text id="text3340" font-size="9.1051px" xml:space="preserve" transform="scale(1.0171 .98319)" y="469.20438" x="466.70062" font-family="Arial" fill="#000000">1</text>
  <text id="text3342" font-size="13.029px" xml:space="preserve" transform="scale(1.0171 .98319)" y="517.96649" x="547.28632" font-family="Arial" fill="#000000">RB</text>
  <text id="text3344" font-size="13.029px" xml:space="preserve" transform="scale(1.0171 .98319)" y="518.3125" x="643.70508" font-family="Arial" fill="#000000">RC</text>
  <text id="text3346" font-size="13.029px" xml:space="preserve" transform="scale(1.0171 .98319)" y="517.5094" x="447.05911" font-family="Arial" fill="#000000">RA</text>
  <text id="text3348" font-size="13.029px" xml:space="preserve" transform="scale(1.0171 .98319)" y="519.38513" x="774.20026" font-family="Arial" fill="#000000">Cop</text>
  <text id="text3350" font-size="9.1051px" xml:space="preserve" transform="scale(1.0171 .98319)" y="468.98151" x="540.46381" font-family="Arial" fill="#000000">0</text>
  <text id="text3352" font-size="9.1051px" xml:space="preserve" transform="scale(1.0171 .98319)" y="469.20438" x="568.23706" font-family="Arial" fill="#000000">1</text>
  <text id="text3354" font-size="9.1051px" xml:space="preserve" transform="scale(1.0171 .98319)" y="469.33298" x="771.87238" font-family="Arial" fill="#000000">0</text>
  <text id="text3356" font-size="9.1051px" xml:space="preserve" transform="scale(1.0171 .98319)" y="468.9614" x="795.5368" font-family="Arial" fill="#000000">1</text>
  <text id="text3358" font-size="10.44px" xml:space="preserve" transform="scale(1.0171 .98319)" y="193.80321" x="295.29456" font-family="Arial" line-height="125%" fill="#000000">A1</text>
  <text id="text3362" font-size="15.698px" xml:space="preserve" transform="scale(1.0171 .98319)" y="292.30643" x="271.93896" font-family="Arial" fill="#000000">MUX B</text>
  <path id="path3364" stroke-linejoin="round" d="m265.28 307.68c0 0.36659 0.23727 0.656 0.55927 0.656h70.468c0.30505 0 0.55927-0.28941 0.55927-0.656v-41.037c0-0.34729-0.25422-0.6367-0.55927-0.6367h-70.468c-0.322 0-0.55927 0.28941-0.55927 0.6367zm1.1186-41.037-0.55926 0.63669h70.468l-0.55926-0.63669v41.037l0.55926-0.63669h-70.468l0.55926 0.63669z" stroke="#000" stroke-width=".018082px"/>
  <text id="text3366" font-size="9.1051px" xml:space="preserve" transform="scale(1.0171 .98319)" y="307.1806" x="278.21252" font-family="Arial" fill="#000000">0</text>
  <text id="text3368" font-size="9.1051px" xml:space="preserve" transform="scale(1.0171 .98319)" y="307.40341" x="305.98581" font-family="Arial" fill="#000000">1</text>
  <path id="path3477" stroke-linejoin="round" d="m285.46 396.37v-82.246h-1.3372v82.246h1.3372zm3.333-80.954-3.9917-7.7172-3.9917 7.7172h7.9833z" stroke="#000" stroke-width=".019623px"/>
  <path id="path3370" stroke-linejoin="round" d="m285.46 396.37v-82.246h-1.3372v82.246h1.3372zm3.333-80.954-3.9917-7.7172-3.9917 7.7172h7.9833z" stroke="#000" stroke-width=".019623px"/>
  <path id="path3372" stroke-linejoin="round" d="m315.35 326.3v-11.807h-1.3372v11.807h1.3372zm3.313-10.515-3.9917-7.7172-3.9917 7.7172h7.9832z" stroke="#000" stroke-width=".019623px"/>
  <text id="text3374" font-size="10.44px" xml:space="preserve" transform="scale(1.0171 .98319)" y="90.840164" x="235.20253" font-family="Arial" line-height="125%" fill="#000000">00</text>
  <text id="text3376" font-size="10.44px" xml:space="preserve" transform="scale(1.0171 .98319)" y="117.07792" x="235.20253" font-family="Arial" line-height="125%" fill="#000000">01</text>
  <text id="text3378" font-size="10.44px" xml:space="preserve" transform="scale(1.0171 .98319)" y="148.61798" x="234.57762" font-family="Arial" line-height="125%" fill="#000000">10</text>
  <text id="text3380" font-size="10.44px" xml:space="preserve" transform="scale(1.0171 .98319)" y="177.05315" x="235.20253" font-family="Arial" line-height="125%" fill="#000000">11</text>
  <path id="path3382" fill-rule="evenodd" fill="#fff" d="m307.23 346.36 7.5441-14.586 7.5442 14.586z"/>
  <path id="path3384" stroke-linejoin="round" d="m307.23 343.03c-0.17965 0-0.33933-0.0729-0.43915-0.17479-0.0798-0.11651-0.0998-0.2476-0.02-0.34955l7.5454-11.011c0.0798-0.13108 0.2595-0.2039 0.45911-0.2039 0.17965 0 0.3593 0.0728 0.43916 0.2039l7.5454 11.011c0.0799 0.10195 0.0598 0.23304-0.02 0.34955-0.0998 0.10196-0.2595 0.17479-0.41918 0.17479zm15.091-0.72823-0.45911 0.52434-7.5454-11.011h0.89826l-7.5454 11.011-0.43914-0.52434z" stroke="#000" stroke-width=".017051px"/>
  <path id="path3386" fill-rule="evenodd" fill="#fff" d="m310.88 328.62c0-2.0065 1.6964-3.6463 3.772-3.6463 2.0956 0 3.772 1.6398 3.772 3.6463s-1.6765 3.6463-3.772 3.6463c-2.0757 0-3.772-1.6398-3.772-3.6463"/>
  <path id="path3388" stroke-linejoin="round" d="m310.4 328.69c-0.02-0.0386-0.02-0.0772 0-0.11576l0.0799-0.73314c0-0.0193 0-0.0578 0.0199-0.0772l0.21954-0.69455c0-0.0193 0.02-0.0578 0.02-0.0772l0.33928-0.61737c0.0199-0.0386 0.0399-0.0578 0.0598-0.0965l0.479-0.54022 0.0599-0.0578 0.55883-0.44374c0.02-0.0193 0.0599-0.0386 0.0798-0.0386l0.63867-0.34728c0.0199-0.0193 0.0598-0.0193 0.0998-0.0386l0.69853-0.21223c0.0399 0 0.0599-0.0193 0.0998-0.0193l0.7584-0.0772h0.0998l0.7584 0.0772c0.0399 0 0.0599 0.0193 0.0998 0.0193l0.69854 0.21223c0.0399 0.0193 0.0599 0.0193 0.0998 0.0386l0.63866 0.34728c0.02 0 0.0599 0.0193 0.0798 0.0386l0.55883 0.44374 0.0599 0.0578 0.479 0.54022c0.02 0.0386 0.0399 0.0578 0.0599 0.0965l0.33929 0.61737c0 0.0193 0.02 0.0579 0.02 0.0772l0.21954 0.69455c0.0199 0.0193 0.0199 0.0578 0.0199 0.0772l0.0799 0.73314c0.02 0.0386 0.02 0.0772 0 0.11576l-0.0799 0.73314c0 0.0193 0 0.0578-0.0199 0.0772l-0.21954 0.69455c0 0.0193-0.02 0.0578-0.02 0.0772l-0.33929 0.61739c-0.02 0.0386-0.0399 0.0579-0.0599 0.0965l-0.479 0.54021-0.0599 0.0578-0.55883 0.44375c-0.02 0.0193-0.0599 0.0386-0.0798 0.0578l-0.63866 0.32798c-0.0399 0.0193-0.0598 0.0193-0.0998 0.0386l-0.69854 0.21222c-0.0399 0-0.0599 0.0193-0.0998 0.0193l-0.7584 0.0772h-0.0998l-0.7584-0.0772c-0.0399 0-0.0599-0.0193-0.0998-0.0193l-0.69853-0.21222c-0.0399-0.0193-0.0599-0.0193-0.0998-0.0386l-0.63867-0.32798c-0.02-0.0193-0.0599-0.0386-0.0798-0.0578l-0.55883-0.44375-0.0599-0.0578-0.479-0.54021c-0.02-0.0386-0.0399-0.0578-0.0598-0.0965l-0.33928-0.61739c0-0.0193-0.02-0.0578-0.02-0.0772l-0.21954-0.69455c-0.0199-0.0193-0.0199-0.0578-0.0199-0.0772zm1.0578 0.61738-0.02-0.0772 0.21954 0.67526-0.0199-0.0772 0.33928 0.61739-0.0599-0.0965 0.45904 0.54021-0.0599-0.0579 0.55883 0.46304-0.0798-0.0578 0.63867 0.32798-0.0998-0.0386 0.71851 0.21223-0.0998-0.0193 0.7584 0.0772h-0.0998l0.75842-0.0772-0.0998 0.0193 0.7185-0.21223-0.0998 0.0386 0.63866-0.32798-0.0798 0.0578 0.55883-0.46304-0.0599 0.0579 0.45904-0.54021-0.0598 0.0965 0.33928-0.61739-0.02 0.0772 0.21955-0.67526-0.02 0.0772 0.0798-0.73314v0.11576l-0.0798-0.73313 0.02 0.0772-0.21955-0.67525 0.02 0.0772-0.33928-0.61739 0.0598 0.0965-0.45904-0.54019 0.0599 0.0578-0.55883-0.44373 0.0798 0.0386-0.63866-0.32798 0.0998 0.0386-0.7185-0.21222 0.0998 0.0193-0.75842-0.0772h0.0998l-0.7584 0.0772 0.0998-0.0193-0.71851 0.21222 0.0998-0.0386-0.63867 0.32798 0.0798-0.0386-0.55883 0.44373 0.0599-0.0578-0.45904 0.54019 0.0599-0.0965-0.33928 0.61739 0.0199-0.0772-0.21954 0.67525 0.02-0.0772-0.0799 0.73313v-0.11576z" stroke="#000" stroke-width=".019623px"/>
  <path id="path3390" stroke-linejoin="round" d="m315.57 356.95v-14.586h-0.99792v14.586z" stroke="#000" stroke-width=".019623px"/>
  <path id="path3392" stroke-linejoin="round" d="m284.57 356.23h30.795v0.96463h-30.795z" stroke="#000" stroke-width=".019623px"/>
  <path id="path3394" fill-rule="evenodd" fill="#d9d9d9" d="m444.68 285.04v28.303h16.742v-28.303h-16.742z"/>
  <path id="path3396" stroke-linejoin="round" d="m443.68 285.22c0-0.33623 0.31852-0.6164 0.75079-0.6164h16.903c0.40953 0 0.75077 0.28017 0.75077 0.6164v27.402c0 0.33622-0.34124 0.61638-0.75077 0.61638h-16.903c-0.43227 0-0.75079-0.28016-0.75079-0.61638zm1.5015 27.402-0.75078-0.6164h16.903l-0.77353 0.6164v-27.402l0.77353 0.61639h-16.903l0.75078-0.61639z" stroke="#000" stroke-width=".020615px"/>
  <path id="path3398" fill-rule="evenodd" fill="#d9d9d9" d="m461.66 285.04v28.303h26.405v-28.303h-26.405z"/>
  <path id="path3400" stroke-linejoin="round" d="m460.99 285.22c0-0.33624 0.27942-0.61644 0.65863-0.61644h26.405c0.35924 0 0.65863 0.2802 0.65863 0.61644v27.403c0 0.33624-0.29939 0.61644-0.65863 0.61644h-26.405c-0.37921 0-0.65863-0.2802-0.65863-0.61644zm1.3173 27.403-0.65863-0.61642h26.405l-0.67858 0.61642v-27.403l0.67858 0.61642h-26.405l0.65863-0.61642z" stroke="#000" stroke-width=".019309px"/>
  <path id="path3402" fill-rule="evenodd" fill="#d9d9d9" d="m425.35 285.04v28.303h18.829v-28.303h-18.829z"/>
  <path id="path3404" stroke-linejoin="round" d="m425.04 285.22c0-0.3362 0.35158-0.61638 0.82874-0.61638h18.66c0.45204 0 0.82875 0.28018 0.82875 0.61638v27.401c0 0.3362-0.37671 0.61636-0.82875 0.61636h-18.66c-0.47716 0-0.82874-0.28016-0.82874-0.61636zm1.6575 27.401-0.82877-0.61639h18.66l-0.85386 0.61639v-27.401l0.85386 0.61637h-18.66l0.82877-0.61637z" stroke="#000" stroke-width=".021658px"/>
  <text id="text3406" font-size="11.745px" xml:space="preserve" transform="scale(1.0171 .98319)" y="308.93661" x="420.57544" font-family="Arial" line-height="125%" fill="#000000">A0</text>
  <text id="text3408" font-size="14.355px" xml:space="preserve" transform="scale(1.0171 .98319)" y="309.92535" x="441.19061" font-family="Arial" line-height="125%" fill="#000000">B</text>
  <text id="text3410" font-size="14.355px" xml:space="preserve" transform="scale(1.0171 .98319)" y="309.92535" x="461.30298" font-family="Arial" line-height="125%" fill="#000000">C</text>
  <text id="text3412" font-size="13.029px" xml:space="preserve" transform="scale(1.0171 .98319)" y="258.3688" x="513.83038" font-family="Arial" fill="#000000">µAddress</text>
  <path id="path3414" stroke-linejoin="round" d="m476.58 313.04v30.965h-0.99792v-30.965z" stroke="#000" stroke-width=".019623px"/>
  <path id="path3416" stroke-linejoin="round" d="m553.11 220.27v20.814h-0.99673v-20.814z" stroke="#000" stroke-width=".020790px"/>
  <path id="path3418" stroke-linejoin="round" d="m488.57 282.43 0.0399-2.238 0.11975-2.1223 0.0799-1.0032 0.11976-0.92607 0.11973-0.88748 0.11976-0.77173 0.11975-0.77171 0.15966-0.65596 0.15967-0.5788 0.19958-0.50161 0.15966-0.38586c0.0399-0.0386 0.0399-0.0772 0.0399-0.0772l0.19959-0.27012c0.0399-0.0386 0.0399-0.0772 0.0798-0.0772l0.19959-0.19293c0.0399-0.0386 0.11974-0.0772 0.19958-0.11576l0.19958-0.0386c0.0399-0.0386 0.0799-0.0386 0.11975-0.0386h57.958l-0.15966 0.0386 0.19957-0.0772-0.19957 0.11574 0.19957-0.15433-0.0798 0.0772 0.19958-0.2701-0.0399 0.0772 0.15968-0.38586 0.15966-0.42445 0.15966-0.5402 0.11975-0.61738 0.15967-0.69455 0.11974-0.77173 0.0799-0.84889 0.11976-0.92607 0.0799-0.96463 0.0799-2.0837 0.0399-2.238c0.0399-0.27011 0.23951-0.46304 0.51892-0.46304 0.27942 0 0.47898 0.19293 0.47898 0.46304l0.0399 2.2765 0.11975 2.0451 0.0799 0.96463 0.11975 0.92607 0.0799 0.84889 0.11975 0.77173 0.15967 0.69455 0.11974 0.61738 0.15967 0.5402 0.15966 0.46304 0.15967 0.34727-0.0399-0.0772 0.19958 0.2701-0.0798-0.0772 0.19958 0.15433-0.19958-0.11574 0.19958 0.0772-0.15966-0.0386h57.958c0.0399 0 0.0799 0 0.11975 0.0386l0.19959 0.0386c0.0799 0.0386 0.15966 0.0772 0.19958 0.11576l0.19959 0.19293c0.0399 0 0.0399 0.0386 0.0798 0.0772l0.19958 0.27012s0 0.0386 0.0399 0.0772l0.15967 0.34727 0.19958 0.5402 0.15966 0.5788 0.15966 0.65596 0.11976 0.73313 0.11974 0.81031 0.11975 0.88748 0.11975 0.92607 0.0798 0.96463 0.0799 2.1223 0.0399 2.2766h-0.99792l-0.0399-2.238-0.0799-2.0837-0.0798-0.92607-0.11976-0.92607-0.0798-0.84889-0.11976-0.77173-0.15965-0.73313-0.11976-0.57879-0.15966-0.54021-0.15966-0.46303-0.15967-0.34727 0.0399 0.0772-0.19958-0.27009 0.0798 0.0772-0.19958-0.19292 0.19958 0.11576-0.19958-0.0386h0.15966-57.958-0.11975l-0.19958-0.0772c-0.0799 0-0.15966-0.0386-0.19958-0.11575l-0.19958-0.15436c-0.0399-0.0386-0.0399-0.0772-0.0799-0.0772l-0.19958-0.27011c0-0.0386 0-0.0772-0.0399-0.0772l-0.15966-0.42444-0.19958-0.50162-0.15966-0.57879-0.15967-0.65596-0.11975-0.73315-0.11975-0.8103-0.11974-0.84889-0.11976-0.96463-0.0798-0.96463-0.11976-2.1223-0.0399-2.238h0.99791l-0.0399 2.238-0.0799 2.1223-0.0798 1.0032-0.11976 0.92607-0.11976 0.84889-0.11974 0.8103-0.11975 0.73315-0.15965 0.69454-0.15968 0.57879-0.19958 0.50162-0.15967 0.38586c-0.0399 0-0.0399 0.0386-0.0399 0.0772l-0.19959 0.27011c-0.0399 0-0.0399 0.0386-0.0798 0.0772l-0.19959 0.15436c-0.0399 0.0772-0.11975 0.11575-0.19958 0.11575l-0.19958 0.0772h-0.11974-57.958 0.15966l-0.19958 0.0386 0.19958-0.11576-0.19958 0.19292 0.0798-0.0772-0.19957 0.27009 0.0399-0.0772-0.15967 0.34727-0.15966 0.42444-0.15968 0.54022-0.11974 0.61737-0.15967 0.69455-0.11974 0.77173-0.0798 0.88747-0.11974 0.88749-0.0799 0.96463-0.11973 2.0837-0.0399 2.238z" stroke="#000" stroke-width=".039246px"/>
  <path id="path3420" stroke-linejoin="round" d="m452.71 313.35v13.544l0.60436-0.65598h-61.939l0.62268 0.65598v-39.725c0-0.36658-0.27471-0.65597-0.62268-0.65597h-49.028v1.2926h49.028l-0.60438-0.63669v39.725c0 0.34726 0.27471 0.63668 0.60438 0.63668h61.939c0.34799 0 0.6227-0.28942 0.6227-0.63668v-13.544zm-109.14-30.04-7.3257 3.8586 7.3257 3.8586z" stroke="#000" stroke-width=".018797px"/>
  <path id="path3422" stroke-linejoin="round" d="m112.75 497.62c0-0.31687 0.29937-0.55035 0.65862-0.55035h21.715c0.3792 0 0.67858 0.23348 0.67858 0.55035v23.132c0 0.30019-0.29938 0.55036-0.67858 0.55036h-21.715c-0.35925 0-0.65862-0.25017-0.65862-0.55036zm1.3372 23.132-0.67858-0.55036h21.715l-0.65863 0.55036v-23.132l0.65863 0.55037h-21.715l0.67858-0.55037z" stroke="#000" stroke-width=".018244px"/>
  <text id="text3424" font-size="23.547px" xml:space="preserve" transform="scale(1.0171 .98319)" y="526.6496" x="117.92245" font-family="Arial" fill="#ffffff">º</text>
  <path id="path3426" stroke-linejoin="round" d="m134.46 497.62c0-0.31687 0.29938-0.55035 0.65864-0.55035h21.715c0.35924 0 0.65862 0.23348 0.65862 0.55035v23.132c0 0.30019-0.29938 0.55036-0.65862 0.55036h-21.715c-0.35926 0-0.65864-0.25017-0.65864-0.55036zm1.3372 23.132-0.67857-0.55036h21.715l-0.65863 0.55036v-23.132l0.65863 0.55037h-21.715l0.67857-0.55037z" stroke="#000" stroke-width=".018244px"/>
  <path id="path3428" stroke-linejoin="round" d="m156.17 497.62c0-0.31687 0.29939-0.55035 0.65863-0.55035h21.715c0.35925 0 0.65863 0.23348 0.65863 0.55035v23.132c0 0.30019-0.29938 0.55036-0.65863 0.55036h-21.715c-0.35924 0-0.65863-0.25017-0.65863-0.55036zm1.3172 23.132-0.65862-0.55036h21.715l-0.65863 0.55036v-23.132l0.65863 0.55037h-21.715l0.65862-0.55037z" stroke="#000" stroke-width=".018244px"/>
  <path id="path3430" stroke-linejoin="round" d="m224.59 497.62c0-0.31687 0.29938-0.55035 0.65863-0.55035h21.715c0.35926 0 0.65863 0.23348 0.65863 0.55035v23.132c0 0.30019-0.29937 0.55036-0.65863 0.55036h-21.715c-0.35925 0-0.65863-0.25017-0.65863-0.55036zm1.3372 23.132-0.67859-0.55036h21.715l-0.65861 0.55036v-23.132l0.65861 0.55037h-21.715l0.67859-0.55037z" stroke="#000" stroke-width=".018244px"/>
  <path id="path3432" stroke-linejoin="round" d="m246.31 497.62c0-0.31687 0.29938-0.55035 0.65862-0.55035h21.715c0.35925 0 0.65861 0.23348 0.65861 0.55035v23.132c0 0.30019-0.29936 0.55036-0.65861 0.55036h-21.715c-0.35924 0-0.65862-0.25017-0.65862-0.55036zm1.3172 23.132-0.65863-0.55036h21.715l-0.67857 0.55036v-23.132l0.67857 0.55037h-21.715l0.65863-0.55037z" stroke="#000" stroke-width=".018244px"/>
  <text id="text3434" font-size="13.029px" line-height="125%" transform="scale(1.0171 .98319)" y="522.48816" x="117.47679" font-family="Arial" xml:space="preserve" fill="#000000"><tspan id="tspan3657" x="117.47679" y="522.48816">C</tspan></text>
  <text id="text3436" font-size="13.029px" line-height="125%" transform="scale(1.0171 .98319)" y="522.48816" x="139.34598" font-family="Arial" xml:space="preserve" fill="#000000"><tspan id="tspan3655" x="139.34598" y="522.48816">V</tspan></text>
  <text id="text3438" font-size="13.029px" line-height="125%" transform="scale(1.0171 .98319)" y="522.48816" x="160.66257" font-family="Arial" xml:space="preserve" fill="#000000"><tspan id="tspan3653" x="160.66257" y="522.48816">N</tspan></text>
  <text id="text3440" font-size="13.029px" xml:space="preserve" transform="scale(1.0171 .98319)" y="522.48816" x="230.64668" font-family="Arial" fill="#000000">I</text>
  <text id="text3442" font-size="13.029px" xml:space="preserve" transform="scale(1.0171 .98319)" y="522.48816" x="248.78838" font-family="Arial" fill="#000000">U</text>
  <path id="path3444" stroke-linejoin="round" d="m177.89 497.62c0-0.31687 0.27942-0.55035 0.65863-0.55035h46.702c0.3792 0 0.67858 0.23348 0.67858 0.55035v23.132c0 0.30019-0.29938 0.55036-0.67858 0.55036h-46.702c-0.37921 0-0.65863-0.25017-0.65863-0.55036zm1.3172 23.132-0.65864-0.55036h46.702l-0.65862 0.55036v-23.132l0.65862 0.55037h-46.702l0.65864-0.55037z" stroke="#000" stroke-width=".018244px"/>
  <text id="text3446" font-size="10.44px" xml:space="preserve" transform="scale(1.0171 .98319)" y="541.45642" x="117.04807" font-family="Arial" line-height="125%" fill="#000000">31</text>
  <text id="text3448" font-size="10.44px" xml:space="preserve" transform="scale(1.0171 .98319)" y="541.45642" x="137.45692" font-family="Arial" line-height="125%" fill="#000000">30</text>
  <text id="text3450" font-size="10.44px" xml:space="preserve" transform="scale(1.0171 .98319)" y="541.45642" x="158.97403" font-family="Arial" line-height="125%" fill="#000000">29</text>
  <text id="text3452" font-size="10.44px" xml:space="preserve" transform="scale(1.0171 .98319)" y="541.45642" x="228.91896" font-family="Arial" line-height="125%" fill="#000000">1</text>
  <text id="text3454" font-size="11.745px" xml:space="preserve" transform="scale(1.0171 .98319)" y="480.11877" x="264.15973" font-family="Arial" line-height="125%" fill="#000000">MRdy</text>
  <text id="text3456" font-size="11.745px" xml:space="preserve" transform="scale(1.0171 .98319)" y="500.46057" x="287.53641" font-family="Arial" line-height="125%" fill="#000000">IORdy</text>
  <text id="text3458" font-size="11.745px" xml:space="preserve" transform="scale(1.0171 .98319)" y="480.5759" x="316.54779" font-family="Arial" line-height="125%" fill="#000000">INT</text>
  <text id="text3460" font-size="10.44px" xml:space="preserve" transform="scale(1.0171 .98319)" y="440.69299" x="163.15073" font-family="Arial" line-height="125%" fill="#000000">7</text>
  <text id="text3462" font-size="10.44px" xml:space="preserve" transform="scale(1.0171 .98319)" y="440.69299" x="183.64793" font-family="Arial" line-height="125%" fill="#000000">6</text>
  <text id="text3464" font-size="10.44px" xml:space="preserve" transform="scale(1.0171 .98319)" y="440.90088" x="229.29305" font-family="Arial" line-height="125%" fill="#000000">5</text>
  <text id="text3466" font-size="10.44px" xml:space="preserve" transform="scale(1.0171 .98319)" y="440.69299" x="250.26091" font-family="Arial" line-height="125%" fill="#000000">4</text>
  <text id="text3468" font-size="10.44px" xml:space="preserve" transform="scale(1.0171 .98319)" y="440.69299" x="278.21417" font-family="Arial" line-height="125%" fill="#000000">3</text>
  <text id="text3470" font-size="10.44px" xml:space="preserve" transform="scale(1.0171 .98319)" y="440.69299" x="300.98346" font-family="Arial" line-height="125%" fill="#000000">2</text>
  <text id="text3472" font-size="10.44px" xml:space="preserve" transform="scale(1.0171 .98319)" y="440.69299" x="322.4068" font-family="Arial" line-height="125%" fill="#000000">1</text>
  <text id="text3474" font-size="10.44px" xml:space="preserve" transform="scale(1.0171 .98319)" y="440.69299" x="344.56708" font-family="Arial" line-height="125%" fill="#000000">0</text>
  <text id="text3476" font-size="10.44px" xml:space="preserve" transform="scale(1.0171 .98319)" y="440.69299" x="140.94116" font-family="Arial" line-height="125%" fill="#000000">8</text>
  <path id="path3478" stroke-linejoin="round" d="m102.43 356.16 0.0384 2.0104 0.11531 1.8705 0.0769 0.87407 0.0769 0.82162 0.11531 0.78667 0.11532 0.71674 0.13462 0.64681 0.13462 0.59437 0.15392 0.50697 0.17305 0.4545 0.19229 0.36713c0 0.0176 0.0191 0.035 0.0191 0.0525l0.17306 0.24473c0.0384 0.035 0.0578 0.07 0.0962 0.0875l0.17308 0.15732c0.0578 0.035 0.11531 0.0699 0.17306 0.0875l0.19228 0.0525c0.0384 0.0176 0.0962 0.0176 0.13462 0.0176h52.341l-0.15375-0.0176 0.19229 0.0525-0.17307-0.0875 0.17307 0.13985-0.0769-0.0875 0.17306 0.24472 0.13462 0.27972 0.13461 0.3671 0.15376 0.48949 0.13461 0.54192 0.11532 0.62933 0.11532 0.68178 0.11531 0.7517 0.0769 0.80415 0.0769 0.85658 0.11531 1.853 0.0193 1.9754c0.0191 0.24474 0.23075 0.43704 0.48072 0.43704 0.26919 0 0.48071-0.1923 0.48071-0.43704l0.0385-1.9928 0.11532-1.8356 0.0769-0.85658 0.0769-0.82164 0.11532-0.73421 0.11531-0.69926 0.13462-0.62932 0.11532-0.55941 0.15391-0.472 0.15376-0.38458 0.15375-0.29721-0.0385 0.0525 0.17304-0.24474-0.0768 0.0875 0.17305-0.13985-0.17305 0.0875 0.17305-0.0525-0.13462 0.0175h52.341c0.0577 0 0.0962 0 0.13462-0.0175l0.19229-0.0525c0.0576-0.0175 0.11531-0.0525 0.17305-0.0875l0.1923-0.15731c0.0194-0.0175 0.0576-0.0525 0.0769-0.0875l0.17305-0.24473c0.0191-0.0176 0.0191-0.035 0.0385-0.0525l0.15391-0.33217 0.19228-0.45451 0.15376-0.52443 0.13462-0.59438 0.13461-0.66429 0.13463-0.69925 0.0962-0.78668 0.0962-0.82161 0.0769-0.8741 0.0962-1.8705 0.0385-2.0278h-0.96144l-0.0385 1.9754-0.0962 1.853-0.0768 0.8566-0.0769 0.80413-0.1153 0.75171-0.11532 0.69927-0.11532 0.61186-0.13461 0.55939-0.15376 0.45452-0.13461 0.38458-0.17307 0.33216 0.0385-0.0525-0.17307 0.24474 0.0769-0.0874-0.17308 0.13985 0.17308-0.0875-0.1923 0.0525 0.15375-0.0176h-52.341c-0.0576 0-0.0962 0-0.15376 0.0176l-0.17305 0.0525c-0.0577 0.0175-0.13463 0.0525-0.17308 0.0875l-0.19229 0.15733c-0.0191 0.0176-0.0576 0.0525-0.0768 0.0875l-0.17305 0.24474c-0.0193 0.0175-0.0193 0.035-0.0385 0.0525l-0.17306 0.36712-0.17305 0.45452-0.15376 0.52445-0.15375 0.57688-0.11532 0.64682-0.13462 0.71672-0.0962 0.78668-0.0962 0.82164-0.0769 0.87406-0.11531 1.888-0.0385 1.9928h0.96145l-0.0385-2.0104-0.0962-1.888-0.0769-0.85658-0.0962-0.83913-0.0962-0.76919-0.11532-0.73422-0.15393-0.6468-0.13461-0.59437-0.15376-0.50697-0.17303-0.472-0.21156-0.38458-0.17304-0.24475c-0.0191-0.035-0.0576-0.07-0.0769-0.0875l-0.19228-0.15732c-0.0578-0.035-0.11531-0.0699-0.17308-0.0875l-0.19229-0.0525c-0.0385-0.0175-0.0769-0.0175-0.13462-0.0175h-52.341l0.15375 0.0175-0.19229-0.0525 0.19229 0.0875-0.19229-0.13985 0.0769 0.0875-0.17304-0.24475 0.0384 0.0525-0.13461-0.29717-0.15376-0.38461-0.15392-0.47199-0.13462-0.55941-0.11532-0.62933-0.13462-0.68177-0.0962-0.75171-0.0962-0.82162-0.0769-0.83912-0.0962-1.853-0.0384-1.9928z" stroke="#000" stroke-width=".018335px"/>
  <path id="path3480" stroke-linejoin="round" d="m237.09 497.69v-54.487h-1.3172v54.487h1.3172zm3.3331-53.399-3.9917-6.4904-3.9917 6.4904h7.9832z" stroke="#000" stroke-width=".017996px"/>
  <path id="path3482" stroke-linejoin="round" d="m258.31 497.69v-54.487h-1.3372v54.487h1.3372zm3.3132-53.399-3.9917-6.4904-3.9917 6.4904h7.9833z" stroke="#000" stroke-width=".017996px"/>
  <path id="path3484" stroke-linejoin="round" d="m147.14 497.9v-54.466h-1.3373v54.466h1.3373zm3.3132-53.396-3.9917-6.4899-3.9917 6.4899h7.9834z" stroke="#000" stroke-width=".017996px"/>
  <path id="path3486" stroke-linejoin="round" d="m169.16 497.9v-54.466h-1.3373v54.466h1.3373zm3.3132-53.396-3.9917-6.4899-3.9917 6.4899h7.9834z" stroke="#000" stroke-width=".017996px"/>
  <path id="path3488" stroke-linejoin="round" d="m190.63 497.96v-54.487h-1.3172v54.487h1.3172zm3.3331-53.399-3.9917-6.4904-3.9917 6.4904h7.9832z" stroke="#000" stroke-width=".017996px"/>
  <path id="path3490" stroke-linejoin="round" d="m651.64 417.37v28.527h-1.3171v-28.527h1.3171zm3.3527 27.158-3.9914 8.2925-3.9914-8.2925h7.9827z" stroke="#000" stroke-width=".040681px"/>
  <path id="path3492" stroke-linejoin="round" d="m553.12 415.86v29.103h-1.337v-29.103h1.337zm3.3126 27.708-3.9912 8.4604-3.9912-8.4604h7.9823z" stroke="#000" stroke-width=".020545px"/>
  <path id="path3494" stroke-linejoin="round" d="m447.42 416.51v29.183h-1.3371v-29.183h1.3371zm3.3328 27.784-3.9914 8.4832-3.9914-8.4832h7.9827z" stroke="#000" stroke-width=".020573px"/>
  <path id="path3496" stroke-linejoin="round" d="m410.07 418.38h-34.949v1.274h34.949v-1.274zm-34.096-3.2236-5.0908 3.8605 5.0908 3.8606v-7.7211z" stroke="#000" stroke-width=".015674px"/>
  <path id="path3498" stroke-linejoin="round" d="m409.54 343.62h66.549v0.96246h-66.549z" stroke="#000" stroke-width=".021887px"/>
  <path id="path3500" stroke-linejoin="round" d="m157.78 220.37h395.05v1.1689h-395.05z" stroke="#000" stroke-width=".021044px"/>
  <path id="path3502" stroke-linejoin="round" d="m563.18 359.44h43.095v0.96554h-43.095z" stroke="#000" stroke-width=".038969px"/>
  <path id="path3504" stroke-linejoin="round" d="m122.07 142.74h103.64v1.2832h-103.64v-1.2832zm102.62-3.2128 6.0811 3.8592-6.0811 3.8592v-7.7185z" stroke="#000" stroke-width=".0085638px"/>
  <text id="text3346-5" font-size="22.5px" xml:space="preserve" transform="scale(1.0171 .98319)" y="63.868179" x="710.67487" font-family="Arial" line-height="125%" fill="#134ece">back to CPU</text>
  <path id="path3118-3" stroke-linejoin="round" d="m394.22 183.58v-13.447h-1.3372v13.447h1.3372zm3.313-12.154-3.9917-7.7172-3.9917 7.7172h7.9833z" stroke="#000" stroke-width=".019623px"/>
  <path id="path3042-5" stroke-linejoin="round" d="m364.6 198.26h11.296v0.96463h-11.296z" stroke="#000" stroke-width=".039246px"/>
  <path id="path3044-3" stroke-linejoin="round" d="m388.38 198.26h11.296v0.96463h-11.296z" stroke="#000" stroke-width=".039246px"/>
  <path id="path3046-8" stroke-linejoin="round" d="m410.97 198.26h11.296v0.96463h-11.296z" stroke="#000" stroke-width=".039246px"/>
  <path id="path3048-7" stroke-linejoin="round" d="m376.17 186.91h12.175v0.96463h-12.175z" stroke="#000" stroke-width=".039246px"/>
  <path id="path3050-6" stroke-linejoin="round" d="m376.68 199.06v-12h-0.99792v12z" stroke="#000" stroke-width=".039246px"/>
  <path id="path3052-7" stroke-linejoin="round" d="m388.54 199.06v-12.309h-0.99792v12.309z" stroke="#000" stroke-width=".039246px"/>
  <path id="path3054-4" stroke-linejoin="round" d="m399.83 199.06v-12.309h-0.99792v12.309z" stroke="#000" stroke-width=".039246px"/>
  <path id="path3056-8" stroke-linejoin="round" d="m412.01 198.76v-12h-0.99792v12z" stroke="#000" stroke-width=".039246px"/>
  <path id="path3058-1" stroke-linejoin="round" d="m399.08 186.91h12.454v0.96463h-12.454z" stroke="#000" stroke-width=".039246px"/>
  <path id="path3022-6" stroke-linejoin="round" d="m102.43 295.38c0 0.17614 0.43915 0.31895 0.98077 0.31895h116.26c0.54161 0 0.98077-0.14281 0.98077-0.31895v-52.227c0-0.17615-0.43914-0.31899-0.98077-0.31899h-116.26c-0.54162 0-0.98077 0.14284-0.98077 0.31899zm1.9614-52.227-0.98076 0.31898h116.26l-0.98077-0.31898v52.227l0.98077-0.31899h-116.26l0.98076 0.31899z" stroke="#000" stroke-width=".0083482px"/>
  <path id="path3100-8" stroke-linejoin="round" d="m122.21 141.92-0.12473 101.53h1.043l0.12471-101.53z" stroke="#000" stroke-width=".011840px"/>
  <path id="path3100-9" stroke-linejoin="round" d="m426.51 36.727-0.11971 79.082h0.99758l0.1197-79.082z" stroke="#000" stroke-width=".010220px"/>
  <path id="path3100-8-5" stroke-linejoin="round" d="m881.43 272.61-0.12533 27.383h1.0481l0.12533-27.383z" stroke="#000" stroke-width=".0061642px"/>
  <text id="text3172-1" font-size="14.355px" xml:space="preserve" transform="scale(1.0171 .98319)" y="309.92535" x="634.94434" font-family="Arial" line-height="125%" fill="#000000"><tspan id="tspan4412" y="309.92535" x="634.94434">MR</tspan></text>
  <path id="path3180-5" stroke-linejoin="round" d="m639.84 285.47c0-0.34739 0.1734-0.65616 0.42112-0.65616h33.738c0.22295 0 0.39633 0.30877 0.39633 0.65616v26.902c0 0.34738-0.17338 0.65616-0.39633 0.65616h-33.738c-0.24772 0-0.42112-0.30878-0.42112-0.65616zm0.81745 26.902-0.39633-0.65616h33.738l-0.42109 0.65616v-26.902l0.42109 0.65615h-33.738l0.39633-0.65615z" stroke="#000" stroke-width=".030921px"/>
  <text id="text3172-1-5" font-size="14.355px" xml:space="preserve" transform="scale(1.0171 .98319)" y="309.92535" x="668.28125" font-family="Arial" line-height="125%" fill="#000000"><tspan id="tspan4435" y="309.92535" x="668.28125">MC</tspan></text>
  <path id="path3180-5-7" stroke-linejoin="round" d="m673.75 285.43c0-0.34738 0.1734-0.65616 0.42112-0.65616h33.738c0.22295 0 0.39633 0.30878 0.39633 0.65616v26.902c0 0.34738-0.17338 0.65616-0.39633 0.65616h-33.738c-0.24772 0-0.42112-0.30878-0.42112-0.65616zm0.81745 26.902-0.39633-0.65616h33.738l-0.42109 0.65616v-26.902l0.42109 0.65615h-33.738l0.39633-0.65615z" stroke="#000" stroke-width=".030921px"/>
  <text id="text4138" font-size="12.666px" xml:space="preserve" transform="scale(1.0822 .92405)" y="205.2047" x="385.50473" font-family="Arial" line-height="125%" fill="#000000"><tspan id="tspan4140" y="205.2047" x="385.50473">CLK</tspan></text>
  <path id="path3110-0" stroke-linejoin="round" d="m131.98 318.32-14.901 6.263 0.41801 0.90127 14.882-6.272z" stroke="#000" stroke-width=".019623px"/>
  <text id="text3112-0" xml:space="preserve" transform="scale(1.0171 .98319)" line-height="125%" font-size="10.519px" y="325.94598" x="113.65897" font-family="Arial" fill="#000000"><tspan id="tspan6982">6</tspan></text>
  <path id="path3124-2" stroke-linejoin="round" d="m203.26 332.57v-29.199h1.2926v29.199h-1.2926zm-3.2122-27.711 3.8586-8.9533 3.8586 8.9533h-7.7172z" stroke="#000" stroke-width=".010390px"/>
  <path id="path3124-2-4" stroke-linejoin="round" d="m124.49 332.57v-29.199h1.2926v29.199h-1.2926zm-3.2122-27.711 3.8586-8.9533 3.8586 8.9533h-7.7172z" stroke="#000" stroke-width=".010390px"/>
  <text id="text3112-0-4" font-size="10.519px" xml:space="preserve" transform="scale(1.0171 .98319)" y="325.58627" x="191.69522" font-family="Arial" fill="#000000">4</text>
  <path id="path3110-0-7" stroke-linejoin="round" d="m211.11 318.18-14.901 6.263 0.41801 0.90126 14.882-6.272z" stroke="#000" stroke-width=".019623px"/>
  <path id="path3310-3" stroke-linejoin="round" d="m806.84 285.35c0-0.34716 0.44691-0.65572 1.0215-0.65572h60.334c0.57462 0 1.0854 0.30856 1.0854 0.65572v26.885c0 0.34715-0.51074 0.65572-1.0854 0.65572h-60.334c-0.5746 0-1.0215-0.30857-1.0215-0.65572zm1.548 26.93-0.52653-0.70127h60.334l0.0325 0.43099-0.23425-26.436 0.20168 0.43099h-60.334l0.57734-0.56456z" stroke="#000" stroke-width=".049626px"/>
  <text id="text3312-6" font-size="14.355px" xml:space="preserve" transform="scale(1.0171 .98319)" y="309.92542" x="797.91797" font-family="Arial" line-height="125%" fill="#000000"><tspan id="tspan3945" y="309.92542" x="797.91797">ExCode</tspan></text>
  <path id="path3324-5" stroke-linejoin="round" d="m850.76 408.11-10.738 7.6787 0.59882 0.77173 10.738-7.6401z" stroke="#000" stroke-width=".039246px"/>
  <text id="text3330-3" font-size="10.519px" xml:space="preserve" transform="scale(1.0171 .98319)" y="419.34839" x="820.86353" font-family="Arial" fill="#000000">4</text>
  <path id="path3131-3" stroke-linejoin="round" d="m852.05 500.4c0.22457 0 0.41459 0.1216 0.51824 0.3127 0.0864 0.19109 0.0691 0.41693-0.0518 0.59065l-7.6354 10.719c-0.10366 0.15634-0.29367 0.2432-0.46642 0.2432-0.19001 0-0.36277-0.0869-0.46642-0.2432l-7.6526-10.719c-0.12093-0.17372-0.1382-0.39956-0.0346-0.59065 0.0864-0.1911 0.29367-0.3127 0.50096-0.3127zm-15.288 1.1465 0.46642-0.9207 7.6526 10.719h-0.93289l7.6354-10.719 0.4664 0.9207z" stroke="#000" stroke-width=".017324px"/>
  <path id="path3133-6" stroke-linejoin="round" d="m859.23 506.76h-11.072v-0.8686h11.072z" stroke="#000" stroke-width=".93898px"/>
  <path id="path3139-7" stroke-linejoin="round" d="m843.52 482.56v13.329h1.1576v-13.329h-1.1576zm-2.8682 12.346 3.4557 5.8654 3.4557-5.8654h-6.9113z" stroke="#000" stroke-width=".015917px"/>
  <text id="text3147-5" font-size="11.521px" xml:space="preserve" transform="scale(.99720 1.0028)" line-height="125%" y="508.06128" x="864.70062" font-family="Arial" fill="#000000"><tspan id="tspan4426" y="508.06128" x="864.70062">T11</tspan></text>
  <path id="path3081-3" stroke-linejoin="round" d="m844.66 484.12v-171.27h-1.0276v171.27z" stroke="#000" stroke-width=".037466px"/>
  <path id="path3428-3" stroke-linejoin="round" d="m177.98 497.69c0-0.31688 0.29938-0.55036 0.65862-0.55036h21.715c0.35926 0 0.65863 0.23348 0.65863 0.55036v23.132c0 0.3002-0.29937 0.55036-0.65863 0.55036h-21.715c-0.35924 0-0.65862-0.25016-0.65862-0.55036zm1.3172 23.132-0.65863-0.55036h21.715l-0.65862 0.55036v-23.132l0.65862 0.55036h-21.715l0.65863-0.55036z" stroke="#000" stroke-width=".018244px"/>
  <text id="text3438-6" font-size="13.029px" xml:space="preserve" transform="scale(1.0171 .98319)" y="522.57526" x="182.7285" font-family="Arial" fill="#000000">Z</text>
  <text id="text3450-7" font-size="10.44px" xml:space="preserve" transform="scale(1.0171 .98319)" y="541.54352" x="180.41505" font-family="Arial" line-height="125%" fill="#000000"><tspan id="tspan3651" y="541.54352" x="180.41505">28</tspan></text>
  <text id="text3476-8" font-size="10.44px" xml:space="preserve" transform="scale(1.0171 .98319)" y="440.44897" x="119.77416" font-family="Arial" line-height="125%" fill="#000000"><tspan id="tspan3677" y="440.44897" x="119.77416">9</tspan></text>
  <path id="path3484-9" stroke-linejoin="round" d="m125.41 497.46v-54.466h-1.3373v54.466h1.3373zm3.3132-53.396-3.9917-6.4899-3.9917 6.4899h7.9834z" stroke="#000" stroke-width=".017996px"/>
  <text id="text3476-8-6" font-size="10.44px" xml:space="preserve" transform="scale(1.0171 .98319)" y="440.65686" x="93.813049" font-family="Arial" line-height="125%" fill="#000000"><tspan id="tspan3700" y="440.65686" x="93.813049">10</tspan></text>
  <path id="path3108-3" stroke-linejoin="round" d="m102.42 459.33v-15.724h-1.3373v15.724h1.3373zm3.3331-14.628-3.9917-6.545-3.9917 6.545h7.9834z" stroke="#000" stroke-width=".018070px"/>
  <path id="path3260-3" stroke-linejoin="round" d="m68.555 460.28 0.60517-190.66-0.73794-0.0326-0.60512 190.71z" stroke="#000" stroke-width=".21936px"/>
  <path id="path3260-3-8" stroke-linejoin="round" d="m68.01 269.6 34.408-0.15812-0.01-1.1753-34.416 0.15847z" stroke="#000" stroke-width=".011760px"/>
  <path id="path3260-3-8-6" stroke-linejoin="round" d="m68.177 460.23 34.228-0.15814-0.01-1.1755-34.237 0.1585z" stroke="#000" stroke-width=".011730px"/>
  <text id="text3038-0" font-size="15.698px" line-height="125%" transform="scale(1.0171 .98319)" y="265.50177" x="59.774734" font-family="Arial" xml:space="preserve" fill="#000000"><tspan id="tspan3777" y="265.50177" x="59.774734">InEx</tspan></text>
  <path id="path3232-6" stroke-linejoin="round" d="m783.77 341.94v-29.266h-1.0059v29.266z" stroke="#000" stroke-width=".031286px"/>
  <path id="path3502-6" stroke-linejoin="round" d="m782.69 341.76h28.802v0.97254h-28.802z" stroke="#000" stroke-width=".031973px"/>
 </g>
</svg>
