<?xml version="1.0" encoding="UTF-8" standalone="no"?>
<svg id="svg2996" xmlns:rdf="http://www.w3.org/1999/02/22-rdf-syntax-ns#" xmlns="http://www.w3.org/2000/svg" height="100%" viewBox="47 15 845 545" width="100%" version="1.0" preserveAspectRatio="xMinYMin meet" xmlns:cc="http://creativecommons.org/ns#" xmlns:dc="http://purl.org/dc/elements/1.1/">
 <metadata id="metadata3508">
  <rdf:RDF>
   <cc:Work rdf:about="">
    <dc:format>image/svg+xml</dc:format>
    <dc:type rdf:resource="http://purl.org/dc/dcmitype/StillImage"/>
    <dc:title/>
   </cc:Work>
  </rdf:RDF>
 </metadata>
 <text id="text3611" style="word-spacing:0px;letter-spacing:0px" transform="scale(.99998 1)" xml:space="preserve" font-size="13.289px" y="350.36798" x="139.88812" font-family="sans-serif" line-height="125%" fill="#000000"><tspan id="tspan3615" y="342.36798" x="121.88812"/></text>
 <g id="g4821" transform="matrix(1.0167 0 0 1.0069 -10.677 -1.7854)">
  <path id="path3008" stroke-linejoin="round" d="m468.2 35.31c0-0.62036 0.51947-1.1078 1.1806-1.1078h410.26c0.61391 0 1.1805 0.48742 1.1805 1.1078v110.02c0 0.62035-0.56668 1.1077-1.1805 1.1077h-410.26c-0.66113 0-1.1806-0.48741-1.1806-1.1077zm2.3613 110.02-1.1805-1.1078h410.26l-1.1805 1.1078v-110.02l1.1805 1.1077h-410.26l1.1805-1.1077z" stroke="#000" stroke-width=".045745px"/>
  <text id="text3010" font-size="25.525px" line-height="125%" xml:space="preserve" style="text-decoration-line:underline;text-decoration:underline" transform="scale(1.019 .98137)" y="98.526176" x="571.80731" font-family="Arial" fill="#000000">Control Memory</text>
  <text id="text3012" font-size="17.809px" xml:space="preserve" transform="scale(1.019 .98137)" y="429.67001" x="197.22841" font-family="Arial" fill="#000000">MUX C</text>
  <path id="path3014" stroke-linejoin="round" d="m707.77 144.07v124.11h-1.5417v-124.11h1.5417zm3.7636 122.8-4.5345 7.9662-4.5345-7.9662h9.0688z" stroke="#000" stroke-width=".042498px"/>
  <path id="path3016" stroke-linejoin="round" d="m719.9 208.38-23.861 16.384 0.68049 0.87382 23.817-16.341z" stroke="#000" stroke-width=".044522px"/>
  <text id="text3018" font-size="13.358px" xml:space="preserve" transform="scale(1.019 .98137)" y="221.09914" x="672.13104" font-family="Arial" line-height="125%" fill="#000000"><tspan id="tspan3920" y="221.09914" x="672.13104">80</tspan></text>
  <path id="path3020" stroke-linejoin="round" d="m88.61 328.19c0-0.3197 0.32693-0.5861 0.71926-0.5861h126.06c0.41416 0 0.74108 0.2664 0.74108 0.5861v24.635c0 0.33747-0.32692 0.58611-0.74108 0.58611h-126.06c-0.39233 0-0.71926-0.24864-0.71926-0.58611zm1.4604 24.635-0.74105-0.58613h126.06l-0.71924 0.58613v-24.635l0.71924 0.58611h-126.06l0.74105-0.58611z" stroke="#000" stroke-width=".019676px"/>
  <path id="path3024" stroke-linejoin="round" d="m222.41 174.43c0 0.286 0.29891 0.52435 0.67749 0.52435h113.16c0.37858 0 0.67746-0.23835 0.67746-0.52435v-130.94c0-0.30192-0.29888-0.54027-0.67746-0.54027h-113.16c-0.37858 0-0.67749 0.23835-0.67749 0.54027zm1.3351-130.94-0.65759 0.5244h113.16l-0.65758-0.5244v130.94l0.65758-0.5244h-113.16l0.65759 0.5244z" stroke="#000" stroke-width=".017794px"/>
  <path id="path3026" stroke-linejoin="round" d="m385.33 44.071c0-0.35001 0.34024-0.64168 0.74855-0.64168h29.035c0.4083 0 0.74858 0.29168 0.74858 0.64168v94.617c0 0.34999-0.34028 0.64166-0.74858 0.64166h-29.035c-0.40831 0-0.74855-0.29167-0.74855-0.64166zm1.4971 94.617-0.74856-0.64169h29.035l-0.77128 0.64169v-94.617l0.77128 0.66111h-29.035l0.74856-0.66111z" stroke="#000" stroke-width=".021002px"/>
  <path id="path3028" stroke-linejoin="round" d="m78.035 447.69c0 0.41506 0.32578 0.74277 0.71671 0.74277h309.5c0.39094 0 0.71674-0.32771 0.71674-0.74277v-46.467c0-0.39324-0.3258-0.72092-0.71674-0.72092h-309.5c-0.39093 0-0.71671 0.32768-0.71671 0.72092zm1.4334-46.467-0.71672 0.72094h309.5l-0.7167-0.72094v46.467l0.7167-0.72093h-309.5l0.71672 0.72093z" stroke="#000" stroke-width=".021783px"/>
  <text id="text3030" font-size="20.424px" xml:space="preserve" transform="scale(.99884 1.0012)" y="264.9726" x="110.06387" font-family="Arial" line-height="125%" fill="#000000"><tspan id="tspan4390" y="264.9726" x="110.06387">co2µaddr</tspan></text>
  <path id="path3032" stroke-linejoin="round" d="m88.686 328.19c0-0.3197 0.32695-0.5861 0.74106-0.5861h49.347c0.41413 0 0.71925 0.2664 0.71925 0.5861v24.635c0 0.33747-0.30512 0.58611-0.71925 0.58611h-49.347c-0.41412 0-0.74106-0.24864-0.74106-0.58611zm1.4604 24.635-0.71927-0.58613h49.347l-0.71928 0.58613v-24.635l0.71928 0.58611h-49.347l0.71927-0.58611z" stroke="#000" stroke-width=".019676px"/>
  <text id="text3034" font-size="15.962px" xml:space="preserve" transform="scale(.99884 1.0012)" y="346.41623" x="103.17465" font-family="Arial" line-height="125%" fill="#000000">CO</text>
  <text id="text3036" font-size="17.457px" xml:space="preserve" transform="scale(.99884 1.0012)" y="387.88962" x="123.89581" font-family="Arial" fill="#000000">IR</text>
  <text id="text3038" font-size="17.809px" xml:space="preserve" transform="scale(1.019 .98137)" y="547.69006" x="71.191727" font-family="Arial" fill="#000000">SR</text>
  <path id="path3040" stroke-linejoin="round" d="m89.456 81.956c0 0.27835 0.34028 0.5103 0.74859 0.5103h53.217c0.43103 0 0.7713-0.23196 0.7713-0.5103v-25.345c0-0.27835-0.34027-0.5103-0.7713-0.5103h-53.217c-0.40831 0-0.74858 0.23196-0.74858 0.5103zm1.5199-25.345-0.77126 0.52576h53.217l-0.7486-0.52576v25.345l0.7486-0.51029h-53.217l0.77126 0.51029z" stroke="#000" stroke-width=".018728px"/>
  <g id="g4866" stroke-linejoin="round" stroke="#000" stroke-width=".043902px" transform="matrix(.64164 0 0 .93568 -146.05 68.671)">
   <path id="path3042" d="m828.4 256.34h12.482v1.0922h-12.482z"/>
   <path id="path3044" d="m854.34 256.34h12.482v1.0922h-12.482z"/>
   <path id="path3048" d="m840.5 243.5h13.454v1.0922h-13.454z"/>
   <path id="path3050" d="m841.07 257.26v-13.588h-1.1028v13.588z"/>
   <path id="path3052" d="m854.17 257.26v-13.938h-1.1027v13.938z"/>
   <path id="path3054" d="m866.65 257.26v-13.938h-1.1028v13.938z"/>
   <path id="path3058" d="m865.81 243.5h13.763v1.0922h-13.763z"/>
  </g>
  <path id="path3060" stroke-linejoin="round" d="m320.8 495.1-0.1277-40.982-1.263-0.3817-0.12768 41.363zm3.7621-39.796-4.5325-7.6773-4.2771 7.6773z" stroke="#000" stroke-width=".028832px"/>
  <path id="path3062" stroke-linejoin="round" d="m346.29 471.85v-17.873h-1.5198v17.873h1.5198zm3.7882-16.625-4.5367-7.4468-4.5366 7.4468h9.0734z" stroke="#000" stroke-width=".020549px"/>
  <text id="text3064" font-size="13.324px" xml:space="preserve" transform="scale(1.019 .98137)" y="518.90094" x="359.46191" font-family="Arial" line-height="125%" fill="#000000">0</text>
  <text id="text3066" font-size="11.844px" xml:space="preserve" transform="scale(1.019 .98137)" y="171.52283" x="294.34949" font-family="Arial" line-height="125%" fill="#000000">A0</text>
  <text id="text3068" font-size="19.246px" xml:space="preserve" transform="scale(1.019 .98137)" y="118.50817" x="253.22093" font-family="Arial" line-height="125%" fill="#000000">MUX A</text>
  <text id="text3072" font-size="14.804px" xml:space="preserve" transform="scale(1.019 .98137)" y="198.1855" x="710.02948" font-family="Arial" line-height="125%" fill="#000000">µInstruction</text>
  <text id="text3076" font-size="17.809px" xml:space="preserve" transform="scale(1.019 .98137)" y="200.53381" x="495.1871" font-family="Arial" fill="#000000">MADDR</text>
  <text id="text3080" font-size="17.809px" xml:space="preserve" transform="matrix(0 -.98137 1.019 0 0 0)" y="399.0979" x="-120.93501" font-family="Arial" fill="#000000">µAddr</text>
  <path id="path3082" stroke-linejoin="round" d="m414.56 91.738h49.319v1.4639h-49.319v-1.4639zm48.282-3.6269 6.1843 4.3699-6.1843 4.3699v-8.7399z" stroke="#000" stroke-width=".018380px"/>
  <text id="text3084" font-size="17.809px" xml:space="preserve" transform="scale(1.019 .98137)" y="77.759132" x="104.91479" font-family="Arial" fill="#000000">+1</text>
  <path id="path3086" fill-rule="evenodd" d="m435.53 92.477c0-1.2234 0.97536-2.2065 2.1549-2.2065 1.1796 0 2.1549 0.98305 2.1549 2.2065 0 1.2015-0.97536 2.1847-2.1549 2.1847-1.1796 0-2.1549-0.98309-2.1549-2.1847"/>
  <path id="path3088" stroke-linejoin="round" d="m434.5 92.605v-0.284l0.0456-0.43692c0.0225-0.08739 0.0225-0.17476 0.068-0.284l0.11342-0.39325c0.0226-0.08739 0.068-0.1529 0.0908-0.24028l0.20415-0.37138c0.0455-0.08738 0.0908-0.17478 0.15877-0.26215l0.27219-0.3277c0.0455-0.0437 0.11341-0.10925 0.15879-0.15291l0.31754-0.26215c0.0909-0.08741 0.18147-0.15292 0.2949-0.21846l0.38561-0.19663c0.068-0.0437 0.13609-0.0655 0.22682-0.10924l0.38562-0.13109c0.11342-0.0218 0.22681-0.0437 0.34024-0.0656l0.43097-0.0437h0.31758l0.431 0.0437c0.11341 0.0219 0.20411 0.0437 0.31756 0.0656l0.40826 0.13109c0.0909 0.0437 0.18148 0.06538 0.27221 0.10924l0.36293 0.19663c0.0909 0.06538 0.18145 0.13106 0.24952 0.19662l0.31756 0.26215c0.0679 0.0655 0.13608 0.10925 0.18147 0.17476l0.2722 0.3277c0.068 0.08739 0.11342 0.17478 0.18146 0.26215l0.18146 0.37138c0.0455 0.08738 0.0679 0.15292 0.0908 0.24028l0.13608 0.39325c0.0225 0.10925 0.0456 0.19662 0.0456 0.284l0.0455 0.43692c0.0226 0.10926 0.0226 0.19663 0 0.284l-0.0455 0.45876c0 0.08735-0.0224 0.17477-0.0456 0.26216l-0.13608 0.41508c-0.0225 0.08735-0.0455 0.1529-0.0908 0.24028l-0.18146 0.37138c-0.068 0.08735-0.11344 0.17479-0.18146 0.26218l-0.2722 0.32768c-0.0456 0.06552-0.11341 0.10926-0.18147 0.17477l-0.31756 0.26215c-0.068 0.06552-0.15877 0.1311-0.24952 0.1966l-0.36293 0.19663c-0.0908 0.04368-0.18146 0.0654-0.27221 0.10926l-0.40826 0.13106c-0.11347 0.02184-0.20416 0.04368-0.31756 0.06562l-0.431 0.04368h-0.31758l-0.43097-0.04368c-0.11344-0.02194-0.22683-0.04368-0.34024-0.06562l-0.38562-0.13106c-0.0908-0.04368-0.15877-0.0654-0.22682-0.10926l-0.38561-0.19663c-0.11344-0.06552-0.20416-0.13107-0.2949-0.21844l-0.31754-0.26218c-0.0456-0.04368-0.11342-0.10924-0.15879-0.1529l-0.27219-0.32768c-0.0679-0.08734-0.11343-0.17478-0.15877-0.26218l-0.20415-0.37138c-0.0226-0.08735-0.068-0.15289-0.0908-0.24028l-0.11341-0.41508c-0.0456-0.08734-0.0456-0.17478-0.068-0.26216zm3.0622 0.17476-0.068-0.284 0.13612 0.41509-0.0909-0.24032 0.18146 0.37139-0.15878-0.26216 0.27219 0.32771-0.15878-0.15293 0.2949 0.284-0.2949-0.21847 0.36295 0.1966-0.22684-0.10923 0.40831 0.13107-0.34026-0.06552 0.43099 0.04368h-0.31758l0.43099-0.04368-0.31757 0.06552 0.40828-0.13107-0.2722 0.10923 0.36295-0.1966-0.24953 0.1966 0.31757-0.28397-0.18146 0.17477 0.27221-0.32771-0.18146 0.26216 0.20414-0.37139-0.0908 0.24032 0.11345-0.41509-0.0456 0.284 0.0456-0.45876v0.284l-0.0456-0.43691 0.0456 0.26214-0.11345-0.39322 0.0908 0.24031-0.20414-0.37139 0.18146 0.26216-0.27221-0.32769 0.18146 0.17476-0.31757-0.284 0.24953 0.19661-0.36295-0.19661 0.2722 0.10926-0.40828-0.13109 0.31757 0.06559-0.43099-0.04369h0.31758l-0.43099 0.04369 0.34026-0.06559-0.40831 0.13109 0.22684-0.10926-0.36295 0.19661 0.2949-0.21845-0.2949 0.28399 0.15878-0.15291-0.27219 0.32769 0.15878-0.26216-0.18146 0.37139 0.0909-0.24031-0.13612 0.39322 0.068-0.26214-0.0455 0.43691v-0.284z" stroke="#000" stroke-width=".022261px"/>
  <path id="path3092" stroke-linejoin="round" d="m336.01 93.88h45.477v-1.4639h-45.477v1.4639zm44.601 3.6268 5.235-4.3697-5.235-4.3697v8.7394z" stroke="#000" stroke-width=".016909px"/>
  <path id="path3094" stroke-linejoin="round" d="m277.34 254.18v-72.791h-1.5198v72.791h1.5198zm3.7654-71.349-4.5366-8.7384-4.5367 8.7384h9.0732z" stroke="#000" stroke-width=".022261px"/>
  <path id="path3096" stroke-linejoin="round" d="m436.67 282.4v-54.448c0-0.42407-0.1915-0.77746-0.42126-0.77746h-130.77l0.434 0.77746v-46.601h-0.85519v46.601c0 0.42407 0.1915 0.77748 0.42129 0.77748h130.77l-0.43402-0.77748v54.448zm-128.63-99.471-2.553-9.4238-2.553 9.4238z" stroke="#000" stroke-width=".017343px"/>
  <path id="path3098" stroke-linejoin="round" d="m438.61 23.915h-322.56v1.0877h322.56z" stroke="#000" stroke-width=".026938px"/>
  <path id="path3100" stroke-linejoin="round" d="m116.51 24.674-0.16227 33.194h1.352l0.16226-33.194z" stroke="#000" stroke-width=".0077082px"/>
  <path id="path3102" stroke-linejoin="round" d="m143.27 68.679h71.526v1.4639h-71.526v-1.4639zm70.102-3.6377 8.5664 4.3696-8.5664 4.3696v-8.7392z" stroke="#000" stroke-width=".010815px"/>
  <path id="path3104" stroke-linejoin="round" d="m147.65 121.84h67.931v1.4529h-67.931v-1.4529zm66.656-3.6488 7.6761 4.37-7.6761 4.37v-8.7396z" stroke="#000" stroke-width=".010239px"/>
  <path id="path3108" stroke-linejoin="round" d="m370.9 495.62-0.25543-40.102-1.2631-0.50888v40.612zm3.1462-39.917-3.894-7.9157-3.6386 7.7885z" stroke="#000" stroke-width=".028942px"/>
  <path id="path3110" stroke-linejoin="round" d="m419.17 419.05-11.932 13.915 0.8846 0.69907 11.909-13.915z" stroke="#000" stroke-width=".022261px"/>
  <text id="text3112" font-size="11.933px" xml:space="preserve" transform="scale(1.019 .98137)" y="430.13721" x="399.25204" font-family="Arial" fill="#000000">4</text>
  <path id="path3120" stroke-linejoin="round" d="m483.45 197.97-8.665 10.727 0.88464 0.67725 8.665-10.727z" stroke="#000" stroke-width=".022261px"/>
  <text id="text3122" font-size="11.933px" xml:space="preserve" transform="scale(1.019 .98137)" y="202.52419" x="456.60147" font-family="Arial" fill="#000000">12</text>
  <path id="path3124" stroke-linejoin="round" d="m195.27 148.79h22.036v1.464h-22.036v-1.464zm20.912-3.6382 6.7567 4.3702-6.7567 4.3702v-8.7403z" stroke="#000" stroke-width=".0096062px"/>
  <text id="text3126" font-size="17.809px" xml:space="preserve" transform="scale(1.019 .98137)" y="158.68689" x="172.52434" font-family="Arial" fill="#000000">0</text>
  <text id="text3130" font-size="13.324px" xml:space="preserve" transform="scale(1.019 .98137)" y="174.98236" x="158.94577" font-family="Arial" line-height="125%" fill="#000000">(fetch) </text>
  <path id="path3134" stroke-linejoin="round" d="m147.74 121.23-0.13658 83.523 1.1378 0.0147 0.13654-83.538z" stroke="#000" stroke-width=".013140px"/>
  <path id="path3136" stroke-linejoin="round" d="m293.91 471.8v-17.873h-1.5198v17.873h1.5198zm3.7656-16.625-4.5367-7.4469-4.5366 7.4469h9.0734z" stroke="#000" stroke-width=".020549px"/>
  <path id="path3138" stroke-linejoin="round" d="m430.17 426.66v-84.936h-1.1342v84.936z" stroke="#000" stroke-width=".022261px"/>
  <text id="text3140" font-size="11.844px" xml:space="preserve" transform="scale(1.019 .98137)" y="563.5387" x="258.68039" font-family="Arial" line-height="125%" fill="#000000">0</text>
  <path id="path3142" stroke-linejoin="round" d="m142.43 378.44 626.21-2.7503v-1.1272l-626.21 2.7504z" stroke="#000" stroke-width=".039001px"/>
  <path id="path3142b" stroke-linejoin="round" d="m147.71 378.44 620.37-2.7505v-1.1272l-620.37 2.7505z" stroke="#000" stroke-width=".038820px"/>
  <path id="path3144" stroke-linejoin="round" d="m455.58 452.89c-0.30671-0.002-0.53172-0.29131-0.53055-0.63742l0.18683-55.726c0.00082-0.34612 0.22808-0.63334 0.53479-0.63169l22.503 0.12113c0.30671 0.002 0.54786 0.29141 0.54671 0.63751l-0.18684 55.726c-0.00083 0.3461-0.24424 0.63324-0.55095 0.63161zm22.507-1.1672-0.53485 0.65091 0.18682-55.726 0.53049 0.65666-22.503-0.12113 0.53489-0.65093-0.18682 55.726-0.53051-0.65667z" stroke="#000" stroke-width=".017618px"/>
  <path id="path3150" stroke-linejoin="round" d="m540 452.94c-0.32265 0.003-0.55034-0.31193-0.55244-0.6684l-0.33654-57.391c-0.003-0.35645 0.22213-0.63574 0.54477-0.63865l22.487-0.20165c0.29035-0.003 0.51783 0.27265 0.51994 0.62909l0.33654 57.391c0.003 0.35646-0.22191 0.67534-0.51227 0.67795zm22.48-1.5482-0.54455 0.67824-0.33656-57.391 0.55246 0.66839-22.487 0.20166 0.51227-0.67795 0.33658 57.391-0.52021-0.6687z" stroke="#000" stroke-width=".035748px"/>
  <path id="path3156" stroke-linejoin="round" d="m627.98 451c-0.30207-0.003-0.51079-0.30916-0.50779-0.65111l0.4852-55.057c0.004-0.34199 0.2168-0.60585 0.51886-0.60277l21.052 0.21298c0.27184 0.002 0.48093 0.27088 0.47792 0.61283l-0.48521 55.058c-0.004 0.34194-0.21714 0.6438-0.48897 0.64105zm21.064-1.0789-0.5192 0.64078 0.48523-55.057 0.50779 0.65113-21.052-0.21299 0.489-0.64107-0.48521 55.057-0.47761-0.65085z" stroke="#000" stroke-width=".033879px"/>
  <path id="path3162" stroke-linejoin="round" d="m648.47 275.33c0-0.39336 0.18764-0.743 0.45569-0.743h103.85c0.24124 0 0.42891 0.34964 0.42891 0.743v30.463c0 0.39337-0.18767 0.743-0.42891 0.743h-103.85c-0.26805 0-0.45569-0.34963-0.45569-0.743zm0.88457 30.463-0.42886-0.74302h103.85l-0.45567 0.74302v-30.463l0.45567 0.74303h-103.85l0.42886-0.74303z" stroke="#000" stroke-width=".034227px"/>
  <text id="text3164" font-size="16.284px" xml:space="preserve" transform="scale(1.019 .98137)" y="302.06943" x="492.34448" font-family="Arial" line-height="125%" fill="#000000">Sel A</text>
  <text id="text3168" font-size="16.284px" xml:space="preserve" transform="scale(1.019 .98137)" y="302.75333" x="543.32422" font-family="Arial" line-height="125%" fill="#000000">Sel B</text>
  <text id="text3172" font-size="16.284px" xml:space="preserve" transform="scale(1.019 .98137)" y="302.75333" x="592.5929" font-family="Arial" line-height="125%" fill="#000000">Sel C</text>
  <path id="path3176" stroke-linejoin="round" d="m493.68 275.31c0-0.39322 0.30651-0.72092 0.67432-0.72092h53.088c0.36784 0 0.67434 0.3277 0.67434 0.72092v30.476c0 0.39326-0.3065 0.72094-0.67434 0.72094h-53.088c-0.36781 0-0.67432-0.32768-0.67432-0.72094zm1.3485 30.476-0.67434-0.74279h53.088l-0.69477 0.74279v-30.476l0.69477 0.74278h-53.088l0.67434-0.74278z" stroke="#000" stroke-width=".021129px"/>
  <path id="path3178" stroke-linejoin="round" d="m547.08 275.33c0-0.39327 0.31371-0.74283 0.66665-0.74283h52.039c0.35292 0 0.66666 0.34956 0.66666 0.74283v30.456c0 0.39326-0.31374 0.74283-0.66666 0.74283h-52.039c-0.35294 0-0.66665-0.34957-0.66665-0.74283zm1.2942 30.456-0.62743-0.74284h52.039l-0.66668 0.74284v-30.456l0.66668 0.74285h-52.039l0.62743-0.74285z" stroke="#000" stroke-width=".041395px"/>
  <path id="path3180" stroke-linejoin="round" d="m598.81 275.33c0-0.39327 0.25305-0.74288 0.61454-0.74288h49.234c0.32535 0 0.57841 0.34961 0.57841 0.74288v30.459c0 0.39327-0.25306 0.74288-0.57841 0.74288h-49.234c-0.36149 0-0.61454-0.34961-0.61454-0.74288zm1.193 30.459-0.57839-0.7429h49.234l-0.61453 0.7429v-30.459l0.61453 0.74289h-49.234l0.57839-0.74289z" stroke="#000" stroke-width=".039745px"/>
  <path id="path3182" stroke-linejoin="round" d="m471.44 465.85-12.204 8.6729 0.68051 0.87385 12.204-8.6511z" stroke="#000" stroke-width=".022261px"/>
  <path id="path3184" stroke-linejoin="round" d="m558.53 466.52-12.204 8.6729 0.68049 0.87385 12.203-8.6729z" stroke="#000" stroke-width=".022261px"/>
  <path id="path3186" stroke-linejoin="round" d="m643.44 463.85-12.204 8.6948 0.68051 0.87385 12.204-8.6948z" stroke="#000" stroke-width=".044522px"/>
  <path id="path3188" stroke-linejoin="round" d="m467.49 377.79v11.273h-1.497v-11.273h1.497zm3.7881 9.809-4.5366 8.7384-4.5367-8.7384h9.0733z" stroke="#000" stroke-width=".022261px"/>
  <path id="path3190" stroke-linejoin="round" d="m552.17 375.93v11.294h-1.5198v-11.294h1.5198zm3.7881 9.8308-4.5367 8.7384-4.5367-8.7384h9.0732z" stroke="#000" stroke-width=".022261px"/>
  <path id="path3192" stroke-linejoin="round" d="m638.4 376.43v11.273h-1.5424v-11.273h1.5424zm3.7654 9.787-4.5367 8.7384-4.5366-8.7384h9.0733z" stroke="#000" stroke-width=".044522px"/>
  <path id="path3194" stroke-linejoin="round" d="m496.66 423.56-10.979 0.0655v1.4637l10.979-0.0657v-1.4637zm-9.5042-3.5826-9.0278 4.4349 9.096 4.3037-0.0678-8.7384z" stroke="#000" stroke-width=".022261px"/>
  <path id="path3196" stroke-linejoin="round" d="m580.75 359.76v-53.195h-1.1341v53.195z" stroke="#000" stroke-width=".022261px"/>
  <path id="path3198" fill-rule="evenodd" d="m464.93 376.42c0-1.2235 0.90808-2.2067 2.0062-2.2067 1.1193 0 2.0062 0.98319 2.0062 2.2067 0 1.2016-0.88697 2.1849-2.0062 2.1849-1.0982 0-2.0062-0.98317-2.0062-2.1849"/>
  <path id="path3200" stroke-linejoin="round" d="m462.6 376.54v-0.28399l0.0437-0.43699c0.0216-0.0874 0.0216-0.17478 0.0653-0.28402l0.10881-0.39326c0.0216-0.0874 0.0653-0.15298 0.0869-0.24033l0.19584-0.37145c0.0438-0.0874 0.0869-0.17475 0.15231-0.26215l0.26112-0.32773 0.17411-0.17479 0.30465-0.26218c0.0869-0.0655 0.17407-0.13108 0.2611-0.19665l0.34818-0.19663c0.0653-0.0436 0.15232-0.0654 0.23936-0.10925l0.39168-0.13113c0.10881-0.0218 0.21761-0.0436 0.30465-0.0652l0.41346-0.0436h0.30463l0.41345 0.0436c0.10881 0.0218 0.21759 0.0436 0.32643 0.0652l0.39164 0.13113c0.0869 0.0436 0.15235 0.0654 0.23938 0.10925l0.34817 0.19663c0.0869 0.0656 0.17408 0.1311 0.26113 0.19665l0.30467 0.26218c0.0654 0.0656 0.1088 0.10927 0.17405 0.17479l0.26114 0.32773c0.0437 0.0874 0.10877 0.17479 0.15231 0.26215l0.19585 0.37145c0.0215 0.0874 0.0653 0.15291 0.0869 0.24033l0.10878 0.39326c0.0435 0.10927 0.0435 0.19664 0.0654 0.28402l0.0437 0.43699v0.28399l-0.0437 0.45883c-0.0216 0.0874-0.0216 0.17478-0.0654 0.26221l-0.10878 0.41508c-0.0216 0.0874-0.0653 0.15298-0.0869 0.24036l-0.19585 0.37142c-0.0436 0.0874-0.10878 0.17476-0.15231 0.26215l-0.26114 0.32774c-0.0652 0.0655-0.10879 0.10925-0.17405 0.17478l-0.30467 0.2622c-0.0869 0.0653-0.17409 0.13108-0.26113 0.19662l-0.34817 0.19663c-0.0869 0.0436-0.15232 0.0655-0.23938 0.10928l-0.39164 0.1311c-0.10881 0.0218-0.21762 0.0436-0.32643 0.0655l-0.41345 0.0436h-0.30463l-0.41346-0.0436c-0.0869-0.0219-0.19584-0.0436-0.30465-0.0655l-0.39168-0.1311c-0.0869-0.0436-0.17407-0.0656-0.23936-0.10928l-0.34818-0.19663c-0.0869-0.0655-0.17406-0.13108-0.2611-0.19662l-0.30465-0.2622-0.17411-0.17478-0.26112-0.32774c-0.0653-0.0874-0.10879-0.17474-0.15231-0.26215l-0.19584-0.37142c-0.0216-0.0874-0.0653-0.15296-0.0869-0.24036l-0.10881-0.41508c-0.0435-0.0874-0.0435-0.17478-0.0653-0.26221zm2.9376 0.17484-0.0654-0.28406 0.13056 0.41512-0.0869-0.24034 0.17408 0.37141-0.15233-0.26213 0.2611 0.32769-0.17407-0.17478 0.30466 0.28402-0.26113-0.19664 0.34815 0.19664-0.23933-0.10926 0.39169 0.13108-0.32644-0.0655 0.41348 0.0436h-0.30465l0.41345-0.0436-0.30465 0.0655 0.39169-0.13108-0.23938 0.10926 0.34816-0.19664-0.26111 0.19664 0.30463-0.28402-0.17409 0.17478 0.26114-0.32769-0.15232 0.26213 0.17409-0.37141-0.0869 0.24034 0.13056-0.41512-0.0654 0.28406 0.0437-0.45883v0.28399l-0.0437-0.43696 0.0654 0.26221-0.13056-0.39329 0.0869 0.24032-0.17409-0.37141 0.15232 0.26217-0.26114-0.32769 0.17409 0.17477-0.30463-0.28404 0.26111 0.19665-0.34816-0.19665 0.23938 0.1093-0.39169-0.13112 0.30465 0.0655-0.41345-0.0436h0.30465l-0.41348 0.0436 0.32644-0.0655-0.39169 0.13112 0.23933-0.1093-0.34815 0.19665 0.26113-0.19665-0.30466 0.28404 0.17407-0.17477-0.2611 0.32769 0.15233-0.26217-0.17408 0.37141 0.0869-0.24032-0.13056 0.39329 0.0654-0.26221-0.0436 0.43696v-0.28399z" stroke="#000" stroke-width=".021805px"/>
  <path id="path3202" fill-rule="evenodd" d="m549.43 376.42c0-1.2235 0.88699-2.2067 2.0063-2.2067 1.0981 0 1.985 0.98319 1.985 2.2067 0 1.2016-0.88692 2.1849-1.985 2.1849-1.1193 0-2.0063-0.98317-2.0063-2.1849"/>
  <path id="path3204" stroke-linejoin="round" d="m547.61 376.54c-0.0216-0.0874-0.0216-0.17475 0-0.28399l0.0435-0.43699c0-0.0874 0.0215-0.17478 0.0438-0.28402l0.13057-0.39326c0.0215-0.0874 0.0437-0.15298 0.0868-0.24033l0.17408-0.37145c0.0438-0.0874 0.10879-0.17475 0.17407-0.26215l0.26111-0.32773c0.0435-0.0657 0.10882-0.10926 0.17408-0.17479l0.30467-0.26218c0.0653-0.0655 0.15231-0.13108 0.23936-0.19665l0.34817-0.19663c0.0868-0.0436 0.17406-0.0654 0.26111-0.10925l0.39169-0.13113c0.0869-0.0218 0.19588-0.0436 0.30465-0.0652l0.41346-0.0436h0.30465l0.41343 0.0436c0.10881 0.0218 0.21761 0.0436 0.3264 0.0652l0.36991 0.13113c0.0869 0.0436 0.15235 0.0654 0.21763 0.10925l0.36992 0.19663c0.0869 0.0436 0.19584 0.10928 0.26114 0.19665l0.30464 0.26218 0.19584 0.19663 0.23936 0.32773c0.0653 0.0874 0.10879 0.15295 0.15232 0.24031l0.19587 0.37145c0.0216 0.0874 0.0652 0.15291 0.0869 0.24033l0.10879 0.39326c0.0437 0.10927 0.0437 0.19664 0.0652 0.28402l0.0435 0.43699v0.28399l-0.0435 0.45883c-0.0216 0.0874-0.0216 0.17478-0.0652 0.26221l-0.10879 0.41508c-0.0215 0.0874-0.0653 0.15298-0.0869 0.24036l-0.19587 0.37142c-0.0438 0.0874-0.0868 0.15293-0.15232 0.24031l-0.23936 0.32774c-0.0654 0.0655-0.13056 0.13107-0.19584 0.19662l-0.30464 0.2622c-0.0653 0.0874-0.1741 0.15291-0.26114 0.19662l-0.36992 0.19663c-0.0654 0.0436-0.13057 0.0655-0.21763 0.10928l-0.36991 0.1311c-0.10879 0.0218-0.21759 0.0436-0.3264 0.0655l-0.41343 0.0436h-0.30465l-0.41346-0.0436c-0.10879-0.0219-0.2176-0.0436-0.30465-0.0655l-0.39169-0.1311c-0.0868-0.0436-0.17408-0.0656-0.26111-0.10928l-0.34817-0.19663c-0.0869-0.0655-0.17409-0.13108-0.23936-0.19662l-0.30467-0.2622c-0.0653-0.0654-0.13055-0.10924-0.17408-0.17478l-0.26111-0.32774c-0.0653-0.0874-0.13056-0.17474-0.17407-0.26215l-0.17408-0.37142c-0.0438-0.0874-0.0653-0.15296-0.0868-0.24036l-0.13057-0.41508c-0.0216-0.0874-0.0438-0.17478-0.0438-0.26221zm2.9158 0.17484-0.0437-0.28406 0.10881 0.41512-0.0869-0.24034 0.19585 0.37141-0.17408-0.26213 0.26112 0.32769-0.17408-0.17478 0.30466 0.28402-0.23937-0.19664 0.34815 0.19664-0.26111-0.10926 0.39168 0.13108-0.30464-0.0655 0.41346 0.0436h-0.30464l0.41343-0.0436-0.32643 0.0655 0.3917-0.13108-0.2176 0.10926 0.34818-0.19664-0.26114 0.19664 0.30463-0.28402-0.19583 0.19664 0.26113-0.32773-0.15233 0.24031 0.1741-0.37141-0.087 0.24034 0.13061-0.41512-0.0653 0.28406 0.0438-0.45883v0.28399l-0.0438-0.43696 0.0653 0.26221-0.13061-0.39329 0.087 0.24032-0.1741-0.37141 0.15233 0.24032-0.26113-0.3277 0.19583 0.19663-0.30463-0.28404 0.26114 0.19665-0.34818-0.19665 0.2176 0.1093-0.3917-0.13112 0.32643 0.0655-0.41343-0.0436h0.30464l-0.41346 0.0436 0.30464-0.0655-0.39168 0.13112 0.26111-0.1093-0.34815 0.19665 0.23937-0.19665-0.30466 0.28404 0.17408-0.17477-0.26112 0.32769 0.17408-0.26217-0.19585 0.37141 0.0869-0.24032-0.10881 0.39329 0.0437-0.26221-0.0437 0.43696v-0.28399z" stroke="#000" stroke-width=".021805px"/>
  <path id="path3206" fill-rule="evenodd" d="m637.33 376.43c0-1.2235 0.92921-2.2285 2.0274-2.2285s1.985 1.005 1.985 2.2285c0 1.1798-0.88696 2.1849-1.985 2.1849-1.0981 0-2.0274-1.005-2.0274-2.1849"/>
  <path id="path3208" stroke-linejoin="round" d="m634.01 376.57c-0.0438-0.0874-0.0438-0.17478 0-0.30584l0.0436-0.43697c0-0.0874 0-0.17483 0.0438-0.2622l0.13057-0.39326c0-0.0874 0.0438-0.1748 0.0868-0.26218l0.17409-0.34959c0.0438-0.0874 0.087-0.17478 0.13054-0.26218l0.26116-0.30588c0.0438-0.0874 0.13054-0.13108 0.17406-0.21846l0.30465-0.2622c0.087-0.0874 0.1741-0.13108 0.26113-0.17479l0.34817-0.21847c0.0868-0.0436 0.17406-0.0436 0.26111-0.0874l0.38206-0.10466c0.0868-0.0436 0.21761-0.0436 0.30463-0.0874l0.39171-0.0436h0.30463l0.43521 0.0436c0.0868 0.0436 0.21761 0.0436 0.30465 0.0874l0.39169 0.13109c0.0869 0.0436 0.17408 0.0436 0.26112 0.0874l0.34816 0.21847c0.0869 0.0436 0.1741 0.0874 0.26114 0.17478l0.30465 0.26218c0.0437 0.0874 0.0869 0.13108 0.13055 0.1748l0.26113 0.34956c0.0868 0.0874 0.13055 0.17479 0.17408 0.26218l0.21762 0.34958c0 0.0874 0.0438 0.17479 0.0868 0.26219l0.087 0.39325c0.0438 0.0874 0.0438 0.17479 0.0868 0.2622l0.0438 0.43696v0.30587l-0.0438 0.43694c-0.0436 0.0874-0.0436 0.17481-0.0868 0.26221l-0.087 0.43694c-0.0437 0.0874-0.0868 0.13113-0.0868 0.2185l-0.21762 0.39329c-0.0437 0.0874-0.0868 0.17476-0.17408 0.26214l-0.26113 0.30588c-0.0437 0.0436-0.087 0.13111-0.13055 0.1748l-0.30465 0.26218c-0.0869 0.0874-0.17407 0.13108-0.26114 0.2185l-0.34816 0.17476c-0.0869 0.0436-0.17411 0.0874-0.26112 0.13111l-0.39169 0.13109c-0.0869 0-0.2176 0.0436-0.30465 0.0436l-0.43521 0.0436h-0.30463l-0.39171-0.0436c-0.0869 0-0.21758-0.0436-0.30463-0.0436l-0.39168-0.13109c-0.0869-0.0436-0.17409-0.0874-0.26113-0.13111l-0.34816-0.17476c-0.0869-0.0874-0.17411-0.13108-0.26114-0.2185l-0.30461-0.26219c-0.0436-0.0436-0.13055-0.13109-0.17407-0.21847l-0.26113-0.30592c-0.0437-0.0874-0.0868-0.13106-0.13057-0.21843l-0.17406-0.39328c-0.0438-0.0874-0.0868-0.1311-0.0868-0.2185l-0.13061-0.43694c-0.0435-0.0874-0.0435-0.1748-0.0435-0.26221zm2.9158 0.1748-0.0437-0.30587 0.0869 0.43696-0.0869-0.26219 0.21761 0.39328-0.17408-0.26218 0.26112 0.34955-0.17409-0.21846 0.30466 0.30587-0.26114-0.21849 0.34819 0.21849-0.26115-0.13108 0.39169 0.13108-0.30464-0.0436 0.39167 0.0436h-0.30462l0.43519-0.0436-0.30466 0.0436 0.3917-0.13108-0.2611 0.13108 0.34816-0.21849-0.26114 0.21849 0.30466-0.30587-0.17407 0.17479 0.26112-0.30588-0.13057 0.26218 0.17407-0.39328-0.0869 0.26219 0.13057-0.43696-0.0869 0.30587 0.0439-0.48064v0.30584l-0.0439-0.43696 0.0869 0.26218-0.13057-0.39327 0.0869 0.21849-0.17407-0.34958 0.13057 0.26218-0.26112-0.34956 0.17407 0.17477-0.30466-0.26214 0.26114 0.17475-0.34816-0.17475 0.2611 0.0874-0.3917-0.13109 0.30466 0.0874-0.43519-0.0436h0.30462l-0.39167 0.0436 0.30464-0.0874-0.39169 0.13109 0.26115-0.0874-0.34819 0.17475 0.26114-0.17475-0.30466 0.26214 0.17409-0.21847-0.26112 0.34957 0.17408-0.21849-0.21761 0.34958 0.0869-0.21849-0.0869 0.39327 0.0437-0.26218-0.0437 0.43696v-0.30584z" stroke="#000" stroke-width=".043609px"/>
  <path id="path3210" stroke-linejoin="round" d="m711.04 306.82v117.01h-1.4989v-117.01h1.4989zm3.8152 116.14-4.5418 5.1343-4.5418-5.1343h9.0836z" stroke="#000" stroke-width=".034146px"/>
  <path id="path3212" stroke-linejoin="round" d="m716.08 333.41-12.204 8.6511 0.68051 0.9175 12.203-8.6948z" stroke="#000" stroke-width=".044522px"/>
  <text id="text3214" font-size="11.932px" xml:space="preserve" transform="scale(1.019 .98137)" y="341.97598" x="681.2265" font-family="Arial" line-height="125%" fill="#000000"><tspan id="tspan3973" y="341.97598" x="681.2265">49</tspan></text>
  <path id="path3216" stroke-linejoin="round" d="m453.53 487.43c0-0.4377 0.25497-0.80247 0.5609-0.80247h49.238c0.32293 0 0.57787 0.36477 0.57787 0.80247v32.171c0 0.462-0.25494 0.80247-0.57787 0.80247h-49.238c-0.30593 0-0.5609-0.34047-0.5609-0.80247zm1.1388 32.171-0.57786-0.80249h49.238l-0.56091 0.80249v-32.171l0.56091 0.80248h-49.238l0.57786-0.80248z" stroke="#000" stroke-width=".020330px"/>
  <text id="text3218" font-size="14.804px" xml:space="preserve" transform="scale(1.019 .98137)" y="523.8501" x="453.02197" font-family="Arial" line-height="125%" fill="#000000">MUX</text>
  <path id="path3220" stroke-linejoin="round" d="m439.76 509.34h13.701v1.0922h-13.701z" stroke="#000" stroke-width=".022261px"/>
  <text id="text3222" font-size="11.933px" xml:space="preserve" transform="scale(1.019 .98137)" y="515.24347" x="417.41074" font-family="Arial" fill="#000000">MR</text>
  <text id="text3224" font-size="14.78px" xml:space="preserve" transform="matrix(.0017819 -.96774 1.0333 .0017162 0 0)" y="688.25134" x="-535.0412" font-family="Arial" line-height="125%" fill="#000000"><tspan id="tspan4437" y="688.25134" x="-535.0412">Rest of CPU</tspan></text>
  <text id="text3228" font-size="14.78px" xml:space="preserve" transform="matrix(.0017819 -.96774 1.0333 .0017162 0 0)" y="705.13617" x="-542.28955" font-family="Arial" fill="#000000">control </text>
  <text id="text3230" font-size="14.78px" xml:space="preserve" transform="matrix(.0017819 -.96774 1.0333 .0017162 0 0)" y="704.47235" x="-494.32373" font-family="Arial" fill="#000000">signals</text>
  <path id="path3232" stroke-linejoin="round" d="m636.88 348.48v-41.551h-1.139v41.551z" stroke="#000" stroke-width=".039669px"/>
  <path id="path3234" stroke-linejoin="round" d="m482.52 519.17v13.346h-1.497v-13.346h1.497zm3.7881 11.884-4.5366 8.7384-4.5367-8.7384h9.0733z" stroke="#000" stroke-width=".022261px"/>
  <path id="path3236" stroke-linejoin="round" d="m541.66 487.32c0-0.44518 0.23392-0.84089 0.53468-0.84089h48.421c0.30075 0 0.53466 0.39571 0.53466 0.84089v32.748c0 0.44521-0.23391 0.79146-0.53466 0.79146h-48.421c-0.30076 0-0.53468-0.34625-0.53468-0.79146zm1.1027 32.748-0.56803-0.8409h48.421l-0.56805 0.8409v-32.748l0.56805 0.84096h-48.421l0.56803-0.84096z" stroke="#000" stroke-width=".040657px"/>
  <text id="text3238" font-size="14.804px" xml:space="preserve" transform="scale(1.019 .98137)" y="523.93158" x="538.82739" font-family="Arial" line-height="125%" fill="#000000">MUX</text>
  <path id="path3240" stroke-linejoin="round" d="m529.45 509.21h13.678v1.0923h-13.678z" stroke="#000" stroke-width=".022261px"/>
  <text id="text3242" font-size="11.933px" xml:space="preserve" transform="scale(1.019 .98137)" y="515.10156" x="507.77173" font-family="Arial" fill="#000000">MR</text>
  <path id="path3244" stroke-linejoin="round" d="m567.92 519.01v13.369h-1.497v-13.369h1.497zm3.7654 11.929-4.5367 8.7384-4.5366-8.7384h9.0733z" stroke="#000" stroke-width=".044522px"/>
  <path id="path3246" stroke-linejoin="round" d="m628.61 486.02c0-0.45404 0.22392-0.85772 0.51192-0.85772h46.363c0.28798 0 0.54396 0.40368 0.54396 0.85772v33.402c0 0.45408-0.25598 0.80727-0.54396 0.80727h-46.363c-0.288 0-0.51192-0.35319-0.51192-0.80727zm1.0558 33.402-0.54396-0.85769h46.363l-0.54396 0.85769v-33.402l0.54396 0.85774h-46.363l0.54396-0.85774z" stroke="#000" stroke-width=".040179px"/>
  <text id="text3248" font-size="14.804px" xml:space="preserve" transform="scale(1.019 .98137)" y="523.22156" x="624.55939" font-family="Arial" line-height="125%" fill="#000000">MUX</text>
  <path id="path3252" stroke-linejoin="round" d="m615.42 507.81h13.656v1.0923h-13.656z" stroke="#000" stroke-width=".044522px"/>
  <text id="text3254" font-size="11.933px" xml:space="preserve" transform="scale(1.019 .98137)" y="513.65808" x="590.76935" font-family="Arial" fill="#000000">MR</text>
  <path id="path3256" stroke-linejoin="round" d="m654.41 518.27v13.369h-1.497v-13.369h1.497zm3.8107 11.929-4.5366 8.7384-4.5366-8.7384h9.0733z" stroke="#000" stroke-width=".044522px"/>
  <path id="path3258" stroke-linejoin="round" d="m494.74 347.68h32.438v1.0896h-32.438z" stroke="#000" stroke-width=".025056px"/>
  <path id="path3260" stroke-linejoin="round" d="m494.45 469.54 1.0924-121.95-1.3321-0.0209-1.0924 121.97z" stroke="#000" stroke-width=".023569px"/>
  <path id="path3262" fill-rule="evenodd" d="m578.56 423.61c0-1.2234 0.9527-2.1847 2.1776-2.1847 1.1795 0 2.1322 0.96121 2.1322 2.1847 0 1.2233-0.95269 2.1847-2.1322 2.1847-1.2249 0-2.1776-0.96125-2.1776-2.1847"/>
  <path id="path3264" stroke-linejoin="round" d="m576.84 423.75v-0.26215l0.0455-0.48063c0-0.0874 0.0456-0.17475 0.0456-0.26215l0.1361-0.39322c0.0456-0.0874 0.0456-0.17475 0.0909-0.21845l0.18145-0.39323c0.0455-0.0874 0.13608-0.17478 0.18147-0.26216l0.27221-0.30584c0.0455-0.0874 0.13609-0.13109 0.18144-0.17476l0.31758-0.30585c0.0907-0.0436 0.18146-0.13109 0.27219-0.17477l0.36293-0.17477c0.0907-0.0436 0.18146-0.0874 0.2722-0.13109l0.40829-0.13106c0.0909-0.0436 0.18148-0.0436 0.31756-0.0436l0.4083-0.0436c0.13611-0.0436 0.22683-0.0436 0.31756 0l0.45366 0.0436c0.0909 0 0.22683 0 0.31756 0.0436l0.4083 0.13106c0.0908 0.0436 0.1361 0.0874 0.22683 0.0874l0.36293 0.21846c0.0907 0.0436 0.22685 0.13109 0.27221 0.1748l0.31756 0.30582c0.0906 0.0436 0.1361 0.13107 0.22683 0.17477l0.22681 0.34952c0.0909 0.0436 0.13609 0.13109 0.18147 0.21847l0.18148 0.39323c0.0455 0.0436 0.0909 0.13106 0.0909 0.21846l0.13613 0.39323c0.0455 0.0874 0.0455 0.17477 0.0455 0.26214l0.0456 0.48063v0.26213l-0.0456 0.43695c0 0.13109 0 0.21846-0.0455 0.30581l-0.13613 0.39324c0 0.0874-0.0455 0.1748-0.0909 0.21848l-0.18148 0.39323c-0.0456 0.0874-0.0907 0.17476-0.18147 0.21845l-0.22681 0.34953c-0.0907 0.0436-0.13611 0.13109-0.22683 0.17478l-0.31756 0.30585c-0.0455 0.0436-0.18147 0.13107-0.27221 0.17476l-0.36293 0.17475c-0.0907 0.0436-0.1361 0.0874-0.22683 0.13112l-0.4083 0.13106c-0.0908 0.0436-0.22682 0.0436-0.31756 0.0436l-0.45366 0.0436c-0.0906 0.0436-0.18145 0.0436-0.31756 0l-0.4083-0.0436c-0.13608 0-0.22683 0-0.31756-0.0436l-0.40829-0.13106c-0.0907-0.0436-0.18145-0.0874-0.2722-0.13112l-0.36293-0.17475c-0.0909-0.0436-0.18147-0.13106-0.27219-0.17476l-0.31758-0.30585c-0.0455-0.0436-0.13608-0.0874-0.18144-0.17478l-0.27221-0.30581c-0.0456-0.0874-0.13611-0.17479-0.18147-0.26217l-0.18145-0.39323c-0.0456-0.0436-0.0456-0.13107-0.0909-0.21848l-0.1361-0.39324c0-0.0874-0.0456-0.17472-0.0456-0.30581zm3.0394 0.17476-0.0455-0.26213 0.13611 0.39322-0.0906-0.21847 0.18147 0.34953-0.18147-0.26215 0.27219 0.34955-0.18148-0.17476 0.31756 0.26214-0.2268-0.17478 0.36291 0.17478-0.27219-0.0874 0.40829 0.13107-0.31756-0.0874 0.40828 0.0436h-0.31757l0.45369-0.0436-0.36294 0.0874 0.4083-0.13107-0.22683 0.0874 0.36291-0.21845-0.2722 0.21845 0.31759-0.26214-0.18147 0.17476 0.27219-0.30585-0.18147 0.21845 0.18147-0.34953-0.0907 0.21847 0.1361-0.39322-0.0456 0.26213 0.0456-0.43691v0.26215l-0.0456-0.4369 0.0456 0.26213-0.1361-0.39323 0.0907 0.21846-0.18147-0.34953 0.18147 0.21845-0.27219-0.30584 0.18147 0.17477-0.31759-0.26213 0.2722 0.17475-0.36291-0.17475 0.22683 0.0874-0.4083-0.13105 0.36294 0.0874-0.45369-0.0436h0.31757l-0.40828 0.0436 0.31756-0.0874-0.40829 0.13105 0.27219-0.0874-0.36291 0.17475 0.2268-0.17475-0.31756 0.26213 0.18148-0.17477-0.27219 0.34956 0.18147-0.26217-0.18147 0.34953 0.0906-0.21846-0.13611 0.39323 0.0455-0.26213-0.0455 0.4369v-0.26215z" stroke="#000" stroke-width=".044522px"/>
  <path id="path3266" fill-rule="evenodd" d="m493.92 424.08c0-1.2015 0.97539-2.1847 2.1549-2.1847 1.2022 0 2.1549 0.98306 2.1549 2.1847 0 1.2234-0.95265 2.2065-2.1549 2.2065-1.1795 0-2.1549-0.9831-2.1549-2.2065"/>
  <path id="path3268" stroke-linejoin="round" d="m491.39 424.23v-0.28398l0.0455-0.45879c0.0225-0.0874 0.0225-0.17477 0.068-0.26214l0.11342-0.41508c0.0224-0.0653 0.0679-0.15292 0.0906-0.21847l0.20414-0.37139c0.0456-0.10925 0.0909-0.1966 0.15879-0.26212l0.27218-0.3277c0.068-0.0656 0.11345-0.13109 0.18148-0.17478l0.31755-0.28398c0.0908-0.0657 0.18147-0.13109 0.2722-0.17479l0.36296-0.19661c0.0679-0.0436 0.15877-0.0874 0.2495-0.10923l0.40829-0.13108c0.11341-0.0436 0.22683-0.0655 0.31757-0.0655l0.43095-0.0436c0.11345-0.0219 0.22684-0.0219 0.31758 0l0.43097 0.0436c0.11343 0 0.22684 0.0218 0.34027 0.0655l0.40827 0.13108c0.0906 0.0218 0.1588 0.0653 0.24954 0.10923l0.36292 0.19661c0.0907 0.0436 0.18146 0.10928 0.27218 0.17479l0.31757 0.28398c0.0679 0.0436 0.11342 0.10925 0.18147 0.17478l0.27219 0.3277c0.0455 0.0654 0.11341 0.1529 0.15879 0.26212l0.20416 0.37139c0.0224 0.0655 0.0678 0.15294 0.0908 0.21847l0.11342 0.41508c0.0455 0.0874 0.0455 0.17477 0.0679 0.26214l0.0456 0.45879v0.28398l-0.0456 0.43694c-0.0225 0.10924-0.0225 0.19661-0.0679 0.26212l-0.11342 0.4151c-0.0224 0.0874-0.0678 0.17475-0.0908 0.26215l-0.20416 0.37138c-0.0456 0.0874-0.11342 0.17476-0.15879 0.26216l-0.27219 0.32768c-0.068 0.0655-0.11342 0.10927-0.18147 0.17475l-0.31757 0.26219c-0.0908 0.0652-0.18144 0.13107-0.27218 0.1966l-0.36292 0.19661c-0.0907 0.0436-0.1588 0.0655-0.24954 0.10926l-0.40827 0.13107c-0.11344 0.0218-0.22684 0.0436-0.34027 0.0655l-0.43097 0.0436h-0.31758l-0.43095-0.0436c-0.091-0.0218-0.20416-0.0436-0.31757-0.0655l-0.40829-0.13107c-0.0908-0.0436-0.18146-0.0653-0.2495-0.10926l-0.36296-0.19661c-0.0909-0.0656-0.18146-0.13106-0.2722-0.1966l-0.31755-0.26219-0.18148-0.17475-0.27218-0.32768c-0.0678-0.0874-0.11344-0.17476-0.15879-0.26216l-0.20414-0.37138c-0.0225-0.0874-0.068-0.17476-0.0906-0.26215l-0.13609-0.4151c-0.0225-0.0654-0.0225-0.1529-0.0455-0.26212zm3.0623 0.15294-0.0456-0.26217 0.11342 0.41508-0.0908-0.2403 0.18146 0.37139-0.15878-0.26216 0.27219 0.3277-0.18142-0.1748 0.31754 0.28403-0.27219-0.19662 0.36292 0.19662-0.24951-0.10928 0.40827 0.1311-0.34024-0.0655 0.43098 0.0436h-0.31758l0.43101-0.0436-0.31756 0.0655 0.40827-0.1311-0.24949 0.10928 0.36293-0.19662-0.27221 0.19662 0.31757-0.28403-0.18147 0.1748 0.2722-0.3277-0.15878 0.26216 0.18148-0.37139-0.0908 0.2403 0.11343-0.41508-0.0455 0.26217 0.0455-0.43692v0.28398l-0.0455-0.45877 0.0678 0.28401-0.13607-0.41506 0.0908 0.24028-0.18146-0.37138 0.15879 0.26215-0.27223-0.32768 0.18147 0.17479-0.31755-0.26217 0.27221 0.17476-0.36294-0.1966 0.24952 0.10925-0.4083-0.13109 0.31759 0.0656-0.43101-0.0436h0.31756l-0.43097 0.0436 0.34025-0.0656-0.40829 0.13109 0.24949-0.10925-0.36291 0.1966 0.2722-0.17476-0.31758 0.26217 0.18145-0.17479-0.27217 0.32768 0.15877-0.26215-0.18146 0.37138 0.0909-0.24028-0.1361 0.41506 0.0679-0.28401-0.0455 0.45877v-0.28398z" stroke="#000" stroke-width=".022261px"/>
  <path id="path3270" stroke-linejoin="round" d="m494.51 457.49v22.014h-1.497v-22.014h1.497zm3.7881 20.465-4.5367 9.2596-4.5366-9.2596h9.0733z" stroke="#000" stroke-width=".022914px"/>
  <path id="path3272" stroke-linejoin="round" d="m500.04 466.58-12.204 8.6729 0.65783 0.87386 12.204-8.6729z" stroke="#000" stroke-width=".022261px"/>
  <text id="text3274" font-size="11.933px" xml:space="preserve" transform="scale(1.019 .98137)" y="480.45529" x="474.49155" font-family="Arial" fill="#000000">5</text>
  <path id="path3276" stroke-linejoin="round" d="m581.38 423.29-11.753-0.20812-0.0285 1.4423 11.798 0.21026-0.0169-1.4444zm-10.207-3.8093-9.1178 4.2041 8.9881 4.5388 0.12961-8.7428z" stroke="#000" stroke-width=".044522px"/>
  <path id="path3278" stroke-linejoin="round" d="m580.89 467.14v-106.64h-1.1262v106.64z" stroke="#000" stroke-width=".052392px"/>
  <path id="path3280" stroke-linejoin="round" d="m527.21 348.35-0.26538-42.776 1.1388-0.0168 0.26538 42.776z" stroke="#000" stroke-width=".058471px"/>
  <path id="path3282" stroke-linejoin="round" d="m581.25 458.71v20.755h-1.497v-20.755h1.497zm3.8106 19.312-4.5366 8.7384-4.5367-8.7384h9.0733z" stroke="#000" stroke-width=".044522px"/>
  <path id="path3284" stroke-linejoin="round" d="m586.77 466.95-12.204 8.6948 0.6805 0.87383 12.204-8.6948z" stroke="#000" stroke-width=".044522px"/>
  <text id="text3286" font-size="11.933px" xml:space="preserve" transform="scale(1.019 .98137)" y="479.28937" x="557.65338" font-family="Arial" fill="#000000">5</text>
  <path id="path3288" stroke-linejoin="round" d="m635.63 348.31h32.548v1.1089h-32.548z" stroke="#000" stroke-width=".027408px"/>
  <path id="path3290" stroke-linejoin="round" d="m667.87 425.87-11.599 0.15419 0.004-1.4478 11.595-0.19771 0.00026 1.4913zm-9.9945 3.746-9.177-4.219 9.0148-4.4958 0.16235 8.7147z" stroke="#000" stroke-width=".044522px"/>
  <path id="path3292" stroke-linejoin="round" d="m667.9 468.84v-120.58h-1.1214v120.58z" stroke="#000" stroke-width=".057015px"/>
  <path id="path3296" stroke-linejoin="round" d="m673.62 463.93-12.204 8.6948 0.68049 0.87384 12.204-8.6511z" stroke="#000" stroke-width=".044522px"/>
  <text id="text3298" font-size="11.933px" xml:space="preserve" transform="scale(1.019 .98137)" y="477.62387" x="643.09686" font-family="Arial" fill="#000000">5</text>
  <path id="path3300" stroke-linejoin="round" d="m668.09 457.05v20.799h-1.497v-20.799h1.497zm3.7654 19.312-4.5366 8.7384-4.5366-8.7384h9.0732z" stroke="#000" stroke-width=".044522px"/>
  <path id="path3302" stroke-linejoin="round" d="m755.3 481.82c0-0.45609 0.28751-0.86148 0.61095-0.86148h52.039c0.3594 0 0.61095 0.40539 0.61095 0.86148v33.548c0 0.4561-0.25155 0.81084-0.61095 0.81084h-52.039c-0.32344 0-0.61095-0.35474-0.61095-0.81084zm1.1858 33.548-0.57502-0.86147h52.039l-0.575 0.86147v-33.548l0.575 0.86145h-52.039l0.57502-0.86145z" stroke="#000" stroke-width=".042676px"/>
  <text id="text3304" font-size="14.804px" xml:space="preserve" transform="scale(1.019 .98137)" y="518.60028" x="751.23883" font-family="Arial" line-height="125%" fill="#000000">MUX</text>
  <path id="path3306" stroke-linejoin="round" d="m808.63 500.23h13.701v1.0922h-13.701z" stroke="#000" stroke-width=".044522px"/>
  <path id="path3308" stroke-linejoin="round" d="m784.55 515.61v13.369h-1.5425v-13.369h1.5425zm3.7654 11.929-4.5366 8.7384-4.5366-8.7384h9.0733z" stroke="#000" stroke-width=".044522px"/>
  <path id="path3310" stroke-linejoin="round" d="m752.28 275.33c0-0.39315 0.46181-0.74257 1.0556-0.74257h62.344c0.59378 0 1.1215 0.34942 1.1215 0.74257v30.445c0 0.39311-0.52777 0.74256-1.1215 0.74256h-62.344c-0.59378 0-1.0556-0.34945-1.0556-0.74256zm1.5995 30.497-0.54407-0.79414h62.344l-0.49501 1.0124 0.0936-30.805 0.40158 0.8325h-62.344l0.59657-0.63931z" stroke="#000" stroke-width=".053682px"/>
  <text id="text3312" font-size="16.284px" xml:space="preserve" transform="scale(1.019 .98137)" y="301.23465" x="742.42017" font-family="Arial" line-height="125%" fill="#000000">SelCop</text>
  <path id="path3314" fill-rule="evenodd" d="m666.1 425.33c0-1.2234 0.95267-2.2283 2.1776-2.2283 1.1795 0 2.1322 1.0049 2.1322 2.2283s-0.9527 2.1847-2.1322 2.1847c-1.2249 0-2.1776-0.96123-2.1776-2.1847"/>
  <path id="path3316" stroke-linejoin="round" d="m663.87 425.1v-0.26215l0.0456-0.48061c0-0.0874 0.0455-0.17479 0.0455-0.26217l0.13608-0.39324c0.0455-0.0874 0.0455-0.17477 0.0907-0.26214l0.22682-0.34955c0.0455-0.0874 0.0907-0.17476 0.13608-0.26215l0.27221-0.30586c0.0456-0.0874 0.0906-0.13105 0.18148-0.21844l0.31756-0.26215c0.0908-0.0874 0.18148-0.13107 0.27218-0.17476l0.36294-0.21849c0.091-0.0436 0.18147-0.0436 0.27221-0.0874l0.40828-0.13107c0.091-0.0436 0.18146-0.0436 0.31758-0.0874l0.4083-0.0436h0.31755l0.45366 0.0436c0.0907 0.0436 0.18145 0.0436 0.31757 0.0874l0.40828 0.13107c0.0906 0.0436 0.18147 0.0436 0.27223 0.0874l0.3629 0.21849c0.0908 0.0436 0.18148 0.0874 0.22685 0.17476l0.31753 0.26215 0.18149 0.17476 0.2722 0.34954c0.0908 0.0874 0.13609 0.17477 0.18145 0.26215l0.18147 0.34955c0.0456 0.0874 0.0908 0.17478 0.0908 0.26214l0.13608 0.39324c0.0455 0.0874 0.0455 0.17476 0.0455 0.26217l0.0456 0.48061c0.0455 0.0874 0.0455 0.17474 0 0.26215l-0.0456 0.4369c0 0.13107 0 0.21846-0.0455 0.30587l-0.13608 0.39321c0 0.0874-0.0455 0.17477-0.0908 0.21845l-0.18147 0.39324c-0.0456 0.0874-0.0906 0.17475-0.18145 0.26216l-0.2722 0.30584c-0.0456 0.0874-0.091 0.13107-0.18149 0.17476l-0.31753 0.30586c-0.0456 0.0436-0.13612 0.13106-0.22685 0.17476l-0.3629 0.17477c-0.0907 0.0436-0.18147 0.0874-0.27223 0.13107l-0.40828 0.13109c-0.13612 0.0436-0.22682 0.0436-0.31757 0.0436l-0.45366 0.0436c-0.0909 0.0436-0.18146 0.0436-0.31755 0l-0.4083-0.0436c-0.13612 0-0.22683 0-0.31758-0.0436l-0.40828-0.13109c-0.091-0.0436-0.18147-0.0874-0.27221-0.13107l-0.36294-0.17477c-0.0908-0.0436-0.18145-0.13108-0.27218-0.17476l-0.31756-0.30586c-0.0909-0.0436-0.13609-0.13105-0.18148-0.17476l-0.27221-0.34951c-0.0455-0.0436-0.0907-0.13108-0.13608-0.21849l-0.22682-0.39324c0-0.0436-0.0456-0.13105-0.0907-0.21845l-0.0909-0.39321c-0.0456-0.0874-0.0908-0.1748-0.0908-0.30587zm3.0849 0.17477-0.0907-0.26218 0.13611 0.39326-0.0909-0.21848 0.18145 0.34953-0.13609-0.21847 0.2722 0.30587-0.22683-0.17478 0.31756 0.26215-0.22684-0.17477 0.36294 0.17477-0.27219-0.0874 0.40829 0.13105-0.31757-0.0874 0.40829 0.0436h-0.31758l0.45369-0.0436-0.31757 0.0874 0.40832-0.13105-0.27221 0.0874 0.36291-0.17477-0.27218 0.17477 0.31755-0.26215-0.18146 0.17478 0.2722-0.34953-0.18147 0.26213 0.22683-0.34953-0.0909 0.21848 0.0909-0.39326-0.0455 0.26218 0.0455-0.43692v0.26215l-0.0455-0.43693 0.0455 0.26215-0.1361-0.43692 0.1361 0.26215-0.22683-0.34955 0.18147 0.26217-0.2722-0.34953 0.18146 0.17476-0.31755-0.26216 0.27218 0.17476-0.36291-0.17476 0.27221 0.0874-0.40832-0.13108 0.31757 0.0874-0.45369-0.0436h0.31758l-0.40829 0.0436 0.31757-0.0874-0.40829 0.13108 0.27219-0.0874-0.36294 0.17476 0.22684-0.17476-0.31756 0.26216 0.22683-0.21847-0.2722 0.34954 0.13609-0.21847-0.18145 0.34955 0.0909-0.26215-0.13611 0.43692 0.0907-0.26215-0.0455 0.43693v-0.26215z" stroke="#000" stroke-width=".044522px"/>
  <path id="path3318" stroke-linejoin="round" d="m794.42 348.03 0.31341 127.25-1.4976-0.008-0.31341-127.25 1.4976 0.008zm4.0934 125.94-4.523 7.5014-4.5543-7.4859 9.0773-0.0153z" stroke="#000" stroke-width=".041236px"/>
  <path id="path3320" stroke-linejoin="round" d="m768.41 375.24 0.4535 98.284h-1.4965l-0.49884-98.235 1.5418-0.0503zm4.2173 96.579-4.4895 10.029-4.5803-9.9789 9.0697-0.0503z" stroke="#000" stroke-width=".047687px"/>
  <text id="text3322" font-size="11.933px" xml:space="preserve" transform="scale(1.019 .98137)" y="504.84586" x="800.07343" font-family="Arial" fill="#000000">MC</text>
  <path id="path3324" stroke-linejoin="round" d="m797.49 448.28-12.204 8.6948 0.68048 0.87383 12.204-8.6511z" stroke="#000" stroke-width=".044522px"/>
  <path id="path3326" stroke-linejoin="round" d="m766.08 423.45-12.204 8.6511 0.63513 0.91752 12.204-8.6948z" stroke="#000" stroke-width=".044522px"/>
  <text id="text3328" font-size="11.933px" xml:space="preserve" transform="matrix(-.073106 -1.0338 .96233 -.070409 0 0)" line-height="125%" y="756.64905" x="-492.94489" font-family="Arial" fill="#000000"><tspan id="tspan4439" y="756.64905" x="-492.94489">IR3 -- IR0</tspan></text>
  <text id="text3330" font-size="11.933px" xml:space="preserve" transform="scale(1.019 .98137)" y="461.61664" x="764.9472" font-family="Arial" fill="#000000">4</text>
  <text id="text3332" font-size="11.933px" xml:space="preserve" transform="scale(1.019 .98137)" y="479.42291" x="447.1098" font-family="Arial" fill="#000000">5</text>
  <text id="text3334" font-size="11.933px" xml:space="preserve" transform="scale(1.019 .98137)" y="478.83481" x="530.48389" font-family="Arial" fill="#000000">5</text>
  <text id="text3336" font-size="11.933px" xml:space="preserve" transform="scale(1.019 .98137)" y="476.54984" x="613.93005" font-family="Arial" fill="#000000">5</text>
  <text id="text3338" font-size="10.329px" xml:space="preserve" transform="scale(1.019 .98137)" y="507.60794" x="454.31393" font-family="Arial" fill="#000000">0</text>
  <text id="text3340" font-size="10.329px" xml:space="preserve" transform="scale(1.019 .98137)" y="507.86087" x="480.28943" font-family="Arial" fill="#000000">1</text>
  <text id="text3342" font-size="14.78px" xml:space="preserve" transform="scale(1.019 .98137)" y="564.63544" x="546.50702" font-family="Arial" fill="#000000">RB</text>
  <text id="text3344" font-size="14.78px" xml:space="preserve" transform="scale(1.019 .98137)" y="563.57068" x="631.39514" font-family="Arial" fill="#000000">RC</text>
  <text id="text3346" font-size="14.78px" xml:space="preserve" transform="scale(1.019 .98137)" y="564.11676" x="463.08981" font-family="Arial" fill="#000000">RA</text>
  <text id="text3348" font-size="14.78px" xml:space="preserve" transform="scale(1.019 .98137)" y="561.93219" x="756.30835" font-family="Arial" fill="#000000">Cop</text>
  <text id="text3350" font-size="10.329px" xml:space="preserve" transform="scale(1.019 .98137)" y="507.608" x="538.76746" font-family="Arial" fill="#000000">0</text>
  <text id="text3352" font-size="10.329px" xml:space="preserve" transform="scale(1.019 .98137)" y="507.8609" x="565.90094" font-family="Arial" fill="#000000">1</text>
  <text id="text3354" font-size="10.329px" xml:space="preserve" transform="scale(1.019 .98137)" y="501.82767" x="751.48096" font-family="Arial" fill="#000000">0</text>
  <text id="text3356" font-size="10.329px" xml:space="preserve" transform="scale(1.019 .98137)" y="499.36816" x="777.39941" font-family="Arial" fill="#000000">1</text>
  <text id="text3358" font-size="11.844px" xml:space="preserve" transform="scale(1.019 .98137)" y="170.83897" x="263.56113" font-family="Arial" line-height="125%" fill="#000000">A1</text>
  <text id="text3362" font-size="17.809px" xml:space="preserve" transform="scale(1.019 .98137)" y="282.76599" x="261.97617" font-family="Arial" fill="#000000">MUX B</text>
  <path id="path3364" stroke-linejoin="round" d="m254.1 300.47c0 0.4151 0.26965 0.74279 0.63562 0.74279h80.09c0.34668 0 0.63561-0.32769 0.63561-0.74279v-46.468c0-0.39325-0.28893-0.72095-0.63561-0.72095h-80.09c-0.36597 0-0.63562 0.3277-0.63562 0.72095zm1.2713-46.468-0.63561 0.72095h80.09l-0.63564-0.72095v46.468l0.63564-0.72095h-80.09l0.63561 0.72095z" stroke="#000" stroke-width=".020513px"/>
  <text id="text3366" font-size="10.329px" xml:space="preserve" transform="scale(1.019 .98137)" y="299.63962" x="269.09305" font-family="Arial" fill="#000000">0</text>
  <text id="text3368" font-size="10.329px" xml:space="preserve" transform="scale(1.019 .98137)" y="299.89236" x="300.5997" font-family="Arial" fill="#000000">1</text>
  <path id="path3372" stroke-linejoin="round" d="m311.01 321.56v-13.369h-1.5197v13.369h1.5197zm3.7654-11.907-4.5366-8.7384-4.5367 8.7384h9.0732z" stroke="#000" stroke-width=".022261px"/>
  <text id="text3374" font-size="11.844px" xml:space="preserve" transform="scale(1.019 .98137)" y="75.163673" x="226.36674" font-family="Arial" line-height="125%" fill="#000000">00</text>
  <text id="text3376" font-size="11.844px" xml:space="preserve" transform="scale(1.019 .98137)" y="102.12419" x="226.36674" font-family="Arial" line-height="125%" fill="#000000"><tspan id="tspan5996" y="102.12419" x="226.36674">01</tspan></text>
  <text id="text3378" font-size="11.844px" xml:space="preserve" transform="scale(1.019 .98137)" y="129.08466" x="225.56871" font-family="Arial" line-height="125%" fill="#000000"><tspan id="tspan5998" y="129.08466" x="225.56871">10</tspan></text>
  <text id="text3380" font-size="11.844px" xml:space="preserve" transform="scale(1.019 .98137)" y="156.04518" x="225.56871" font-family="Arial" line-height="125%" fill="#000000">11</text>
  <path id="path3382" fill-rule="evenodd" fill="#fff" d="m301.77 344.27 8.5741-16.516 8.5742 16.516z"/>
  <path id="path3384" stroke-linejoin="round" d="m301.77 340.5c-0.20419 0-0.38566-0.0827-0.49912-0.19794-0.0906-0.13191-0.11341-0.28034-0.0225-0.39577l8.5756-12.468c0.0907-0.14841 0.29492-0.23088 0.52178-0.23088 0.20417 0 0.40835 0.0826 0.49912 0.23088l8.5756 12.468c0.0909 0.11543 0.0679 0.26386-0.0225 0.39577-0.11343 0.11545-0.29492 0.19794-0.47642 0.19794zm17.152-0.82457-0.52179 0.5937-8.5756-12.468h1.0209l-8.5756 12.468-0.49909-0.5937z" stroke="#000" stroke-width=".019343px"/>
  <path id="path3386" fill-rule="evenodd" fill="#fff" d="m305.93 324.18c0-2.272 1.928-4.1288 4.287-4.1288 2.3818 0 4.287 1.8568 4.287 4.1288s-1.9054 4.1288-4.287 4.1288c-2.3591 0-4.287-1.8568-4.287-4.1288"/>
  <path id="path3388" stroke-linejoin="round" d="m305.37 324.26c-0.0225-0.0436-0.0225-0.0874 0-0.1311l0.0908-0.83014c0-0.0218 0-0.0655 0.0225-0.0874l0.2495-0.78646c0-0.0218 0.0225-0.0655 0.0225-0.0874l0.38561-0.69908c0.0225-0.0436 0.0455-0.0653 0.0678-0.10927l0.54439-0.61169 0.068-0.0654 0.63515-0.50246c0.0225-0.0218 0.068-0.0436 0.0907-0.0436l0.72586-0.39323c0.0224-0.0218 0.0679-0.0218 0.11344-0.0436l0.79389-0.24032c0.0456 0 0.068-0.0218 0.11343-0.0218l0.86194-0.0874h0.11343l0.86194 0.0874c0.0456 0 0.068 0.0218 0.11343 0.0218l0.7939 0.24032c0.0456 0.0218 0.068 0.0218 0.11344 0.0436l0.72585 0.39323c0.0225 0 0.068 0.0218 0.0906 0.0436l0.63516 0.50246 0.068 0.0654 0.54441 0.61169c0.0225 0.0436 0.0456 0.0655 0.068 0.10927l0.38562 0.69908c0 0.0218 0.0225 0.0656 0.0225 0.0874l0.24951 0.78646c0.0224 0.0218 0.0224 0.0656 0.0224 0.0874l0.091 0.83014c0.0225 0.0436 0.0225 0.0874 0 0.1311l-0.091 0.83014c0 0.0218 0 0.0654-0.0224 0.0874l-0.24951 0.78646c0 0.0218-0.0225 0.0654-0.0225 0.0874l-0.38562 0.69908c-0.0225 0.0436-0.0456 0.0657-0.068 0.10927l-0.54441 0.61169-0.068 0.0655-0.63516 0.50246c-0.0225 0.0218-0.068 0.0436-0.0906 0.0655l-0.72585 0.37139c-0.0456 0.0218-0.0678 0.0218-0.11344 0.0436l-0.7939 0.24031c-0.0456 0-0.068 0.0218-0.11343 0.0218l-0.86194 0.0874h-0.11343l-0.86194-0.0874c-0.0456 0-0.068-0.0218-0.11343-0.0218l-0.79389-0.24031c-0.0456-0.0218-0.068-0.0218-0.11344-0.0436l-0.72586-0.37139c-0.0225-0.0218-0.068-0.0436-0.0907-0.0655l-0.63515-0.50246-0.068-0.0655-0.54439-0.61169c-0.0226-0.0436-0.0456-0.0654-0.0678-0.10927l-0.38561-0.69908c0-0.0219-0.0225-0.0655-0.0225-0.0874l-0.2495-0.78646c-0.0225-0.0217-0.0225-0.0652-0.0225-0.0874zm1.2022 0.69906-0.0225-0.0874 0.24951 0.76462-0.0224-0.0874 0.38559 0.69909-0.068-0.10925 0.52172 0.61169-0.068-0.0655 0.63512 0.52431-0.0906-0.0654 0.72589 0.37138-0.11346-0.0436 0.81662 0.24032-0.11342-0.0218 0.86194 0.0874h-0.11344l0.86198-0.0874-0.11342 0.0218 0.8166-0.24032-0.11345 0.0436 0.72588-0.37138-0.0907 0.0654 0.63512-0.52431-0.068 0.0655 0.52172-0.61169-0.0678 0.10925 0.3856-0.69909-0.0225 0.0874 0.24951-0.76462-0.0225 0.0874 0.0907-0.83016v0.1311l-0.0907-0.83014 0.0225 0.0874-0.24951-0.7646 0.0225 0.0874-0.3856-0.69908 0.0678 0.10926-0.52172-0.61166 0.068 0.0653-0.63512-0.50243 0.0907 0.0436-0.72588-0.37138 0.11345 0.0436-0.8166-0.24029 0.11342 0.0218-0.86198-0.0874h0.11344l-0.86194 0.0874 0.11342-0.0218-0.81662 0.24029 0.11346-0.0436-0.72589 0.37138 0.0906-0.0436-0.63512 0.50243 0.068-0.0653-0.52172 0.61166 0.068-0.10926-0.38559 0.69908 0.0224-0.0874-0.24951 0.7646 0.0225-0.0874-0.0908 0.83014v-0.1311z" stroke="#000" stroke-width=".022261px"/>
  <path id="path3390" stroke-linejoin="round" d="m311.25 356.26v-16.516h-1.1341v16.516z" stroke="#000" stroke-width=".022261px"/>
  <path id="path3392" stroke-linejoin="round" d="m276.02 355.45h35v1.0923h-35z" stroke="#000" stroke-width=".022261px"/>
  <path id="path3394" fill-rule="evenodd" fill="#d9d9d9" d="m446.82 274.84v32.048h21.556v-32.048h-21.556z"/>
  <path id="path3396" stroke-linejoin="round" d="m445.69 275.04c0-0.38071 0.40576-0.69793 0.95638-0.69793h21.531c0.52167 0 0.95638 0.31722 0.95638 0.69793v31.027c0 0.3807-0.43471 0.69793-0.95638 0.69793h-21.531c-0.55062 0-0.95638-0.31723-0.95638-0.69793zm1.9126 31.027-0.95635-0.69795h21.531l-0.98535 0.69795v-31.027l0.98535 0.69793h-21.531l0.95635-0.69793z" stroke="#000" stroke-width=".024759px"/>
  <path id="path3398" fill-rule="evenodd" fill="#d9d9d9" d="m468.65 274.84v32.048h30.01v-32.048h-30.01z"/>
  <path id="path3400" stroke-linejoin="round" d="m467.89 275.04c0-0.38073 0.31759-0.69802 0.74857-0.69802h30.01c0.4083 0 0.74858 0.31729 0.74858 0.69802v31.029c0 0.38073-0.34028 0.69799-0.74858 0.69799h-30.01c-0.43098 0-0.74857-0.31726-0.74857-0.69799zm1.4972 31.029-0.74855-0.69799h30.01l-0.77121 0.69799v-31.029l0.77121 0.698h-30.01l0.74855-0.698z" stroke="#000" stroke-width=".021905px"/>
  <path id="path3402" fill-rule="evenodd" fill="#d9d9d9" d="m425.15 274.84v32.048h21.399v-32.048h-21.399z"/>
  <path id="path3404" stroke-linejoin="round" d="m424.8 275.04c0-0.38069 0.39958-0.69793 0.94188-0.69793h21.207c0.51376 0 0.94189 0.31724 0.94189 0.69793v31.027c0 0.38069-0.42813 0.69793-0.94189 0.69793h-21.207c-0.5423 0-0.94188-0.31724-0.94188-0.69793zm1.8838 31.027-0.94193-0.69796h21.207l-0.97041 0.69796v-31.027l0.97041 0.69792h-21.207l0.94193-0.69792z" stroke="#000" stroke-width=".024570px"/>
  <text id="text3406" font-size="13.324px" xml:space="preserve" transform="scale(1.019 .98137)" y="301.63165" x="419.92642" font-family="Arial" line-height="125%" fill="#000000">A0</text>
  <text id="text3408" font-size="16.284px" xml:space="preserve" transform="scale(1.019 .98137)" y="302.75333" x="443.37244" font-family="Arial" line-height="125%" fill="#000000">B</text>
  <text id="text3410" font-size="16.284px" xml:space="preserve" transform="scale(1.019 .98137)" y="302.75333" x="468.31531" font-family="Arial" line-height="125%" fill="#000000">C</text>
  <text id="text3412" font-size="14.78px" xml:space="preserve" transform="scale(1.019 .98137)" y="244.26634" x="532.27698" font-family="Arial" fill="#000000">µAddress</text>
  <path id="path3414" stroke-linejoin="round" d="m484.16 306.54v35.063h-1.109v-35.063z" stroke="#000" stroke-width=".022013px"/>
  <path id="path3416" stroke-linejoin="round" d="m570.93 201.49v23.568h-1.1328v-23.568z" stroke="#000" stroke-width=".023584px"/>
  <path id="path3418" stroke-linejoin="round" d="m499.23 271.88 0.0455-2.5341 0.13611-2.4031 0.091-1.1359 0.13609-1.0486 0.13609-1.0049 0.13612-0.87385 0.13611-0.87383 0.18145-0.74277 0.18148-0.65537 0.22681-0.568 0.18147-0.43693c0.0456-0.0436 0.0456-0.0874 0.0456-0.0874l0.22685-0.30586c0.0455-0.0436 0.0455-0.0874 0.0906-0.0874l0.22684-0.21847c0.0456-0.0436 0.1361-0.0874 0.22684-0.13109l0.22684-0.0436c0.0455-0.0436 0.0908-0.0436 0.13609-0.0436h65.871l-0.18145 0.0436 0.22682-0.0874-0.22682 0.13105 0.22682-0.17475-0.0906 0.0874 0.22682-0.30582-0.0455 0.0874 0.18148-0.43693 0.18146-0.48061 0.18146-0.61169 0.1361-0.69907 0.18146-0.78646 0.1361-0.87386 0.0909-0.96122 0.13612-1.0486 0.0909-1.0922 0.0907-2.3594 0.0456-2.5341c0.0455-0.30584 0.27219-0.52431 0.58975-0.52431 0.31758 0 0.54438 0.21847 0.54438 0.52431l0.0455 2.5778 0.13611 2.3157 0.0908 1.0922 0.13611 1.0486 0.0909 0.96122 0.13608 0.87386 0.18148 0.78646 0.13609 0.69907 0.18147 0.61169 0.18146 0.5243 0.18146 0.39323-0.0455-0.0874 0.22684 0.30582-0.0908-0.0874 0.22684 0.17475-0.22684-0.13104 0.22684 0.0874-0.18146-0.0436h65.871c0.0456 0 0.0908 0 0.1361 0.0436l0.22687 0.0436c0.0908 0.0436 0.18145 0.0874 0.2268 0.1311l0.22685 0.21846c0.0455 0 0.0455 0.0436 0.0908 0.0874l0.22682 0.30586s0 0.0436 0.0455 0.0874l0.18147 0.39322 0.22684 0.61171 0.18145 0.65537 0.18144 0.74275 0.13614 0.83016 0.1361 0.91754 0.13607 1.0049 0.13611 1.0486 0.0908 1.0922 0.0908 2.4031 0.0456 2.5778h-1.1342l-0.0455-2.5341-0.0908-2.3594-0.0909-1.0486-0.13611-1.0486-0.0907-0.96123-0.13612-0.87386-0.18144-0.83014-0.13611-0.65539-0.18146-0.61168-0.18145-0.5243-0.18146-0.39322 0.0455 0.0874-0.22684-0.30585 0.0907 0.0874-0.22683-0.21844 0.22683 0.13106-0.22683-0.0436h0.18145-65.871-0.1361l-0.22684-0.0874c-0.0907 0-0.18145-0.0436-0.22682-0.13109l-0.22682-0.17478c-0.0455-0.0436-0.0455-0.0874-0.0909-0.0874l-0.22681-0.30586c0-0.0436 0-0.0874-0.0455-0.0874l-0.18147-0.48061-0.22683-0.56801-0.18146-0.65536-0.18147-0.74276-0.13611-0.83017-0.1361-0.91754-0.13608-0.9612-0.13611-1.0923-0.0908-1.0922-0.13612-2.4031-0.0456-2.5341h1.1341l-0.0456 2.5341-0.0907 2.4031-0.0908 1.136-0.13611 1.0486-0.13609 0.9612-0.13611 0.91754-0.1361 0.83017-0.18144 0.78645-0.1815 0.65539-0.22683 0.56799-0.18148 0.43692c-0.0455 0-0.0455 0.0436-0.0455 0.0874l-0.22683 0.30586c-0.0455 0-0.0455 0.0436-0.0907 0.0874l-0.22686 0.17479c-0.0455 0.0874-0.13609 0.13107-0.22681 0.13107l-0.22684 0.0874h-0.13609-65.871 0.18144l-0.22681 0.0436 0.22681-0.13106-0.22681 0.21845 0.0906-0.0874-0.22682 0.30585 0.0456-0.0874-0.1815 0.39322-0.18146 0.48061-0.18145 0.61171-0.13611 0.69905-0.18146 0.78647-0.13608 0.87384-0.0907 1.0049-0.13608 1.0049-0.0908 1.0922-0.13608 2.3594-0.0455 2.5341z" stroke="#000" stroke-width=".044522px"/>
  <path id="path3422" stroke-linejoin="round" d="m105.4 513.71c0-0.3588 0.34024-0.62318 0.74854-0.62318h24.679c0.43097 0 0.77121 0.26438 0.77121 0.62318v26.193c0 0.33992-0.34024 0.62317-0.77121 0.62317h-24.679c-0.4083 0-0.74854-0.28325-0.74854-0.62317zm1.5197 26.193-0.77123-0.62319h24.679l-0.74854 0.62319v-26.193l0.74854 0.62322h-24.679l0.77123-0.62322z" stroke="#000" stroke-width=".020696px"/>
  <text id="text3424" font-size="26.712px" xml:space="preserve" transform="scale(1.019 .98137)" y="546.74139" x="111.44549" font-family="Arial" fill="#ffffff">º</text>
  <path id="path3426" stroke-linejoin="round" d="m130.06 513.71c0-0.3588 0.34026-0.62318 0.74858-0.62318h24.68c0.4083 0 0.74854 0.26438 0.74854 0.62318v26.193c0 0.33992-0.34024 0.62317-0.74854 0.62317h-24.68c-0.40832 0-0.74858-0.28325-0.74858-0.62317zm1.5197 26.193-0.7712-0.62319h24.68l-0.74856 0.62319v-26.193l0.74856 0.62322h-24.68l0.7712-0.62322z" stroke="#000" stroke-width=".020696px"/>
  <path id="path3428" stroke-linejoin="round" d="m154.74 513.71c0-0.3588 0.35218-0.62317 0.77478-0.62317h25.544c0.42261 0 0.77478 0.26437 0.77478 0.62317v26.192c0 0.33992-0.35217 0.62316-0.77478 0.62316h-25.544c-0.4226 0-0.77478-0.28324-0.77478-0.62316zm1.5495 26.192-0.77476-0.62319h25.544l-0.77478 0.62319v-26.192l0.77478 0.62322h-25.544l0.77476-0.62322z" stroke="#000" stroke-width=".021056px"/>
  <path id="path3430" stroke-linejoin="round" d="m230.51 513.71c0-0.35881 0.32238-0.6232 0.70924-0.6232h23.384c0.38684 0 0.70921 0.26439 0.70921 0.6232v26.193c0 0.33993-0.32237 0.62319-0.70921 0.62319h-23.384c-0.38686 0-0.70924-0.28326-0.70924-0.62319zm1.4399 26.193-0.73073-0.6232h23.383l-0.7092 0.6232v-26.193l0.7092 0.62323h-23.383l0.73073-0.62323z" stroke="#000" stroke-width=".020146px"/>
  <path id="path3432" stroke-linejoin="round" d="m253.64 513.71c0-0.35879 0.33429-0.62318 0.73544-0.62318h24.247c0.40114 0 0.7354 0.26439 0.7354 0.62318v26.193c0 0.33991-0.33426 0.62317-0.7354 0.62317h-24.247c-0.40115 0-0.73544-0.28326-0.73544-0.62317zm1.4708 26.193-0.73545-0.6232h24.247l-0.75772 0.6232v-26.193l0.75772 0.62323h-24.247l0.73545-0.62323z" stroke="#000" stroke-width=".020515px"/>
  <text id="text3434" font-size="14.78px" xml:space="preserve" transform="scale(1.019 .98137)" y="542.02069" x="110.93995" font-family="Arial" line-height="125%" fill="#000000"><tspan id="tspan3657" y="542.02069" x="110.93995">C</tspan></text>
  <text id="text3436" font-size="14.78px" xml:space="preserve" transform="scale(1.019 .98137)" y="542.02069" x="135.74893" font-family="Arial" line-height="125%" fill="#000000"><tspan id="tspan3655" y="542.02069" x="135.74893">V</tspan></text>
  <text id="text3438" font-size="14.78px" xml:space="preserve" transform="scale(1.019 .98137)" y="542.02069" x="159.93098" font-family="Arial" line-height="125%" fill="#000000"><tspan id="tspan3653" y="542.02069" x="159.93098">N</tspan></text>
  <text id="text3440" font-size="14.78px" xml:space="preserve" transform="scale(1.019 .98137)" y="542.02069" x="236.23485" font-family="Arial" fill="#000000">I</text>
  <text id="text3442" font-size="14.78px" xml:space="preserve" transform="scale(1.019 .98137)" y="542.02069" x="255.97749" font-family="Arial" fill="#000000">U</text>
  <path id="path3444" stroke-linejoin="round" d="m204.48 513.71c0-0.35887 0.16025-0.62332 0.37772-0.62332h26.783c0.21747 0 0.38916 0.26445 0.38916 0.62332v26.198c0 0.33999-0.17169 0.62331-0.38916 0.62331h-26.783c-0.21747 0-0.37772-0.28332-0.37772-0.62331zm0.7554 26.198-0.37771-0.62333h26.783l-0.37772 0.62333v-26.198l0.37772 0.62336h-26.783l0.37771-0.62336z" stroke="#000" stroke-width=".014703px"/>
  <text id="text3446" font-size="11.844px" xml:space="preserve" transform="scale(1.019 .98137)" y="563.5387" x="110.45363" font-family="Arial" line-height="125%" fill="#000000">31</text>
  <text id="text3448" font-size="11.844px" xml:space="preserve" transform="scale(1.019 .98137)" y="563.5387" x="133.60596" font-family="Arial" line-height="125%" fill="#000000">30</text>
  <text id="text3450" font-size="11.844px" xml:space="preserve" transform="scale(1.019 .98137)" y="563.5387" x="158.01543" font-family="Arial" line-height="125%" fill="#000000">29</text>
  <text id="text3452" font-size="11.844px" xml:space="preserve" transform="scale(1.019 .98137)" y="563.5387" x="235.3999" font-family="Arial" line-height="125%" fill="#000000">1</text>
  <text id="text3454" font-size="13.324px" xml:space="preserve" transform="scale(1.019 .98137)" y="495.82477" x="269.39902" font-family="Arial" line-height="125%" fill="#000000">MRdy</text>
  <text id="text3456" font-size="13.324px" xml:space="preserve" transform="scale(1.019 .98137)" y="518.90094" x="295.91812" font-family="Arial" line-height="125%" fill="#000000">IORdy</text>
  <text id="text3458" font-size="13.324px" xml:space="preserve" transform="scale(1.019 .98137)" y="496.34332" x="328.82919" font-family="Arial" line-height="125%" fill="#000000">INT</text>
  <text id="text3460" font-size="11.844px" xml:space="preserve" transform="scale(1.019 .98137)" y="451.09915" x="162.75357" font-family="Arial" line-height="125%" fill="#000000">7</text>
  <text id="text3462" font-size="11.844px" xml:space="preserve" transform="scale(1.019 .98137)" y="451.09915" x="182.08064" font-family="Arial" line-height="125%" fill="#000000">6</text>
  <text id="text3464" font-size="11.844px" xml:space="preserve" transform="scale(1.019 .98137)" y="451.33502" x="234.53654" font-family="Arial" line-height="125%" fill="#000000">5</text>
  <text id="text3466" font-size="11.844px" xml:space="preserve" transform="scale(1.019 .98137)" y="451.09915" x="257.64798" font-family="Arial" line-height="125%" fill="#000000">4</text>
  <text id="text3468" font-size="11.844px" xml:space="preserve" transform="scale(1.019 .98137)" y="451.09918" x="285.34277" font-family="Arial" line-height="125%" fill="#000000">3</text>
  <text id="text3470" font-size="11.844px" xml:space="preserve" transform="scale(1.019 .98137)" y="451.09918" x="311.17276" font-family="Arial" line-height="125%" fill="#000000">2</text>
  <text id="text3472" font-size="11.844px" xml:space="preserve" transform="scale(1.019 .98137)" y="451.09918" x="335.47592" font-family="Arial" line-height="125%" fill="#000000">1</text>
  <text id="text3474" font-size="11.844px" xml:space="preserve" transform="scale(1.019 .98137)" y="451.09918" x="360.61502" font-family="Arial" line-height="125%" fill="#000000">0</text>
  <text id="text3476" font-size="11.844px" xml:space="preserve" transform="scale(1.019 .98137)" y="451.09915" x="137.5585" font-family="Arial" line-height="125%" fill="#000000">8</text>
  <path id="path3478" stroke-linejoin="round" d="m90.652 355.36 0.04195 2.2764 0.12593 2.118 0.08397 0.98973 0.08398 0.93033 0.12593 0.89079 0.12594 0.81158 0.14701 0.73239 0.14701 0.67303 0.16809 0.57404 0.18898 0.51466 0.20999 0.4157c0 0.0199 0.02085 0.0398 0.02085 0.0594l0.18899 0.2771c0.04195 0.0397 0.06312 0.0793 0.10506 0.0991l0.18901 0.17813c0.06312 0.0398 0.12593 0.0792 0.18899 0.0991l0.20998 0.0594c0.04195 0.0199 0.10505 0.0199 0.14701 0.0199h57.159l-0.16789-0.0199 0.20998 0.0594-0.18901-0.099 0.18901 0.15837-0.0839-0.099 0.18896 0.27709 0.14702 0.31674 0.147 0.41567 0.16793 0.55426 0.14697 0.61364 0.12595 0.71261 0.12594 0.77198 0.12593 0.8512 0.0839 0.91055 0.0838 0.96992 0.12594 2.0982 0.0208 2.2368c0.0208 0.27711 0.25198 0.49486 0.52495 0.49486 0.294 0 0.52499-0.21775 0.52499-0.49486l0.0422-2.2565 0.12593-2.0785 0.0839-0.96992 0.0839-0.93036 0.12595-0.83139 0.12591-0.79178 0.147-0.71258 0.12594-0.63344 0.16809-0.53446 0.1679-0.43549 0.16791-0.33652-0.0422 0.0594 0.18896-0.27711-0.0838 0.099 0.18897-0.15837-0.18897 0.099 0.18897-0.0594-0.14702 0.0197h57.159c0.0631 0 0.105 0 0.14701-0.0197l0.20999-0.0594c0.063-0.0198 0.12592-0.0594 0.18898-0.099l0.21-0.17811c0.021-0.0199 0.0629-0.0594 0.0839-0.099l0.189-0.27711c0.0207-0.0199 0.0207-0.0398 0.0422-0.0594l0.16806-0.37612 0.21-0.51466 0.16789-0.59382 0.14703-0.67302 0.14698-0.75221 0.14704-0.79178 0.10501-0.89078 0.10502-0.93035 0.0839-0.98976 0.10503-2.118 0.0422-2.2961h-1.05l-0.0422 2.2368-0.10501 2.0982-0.0838 0.96996-0.0839 0.91052-0.12589 0.8512-0.12595 0.7918-0.12593 0.69284-0.14701 0.6334-0.16792 0.51466-0.147 0.43547-0.189 0.37612 0.0422-0.0594-0.18901 0.27712 0.0839-0.0989-0.18901 0.15835 0.18901-0.0991-0.21 0.0594 0.1679-0.0199h-57.159c-0.0629 0-0.10501 0-0.1679 0.0199l-0.18897 0.0594c-0.0631 0.0199-0.14704 0.0594-0.18904 0.099l-0.20997 0.17814c-0.0208 0.0199-0.063 0.0594-0.0838 0.0991l-0.18897 0.27713c-0.0209 0.0199-0.0209 0.0398-0.0422 0.0594l-0.18901 0.4157-0.18899 0.51465-0.16791 0.59384-0.16789 0.65323-0.12593 0.73241-0.14701 0.81157-0.10502 0.89078-0.10501 0.93038-0.0839 0.98972-0.12591 2.1378-0.0422 2.2565h1.05l-0.0422-2.2764-0.10503-2.1378-0.0839-0.96995-0.10501-0.95017-0.105-0.87098-0.12595-0.83138-0.16809-0.73238-0.14701-0.67302-0.16791-0.57406-0.18897-0.53446-0.23102-0.43547-0.18898-0.27713c-0.0208-0.0398-0.0629-0.0793-0.0838-0.0991l-0.20999-0.17813c-0.0632-0.0398-0.12592-0.0792-0.18899-0.099l-0.21002-0.0594c-0.0421-0.0198-0.0839-0.0198-0.147-0.0198h-57.159l0.16791 0.0198-0.20999-0.0594 0.20999 0.0991-0.20999-0.15837 0.08398 0.099-0.18897-0.27713 0.04195 0.0594-0.147-0.33649-0.16792-0.4355-0.16808-0.53444-0.14701-0.63346-0.12594-0.71259-0.14701-0.77199-0.10505-0.8512-0.10506-0.93033-0.08397-0.95017-0.10505-2.0982-0.04195-2.2565z" stroke="#000" stroke-width=".020389px"/>
  <path id="path3480" stroke-linejoin="round" d="m243.4 514.01v-60.234h-1.497v60.234h1.497zm3.7882-59.032-4.5367-7.175-4.5366 7.175h9.0732z" stroke="#000" stroke-width=".020172px"/>
  <path id="path3482" stroke-linejoin="round" d="m266.83 514.01v-60.234h-1.5198v60.234h1.5198zm3.7656-59.032-4.5367-7.175-4.5366 7.175h9.0733z" stroke="#000" stroke-width=".020172px"/>
  <path id="path3484" stroke-linejoin="round" d="m144.48 514.24v-60.211h-1.5199v60.211h1.5199zm3.7656-59.029-4.5367-7.1745-4.5366 7.1745h9.0734z" stroke="#000" stroke-width=".020172px"/>
  <path id="path3486" stroke-linejoin="round" d="m169.51 514.24v-60.211h-1.5199v60.211h1.5199zm3.7656-59.029-4.5367-7.1745-4.5366 7.1745h9.0734z" stroke="#000" stroke-width=".020172px"/>
  <path id="path3488" stroke-linejoin="round" d="m193.91 514.31v-60.234h-1.497v60.234h1.497zm3.7882-59.032-4.5366-7.175-4.5367 7.175h9.0732z" stroke="#000" stroke-width=".020172px"/>
  <path id="path3490" stroke-linejoin="round" d="m638.45 449.72v29.333h-1.497v-29.333h1.497zm3.8105 27.925-4.5364 8.5267-4.5364-8.5267h9.0727z" stroke="#000" stroke-width=".043978px"/>
  <path id="path3492" stroke-linejoin="round" d="m552.88 452.58v27.92h-1.5197v-27.92h1.5197zm3.7653 26.582-4.5365 8.1166-4.5366-8.1166h9.073z" stroke="#000" stroke-width=".021454px"/>
  <path id="path3494" stroke-linejoin="round" d="m467.34 450.76v30.008h-1.5196v-30.008h1.5196zm3.7879 28.569-4.5364 8.7228-4.5364-8.7228h9.0727z" stroke="#000" stroke-width=".022240px"/>
  <path id="path3496" stroke-linejoin="round" d="m430.16 425.82h-36.076v1.4427h36.076v-1.4427zm-35.196-3.6505-5.255 4.3718 5.255 4.3719v-8.7436z" stroke="#000" stroke-width=".016947px"/>
  <path id="path3498" stroke-linejoin="round" d="m429.68 341.17h53.943v1.0933h-53.943z" stroke="#000" stroke-width=".021002px"/>
  <path id="path3500" stroke-linejoin="round" d="m147.33 203.45h423.56v1.324h-423.56z" stroke="#000" stroke-width=".023191px"/>
  <path id="path3502" stroke-linejoin="round" d="m846.21 548.29-0.1044-18.058 1.1681-0.006 0.10442 18.058z" stroke="#000" stroke-width=".027746px"/>
  <path id="path3504" stroke-linejoin="round" d="m117.48 95.114h98.752v1.4531h-98.752v-1.4531zm97.782-3.6383 5.7944 4.3703-5.7944 4.3703v-8.7407z" stroke="#000" stroke-width=".0088959px"/>
  <path id="path3118-3" stroke-linejoin="round" d="m400.64 161.78v-15.226h-1.5198v15.226h1.5198zm3.7654-13.762-4.5367-8.7384-4.5366 8.7384h9.0733z" stroke="#000" stroke-width=".022261px"/>
  <g id="g4875" stroke-linejoin="round" stroke="#000" stroke-width=".043902px" transform="matrix(.70664 0 0 1.0654 123.56 -7.9484)">
   <path id="path3042-5" d="m358.27 176.57h12.482v1.0923h-12.482z"/>
   <path id="path3044-3" d="m384.56 176.57h12.483v1.0923h-12.483z"/>
   <path id="path3046-8" d="m409.52 176.57h12.483v1.0923h-12.483z"/>
   <path id="path3048-7" d="m371.07 163.72h13.454v1.0923h-13.454z"/>
   <path id="path3050-6" d="m371.62 177.48v-13.588h-1.1028v13.588z"/>
   <path id="path3052-7" d="m384.73 177.48v-13.938h-1.1028v13.938z"/>
   <path id="path3054-4" d="m397.2 177.48v-13.938h-1.1028v13.938z"/>
   <path id="path3056-8" d="m410.66 177.14v-13.588h-1.1027v13.588z"/>
   <path id="path3058-1" d="m396.38 163.72h13.763v1.0923h-13.763z"/>
  </g>
  <path id="path3022-6" stroke-linejoin="round" d="m94.903 286.55c0 0.19943 0.44885 0.36114 1.0025 0.36114h118.83c0.55358 0 1.0024-0.16171 1.0024-0.36114v-59.138c0-0.19946-0.44882-0.36122-1.0024-0.36122h-118.83c-0.55358 0-1.0025 0.16176-1.0025 0.36122zm2.0047-59.138-1.0025 0.36119h118.83l-1.0025-0.36119v59.138l1.0025-0.36121h-118.83l1.0025 0.36121z" stroke="#000" stroke-width=".0089810px"/>
  <path id="path3100-8" stroke-linejoin="round" d="m117.22 95.231-0.14168 132.51h1.1846l0.14167-132.51z" stroke="#000" stroke-width=".014414px"/>
  <path id="path3100-9" stroke-linejoin="round" d="m437.35 24.208-0.13612 67.978h1.1342l0.13611-67.978z" stroke="#000" stroke-width=".010104px"/>
  <text id="text3172-1" font-size="16.284px" xml:space="preserve" transform="scale(1.019 .98137)" y="302.75333" x="641.42255" font-family="Arial" line-height="125%" fill="#000000"><tspan id="tspan4412" y="302.75333" x="641.42255">MR</tspan></text>
  <path id="path3180-5" stroke-linejoin="round" d="m648.54 275.32c0-0.39334 0.18938-0.743 0.45993-0.743h36.849c0.2435 0 0.43287 0.34966 0.43287 0.743v30.462c0 0.39334-0.18937 0.74299-0.43287 0.74299h-36.849c-0.27055 0-0.45993-0.34965-0.45993-0.74299zm0.89283 30.462-0.4329-0.74303h36.849l-0.45992 0.74303v-30.462l0.45992 0.743h-36.849l0.4329-0.743z" stroke="#000" stroke-width=".034387px"/>
  <text id="text3172-1-5" font-size="16.284px" xml:space="preserve" transform="scale(1.019 .98137)" y="302.75333" x="710.07178" font-family="Arial" line-height="125%" fill="#000000"><tspan id="tspan4435" y="302.75333" x="710.07178">MC</tspan></text>
  <path id="path3180-5-7" stroke-linejoin="round" d="m684.6 275.28c0-0.39338 0.183-0.74302 0.44439-0.74302h35.603c0.2353 0 0.41825 0.34964 0.41825 0.74302v30.463c0 0.39337-0.18295 0.74302-0.41825 0.74302h-35.603c-0.26139 0-0.44439-0.34965-0.44439-0.74302zm0.86259 30.463-0.4182-0.74302h35.603l-0.44436 0.74302v-30.463l0.44436 0.743h-35.603l0.4182-0.743z" stroke="#000" stroke-width=".033801px"/>
  <text id="text4138" font-size="14.369px" xml:space="preserve" transform="scale(1.0842 .92234)" y="172.87735" x="378.17856" font-family="Arial" line-height="125%" fill="#000000"><tspan id="tspan4140" y="172.87735" x="378.17856">CLK</tspan></text>
  <path id="path3110-0" stroke-linejoin="round" d="m122.93 312.52-16.273 7.0918 0.4565 1.0205 16.252-7.1019z" stroke="#000" stroke-width=".021821px"/>
  <text id="text3112-0" font-size="11.697px" xml:space="preserve" transform="scale(.99884 1.0012)" line-height="125%" y="314.58447" x="105.15749" font-family="Arial" fill="#000000"><tspan id="tspan6982">6</tspan></text>
  <path id="path3124-2" stroke-linejoin="round" d="m198.93 328.65v-33.063h1.4116v33.063h-1.4116zm-3.5078-31.378 4.2138-10.138 4.2138 10.138h-8.4276z" stroke="#000" stroke-width=".011553px"/>
  <path id="path3124-2-4" stroke-linejoin="round" d="m114.74 328.65v-33.063h1.4116v33.063h-1.4116zm-3.5079-31.378 4.2138-10.138 4.2138 10.138h-8.4276z" stroke="#000" stroke-width=".011553px"/>
  <text id="text3112-0-4" font-size="11.697px" xml:space="preserve" transform="scale(.99884 1.0012)" y="314.18451" x="190.09779" font-family="Arial" fill="#000000">4</text>
  <path id="path3110-0-7" stroke-linejoin="round" d="m207.51 312.36-16.273 7.0918 0.45646 1.0205 16.252-7.1019z" stroke="#000" stroke-width=".021821px"/>
  <path id="path3310-3" stroke-linejoin="round" d="m815.32 275.18c0-0.39311 0.48473-0.74252 1.108-0.74252h65.439c0.62325 0 1.1773 0.34941 1.1773 0.74252v30.444c0 0.39309-0.55396 0.7425-1.1773 0.7425h-65.439c-0.62324 0-1.108-0.34941-1.108-0.7425zm1.679 30.495-0.57109-0.7941h65.439l0.0351 0.48802-0.25408-29.935 0.21876 0.48803h-65.439l0.62618-0.63929z" stroke="#000" stroke-width=".054998px"/>
  <text id="text3312-6" font-size="16.284px" xml:space="preserve" transform="scale(1.019 .98137)" y="301.43179" x="804.37744" font-family="Arial" line-height="125%" fill="#000000"><tspan id="tspan3945" y="301.43179" x="804.37744">ExCode</tspan></text>
  <path id="path3324-5" stroke-linejoin="round" d="m851.49 385.03-12.204 8.6948 0.68058 0.87385 12.204-8.6511z" stroke="#000" stroke-width=".044522px"/>
  <text id="text3330-3" font-size="11.933px" xml:space="preserve" transform="scale(1.019 .98137)" y="397.16492" x="817.93231" font-family="Arial" fill="#000000">4</text>
  <path id="path3131-3" stroke-linejoin="round" d="m855.18 518.7c0.25524 0 0.47122 0.13769 0.58902 0.3541 0.0982 0.21636 0.0785 0.47207-0.0588 0.66878l-8.6779 12.137c-0.11782 0.17704-0.33376 0.27537-0.5301 0.27537-0.21594 0-0.4123-0.0984-0.5301-0.27537l-8.6975-12.137c-0.13744-0.19671-0.15707-0.45242-0.0393-0.66878 0.0983-0.21641 0.33379-0.3541 0.56938-0.3541zm-17.375 1.2982 0.5301-1.0425 8.6975 12.137h-1.0603l8.6779-12.137 0.53007 1.0425z" stroke="#000" stroke-width=".019652px"/>
  <path id="path3133-6" stroke-linejoin="round" d="m863.35 525.89h-12.583v-0.98354h12.583z" stroke="#000" stroke-width="1.0652px"/>
  <path id="path3139-7" stroke-linejoin="round" d="m845.49 498.5v15.093h1.3156v-15.093h-1.3156zm-3.2598 13.979 3.9275 6.6416 3.9275-6.6416h-7.8549z" stroke="#000" stroke-width=".018056px"/>
  <text id="text3147-5" font-size="13.07px" xml:space="preserve" transform="scale(.99904 1.001)" line-height="125%" y="528.48615" x="866.25757" font-family="Arial" fill="#000000"><tspan id="tspan4426" y="528.48615" x="866.25757">T11</tspan></text>
  <path id="path3081-3" stroke-linejoin="round" d="m846.78 500.25v-193.94h-1.168v193.94z" stroke="#000" stroke-width=".042502px"/>
  <path id="path3428-3" stroke-linejoin="round" d="m180.44 513.79c0-0.35882 0.32834-0.6232 0.72231-0.6232h23.816c0.39402 0 0.72233 0.26438 0.72233 0.6232v26.193c0 0.33992-0.32831 0.62319-0.72233 0.62319h-23.816c-0.39397 0-0.72231-0.28327-0.72231-0.62319zm1.4446 26.193-0.72233-0.62319h23.816l-0.72233 0.62319v-26.193l0.72233 0.62318h-23.816l0.72233-0.62318z" stroke="#000" stroke-width=".020331px"/>
  <text id="text3438-6" font-size="14.78px" xml:space="preserve" transform="scale(1.019 .98137)" y="542.11945" x="184.96309" font-family="Arial" fill="#000000">Z</text>
  <text id="text3450-7" font-size="11.844px" xml:space="preserve" transform="scale(1.019 .98137)" y="563.63745" x="182.33865" font-family="Arial" line-height="125%" fill="#000000"><tspan id="tspan3651" y="563.63745" x="182.33865">28</tspan></text>
  <text id="text3476-8" font-size="11.844px" xml:space="preserve" transform="scale(1.019 .98137)" y="450.82236" x="113.54614" font-family="Arial" line-height="125%" fill="#000000"><tspan id="tspan3677" y="450.82236" x="113.54614">9</tspan></text>
  <path id="path3484-9" stroke-linejoin="round" d="m119.78 513.76v-60.211h-1.5199v60.211h1.5199zm3.7656-59.029-4.5366-7.1745-4.5367 7.1745h9.0734z" stroke="#000" stroke-width=".020172px"/>
  <text id="text3476-8-6" font-size="11.844px" xml:space="preserve" transform="scale(1.019 .98137)" y="451.05823" x="88.020721" font-family="Arial" line-height="125%" fill="#000000"><tspan id="tspan3700" y="451.05823" x="88.020721">10</tspan></text>
  <path id="path3108-3" stroke-linejoin="round" d="m97.652 472.19v-17.805h-1.5198v17.805h1.5198zm3.7882-16.564-4.5367-7.411-4.5366 7.411h9.0734z" stroke="#000" stroke-width=".020499px"/>
  <path id="path3260-3" stroke-linejoin="round" d="m64.372 473.26 0.6878-215.89-0.83869-0.0368-0.68774 215.95z" stroke="#000" stroke-width=".24885px"/>
  <path id="path3260-3-8" stroke-linejoin="round" d="m63.743 257.35 32.28-0.17914-0.0093-1.3316-32.287 0.17955z" stroke="#000" stroke-width=".012125px"/>
  <path id="path3260-3-8-6" stroke-linejoin="round" d="m63.165 473.21 34.469-0.17916-0.01018-1.3317-34.478 0.17955z" stroke="#000" stroke-width=".012530px"/>
  <text id="text3038-0" font-size="17.175px" xml:space="preserve" transform="scale(1.0152 .98501)" y="499.08231" x="73.219246" font-family="Arial" line-height="125%" fill="#000000"><tspan id="tspan3777" y="499.08231" x="73.219246">InEx</tspan></text>
  <path id="path3232-6" stroke-linejoin="round" d="m794.27 347.7v-41.568h-1.139v41.568z" stroke="#000" stroke-width=".039675px"/>
  <path id="path3100-8-7" stroke-linejoin="round" d="m275.41 355.19-0.1423 45.491h1.1899l0.14226-45.491z" stroke="#000" stroke-width=".0084648px"/>
  <path id="path3108-1" stroke-linejoin="round" d="m277.05 355.76-0.25538-45.779-1.2627-0.58095v46.36zm3.1453-45.567-3.893-9.036-3.6376 8.8909z" stroke="#000" stroke-width=".030918px"/>
  <path id="path3198-7" fill-rule="evenodd" d="m274.02 355.67c0-1.2234 0.97537-2.2065 2.1549-2.2065 1.2022 0 2.1549 0.98308 2.1549 2.2065 0 1.2015-0.9527 2.1847-2.1549 2.1847-1.1795 0-2.1549-0.98308-2.1549-2.1847"/>
  <path id="path3200-1" stroke-linejoin="round" d="m272.52 355.8v-0.28396l0.0456-0.43694c0.0225-0.0874 0.0225-0.17478 0.0679-0.28401l0.11345-0.39321c0.0225-0.0874 0.068-0.15295 0.0908-0.24032l0.20414-0.3714c0.0456-0.0874 0.0908-0.17475 0.15877-0.26215l0.2722-0.32767 0.18148-0.17478 0.31754-0.26216c0.091-0.0654 0.18147-0.13107 0.27222-0.19661l0.36292-0.1966c0.0679-0.0436 0.15878-0.0656 0.24951-0.10927l0.40831-0.13109c0.1134-0.0218 0.2268-0.0436 0.31754-0.0654l0.43099-0.0436h0.31756l0.43099 0.0436c0.11342 0.0218 0.22682 0.0436 0.34025 0.0654l0.40827 0.13109c0.0908 0.0436 0.15878 0.0654 0.24952 0.10927l0.36294 0.1966c0.0908 0.0655 0.18147 0.13108 0.27219 0.19661l0.31758 0.26216c0.068 0.0657 0.11341 0.10928 0.18145 0.17478l0.27221 0.32767c0.0455 0.0874 0.11342 0.1748 0.15879 0.26215l0.20413 0.3714c0.0225 0.0874 0.0678 0.15293 0.0908 0.24032l0.11342 0.39321c0.0455 0.10927 0.0455 0.19661 0.068 0.28401l0.0455 0.43694v0.28396l-0.0455 0.45878c-0.0225 0.0874-0.0225 0.17477-0.068 0.26216l-0.11342 0.41507c-0.0225 0.0874-0.068 0.15294-0.0908 0.24032l-0.20413 0.37139c-0.0455 0.0874-0.11342 0.17473-0.15879 0.26213l-0.27221 0.3277c-0.0678 0.0655-0.11343 0.10923-0.18145 0.17477l-0.31758 0.26215c-0.0907 0.0654-0.18147 0.13108-0.27219 0.19661l-0.36294 0.19661c-0.0909 0.0436-0.15878 0.0656-0.24952 0.10926l-0.40827 0.1311c-0.11343 0.0218-0.22685 0.0436-0.34025 0.0654l-0.43099 0.0436h-0.31756l-0.43099-0.0436c-0.0909-0.0218-0.20415-0.0436-0.31754-0.0654l-0.40831-0.1311c-0.0909-0.0436-0.18144-0.0654-0.24951-0.10926l-0.36292-0.19661c-0.0907-0.0655-0.18147-0.13106-0.27222-0.19661l-0.31754-0.26215-0.18148-0.17477-0.2722-0.3277c-0.0678-0.0874-0.11342-0.17475-0.15877-0.26213l-0.20414-0.37139c-0.0225-0.0874-0.0678-0.15295-0.0908-0.24032l-0.11345-0.41507c-0.0455-0.0874-0.0455-0.17475-0.0679-0.26216zm3.0622 0.1748-0.068-0.28401 0.13607 0.41507-0.0908-0.2403 0.18146 0.37136-0.1588-0.26212 0.27219 0.32768-0.18145-0.17477 0.31756 0.28401-0.27217-0.19664 0.36291 0.19664-0.24951-0.10926 0.40829 0.13106-0.34025-0.0653 0.43099 0.0436h-0.31757l0.43097-0.0436-0.31756 0.0653 0.40829-0.13106-0.24952 0.10926 0.36295-0.19664-0.2722 0.19664 0.31757-0.28401-0.18148 0.17477 0.27218-0.32768-0.15878 0.26212 0.1815-0.37136-0.0908 0.2403 0.13612-0.41507-0.068 0.28401 0.0456-0.45876v0.28396l-0.0456-0.43691 0.068 0.26216-0.13612-0.39323 0.0908 0.24028-0.1815-0.37136 0.15878 0.26215-0.27218-0.32769 0.18148 0.17476-0.31757-0.28397 0.2722 0.19661-0.36295-0.19661 0.24952 0.10924-0.40829-0.13108 0.31756 0.0654-0.43097-0.0436h0.31757l-0.43099 0.0436 0.34025-0.0654-0.40829 0.13108 0.24951-0.10924-0.36291 0.19661 0.27217-0.19661-0.31756 0.28397 0.18145-0.17476-0.27219 0.32769 0.1588-0.26215-0.18146 0.37136 0.0908-0.24028-0.13607 0.39323 0.068-0.26216-0.0455 0.43691v-0.28396z" stroke="#000" stroke-width=".022261px"/>
  <text id="text3146-9" font-size="14.78px" xml:space="preserve" transform="matrix(.0043288 -.96774 1.0333 .0041691 0 0)" y="458.11371" x="-460.65881" font-family="Arial" line-height="125%" fill="#000000"><tspan id="tspan4821" y="458.11371" x="-460.65881">Sel RA</tspan></text>
  <text id="text3146-9-5" font-size="14.78px" xml:space="preserve" transform="matrix(-.0073892 -.96772 1.0333 -.0071164 0 0)" y="535.20496" x="-464.72067" font-family="Arial" line-height="125%" fill="#000000"><tspan id="tspan4823" y="535.20496" x="-464.72067">Sel RB</tspan></text>
  <text id="text3146-9-9" font-size="14.78px" xml:space="preserve" transform="matrix(.0096213 -.96770 1.0333 .0092662 0 0)" y="626.75049" x="-454.91971" font-family="Arial" line-height="125%" fill="#000000"><tspan id="tspan4825" y="626.75049" x="-454.91971">Sel RC</tspan></text>
  <text id="text3350-3" font-size="10.329px" xml:space="preserve" transform="scale(1.019 .98137)" y="506.47858" x="623.19208" font-family="Arial" fill="#000000">0</text>
  <text id="text3352-3" font-size="10.329px" xml:space="preserve" transform="scale(1.019 .98137)" y="506.73141" x="650.3255" font-family="Arial" fill="#000000">1</text>
  <path id="path3094-7" opacity=".75" stroke-linejoin="round" d="m276.21 400.33v-90.042h-1.5193v90.042h1.5193zm3.7643-88.259-4.5354-10.809-4.5354 10.809h9.0707z" stroke="#000" stroke-width=".024755px"/>
  <path id="path3498-6" stroke-linejoin="round" d="m362.01 323.41h95.953v1.0865h-95.953z" stroke="#000" stroke-width=".027924px"/>
  <path id="path3138-8" stroke-linejoin="round" d="m362.71 323.95v-46.074h-1.1401v46.074z" stroke="#000" stroke-width=".016438px"/>
  <path id="path3138-8-1" stroke-linejoin="round" d="m458.25 324.06v-17.238h-1.1466v17.238z" stroke="#000" stroke-width=".010083px"/>
  <path id="path3124-7" stroke-linejoin="round" d="m407.38 290.52h14.525v1.4643h-14.525v-1.4643zm13.785-3.6389 4.4539 4.3711-4.4539 4.3711v-8.7421z" stroke="#000" stroke-width=".0078001px"/>
  <text id="text4138-7" font-size="14.369px" xml:space="preserve" transform="scale(1.0842 .92234)" y="311.02005" x="355.97589" font-family="Arial" line-height="125%" fill="#000000"><tspan id="tspan4140-2" y="311.02005" x="355.97589">CLK</tspan></text>
  <path id="path3194-0" stroke-linejoin="round" d="m362.4 277.88-16.113 0.0655v1.4629l16.113-0.0657v-1.4629zm-13.948-3.5808-13.249 4.4325 13.349 4.3014-0.0996-8.7338z" stroke="#000" stroke-width=".026961px"/>
 </g>
</svg>
