<?xml version="1.0" encoding="UTF-8" standalone="no"?>
<svg id="svg2996" xmlns:rdf="http://www.w3.org/1999/02/22-rdf-syntax-ns#" xmlns="http://www.w3.org/2000/svg" height="100%" viewBox="43 15 855 542" width="100%" version="1.0" preserveAspectRatio="xMinYMin meet" xmlns:cc="http://creativecommons.org/ns#" xmlns:dc="http://purl.org/dc/elements/1.1/">
 <metadata id="metadata3508">
  <rdf:RDF>
   <cc:Work rdf:about="">
    <dc:format>image/svg+xml</dc:format>
    <dc:type rdf:resource="http://purl.org/dc/dcmitype/StillImage"/>
    <dc:title/>
   </cc:Work>
  </rdf:RDF>
 </metadata>
 <text id="text3611" style="word-spacing:0px;letter-spacing:0px" xml:space="preserve" transform="scale(.99998 1)" line-height="125%" font-size="13.289px" y="350.36798" x="139.88812" font-family="sans-serif" fill="#000000"><tspan id="tspan3615" y="342.36798" x="121.88812"/></text>
 <g id="g4749" transform="matrix(.98931 0 0 1.0123 -4.6906 -2.8518)">
  <path id="path3008" stroke-linejoin="round" d="m455.87 70.298c0-0.44069 0.54083-0.78697 1.2291-0.78697h427.14c0.63917 0 1.2291 0.34625 1.2291 0.78697v78.158c0 0.44067-0.58999 0.7869-1.2291 0.7869h-427.14c-0.68833 0-1.2291-0.34626-1.2291-0.7869zm2.4584 78.158-1.2291-0.78691h427.14l-1.2291 0.78691v-78.158l1.2291 0.7869h-427.14l1.2291-0.7869z" stroke="#000" stroke-width=".039341px"/>
  <text id="text3010" font-size="23.493px" line-height="125%" xml:space="preserve" style="text-decoration-line:underline;text-decoration:underline" transform="scale(1.0045 .99551)" y="117.28333" x="592.51685" font-family="Arial" fill="#000000">Control Memory</text>
  <text id="text3012" font-size="16.391px" xml:space="preserve" transform="scale(1.0045 .99551)" y="419.83084" x="198.36931" font-family="Arial" fill="#000000">MUX C</text>
  <path id="path3014" stroke-linejoin="round" d="m745.38 147.49v126.58h-1.3985v-126.58h1.3985zm3.4141 125.24-4.1134 8.1248-4.1134-8.1248h8.2266z" stroke="#000" stroke-width=".040877px"/>
  <path id="path3016" stroke-linejoin="round" d="m755.08 215.55-21.65 15.297 0.61742 0.81586 21.61-15.257z" stroke="#000" stroke-width=".040978px"/>
  <text id="text3018" font-size="12.295px" xml:space="preserve" transform="scale(1.0045 .99551)" line-height="125%" y="224.59024" x="720.07129" font-family="Arial" fill="#000000"><tspan id="tspan3920" y="224.59024" x="720.07129">80</tspan></text>
  <path id="path3020" stroke-linejoin="round" d="m91.757 330.67c0-0.2985 0.30871-0.54723 0.67918-0.54723h119.04c0.39106 0 0.69976 0.24873 0.69976 0.54723v23.001c0 0.31508-0.3087 0.54722-0.69976 0.54722h-119.04c-0.37047 0-0.67918-0.23214-0.67918-0.54722zm1.379 23.001-0.69976-0.54725h119.04l-0.67918 0.54725v-23.001l0.67918 0.54723h-119.04l0.69976-0.54723z" stroke="#000" stroke-width=".018475px"/>
  <path id="path3024" stroke-linejoin="round" d="m226.8 185.33c0 0.30513 0.28702 0.55945 0.65056 0.55945h108.66c0.36354 0 0.65055-0.25432 0.65055-0.55945v-139.7c0-0.32211-0.28701-0.57641-0.65055-0.57641h-108.66c-0.36354 0-0.65056 0.2543-0.65056 0.57641zm1.282-139.7-0.63142 0.55948h108.66l-0.63142-0.55948v139.7l0.63142-0.55947h-108.66l0.63142 0.55947z" stroke="#000" stroke-width=".018010px"/>
  <path id="path3026" stroke-linejoin="round" d="m380.69 52.702c0-0.36715 0.3087-0.67311 0.67916-0.67311h26.343c0.37045 0 0.67917 0.30596 0.67917 0.67311v99.251c0 0.36713-0.30872 0.67309-0.67917 0.67309h-26.343c-0.37046 0-0.67916-0.30596-0.67916-0.67309zm1.3583 99.251-0.67916-0.67311h26.343l-0.69975 0.67311v-99.251l0.69975 0.69349h-26.343l0.67916-0.69349z" stroke="#000" stroke-width=".020489px"/>
  <path id="path3028" stroke-linejoin="round" d="m74.536 442.24c0 0.38753 0.31069 0.69349 0.68351 0.69349h295.16c0.37283 0 0.68352-0.30596 0.68352-0.69349v-43.384c0-0.36714-0.31069-0.6731-0.68352-0.6731h-295.16c-0.37282 0-0.68351 0.30596-0.68351 0.6731zm1.367-43.384-0.68352 0.67309h295.16l-0.68351-0.67309v43.384l0.68351-0.67309h-295.16l0.68352 0.67309z" stroke="#000" stroke-width=".020555px"/>
  <text id="text3030" font-size="19.177px" xml:space="preserve" transform="scale(1.0045 .99551)" line-height="125%" y="273.16049" x="113.92298" font-family="Arial" fill="#000000"><tspan id="tspan4390" y="273.16049" x="113.92298">co2µaddr</tspan></text>
  <path id="path3032" stroke-linejoin="round" d="m91.829 330.67c0-0.2985 0.30873-0.54723 0.69977-0.54723h46.597c0.39105 0 0.67919 0.24873 0.67919 0.54723v23.001c0 0.31508-0.28814 0.54722-0.67919 0.54722h-46.597c-0.39104 0-0.69977-0.23214-0.69977-0.54722zm1.379 23.001-0.67919-0.54725h46.597l-0.6792 0.54725v-23.001l0.6792 0.54723h-46.597l0.67919-0.54723z" stroke="#000" stroke-width=".018475px"/>
  <text id="text3034" font-size="14.988px" xml:space="preserve" transform="scale(1.0045 .99551)" line-height="125%" y="349.63275" x="104.92516" font-family="Arial" fill="#000000">CO</text>
  <text id="text3036" font-size="16.391px" xml:space="preserve" transform="scale(1.0045 .99551)" y="331.94742" x="70.87233" font-family="Arial" fill="#000000">IR</text>
  <text id="text3038" font-size="16.391px" xml:space="preserve" transform="scale(1.0045 .99551)" y="507.81409" x="76.973587" font-family="Arial" fill="#000000">SR</text>
  <path id="path3040" stroke-linejoin="round" d="m96.974 81.58c0 0.25988 0.30874 0.47645 0.67921 0.47645h48.285c0.39108 0 0.6998-0.21657 0.6998-0.47645v-23.664c0-0.25988-0.30872-0.47645-0.6998-0.47645h-48.285c-0.37047 0-0.6792 0.21657-0.6792 0.47645zm1.379-23.664-0.69978 0.49088h48.285l-0.67922-0.49088v23.664l0.67922-0.47644h-48.285l0.69978 0.47644z" stroke="#000" stroke-width=".017237px"/>
  <path id="path3042" stroke-linejoin="round" d="m843.23 263.59h11.648v1.0198h-11.648z" stroke="#000" stroke-width=".040978px"/>
  <path id="path3044" stroke-linejoin="round" d="m867.44 263.59h11.648v1.0198h-11.648z" stroke="#000" stroke-width=".040978px"/>
  <path id="path3046" stroke-linejoin="round" d="m891.1 263.59h11.648v1.0198h-11.648z" stroke="#000" stroke-width=".040978px"/>
  <path id="path3048" stroke-linejoin="round" d="m855.18 251.6h12.555v1.0198h-12.555z" stroke="#000" stroke-width=".040978px"/>
  <path id="path3050" stroke-linejoin="round" d="m855.71 264.45v-12.687h-1.0291v12.687z" stroke="#000" stroke-width=".040978px"/>
  <path id="path3052" stroke-linejoin="round" d="m867.94 264.45v-13.013h-1.029v13.013z" stroke="#000" stroke-width=".040978px"/>
  <path id="path3054" stroke-linejoin="round" d="m879.58 264.45v-13.013h-1.0291v13.013z" stroke="#000" stroke-width=".040978px"/>
  <path id="path3056" stroke-linejoin="round" d="m892.13 264.12v-12.687h-1.029v12.687z" stroke="#000" stroke-width=".040978px"/>
  <path id="path3058" stroke-linejoin="round" d="m878.8 251.6h12.843v1.0198h-12.843z" stroke="#000" stroke-width=".040978px"/>
  <path id="path3060" stroke-linejoin="round" d="m307.11 486.51-0.11587-38.263-1.1459-0.35636-0.11586 38.619zm3.4134-37.156-4.1124-7.168-3.8807 7.168z" stroke="#000" stroke-width=".026537px"/>
  <path id="path3062" stroke-linejoin="round" d="m330.24 464.8v-16.687h-1.379v16.687h1.379zm3.4371-15.522-4.1162-6.9528-4.1162 6.9528h8.2325z" stroke="#000" stroke-width=".018913px"/>
  <text id="text3064" font-size="12.263px" xml:space="preserve" transform="scale(1.0045 .99551)" line-height="125%" y="501.95923" x="346.82275" font-family="Arial" fill="#000000">0</text>
  <text id="text3066" font-size="10.901px" xml:space="preserve" transform="scale(1.0045 .99551)" line-height="125%" y="181.77036" x="263.18234" font-family="Arial" fill="#000000">A0</text>
  <text id="text3068" font-size="17.714px" xml:space="preserve" transform="scale(1.0045 .99551)" line-height="125%" y="122.66449" x="262.88144" font-family="Arial" fill="#000000">MUX A</text>
  <text id="text3072" font-size="13.626px" xml:space="preserve" transform="scale(1.0045 .99551)" line-height="125%" y="197.28665" x="750.5401" font-family="Arial" fill="#000000">µInstruction</text>
  <text id="text3076" font-size="16.391px" xml:space="preserve" transform="scale(1.0045 .99551)" y="207.21323" x="486.69904" font-family="Arial" fill="#000000">MADDR</text>
  <text id="text3080" font-size="16.391px" xml:space="preserve" transform="matrix(0 -.99551 1.0045 0 0 0)" y="398.25836" x="-126.33616" font-family="Arial" fill="#000000">µAddr</text>
  <path id="path3082" stroke-linejoin="round" d="m407.21 102.59h44.748v1.3668h-44.748v-1.3668zm43.807-3.3863 5.6111 4.08-5.6111 4.08v-8.1601z" stroke="#000" stroke-width=".016917px"/>
  <text id="text3084" font-size="16.391px" xml:space="preserve" transform="scale(1.0045 .99551)" y="76.65284" x="112.30157" font-family="Arial" fill="#000000">+1</text>
  <path id="path3086" fill-rule="evenodd" d="m426.23 103.28c0-1.1422 0.88497-2.0601 1.9552-2.0601s1.9552 0.91784 1.9552 2.0601c0 1.1218-0.88497 2.0398-1.9552 2.0398s-1.9552-0.91786-1.9552-2.0398"/>
  <path id="path3088" stroke-linejoin="round" d="m425.3 103.4v-0.26516l0.0412-0.40794c0.0206-0.0816 0.0206-0.16316 0.0618-0.26516l0.10291-0.36715c0.0206-0.0816 0.0618-0.14277 0.0824-0.22435l0.18523-0.34675c0.0411-0.0816 0.0824-0.16318 0.14406-0.24476l0.24696-0.30596c0.0411-0.0408 0.10291-0.10201 0.14408-0.14277l0.28812-0.24476c0.0824-0.0816 0.16465-0.14277 0.26755-0.20397l0.34987-0.18358c0.0618-0.0408 0.12349-0.0611 0.20581-0.102l0.34988-0.12239c0.10291-0.0204 0.2058-0.0408 0.30871-0.06121l0.39103-0.0408h0.28814l0.39104 0.0408c0.10291 0.0204 0.18522 0.0408 0.28813 0.06121l0.37045 0.12239c0.0824 0.0408 0.16465 0.0611 0.24698 0.102l0.32928 0.18358c0.0824 0.0611 0.16465 0.12237 0.2264 0.18357l0.28813 0.24476c0.0617 0.0612 0.12348 0.10201 0.16465 0.16317l0.24696 0.30596c0.0618 0.0816 0.10291 0.16318 0.16465 0.24476l0.16464 0.34675c0.0411 0.0816 0.0618 0.14278 0.0824 0.22435l0.12348 0.36715c0.0206 0.10201 0.0412 0.18358 0.0412 0.26516l0.0411 0.40794c0.0206 0.10201 0.0206 0.18358 0 0.26516l-0.0411 0.42834c0 0.0816-0.0205 0.16317-0.0412 0.24476l-0.12348 0.38754c-0.0206 0.0816-0.0411 0.14277-0.0824 0.22435l-0.16464 0.34675c-0.0618 0.0816-0.10291 0.16319-0.16465 0.24478l-0.24696 0.30594c-0.0412 0.0611-0.10291 0.10201-0.16465 0.16318l-0.28813 0.24476c-0.0618 0.0612-0.14407 0.12239-0.2264 0.18356l-0.32928 0.18358c-0.0824 0.0408-0.16465 0.0612-0.24698 0.10201l-0.37045 0.12237c-0.10292 0.0204-0.18523 0.0408-0.28813 0.0612l-0.39104 0.0408h-0.28814l-0.39103-0.0408c-0.10292-0.0204-0.20581-0.0408-0.30871-0.0612l-0.34988-0.12237c-0.0824-0.0408-0.14406-0.0611-0.20581-0.10201l-0.34987-0.18358c-0.10291-0.0612-0.18523-0.12237-0.26755-0.20395l-0.28812-0.24478c-0.0412-0.0408-0.10292-0.10201-0.14408-0.14277l-0.24696-0.30594c-0.0617-0.0816-0.10292-0.16318-0.14406-0.24478l-0.18523-0.34675c-0.0206-0.0816-0.0618-0.14276-0.0824-0.22435l-0.10291-0.38754c-0.0412-0.0816-0.0412-0.16318-0.0618-0.24476zm2.7784 0.16317-0.0618-0.26516 0.12348 0.38755-0.0824-0.22437 0.16464 0.34675-0.14406-0.24477 0.24696 0.30596-0.14406-0.14278 0.26756 0.26516-0.26756-0.20398 0.32931 0.18357-0.20581-0.102 0.37045 0.12238-0.30871-0.0612 0.39103 0.0408h-0.28814l0.39105-0.0408-0.28814 0.0612 0.37045-0.12238-0.24697 0.102 0.3293-0.18357-0.22639 0.18357 0.28813-0.26514-0.16465 0.16317 0.24698-0.30596-0.16465 0.24477 0.18523-0.34675-0.0824 0.22437 0.10292-0.38755-0.0412 0.26516 0.0412-0.42833v0.26516l-0.0412-0.40793 0.0412 0.24475-0.10292-0.36713 0.0824 0.22436-0.18523-0.34675 0.16465 0.24477-0.24698-0.30595 0.16465 0.16316-0.28813-0.26515 0.22639 0.18357-0.3293-0.18357 0.24697 0.10201-0.37045-0.12239 0.28814 0.0612-0.39105-0.0408h0.28814l-0.39103 0.0408 0.30871-0.0612-0.37045 0.12239 0.20581-0.10201-0.32931 0.18357 0.26756-0.20396-0.26756 0.26514 0.14406-0.14276-0.24696 0.30595 0.14406-0.24477-0.16464 0.34675 0.0824-0.22436-0.12348 0.36713 0.0618-0.24475-0.0411 0.40793v-0.26516z" stroke="#000" stroke-width=".020489px"/>
  <path id="path3092" stroke-linejoin="round" d="m335.94 104.59h41.262v-1.3668h-41.262v1.3668zm40.467 3.3862 4.7498-4.0798-4.7498-4.0798v8.1596z" stroke="#000" stroke-width=".015563px"/>
  <path id="path3094" stroke-linejoin="round" d="m305.73 260.94v-67.962h-1.3789v67.962h1.3789zm3.4164-66.616-4.1162-8.1587-4.1162 8.1587h8.2323z" stroke="#000" stroke-width=".020489px"/>
  <path id="path3096" stroke-linejoin="round" d="m441.79 287.92v-50.834c0-0.39592-0.25116-0.72587-0.55254-0.72587h-171.52l0.56927 0.72587v-43.508h-1.1217v43.508c0 0.39593 0.25116 0.72588 0.55254 0.72588h171.52l-0.56927-0.72588v50.834zm-168.72-92.869-3.3486-8.7984-3.3486 8.7984z" stroke="#000" stroke-width=".019192px"/>
  <path id="path3098" stroke-linejoin="round" d="m429.03 21.742h-307.6v1.0149h307.6z" stroke="#000" stroke-width=".025411px"/>
  <path id="path3100" stroke-linejoin="round" d="m121.52 22.172-0.14721 36.541h1.2267l0.14721-36.541z" stroke="#000" stroke-width=".0077036px"/>
  <path id="path3102" stroke-linejoin="round" d="m145.97 69.183h73.519v1.3667h-73.519v-1.3667zm72.055-3.3961 8.8051 4.0794-8.8051 4.0794v-8.1588z" stroke="#000" stroke-width=".010594px"/>
  <path id="path3104" stroke-linejoin="round" d="m149.66 97.884h70.415v1.3564h-70.415v-1.3564zm69.093-3.4065 7.9567 4.0798-7.9567 4.0798v-8.1593z" stroke="#000" stroke-width=".010072px"/>
  <path id="path3106" stroke-linejoin="round" d="m897.98 296.85h-12.84v-1.2245h12.84zm-9.5392 2.3676-4.9098-2.9984 4.9098-3.2361z" stroke="#000" stroke-width=".018907px"/>
  <path id="path3108" stroke-linejoin="round" d="m352.57 486.99-0.23174-37.442-1.146-0.47514v37.918zm2.8546-37.269-3.5331-7.3906-3.3014 7.2718z" stroke="#000" stroke-width=".026638px"/>
  <path id="path3110" stroke-linejoin="round" d="m399.44 415.5-10.826 12.992 0.80264 0.6527 10.805-12.992z" stroke="#000" stroke-width=".020489px"/>
  <text id="text3112" font-size="10.983px" xml:space="preserve" transform="scale(1.0045 .99551)" y="420.26093" x="386.50565" font-family="Arial" fill="#000000">4</text>
  <path id="path3120" stroke-linejoin="round" d="m469.71 207.38-7.8619 10.015 0.80265 0.63231 7.8619-10.015z" stroke="#000" stroke-width=".020489px"/>
  <text id="text3122" font-size="10.983px" xml:space="preserve" transform="scale(1.0045 .99551)" y="209.04518" x="451.18478" font-family="Arial" fill="#000000">12</text>
  <path id="path3124" stroke-linejoin="round" d="m191.47 159.48h28.879v1.3666h-28.879v-1.3666zm27.407-3.3961 8.8551 4.0794-8.8551 4.0794v-8.1587z" stroke="#000" stroke-width=".010625px"/>
  <text id="text3126" font-size="16.391px" xml:space="preserve" transform="scale(1.0045 .99551)" y="166.71263" x="174.52953" font-family="Arial" fill="#000000">0</text>
  <text id="text3130" font-size="12.263px" xml:space="preserve" transform="scale(1.0045 .99551)" line-height="125%" y="181.71103" x="162.0318" font-family="Arial" fill="#000000">(fetch) </text>
  <path id="path3134" stroke-linejoin="round" d="m149.86 98.704-0.12364 115 1.0301 0.0201 0.12362-115.02z" stroke="#000" stroke-width=".014671px"/>
  <path id="path3136" stroke-linejoin="round" d="m282.72 464.75v-16.687h-1.379v16.687h1.379zm3.4166-15.522-4.1162-6.9529-4.1162 6.9529h8.2325z" stroke="#000" stroke-width=".018913px"/>
  <path id="path3138" stroke-linejoin="round" d="m411.26 422.61v-79.302h-1.0291v79.302z" stroke="#000" stroke-width=".020489px"/>
  <text id="text3140" font-size="10.901px" xml:space="preserve" transform="scale(1.0045 .99551)" line-height="125%" y="544.7641" x="250.36687" font-family="Arial" fill="#000000">0</text>
  <path id="path3142" stroke-linejoin="round" d="m151.33 377.59 650.16-2.5668v-1.052l-650.16 2.5668z" stroke="#000" stroke-width=".038391px"/>
  <path id="path3142b" stroke-linejoin="round" d="m156.48 377.59 642.37-2.567v-1.052l-642.37 2.567z" stroke="#000" stroke-width=".038162px"/>
  <path id="path3144" stroke-linejoin="round" d="m432.72 393.4c0-0.36284 0.30873-0.63018 0.67918-0.63018h59.644c0.37045 0 0.67918 0.26734 0.67918 0.63018v26.621c0 0.36284-0.30873 0.64928-0.67918 0.64928h-59.644c-0.37045 0-0.67918-0.28644-0.67918-0.64928zm1.3789 26.621-0.69975-0.63018h59.644l-0.69976 0.63018v-26.621l0.69976 0.63019h-59.644l0.69975-0.63019z" stroke="#000" stroke-width=".019825px"/>
  <text id="text3146" font-size="13.604px" xml:space="preserve" transform="scale(1.0045 .99551)" line-height="125%" y="412.87534" x="438.94836" font-family="Arial" fill="#000000"><tspan id="tspan3949" y="412.87534" x="438.94836">Sel RA</tspan></text>
  <path id="path3150" stroke-linejoin="round" d="m533.45 392.95c0-0.38985 0.31679-0.66273 0.67319-0.66273h57.379c0.35638 0 0.63358 0.27288 0.63358 0.66273v27.171c0 0.35084-0.2772 0.62373-0.63358 0.62373h-57.379c-0.3564 0-0.67319-0.27289-0.67319-0.62373zm1.3463 27.171-0.67317-0.66273h57.379l-0.67318 0.66273v-27.171l0.67318 0.62375h-57.379l0.67317-0.62375z" stroke="#000" stroke-width=".039290px"/>
  <text id="text3152" font-size="13.604px" xml:space="preserve" transform="scale(1.0045 .99551)" line-height="125%" y="413.82996" x="538.42975" font-family="Arial" fill="#000000"><tspan id="tspan3951" y="413.82996" x="538.42975">Sel RB</tspan></text>
  <path id="path3156" stroke-linejoin="round" d="m633.4 393.41c0-0.38985 0.31869-0.66272 0.67719-0.66272h57.721c0.35853 0 0.63738 0.27287 0.63738 0.66272v27.171c0 0.35086-0.27885 0.62375-0.63738 0.62375h-57.721c-0.3585 0-0.67719-0.27289-0.67719-0.62375zm1.3544 27.171-0.6772-0.66273h57.721l-0.6772 0.66273v-27.171l0.6772 0.62375h-57.721l0.6772-0.62375z" stroke="#000" stroke-width=".039407px"/>
  <text id="text3158" font-size="13.604px" xml:space="preserve" transform="scale(1.0045 .99551)" line-height="125%" y="413.81253" x="637.72998" font-family="Arial" fill="#000000"><tspan id="tspan3953" y="413.81253" x="637.72998">Sel RC</tspan></text>
  <path id="path3162" stroke-linejoin="round" d="m647.33 281.32c0-0.36722 0.2091-0.69362 0.5078-0.69362h115.72c0.26883 0 0.47792 0.3264 0.47792 0.69362v28.439c0 0.36722-0.20909 0.69363-0.47792 0.69363h-115.72c-0.2987 0-0.5078-0.32641-0.5078-0.69363zm0.98572 28.439-0.4779-0.69365h115.72l-0.50777 0.69365v-28.439l0.50777 0.69365h-115.72l0.4779-0.69365z" stroke="#000" stroke-width=".034910px"/>
  <text id="text3164" font-size="14.988px" xml:space="preserve" transform="scale(1.0045 .99551)" line-height="125%" y="303.01648" x="496.4606" font-family="Arial" fill="#000000">Sel A</text>
  <text id="text3168" font-size="14.988px" xml:space="preserve" transform="scale(1.0045 .99551)" line-height="125%" y="303.01648" x="546.677" font-family="Arial" fill="#000000">Sel B</text>
  <text id="text3172" font-size="14.988px" xml:space="preserve" transform="scale(1.0045 .99551)" line-height="125%" y="303.01648" x="598.86255" font-family="Arial" fill="#000000">Sel C</text>
  <path id="path3176" stroke-linejoin="round" d="m490.46 281.3c0-0.36714 0.29176-0.6731 0.64186-0.6731h50.532c0.35011 0 0.64186 0.30596 0.64186 0.6731v28.454c0 0.36716-0.29175 0.6731-0.64186 0.6731h-50.532c-0.3501 0-0.64186-0.30594-0.64186-0.6731zm1.2836 28.454-0.64186-0.69351h50.532l-0.66131 0.69351v-28.454l0.66131 0.6935h-50.532l0.64186-0.6935z" stroke="#000" stroke-width=".019918px"/>
  <path id="path3178" stroke-linejoin="round" d="m541.22 281.32c0-0.36716 0.31295-0.69351 0.66502-0.69351h51.911c0.35206 0 0.66503 0.32635 0.66503 0.69351v28.434c0 0.36716-0.31297 0.69351-0.66503 0.69351h-51.911c-0.35207 0-0.66502-0.32635-0.66502-0.69351zm1.291 28.434-0.6259-0.69352h51.911l-0.66503 0.69352v-28.434l0.66503 0.69352h-51.911l0.6259-0.69352z" stroke="#000" stroke-width=".039948px"/>
  <path id="path3180" stroke-linejoin="round" d="m593.41 281.32c0-0.36716 0.27591-0.69351 0.67008-0.69351h53.685c0.35476 0 0.63068 0.32635 0.63068 0.69351v28.435c0 0.36715-0.27592 0.69351-0.63068 0.69351h-53.685c-0.39417 0-0.67008-0.32636-0.67008-0.69351zm1.3008 28.435-0.63067-0.69353h53.685l-0.67008 0.69353v-28.435l0.67008 0.69352h-53.685l0.63067-0.69352z" stroke="#000" stroke-width="0.0401px"/>
  <path id="path3182" stroke-linejoin="round" d="m453.16 435.49-11.073 8.0976 0.61743 0.81587 11.073-8.0772z" stroke="#000" stroke-width=".020489px"/>
  <path id="path3184" stroke-linejoin="round" d="m563.56 436.12-11.073 8.0976 0.61742 0.81588 11.072-8.0976z" stroke="#000" stroke-width=".020489px"/>
  <path id="path3186" stroke-linejoin="round" d="m664.56 435.6-11.073 8.118 0.61743 0.81587 11.073-8.118z" stroke="#000" stroke-width=".040978px"/>
  <path id="path3188" stroke-linejoin="round" d="m463.73 375.7v10.525h-1.3583v-10.525h1.3583zm3.437 9.1583-4.1162 8.1587-4.1162-8.1587h8.2324z" stroke="#000" stroke-width=".020489px"/>
  <path id="path3190" stroke-linejoin="round" d="m563.86 375.24v10.545h-1.3789v-10.545h1.3789zm3.437 9.1786-4.1162 8.1587-4.1162-8.1587h8.2323z" stroke="#000" stroke-width=".020489px"/>
  <path id="path3192" stroke-linejoin="round" d="m664.03 375.71v10.525h-1.3995v-10.525h1.3995zm3.4164 9.1378-4.1162 8.1587-4.1162-8.1587h8.2324z" stroke="#000" stroke-width=".040978px"/>
  <path id="path3194" stroke-linejoin="round" d="m509.86 406.85-9.9614 0.0611v1.3666l9.9614-0.0612v-1.3666zm-8.6233-3.345-8.1911 4.1407 8.253 4.0182-0.0617-8.1587z" stroke="#000" stroke-width=".020489px"/>
  <path id="path3196" stroke-linejoin="round" d="m569.57 360.15v-49.666h-1.029v49.666z" stroke="#000" stroke-width=".020489px"/>
  <path id="path3198" fill-rule="evenodd" d="m461.05 375.7c0-1.1422 0.88498-2.0601 1.9552-2.0601 1.0908 0 1.9552 0.91787 1.9552 2.0601 0 1.1218-0.8644 2.0398-1.9552 2.0398-1.0702 0-1.9552-0.91787-1.9552-2.0398"/>
  <path id="path3200" stroke-linejoin="round" d="m459.69 375.81v-0.26514l0.0412-0.40795c0.0206-0.0816 0.0206-0.16317 0.0617-0.26515l0.10292-0.36715c0.0206-0.0816 0.0618-0.14279 0.0824-0.22436l0.18522-0.34676c0.0412-0.0816 0.0824-0.16316 0.14406-0.24476l0.24696-0.30594 0.16467-0.16318 0.28812-0.24476c0.0824-0.0611 0.16465-0.12239 0.24697-0.18358l0.3293-0.18357c0.0617-0.0408 0.14406-0.0611 0.22638-0.10201l0.37046-0.12239c0.10291-0.0204 0.2058-0.0408 0.28812-0.0611l0.39105-0.0408h0.28813l0.39104 0.0408c0.10291 0.0204 0.2058 0.0408 0.30872 0.0611l0.37043 0.12239c0.0824 0.0408 0.14407 0.0611 0.22639 0.10201l0.3293 0.18357c0.0824 0.0612 0.16465 0.12238 0.24697 0.18358l0.28814 0.24476c0.0618 0.0612 0.10291 0.10201 0.16464 0.16318l0.24696 0.30594c0.0411 0.0816 0.10291 0.1632 0.14408 0.24476l0.18522 0.34676c0.0205 0.0816 0.0617 0.14277 0.0824 0.22436l0.10291 0.36715c0.0411 0.10201 0.0411 0.18356 0.0618 0.26515l0.0411 0.40795v0.26514l-0.0411 0.42834c-0.0206 0.0816-0.0206 0.16317-0.0618 0.24477l-0.10291 0.38753c-0.0206 0.0816-0.0618 0.14279-0.0824 0.22437l-0.18522 0.34675c-0.0411 0.0816-0.10291 0.16316-0.14408 0.24475l-0.24696 0.30596c-0.0617 0.0611-0.10292 0.10201-0.16464 0.16318l-0.28814 0.24476c-0.0824 0.0611-0.16464 0.12239-0.24697 0.18357l-0.3293 0.18357c-0.0824 0.0408-0.14406 0.0611-0.22639 0.10201l-0.37043 0.12239c-0.10292 0.0204-0.20582 0.0408-0.30872 0.0611l-0.39104 0.0408h-0.28813l-0.39105-0.0408c-0.0824-0.0204-0.18522-0.0408-0.28812-0.0611l-0.37046-0.12239c-0.0824-0.0408-0.16463-0.0611-0.22638-0.10201l-0.3293-0.18357c-0.0823-0.0611-0.16464-0.12237-0.24697-0.18357l-0.28812-0.24476-0.16467-0.16318-0.24696-0.30596c-0.0617-0.0816-0.10291-0.16316-0.14406-0.24475l-0.18522-0.34675c-0.0206-0.0816-0.0617-0.14279-0.0824-0.22437l-0.10292-0.38753c-0.0411-0.0816-0.0411-0.16317-0.0617-0.24477zm2.7784 0.16319-0.0618-0.26517 0.12348 0.38754-0.0824-0.22436 0.16464 0.34674-0.14407-0.24475 0.24696 0.30595-0.16464-0.16318 0.28814 0.26517-0.24696-0.18358 0.32928 0.18358-0.22638-0.10201 0.37045 0.12237-0.30872-0.0611 0.39105 0.0408h-0.28814l0.39104-0.0408-0.28813 0.0611 0.37045-0.12237-0.2264 0.10201 0.32931-0.18358-0.24697 0.18358 0.28812-0.26517-0.16465 0.16318 0.24697-0.30595-0.14407 0.24475 0.16466-0.34674-0.0824 0.22436 0.12349-0.38754-0.0618 0.26517 0.0412-0.42833v0.26514l-0.0412-0.40794 0.0618 0.24478-0.12349-0.36715 0.0824 0.22435-0.16466-0.34673 0.14407 0.24475-0.24697-0.30594 0.16465 0.16317-0.28812-0.26515 0.24697 0.18357-0.32931-0.18357 0.2264 0.10201-0.37045-0.12239 0.28813 0.0611-0.39104-0.0408h0.28814l-0.39105 0.0408 0.30872-0.0611-0.37045 0.12239 0.22638-0.10201-0.32928 0.18357 0.24696-0.18357-0.28814 0.26515 0.16464-0.16317-0.24696 0.30594 0.14407-0.24475-0.16464 0.34673 0.0824-0.22435-0.12348 0.36715 0.0618-0.24478-0.0411 0.40794v-0.26514z" stroke="#000" stroke-width=".020489px"/>
  <path id="path3202" fill-rule="evenodd" d="m561.26 375.7c0-1.1422 0.8644-2.0601 1.9552-2.0601 1.0702 0 1.9345 0.91787 1.9345 2.0601 0 1.1218-0.86437 2.0398-1.9345 2.0398-1.0908 0-1.9552-0.91787-1.9552-2.0398"/>
  <path id="path3204" stroke-linejoin="round" d="m559.91 375.81c-0.0206-0.0816-0.0206-0.16316 0-0.26514l0.0411-0.40795c0-0.0816 0.0205-0.16317 0.0412-0.26515l0.12349-0.36715c0.0205-0.0816 0.0411-0.14279 0.0823-0.22436l0.16465-0.34676c0.0411-0.0816 0.10291-0.16316 0.16464-0.24476l0.24697-0.30594c0.0411-0.0612 0.10291-0.10201 0.16464-0.16318l0.28814-0.24476c0.0617-0.0611 0.14406-0.12239 0.22638-0.18358l0.3293-0.18357c0.0823-0.0408 0.16463-0.0611 0.24697-0.10201l0.37044-0.12239c0.0824-0.0204 0.18525-0.0408 0.28813-0.0611l0.39105-0.0408h0.28813l0.39103 0.0408c0.10292 0.0204 0.20582 0.0408 0.30872 0.0611l0.34987 0.12239c0.0824 0.0408 0.14407 0.0611 0.20581 0.10201l0.34987 0.18357c0.0824 0.0408 0.18522 0.10201 0.24697 0.18358l0.28813 0.24476 0.18523 0.18357 0.22638 0.30595c0.0617 0.0816 0.10292 0.1428 0.14407 0.22436l0.18524 0.34676c0.0206 0.0816 0.0617 0.14277 0.0824 0.22436l0.10291 0.36715c0.0412 0.10201 0.0412 0.18356 0.0617 0.26515l0.0411 0.40795v0.26514l-0.0411 0.42834c-0.0206 0.0816-0.0206 0.16317-0.0617 0.24477l-0.10291 0.38753c-0.0205 0.0816-0.0617 0.14279-0.0824 0.22437l-0.18524 0.34675c-0.0411 0.0816-0.0823 0.14278-0.14407 0.22436l-0.22638 0.30596c-0.0618 0.0611-0.12348 0.12238-0.18523 0.18357l-0.28813 0.24476c-0.0617 0.0816-0.16465 0.14277-0.24697 0.18357l-0.34987 0.18357c-0.0618 0.0408-0.12349 0.0611-0.20581 0.10201l-0.34987 0.12239c-0.10291 0.0204-0.20582 0.0408-0.30872 0.0611l-0.39103 0.0408h-0.28813l-0.39105-0.0408c-0.10291-0.0204-0.20579-0.0408-0.28813-0.0611l-0.37044-0.12239c-0.0823-0.0408-0.16465-0.0611-0.24697-0.10201l-0.3293-0.18357c-0.0824-0.0611-0.16465-0.12237-0.22638-0.18357l-0.28814-0.24476c-0.0617-0.0612-0.12348-0.10201-0.16464-0.16318l-0.24697-0.30596c-0.0617-0.0816-0.12349-0.16316-0.16464-0.24475l-0.16465-0.34675c-0.0412-0.0816-0.0617-0.14279-0.0823-0.22437l-0.12349-0.38753c-0.0206-0.0816-0.0412-0.16317-0.0412-0.24477zm2.7577 0.16319-0.0411-0.26517 0.10292 0.38754-0.0824-0.22436 0.18524 0.34674-0.16464-0.24475 0.24697 0.30595-0.16465-0.16318 0.28814 0.26517-0.22639-0.18358 0.32928 0.18358-0.24696-0.10201 0.37046 0.12237-0.28814-0.0611 0.39104 0.0408h-0.28813l0.39103-0.0408-0.30872 0.0611 0.37046-0.12237-0.20581 0.10201 0.3293-0.18358-0.24698 0.18358 0.28813-0.26517-0.18522 0.18358 0.24697-0.30596-0.14407 0.22436 0.16465-0.34674-0.0824 0.22436 0.1235-0.38754-0.0617 0.26517 0.0412-0.42833v0.26514l-0.0412-0.40794 0.0617 0.24478-0.1235-0.36715 0.0824 0.22435-0.16465-0.34673 0.14407 0.22436-0.24697-0.30595 0.18522 0.18357-0.28813-0.26515 0.24698 0.18357-0.3293-0.18357 0.20581 0.10201-0.37046-0.12239 0.30872 0.0611-0.39103-0.0408h0.28813l-0.39104 0.0408 0.28814-0.0611-0.37046 0.12239 0.24696-0.10201-0.32928 0.18357 0.22639-0.18357-0.28814 0.26515 0.16465-0.16317-0.24697 0.30594 0.16464-0.24475-0.18524 0.34673 0.0824-0.22435-0.10292 0.36715 0.0411-0.24478-0.0411 0.40794v-0.26514z" stroke="#000" stroke-width=".020489px"/>
  <path id="path3206" fill-rule="evenodd" d="m661.35 375.71c0-1.1422 0.90556-2.0805 1.9758-2.0805s1.9345 0.93826 1.9345 2.0805c0 1.1014-0.86439 2.0398-1.9345 2.0398s-1.9758-0.93826-1.9758-2.0398"/>
  <path id="path3208" stroke-linejoin="round" d="m660.04 375.84c-0.0411-0.0816-0.0411-0.16318 0-0.28555l0.0411-0.40794c0-0.0816 0-0.16319 0.0411-0.24476l0.1235-0.36716c0-0.0816 0.0411-0.16316 0.0823-0.24475l0.16465-0.32636c0.0411-0.0816 0.0824-0.16317 0.12348-0.24477l0.24699-0.28555c0.0411-0.0816 0.12346-0.12238 0.16463-0.20395l0.28814-0.24478c0.0824-0.0816 0.16464-0.12237 0.24697-0.16317l0.32929-0.20397c0.0823-0.0408 0.16464-0.0408 0.24696-0.0816l0.36135-0.0977c0.0823-0.0408 0.2058-0.0408 0.28812-0.0816l0.37046-0.0408h0.28813l0.41161 0.0408c0.0823 0.0408 0.20581 0.0408 0.28813 0.0816l0.37046 0.12238c0.0824 0.0408 0.16465 0.0408 0.24697 0.0816l0.32928 0.20397c0.0824 0.0408 0.16467 0.0816 0.24699 0.16317l0.28814 0.24476c0.0411 0.0816 0.0823 0.12239 0.12346 0.16319l0.24698 0.32634c0.0823 0.0816 0.12348 0.16318 0.16465 0.24476l0.20581 0.32636c0 0.0816 0.0411 0.16316 0.0823 0.24476l0.0824 0.36715c0.0411 0.0816 0.0411 0.16316 0.0823 0.24475l0.0412 0.40794v0.28555l-0.0412 0.40794c-0.0411 0.0816-0.0411 0.16317-0.0823 0.24477l-0.0824 0.40792c-0.0411 0.0816-0.0823 0.1224-0.0823 0.20398l-0.20581 0.36715c-0.0412 0.0816-0.0823 0.16317-0.16465 0.24475l-0.24698 0.28555c-0.0411 0.0408-0.0824 0.12239-0.12346 0.16319l-0.28814 0.24475c-0.0824 0.0816-0.16465 0.12239-0.24699 0.20398l-0.32928 0.16316c-0.0824 0.0408-0.16465 0.0816-0.24697 0.12239l-0.37046 0.12239c-0.0824 0-0.20581 0.0408-0.28813 0.0408l-0.41161 0.0408h-0.28813l-0.37046-0.0408c-0.0824 0-0.2058-0.0408-0.28812-0.0408l-0.37046-0.12239c-0.0824-0.0408-0.16465-0.0816-0.24697-0.12239l-0.32929-0.16316c-0.0824-0.0816-0.16466-0.12237-0.24698-0.20398l-0.28814-0.24475c-0.0411-0.0408-0.12346-0.12239-0.16463-0.20398l-0.24697-0.28556c-0.0412-0.0816-0.0823-0.12238-0.12349-0.20395l-0.16465-0.36715c-0.0411-0.0816-0.0823-0.12239-0.0823-0.20398l-0.1235-0.40792c-0.0411-0.0816-0.0411-0.16318-0.0411-0.24477zm2.7577 0.16316-0.0412-0.28555 0.0824 0.40794-0.0824-0.24476 0.20582 0.36714-0.16466-0.24477 0.24698 0.32636-0.16466-0.20397 0.28815 0.28555-0.24698-0.20397 0.3293 0.20397-0.24697-0.12237 0.37045 0.12237-0.28813-0.0408 0.37044 0.0408h-0.28811l0.41161-0.0408-0.28814 0.0408 0.37046-0.12237-0.24697 0.12237 0.32929-0.20397-0.24697 0.20397 0.28813-0.28555-0.16463 0.16318 0.24696-0.28557-0.12349 0.24477 0.16465-0.36714-0.0824 0.24476 0.12349-0.40794-0.0824 0.28555 0.0412-0.44871v0.28555l-0.0412-0.40793 0.0824 0.24475-0.12349-0.36715 0.0824 0.20397-0.16465-0.32635 0.12349 0.24478-0.24696-0.32635 0.16463 0.16316-0.28813-0.24475 0.24697 0.16316-0.32929-0.16316 0.24697 0.0816-0.37046-0.12238 0.28814 0.0816-0.41161-0.0408h0.28811l-0.37044 0.0408 0.28813-0.0816-0.37045 0.12238 0.24697-0.0816-0.3293 0.16316 0.24698-0.16316-0.28815 0.24475 0.16466-0.20397-0.24698 0.32636 0.16466-0.20398-0.20582 0.32635 0.0824-0.20397-0.0824 0.36715 0.0412-0.24475-0.0412 0.40793v-0.28555z" stroke="#000" stroke-width=".040978px"/>
  <path id="path3210" stroke-linejoin="round" d="m739.59 310.36v195.84h-1.3582v-195.84h1.3582zm3.4571 194.38-4.1155 8.593-4.1155-8.593h8.2311z" stroke="#000" stroke-width=".042051px"/>
  <path id="path3212" stroke-linejoin="round" d="m744.16 442.23-11.073 8.0772 0.61744 0.85664 11.072-8.118z" stroke="#000" stroke-width=".040978px"/>
  <text id="text3214" font-size="10.982px" xml:space="preserve" transform="scale(1.0045 .99551)" line-height="125%" y="446.28534" x="721.02844" font-family="Arial" fill="#000000"><tspan id="tspan3973" y="446.28534" x="721.02844">49</tspan></text>
  <path id="path3216" stroke-linejoin="round" d="m435.66 457.54c0-0.36714 0.29231-0.6731 0.64305-0.6731h56.452c0.37025 0 0.66255 0.30596 0.66255 0.6731v26.985c0 0.38755-0.2923 0.6731-0.66255 0.6731h-56.452c-0.35074 0-0.64305-0.28555-0.64305-0.6731zm1.3056 26.985-0.66254-0.67311h56.452l-0.64307 0.67311v-26.985l0.64307 0.67311h-56.452l0.66254-0.67311z" stroke="#000" stroke-width=".019937px"/>
  <text id="text3218" font-size="13.626px" xml:space="preserve" transform="scale(1.0045 .99551)" line-height="125%" y="482.69925" x="447.64481" font-family="Arial" fill="#000000">MUX</text>
  <path id="path3220" stroke-linejoin="round" d="m423.76 470.17h12.431v1.0198h-12.431z" stroke="#000" stroke-width=".020489px"/>
  <text id="text3222" font-size="10.983px" xml:space="preserve" transform="scale(1.0045 .99551)" y="476.76233" x="400.78027" font-family="Arial" fill="#000000">MR</text>
  <text id="text3224" font-size="13.604px" xml:space="preserve" transform="scale(1.0045 .99551)" line-height="125%" y="531.60492" x="703.27771" font-family="Arial" fill="#000000"><tspan id="tspan4437" y="531.60492" x="703.27771">Rest of CPU</tspan></text>
  <text id="text3228" font-size="13.604px" xml:space="preserve" transform="scale(1.0045 .99551)" y="547.14581" x="696.6062" font-family="Arial" fill="#000000">control </text>
  <text id="text3230" font-size="13.604px" xml:space="preserve" transform="scale(1.0045 .99551)" y="546.53485" x="740.75366" font-family="Arial" fill="#000000">signals</text>
  <path id="path3232" stroke-linejoin="round" d="m624.24 347.8v-36.984h-1.0343v36.984z" stroke="#000" stroke-width=".035664px"/>
  <path id="path3234" stroke-linejoin="round" d="m466.6 485.27v12.461h-1.3583v-12.461h1.3583zm3.437 11.096-4.1162 8.1587-4.1162-8.1587h8.2324z" stroke="#000" stroke-width=".020489px"/>
  <path id="path3236" stroke-linejoin="round" d="m543.02 457.42c0-0.36716 0.26843-0.69352 0.61354-0.69352h55.564c0.34511 0 0.61353 0.32636 0.61353 0.69352v27.008c0 0.36716-0.26842 0.65273-0.61353 0.65273h-55.564c-0.34511 0-0.61354-0.28557-0.61354-0.65273zm1.2654 27.008-0.65187-0.69352h55.564l-0.65188 0.69352v-27.008l0.65188 0.69354h-55.564l0.65187-0.69354z" stroke="#000" stroke-width=".039552px"/>
  <text id="text3238" font-size="13.626px" xml:space="preserve" transform="scale(1.0045 .99551)" line-height="125%" y="482.77426" x="554.4928" font-family="Arial" fill="#000000">MUX</text>
  <path id="path3240" stroke-linejoin="round" d="m531.11 470.05h12.41v1.0198h-12.41z" stroke="#000" stroke-width=".020489px"/>
  <text id="text3242" font-size="10.983px" xml:space="preserve" transform="scale(1.0045 .99551)" y="476.63168" x="509.80853" font-family="Arial" fill="#000000">MR</text>
  <path id="path3244" stroke-linejoin="round" d="m572.08 485.12v12.482h-1.3583v-12.482h1.3583zm3.4164 11.138-4.1162 8.1587-4.1162-8.1587h8.2324z" stroke="#000" stroke-width=".040978px"/>
  <path id="path3246" stroke-linejoin="round" d="m646.99 458.07c0-0.36715 0.25407-0.69355 0.58077-0.69355h52.596c0.32668 0 0.61708 0.3264 0.61708 0.69355v27.009c0 0.36717-0.2904 0.65275-0.61708 0.65275h-52.596c-0.3267 0-0.58077-0.28558-0.58077-0.65275zm1.1977 27.009-0.61708-0.69355h52.596l-0.61708 0.69355v-27.009l0.61708 0.69356h-52.596l0.61708-0.69356z" stroke="#000" stroke-width=".038482px"/>
  <text id="text3248" font-size="13.626px" xml:space="preserve" transform="scale(1.0045 .99551)" line-height="125%" y="484.10532" x="655.94281" font-family="Arial" fill="#000000">MUX</text>
  <text id="text3250" font-size="9.5069px" xml:space="preserve" transform="scale(1.0045 .99551)" y="469.3038" x="653.7345" font-family="Arial" fill="#000000">0         1</text>
  <path id="path3252" stroke-linejoin="round" d="m635.09 470.72h12.39v1.0198h-12.39z" stroke="#000" stroke-width=".040978px"/>
  <text id="text3254" font-size="10.983px" xml:space="preserve" transform="scale(1.0045 .99551)" y="477.28763" x="612.05969" font-family="Arial" fill="#000000">MR</text>
  <path id="path3256" stroke-linejoin="round" d="m673.2 485.77v12.482h-1.3583v-12.482h1.3583zm3.4575 11.138-4.1162 8.1587-4.1162-8.1587h8.2324z" stroke="#000" stroke-width=".040978px"/>
  <path id="path3258" stroke-linejoin="round" d="m480.69 428.78h32.493v1.0162h-32.493z" stroke="#000" stroke-width=".024217px"/>
  <path id="path3260" stroke-linejoin="round" d="m513.1 428.69 0.99097-119.29-1.2084-0.0204-0.99088 119.31z" stroke="#000" stroke-width=".022202px"/>
  <path id="path3262" fill-rule="evenodd" d="m610.69 406.95c0-1.1422 0.8644-2.0398 1.9758-2.0398 1.0702 0 1.9346 0.89747 1.9346 2.0398 0 1.1422-0.86439 2.0398-1.9346 2.0398-1.1114 0-1.9758-0.89746-1.9758-2.0398"/>
  <path id="path3264" stroke-linejoin="round" d="m609.13 407.08v-0.24477l0.0411-0.44873c0-0.0816 0.0412-0.16318 0.0412-0.24477l0.12349-0.36714c0.0412-0.0816 0.0412-0.16316 0.0824-0.20396l0.16464-0.36714c0.0411-0.0816 0.12347-0.16319 0.16465-0.24477l0.24697-0.28555c0.0411-0.0816 0.12348-0.12239 0.16463-0.16317l0.28814-0.28557c0.0824-0.0408 0.16464-0.12238 0.24697-0.16316l0.3293-0.16319c0.0823-0.0408 0.16464-0.0816 0.24696-0.12237l0.37046-0.12239c0.0824-0.0408 0.16465-0.0408 0.28812-0.0408l0.37046-0.0408c0.12349-0.0408 0.20581-0.0408 0.28813 0l0.41162 0.0408c0.0824 0 0.20581 0 0.28813 0.0408l0.37046 0.12239c0.0824 0.0408 0.12348 0.0816 0.20581 0.0816l0.32929 0.20396c0.0823 0.0408 0.20581 0.12238 0.24697 0.16319l0.28814 0.28554c0.0823 0.0408 0.12348 0.12239 0.20579 0.16318l0.20581 0.32635c0.0824 0.0408 0.12349 0.12238 0.16465 0.20396l0.16466 0.36714c0.0411 0.0408 0.0824 0.12238 0.0824 0.20398l0.1235 0.36714c0.0411 0.0816 0.0411 0.16317 0.0411 0.24476l0.0412 0.44873v0.24476l-0.0412 0.40795c0 0.12238 0 0.20396-0.0411 0.28553l-0.1235 0.36715c0 0.0816-0.0411 0.16319-0.0824 0.20398l-0.16466 0.36715c-0.0412 0.0816-0.0823 0.16316-0.16465 0.20395l-0.20581 0.32635c-0.0823 0.0408-0.12347 0.12238-0.20579 0.16319l-0.28814 0.28555c-0.0411 0.0408-0.16465 0.12238-0.24697 0.16318l-0.32929 0.16316c-0.0823 0.0408-0.12349 0.0816-0.20581 0.1224l-0.37046 0.12237c-0.0824 0.0408-0.20581 0.0408-0.28813 0.0408l-0.41162 0.0408c-0.0823 0.0408-0.16464 0.0408-0.28813 0l-0.37046-0.0408c-0.12347 0-0.2058 0-0.28812-0.0408l-0.37046-0.12237c-0.0823-0.0408-0.16463-0.0816-0.24696-0.1224l-0.3293-0.16316c-0.0824-0.0408-0.16465-0.12238-0.24697-0.16318l-0.28814-0.28555c-0.0411-0.0408-0.12347-0.0816-0.16463-0.16319l-0.24697-0.28554c-0.0412-0.0816-0.1235-0.16319-0.16465-0.24476l-0.16464-0.36715c-0.0412-0.0408-0.0412-0.12238-0.0824-0.20398l-0.12349-0.36715c0-0.0816-0.0412-0.16315-0.0412-0.28553zm2.7577 0.16316-0.0411-0.24475 0.12348 0.36714-0.0823-0.20397 0.16465 0.32635-0.16465-0.24477 0.24697 0.32636-0.16465-0.16317 0.28813 0.24475-0.2058-0.16317 0.32928 0.16317-0.24696-0.0816 0.37046 0.12237-0.28814-0.0816 0.37046 0.0408h-0.28814l0.41162-0.0408-0.3293 0.0816 0.37046-0.12237-0.2058 0.0816 0.32928-0.20396-0.24697 0.20396 0.28815-0.24475-0.16466 0.16317 0.24697-0.28556-0.16465 0.20397 0.16465-0.32635-0.0823 0.20397 0.12348-0.36714-0.0412 0.24475 0.0412-0.40793v0.24477l-0.0412-0.40793 0.0412 0.24474-0.12348-0.36713 0.0823 0.20396-0.16465-0.32636 0.16465 0.20398-0.24697-0.28555 0.16466 0.16317-0.28815-0.24475 0.24697 0.16315-0.32928-0.16315 0.2058 0.0816-0.37046-0.12237 0.3293 0.0816-0.41162-0.0408h0.28814l-0.37046 0.0408 0.28814-0.0816-0.37046 0.12237 0.24696-0.0816-0.32928 0.16315 0.2058-0.16315-0.28813 0.24475 0.16465-0.16317-0.24697 0.32636 0.16465-0.24479-0.16465 0.32636 0.0823-0.20396-0.12348 0.36713 0.0411-0.24474-0.0411 0.40793v-0.24477z" stroke="#000" stroke-width=".040978px"/>
  <path id="path3266" fill-rule="evenodd" d="m511.41 407.33c0-1.1218 0.88498-2.0398 1.9552-2.0398 1.0908 0 1.9552 0.91785 1.9552 2.0398 0 1.1422-0.86439 2.0601-1.9552 2.0601-1.0702 0-1.9552-0.91788-1.9552-2.0601"/>
  <path id="path3268" stroke-linejoin="round" d="m509.12 407.47v-0.26513l0.0411-0.42836c0.0206-0.0816 0.0206-0.16317 0.0618-0.24475l0.10292-0.38755c0.0205-0.0611 0.0617-0.14277 0.0823-0.20397l0.18522-0.34675c0.0412-0.10201 0.0824-0.18355 0.14406-0.24474l0.24697-0.30596c0.0618-0.0611 0.10292-0.12239 0.16465-0.16319l0.28813-0.26513c0.0824-0.0612 0.16465-0.1224 0.24697-0.16319l0.32931-0.18356c0.0617-0.0408 0.14406-0.0816 0.22638-0.10201l0.37045-0.12239c0.10291-0.0408 0.20581-0.0611 0.28813-0.0611l0.39103-0.0408c0.10292-0.0204 0.20581-0.0204 0.28814 0l0.39103 0.0408c0.10292 0 0.20582 0.0204 0.30872 0.0611l0.37045 0.12239c0.0823 0.0204 0.14407 0.0611 0.2264 0.10201l0.32928 0.18356c0.0823 0.0408 0.16465 0.10201 0.24697 0.16319l0.28813 0.26513c0.0617 0.0408 0.10292 0.10201 0.16466 0.16319l0.24696 0.30596c0.0411 0.0611 0.10291 0.14276 0.14408 0.24474l0.18522 0.34675c0.0205 0.0612 0.0617 0.14279 0.0824 0.20397l0.10292 0.38755c0.0411 0.0816 0.0411 0.16317 0.0617 0.24475l0.0412 0.42836v0.26513l-0.0412 0.40795c-0.0206 0.10201-0.0206 0.18357-0.0617 0.24475l-0.10292 0.38755c-0.0205 0.0816-0.0617 0.16317-0.0824 0.24476l-0.18522 0.34675c-0.0412 0.0816-0.10292 0.16316-0.14408 0.24476l-0.24696 0.30595c-0.0618 0.0611-0.10292 0.10201-0.16466 0.16317l-0.28813 0.24478c-0.0824 0.0611-0.16463 0.12238-0.24697 0.18356l-0.32928 0.18357c-0.0824 0.0408-0.14407 0.0611-0.2264 0.10201l-0.37045 0.12237c-0.10291 0.0204-0.2058 0.0408-0.30872 0.0611l-0.39103 0.0408h-0.28814l-0.39103-0.0408c-0.0824-0.0204-0.18522-0.0408-0.28813-0.0611l-0.37045-0.12237c-0.0824-0.0408-0.16464-0.0611-0.22638-0.10201l-0.32931-0.18357c-0.0824-0.0612-0.16464-0.12238-0.24697-0.18356l-0.28813-0.24478-0.16465-0.16317-0.24697-0.30595c-0.0617-0.0816-0.10291-0.16317-0.14406-0.24476l-0.18522-0.34675c-0.0206-0.0816-0.0618-0.16317-0.0823-0.24476l-0.12348-0.38755c-0.0205-0.0611-0.0205-0.14276-0.0411-0.24475zm2.7785 0.14279-0.0412-0.24477 0.10291 0.38755-0.0824-0.22436 0.16464 0.34674-0.14407-0.24476 0.24698 0.30596-0.16463-0.16319 0.28812 0.26516-0.24697-0.18357 0.32929 0.18357-0.22639-0.10201 0.37045 0.12239-0.30872-0.0611 0.39104 0.0408h-0.28814l0.39106-0.0408-0.28814 0.0611 0.37045-0.12239-0.22638 0.10201 0.32929-0.18357-0.24697 0.18357 0.28813-0.26516-0.16465 0.16319 0.24697-0.30596-0.14407 0.24476 0.16466-0.34674-0.0824 0.22436 0.10291-0.38755-0.0411 0.24477 0.0411-0.40792v0.26513l-0.0411-0.42833 0.0617 0.26517-0.12347-0.38755 0.0824 0.22437-0.16465-0.34674 0.14406 0.24475-0.24697-0.30595 0.16464 0.16319-0.28812-0.24477 0.24698 0.16317-0.3293-0.18357 0.22639 0.10201-0.37046-0.12238 0.28815 0.0611-0.39106-0.0408h0.28814l-0.39104 0.0408 0.30872-0.0611-0.37045 0.12238 0.22638-0.10201-0.32929 0.18357 0.24697-0.16317-0.28813 0.24477 0.16463-0.16319-0.24696 0.30595 0.14406-0.24475-0.16464 0.34674 0.0824-0.22437-0.12349 0.38755 0.0617-0.26517-0.0411 0.42833v-0.26513z" stroke="#000" stroke-width=".020489px"/>
  <path id="path3270" stroke-linejoin="round" d="m481.52 429.66v20.554h-1.3583v-20.554h1.3583zm3.437 19.107-4.1162 8.6453-4.1162-8.6453h8.2324z" stroke="#000" stroke-width=".021090px"/>
  <path id="path3272" stroke-linejoin="round" d="m486.54 436.17-11.073 8.0976 0.59685 0.81589 11.073-8.0976z" stroke="#000" stroke-width=".020489px"/>
  <text id="text3274" font-size="10.983px" xml:space="preserve" transform="scale(1.0045 .99551)" y="442.75854" x="468.05804" font-family="Arial" fill="#000000">5</text>
  <path id="path3276" stroke-linejoin="round" d="m609.2 406.65-10.664-0.19431-0.0259 1.3466 10.705 0.19633-0.0153-1.3486zm-9.2606-3.5566-8.2728 3.9252 8.1551 4.2377 0.1176-8.1628z" stroke="#000" stroke-width=".040978px"/>
  <path id="path3278" stroke-linejoin="round" d="m612.81 430.94v-71.389h-1.0291v71.389z" stroke="#000" stroke-width=".040978px"/>
  <path id="path3280" stroke-linejoin="round" d="m586.84 430.39h25.491v1.0188h-25.491z" stroke="#000" stroke-width=".042690px"/>
  <path id="path3282" stroke-linejoin="round" d="m588.22 430.8v19.378h-1.3583v-19.378h1.3583zm3.4575 18.031-4.1162 8.1587-4.1162-8.1587h8.2324z" stroke="#000" stroke-width=".040978px"/>
  <path id="path3284" stroke-linejoin="round" d="m593.23 436.52-11.073 8.118 0.61741 0.81587 11.073-8.118z" stroke="#000" stroke-width=".040978px"/>
  <text id="text3286" font-size="10.983px" xml:space="preserve" transform="scale(1.0045 .99551)" y="441.68546" x="573.83264" font-family="Arial" fill="#000000">5</text>
  <path id="path3288" stroke-linejoin="round" d="m623.53 347.49h87.916v1.0176h-87.916z" stroke="#000" stroke-width=".043151px"/>
  <path id="path3290" stroke-linejoin="round" d="m709.67 407.14-10.524 0.14396 0.004-1.3518 10.52-0.18458 0.00024 1.3924zm-9.0682 3.4975-8.3265-3.9391 8.1793-4.1976 0.14729 8.1366z" stroke="#000" stroke-width=".040978px"/>
  <path id="path3292" stroke-linejoin="round" d="m711.72 429.96v-82.47h-1.025v82.47z" stroke="#000" stroke-width=".045078px"/>
  <path id="path3294" stroke-linejoin="round" d="m688 430.22h23.413v1.019h-23.413z" stroke="#000" stroke-width=".042553px"/>
  <path id="path3296" stroke-linejoin="round" d="m693.96 437.65-11.073 8.118 0.61742 0.81587 11.073-8.0772z" stroke="#000" stroke-width=".040978px"/>
  <text id="text3298" font-size="10.983px" xml:space="preserve" transform="scale(1.0045 .99551)" y="442.13712" x="674.30981" font-family="Arial" fill="#000000">5</text>
  <path id="path3300" stroke-linejoin="round" d="m689.18 431.23v19.419h-1.3583v-19.419h1.3583zm3.4164 18.031-4.1162 8.1587-4.1162-8.1587h8.2323z" stroke="#000" stroke-width=".040978px"/>
  <path id="path3302" stroke-linejoin="round" d="m786.29 458.19c0-0.36718 0.29089-0.69355 0.61814-0.69355h52.651c0.36361 0 0.61814 0.32637 0.61814 0.69355v27.009c0 0.36719-0.25453 0.65277-0.61814 0.65277h-52.651c-0.32725 0-0.61814-0.28558-0.61814-0.65277zm1.1998 27.009-0.58179-0.69355h52.651l-0.58177 0.69355v-27.009l0.58177 0.69354h-52.651l0.58179-0.69354z" stroke="#000" stroke-width=".038516px"/>
  <text id="text3304" font-size="13.626px" xml:space="preserve" transform="scale(1.0045 .99551)" line-height="125%" y="483.9856" x="794.74475" font-family="Arial" fill="#000000">MUX</text>
  <path id="path3306" stroke-linejoin="round" d="m773.83 470.8h12.431v1.0198h-12.431z" stroke="#000" stroke-width=".040978px"/>
  <path id="path3308" stroke-linejoin="round" d="m812.66 485.9v12.482h-1.3995v-12.482h1.3995zm3.4164 11.138-4.1162 8.1587-4.1162-8.1587h8.2324z" stroke="#000" stroke-width=".040978px"/>
  <path id="path3310" stroke-linejoin="round" d="m762.87 281.32c0-0.36705 0.41901-0.6933 0.95776-0.6933h56.566c0.53875 0 1.0176 0.32625 1.0176 0.6933v28.425c0 0.36703-0.47886 0.6933-1.0176 0.6933h-56.566c-0.53875 0-0.95776-0.32627-0.95776-0.6933zm1.4513 28.474-0.49365-0.74147h56.566l-0.44913 0.94525 0.0849-28.761 0.36437 0.77728h-56.566l0.54129-0.59691z" stroke="#000" stroke-width=".049409px"/>
  <text id="text3312" font-size="14.988px" xml:space="preserve" transform="scale(1.0045 .99551)" line-height="125%" y="301.61865" x="763.27478" font-family="Arial" fill="#000000">SelCop</text>
  <path id="path3314" fill-rule="evenodd" d="m710.08 406.63c0-1.1422 0.86438-2.0805 1.9758-2.0805 1.0702 0 1.9346 0.93824 1.9346 2.0805 0 1.1422-0.8644 2.0398-1.9346 2.0398-1.1114 0-1.9758-0.89746-1.9758-2.0398"/>
  <path id="path3316" stroke-linejoin="round" d="m708.06 406.42v-0.24476l0.0412-0.44872c0-0.0816 0.0411-0.16319 0.0411-0.24477l0.12348-0.36715c0.0411-0.0816 0.0411-0.16317 0.0823-0.24476l0.20581-0.32635c0.0411-0.0816 0.0823-0.16317 0.12347-0.24476l0.24697-0.28557c0.0412-0.0816 0.0823-0.12236 0.16466-0.20395l0.28812-0.24477c0.0824-0.0816 0.16466-0.12237 0.24698-0.16317l0.3293-0.20398c0.0824-0.0408 0.16464-0.0408 0.24696-0.0816l0.37046-0.12238c0.0824-0.0408 0.16463-0.0408 0.28813-0.0816l0.37045-0.0408h0.28813l0.41163 0.0408c0.0823 0.0408 0.16463 0.0408 0.28813 0.0816l0.37044 0.12238c0.0823 0.0408 0.16465 0.0408 0.24698 0.0816l0.32929 0.20398c0.0824 0.0408 0.16465 0.0816 0.20582 0.16317l0.28811 0.24477 0.16466 0.16317 0.24697 0.32635c0.0824 0.0816 0.12347 0.16317 0.16464 0.24476l0.16465 0.32635c0.0412 0.0816 0.0823 0.16318 0.0823 0.24476l0.12349 0.36715c0.0411 0.0816 0.0411 0.16317 0.0411 0.24477l0.0412 0.44872c0.0411 0.0816 0.0411 0.16317 0 0.24476l-0.0412 0.40795c0 0.12236 0 0.20396-0.0411 0.28555l-0.12349 0.36714c0 0.0816-0.0411 0.16317-0.0823 0.20396l-0.16465 0.36715c-0.0412 0.0816-0.0823 0.16317-0.16464 0.24476l-0.24697 0.28556c-0.0412 0.0816-0.0824 0.12238-0.16466 0.16317l-0.28811 0.28556c-0.0412 0.0408-0.1235 0.12238-0.20582 0.16317l-0.32929 0.16318c-0.0823 0.0408-0.16464 0.0816-0.24698 0.12237l-0.37044 0.1224c-0.1235 0.0408-0.20581 0.0408-0.28813 0.0408l-0.41163 0.0408c-0.0824 0.0408-0.16464 0.0408-0.28813 0l-0.37045-0.0408c-0.1235 0-0.20581 0-0.28813-0.0408l-0.37046-0.1224c-0.0824-0.0408-0.16465-0.0816-0.24696-0.12237l-0.3293-0.16318c-0.0824-0.0408-0.16465-0.12238-0.24698-0.16317l-0.28812-0.28556c-0.0824-0.0408-0.12348-0.12237-0.16466-0.16317l-0.24697-0.32634c-0.0411-0.0408-0.0823-0.12238-0.12347-0.20398l-0.20581-0.36715c0-0.0408-0.0412-0.12238-0.0823-0.20396l-0.0824-0.36714c-0.0412-0.0816-0.0824-0.16319-0.0824-0.28555zm2.799 0.16318-0.0824-0.24477 0.12349 0.36716-0.0824-0.20398 0.16464 0.32636-0.12348-0.20398 0.24697 0.28556-0.20581-0.16318 0.28813 0.24476-0.20581-0.16316 0.32931 0.16316-0.24698-0.0816 0.37044 0.12237-0.28813-0.0816 0.37046 0.0408h-0.28814l0.41163-0.0408-0.28813 0.0816 0.37046-0.12237-0.24697 0.0816 0.32928-0.16316-0.24696 0.16316 0.28813-0.24476-0.16465 0.16318 0.24698-0.32635-0.16466 0.24477 0.20582-0.32636-0.0824 0.20398 0.0824-0.36716-0.0411 0.24477 0.0411-0.40794v0.24476l-0.0411-0.40794 0.0411 0.24477-0.12349-0.40794 0.12349 0.24476-0.20582-0.32635 0.16466 0.24476-0.24698-0.32633 0.16465 0.16316-0.28813-0.24476 0.24696 0.16317-0.32928-0.16317 0.24697 0.0816-0.37046-0.12239 0.28813 0.0816-0.41163-0.0408h0.28814l-0.37046 0.0408 0.28813-0.0816-0.37044 0.12239 0.24698-0.0816-0.32931 0.16317 0.20581-0.16317-0.28813 0.24476 0.20581-0.20397-0.24697 0.32636 0.12348-0.20398-0.16464 0.32635 0.0824-0.24476-0.12349 0.40794 0.0824-0.24477-0.0411 0.40794v-0.24476z" stroke="#000" stroke-width=".040978px"/>
  <path id="path3318" stroke-linejoin="round" d="m825.59 340.64 0.28441 111.9-1.359-0.008-0.28441-111.9 1.359 0.008zm3.7145 110.75-4.1044 6.5965-4.1328-6.5828 8.2372-0.0135z" stroke="#000" stroke-width=".036836px"/>
  <path id="path3320" stroke-linejoin="round" d="m800.04 374.19 0.41165 77.569h-1.3584l-0.4528-77.53 1.3995-0.0397zm3.8281 76.223-4.0752 7.9152-4.1576-7.8757 8.2327-0.0397z" stroke="#000" stroke-width=".040362px"/>
  <text id="text3322" font-size="10.983px" xml:space="preserve" transform="scale(1.0045 .99551)" y="476.47134" x="751.37579" font-family="Arial" fill="#000000">MC</text>
  <path id="path3324" stroke-linejoin="round" d="m830.31 411.18-11.073 8.118 0.61743 0.81588 11.073-8.0772z" stroke="#000" stroke-width=".040978px"/>
  <path id="path3326" stroke-linejoin="round" d="m806.01 409.69-11.073 8.0772 0.57627 0.85666 11.073-8.118z" stroke="#000" stroke-width=".040978px"/>
  <text id="text3328" font-size="10.983px" xml:space="preserve" transform="matrix(-.072068 -1.0487 .94867 -.071424 0 0)" y="803.08344" x="-476.51978" font-family="Arial" line-height="125%" fill="#000000"><tspan id="tspan4439" y="803.08344" x="-476.51978">IR3 -- IR0</tspan></text>
  <text id="text3330" font-size="10.983px" xml:space="preserve" transform="scale(1.0045 .99551)" y="417.48105" x="810.31244" font-family="Arial" fill="#000000">4</text>
  <text id="text3332" font-size="10.983px" xml:space="preserve" transform="scale(1.0045 .99551)" y="441.80841" x="436.81805" font-family="Arial" fill="#000000">5</text>
  <text id="text3334" font-size="10.983px" xml:space="preserve" transform="scale(1.0045 .99551)" y="441.26706" x="544.80078" font-family="Arial" fill="#000000">5</text>
  <text id="text3336" font-size="10.983px" xml:space="preserve" transform="scale(1.0045 .99551)" y="441.14856" x="645.45203" font-family="Arial" fill="#000000">5</text>
  <text id="text3338" font-size="9.5069px" xml:space="preserve" transform="scale(1.0045 .99551)" y="469.09109" x="444.10132" font-family="Arial" fill="#000000">0</text>
  <text id="text3340" font-size="9.5069px" xml:space="preserve" transform="scale(1.0045 .99551)" y="469.32382" x="475.40692" font-family="Arial" fill="#000000">1</text>
  <text id="text3342" font-size="13.604px" xml:space="preserve" transform="scale(1.0045 .99551)" y="520.23767" x="559.54852" font-family="Arial" fill="#000000">RB</text>
  <text id="text3344" font-size="13.604px" xml:space="preserve" transform="scale(1.0045 .99551)" y="520.59894" x="660.22186" font-family="Arial" fill="#000000">RC</text>
  <text id="text3346" font-size="13.604px" xml:space="preserve" transform="scale(1.0045 .99551)" y="519.76044" x="454.89871" font-family="Arial" fill="#000000">RA</text>
  <text id="text3348" font-size="13.604px" xml:space="preserve" transform="scale(1.0045 .99551)" y="521.71893" x="796.47522" font-family="Arial" fill="#000000">Cop</text>
  <text id="text3350" font-size="9.5069px" xml:space="preserve" transform="scale(1.0045 .99551)" y="469.09109" x="552.42499" font-family="Arial" fill="#000000">0</text>
  <text id="text3352" font-size="9.5069px" xml:space="preserve" transform="scale(1.0045 .99551)" y="469.32382" x="581.42377" font-family="Arial" fill="#000000">1</text>
  <text id="text3354" font-size="9.5069px" xml:space="preserve" transform="scale(1.0045 .99551)" y="469.4581" x="794.04462" font-family="Arial" fill="#000000">0</text>
  <text id="text3356" font-size="9.5069px" xml:space="preserve" transform="scale(1.0045 .99551)" y="469.07013" x="818.7533" font-family="Arial" fill="#000000">1</text>
  <text id="text3358" font-size="10.901px" xml:space="preserve" transform="scale(1.0045 .99551)" line-height="125%" y="181.77036" x="296.43741" font-family="Arial" fill="#000000">A1</text>
  <text id="text3362" font-size="16.391px" xml:space="preserve" transform="scale(1.0045 .99551)" y="284.62009" x="272.05124" font-family="Arial" fill="#000000">MUX B</text>
  <path id="path3364" stroke-linejoin="round" d="m261.62 304.79c0 0.38755 0.24467 0.69352 0.57672 0.69352h72.667c0.31456 0 0.57671-0.30597 0.57671-0.69352v-43.385c0-0.36716-0.26215-0.67313-0.57671-0.67313h-72.667c-0.33205 0-0.57672 0.30597-0.57672 0.67313zm1.1535-43.385-0.57671 0.67312h72.667l-0.57671-0.67312v43.385l0.57671-0.67313h-72.667l0.57671 0.67313z" stroke="#000" stroke-width=".018880px"/>
  <text id="text3366" font-size="9.5069px" xml:space="preserve" transform="scale(1.0045 .99551)" y="300.1506" x="278.60162" font-family="Arial" fill="#000000">0</text>
  <text id="text3368" font-size="9.5069px" xml:space="preserve" transform="scale(1.0045 .99551)" y="300.38324" x="307.6004" font-family="Arial" fill="#000000">1</text>
  <path id="path3372" stroke-linejoin="round" d="m313.25 324.48v-12.482h-1.3789v12.482h1.3789zm3.4164-11.117-4.1162-8.1587-4.1162 8.1587h8.2323z" stroke="#000" stroke-width=".020489px"/>
  <text id="text3374" font-size="10.901px" xml:space="preserve" transform="scale(1.0045 .99551)" line-height="125%" y="74.263977" x="233.69376" font-family="Arial" fill="#000000">00</text>
  <text id="text3376" font-size="10.901px" xml:space="preserve" transform="scale(1.0045 .99551)" line-height="125%" y="101.65948" x="233.69376" font-family="Arial" fill="#000000">01</text>
  <text id="text3378" font-size="10.901px" xml:space="preserve" transform="scale(1.0045 .99551)" line-height="125%" y="134.59129" x="233.04129" font-family="Arial" fill="#000000">10</text>
  <text id="text3380" font-size="10.901px" xml:space="preserve" transform="scale(1.0045 .99551)" line-height="125%" y="164.28119" x="233.69376" font-family="Arial" fill="#000000">11</text>
  <path id="path3382" fill-rule="evenodd" fill="#fff" d="m304.87 345.68 7.7795-15.42 7.7796 15.42z"/>
  <path id="path3384" stroke-linejoin="round" d="m304.87 342.16c-0.18526 0-0.34992-0.0771-0.45286-0.1848-0.0823-0.12317-0.10291-0.26176-0.0206-0.36954l7.7808-11.641c0.0823-0.13858 0.26759-0.21557 0.47343-0.21557 0.18526 0 0.37051 0.077 0.45286 0.21557l7.7808 11.641c0.0824 0.10778 0.0617 0.24637-0.0206 0.36954-0.10292 0.10779-0.2676 0.1848-0.43226 0.1848zm15.562-0.76989-0.47344 0.55432-7.7808-11.641h0.92629l-7.7808 11.641-0.45284-0.55432z" stroke="#000" stroke-width=".017803px"/>
  <path id="path3386" fill-rule="evenodd" fill="#fff" d="m308.64 326.93c0-2.1213 1.7493-3.8549 3.8897-3.8549 2.161 0 3.8897 1.7336 3.8897 3.8549s-1.7288 3.8549-3.8897 3.8549c-2.1405 0-3.8897-1.7336-3.8897-3.8549"/>
  <path id="path3388" stroke-linejoin="round" d="m308.14 327c-0.0206-0.0408-0.0206-0.0816 0-0.12239l0.0824-0.77509c0-0.0204 0-0.0611 0.0205-0.0816l0.22639-0.73429c0-0.0204 0.0206-0.0611 0.0206-0.0816l0.34986-0.6527c0.0205-0.0408 0.0411-0.0611 0.0617-0.10201l0.49394-0.57112 0.0618-0.0611 0.57627-0.46912c0.0206-0.0204 0.0618-0.0408 0.0823-0.0408l0.65859-0.36715c0.0205-0.0204 0.0617-0.0204 0.10292-0.0408l0.72032-0.22438c0.0412 0 0.0618-0.0204 0.10292-0.0204l0.78206-0.0816h0.10291l0.78206 0.0816c0.0412 0 0.0618 0.0204 0.10292 0.0204l0.72033 0.22438c0.0412 0.0204 0.0618 0.0204 0.10292 0.0408l0.65858 0.36715c0.0206 0 0.0618 0.0204 0.0823 0.0408l0.57627 0.46912 0.0618 0.0611 0.49394 0.57112c0.0206 0.0408 0.0412 0.0611 0.0618 0.10201l0.34988 0.6527c0 0.0204 0.0206 0.0612 0.0206 0.0816l0.22639 0.73429c0.0205 0.0204 0.0205 0.0611 0.0205 0.0816l0.0824 0.77509c0.0206 0.0408 0.0206 0.0816 0 0.12239l-0.0824 0.77508c0 0.0204 0 0.0611-0.0205 0.0816l-0.22639 0.73429c0 0.0204-0.0206 0.0611-0.0206 0.0816l-0.34988 0.65271c-0.0206 0.0408-0.0412 0.0612-0.0618 0.10201l-0.49394 0.57112-0.0618 0.0611-0.57627 0.46914c-0.0206 0.0204-0.0618 0.0408-0.0823 0.0611l-0.65858 0.34674c-0.0412 0.0204-0.0617 0.0204-0.10292 0.0408l-0.72033 0.22436c-0.0412 0-0.0618 0.0204-0.10292 0.0204l-0.78206 0.0816h-0.10291l-0.78206-0.0816c-0.0412 0-0.0618-0.0204-0.10292-0.0204l-0.72032-0.22436c-0.0412-0.0204-0.0618-0.0204-0.10292-0.0408l-0.65859-0.34674c-0.0206-0.0204-0.0618-0.0408-0.0823-0.0611l-0.57627-0.46914-0.0618-0.0611-0.49394-0.57112c-0.0206-0.0408-0.0412-0.0611-0.0617-0.10201l-0.34986-0.65271c0-0.0204-0.0206-0.0611-0.0206-0.0816l-0.22639-0.73429c-0.0205-0.0204-0.0205-0.0611-0.0205-0.0816zm1.0908 0.65269-0.0206-0.0816 0.22639 0.71389-0.0205-0.0816 0.34986 0.65271-0.0618-0.10201 0.47337 0.57112-0.0618-0.0612 0.57626 0.48953-0.0823-0.0611 0.6586 0.34675-0.10291-0.0408 0.74092 0.22437-0.10291-0.0204 0.78206 0.0816h-0.10291l0.78208-0.0816-0.10291 0.0204 0.74091-0.22437-0.10291 0.0408 0.65859-0.34675-0.0823 0.0611 0.57626-0.48953-0.0618 0.0612 0.47337-0.57112-0.0617 0.10201 0.34987-0.65271-0.0206 0.0816 0.2264-0.71389-0.0206 0.0816 0.0823-0.77508v0.12239l-0.0823-0.77508 0.0206 0.0816-0.2264-0.71387 0.0206 0.0816-0.34987-0.65271 0.0617 0.10201-0.47337-0.57109 0.0618 0.0611-0.57626-0.46911 0.0823 0.0408-0.65859-0.34674 0.10291 0.0408-0.74091-0.22436 0.10291 0.0204-0.78208-0.0816h0.10291l-0.78206 0.0816 0.10291-0.0204-0.74092 0.22436 0.10291-0.0408-0.6586 0.34674 0.0823-0.0408-0.57626 0.46911 0.0618-0.0611-0.47337 0.57109 0.0618-0.10201-0.34986 0.65271 0.0205-0.0816-0.22639 0.71387 0.0206-0.0816-0.0824 0.77508v-0.12239z" stroke="#000" stroke-width=".020489px"/>
  <path id="path3390" stroke-linejoin="round" d="m313.47 356.88v-15.42h-1.029v15.42z" stroke="#000" stroke-width=".020489px"/>
  <path id="path3392" stroke-linejoin="round" d="m281.51 356.12h31.756v1.0198h-31.756z" stroke="#000" stroke-width=".020489px"/>
  <path id="path3394" fill-rule="evenodd" fill="#d9d9d9" d="m446.61 280.86v29.922h17.264v-29.922h-17.264z"/>
  <path id="path3396" stroke-linejoin="round" d="m445.58 281.05c0-0.35547 0.32845-0.65166 0.77421-0.65166h17.43c0.42231 0 0.7742 0.29619 0.7742 0.65166v28.97c0 0.35546-0.35189 0.65165-0.7742 0.65165h-17.43c-0.44576 0-0.77421-0.29619-0.77421-0.65165zm1.5483 28.97-0.7742-0.65167h17.43l-0.79766 0.65167v-28.97l0.79766 0.65166h-17.43l0.7742-0.65166z" stroke="#000" stroke-width=".021525px"/>
  <path id="path3398" fill-rule="evenodd" fill="#d9d9d9" d="m464.12 280.86v29.922h27.229v-29.922h-27.229z"/>
  <path id="path3400" stroke-linejoin="round" d="m463.43 281.05c0-0.35548 0.28814-0.65171 0.67918-0.65171h27.229c0.37045 0 0.67918 0.29623 0.67918 0.65171v28.971c0 0.35548-0.30873 0.6517-0.67918 0.6517h-27.229c-0.39104 0-0.67918-0.29622-0.67918-0.6517zm1.3584 28.971-0.67918-0.65168h27.229l-0.69975 0.65168v-28.971l0.69975 0.65169h-27.229l0.67918-0.65169z" stroke="#000" stroke-width=".020161px"/>
  <path id="path3402" fill-rule="evenodd" fill="#d9d9d9" d="m426.68 280.86v29.922h19.416v-29.922h-19.416z"/>
  <path id="path3404" stroke-linejoin="round" d="m426.36 281.05c0-0.35544 0.36255-0.65164 0.85459-0.65164h19.242c0.46614 0 0.8546 0.2962 0.8546 0.65164v28.969c0 0.35542-0.38846 0.65162-0.8546 0.65162h-19.242c-0.49204 0-0.85459-0.2962-0.85459-0.65162zm1.7092 28.969-0.85463-0.65167h19.242l-0.8805 0.65167v-28.969l0.8805 0.65163h-19.242l0.85463-0.65163z" stroke="#000" stroke-width=".022614px"/>
  <text id="text3406" font-size="12.263px" xml:space="preserve" transform="scale(1.0045 .99551)" line-height="125%" y="301.9841" x="427.2464" font-family="Arial" fill="#000000">A0</text>
  <text id="text3408" font-size="14.988px" xml:space="preserve" transform="scale(1.0045 .99551)" line-height="125%" y="303.01648" x="448.77124" font-family="Arial" fill="#000000">B</text>
  <text id="text3410" font-size="14.988px" xml:space="preserve" transform="scale(1.0045 .99551)" line-height="125%" y="303.01648" x="469.77109" font-family="Arial" fill="#000000">C</text>
  <text id="text3412" font-size="13.604px" xml:space="preserve" transform="scale(1.0045 .99551)" y="249.18497" x="524.61633" font-family="Arial" fill="#000000">µAddress</text>
  <path id="path3414" stroke-linejoin="round" d="m479.51 310.46v32.737h-1.0291v-32.737z" stroke="#000" stroke-width=".020489px"/>
  <path id="path3416" stroke-linejoin="round" d="m558.43 212.38v22.005h-1.0278v-22.005z" stroke="#000" stroke-width=".021707px"/>
  <path id="path3418" stroke-linejoin="round" d="m491.87 278.1 0.0411-2.366 0.12349-2.2437 0.0824-1.0606 0.12349-0.97905 0.12347-0.93826 0.1235-0.81588 0.12348-0.81585 0.16464-0.6935 0.16466-0.61191 0.2058-0.53031 0.16464-0.40794c0.0412-0.0408 0.0412-0.0816 0.0412-0.0816l0.20582-0.28557c0.0411-0.0408 0.0411-0.0816 0.0823-0.0816l0.20581-0.20397c0.0412-0.0408 0.12348-0.0816 0.20581-0.12238l0.20581-0.0408c0.0411-0.0408 0.0824-0.0408 0.12348-0.0408h59.766l-0.16464 0.0408 0.2058-0.0816-0.2058 0.12237 0.2058-0.16316-0.0823 0.0816 0.20581-0.28555-0.0411 0.0816 0.16466-0.40794 0.16464-0.44873 0.16465-0.57111 0.12348-0.6527 0.16465-0.73429 0.12348-0.81588 0.0824-0.89745 0.1235-0.97905 0.0824-1.0198 0.0824-2.2029 0.0412-2.366c0.0411-0.28556 0.24698-0.48953 0.53511-0.48953 0.28814 0 0.49392 0.20397 0.49392 0.48953l0.0411 2.4068 0.12348 2.1621 0.0824 1.0198 0.12348 0.97906 0.0824 0.89745 0.12348 0.81588 0.16465 0.73429 0.12348 0.6527 0.16465 0.57111 0.16464 0.48952 0.16465 0.36714-0.0411-0.0816 0.20581 0.28555-0.0823-0.0816 0.2058 0.16316-0.2058-0.12236 0.2058 0.0816-0.16464-0.0408h59.766c0.0412 0 0.0824 0 0.12349 0.0408l0.20582 0.0408c0.0824 0.0408 0.16464 0.0816 0.2058 0.12239l0.20582 0.20396c0.0411 0 0.0411 0.0408 0.0823 0.0816l0.20581 0.28557s0 0.0408 0.0411 0.0816l0.16465 0.36713 0.20581 0.57112 0.16464 0.61191 0.16464 0.69348 0.1235 0.77508 0.12348 0.85667 0.12348 0.93825 0.12349 0.97905 0.0823 1.0198 0.0824 2.2437 0.0412 2.4068h-1.0291l-0.0411-2.366-0.0824-2.2029-0.0823-0.97906-0.12349-0.97904-0.0823-0.89747-0.1235-0.81587-0.16463-0.77508-0.1235-0.6119-0.16464-0.57112-0.16464-0.48952-0.16465-0.36713 0.0411 0.0816-0.2058-0.28555 0.0823 0.0816-0.20581-0.20396 0.20581 0.12238-0.20581-0.0408h0.16464-59.766-0.12349l-0.2058-0.0816c-0.0824 0-0.16464-0.0408-0.20581-0.12237l-0.20581-0.1632c-0.0411-0.0408-0.0411-0.0816-0.0824-0.0816l-0.20581-0.28556c0-0.0408 0-0.0816-0.0411-0.0816l-0.16464-0.44873-0.20581-0.53032-0.16464-0.61189-0.16465-0.69349-0.12349-0.77509-0.12349-0.85667-0.12347-0.89745-0.1235-1.0198-0.0823-1.0198-0.12349-2.2437-0.0412-2.366h1.029l-0.0412 2.366-0.0824 2.2437-0.0823 1.0606-0.1235 0.97905-0.12349 0.89745-0.12348 0.85667-0.12349 0.77509-0.16463 0.73427-0.16466 0.61191-0.20581 0.53032-0.16465 0.40793c-0.0411 0-0.0411 0.0408-0.0411 0.0816l-0.20582 0.28556c-0.0411 0-0.0411 0.0408-0.0823 0.0816l-0.20582 0.1632c-0.0411 0.0816-0.12348 0.12237-0.2058 0.12237l-0.20581 0.0816h-0.12348-59.766 0.16464l-0.2058 0.0408 0.2058-0.12238-0.2058 0.20396 0.0823-0.0816-0.2058 0.28555 0.0412-0.0816-0.16466 0.36713-0.16464 0.44873-0.16466 0.57112-0.12347 0.65269-0.16466 0.73429-0.12347 0.81588-0.0823 0.93825-0.12348 0.93826-0.0824 1.0198-0.12347 2.2029-0.0411 2.366z" stroke="#000" stroke-width=".040978px"/>
  <path id="path3420" stroke-linejoin="round" d="m454.89 310.78v14.319l0.62322-0.6935h-63.871l0.64211 0.6935v-41.998c0-0.38755-0.28328-0.6935-0.64211-0.6935h-50.558v1.3666h50.558l-0.62324-0.67313v41.998c0 0.36713 0.28329 0.67311 0.62324 0.67311h63.871c0.35885 0 0.64213-0.30598 0.64213-0.67311v-14.319zm-112.55-31.759-7.5542 4.0794 7.5542 4.0794z" stroke="#000" stroke-width=".019626px"/>
  <path id="path3422" stroke-linejoin="round" d="m104.33 505.6c0-0.33499 0.30871-0.58183 0.67917-0.58183h22.392c0.39103 0 0.69975 0.24684 0.69975 0.58183v24.455c0 0.31737-0.30872 0.58184-0.69975 0.58184h-22.392c-0.37046 0-0.67917-0.26447-0.67917-0.58184zm1.3789 24.455-0.69975-0.58185h22.392l-0.67918 0.58185v-24.455l0.67918 0.58187h-22.392l0.69975-0.58187z" stroke="#000" stroke-width=".019049px"/>
  <text id="text3424" font-size="24.586px" xml:space="preserve" transform="scale(1.0045 .99551)" y="529.30389" x="111.23859" font-family="Arial" fill="#ffffff">º</text>
  <path id="path3426" stroke-linejoin="round" d="m126.71 505.6c0-0.33499 0.30872-0.58183 0.67919-0.58183h22.393c0.37045 0 0.67917 0.24684 0.67917 0.58183v24.455c0 0.31737-0.30872 0.58184-0.67917 0.58184h-22.393c-0.37047 0-0.67919-0.26447-0.67919-0.58184zm1.3789 24.455-0.69974-0.58185h22.393l-0.67918 0.58185v-24.455l0.67918 0.58187h-22.393l0.69974-0.58187z" stroke="#000" stroke-width=".019049px"/>
  <path id="path3428" stroke-linejoin="round" d="m149.1 505.6c0-0.33499 0.30873-0.58183 0.67918-0.58183h22.392c0.37046 0 0.67918 0.24684 0.67918 0.58183v24.455c0 0.31737-0.30872 0.58184-0.67918 0.58184h-22.392c-0.37045 0-0.67918-0.26447-0.67918-0.58184zm1.3583 24.455-0.67917-0.58185h22.392l-0.67918 0.58185v-24.455l0.67918 0.58187h-22.392l0.67917-0.58187z" stroke="#000" stroke-width=".019049px"/>
  <path id="path3430" stroke-linejoin="round" d="m219.66 505.6c0-0.33499 0.30872-0.58183 0.67918-0.58183h22.393c0.37046 0 0.67917 0.24684 0.67917 0.58183v24.455c0 0.31737-0.30871 0.58184-0.67917 0.58184h-22.393c-0.37046 0-0.67918-0.26447-0.67918-0.58184zm1.3789 24.455-0.69976-0.58185h22.392l-0.67915 0.58185v-24.455l0.67915 0.58187h-22.392l0.69976-0.58187z" stroke="#000" stroke-width=".019049px"/>
  <path id="path3432" stroke-linejoin="round" d="m242.05 505.6c0-0.33499 0.30872-0.58183 0.67917-0.58183h22.392c0.37046 0 0.67916 0.24684 0.67916 0.58183v24.455c0 0.31737-0.3087 0.58184-0.67916 0.58184h-22.392c-0.37045 0-0.67917-0.26447-0.67917-0.58184zm1.3583 24.455-0.67918-0.58185h22.392l-0.69974 0.58185v-24.455l0.69974 0.58187h-22.392l0.67918-0.58187z" stroke="#000" stroke-width=".019049px"/>
  <text id="text3434" font-size="13.604px" xml:space="preserve" transform="scale(1.0045 .99551)" line-height="125%" y="524.95886" x="110.77327" font-family="Arial" fill="#000000"><tspan id="tspan3657" y="524.95886" x="110.77327">C</tspan></text>
  <text id="text3436" font-size="13.604px" xml:space="preserve" transform="scale(1.0045 .99551)" line-height="125%" y="524.95886" x="133.60745" font-family="Arial" fill="#000000"><tspan id="tspan3655" y="524.95886" x="133.60745">V</tspan></text>
  <text id="text3438" font-size="13.604px" xml:space="preserve" transform="scale(1.0045 .99551)" line-height="125%" y="524.95886" x="155.86467" font-family="Arial" fill="#000000"><tspan id="tspan3653" y="524.95886" x="155.86467">N</tspan></text>
  <text id="text3440" font-size="13.604px" xml:space="preserve" transform="scale(1.0045 .99551)" y="524.95886" x="228.93689" font-family="Arial" fill="#000000">I</text>
  <text id="text3442" font-size="13.604px" xml:space="preserve" transform="scale(1.0045 .99551)" y="524.95886" x="247.8791" font-family="Arial" fill="#000000">U</text>
  <path id="path3444" stroke-linejoin="round" d="m171.5 505.6c0-0.33499 0.28814-0.58183 0.67918-0.58183h48.159c0.39103 0 0.69975 0.24684 0.69975 0.58183v24.455c0 0.31737-0.30872 0.58184-0.69975 0.58184h-48.159c-0.39104 0-0.67918-0.26447-0.67918-0.58184zm1.3583 24.455-0.67918-0.58185h48.159l-0.67917 0.58185v-24.455l0.67917 0.58187h-48.159l0.67918-0.58187z" stroke="#000" stroke-width=".019049px"/>
  <text id="text3446" font-size="10.901px" xml:space="preserve" transform="scale(1.0045 .99551)" line-height="125%" y="544.7641" x="110.32564" font-family="Arial" fill="#000000">31</text>
  <text id="text3448" font-size="10.901px" xml:space="preserve" transform="scale(1.0045 .99551)" line-height="125%" y="544.7641" x="131.63506" font-family="Arial" fill="#000000">30</text>
  <text id="text3450" font-size="10.901px" xml:space="preserve" transform="scale(1.0045 .99551)" line-height="125%" y="544.7641" x="154.10161" font-family="Arial" fill="#000000">29</text>
  <text id="text3452" font-size="10.901px" xml:space="preserve" transform="scale(1.0045 .99551)" line-height="125%" y="544.7641" x="227.13293" font-family="Arial" fill="#000000">1</text>
  <text id="text3454" font-size="12.263px" xml:space="preserve" transform="scale(1.0045 .99551)" line-height="125%" y="480.71982" x="263.92871" font-family="Arial" fill="#000000">MRdy</text>
  <text id="text3456" font-size="12.263px" xml:space="preserve" transform="scale(1.0045 .99551)" line-height="125%" y="501.95923" x="288.33694" font-family="Arial" fill="#000000">IORdy</text>
  <text id="text3458" font-size="12.263px" xml:space="preserve" transform="scale(1.0045 .99551)" line-height="125%" y="481.19711" x="318.62845" font-family="Arial" fill="#000000">INT</text>
  <text id="text3460" font-size="10.901px" xml:space="preserve" transform="scale(1.0045 .99551)" line-height="125%" y="439.55435" x="158.4626" font-family="Arial" fill="#000000">7</text>
  <text id="text3462" font-size="10.901px" xml:space="preserve" transform="scale(1.0045 .99551)" line-height="125%" y="439.55435" x="179.86427" font-family="Arial" fill="#000000">6</text>
  <text id="text3464" font-size="10.901px" xml:space="preserve" transform="scale(1.0045 .99551)" line-height="125%" y="439.77139" x="227.52351" font-family="Arial" fill="#000000">5</text>
  <text id="text3466" font-size="10.901px" xml:space="preserve" transform="scale(1.0045 .99551)" line-height="125%" y="439.55435" x="249.41661" font-family="Arial" fill="#000000">4</text>
  <text id="text3468" font-size="10.901px" xml:space="preserve" transform="scale(1.0045 .99551)" line-height="125%" y="439.55435" x="278.60336" font-family="Arial" fill="#000000">3</text>
  <text id="text3470" font-size="10.901px" xml:space="preserve" transform="scale(1.0045 .99551)" line-height="125%" y="439.55435" x="302.37735" font-family="Arial" fill="#000000">2</text>
  <text id="text3472" font-size="10.901px" xml:space="preserve" transform="scale(1.0045 .99551)" line-height="125%" y="439.55435" x="324.746" font-family="Arial" fill="#000000">1</text>
  <text id="text3474" font-size="10.901px" xml:space="preserve" transform="scale(1.0045 .99551)" line-height="125%" y="439.55435" x="347.88412" font-family="Arial" fill="#000000">0</text>
  <text id="text3476" font-size="10.901px" xml:space="preserve" transform="scale(1.0045 .99551)" line-height="125%" y="439.55435" x="135.27303" font-family="Arial" fill="#000000">8</text>
  <path id="path3478" stroke-linejoin="round" d="m93.685 356.04 0.0396 2.1254 0.11891 1.9775 0.0793 0.92407 0.0793 0.86862 0.11891 0.83169 0.11892 0.75774 0.13882 0.68381 0.13882 0.62837 0.15872 0.53598 0.17845 0.4805 0.19829 0.38814c0 0.0186 0.0197 0.037 0.0197 0.0555l0.17846 0.25873c0.0396 0.037 0.0596 0.074 0.0992 0.0925l0.17848 0.16632c0.0596 0.037 0.11891 0.0739 0.17846 0.0925l0.19828 0.0555c0.0396 0.0186 0.0992 0.0186 0.13882 0.0186h53.974l-0.15854-0.0186 0.19828 0.0555-0.17847-0.0925 0.17847 0.14786-0.0793-0.0925 0.17845 0.25872 0.13882 0.29572 0.13881 0.3881 0.15856 0.51749 0.13881 0.57293 0.11892 0.66534 0.11892 0.72078 0.11891 0.79471 0.0793 0.85015 0.0793 0.9056 0.11891 1.959 0.0199 2.0884c0.0197 0.25874 0.23795 0.46205 0.49572 0.46205 0.27759 0 0.49571-0.20331 0.49571-0.46205l0.0397-2.1068 0.11892-1.9406 0.0793-0.9056 0.0793-0.86864 0.11892-0.77622 0.1189-0.73926 0.13882-0.66532 0.11892-0.59142 0.15871-0.499 0.15856-0.40659 0.15855-0.31421-0.0397 0.0555 0.17844-0.25874-0.0792 0.0925 0.17845-0.14786-0.17845 0.0925 0.17845-0.0555-0.13882 0.0184h53.974c0.0595 0 0.0992 0 0.13882-0.0184l0.19829-0.0555c0.0594-0.0185 0.11891-0.0555 0.17845-0.0925l0.1983-0.16631c0.02-0.0186 0.0594-0.0555 0.0793-0.0925l0.17844-0.25873c0.0197-0.0186 0.0197-0.037 0.0397-0.0555l0.15871-0.35118 0.19828-0.48051 0.15855-0.55443 0.13882-0.62838 0.13881-0.7023 0.13884-0.73926 0.0992-0.83168 0.0992-0.86862 0.0793-0.92411 0.0992-1.9775 0.0397-2.1438h-0.99144l-0.0397 2.0884-0.0992 1.959-0.0792 0.90561-0.0793 0.85014-0.11889 0.79471-0.11892 0.73928-0.11892 0.64687-0.13881 0.59139-0.15856 0.48052-0.13881 0.40658-0.17847 0.35116 0.0397-0.0555-0.17847 0.25874 0.0793-0.0924-0.17848 0.14786 0.17848-0.0925-0.1983 0.0555 0.15854-0.0186h-53.974c-0.0594 0-0.0992 0-0.15855 0.0186l-0.17845 0.0555c-0.0595 0.0186-0.13883 0.0555-0.17848 0.0925l-0.19829 0.16633c-0.0197 0.0186-0.0594 0.0555-0.0792 0.0925l-0.17845 0.25874c-0.0199 0.0185-0.0199 0.037-0.0397 0.0555l-0.17846 0.38812-0.17845 0.48052-0.15856 0.55445-0.15854 0.60989-0.11892 0.68382-0.13882 0.75774-0.0992 0.83168-0.0992 0.86864-0.0793 0.92408-0.11891 1.996-0.0397 2.1068h0.99145l-0.0397-2.1254-0.0992-1.996-0.0793-0.90559-0.0992-0.88714-0.0992-0.8132-0.11892-0.77623-0.15873-0.6838-0.13881-0.62837-0.15856-0.53598-0.17843-0.499-0.21816-0.40658-0.17843-0.25875c-0.0197-0.037-0.0594-0.074-0.0793-0.0925l-0.19828-0.16632c-0.0596-0.037-0.11891-0.0739-0.17848-0.0925l-0.19829-0.0555c-0.0397-0.0185-0.0793-0.0185-0.13882-0.0185h-53.974l0.15855 0.0185-0.19829-0.0555 0.19829 0.0925-0.19829-0.14786 0.0793 0.0925-0.17844-0.25875 0.0396 0.0555-0.13881-0.31417-0.15856-0.40661-0.15872-0.49899-0.13882-0.59142-0.11892-0.66533-0.13882-0.72077-0.0992-0.79472-0.0992-0.86863-0.0793-0.88712-0.0992-1.959-0.0396-2.1068z" stroke="#000" stroke-width=".019144px"/>
  <path id="path3480" stroke-linejoin="round" d="m232.55 505.67v-57.604h-1.3583v57.604h1.3583zm3.4371-56.454-4.1162-6.8617-4.1162 6.8617h8.2323z" stroke="#000" stroke-width=".018790px"/>
  <path id="path3482" stroke-linejoin="round" d="m254.43 505.67v-57.604h-1.3789v57.604h1.3789zm3.4166-56.454-4.1162-6.8617-4.1162 6.8617h8.2324z" stroke="#000" stroke-width=".018790px"/>
  <path id="path3484" stroke-linejoin="round" d="m139.79 505.89v-57.582h-1.379v57.582h1.379zm3.4166-56.451-4.1162-6.8612-4.1162 6.8612h8.2325z" stroke="#000" stroke-width=".018790px"/>
  <path id="path3486" stroke-linejoin="round" d="m162.5 505.89v-57.582h-1.379v57.582h1.379zm3.4166-56.451-4.1162-6.8612-4.1162 6.8612h8.2325z" stroke="#000" stroke-width=".018790px"/>
  <path id="path3488" stroke-linejoin="round" d="m184.64 505.96v-57.604h-1.3583v57.604h1.3583zm3.4371-56.454-4.1162-6.8617-4.1162 6.8617h8.2323z" stroke="#000" stroke-width=".018790px"/>
  <path id="path3490" stroke-linejoin="round" d="m660.03 420.76v30.159h-1.3582v-30.159h1.3582zm3.4573 28.712-4.1159 8.7669-4.1159-8.7669h8.2318z" stroke="#000" stroke-width=".042476px"/>
  <path id="path3492" stroke-linejoin="round" d="m558.44 419.16v30.768h-1.3787v-30.768h1.3787zm3.416 29.293-4.1157 8.9444-4.1157-8.9444h8.2313z" stroke="#000" stroke-width=".021452px"/>
  <path id="path3494" stroke-linejoin="round" d="m449.44 419.85v30.853h-1.3788v-30.853h1.3788zm3.4368 29.374-4.1159 8.9685-4.1159-8.9685h8.2318z" stroke="#000" stroke-width=".021481px"/>
  <path id="path3496" stroke-linejoin="round" d="m410.92 421.82h-36.039v1.3469h36.039v-1.3469zm-35.16-3.408-5.2496 4.0814 5.2496 4.0815v-8.1628z" stroke="#000" stroke-width=".016366px"/>
  <path id="path3498" stroke-linejoin="round" d="m410.38 342.79h68.625v1.0175h-68.625z" stroke="#000" stroke-width=".022853px"/>
  <path id="path3500" stroke-linejoin="round" d="m150.76 212.49h407.38v1.2358h-407.38z" stroke="#000" stroke-width=".021973px"/>
  <path id="path3502" stroke-linejoin="round" d="m568.81 359.51h44.44v1.0208h-44.44z" stroke="#000" stroke-width=".040688px"/>
  <path id="path3504" stroke-linejoin="round" d="m113.94 130.41h106.87v1.3566h-106.87v-1.3566zm105.82-3.3966 6.2708 4.08-6.2708 4.08v-8.1601z" stroke="#000" stroke-width=".0089417px"/>
  <path id="path3118-3" stroke-linejoin="round" d="m394.58 173.59v-14.216h-1.3789v14.216h1.3789zm3.4164-12.849-4.1162-8.1587-4.1162 8.1587h8.2324z" stroke="#000" stroke-width=".020489px"/>
  <path id="path3042-5" stroke-linejoin="round" d="m364.03 189.11h11.648v1.0198h-11.648z" stroke="#000" stroke-width=".040978px"/>
  <path id="path3044-3" stroke-linejoin="round" d="m388.56 189.11h11.648v1.0198h-11.648z" stroke="#000" stroke-width=".040978px"/>
  <path id="path3046-8" stroke-linejoin="round" d="m411.85 189.11h11.648v1.0198h-11.648z" stroke="#000" stroke-width=".040978px"/>
  <path id="path3048-7" stroke-linejoin="round" d="m375.97 177.11h12.555v1.0198h-12.555z" stroke="#000" stroke-width=".040978px"/>
  <path id="path3050-6" stroke-linejoin="round" d="m376.49 189.96v-12.687h-1.0291v12.687z" stroke="#000" stroke-width=".040978px"/>
  <path id="path3052-7" stroke-linejoin="round" d="m388.72 189.96v-13.013h-1.0291v13.013z" stroke="#000" stroke-width=".040978px"/>
  <path id="path3054-4" stroke-linejoin="round" d="m400.36 189.96v-13.013h-1.0291v13.013z" stroke="#000" stroke-width=".040978px"/>
  <path id="path3056-8" stroke-linejoin="round" d="m412.92 189.64v-12.687h-1.029v12.687z" stroke="#000" stroke-width=".040978px"/>
  <path id="path3058-1" stroke-linejoin="round" d="m399.59 177.11h12.843v1.0198h-12.843z" stroke="#000" stroke-width=".040978px"/>
  <path id="path3022-6" stroke-linejoin="round" d="m93.685 291.79c0 0.18621 0.45285 0.33719 1.0114 0.33719h119.89c0.55851 0 1.0114-0.15098 1.0114-0.33719v-55.215c0-0.18622-0.45284-0.33724-1.0114-0.33724h-119.89c-0.55852 0-1.0114 0.15102-1.0114 0.33724zm2.0226-55.215-1.0114 0.33724h119.89l-1.0114-0.33724v55.215l1.0114-0.33725h-119.89l1.0114 0.33725z" stroke="#000" stroke-width=".0087166px"/>
  <path id="path3100-8" stroke-linejoin="round" d="m114.08 130.21-0.12863 106.68h1.0756l0.12861-106.68z" stroke="#000" stroke-width=".012324px"/>
  <path id="path3100-9" stroke-linejoin="round" d="m427.88 22.304-0.12344 79.639h1.0287l0.12344-79.639z" stroke="#000" stroke-width=".010415px"/>
  <path id="path3100-8-5" stroke-linejoin="round" d="m896.99 267.71-0.12924 28.95h1.0808l0.12924-28.95z" stroke="#000" stroke-width=".0064362px"/>
  <text id="text3172-1" font-size="14.988px" xml:space="preserve" transform="scale(1.0045 .99551)" line-height="125%" y="303.01648" x="651.07452" font-family="Arial" fill="#000000"><tspan id="tspan4412" y="303.01648" x="651.07452">MR</tspan></text>
  <path id="path3180-5" stroke-linejoin="round" d="m647.86 281.31c0-0.36725 0.17881-0.6937 0.43426-0.6937h34.791c0.22991 0 0.4087 0.32645 0.4087 0.6937v28.441c0 0.36725-0.17879 0.6937-0.4087 0.6937h-34.791c-0.25545 0-0.43426-0.32645-0.43426-0.6937zm0.84295 28.441-0.40869-0.69371h34.791l-0.43422 0.69371v-28.441l0.43422 0.6937h-34.791l0.40869-0.6937z" stroke="#000" stroke-width=".032285px"/>
  <text id="text3172-1-5" font-size="14.988px" xml:space="preserve" transform="scale(1.0045 .99551)" line-height="125%" y="303.01648" x="685.88245" font-family="Arial" fill="#000000"><tspan id="tspan4435" y="303.01648" x="685.88245">MC</tspan></text>
  <path id="path3180-5-7" stroke-linejoin="round" d="m682.83 281.27c0-0.36725 0.17881-0.69371 0.43425-0.69371h34.791c0.22991 0 0.4087 0.32646 0.4087 0.69371v28.441c0 0.36726-0.17879 0.6937-0.4087 0.6937h-34.791c-0.25544 0-0.43425-0.32644-0.43425-0.6937zm0.84294 28.441-0.40869-0.6937h34.791l-0.43422 0.6937v-28.441l0.43422 0.69369h-34.791l0.40869-0.69369z" stroke="#000" stroke-width=".032285px"/>
  <text id="text4138" font-size="13.225px" xml:space="preserve" transform="scale(1.0688 .93563)" line-height="125%" y="192.35793" x="391.34412" font-family="Arial" fill="#000000"><tspan id="tspan4140" y="192.35793" x="391.34412">CLK</tspan></text>
  <path id="path3110-0" stroke-linejoin="round" d="m124.16 316.04-15.366 6.6213 0.43106 0.95283 15.346-6.6308z" stroke="#000" stroke-width=".020489px"/>
  <text id="text3112-0" font-size="10.983px" xml:space="preserve" transform="scale(1.0045 .99551)" y="319.74402" x="106.78699" font-family="Arial" line-height="125%" fill="#000000"><tspan id="tspan6982">6</tspan></text>
  <path id="path3124-2" stroke-linejoin="round" d="m197.66 331.1v-30.87h1.3329v30.87h-1.3329zm-3.3124-29.296 3.979-9.4655 3.979 9.4655h-7.958z" stroke="#000" stroke-width=".010848px"/>
  <path id="path3124-2-4" stroke-linejoin="round" d="m116.43 331.1v-30.87h1.3329v30.87h-1.3329zm-3.3124-29.296 3.979-9.4655 3.979 9.4655h-7.958z" stroke="#000" stroke-width=".010848px"/>
  <text id="text3112-0-4" font-size="10.983px" xml:space="preserve" transform="scale(1.0045 .99551)" y="319.36844" x="188.26665" font-family="Arial" fill="#000000">4</text>
  <path id="path3110-0-7" stroke-linejoin="round" d="m205.76 315.89-15.366 6.6213 0.43105 0.95283 15.346-6.6308z" stroke="#000" stroke-width=".020489px"/>
  <path id="path3310-3" stroke-linejoin="round" d="m820.07 281.18c0-0.36702 0.46085-0.69324 1.0534-0.69324h62.216c0.59255 0 1.1193 0.32622 1.1193 0.69324v28.423c0 0.36701-0.52667 0.69323-1.1193 0.69323h-62.216c-0.59253 0-1.0534-0.32622-1.0534-0.69323zm1.5963 28.471-0.54296-0.74139h62.216l0.0335 0.45564-0.24156-27.948 0.20798 0.45565h-62.216l0.59535-0.59686z" stroke="#000" stroke-width=".051816px"/>
  <text id="text3312-6" font-size="14.988px" xml:space="preserve" transform="scale(1.0045 .99551)" line-height="125%" y="303.01654" x="821.23956" font-family="Arial" fill="#000000"><tspan id="tspan3945" y="303.01654" x="821.23956">ExCode</tspan></text>
  <path id="path3324-5" stroke-linejoin="round" d="m865.36 410.97-11.073 8.118 0.6175 0.81589 11.073-8.0772z" stroke="#000" stroke-width=".040978px"/>
  <text id="text3330-3" font-size="10.983px" xml:space="preserve" transform="scale(1.0045 .99551)" y="417.26788" x="845.19763" font-family="Arial" fill="#000000">4</text>
  <path id="path3131-3" stroke-linejoin="round" d="m866.69 508.54c0.23158 0 0.42753 0.12856 0.53441 0.3306 0.0891 0.20202 0.0713 0.44077-0.0534 0.62443l-7.8736 11.332c-0.1069 0.16528-0.30283 0.25711-0.48097 0.25711-0.19594 0-0.37409-0.0919-0.48098-0.25711l-7.8914-11.332c-0.1247-0.18366-0.14251-0.42241-0.0357-0.62443 0.0891-0.20204 0.30284-0.3306 0.51659-0.3306zm-15.765 1.2121 0.48098-0.97337 7.8914 11.332h-0.962l7.8736-11.332 0.48095 0.97337z" stroke="#000" stroke-width=".018088px"/>
  <path id="path3133-6" stroke-linejoin="round" d="m874.1 515.26h-11.417v-0.9183h11.417z" stroke="#000" stroke-width=".98041px"/>
  <path id="path3139-7" stroke-linejoin="round" d="m857.9 489.68v14.092h1.1937v-14.092h-1.1937zm-2.9577 13.052 3.5635 6.201 3.5635-6.201h-7.1269z" stroke="#000" stroke-width=".016619px"/>
  <text id="text3147-5" font-size="12.029px" xml:space="preserve" transform="scale(.98486 1.0154)" y="510.29526" x="890.72717" font-family="Arial" line-height="125%" fill="#000000"><tspan id="tspan4426" y="510.29526" x="890.72717">T11</tspan></text>
  <path id="path3081-3" stroke-linejoin="round" d="m859.07 491.32v-181.07h-1.0597v181.07z" stroke="#000" stroke-width=".039119px"/>
  <path id="path3428-3" stroke-linejoin="round" d="m171.59 505.67c0-0.33501 0.30872-0.58184 0.67916-0.58184h22.393c0.37047 0 0.67918 0.24683 0.67918 0.58184v24.455c0 0.31737-0.30871 0.58184-0.67918 0.58184h-22.393c-0.37044 0-0.67916-0.26447-0.67916-0.58184zm1.3583 24.455-0.67918-0.58185h22.393l-0.67917 0.58185v-24.455l0.67917 0.58185h-22.393l0.67918-0.58185z" stroke="#000" stroke-width=".019049px"/>
  <text id="text3438-6" font-size="13.604px" xml:space="preserve" transform="scale(1.0045 .99551)" y="525.0498" x="178.90427" font-family="Arial" fill="#000000">Z</text>
  <text id="text3450-7" font-size="10.901px" xml:space="preserve" transform="scale(1.0045 .99551)" line-height="125%" y="544.85504" x="176.48874" font-family="Arial" fill="#000000"><tspan id="tspan3651" y="544.85504" x="176.48874">28</tspan></text>
  <text id="text3476-8" font-size="10.901px" xml:space="preserve" transform="scale(1.0045 .99551)" line-height="125%" y="439.29956" x="113.17201" font-family="Arial" fill="#000000"><tspan id="tspan3677" y="439.29956" x="113.17201">9</tspan></text>
  <path id="path3484-9" stroke-linejoin="round" d="m117.38 505.43v-57.582h-1.379v57.582h1.379zm3.4166-56.451-4.1162-6.8612-4.1162 6.8612h8.2325z" stroke="#000" stroke-width=".018790px"/>
  <text id="text3476-8-6" font-size="10.901px" xml:space="preserve" transform="scale(1.0045 .99551)" line-height="125%" y="439.51663" x="86.065338" font-family="Arial" fill="#000000"><tspan id="tspan3700" y="439.51663" x="86.065338">10</tspan></text>
  <path id="path3108-3" stroke-linejoin="round" d="m93.675 465.12v-16.624h-1.379v16.624h1.379zm3.4371-15.465-4.1162-6.9194-4.1162 6.9194h8.2325z" stroke="#000" stroke-width=".018867px"/>
  <path id="path3260-3" stroke-linejoin="round" d="m58.753 466.12 0.62405-201.57-0.76096-0.0344-0.624 201.62z" stroke="#000" stroke-width=".22904px"/>
  <path id="path3260-3-8" stroke-linejoin="round" d="m58.191 264.53 35.482-0.16716-0.01031-1.2425-35.49 0.16753z" stroke="#000" stroke-width=".012279px"/>
  <path id="path3260-3-8-6" stroke-linejoin="round" d="m58.363 466.07 35.296-0.16719-0.01031-1.2427-35.305 0.16756z" stroke="#000" stroke-width=".012248px"/>
  <text id="text3038-0" font-size="16.391px" xml:space="preserve" transform="scale(1.0045 .99551)" line-height="125%" y="256.63266" x="54.507103" font-family="Arial" fill="#000000"><tspan id="tspan3777" y="256.63266" x="54.507103">InEx</tspan></text>
  <path id="path3232-6" stroke-linejoin="round" d="m796.28 341.01v-30.94h-1.0373v30.94z" stroke="#000" stroke-width=".032666px"/>
  <path id="path3502-6" stroke-linejoin="round" d="m795.17 340.82h29.701v1.0282h-29.701z" stroke="#000" stroke-width=".033384px"/>
  <path id="path3100-8-7" stroke-linejoin="round" d="m280.95 355.88-0.1291 42.473h1.0796l0.12908-42.473z" stroke="#000" stroke-width=".0077910px"/>
  <path id="path3108-1" stroke-linejoin="round" d="m282.44 356.41-0.23169-42.742-1.1457-0.5424v43.285zm2.8538-42.544-3.5322-8.4366-3.3005 8.3011z" stroke="#000" stroke-width=".028457px"/>
  <path id="path3198-7" fill-rule="evenodd" d="m279.69 356.33c0-1.1422 0.88498-2.0601 1.9552-2.0601 1.0908 0 1.9552 0.91787 1.9552 2.0601 0 1.1218-0.8644 2.0398-1.9552 2.0398-1.0702 0-1.9552-0.91787-1.9552-2.0398"/>
  <path id="path3200-1" stroke-linejoin="round" d="m278.33 356.45v-0.26514l0.0412-0.40795c0.0206-0.0816 0.0206-0.16318 0.0617-0.26515l0.10292-0.36715c0.0206-0.0816 0.0618-0.14279 0.0824-0.22436l0.18522-0.34676c0.0412-0.0816 0.0824-0.16316 0.14406-0.24476l0.24696-0.30594 0.16467-0.16318 0.28812-0.24477c0.0824-0.0611 0.16465-0.12238 0.24697-0.18357l0.3293-0.18357c0.0617-0.0408 0.14406-0.0611 0.22638-0.10201l0.37046-0.12239c0.10291-0.0204 0.2058-0.0408 0.28812-0.0611l0.39105-0.0408h0.28813l0.39104 0.0408c0.10291 0.0204 0.2058 0.0408 0.30872 0.0611l0.37043 0.12239c0.0824 0.0408 0.14407 0.0611 0.22639 0.10201l0.3293 0.18357c0.0824 0.0612 0.16465 0.12238 0.24697 0.18357l0.28814 0.24477c0.0618 0.0612 0.10291 0.10201 0.16464 0.16318l0.24697 0.30594c0.0411 0.0816 0.10291 0.16319 0.14408 0.24476l0.18522 0.34676c0.0205 0.0816 0.0617 0.14277 0.0824 0.22436l0.10291 0.36715c0.0411 0.10201 0.0411 0.18356 0.0618 0.26515l0.0411 0.40795v0.26514l-0.0411 0.42834c-0.0206 0.0816-0.0206 0.16317-0.0618 0.24477l-0.10291 0.38753c-0.0206 0.0816-0.0618 0.14279-0.0824 0.22437l-0.18522 0.34675c-0.0411 0.0816-0.10291 0.16316-0.14408 0.24475l-0.24697 0.30596c-0.0617 0.0611-0.10292 0.10201-0.16464 0.16318l-0.28814 0.24475c-0.0824 0.0611-0.16464 0.1224-0.24697 0.18358l-0.3293 0.18357c-0.0824 0.0408-0.14406 0.0611-0.22639 0.10201l-0.37043 0.12239c-0.10292 0.0204-0.20582 0.0408-0.30872 0.0611l-0.39104 0.0408h-0.28813l-0.39105-0.0408c-0.0824-0.0204-0.18522-0.0408-0.28812-0.0611l-0.37046-0.12239c-0.0824-0.0408-0.16463-0.0611-0.22638-0.10201l-0.3293-0.18357c-0.0823-0.0611-0.16464-0.12237-0.24697-0.18358l-0.28812-0.24475-0.16467-0.16318-0.24696-0.30596c-0.0617-0.0816-0.10291-0.16316-0.14406-0.24475l-0.18522-0.34675c-0.0206-0.0816-0.0617-0.14279-0.0824-0.22437l-0.10292-0.38753c-0.0411-0.0816-0.0411-0.16317-0.0617-0.24477zm2.7784 0.16319-0.0618-0.26517 0.12348 0.38754-0.0824-0.22436 0.16464 0.34674-0.14407-0.24475 0.24696 0.30595-0.16464-0.16318 0.28814 0.26517-0.24696-0.18358 0.32928 0.18358-0.22638-0.10201 0.37045 0.12237-0.30872-0.0611 0.39105 0.0408h-0.28814l0.39104-0.0408-0.28813 0.0611 0.37045-0.12237-0.2264 0.10201 0.32931-0.18358-0.24697 0.18358 0.28812-0.26517-0.16465 0.16318 0.24697-0.30595-0.14407 0.24475 0.16466-0.34674-0.0824 0.22436 0.12349-0.38754-0.0618 0.26517 0.0412-0.42833v0.26514l-0.0412-0.40794 0.0618 0.24478-0.12349-0.36715 0.0824 0.22435-0.16466-0.34673 0.14407 0.24475-0.24697-0.30594 0.16465 0.16317-0.28812-0.26515 0.24697 0.18357-0.32931-0.18357 0.2264 0.10201-0.37045-0.12239 0.28813 0.0611-0.39104-0.0408h0.28814l-0.39105 0.0408 0.30872-0.0611-0.37045 0.12239 0.22638-0.10201-0.32928 0.18357 0.24696-0.18357-0.28814 0.26515 0.16464-0.16317-0.24696 0.30594 0.14407-0.24475-0.16464 0.34673 0.0824-0.22435-0.12348 0.36715 0.0618-0.24478-0.0411 0.40794v-0.26514z" stroke="#000" stroke-width=".020489px"/>
 </g>
</svg>
