<?xml version="1.0" encoding="UTF-8" standalone="no"?>
<svg id="svg2996" xmlns:rdf="http://www.w3.org/1999/02/22-rdf-syntax-ns#" xmlns="http://www.w3.org/2000/svg" height="100%" viewBox="47 15 845 545" width="100%" version="1.0" preserveAspectRatio="xMinYMin meet" xmlns:cc="http://creativecommons.org/ns#" xmlns:dc="http://purl.org/dc/elements/1.1/">
 <metadata id="metadata3508">
  <rdf:RDF>
   <cc:Work rdf:about="">
    <dc:format>image/svg+xml</dc:format>
    <dc:type rdf:resource="http://purl.org/dc/dcmitype/StillImage"/>
    <dc:title/>
   </cc:Work>
  </rdf:RDF>
 </metadata>
 <text id="text3611" style="word-spacing:0px;letter-spacing:0px" transform="scale(.99998 1)" xml:space="preserve" font-size="13.289px" y="350.36798" x="139.88812" font-family="sans-serif" line-height="125%" fill="#000000"><tspan id="tspan3615" y="342.36798" x="121.88812"/></text>
 <g id="g5555" transform="matrix(1.0047 0 0 1 1.7547 .000059129)">
  <path id="path3008" stroke-linejoin="round" d="m460.19 36.472c0-0.62466 0.52871-1.1155 1.2016-1.1155h417.56c0.62483 0 1.2015 0.4908 1.2015 1.1155v110.79c0 0.62464-0.57677 1.1154-1.2015 1.1154h-417.56c-0.67291 0-1.2016-0.49078-1.2016-1.1154zm2.4033 110.79-1.2015-1.1154h417.56l-1.2016 1.1154v-110.79l1.2016 1.1154h-417.56l1.2015-1.1154z" stroke="#000" stroke-width=".046310px"/>
  <text id="text3010" font-size="26.629px" line-height="125%" xml:space="preserve" style="text-decoration-line:underline;text-decoration:underline" transform="scale(1.0558 .94718)" y="107.98157" x="543.37982" font-family="Arial" fill="#000000">Control Memory</text>
  <text id="text3012" font-size="18.579px" xml:space="preserve" transform="scale(1.0558 .94718)" y="447.80231" x="186.7784" font-family="Arial" fill="#000000">MUX C</text>
  <path id="path3014" stroke-linejoin="round" d="m697.08 145.88v121.28h-1.6665v-121.28h1.6665zm4.0685 119.99-4.9018 7.7843-4.9018-7.7843h9.8034z" stroke="#000" stroke-width=".043678px"/>
  <path id="path3016" stroke-linejoin="round" d="m710.19 206.74-25.793 16.497 0.73556 0.87987 25.745-16.454z" stroke="#000" stroke-width=".046448px"/>
  <text id="text3018" font-size="13.936px" xml:space="preserve" transform="scale(1.0558 .94718)" y="227.41145" x="636.83209" font-family="Arial" line-height="125%" fill="#000000"><tspan id="tspan3920" y="227.41145" x="636.83209">80</tspan></text>
  <path id="path3024" stroke-linejoin="round" d="m206.97 172.56c0 0.28798 0.3231 0.52798 0.73232 0.52798h122.32c0.4092 0 0.73228-0.24 0.73228-0.52798v-131.85c0-0.304-0.32308-0.544-0.73228-0.544h-122.32c-0.40922 0-0.73232 0.24-0.73232 0.544zm1.4431-131.85-0.71081 0.52803h122.32l-0.7108-0.52803v131.85l0.7108-0.52802h-122.32l0.71081 0.52802z" stroke="#000" stroke-width=".018564px"/>
  <path id="path3026" stroke-linejoin="round" d="m372.15 41.294c0-0.35243 0.36777-0.64612 0.80913-0.64612h31.385c0.44134 0 0.80914 0.29369 0.80914 0.64612v95.271c0 0.35241-0.3678 0.6461-0.80914 0.6461h-31.385c-0.44136 0-0.80913-0.29369-0.80913-0.6461zm1.6182 95.271-0.80914-0.64613h31.385l-0.83372 0.64613v-95.271l0.83372 0.66568h-31.385l0.80914-0.66568z" stroke="#000" stroke-width=".021911px"/>
  <path id="path3028" stroke-linejoin="round" d="m70.222 447.74c0 0.39547 0.33192 0.70772 0.73022 0.70772h315.33c0.3983 0 0.73025-0.31225 0.73025-0.70772v-44.275c0-0.37468-0.33195-0.68689-0.73025-0.68689h-315.33c-0.3983 0-0.73022 0.31221-0.73022 0.68689zm1.4604-44.275-0.73023 0.68695h315.33l-0.73021-0.68695v44.275l0.73021-0.68693h-315.33l0.73023 0.68693z" stroke="#000" stroke-width=".021463px"/>
  <text id="text3038" font-size="18.579px" xml:space="preserve" transform="scale(1.0558 .94718)" y="568.13226" x="57.357574" font-family="Arial" fill="#000000">SR</text>
  <path id="path3040" stroke-linejoin="round" d="m63.265 79.441c0 0.28027 0.36782 0.51383 0.80917 0.51383h57.524c0.46591 0 0.83372-0.23356 0.83372-0.51383v-25.521c0-0.28027-0.36781-0.51383-0.83372-0.51383h-57.524c-0.44136 0-0.80916 0.23356-0.80916 0.51383zm1.6429-25.521-0.83368 0.52939h57.524l-0.80918-0.52939v25.521l0.80918-0.51382h-57.524l0.83368 0.51382z" stroke="#000" stroke-width=".019538px"/>
  <g id="g4866" stroke-linejoin="round" stroke="#000" stroke-width=".043902px" transform="matrix(.69357 0 0 .94215 -203.77 66.064)">
   <path id="path3042" d="m828.4 256.34h12.482v1.0922h-12.482z"/>
   <path id="path3044" d="m854.34 256.34h12.482v1.0922h-12.482z"/>
   <path id="path3048" d="m840.5 243.5h13.454v1.0922h-13.454z"/>
   <path id="path3050" d="m841.07 257.26v-13.588h-1.1028v13.588z"/>
   <path id="path3052" d="m854.17 257.26v-13.938h-1.1027v13.938z"/>
   <path id="path3054" d="m866.65 257.26v-13.938h-1.1028v13.938z"/>
   <path id="path3058" d="m865.81 243.5h13.763v1.0922h-13.763z"/>
  </g>
  <path id="path3060" stroke-linejoin="round" d="m318.27 495.44-0.13804-41.265-1.3652-0.38434-0.13801 41.649zm4.0665-40.071-4.8993-7.7304-4.6232 7.7304z" stroke="#000" stroke-width=".030080px"/>
  <path id="path3062" stroke-linejoin="round" d="m343.7 472.03v-17.996h-1.6428v17.996h1.6428zm4.0948-16.74-4.9038-7.4983-4.9038 7.4983h9.8077z" stroke="#000" stroke-width=".021438px"/>
  <text id="text3064" font-size="14.045px" xml:space="preserve" transform="scale(1.0558 .94718)" y="538.09766" x="344.00223" font-family="Arial" line-height="125%" fill="#000000"><tspan id="tspan14891" x="344.00223" y="538.09766">0</tspan></text>
  <text id="text3066" font-size="14.177px" xml:space="preserve" transform="scale(1.0558 .94718)" y="175.20613" x="273.57269" font-family="Arial" line-height="125%" fill="#000000">A0</text>
  <text id="text3068" font-size="20.079px" xml:space="preserve" transform="scale(1.0558 .94718)" y="120.38193" x="232.51175" font-family="Arial" line-height="125%" fill="#000000">MUX A</text>
  <text id="text3072" font-size="16.598px" xml:space="preserve" transform="scale(1.0558 .94718)" y="205.44298" x="670.18115" font-family="Arial" line-height="125%" fill="#000000"><tspan id="tspan14893" x="670.18115" y="205.44298">µInstruction</tspan></text>
  <text id="text3076" font-size="18.579px" xml:space="preserve" transform="scale(1.0558 .94718)" y="205.95639" x="451.88766" font-family="Arial" fill="#000000">MADDR</text>
  <text id="text3080" font-size="18.579px" xml:space="preserve" transform="matrix(0 -.94718 1.0558 0 0 0)" y="374.33484" x="-122.91376" font-family="Arial" fill="#000000">µAddr</text>
  <path id="path3082" stroke-linejoin="round" d="m407.62 89.29h47.971v1.4742h-47.971v-1.4742zm46.962-3.6524 6.0153 4.4006-6.0153 4.4006v-8.8013z" stroke="#000" stroke-width=".018191px"/>
  <text id="text3084" font-size="18.579px" xml:space="preserve" transform="scale(1.0558 .94718)" y="77.869873" x="77.789101" font-family="Arial" fill="#000000">+1</text>
  <path id="path3086" fill-rule="evenodd" d="m427.83 90.034c0-1.2318 1.0543-2.2217 2.3293-2.2217s2.3293 0.98985 2.3293 2.2217c0 1.2098-1.0543 2.1998-2.3293 2.1998s-2.3293-0.98988-2.3293-2.1998"/>
  <path id="path3088" stroke-linejoin="round" d="m426.72 90.164v-0.28596l0.0493-0.43994c0.0243-0.08799 0.0243-0.17596 0.0734-0.28596l0.1226-0.39596c0.0244-0.08799 0.0734-0.15396 0.0981-0.24195l0.22067-0.37395c0.0492-0.08798 0.098-0.17599 0.17162-0.26396l0.2942-0.32997c0.0493-0.044 0.12259-0.11001 0.17165-0.15397l0.34324-0.26396c0.0982-0.08802 0.19616-0.15397 0.31877-0.21998l0.41681-0.19799c0.0734-0.044 0.14711-0.06595 0.24517-0.11l0.41684-0.132c0.12261-0.02195 0.24518-0.044 0.36778-0.06605l0.46585-0.044h0.34327l0.46587 0.044c0.12259 0.02205 0.22064 0.044 0.34327 0.06605l0.44132 0.132c0.0982 0.044 0.19616 0.06583 0.29423 0.11l0.39229 0.19799c0.0981 0.06583 0.19614 0.13197 0.26972 0.19798l0.34327 0.26396c0.0733 0.06595 0.14707 0.11001 0.19614 0.17596l0.29424 0.32997c0.0734 0.08799 0.12259 0.17599 0.19615 0.26396l0.19613 0.37395c0.0493 0.08798 0.0733 0.15398 0.0981 0.24195l0.1471 0.39596c0.0243 0.11001 0.0494 0.19798 0.0494 0.28596l0.0492 0.43994c0.0244 0.11001 0.0244 0.19799 0 0.28596l-0.0492 0.46193c0 0.08795-0.0242 0.17598-0.0494 0.26398l-0.1471 0.41795c-0.0243 0.08795-0.0493 0.15396-0.0981 0.24195l-0.19613 0.37395c-0.0734 0.08795-0.12262 0.176-0.19615 0.264l-0.29424 0.32994c-0.0494 0.06597-0.12258 0.11002-0.19614 0.17598l-0.34327 0.26397c-0.0734 0.06597-0.17162 0.132-0.26972 0.19796l-0.39229 0.19799c-0.0981 0.04398-0.19615 0.06585-0.29423 0.11002l-0.44132 0.13196c-0.12266 0.02199-0.22069 0.04398-0.34327 0.06607l-0.46587 0.04398h-0.34327l-0.46585-0.04398c-0.12261-0.02209-0.24518-0.04398-0.36778-0.06607l-0.4-0.132c-0.0981-0.04398-0.1716-0.06585-0.24517-0.11002l-0.41681-0.19799c-0.12262-0.06597-0.22068-0.13197-0.31877-0.21995l-0.34324-0.264c-0.0494-0.04398-0.12261-0.10999-0.17165-0.15396l-0.2942-0.32994c-0.0733-0.08794-0.12261-0.17599-0.17162-0.264l-0.22067-0.37395c-0.0244-0.08795-0.0734-0.15395-0.0981-0.24195l-0.12259-0.41795c-0.0494-0.08794-0.0494-0.17599-0.0734-0.26398zm3.31 0.17597-0.0734-0.28596 0.14714 0.41796-0.0981-0.24198 0.19615 0.37396-0.17164-0.26398 0.29423 0.32997-0.17163-0.15399 0.31876 0.28596-0.31876-0.21998 0.39232 0.19796-0.2452-0.10998 0.44136 0.13197-0.36781-0.06597 0.46588 0.04398h-0.34328l0.46587-0.04398-0.34327 0.06597 0.44132-0.13197-0.29423 0.10998 0.39233-0.19796-0.26973 0.19796 0.34327-0.28593-0.19614 0.17598 0.29424-0.32997-0.19615 0.26398 0.22066-0.37396-0.098 0.24198 0.12263-0.41796-0.0494 0.28596 0.0494-0.46193v0.28596l-0.0494-0.43994 0.0494 0.26395-0.12263-0.39594 0.098 0.24197-0.22066-0.37396 0.19615 0.26398-0.29424-0.32996 0.19614 0.17597-0.34327-0.28596 0.26973 0.19797-0.39233-0.19797 0.29423 0.11002-0.44132-0.13199 0.34327 0.06604-0.46587-0.04399h0.34328l-0.46588 0.04399 0.36781-0.06604-0.44136 0.13199 0.2452-0.11002-0.39232 0.19797 0.31876-0.21996-0.31876 0.28595 0.17163-0.15397-0.29423 0.32996 0.17164-0.26398-0.19615 0.37396 0.0981-0.24197-0.14714 0.39594 0.0734-0.26395-0.0492 0.43994v-0.28596z" stroke="#000" stroke-width=".023224px"/>
  <path id="path3092" stroke-linejoin="round" d="m329.78 91.447h36.787v-1.4744h-36.787v1.4744zm36.078 3.6528 4.2347-4.401-4.2347-4.4011v8.8021z" stroke="#000" stroke-width=".015262px"/>
  <path id="path3094" stroke-linejoin="round" d="m267.03 254.85v-73.294h-1.6428v73.294h1.6428zm4.0701-71.842-4.9038-8.7988-4.9038 8.7988h9.8075z" stroke="#000" stroke-width=".023224px"/>
  <path id="path3096" stroke-linejoin="round" d="m426.12 281.27v-53.449c0-0.41628-0.18964-0.7632-0.41718-0.7632h-129.5l0.4298 0.7632v-45.746h-0.84688v45.746c0 0.41629 0.18963 0.76322 0.41719 0.76322h129.5l-0.42983-0.76322v53.449zm-127.39-97.646-2.5283-9.251-2.5282 9.251z" stroke="#000" stroke-width="0.0171px"/>
  <path id="path3098" stroke-linejoin="round" d="m431.89 20.999h-338.53v1.0956h338.53z" stroke="#000" stroke-width=".027697px"/>
  <path id="path3100" stroke-linejoin="round" d="m92.507 21.762-0.1754 32.775h1.4615l0.17539-32.775z" stroke="#000" stroke-width=".0079635px"/>
  <path id="path3102" stroke-linejoin="round" d="m121.44 66.072h77.315v1.474h-77.315v-1.474zm75.775-3.6628 9.2597 4.3998-9.2597 4.3998v-8.7996z" stroke="#000" stroke-width=".011283px"/>
  <path id="path3104" stroke-linejoin="round" d="m128.08 119.6h71.688v1.4629h-71.688v-1.4629zm70.343-3.6741 8.1006 4.4002-8.1006 4.4002v-8.8002z" stroke="#000" stroke-width=".010554px"/>
  <path id="path3108" stroke-linejoin="round" d="m368.17 495.96-0.27609-40.38-1.3653-0.5124v40.893zm3.4008-40.193-4.2091-7.9705-3.9331 7.8423z" stroke="#000" stroke-width=".030194px"/>
  <path id="path3110" stroke-linejoin="round" d="m414.46 417.7-12.897 14.011 0.9562 0.7039 12.872-14.011z" stroke="#000" stroke-width=".023224px"/>
  <text id="text3112" font-size="12.449px" xml:space="preserve" transform="scale(1.0558 .94718)" y="445.72043" x="379.48679" font-family="Arial" fill="#000000">4</text>
  <path id="path3120" stroke-linejoin="round" d="m464.62 196.26-9.3662 10.801 0.95625 0.68194 9.3662-10.801z" stroke="#000" stroke-width=".023224px"/>
  <text id="text3122" font-size="12.449px" xml:space="preserve" transform="scale(1.0558 .94718)" y="208.03285" x="421.46851" font-family="Arial" fill="#000000">12</text>
  <path id="path3124" stroke-linejoin="round" d="m177.64 146.73h23.819v1.4741h-23.819v-1.4741zm22.605-3.6633 7.3035 4.4004-7.3035 4.4004v-8.8008z" stroke="#000" stroke-width=".010022px"/>
  <text id="text3126" font-size="18.579px" xml:space="preserve" transform="scale(1.0558 .94718)" y="162.29898" x="148.32384" font-family="Arial" fill="#000000">0</text>
  <text id="text3130" font-size="13.9px" xml:space="preserve" transform="scale(1.0558 .94718)" y="179.29945" x="134.15779" font-family="Arial" line-height="125%" fill="#000000">(fetch) </text>
  <path id="path3134" stroke-linejoin="round" d="m128.35 118.99-0.14764 84.101 1.2299 0.0148 0.14758-84.115z" stroke="#000" stroke-width=".013709px"/>
  <path id="path3136" stroke-linejoin="round" d="m291.34 471.98v-17.996h-1.6429v17.996h1.6429zm4.0704-16.74-4.9038-7.4984-4.9038 7.4984h9.8077z" stroke="#000" stroke-width=".021438px"/>
  <path id="path3138" stroke-linejoin="round" d="m419.09 426.53v-85.524h-1.226v85.524z" stroke="#000" stroke-width=".023224px"/>
  <text id="text3140" font-size="12.768px" xml:space="preserve" transform="scale(1.0558 .94718)" y="584.66669" x="244.90224" font-family="Arial" line-height="125%" fill="#000000">0</text>
  <path id="path3142" stroke-linejoin="round" d="m140.37 377.98 630.45-2.7696v-1.1352l-630.45 2.7697z" stroke="#000" stroke-width=".039270px"/>
  <path id="path3142b" stroke-linejoin="round" d="m145.69 377.98 624.57-2.7698v-1.1351l-624.57 2.7698z" stroke="#000" stroke-width=".039088px"/>
  <path id="path3144" stroke-linejoin="round" d="m446.56 452.94c-0.33154-0.002-0.57475-0.29333-0.57348-0.64183l0.20194-56.111c0.00089-0.34851 0.24653-0.63772 0.57808-0.63606l24.324 0.12197c0.33153 0.002 0.5922 0.29343 0.59096 0.64192l-0.20196 56.111c-0.0009 0.34849-0.264 0.63762-0.59554 0.63598zm24.329-1.1752-0.57814 0.65541 0.20194-56.111 0.57343 0.6612-24.324-0.12197 0.57818-0.65543-0.20195 56.111-0.57344-0.66121z" stroke="#000" stroke-width=".018381px"/>
  <path id="path3150" stroke-linejoin="round" d="m533.67 452.99c-0.34876 0.003-0.59486-0.31409-0.59715-0.67302l-0.36376-57.788c-0.003-0.35891 0.24011-0.64013 0.58886-0.64306l24.307-0.20305c0.31384-0.003 0.55973 0.27454 0.56201 0.63344l0.36378 57.788c0.003 0.35893-0.23986 0.68002-0.55372 0.68264zm24.299-1.559-0.58861 0.68293-0.3638-57.788 0.59716 0.67301-24.307 0.20306 0.55373-0.68264 0.36381 57.788-0.5623-0.67332z" stroke="#000" stroke-width=".037295px"/>
  <path id="path3156" stroke-linejoin="round" d="m624.72 451.04c-0.3265-0.003-0.55212-0.3113-0.54889-0.65561l0.52448-55.438c0.004-0.34435 0.23435-0.61004 0.56084-0.60694l22.756 0.21446c0.29382 0.002 0.51983 0.27275 0.5166 0.61706l-0.52449 55.438c-0.004 0.34431-0.23471 0.64825-0.52854 0.64548zm22.768-1.0864-0.56122 0.64521 0.52451-55.438 0.54887 0.65563-22.756-0.21446 0.52857-0.64551-0.52448 55.438-0.51627-0.65535z" stroke="#000" stroke-width=".035345px"/>
  <path id="path3162" stroke-linejoin="round" d="m642.77 274.15c0-0.39608 0.20282-0.74814 0.49256-0.74814h112.25c0.26075 0 0.46362 0.35206 0.46362 0.74814v30.674c0 0.39609-0.20287 0.74813-0.46362 0.74813h-112.25c-0.28974 0-0.49256-0.35204-0.49256-0.74813zm0.95616 30.674-0.46358-0.74816h112.25l-0.49255 0.74816v-30.674l0.49255 0.74817h-112.25l0.46358-0.74817z" stroke="#000" stroke-width=".035708px"/>
  <text id="text3164" font-size="16.989px" xml:space="preserve" transform="scale(1.0558 .94718)" y="311.88492" x="472.11752" font-family="Arial" line-height="125%" fill="#000000"><tspan id="tspan4277" y="311.88492" x="472.11752">SelA</tspan></text>
  <text id="text3168" font-size="16.989px" xml:space="preserve" transform="scale(1.0558 .94718)" y="312.59842" x="519.4837" font-family="Arial" line-height="125%" fill="#000000"><tspan id="tspan4279" y="312.59842" x="519.4837">SelB</tspan></text>
  <text id="text3172" font-size="16.989px" xml:space="preserve" transform="scale(1.0558 .94718)" y="312.59842" x="567.00446" font-family="Arial" line-height="125%" fill="#000000"><tspan id="tspan4281" y="312.59842" x="567.00446">SelC</tspan></text>
  <path id="path3176" stroke-linejoin="round" d="m487.74 274.13c0-0.39595 0.30882-0.72593 0.67941-0.72593h53.488c0.37061 0 0.67943 0.32998 0.67943 0.72593v30.688c0 0.39599-0.30882 0.72594-0.67943 0.72594h-53.488c-0.37059 0-0.67941-0.32995-0.67941-0.72594zm1.3587 30.688-0.67941-0.74795h53.488l-0.69999 0.74795v-30.688l0.69999 0.74794h-53.488l0.67941-0.74794z" stroke="#000" stroke-width=".021281px"/>
  <path id="path3178" stroke-linejoin="round" d="m541.36 274.15c0-0.39601 0.31172-0.748 0.6624-0.748h51.706c0.35066 0 0.66239 0.35199 0.66239 0.748v30.668c0 0.396-0.31173 0.74799-0.66239 0.74799h-51.706c-0.35068 0-0.6624-0.35199-0.6624-0.74799zm1.2859 30.668-0.62342-0.74802h51.706l-0.66241 0.74802v-30.668l0.66241 0.74803h-51.706l0.62342-0.74803z" stroke="#000" stroke-width=".041406px"/>
  <path id="path3180" stroke-linejoin="round" d="m593.18 274.15c0-0.39602 0.25013-0.74806 0.60747-0.74806h48.668c0.32161 0 0.57175 0.35204 0.57175 0.74806v30.671c0 0.39602-0.25014 0.74805-0.57175 0.74805h-48.668c-0.35734 0-0.60747-0.35203-0.60747-0.74805zm1.1793 30.671-0.57175-0.74808h48.668l-0.60745 0.74808v-30.671l0.60745 0.74807h-48.668l0.57175-0.74807z" stroke="#000" stroke-width=".039653px"/>
  <path id="path3182" stroke-linejoin="round" d="m463.7 465.99-13.192 8.7329 0.73559 0.87988 13.192-8.7109z" stroke="#000" stroke-width=".023224px"/>
  <path id="path3184" stroke-linejoin="round" d="m553.69 466.67-13.192 8.7329 0.73557 0.87989 13.191-8.7329z" stroke="#000" stroke-width=".023224px"/>
  <path id="path3186" stroke-linejoin="round" d="m641.43 463.98-13.192 8.7549 0.7356 0.87988 13.192-8.7549z" stroke="#000" stroke-width=".046448px"/>
  <path id="path3188" stroke-linejoin="round" d="m459.44 377.32v11.351h-1.6182v-11.351h1.6182zm4.0946 9.8768-4.9038 8.7988-4.9038-8.7988h9.8076z" stroke="#000" stroke-width=".023224px"/>
  <path id="path3190" stroke-linejoin="round" d="m546.82 375.44v11.372h-1.6427v-11.372h1.6427zm4.0946 9.8987-4.9038 8.7988-4.9038-8.7988h9.8075z" stroke="#000" stroke-width=".023224px"/>
  <path id="path3192" stroke-linejoin="round" d="m635.98 375.95v11.351h-1.6673v-11.351h1.6673zm4.0701 9.8547-4.9038 8.7988-4.9038-8.7988h9.8076z" stroke="#000" stroke-width=".046448px"/>
  <path id="path3194" stroke-linejoin="round" d="m490.97 423.41-11.867 0.066v1.4738l11.867-0.0662v-1.4738zm-10.273-3.6074-9.7584 4.4656 9.8322 4.3335-0.0732-8.7988z" stroke="#000" stroke-width=".023224px"/>
  <path id="path3196" stroke-linejoin="round" d="m577.71 359.17v-53.563h-1.2259v53.563z" stroke="#000" stroke-width=".023224px"/>
  <path id="path3198" fill-rule="evenodd" d="m457.46 375.94c0-1.2321 0.91424-2.2222 2.0198-2.2222 1.1268 0 2.0198 0.99009 2.0198 2.2222 0 1.21-0.89297 2.2003-2.0198 2.2003-1.1056 0-2.0198-0.99007-2.0198-2.2003"/>
  <path id="path3200" stroke-linejoin="round" d="m455.93 376.06v-0.28599l0.0452-0.44005c0.0223-0.088 0.0223-0.17601 0.0675-0.28603l0.11245-0.39602c0.0223-0.088 0.0676-0.15405 0.0899-0.24202l0.20242-0.37406c0.0452-0.088 0.0898-0.17598 0.15742-0.26399l0.26988-0.33004 0.17995-0.176 0.31489-0.26403c0.0898-0.066 0.1799-0.132 0.26985-0.19803l0.35987-0.19801c0.0675-0.0439 0.15743-0.0659 0.24739-0.11002l0.40484-0.13205c0.11246-0.022 0.22489-0.0439 0.31488-0.0657l0.42733-0.0439h0.31485l0.42733 0.0439c0.11246 0.022 0.22488 0.0439 0.33738 0.0657l0.4048 0.13205c0.0898 0.0439 0.15745 0.0659 0.2474 0.11002l0.35986 0.19801c0.0899 0.0661 0.17993 0.13202 0.26989 0.19803l0.31491 0.26403c0.0676 0.0661 0.11245 0.11003 0.17988 0.176l0.26991 0.33004c0.0451 0.088 0.11242 0.17602 0.15742 0.26399l0.20243 0.37406c0.0222 0.088 0.0675 0.15399 0.0899 0.24202l0.11242 0.39602c0.0448 0.11005 0.0448 0.19802 0.0676 0.28603l0.0452 0.44005v0.28599l-0.0452 0.46205c-0.0223 0.088-0.0223 0.17601-0.0676 0.26405l-0.11242 0.41799c-0.0223 0.088-0.0676 0.15406-0.0899 0.24204l-0.20243 0.37402c-0.0449 0.088-0.11243 0.17599-0.15742 0.26399l-0.26991 0.33005c-0.0674 0.066-0.11244 0.11002-0.17988 0.17601l-0.31491 0.26404c-0.0898 0.0658-0.17992 0.132-0.26989 0.198l-0.35986 0.19801c-0.0899 0.0439-0.15742 0.066-0.2474 0.11005l-0.4048 0.13203c-0.11245 0.022-0.22492 0.0439-0.33738 0.0659l-0.42733 0.0439h-0.31485l-0.42733-0.0439c-0.0899-0.0221-0.20242-0.0439-0.31488-0.0659l-0.40484-0.13203c-0.0899-0.0439-0.17991-0.0661-0.24739-0.11005l-0.35987-0.19801c-0.0899-0.0659-0.1799-0.132-0.26985-0.198l-0.31489-0.26404-0.17995-0.17601-0.26988-0.33005c-0.0675-0.088-0.11245-0.17595-0.15742-0.26399l-0.20242-0.37402c-0.0223-0.088-0.0675-0.15403-0.0899-0.24204l-0.11245-0.41799c-0.0448-0.088-0.0448-0.176-0.0675-0.26405zm3.0362 0.17607-0.0676-0.28606 0.13494 0.41803-0.0898-0.24202 0.17992 0.37402-0.15745-0.26397 0.26988 0.32998-0.17993-0.17601 0.31489 0.28602-0.2699-0.19802 0.35983 0.19802-0.24734-0.11003 0.40483 0.13201-0.3374-0.066 0.42736 0.0439h-0.31487l0.42731-0.0439-0.31486 0.066 0.40483-0.13201-0.24741 0.11003 0.35985-0.19802-0.26988 0.19802 0.31485-0.28602-0.17993 0.17601 0.26991-0.32998-0.15743 0.26397 0.17992-0.37402-0.0898 0.24202 0.13495-0.41803-0.0676 0.28606 0.0451-0.46206v0.28599l-0.0451-0.44004 0.0676 0.26407-0.13495-0.39607 0.0898 0.24202-0.17992-0.37402 0.15743 0.264-0.26991-0.32999 0.17993 0.17599-0.31485-0.28602 0.26988 0.19803-0.35985-0.19803 0.24741 0.11006-0.40483-0.13203 0.31486 0.0659-0.42731-0.0439h0.31487l-0.42736 0.0439 0.3374-0.0659-0.40483 0.13203 0.24734-0.11006-0.35983 0.19803 0.2699-0.19803-0.31489 0.28602 0.17993-0.17599-0.26988 0.32999 0.15745-0.264-0.17992 0.37402 0.0898-0.24202-0.13494 0.39607 0.0676-0.26407-0.045 0.44004v-0.28599z" stroke="#000" stroke-width=".022245px"/>
  <path id="path3202" fill-rule="evenodd" d="m543.09 375.94c0-1.2321 0.89299-2.2222 2.0199-2.2222 1.1056 0 1.9984 0.99009 1.9984 2.2222 0 1.21-0.89294 2.2003-1.9984 2.2003-1.1269 0-2.0199-0.99007-2.0199-2.2003"/>
  <path id="path3204" stroke-linejoin="round" d="m541.48 376.06c-0.0223-0.088-0.0223-0.17597 0-0.28599l0.0448-0.44005c0-0.088 0.0222-0.17601 0.0452-0.28603l0.13497-0.39602c0.0222-0.088 0.045-0.15405 0.0898-0.24202l0.17994-0.37406c0.0452-0.088 0.11242-0.17598 0.17989-0.26399l0.26988-0.33004c0.0448-0.0661 0.11248-0.11001 0.17992-0.176l0.31491-0.26403c0.0675-0.066 0.15741-0.132 0.24739-0.19803l0.35986-0.19801c0.0898-0.0439 0.17989-0.0659 0.26987-0.11002l0.40483-0.13205c0.0898-0.022 0.20246-0.0439 0.31489-0.0657l0.42734-0.0439h0.31486l0.42731 0.0439c0.11246 0.022 0.22492 0.0439 0.33735 0.0657l0.38233 0.13205c0.0898 0.0439 0.15746 0.0659 0.22496 0.11002l0.38232 0.19801c0.0899 0.0439 0.20242 0.11005 0.26989 0.19803l0.31489 0.26403 0.20239 0.19801 0.2474 0.33002c0.0675 0.088 0.11245 0.15403 0.15743 0.242l0.20245 0.37406c0.0223 0.088 0.0674 0.15399 0.0899 0.24202l0.11244 0.39602c0.0452 0.11005 0.0452 0.19802 0.0674 0.28603l0.0448 0.44005v0.28599l-0.0448 0.46205c-0.0223 0.088-0.0223 0.17601-0.0674 0.26405l-0.11244 0.41799c-0.0222 0.088-0.0676 0.15406-0.0899 0.24204l-0.20245 0.37402c-0.0452 0.088-0.0898 0.15401-0.15743 0.242l-0.2474 0.33004c-0.0676 0.0659-0.13493 0.132-0.20239 0.19801l-0.31489 0.26404c-0.0675 0.088-0.17992 0.15398-0.26989 0.198l-0.38232 0.19801c-0.0676 0.0439-0.13497 0.066-0.22496 0.11005l-0.38233 0.13203c-0.11243 0.022-0.22489 0.0439-0.33735 0.0659l-0.42731 0.0439h-0.31486l-0.42734-0.0439c-0.11245-0.0221-0.22491-0.0439-0.31489-0.0659l-0.40483-0.13203c-0.0898-0.0439-0.17993-0.0661-0.26987-0.11005l-0.35986-0.19801c-0.0899-0.0659-0.17993-0.132-0.24739-0.198l-0.31491-0.26404c-0.0675-0.0659-0.13494-0.11001-0.17992-0.17601l-0.26988-0.33005c-0.0675-0.088-0.13494-0.17595-0.17989-0.26399l-0.17994-0.37402c-0.0452-0.088-0.0675-0.15403-0.0898-0.24204l-0.13497-0.41799c-0.0223-0.088-0.0452-0.176-0.0452-0.26405zm3.0136 0.17607-0.0452-0.28606 0.1125 0.41803-0.0898-0.24202 0.20241 0.37402-0.17992-0.26397 0.26989 0.32998-0.17992-0.17601 0.31488 0.28602-0.24738-0.19802 0.35981 0.19802-0.26987-0.11003 0.40483 0.13201-0.31486-0.066 0.42733 0.0439h-0.31486l0.4273-0.0439-0.33738 0.066 0.40484-0.13201-0.2249 0.11003 0.35988-0.19802-0.26994 0.19802 0.31487-0.28602-0.20238 0.19803 0.26987-0.33003-0.15742 0.242 0.17993-0.37402-0.0899 0.24202 0.135-0.41803-0.0675 0.28606 0.0452-0.46206v0.28599l-0.0452-0.44004 0.0675 0.26407-0.135-0.39607 0.0899 0.24202-0.17993-0.37402 0.15742 0.242-0.26987-0.33001 0.20238 0.19801-0.31487-0.28602 0.26994 0.19803-0.35988-0.19803 0.2249 0.11006-0.40484-0.13203 0.33738 0.0659-0.4273-0.0439h0.31486l-0.42733 0.0439 0.31486-0.0659-0.40483 0.13203 0.26987-0.11006-0.35981 0.19803 0.24738-0.19803-0.31488 0.28602 0.17992-0.17599-0.26989 0.32999 0.17992-0.264-0.20241 0.37402 0.0898-0.24202-0.1125 0.39607 0.0452-0.26407-0.0452 0.44004v-0.28599z" stroke="#000" stroke-width=".022245px"/>
  <path id="path3206" fill-rule="evenodd" d="m632.05 375.95c0-1.2321 0.93552-2.2442 2.0411-2.2442s1.9984 1.0121 1.9984 2.2442c0 1.188-0.89295 2.2003-1.9984 2.2003-1.1055 0-2.0411-1.0121-2.0411-2.2003"/>
  <path id="path3208" stroke-linejoin="round" d="m630.64 376.09c-0.0453-0.088-0.0453-0.17601 0-0.308l0.0449-0.44003c0-0.088 0-0.17606 0.0452-0.26405l0.13494-0.39602c0-0.088 0.0451-0.17603 0.0898-0.26402l0.17994-0.35204c0.0452-0.088 0.09-0.17601 0.13491-0.26404l0.26993-0.30802c0.0452-0.088 0.13493-0.132 0.17988-0.21999l0.31489-0.26405c0.0898-0.088 0.17994-0.132 0.2699-0.17602l0.35986-0.22c0.0897-0.0439 0.1799-0.0439 0.26987-0.088l0.39489-0.1054c0.0898-0.0439 0.2249-0.0439 0.31486-0.088l0.40486-0.0439h0.31485l0.44981 0.0439c0.0898 0.0439 0.22491 0.0439 0.31489 0.088l0.40483 0.13201c0.0898 0.0439 0.17992 0.0439 0.26988 0.088l0.35984 0.22c0.0899 0.0439 0.17995 0.088 0.26992 0.17601l0.31487 0.26402c0.0452 0.088 0.0898 0.132 0.13493 0.17603l0.26989 0.35202c0.0898 0.088 0.13493 0.17601 0.17992 0.26402l0.22494 0.35204c0 0.088 0.0452 0.17601 0.0898 0.26402l0.09 0.39601c0.0452 0.088 0.0452 0.17602 0.0898 0.26405l0.0452 0.44002v0.30803l-0.0452 0.44c-0.0449 0.088-0.0449 0.17604-0.0898 0.26406l-0.09 0.44c-0.0452 0.088-0.0898 0.13205-0.0898 0.22002l-0.22494 0.39606c-0.0451 0.088-0.0898 0.17599-0.17992 0.26398l-0.26989 0.30802c-0.0452 0.0439-0.0898 0.13204-0.13493 0.17603l-0.31487 0.26403c-0.0898 0.088-0.17992 0.132-0.26992 0.22003l-0.35984 0.17599c-0.0898 0.0439-0.17996 0.088-0.26988 0.13203l-0.40483 0.13201c-0.0898 0-0.22493 0.0439-0.31489 0.0439l-0.44981 0.0439h-0.31485l-0.40486-0.0439c-0.0898 0-0.22489-0.0439-0.31486-0.0439l-0.40484-0.13201c-0.0898-0.0439-0.17992-0.088-0.26987-0.13203l-0.35986-0.17599c-0.0898-0.088-0.17995-0.132-0.26992-0.22003l-0.31481-0.26404c-0.045-0.0439-0.13493-0.132-0.17992-0.22l-0.2699-0.30806c-0.045-0.088-0.0898-0.13199-0.13494-0.21997l-0.17992-0.39605c-0.0452-0.088-0.0898-0.132-0.0898-0.22002l-0.13499-0.44c-0.0448-0.088-0.0448-0.17602-0.0448-0.26406zm3.0136 0.17603-0.0451-0.30803 0.0898 0.44002-0.0898-0.26402 0.22492 0.39604-0.17992-0.26401 0.26987 0.352-0.17993-0.22001 0.3149 0.30803-0.26993-0.22002 0.35988 0.22002-0.26991-0.13201 0.40484 0.13201-0.31487-0.0439 0.40482 0.0439h-0.31483l0.44979-0.0439-0.31488 0.0439 0.40484-0.13201-0.26987 0.13201 0.35986-0.22002-0.2699 0.22002 0.31488-0.30803-0.17992 0.17602 0.26989-0.30801-0.13495 0.26401 0.17989-0.39604-0.0898 0.26402 0.13496-0.44002-0.0898 0.30803 0.0453-0.48403v0.308l-0.0453-0.44005 0.0898 0.26404-0.13496-0.39603 0.0898 0.22002-0.17989-0.35204 0.13495 0.26401-0.26989-0.35201 0.17992 0.176-0.31488-0.26398 0.2699 0.17598-0.35986-0.17598 0.26987 0.088-0.40484-0.132 0.31488 0.088-0.44979-0.0439h0.31483l-0.40482 0.0439 0.31487-0.088-0.40484 0.132 0.26991-0.088-0.35988 0.17598 0.26993-0.17598-0.3149 0.26398 0.17993-0.22001-0.26987 0.35203 0.17992-0.22002-0.22492 0.35204 0.0898-0.22002-0.0898 0.39603 0.0451-0.26404-0.0451 0.44005v-0.308z" stroke="#000" stroke-width=".044491px"/>
  <path id="path3210" stroke-linejoin="round" d="m708.33 305.86v117.82h-1.6202v-117.82h1.6202zm4.124 116.94-4.9094 5.1698-4.9093-5.1698h9.8188z" stroke="#000" stroke-width=".035624px"/>
  <path id="path3212" stroke-linejoin="round" d="m713.77 332.63-13.192 8.7109 0.73556 0.92385 13.191-8.7549z" stroke="#000" stroke-width=".046448px"/>
  <text id="text3214" font-size="12.448px" xml:space="preserve" transform="scale(1.0558 .94718)" y="353.51804" x="652.88708" font-family="Arial" line-height="125%" fill="#000000"><tspan id="tspan3973" y="353.51804" x="652.88708">49</tspan></text>
  <path id="path3216" stroke-linejoin="round" d="m444.34 487.72c0-0.44073 0.2756-0.80801 0.60629-0.80801h53.223c0.34906 0 0.62463 0.36728 0.62463 0.80801v32.394c0 0.46519-0.27557 0.80801-0.62463 0.80801h-53.223c-0.33069 0-0.60629-0.34282-0.60629-0.80801zm1.2309 32.394-0.62464-0.80804h53.223l-0.6063 0.80804v-32.394l0.6063 0.80802h-53.223l0.62464-0.80802z" stroke="#000" stroke-width=".021210px"/>
  <text id="text3218" font-size="15.445px" xml:space="preserve" transform="scale(1.0558 .94718)" y="543.26099" x="429.15399" font-family="Arial" line-height="125%" fill="#000000">MUX</text>
  <path id="path3220" stroke-linejoin="round" d="m429.46 507.78h14.81v1.0998h-14.81z" stroke="#000" stroke-width=".023224px"/>
  <text id="text3222" font-size="13.75px" line-height="125%" transform="scale(1.0558 .94718)" y="532.17041" x="390.1077" font-family="Arial" xml:space="preserve" fill="#000000">MR</text>
  <text id="text3224" font-size="15.42px" xml:space="preserve" transform="matrix(.0018463 -.93402 1.0706 .0016564 0 0)" y="663.68158" x="-554.98682" font-family="Arial" line-height="125%" fill="#000000"><tspan id="tspan4437" y="663.68158" x="-554.98682">Rest of CPU</tspan></text>
  <text id="text3228" font-size="15.42px" xml:space="preserve" transform="matrix(.0018463 -.93402 1.0706 .0016564 0 0)" y="681.297" x="-562.54877" font-family="Arial" fill="#000000">control </text>
  <text id="text3230" font-size="15.42px" xml:space="preserve" transform="matrix(.0018463 -.93402 1.0706 .0016564 0 0)" y="680.60437" x="-512.50769" font-family="Arial" fill="#000000">signals</text>
  <path id="path3232" stroke-linejoin="round" d="m624.1 347.8v-41.839h-1.2312v41.839z" stroke="#000" stroke-width=".041386px"/>
  <path id="path3234" stroke-linejoin="round" d="m475.68 519.67v13.439h-1.6182v-13.439h1.6182zm4.0946 11.967-4.9038 8.7988-4.9038-8.7988h9.8076z" stroke="#000" stroke-width=".023224px"/>
  <path id="path3236" stroke-linejoin="round" d="m535.46 487.61c0-0.44826 0.25285-0.8467 0.57795-0.8467h52.339c0.32509 0 0.57794 0.39844 0.57794 0.8467v32.974c0 0.44829-0.25285 0.79693-0.57794 0.79693h-52.339c-0.3251 0-0.57795-0.34864-0.57795-0.79693zm1.1919 32.974-0.61399-0.8467h52.339l-0.61401 0.8467v-32.974l0.61401 0.84677h-52.339l0.61399-0.84677z" stroke="#000" stroke-width=".042416px"/>
  <text id="text3238" font-size="15.445px" xml:space="preserve" transform="scale(1.0558 .94718)" y="543.34595" x="514.74701" font-family="Arial" line-height="125%" fill="#000000">MUX</text>
  <path id="path3240" stroke-linejoin="round" d="m522.26 507.65h14.785v1.0998h-14.785z" stroke="#000" stroke-width=".023224px"/>
  <text id="text3242" font-size="12.449px" xml:space="preserve" transform="scale(1.0558 .94718)" y="532.02234" x="482.34769" font-family="Arial" fill="#000000">MR</text>
  <path id="path3244" stroke-linejoin="round" d="m563.84 519.51v13.461h-1.6182v-13.461h1.6182zm4.0701 12.012-4.9038 8.7988-4.9038-8.7988h9.8076z" stroke="#000" stroke-width=".046448px"/>
  <path id="path3246" stroke-linejoin="round" d="m625.4 486.3c0-0.45718 0.24204-0.86365 0.55336-0.86365h50.115c0.31128 0 0.58797 0.40647 0.58797 0.86365v33.633c0 0.45722-0.27669 0.81284-0.58797 0.81284h-50.115c-0.31132 0-0.55336-0.35562-0.55336-0.81284zm1.1412 33.633-0.58798-0.86362h50.115l-0.58798 0.86362v-33.633l0.58798 0.86367h-50.115l0.58798-0.86367z" stroke="#000" stroke-width=".041917px"/>
  <text id="text3248" font-size="15.445px" xml:space="preserve" transform="scale(1.0558 .94718)" y="542.60522" x="600.354" font-family="Arial" line-height="125%" fill="#000000">MUX</text>
  <path id="path3252" stroke-linejoin="round" d="m611.14 508.24h14.761v1.0998h-14.761z" stroke="#000" stroke-width=".046448px"/>
  <text id="text3254" font-size="12.449px" xml:space="preserve" transform="scale(1.0558 .94718)" y="532.62799" x="565.10211" font-family="Arial" fill="#000000">MR</text>
  <path id="path3256" stroke-linejoin="round" d="m653.29 518.77v13.461h-1.6182v-13.461h1.6182zm4.1191 12.012-4.9038 8.7988-4.9038-8.7988h9.8076z" stroke="#000" stroke-width=".046448px"/>
  <path id="path3258" stroke-linejoin="round" d="m488.89 347h29.071v1.0994h-29.071z" stroke="#000" stroke-width=".023826px"/>
  <path id="path3260" stroke-linejoin="round" d="m488.58 469.7 1.1808-122.79-1.4399-0.021-1.1808 122.81z" stroke="#000" stroke-width=".024589px"/>
  <path id="path3262" fill-rule="evenodd" d="m575.35 423.46c0-1.2318 1.0298-2.1998 2.3539-2.1998 1.275 0 2.3048 0.96785 2.3048 2.1998 0 1.2318-1.0298 2.1998-2.3048 2.1998-1.3241 0-2.3539-0.96789-2.3539-2.1998"/>
  <path id="path3264" stroke-linejoin="round" d="m573.49 423.6v-0.26397l0.0492-0.48395c0-0.088 0.0494-0.17596 0.0494-0.26396l0.14711-0.39594c0.0493-0.088 0.0493-0.17596 0.0982-0.21996l0.19613-0.39595c0.0493-0.088 0.1471-0.17599 0.19617-0.26397l0.29423-0.30796c0.0493-0.088 0.1471-0.132 0.19613-0.17597l0.34328-0.30796c0.098-0.0439 0.19615-0.132 0.29422-0.17598l0.39229-0.17598c0.098-0.0439 0.19615-0.088 0.29423-0.132l0.44134-0.13196c0.0982-0.0439 0.19617-0.0439 0.34326-0.0439l0.44134-0.0439c0.14713-0.0439 0.24518-0.0439 0.34327 0l0.49036 0.0439c0.0982 0 0.2452 0 0.34327 0.0439l0.44134 0.13196c0.0981 0.0439 0.14712 0.088 0.24518 0.088l0.3923 0.21997c0.098 0.0439 0.24522 0.13199 0.29425 0.17601l0.34327 0.30793c0.0978 0.0439 0.14709 0.13198 0.24516 0.17598l0.24517 0.35194c0.0982 0.0439 0.14711 0.13199 0.19617 0.21998l0.19617 0.39595c0.0493 0.0439 0.0982 0.13196 0.0982 0.21997l0.14714 0.39595c0.0493 0.088 0.0493 0.17598 0.0493 0.26395l0.0494 0.48396v0.26394l-0.0494 0.43996c0 0.132 0 0.21997-0.0493 0.30792l-0.14714 0.39596c0 0.088-0.0493 0.17601-0.0982 0.21999l-0.19617 0.39595c-0.0494 0.088-0.0979 0.17597-0.19617 0.21996l-0.24517 0.35195c-0.098 0.0439-0.14712 0.132-0.24516 0.17599l-0.34327 0.30796c-0.0493 0.0439-0.19615 0.13197-0.29425 0.17596l-0.3923 0.17596c-0.0979 0.0439-0.14711 0.088-0.24518 0.13203l-0.44134 0.13197c-0.0981 0.0439-0.24517 0.0439-0.34327 0.0439l-0.49036 0.0439c-0.0979 0.0439-0.19614 0.0439-0.34327 0l-0.44134-0.0439c-0.14709 0-0.24519 0-0.34326-0.0439l-0.44134-0.13197c-0.098-0.0439-0.19613-0.088-0.29423-0.13203l-0.39229-0.17596c-0.0981-0.0439-0.19616-0.13196-0.29422-0.17596l-0.34328-0.30796c-0.0492-0.0439-0.1471-0.088-0.19613-0.17599l-0.29423-0.30792c-0.0494-0.088-0.14714-0.176-0.19617-0.26399l-0.19613-0.39595c-0.0494-0.0439-0.0494-0.13197-0.0982-0.21999l-0.14711-0.39596c0-0.088-0.0494-0.17592-0.0494-0.30792zm3.2854 0.17596-0.0493-0.26394 0.14713 0.39593-0.0978-0.21997 0.19615 0.35194-0.19615-0.26396 0.29421 0.35196-0.19618-0.17596 0.34327 0.26395-0.24515-0.17599 0.39228 0.17599-0.29422-0.088 0.44133 0.13198-0.34326-0.088 0.44132 0.0439h-0.34326l0.49039-0.0439-0.3923 0.088 0.44134-0.13198-0.24519 0.088 0.39229-0.21996-0.29423 0.21996 0.34329-0.26395-0.19616 0.17596 0.29422-0.30796-0.19616 0.21996 0.19616-0.35194-0.098 0.21997 0.14711-0.39593-0.0494 0.26394 0.0494-0.43993v0.26397l-0.0494-0.43992 0.0494 0.26394-0.14711-0.39595 0.098 0.21997-0.19616-0.35195 0.19616 0.21996-0.29422-0.30795 0.19616 0.17598-0.34329-0.26395 0.29423 0.17596-0.39229-0.17596 0.24519 0.088-0.44134-0.13196 0.3923 0.088-0.49039-0.0439h0.34326l-0.44132 0.0439 0.34326-0.088-0.44133 0.13196 0.29422-0.088-0.39228 0.17596 0.24515-0.17596-0.34327 0.26395 0.19618-0.17598-0.29421 0.35198 0.19615-0.26399-0.19615 0.35195 0.0978-0.21997-0.14713 0.39595 0.0493-0.26394-0.0493 0.43992v-0.26397z" stroke="#000" stroke-width=".046448px"/>
  <path id="path3266" fill-rule="evenodd" d="m488 423.93c0-1.2098 1.0543-2.1998 2.3293-2.1998 1.2995 0 2.3293 0.98986 2.3293 2.1998 0 1.2318-1.0297 2.2217-2.3293 2.2217-1.275 0-2.3293-0.9899-2.3293-2.2217"/>
  <path id="path3268" stroke-linejoin="round" d="m485.27 424.08v-0.28595l0.0493-0.46195c0.0243-0.088 0.0243-0.17598 0.0734-0.26395l0.12259-0.41795c0.0242-0.0658 0.0733-0.15398 0.0979-0.21999l0.22066-0.37395c0.0494-0.11001 0.0982-0.19796 0.17165-0.26394l0.29421-0.32996c0.0734-0.0661 0.12263-0.132 0.19616-0.17599l0.34325-0.28594c0.0981-0.0662 0.19615-0.132 0.29422-0.176l0.39235-0.19797c0.0733-0.0439 0.1716-0.088 0.26968-0.10999l0.44135-0.13199c0.12259-0.0439 0.24519-0.0659 0.34325-0.0659l0.46583-0.0439c0.12263-0.022 0.24519-0.022 0.34329 0l0.46585 0.0439c0.1226 0 0.2452 0.022 0.36779 0.0659l0.44133 0.13199c0.0979 0.022 0.17163 0.0658 0.26973 0.10999l0.39229 0.19797c0.0979 0.0439 0.19615 0.11003 0.29421 0.176l0.34327 0.28594c0.0733 0.0439 0.1226 0.11 0.19615 0.17599l0.29421 0.32996c0.0493 0.0659 0.12259 0.15396 0.17165 0.26394l0.22069 0.37395c0.0242 0.066 0.0732 0.154 0.098 0.21999l0.12259 0.41795c0.0493 0.088 0.0493 0.17597 0.0733 0.26395l0.0494 0.46195v0.28595l-0.0494 0.43996c-0.0243 0.10999-0.0243 0.19797-0.0733 0.26393l-0.12259 0.41797c-0.0242 0.088-0.0732 0.17596-0.098 0.26396l-0.22069 0.37395c-0.0494 0.088-0.1226 0.17597-0.17165 0.26398l-0.29421 0.32993c-0.0734 0.0659-0.1226 0.11003-0.19615 0.17596l-0.34327 0.264c-0.098 0.0657-0.19614 0.13198-0.29421 0.19796l-0.39229 0.19797c-0.098 0.0439-0.17166 0.066-0.26973 0.11002l-0.44133 0.13197c-0.1226 0.022-0.24519 0.0439-0.36779 0.066l-0.46585 0.0439h-0.34329l-0.46583-0.0439c-0.0983-0.022-0.22066-0.0439-0.34325-0.066l-0.44135-0.13197c-0.0981-0.0439-0.19614-0.0658-0.26968-0.11002l-0.39235-0.19797c-0.0982-0.0661-0.19613-0.13196-0.29422-0.19796l-0.34325-0.264-0.19616-0.17596-0.29421-0.32993c-0.0732-0.088-0.12262-0.17597-0.17165-0.26398l-0.22066-0.37395c-0.0243-0.088-0.0734-0.17596-0.0979-0.26396l-0.1471-0.41797c-0.0243-0.0659-0.0243-0.15396-0.0493-0.26393zm3.3101 0.15399-0.0493-0.26398 0.1226 0.41795-0.098-0.24196 0.19613 0.37396-0.17162-0.26398 0.29421 0.32997-0.1961-0.17601 0.34324 0.286-0.29422-0.19798 0.39229 0.19798-0.2697-0.11004 0.44131 0.13201-0.36778-0.066 0.46587 0.0439h-0.34328l0.46589-0.0439-0.34326 0.066 0.44132-0.13201-0.26969 0.11004 0.39231-0.19798-0.29424 0.19798 0.34326-0.286-0.19615 0.17601 0.29421-0.32997-0.17161 0.26398 0.19616-0.37396-0.0981 0.24196 0.12261-0.41795-0.0492 0.26398 0.0492-0.43994v0.28595l-0.0492-0.46194 0.0732 0.28597-0.14709-0.41792 0.0981 0.24194-0.19615-0.37395 0.17165 0.26396-0.29426-0.32994 0.19616 0.176-0.34326-0.26399 0.29424 0.17597-0.39231-0.19796 0.26971 0.11001-0.44134-0.132 0.3433 0.066-0.4659-0.0439h0.34326l-0.46585 0.0439 0.36779-0.066-0.44133 0.132 0.26968-0.11001-0.39228 0.19796 0.29422-0.17597-0.34328 0.26399 0.19614-0.176-0.29419 0.32994 0.17162-0.26396-0.19616 0.37395 0.0982-0.24194-0.1471 0.41792 0.0733-0.28597-0.0493 0.46194v-0.28595z" stroke="#000" stroke-width=".023224px"/>
  <path id="path3270" stroke-linejoin="round" d="m488.64 457.57v22.167h-1.6182v-22.167h1.6182zm4.0947 20.606-4.9038 9.3236-4.9038-9.3236h9.8076z" stroke="#000" stroke-width=".023905px"/>
  <path id="path3272" stroke-linejoin="round" d="m494.62 466.72-13.192 8.7329 0.71106 0.87991 13.192-8.7329z" stroke="#000" stroke-width=".023224px"/>
  <text id="text3274" font-size="12.449px" xml:space="preserve" transform="scale(1.0558 .94718)" y="497.98865" x="451.55243" font-family="Arial" fill="#000000">5</text>
  <path id="path3276" stroke-linejoin="round" d="m578.39 423.13-12.704-0.20956-0.0307 1.4523 12.753 0.21171-0.0182-1.4544zm-11.033-3.8356-9.8558 4.2332 9.7155 4.5702 0.14011-8.8032z" stroke="#000" stroke-width=".046448px"/>
  <path id="path3278" stroke-linejoin="round" d="m577.87 467.29v-107.38h-1.2173v107.38z" stroke="#000" stroke-width=".054659px"/>
  <path id="path3280" stroke-linejoin="round" d="m517.84 347.68-0.28687-43.072 1.231-0.0169 0.28687 43.072z" stroke="#000" stroke-width=".061001px"/>
  <path id="path3282" stroke-linejoin="round" d="m578.25 458.8v20.898h-1.6182v-20.898h1.6182zm4.119 19.446-4.9038 8.7988-4.9038-8.7988h9.8076z" stroke="#000" stroke-width=".046448px"/>
  <path id="path3284" stroke-linejoin="round" d="m584.22 467.1-13.192 8.7549 0.73558 0.87987 13.192-8.7549z" stroke="#000" stroke-width=".046448px"/>
  <text id="text3286" font-size="12.449px" xml:space="preserve" transform="scale(1.0558 .94718)" y="496.77231" x="534.38739" font-family="Arial" fill="#000000">5</text>
  <path id="path3288" stroke-linejoin="round" d="m623.67 347.64h44.503v1.113h-44.503z" stroke="#000" stroke-width=".032109px"/>
  <path id="path3290" stroke-linejoin="round" d="m667.84 425.74-12.538 0.15525 0.004-1.4578 12.533-0.19908 0.00027 1.5016zm-10.803 3.7719-9.9197-4.2481 9.7443-4.5269 0.17547 8.775z" stroke="#000" stroke-width=".046448px"/>
  <path id="path3292" stroke-linejoin="round" d="m667.87 469v-121.42h-1.2122v121.42z" stroke="#000" stroke-width=".059482px"/>
  <path id="path3296" stroke-linejoin="round" d="m674.05 464.06-13.192 8.7549 0.73556 0.87987 13.192-8.7109z" stroke="#000" stroke-width=".046448px"/>
  <text id="text3298" font-size="12.449px" xml:space="preserve" transform="scale(1.0558 .94718)" y="495.03476" x="619.69354" font-family="Arial" fill="#000000">5</text>
  <path id="path3300" stroke-linejoin="round" d="m668.08 457.13v20.943h-1.6182v-20.943h1.6182zm4.0701 19.446-4.9038 8.7988-4.9038-8.7988h9.8075z" stroke="#000" stroke-width=".046448px"/>
  <path id="path3302" stroke-linejoin="round" d="m755.16 482.07c0-0.45926 0.30045-0.86745 0.63844-0.86745h54.381c0.37557 0 0.63844 0.40819 0.63844 0.86745v33.781c0 0.45928-0.26287 0.81647-0.63844 0.81647h-54.381c-0.33799 0-0.63844-0.35719-0.63844-0.81647zm1.2392 33.781-0.60091-0.86743h54.381l-0.60088 0.86743v-33.781l0.60088 0.86742h-54.381l0.60091-0.86742z" stroke="#000" stroke-width=".043777px"/>
  <text id="text3304" font-size="15.445px" xml:space="preserve" transform="scale(1.0558 .94718)" y="537.784" x="724.8006" font-family="Arial" line-height="125%" fill="#000000">MUX</text>
  <path id="path3306" stroke-linejoin="round" d="m809.75 500.61h14.81v1.0998h-14.81z" stroke="#000" stroke-width=".046448px"/>
  <path id="path3308" stroke-linejoin="round" d="m785.82 516.09v13.461h-1.6673v-13.461h1.6673zm4.0701 12.012-4.9038 8.7988-4.9038-8.7988h9.8076z" stroke="#000" stroke-width=".046448px"/>
  <path id="path3310" stroke-linejoin="round" d="m754.98 274.15c0-0.39591 0.44528-0.74778 1.0178-0.74778h60.111c0.57253 0 1.0814 0.35187 1.0814 0.74778v30.658c0 0.39587-0.50885 0.74777-1.0814 0.74777h-60.111c-0.57251 0-1.0178-0.3519-1.0178-0.74777zm1.5422 30.711-0.52458-0.79972h60.111l-0.47729 1.0195 0.0902-31.02 0.38719 0.83834h-60.111l0.57521-0.64379z" stroke="#000" stroke-width=".052897px"/>
  <text id="text3312" font-size="15.179px" xml:space="preserve" transform="scale(1.0558 .94718)" y="311.01404" x="719.43451" font-family="Arial" line-height="125%" fill="#000000">SelCop</text>
  <path id="path3314" fill-rule="evenodd" d="m665.92 425.19c0-1.2318 1.0298-2.2437 2.3539-2.2437 1.275 0 2.3048 1.0118 2.3048 2.2437 0 1.2318-1.0298 2.1998-2.3048 2.1998-1.324 0-2.3539-0.96788-2.3539-2.1998"/>
  <path id="path3316" stroke-linejoin="round" d="m663.52 424.96v-0.26396l0.0494-0.48393c0-0.088 0.0493-0.176 0.0493-0.26399l0.14709-0.39595c0.0493-0.088 0.0493-0.17597 0.098-0.26395l0.24517-0.35197c0.0493-0.088 0.098-0.17596 0.14709-0.26396l0.29424-0.30797c0.0494-0.088 0.0978-0.13196 0.19617-0.21995l0.34327-0.26397c0.0981-0.088 0.19616-0.13197 0.29422-0.17597l0.39229-0.22c0.0983-0.0439 0.19617-0.0439 0.29424-0.088l0.44134-0.13198c0.0983-0.0439 0.19613-0.0439 0.34328-0.088l0.44133-0.0439h0.34325l0.49038 0.0439c0.0979 0.0439 0.19612 0.0439 0.34327 0.088l0.44131 0.13198c0.0978 0.0439 0.19617 0.0439 0.29426 0.088l0.39227 0.22c0.0981 0.0439 0.19617 0.088 0.24522 0.17597l0.34323 0.26397 0.19617 0.17596 0.29422 0.35196c0.0981 0.088 0.14712 0.17598 0.19613 0.26396l0.19617 0.35197c0.0494 0.088 0.0981 0.17599 0.0981 0.26395l0.14708 0.39595c0.0493 0.088 0.0493 0.17597 0.0493 0.26399l0.0494 0.48393c0.0493 0.088 0.0493 0.17595 0 0.26396l-0.0494 0.43993c0 0.13197 0 0.21997-0.0493 0.30798l-0.14708 0.39593c0 0.088-0.0493 0.17597-0.0981 0.21995l-0.19617 0.39596c-0.0494 0.088-0.0978 0.17596-0.19613 0.26397l-0.29422 0.30796c-0.0494 0.088-0.0983 0.13197-0.19617 0.17597l-0.34323 0.30797c-0.0494 0.0439-0.14713 0.13197-0.24522 0.17597l-0.39227 0.17598c-0.0979 0.0439-0.19615 0.088-0.29426 0.13198l-0.44131 0.13199c-0.14715 0.0439-0.24518 0.0439-0.34327 0.0439l-0.49038 0.0439c-0.0982 0.0439-0.19616 0.0439-0.34325 0l-0.44133-0.0439c-0.14715 0-0.2452 0-0.34328-0.0439l-0.44134-0.13199c-0.0983-0.0439-0.19616-0.088-0.29424-0.13198l-0.39229-0.17598c-0.0981-0.0439-0.19615-0.13199-0.29422-0.17597l-0.34327-0.30797c-0.0982-0.0439-0.14711-0.13196-0.19617-0.17597l-0.29424-0.35193c-0.0493-0.0439-0.0979-0.13199-0.14709-0.22l-0.24517-0.39596c0-0.0439-0.0494-0.13195-0.098-0.21995l-0.0982-0.39593c-0.0494-0.088-0.0981-0.17601-0.0981-0.30798zm3.3346 0.17598-0.098-0.26399 0.14714 0.39598-0.0982-0.21999 0.19614 0.35195-0.1471-0.21999 0.29423 0.30799-0.2452-0.17599 0.34326 0.26396-0.24519-0.17597 0.39232 0.17597-0.29423-0.088 0.44134 0.13196-0.34327-0.088 0.44133 0.0439h-0.34329l0.4904-0.0439-0.34326 0.088 0.44135-0.13196-0.29422 0.088 0.39227-0.17597-0.2942 0.17597 0.34324-0.26396-0.19615 0.17599 0.29424-0.35195-0.19616 0.26395 0.24518-0.35195-0.0982 0.21999 0.0982-0.39598-0.0493 0.26399 0.0493-0.43994v0.26396l-0.0493-0.43995 0.0493 0.26397-0.14711-0.43995 0.14711 0.26397-0.24518-0.35197 0.19616 0.26398-0.29424-0.35194 0.19615 0.17596-0.34324-0.26397 0.2942 0.17597-0.39227-0.17597 0.29422 0.088-0.44135-0.13199 0.34326 0.088-0.4904-0.0439h0.34329l-0.44133 0.0439 0.34327-0.088-0.44134 0.13199 0.29423-0.088-0.39232 0.17597 0.24519-0.17597-0.34326 0.26397 0.2452-0.21998-0.29423 0.35196 0.1471-0.21998-0.19614 0.35197 0.0982-0.26397-0.14714 0.43995 0.098-0.26397-0.0493 0.43995v-0.26396z" stroke="#000" stroke-width=".046448px"/>
  <path id="path3318" stroke-linejoin="round" d="m796.49 347.36 0.33877 128.13-1.6188-0.008-0.33877-128.13 1.6188 0.008zm4.4246 126.81-4.8891 7.5533-4.9229-7.5376 9.812-0.0154z" stroke="#000" stroke-width=".043020px"/>
  <path id="path3320" stroke-linejoin="round" d="m770.37 374.75 0.4902 98.964h-1.6176l-0.53922-98.914 1.6666-0.0507zm4.5586 97.246-4.8528 10.098-4.951-10.048 9.8037-0.0506z" stroke="#000" stroke-width=".049750px"/>
  <text id="text3322" font-size="13.75px" line-height="125%" transform="scale(1.0558 .94718)" y="523.43445" x="773.77173" font-family="Arial" xml:space="preserve" fill="#000000">MC</text>
  <path id="path3324" stroke-linejoin="round" d="m799.8 448.29-13.192 8.7549 0.73555 0.87987 13.192-8.7109z" stroke="#000" stroke-width=".046448px"/>
  <path id="path3326" stroke-linejoin="round" d="m767.85 423.29-13.192 8.7109 0.68653 0.92385 13.192-8.7549z" stroke="#000" stroke-width=".046448px"/>
  <text id="text3328" font-size="12.449px" xml:space="preserve" transform="matrix(-.075745 -.99777 .99708 -.067955 0 0)" line-height="125%" y="729.52576" x="-507.1066" font-family="Arial" fill="#000000"><tspan id="tspan4439" y="729.52576" x="-507.1066">IR3 -- IR0</tspan></text>
  <text id="text3330" font-size="12.449px" xml:space="preserve" transform="scale(1.0558 .94718)" y="478.33493" x="739.10211" font-family="Arial" fill="#000000">4</text>
  <text id="text3332" font-size="12.449px" xml:space="preserve" transform="scale(1.0558 .94718)" y="496.91159" x="422.98605" font-family="Arial" fill="#000000">5</text>
  <text id="text3334" font-size="12.449px" xml:space="preserve" transform="scale(1.0558 .94718)" y="496.29807" x="506.04242" font-family="Arial" fill="#000000">5</text>
  <text id="text3336" font-size="12.449px" xml:space="preserve" transform="scale(1.0558 .94718)" y="493.91425" x="589.26483" font-family="Arial" fill="#000000">5</text>
  <text id="text3338" font-size="11.491px" line-height="125%" transform="scale(1.0558 .94718)" y="526.31604" x="430.50189" font-family="Arial" xml:space="preserve" fill="#000000">0</text>
  <text id="text3340" font-size="11.491px" line-height="125%" transform="scale(1.0558 .94718)" y="526.57996" x="457.6012" font-family="Arial" xml:space="preserve" fill="#000000">1</text>
  <text id="text3342" font-size="15.42px" xml:space="preserve" transform="scale(1.0558 .94718)" y="585.81085" x="522.75885" font-family="Arial" fill="#000000">RB</text>
  <text id="text3344" font-size="15.42px" xml:space="preserve" transform="scale(1.0558 .94718)" y="584.70001" x="607.48553" font-family="Arial" fill="#000000">RC</text>
  <text id="text3346" font-size="15.42px" xml:space="preserve" transform="scale(1.0558 .94718)" y="585.26971" x="439.65741" font-family="Arial" fill="#000000">RA</text>
  <text id="text3348" font-size="15.42px" xml:space="preserve" transform="scale(1.0558 .94718)" y="582.99066" x="730.08942" font-family="Arial" fill="#000000">Cop</text>
  <text id="text3350" font-size="11.491px" line-height="125%" transform="scale(1.0558 .94718)" y="526.31604" x="514.68433" font-family="Arial" xml:space="preserve" fill="#000000">0</text>
  <text id="text3352" font-size="11.491px" line-height="125%" transform="scale(1.0558 .94718)" y="526.5799" x="542.99188" font-family="Arial" xml:space="preserve" fill="#000000">1</text>
  <text id="text3354" font-size="11.491px" line-height="125%" transform="scale(1.0558 .94718)" y="521.25397" x="726.94757" font-family="Arial" xml:space="preserve" fill="#000000">0</text>
  <text id="text3356" font-size="11.491px" line-height="125%" transform="scale(1.0558 .94718)" y="520.62451" x="751.16949" font-family="Arial" xml:space="preserve" fill="#000000">1</text>
  <text id="text3358" font-size="14.177px" xml:space="preserve" transform="scale(1.0558 .94718)" y="174.97681" x="245.9113" font-family="Arial" line-height="125%" fill="#000000">A1</text>
  <text id="text3362" font-size="18.579px" xml:space="preserve" transform="scale(1.0558 .94718)" y="295.96936" x="239.0338" font-family="Arial" fill="#000000">MUX B</text>
  <path id="path3364" stroke-linejoin="round" d="m241.81 303.47c0 0.41798 0.27318 0.74794 0.64397 0.74794h81.143c0.35124 0 0.64398-0.32996 0.64398-0.74794v-46.789c0-0.39598-0.29274-0.72595-0.64398-0.72595h-81.143c-0.37079 0-0.64397 0.32997-0.64397 0.72595zm1.288-46.789-0.64397 0.72595h81.143l-0.64401-0.72595v46.789l0.64401-0.72594h-81.143l0.64397 0.72594z" stroke="#000" stroke-width=".020719px"/>
  <text id="text3366" font-size="12.888px" line-height="125%" transform="scale(1.0558 .94718)" y="313.57306" x="249.07057" font-family="Arial" xml:space="preserve" fill="#000000">0</text>
  <text id="text3368" font-size="12.888px" line-height="125%" transform="scale(1.0558 .94718)" y="313.83673" x="277.91238" font-family="Arial" xml:space="preserve" fill="#000000">1</text>
  <path id="path3372" stroke-linejoin="round" d="m298.49 324.7v-13.461h-1.6427v13.461h1.6427zm4.0701-11.989-4.9038-8.7988-4.9038 8.7988h9.8075z" stroke="#000" stroke-width=".023224px"/>
  <text id="text3374" font-size="14.177px" xml:space="preserve" transform="scale(1.0558 .94718)" y="75.162125" x="204.49574" font-family="Arial" line-height="125%" fill="#000000">00</text>
  <text id="text3376" font-size="14.177px" xml:space="preserve" transform="scale(1.0558 .94718)" y="103.28908" x="204.49574" font-family="Arial" line-height="125%" fill="#000000"><tspan id="tspan5996" y="103.28908" x="204.49574">01</tspan></text>
  <text id="text3378" font-size="14.177px" xml:space="preserve" transform="scale(1.0558 .94718)" y="131.416" x="203.66316" font-family="Arial" line-height="125%" fill="#000000"><tspan id="tspan5998" y="131.416" x="203.66316">10</tspan></text>
  <text id="text3380" font-size="14.177px" xml:space="preserve" transform="scale(1.0558 .94718)" y="159.54295" x="203.66316" font-family="Arial" line-height="125%" fill="#000000">11</text>
  <path id="path3382" fill-rule="evenodd" fill="#fff" d="m288.51 347.56 9.268-16.63 9.2682 16.63z"/>
  <path id="path3384" stroke-linejoin="round" d="m288.51 343.77c-0.22071 0-0.41686-0.0833-0.5395-0.19931-0.0979-0.13282-0.12259-0.28228-0.0243-0.39851l9.2696-12.554c0.098-0.14944 0.3188-0.23248 0.56402-0.23248 0.2207 0 0.4414 0.0832 0.5395 0.23248l9.2696 12.554c0.0982 0.11623 0.0733 0.26569-0.0243 0.39851-0.12261 0.11625-0.3188 0.19931-0.51497 0.19931zm18.54-0.83027-0.56401 0.5978-9.2696-12.554h1.1035l-9.2696 12.554-0.53949-0.5978z" stroke="#000" stroke-width=".020180px"/>
  <path id="path3386" fill-rule="evenodd" fill="#fff" d="m293 327.34c0-2.2877 2.084-4.1573 4.6339-4.1573 2.5745 0 4.634 1.8696 4.634 4.1573s-2.0596 4.1573-4.634 4.1573c-2.5501 0-4.6339-1.8696-4.6339-4.1573"/>
  <path id="path3388" stroke-linejoin="round" d="m292.41 327.42c-0.0243-0.0439-0.0243-0.088 0-0.13201l0.0981-0.83587c0-0.022 0-0.066 0.0243-0.088l0.26969-0.7919c0-0.022 0.0243-0.0659 0.0243-0.088l0.41683-0.70392c0.0243-0.0439 0.0492-0.0657 0.0732-0.11003l0.58845-0.61592 0.0734-0.0659 0.68656-0.50593c0.0243-0.022 0.0734-0.0439 0.098-0.0439l0.78458-0.39595c0.0242-0.022 0.0733-0.022 0.12262-0.0439l0.85816-0.24199c0.0494 0 0.0734-0.022 0.12262-0.022l0.93168-0.088h0.12261l0.93169 0.088c0.0494 0 0.0734 0.022 0.12261 0.022l0.85816 0.24199c0.0494 0.022 0.0734 0.022 0.12262 0.0439l0.78458 0.39595c0.0243 0 0.0734 0.022 0.0978 0.0439l0.68657 0.50593 0.0734 0.0659 0.58848 0.61592c0.0243 0.0439 0.0494 0.066 0.0734 0.11003l0.41682 0.70392c0 0.022 0.0243 0.0661 0.0243 0.088l0.26971 0.7919c0.0242 0.022 0.0242 0.0661 0.0242 0.088l0.0983 0.83587c0.0243 0.0439 0.0243 0.088 0 0.13201l-0.0983 0.83587c0 0.022 0 0.0659-0.0242 0.088l-0.26971 0.79189c0 0.022-0.0243 0.0659-0.0243 0.088l-0.41682 0.70391c-0.0243 0.0439-0.0494 0.0662-0.0734 0.11003l-0.58848 0.61592-0.0734 0.0659-0.68657 0.50594c-0.0243 0.022-0.0734 0.0439-0.0978 0.066l-0.78458 0.37396c-0.0494 0.022-0.0732 0.022-0.12262 0.0439l-0.85816 0.24197c-0.0494 0-0.0734 0.0219-0.12261 0.0219l-0.93169 0.088h-0.12261l-0.93168-0.088c-0.0494 0-0.0734-0.0219-0.12262-0.0219l-0.85816-0.24197c-0.0494-0.022-0.0734-0.022-0.12262-0.0439l-0.78458-0.37396c-0.0243-0.022-0.0734-0.0439-0.098-0.066l-0.68656-0.50594-0.0734-0.0659-0.58845-0.61592c-0.0244-0.0439-0.0494-0.0659-0.0732-0.11003l-0.41683-0.70391c0-0.0221-0.0243-0.066-0.0243-0.088l-0.26969-0.79189c-0.0243-0.0219-0.0243-0.0657-0.0243-0.088zm1.2995 0.70388-0.0243-0.088 0.26969 0.76991-0.0242-0.088 0.4168 0.70393-0.0734-0.11001 0.56396 0.61592-0.0734-0.0659 0.68652 0.52794-0.0978-0.0659 0.78465 0.37395-0.12265-0.0439 0.88271 0.24198-0.1226-0.022 0.93169 0.088h-0.12262l0.93175-0.088-0.1226 0.022 0.88268-0.24198-0.12263 0.0439 0.78462-0.37395-0.098 0.0659 0.68651-0.52794-0.0734 0.0659 0.56393-0.61592-0.0732 0.11001 0.41679-0.70393-0.0243 0.088 0.26971-0.76991-0.0243 0.088 0.098-0.83589v0.13201l-0.098-0.83587 0.0243 0.088-0.26971-0.76988 0.0243 0.088-0.41679-0.70391 0.0732 0.11001-0.56393-0.61589 0.0734 0.0658-0.68651-0.5059 0.098 0.0439-0.78462-0.37395 0.12263 0.0439-0.88268-0.24195 0.1226 0.022-0.93175-0.088h0.12262l-0.93169 0.088 0.1226-0.022-0.88271 0.24195 0.12265-0.0439-0.78465 0.37395 0.0978-0.0439-0.68652 0.5059 0.0734-0.0658-0.56396 0.61589 0.0734-0.11001-0.4168 0.70391 0.0242-0.088-0.26969 0.76988 0.0243-0.088-0.0981 0.83587v-0.13201z" stroke="#000" stroke-width=".023224px"/>
  <path id="path3390" stroke-linejoin="round" d="m298.76 359.64v-16.63h-1.2259v16.63z" stroke="#000" stroke-width=".023224px"/>
  <path id="path3392" stroke-linejoin="round" d="m264.93 358.82h33.008v1.1013h-33.008z" stroke="#000" stroke-width=".021707px"/>
  <path id="path3394" fill-rule="evenodd" fill="#d9d9d9" d="m437.09 273.66v32.27h23.301v-32.27h-23.301z"/>
  <path id="path3396" stroke-linejoin="round" d="m435.86 273.86c0-0.38334 0.43861-0.70274 1.0338-0.70274h23.274c0.56388 0 1.0338 0.3194 1.0338 0.70274v31.242c0 0.38332-0.4699 0.70274-1.0338 0.70274h-23.274c-0.59518 0-1.0338-0.31942-1.0338-0.70274zm2.0674 31.242-1.0337-0.70278h23.274l-1.0651 0.70278v-31.242l1.0651 0.70276h-23.274l1.0337-0.70276z" stroke="#000" stroke-width=".025830px"/>
  <path id="path3398" fill-rule="evenodd" fill="#d9d9d9" d="m460.68 273.66v32.27h32.439v-32.27h-32.439z"/>
  <path id="path3400" stroke-linejoin="round" d="m459.86 273.86c0-0.38336 0.3433-0.70284 0.80915-0.70284h32.439c0.44135 0 0.80918 0.31948 0.80918 0.70284v31.244c0 0.38335-0.36783 0.7028-0.80918 0.7028h-32.439c-0.46585 0-0.80915-0.31945-0.80915-0.7028zm1.6183 31.244-0.80912-0.70282h32.439l-0.83364 0.70282v-31.244l0.83364 0.70283h-32.439l0.80912-0.70283z" stroke="#000" stroke-width=".022852px"/>
  <path id="path3402" fill-rule="evenodd" fill="#d9d9d9" d="m413.67 273.66v32.27h23.131v-32.27h-23.131z"/>
  <path id="path3404" stroke-linejoin="round" d="m413.29 273.86c0-0.38332 0.43193-0.70275 1.0181-0.70275h22.924c0.55532 0 1.0181 0.31943 1.0181 0.70275v31.242c0 0.38332-0.46279 0.70275-1.0181 0.70275h-22.924c-0.58618 0-1.0181-0.31943-1.0181-0.70275zm2.0362 31.242-1.0182-0.70278h22.924l-1.049 0.70278v-31.242l1.049 0.70275h-22.924l1.0182-0.70275z" stroke="#000" stroke-width=".025633px"/>
  <text id="text3406" font-size="13.9px" xml:space="preserve" transform="scale(1.0558 .94718)" y="311.42822" x="394.62656" font-family="Arial" line-height="125%" fill="#000000">A0</text>
  <text id="text3408" font-size="16.989px" xml:space="preserve" transform="scale(1.0558 .94718)" y="312.59842" x="419.08698" font-family="Arial" line-height="125%" fill="#000000">B</text>
  <text id="text3410" font-size="16.989px" xml:space="preserve" transform="scale(1.0558 .94718)" y="312.59842" x="445.10898" font-family="Arial" line-height="125%" fill="#000000">C</text>
  <text id="text3412" font-size="15.42px" xml:space="preserve" transform="scale(1.0558 .94718)" y="251.58101" x="494.5166" font-family="Arial" fill="#000000">µAddress</text>
  <path id="path3414" stroke-linejoin="round" d="m477.45 305.58v35.306h-1.1988v-35.306z" stroke="#000" stroke-width=".022965px"/>
  <path id="path3416" stroke-linejoin="round" d="m554.96 201.75v21.787h-1.2255v-21.787z" stroke="#000" stroke-width=".023585px"/>
  <path id="path3418" stroke-linejoin="round" d="m493.74 270.68 0.0384-2.5522 0.11489-2.4202 0.0768-1.144 0.11489-1.0561 0.11489-1.0121 0.11491-0.88005 0.11491-0.88006 0.15316-0.74805 0.15322-0.66005 0.19148-0.57203 0.1532-0.44006c0.0385-0.0439 0.0385-0.088 0.0385-0.088l0.19151-0.30803c0.0384-0.0439 0.0384-0.088 0.0765-0.088l0.19149-0.22002c0.0385-0.0439 0.1149-0.088 0.1915-0.13203l0.1915-0.0439c0.0384-0.0439 0.0766-0.0439 0.11489-0.0439h55.609l-0.15316 0.0439 0.19147-0.088-0.19147 0.13198 0.19147-0.17599-0.0764 0.088 0.19147-0.308-0.0385 0.088 0.1532-0.44004 0.15319-0.48405 0.15319-0.61604 0.11489-0.70404 0.1532-0.79206 0.11489-0.88008 0.0767-0.96806 0.11491-1.0561 0.0767-1.1 0.0765-2.3762 0.0386-2.5521c0.0384-0.30802 0.22978-0.52805 0.49787-0.52805 0.26811 0 0.45957 0.22003 0.45957 0.52805l0.0384 2.5961 0.11491 2.3322 0.0766 1.1 0.11491 1.0561 0.0767 0.96806 0.11488 0.88008 0.1532 0.79206 0.11488 0.70404 0.1532 0.61604 0.15321 0.52805 0.15318 0.39603-0.0384-0.088 0.19151 0.308-0.0766-0.088 0.19149 0.17599-0.19149-0.13197 0.19149 0.088-0.15317-0.0439h55.609c0.0385 0 0.0765 0 0.11491 0.0439l0.19152 0.0439c0.0766 0.0439 0.1532 0.088 0.19147 0.13204l0.1915 0.22001c0.0384 0 0.0384 0.0439 0.0766 0.088l0.19148 0.30803s0 0.0439 0.0384 0.088l0.15321 0.39603 0.1915 0.61606 0.15318 0.66005 0.15316 0.74803 0.11495 0.83607 0.11489 0.92406 0.11487 1.0121 0.1149 1.0561 0.0766 1.1 0.0765 2.4202 0.0385 2.5962h-0.95751l-0.0384-2.5522-0.0766-2.3762-0.0767-1.0561-0.1149-1.0561-0.0764-0.96808-0.11492-0.88007-0.15316-0.83605-0.11491-0.66005-0.15319-0.61604-0.15319-0.52803-0.1532-0.39601 0.0385 0.088-0.19151-0.30803 0.0765 0.088-0.19148-0.21999 0.19148 0.13199-0.19148-0.0439h0.15318-55.609-0.11489l-0.1915-0.088c-0.0765 0-0.15319-0.0439-0.19149-0.13203l-0.19147-0.17603c-0.0384-0.0439-0.0384-0.088-0.0767-0.088l-0.19148-0.30805c0-0.0439 0-0.088-0.0384-0.088l-0.15321-0.48403-0.19148-0.57206-0.15321-0.66002-0.15318-0.74806-0.1149-0.83607-0.1149-0.92409-0.11488-0.96804-0.11491-1.1-0.0766-1.1-0.11492-2.4203-0.0385-2.5521h0.95741l-0.0385 2.5521-0.0765 2.4203-0.0766 1.144-0.11491 1.0561-0.11488 0.96803-0.1149 0.92409-0.11491 0.83607-0.15317 0.79205-0.15322 0.66005-0.1915 0.57205-0.1532 0.44003c-0.0385 0-0.0385 0.0439-0.0385 0.088l-0.19149 0.30805c-0.0385 0-0.0385 0.0439-0.0764 0.088l-0.19151 0.17604c-0.0384 0.088-0.11489 0.13201-0.19147 0.13201l-0.19151 0.088h-0.11489-55.609 0.15318l-0.19149 0.0439 0.19149-0.13199-0.19149 0.22 0.0764-0.088-0.19149 0.30803 0.0385-0.088-0.15323 0.39601-0.15318 0.48404-0.15319 0.61606-0.1149 0.70402-0.15319 0.79208-0.11488 0.88005-0.0765 1.0121-0.1149 1.0121-0.0766 1.1-0.11487 2.3762-0.0384 2.5522z" stroke="#000" stroke-width=".041053px"/>
  <path id="path3422" stroke-linejoin="round" d="m98.824 514.18c0-0.36129 0.34093-0.62751 0.75005-0.62751h24.729c0.43183 0 0.77277 0.26622 0.77277 0.62751v26.374c0 0.34228-0.34094 0.62749-0.77277 0.62749h-24.729c-0.40912 0-0.75005-0.28521-0.75005-0.62749zm1.5228 26.374-0.7728-0.62752h24.729l-0.75005 0.62752v-26.374l0.75005 0.62754h-24.729l0.7728-0.62754z" stroke="#000" stroke-width=".020789px"/>
  <text id="text3424" font-size="27.868px" xml:space="preserve" transform="scale(1.0558 .94718)" y="567.14252" x="100.00589" font-family="Arial" fill="#ffffff">º</text>
  <path id="path3426" stroke-linejoin="round" d="m123.7 514.18c0-0.3613 0.32301-0.62752 0.71062-0.62752h23.429c0.38759 0 0.71059 0.26622 0.71059 0.62752v26.375c0 0.34228-0.323 0.6275-0.71059 0.6275h-23.429c-0.38761 0-0.71062-0.28522-0.71062-0.6275zm1.4427 26.375-0.73211-0.62753h23.429l-0.71061 0.62753v-26.375l0.71061 0.62755h-23.429l0.73211-0.62755z" stroke="#000" stroke-width=".020235px"/>
  <path id="path3428" stroke-linejoin="round" d="m147.22 514.18c0-0.36129 0.35379-0.62749 0.77834-0.62749h25.662c0.42456 0 0.77836 0.2662 0.77836 0.62749v26.374c0 0.34227-0.3538 0.62746-0.77836 0.62746h-25.662c-0.42455 0-0.77834-0.28519-0.77834-0.62746zm1.5566 26.374-0.77834-0.62752h25.662l-0.77835 0.62752v-26.374l0.77835 0.62754h-25.662l0.77834-0.62754z" stroke="#000" stroke-width=".021177px"/>
  <path id="path3430" stroke-linejoin="round" d="m224.92 514.18c0-0.3613 0.33054-0.62753 0.72722-0.62753h23.977c0.39666 0 0.72718 0.26623 0.72718 0.62753v26.375c0 0.34229-0.33052 0.62751-0.72718 0.62751h-23.977c-0.39668 0-0.72722-0.28522-0.72722-0.62751zm1.4764 26.375-0.74927-0.62752h23.976l-0.72719 0.62752v-26.375l0.72719 0.62754h-23.976l0.74927-0.62754z" stroke="#000" stroke-width=".020470px"/>
  <path id="path3432" stroke-linejoin="round" d="m249.18 514.18c0-0.36128 0.34343-0.6275 0.75556-0.6275h24.91c0.41211 0 0.75551 0.26622 0.75551 0.6275v26.374c0 0.34227-0.3434 0.62748-0.75551 0.62748h-24.91c-0.41213 0-0.75556-0.28521-0.75556-0.62748zm1.511 26.374-0.75555-0.62752h24.91l-0.77842 0.62752v-26.374l0.77842 0.62754h-24.91l0.75555-0.62754z" stroke="#000" stroke-width=".020865px"/>
  <text id="text3434" font-size="15.42px" xml:space="preserve" transform="scale(1.0558 .94718)" y="562.21765" x="100.45802" font-family="Arial" line-height="125%" fill="#000000"><tspan id="tspan3657" y="562.21765" x="100.45802">C</tspan></text>
  <text id="text3436" font-size="15.42px" xml:space="preserve" transform="scale(1.0558 .94718)" y="562.21765" x="123.72836" font-family="Arial" line-height="125%" fill="#000000"><tspan id="tspan3655" y="562.21765" x="123.72836">V</tspan></text>
  <text id="text3438" font-size="15.42px" xml:space="preserve" transform="scale(1.0558 .94718)" y="562.21765" x="146.94272" font-family="Arial" line-height="125%" fill="#000000"><tspan id="tspan3653" y="562.21765" x="146.94272">N</tspan></text>
  <text id="text3440" font-size="15.42px" xml:space="preserve" transform="scale(1.0558 .94718)" y="562.21765" x="223.4995" font-family="Arial" fill="#000000">I</text>
  <text id="text3442" font-size="15.42px" xml:space="preserve" transform="scale(1.0558 .94718)" y="562.21765" x="243.06194" font-family="Arial" fill="#000000">U</text>
  <path id="path3444" stroke-linejoin="round" d="m199.55 514.18c0-0.36136 0.15717-0.62764 0.37048-0.62764h26.27c0.21329 0 0.38173 0.26628 0.38173 0.62764v26.38c0 0.34235-0.16844 0.62762-0.38173 0.62762h-26.27c-0.21331 0-0.37048-0.28527-0.37048-0.62762zm0.74094 26.38-0.37048-0.62766h26.27l-0.37048 0.62766v-26.38l0.37048 0.62768h-26.27l0.37048-0.62768z" stroke="#000" stroke-width=".014612px"/>
  <text id="text3446" font-size="12.768px" xml:space="preserve" transform="scale(1.0558 .94718)" y="584.66669" x="98.971092" font-family="Arial" line-height="125%" fill="#000000">31</text>
  <text id="text3448" font-size="12.768px" xml:space="preserve" transform="scale(1.0558 .94718)" y="584.66669" x="121.11124" font-family="Arial" line-height="125%" fill="#000000">30</text>
  <text id="text3450" font-size="12.768px" xml:space="preserve" transform="scale(1.0558 .94718)" y="584.66669" x="145.5424" font-family="Arial" line-height="125%" fill="#000000">29</text>
  <text id="text3452" font-size="12.768px" xml:space="preserve" transform="scale(1.0558 .94718)" y="584.66669" x="222.62845" font-family="Arial" line-height="125%" fill="#000000">1</text>
  <text id="text3454" font-size="14.045px" xml:space="preserve" transform="scale(1.0558 .94718)" y="514.02313" x="256.08463" font-family="Arial" line-height="125%" fill="#000000"><tspan id="tspan14887" x="256.08463" y="514.02313">MRdy</tspan></text>
  <text id="text3456" font-size="14.045px" xml:space="preserve" transform="scale(1.0558 .94718)" y="538.09766" x="281.73709" font-family="Arial" line-height="125%" fill="#000000"><tspan id="tspan14885" x="281.73709" y="538.09766">IORdy</tspan></text>
  <text id="text3458" font-size="14.045px" xml:space="preserve" transform="scale(1.0558 .94718)" y="514.56409" x="314.05811" font-family="Arial" line-height="125%" fill="#000000"><tspan id="tspan14889" x="314.05811" y="514.56409">INT</tspan></text>
  <text id="text3460" font-size="12.356px" xml:space="preserve" transform="scale(1.0558 .94718)" y="467.36246" x="149.50601" font-family="Arial" line-height="125%" fill="#000000">7</text>
  <text id="text3462" font-size="12.356px" xml:space="preserve" transform="scale(1.0558 .94718)" y="467.36243" x="173.04414" font-family="Arial" line-height="125%" fill="#000000">6</text>
  <text id="text3464" font-size="12.356px" xml:space="preserve" transform="scale(1.0558 .94718)" y="467.60849" x="221.72774" font-family="Arial" line-height="125%" fill="#000000">5</text>
  <text id="text3466" font-size="12.356px" xml:space="preserve" transform="scale(1.0558 .94718)" y="467.36243" x="245.1312" font-family="Arial" line-height="125%" fill="#000000">4</text>
  <text id="text3468" font-size="12.356px" xml:space="preserve" transform="scale(1.0558 .94718)" y="467.36246" x="270.70422" font-family="Arial" line-height="125%" fill="#000000">3</text>
  <text id="text3470" font-size="12.356px" xml:space="preserve" transform="scale(1.0558 .94718)" y="467.36246" x="297.65167" font-family="Arial" line-height="125%" fill="#000000">2</text>
  <text id="text3472" font-size="12.356px" xml:space="preserve" transform="scale(1.0558 .94718)" y="467.36246" x="320.99243" font-family="Arial" line-height="125%" fill="#000000">1</text>
  <text id="text3474" font-size="12.356px" xml:space="preserve" transform="scale(1.0558 .94718)" y="467.36246" x="344.55225" font-family="Arial" line-height="125%" fill="#000000">0</text>
  <text id="text3476" font-size="12.356px" xml:space="preserve" transform="scale(1.0558 .94718)" y="467.36246" x="125.88782" font-family="Arial" line-height="125%" fill="#000000">8</text>
  <path id="path3480" stroke-linejoin="round" d="m238.86 514.48v-60.651h-1.6182v60.651h1.6182zm4.0948-59.44-4.9038-7.2246-4.9038 7.2246h9.8075z" stroke="#000" stroke-width=".021044px"/>
  <path id="path3482" stroke-linejoin="round" d="m263.44 514.48v-60.651h-1.6428v60.651h1.6428zm4.0703-59.44-4.9038-7.2246-4.9038 7.2246h9.8076z" stroke="#000" stroke-width=".021044px"/>
  <path id="path3484" stroke-linejoin="round" d="m137.56 514.71v-60.628h-1.6428v60.628h1.6428zm4.0704-59.437-4.9038-7.2241-4.9038 7.2241h9.8077z" stroke="#000" stroke-width=".021044px"/>
  <path id="path3486" stroke-linejoin="round" d="m161.8 514.71v-60.628h-1.6428v60.628h1.6428zm4.0704-59.437-4.9038-7.2241-4.9038 7.2241h9.8077z" stroke="#000" stroke-width=".021044px"/>
  <path id="path3488" stroke-linejoin="round" d="m187.49 514.79v-60.651h-1.6182v60.651h1.6182zm4.0948-59.44-4.9038-7.2246-4.9038 7.2246h9.8075z" stroke="#000" stroke-width=".021044px"/>
  <path id="path3490" stroke-linejoin="round" d="m636.04 449.75v29.536h-1.6181v-29.536h1.6181zm4.1188 28.118-4.9035 8.5857-4.9035-8.5857h9.807z" stroke="#000" stroke-width=".045880px"/>
  <path id="path3492" stroke-linejoin="round" d="m547.59 452.63v28.113h-1.6427v-28.113h1.6427zm4.07 26.766-4.9037 8.1727-4.9037-8.1727h9.8073z" stroke="#000" stroke-width=".022383px"/>
  <path id="path3494" stroke-linejoin="round" d="m459.27 450.79v30.215h-1.6426v-30.215h1.6426zm4.0945 28.767-4.9035 8.7831-4.9035-8.7831h9.807z" stroke="#000" stroke-width=".023203px"/>
  <path id="path3496" stroke-linejoin="round" d="m419.09 425.68h-28.381v1.4531h28.381v-1.4531zm-27.689-3.6768-4.1342 4.4033 4.1342 4.4034v-8.8066z" stroke="#000" stroke-width=".015085px"/>
  <path id="path3498" stroke-linejoin="round" d="m418.56 340.45h58.308v1.1009h-58.308z" stroke="#000" stroke-width=".021911px"/>
  <path id="path3500" stroke-linejoin="round" d="m127.87 201.77h427.22v1.334h-427.22z" stroke="#000" stroke-width=".023379px"/>
  <path id="path3502" stroke-linejoin="round" d="m848.46 549-0.11284-18.183 1.2626-0.006 0.11287 18.183z" stroke="#000" stroke-width=".028946px"/>
  <path id="path3504" stroke-linejoin="round" d="m97.6 92.69h102.89v1.4632h-102.89v-1.4632zm101.88-3.6635 6.0373 4.4006-6.0373 4.4006v-8.8013z" stroke="#000" stroke-width=".0091119px"/>
  <path id="path3118-3" stroke-linejoin="round" d="m390.04 159.82v-15.331h-1.6428v15.331h1.6428zm4.0701-13.857-4.9038-8.7988-4.9038 8.7988h9.8076z" stroke="#000" stroke-width=".023224px"/>
  <g id="g4875" stroke-linejoin="round" stroke="#000" stroke-width=".043902px" transform="matrix(.76382 0 0 1.0728 91.093 -11.085)">
   <path id="path3042-5" d="m358.27 176.57h12.482v1.0923h-12.482z"/>
   <path id="path3044-3" d="m384.56 176.57h12.483v1.0923h-12.483z"/>
   <path id="path3046-8" d="m409.52 176.57h12.483v1.0923h-12.483z"/>
   <path id="path3048-7" d="m371.07 163.72h13.454v1.0923h-13.454z"/>
   <path id="path3050-6" d="m371.62 177.48v-13.588h-1.1028v13.588z"/>
   <path id="path3052-7" d="m384.73 177.48v-13.938h-1.1028v13.938z"/>
   <path id="path3054-4" d="m397.2 177.48v-13.938h-1.1028v13.938z"/>
   <path id="path3056-8" d="m410.66 177.14v-13.588h-1.1027v13.588z"/>
   <path id="path3058-1" d="m396.38 163.72h13.763v1.0923h-13.763z"/>
  </g>
  <path id="path3100-8" stroke-linejoin="round" d="m98.049 92.808-0.15312 137.97h1.2802l0.15312-137.97z" stroke="#000" stroke-width=".015290px"/>
  <path id="path3100-9" stroke-linejoin="round" d="m429.8 21.294-0.14715 68.448h1.226l0.14713-68.448z" stroke="#000" stroke-width=".010541px"/>
  <text id="text3172-1" font-size="16.989px" xml:space="preserve" transform="scale(1.0558 .94718)" y="312.59842" x="614.0672" font-family="Arial" line-height="125%" fill="#000000"><tspan id="tspan4412" y="312.59842" x="614.0672">MR</tspan></text>
  <path id="path3180-5" stroke-linejoin="round" d="m642.85 274.14c0-0.39606 0.20472-0.74813 0.49717-0.74813h39.831c0.2632 0 0.46789 0.35207 0.46789 0.74813v30.673c0 0.39606-0.20469 0.74812-0.46789 0.74812h-39.831c-0.29245 0-0.49717-0.35206-0.49717-0.74812zm0.96508 30.673-0.46791-0.74817h39.831l-0.49715 0.74817v-30.673l0.49715 0.74814h-39.831l0.46791-0.74814z" stroke="#000" stroke-width=".035874px"/>
  <text id="text3172-1-5" font-size="16.989px" xml:space="preserve" transform="scale(1.0558 .94718)" y="312.59842" x="685.68658" font-family="Arial" line-height="125%" fill="#000000"><tspan id="tspan4435" y="312.59842" x="685.68658">MC</tspan></text>
  <path id="path3180-5-7" stroke-linejoin="round" d="m681.83 274.1c0-0.3961 0.19782-0.74816 0.48036-0.74816h38.484c0.25433 0 0.45209 0.35206 0.45209 0.74816v30.674c0 0.39609-0.19776 0.74814-0.45209 0.74814h-38.484c-0.28254 0-0.48036-0.35205-0.48036-0.74814zm0.93242 30.674-0.45206-0.74816h38.484l-0.48033 0.74816v-30.674l0.48033 0.74813h-38.484l0.45206-0.74813z" stroke="#000" stroke-width=".035263px"/>
  <text id="text4138" font-size="14.99px" xml:space="preserve" transform="scale(1.1233 .89020)" y="176.89516" x="355.03873" font-family="Arial" line-height="125%" fill="#000000"><tspan id="tspan4140" y="176.89516" x="355.03873">CLK</tspan></text>
  <path id="path3310-3" stroke-linejoin="round" d="m814.93 274c0-0.39587 0.47679-0.74773 1.0898-0.74773h64.367c0.61305 0 1.158 0.35186 1.158 0.74773v30.657c0 0.39584-0.54488 0.7477-1.158 0.7477h-64.367c-0.61303 0-1.0898-0.35186-1.0898-0.7477zm1.6515 30.708-0.56174-0.79966h64.367l0.0346 0.49143-0.24992-30.144 0.21519 0.49144h-64.367l0.61592-0.64377z" stroke="#000" stroke-width=".054736px"/>
  <text id="text3312-6" font-size="15.179px" xml:space="preserve" transform="scale(1.0558 .94718)" y="311.2197" x="776.31329" font-family="Arial" line-height="125%" fill="#000000"><tspan id="tspan3945" font-size="15.179px" line-height="125%" y="311.2197" x="776.31329" font-family="Arial">ExCode</tspan></text>
  <path id="path3324-5" stroke-linejoin="round" d="m854.17 384.61-13.192 8.7549 0.73567 0.87989 13.192-8.7109z" stroke="#000" stroke-width=".046448px"/>
  <text id="text3330-3" font-size="12.449px" xml:space="preserve" transform="scale(1.0558 .94718)" y="411.09473" x="790.59088" font-family="Arial" fill="#000000">4</text>
  <path id="path3131-3" stroke-linejoin="round" d="m858.16 519.2c0.27591 0 0.50936 0.13864 0.6367 0.35655 0.10619 0.21786 0.0849 0.47533-0.0636 0.6734l-9.3802 12.221c-0.12736 0.17826-0.36078 0.27727-0.573 0.27727-0.23341 0-0.44567-0.0991-0.573-0.27727l-9.4013-12.221c-0.14857-0.19807-0.16979-0.45554-0.0426-0.6734 0.10619-0.21791 0.36079-0.35655 0.61546-0.35655zm-18.781 1.3072 0.573-1.0497 9.4014 12.221h-1.1461l9.3802-12.221 0.57296 1.0497z" stroke="#000" stroke-width=".020503px"/>
  <path id="path3133-6" stroke-linejoin="round" d="m866.99 526.45h-13.602v-0.99034h13.602z" stroke="#000" stroke-width="1.1113px"/>
  <path id="path3139-7" stroke-linejoin="round" d="m847.69 498.86v15.198h1.4221v-15.198h-1.4221zm-3.5237 14.076 4.2453 6.6875 4.2454-6.6875h-8.4906z" stroke="#000" stroke-width=".018838px"/>
  <text id="text3147-5" font-size="13.635px" xml:space="preserve" transform="scale(1.0351 .96608)" line-height="125%" y="534.69965" x="830.38147" font-family="Arial" fill="#000000"><tspan id="tspan4426" y="534.69965" x="830.38147">T11</tspan></text>
  <path id="path3081-3" stroke-linejoin="round" d="m849.09 500.63v-195.28h-1.2625v195.28z" stroke="#000" stroke-width=".044341px"/>
  <path id="path3428-3" stroke-linejoin="round" d="m172.94 514.26c0-0.3613 0.35491-0.62751 0.78079-0.62751h25.743c0.42592 0 0.78079 0.26621 0.78079 0.62751v26.374c0 0.34227-0.35487 0.62749-0.78079 0.62749h-25.743c-0.42588 0-0.78079-0.28522-0.78079-0.62749zm1.5615 26.374-0.78079-0.6275h25.743l-0.7808 0.6275v-26.374l0.7808 0.62748h-25.743l0.78079-0.62748z" stroke="#000" stroke-width=".021211px"/>
  <text id="text3438-6" font-size="15.42px" xml:space="preserve" transform="scale(1.0558 .94718)" y="562.32074" x="172.02342" font-family="Arial" fill="#000000">Z</text>
  <text id="text3450-7" font-size="12.768px" xml:space="preserve" transform="scale(1.0558 .94718)" y="584.76965" x="170.26497" font-family="Arial" line-height="125%" fill="#000000"><tspan id="tspan3651" font-size="12.768px" line-height="125%" y="584.76965" x="170.26497" font-family="Arial">28</tspan></text>
  <text id="text3476-8" font-size="12.356px" xml:space="preserve" transform="scale(1.0558 .94718)" y="467.07364" x="102.85045" font-family="Arial" line-height="125%" fill="#000000"><tspan id="tspan3677" y="467.07364" x="102.85045">9</tspan></text>
  <path id="path3484-9" stroke-linejoin="round" d="m112.99 514.23v-60.628h-1.6428v60.628h1.6428zm4.0704-59.437-4.9038-7.2241-4.9038 7.2241h9.8077z" stroke="#000" stroke-width=".021044px"/>
  <text id="text3476-8-6" font-size="12.356px" xml:space="preserve" transform="scale(1.0558 .94718)" y="467.31973" x="76.928612" font-family="Arial" line-height="125%" fill="#000000"><tspan id="tspan3700" y="467.31973" x="76.928612">10</tspan></text>
  <path id="path3108-3" stroke-linejoin="round" d="m89.823 472.37v-17.928h-1.6428v17.928h1.6428zm4.0948-16.678-4.9038-7.4623-4.9038 7.4623h9.8077z" stroke="#000" stroke-width=".021386px"/>
  <path id="path3260-3" stroke-linejoin="round" d="m53.161 473.45 0.74346-217.38-0.90656-0.0371-0.7434 217.44z" stroke="#000" stroke-width=".25962px"/>
  <path id="path3020" stroke-linejoin="round" d="m72.982 327.38c0-0.32191 0.35339-0.59014 0.77747-0.59014h136.27c0.44769 0 0.80106 0.26823 0.80106 0.59014v24.806c0 0.33981-0.35337 0.59016-0.80106 0.59016h-136.27c-0.42408 0-0.77747-0.25035-0.77747-0.59016zm1.5786 24.806-0.80103-0.59018h136.27l-0.77744 0.59018v-24.806l0.77744 0.59016h-136.27l0.80103-0.59016z" stroke="#000" stroke-width=".020527px"/>
  <text id="text3030" font-size="21.307px" xml:space="preserve" transform="scale(1.0349 .96627)" y="275.93188" x="94.127556" font-family="Arial" line-height="125%" fill="#000000"><tspan id="tspan4390" y="275.93188" x="94.127556">co2µaddr</tspan></text>
  <path id="path3032" stroke-linejoin="round" d="m73.064 327.38c0-0.32191 0.3534-0.59014 0.80104-0.59014h53.34c0.44766 0 0.77744 0.26823 0.77744 0.59014v24.806c0 0.33981-0.32978 0.59016-0.77744 0.59016h-53.34c-0.44763 0-0.80104-0.25035-0.80104-0.59016zm1.5786 24.806-0.77748-0.59018h53.34l-0.77749 0.59018v-24.806l0.77749 0.59016h-53.34l0.77748-0.59016z" stroke="#000" stroke-width=".020527px"/>
  <text id="text3034" font-size="16.653px" xml:space="preserve" transform="scale(1.0349 .96627)" y="358.21475" x="85.607956" font-family="Arial" line-height="125%" fill="#000000">CO</text>
  <text id="text3036" font-size="18.212px" xml:space="preserve" transform="scale(1.0349 .96627)" y="401.48245" x="107.22561" font-family="Arial" fill="#000000">IR</text>
  <path id="path3478" stroke-linejoin="round" d="m75.189 354.74 0.04534 2.2922 0.13612 2.1326 0.09077 0.99656 0.09078 0.93676 0.13612 0.89695 0.13613 0.81719 0.15891 0.73745 0.15891 0.67768 0.18169 0.57801 0.20427 0.51822 0.22699 0.41856c0 0.02 0.02254 0.0401 0.02254 0.0598l0.20429 0.27902c0.04534 0.04 0.06824 0.0798 0.11356 0.0998l0.20431 0.17936c0.06823 0.0401 0.13612 0.0798 0.20429 0.0998l0.22698 0.0598c0.04534 0.02 0.11355 0.02 0.15891 0.02h61.785l-0.18148-0.02 0.22698 0.0598-0.20432-0.0997 0.20432 0.15946-0.0906-0.0997 0.20427 0.27901 0.15891 0.31893 0.15891 0.41854 0.1815 0.55809 0.15887 0.61789 0.13613 0.71754 0.13615 0.77731 0.13611 0.85708 0.0906 0.91685 0.0905 0.97663 0.13614 2.1127 0.0225 2.2522c0.0224 0.27901 0.27238 0.49827 0.56744 0.49827 0.31779 0 0.56748-0.21926 0.56748-0.49827l0.0456-2.2721 0.13613-2.0929 0.0906-0.97663 0.0906-0.9368 0.13613-0.83713 0.13611-0.79725 0.15888-0.71751 0.13615-0.63782 0.18169-0.53816 0.1815-0.4385 0.18148-0.33884-0.0456 0.0598 0.20425-0.27903-0.0905 0.0997 0.20427-0.15947-0.20427 0.0997 0.20427-0.0598-0.15891 0.0198h61.785c0.0681 0 0.11348 0 0.1589-0.0198l0.22699-0.0598c0.0681-0.0199 0.1361-0.0598 0.20427-0.0997l0.227-0.17934c0.0227-0.02 0.068-0.0598 0.0906-0.0997l0.20429-0.27902c0.0224-0.02 0.0224-0.0401 0.0456-0.0598l0.18167-0.37871 0.22698-0.51822 0.18149-0.59792 0.15894-0.67767 0.15887-0.75741 0.15893-0.79725 0.11352-0.89694 0.11351-0.93678 0.0906-0.99659 0.11354-2.1327 0.0456-2.312h-1.135l-0.0456 2.2523-0.11351 2.1127-0.0905 0.97666-0.0906 0.9168-0.13608 0.85709-0.13613 0.79728-0.13613 0.69763-0.15891 0.63777-0.18151 0.51822-0.15889 0.43848-0.2043 0.37872 0.0456-0.0598-0.20428 0.27904 0.0906-0.0996-0.20429 0.15945 0.20429-0.0998-0.227 0.0598 0.1815-0.02h-61.785c-0.068 0-0.11351 0-0.18148 0.02l-0.20427 0.0598c-0.0682 0.02-0.15894 0.0598-0.20434 0.0997l-0.22696 0.17937c-0.0225 0.02-0.0681 0.0598-0.0905 0.0998l-0.20428 0.27905c-0.0225 0.02-0.0225 0.0401-0.0456 0.0598l-0.2043 0.41858-0.20429 0.51821-0.18149 0.59794-0.18148 0.65775-0.13612 0.73748-0.15891 0.81717-0.11352 0.89694-0.1135 0.93681-0.0906 0.99657-0.13612 2.1526-0.0456 2.2721h1.135l-0.0456-2.2922-0.11352-2.1526-0.0906-0.97666-0.11351-0.95674-0.1135-0.877-0.13614-0.83712-0.1817-0.73745-0.15891-0.67767-0.18149-0.57803-0.20426-0.53816-0.24973-0.43848-0.20426-0.27905c-0.0224-0.0401-0.068-0.0798-0.0905-0.0998l-0.22699-0.17936c-0.0683-0.0401-0.1361-0.0797-0.20428-0.0997l-0.22702-0.0598c-0.0455-0.0199-0.0906-0.0199-0.1589-0.0199h-61.785l0.1815 0.0199-0.22698-0.0598 0.22698 0.0998-0.22698-0.15947 0.09078 0.0997-0.20426-0.27905 0.04534 0.0598-0.1589-0.33882-0.18151-0.43851-0.18169-0.53813-0.15891-0.63784-0.13613-0.71751-0.15891-0.77733-0.11356-0.85709-0.11356-0.93675-0.09077-0.95673-0.11356-2.1127-0.04534-2.2721z" stroke="#000" stroke-width=".021271px"/>
  <path id="path3022-6" stroke-linejoin="round" d="m79.784 285.48c0 0.18353 0.48517 0.33234 1.0836 0.33234h128.45c0.59839 0 1.0836-0.14881 1.0836-0.33234v-54.422c0-0.18356-0.48513-0.33241-1.0836-0.33241h-128.45c-0.59838 0-1.0836 0.14885-1.0836 0.33241zm2.167-54.422-1.0836 0.33239h128.45l-1.0836-0.33239v54.422l1.0836-0.33241h-128.45l1.0836 0.33241z" stroke="#000" stroke-width=".0089573px"/>
  <path id="path3110-0" stroke-linejoin="round" d="m110.07 311.6-17.59 7.1408 0.49345 1.0276 17.567-7.151z" stroke="#000" stroke-width=".022765px"/>
  <text id="text3112-0" font-size="12.203px" xml:space="preserve" transform="scale(1.0349 .96627)" line-height="125%" y="325.00574" x="87.676575" font-family="Arial" fill="#000000"><tspan id="tspan6982">6</tspan></text>
  <path id="path3124-2" stroke-linejoin="round" d="m192.23 327.84v-33.292h1.5258v33.292h-1.5258zm-3.7918-31.594 4.5548-10.208 4.5548 10.208h-9.1096z" stroke="#000" stroke-width=".012053px"/>
  <path id="path3124-2-4" stroke-linejoin="round" d="m101.23 327.84v-33.292h1.5258v33.292h-1.5258zm-3.7917-31.594 4.5548-10.208 4.5548 10.208h-9.1096z" stroke="#000" stroke-width=".012053px"/>
  <text id="text3112-0-4" font-size="12.203px" xml:space="preserve" transform="scale(1.0349 .96627)" y="324.58847" x="176.29176" font-family="Arial" fill="#000000">4</text>
  <path id="path3110-0-7" stroke-linejoin="round" d="m201.5 311.44-17.59 7.1408 0.49338 1.0276 17.567-7.151z" stroke="#000" stroke-width=".022765px"/>
  <path id="path3260-3-8" stroke-linejoin="round" d="m52.303 256.05 28.692-0.18052-0.0082-1.3418-28.699 0.18093z" stroke="#000" stroke-width=".011475px"/>
  <path id="path3260-3-8-6" stroke-linejoin="round" d="m52.546 473.4 37.259-0.18039-0.01101-1.3409-37.268 0.18079z" stroke="#000" stroke-width=".013072px"/>
  <text id="text3038-0" font-size="17.918px" xml:space="preserve" transform="scale(1.0519 .95069)" y="517.43359" x="53.345806" font-family="Arial" line-height="125%" fill="#000000"><tspan id="tspan3777" y="517.43359" x="53.345806">InEx</tspan></text>
  <path id="path3232-6" stroke-linejoin="round" d="m796.32 347.02v-41.855h-1.2312v41.855z" stroke="#000" stroke-width=".041392px"/>
  <path id="path3100-8-7" stroke-linejoin="round" d="m264.27 358.56-0.15381 45.805h1.2862l0.15378-45.805z" stroke="#000" stroke-width=".0088310px"/>
  <path id="path3108-1" stroke-linejoin="round" d="m266.04 359.14-0.27603-46.095-1.3649-0.58497v46.681zm3.3998-45.882-4.2081-9.0985-3.932 8.9524z" stroke="#000" stroke-width=".032256px"/>
  <path id="path3198-7" fill-rule="evenodd" d="m262.76 359.05c0-1.2318 1.0543-2.2217 2.3293-2.2217 1.2995 0 2.3293 0.98988 2.3293 2.2217 0 1.2098-1.0298 2.1998-2.3293 2.1998-1.275 0-2.3293-0.98987-2.3293-2.1998"/>
  <path id="path3200-1" stroke-linejoin="round" d="m261.14 359.18v-0.28593l0.0494-0.43996c0.0243-0.088 0.0243-0.17599 0.0733-0.28597l0.12264-0.39593c0.0243-0.088 0.0734-0.15401 0.0981-0.24199l0.22066-0.37396c0.0494-0.088 0.0981-0.17596 0.1716-0.26397l0.29424-0.32993 0.19616-0.17599 0.34325-0.26397c0.0983-0.0659 0.19615-0.13198 0.29424-0.19797l0.3923-0.19796c0.0733-0.0439 0.17163-0.0661 0.26969-0.11003l0.44136-0.132c0.12257-0.022 0.24516-0.0439 0.34324-0.0658l0.46588-0.0439h0.34324l0.46588 0.0439c0.12259 0.0219 0.24517 0.0439 0.36779 0.0658l0.44131 0.132c0.0981 0.0439 0.17162 0.0659 0.26971 0.11003l0.39231 0.19796c0.0981 0.0659 0.19616 0.13198 0.29422 0.19797l0.34328 0.26397c0.0734 0.0662 0.1226 0.11003 0.19614 0.17599l0.29423 0.32993c0.0493 0.088 0.1226 0.17601 0.17165 0.26397l0.22064 0.37396c0.0243 0.088 0.0732 0.15399 0.0981 0.24199l0.1226 0.39593c0.0493 0.11002 0.0493 0.19797 0.0734 0.28597l0.0493 0.43996v0.28593l-0.0493 0.46194c-0.0243 0.088-0.0243 0.17598-0.0734 0.26397l-0.1226 0.41794c-0.0243 0.088-0.0734 0.154-0.0981 0.24198l-0.22064 0.37395c-0.0492 0.088-0.1226 0.17594-0.17165 0.26394l-0.29423 0.32997c-0.0732 0.0659-0.12261 0.10999-0.19614 0.17598l-0.34328 0.26396c-0.098 0.0659-0.19615 0.13199-0.29422 0.19797l-0.39231 0.19797c-0.0982 0.0439-0.17163 0.0661-0.26971 0.11002l-0.44131 0.132c-0.12262 0.022-0.24522 0.0439-0.36779 0.0659l-0.46588 0.0439h-0.34324l-0.46588-0.0439c-0.0982-0.022-0.22068-0.0439-0.34324-0.0659l-0.44136-0.132c-0.0981-0.0439-0.19611-0.0659-0.26969-0.11002l-0.3923-0.19797c-0.098-0.0659-0.19615-0.13196-0.29424-0.19797l-0.34325-0.26396-0.19616-0.17598-0.29424-0.32997c-0.0732-0.088-0.12258-0.17595-0.1716-0.26394l-0.22066-0.37395c-0.0243-0.088-0.0732-0.154-0.0981-0.24198l-0.12264-0.41794c-0.0492-0.088-0.0492-0.17596-0.0733-0.26397zm3.31 0.17599-0.0734-0.28596 0.14709 0.41793-0.098-0.24196 0.19614 0.37393-0.17163-0.26394 0.29421 0.32995-0.19614-0.17598 0.34327 0.28598-0.2942-0.198 0.39229 0.198-0.26971-0.11002 0.44133 0.13197-0.36779-0.0658 0.46587 0.0439h-0.34327l0.46585-0.0439-0.34324 0.0658 0.44131-0.13197-0.26972 0.11002 0.39234-0.198-0.29423 0.198 0.34327-0.28598-0.19616 0.17598 0.29421-0.32995-0.17164 0.26394 0.19619-0.37393-0.0981 0.24196 0.14714-0.41793-0.0734 0.28596 0.0494-0.46192v0.28593l-0.0494-0.43994 0.0734 0.26398-0.14714-0.39595 0.0981 0.24194-0.19619-0.37393 0.17164 0.26396-0.29421-0.32995 0.19616 0.17597-0.34327-0.28594 0.29423 0.19797-0.39234-0.19797 0.26972 0.11-0.44131-0.13199 0.34324 0.0659-0.46585-0.0439h0.34327l-0.46587 0.0439 0.36779-0.0659-0.44133 0.13199 0.26971-0.11-0.39229 0.19797 0.2942-0.19797-0.34327 0.28594 0.19614-0.17597-0.29421 0.32995 0.17163-0.26396-0.19614 0.37393 0.098-0.24194-0.14709 0.39595 0.0734-0.26398-0.0493 0.43994v-0.28593z" stroke="#000" stroke-width=".023224px"/>
  <text id="text3146-9" font-size="15.42px" xml:space="preserve" transform="matrix(.0044851 -.93402 1.0706 .0040238 0 0)" y="435.05615" x="-477.47455" font-family="Arial" line-height="125%" fill="#000000"><tspan id="tspan4821" y="435.05615" x="-477.47455">Sel RA</tspan></text>
  <text id="text3146-9-5" font-size="15.42px" xml:space="preserve" transform="matrix(-.0076559 -0.934 1.0706 -.0068684 0 0)" y="511.65073" x="-481.1839" font-family="Arial" line-height="125%" fill="#000000"><tspan id="tspan4823" y="511.65073" x="-481.1839">Sel RB</tspan></text>
  <text id="text3146-9-9" font-size="15.42px" xml:space="preserve" transform="matrix(.0099687 -.93398 1.0706 .0089433 0 0)" y="603.32288" x="-471.78629" font-family="Arial" line-height="125%" fill="#000000"><tspan id="tspan4825" y="603.32288" x="-471.78629">Sel RC</tspan></text>
  <text id="text3350-3" font-size="11.491px" line-height="125%" transform="scale(1.0558 .94718)" y="525.13776" x="598.92749" font-family="Arial" xml:space="preserve" fill="#000000">0</text>
  <text id="text3352-3" font-size="11.491px" line-height="125%" transform="scale(1.0558 .94718)" y="525.40155" x="627.23486" font-family="Arial" xml:space="preserve" fill="#000000">1</text>
  <path id="path3094-7" opacity=".75" stroke-linejoin="round" d="m265.14 404.02v-90.664h-1.6423v90.664h1.6423zm4.069-88.869-4.9024-10.884-4.9025 10.884h9.8048z" stroke="#000" stroke-width=".025826px"/>
  <path id="path3498-6" stroke-linejoin="round" d="m350.92 322.56h98.223v1.0948h-98.223z" stroke="#000" stroke-width=".028360px"/>
  <path id="path3138-8" stroke-linejoin="round" d="m352.25 323.11v-46.393h-1.2324v46.393z" stroke="#000" stroke-width=".017149px"/>
  <path id="path3138-8-1" stroke-linejoin="round" d="m449.44 323.22v-17.357h-1.2394v17.357z" stroke="#000" stroke-width=".010519px"/>
  <path id="path3124-7" stroke-linejoin="round" d="m394.45 289.45h15.701v1.4744h-15.701v-1.4744zm14.901-3.6641 4.8143 4.4013-4.8143 4.4013v-8.8026z" stroke="#000" stroke-width=".0081376px"/>
  <text id="text4138-7" font-size="14.99px" xml:space="preserve" transform="scale(1.1233 .89020)" y="321.01462" x="330.52408" font-family="Arial" line-height="125%" fill="#000000"><tspan id="tspan4140-2" y="321.01462" x="330.52408">CLK</tspan></text>
  <path id="path3194-0" stroke-linejoin="round" d="m351.23 276.72-16.192 0.0659v1.4732l16.192-0.0662v-1.4732zm-14.017-3.6059-13.314 4.4637 13.415 4.3316-0.10025-8.7951z" stroke="#000" stroke-width=".027122px"/>
 </g>
</svg>
