<?xml version="1.0" encoding="UTF-8" standalone="no"?>
<svg id="svg2996" xmlns:rdf="http://www.w3.org/1999/02/22-rdf-syntax-ns#" xmlns="http://www.w3.org/2000/svg" height="100%" viewBox="47 15 845 545" width="100%" version="1.0" preserveAspectRatio="xMinYMin meet" xmlns:cc="http://creativecommons.org/ns#" xmlns:dc="http://purl.org/dc/elements/1.1/">
 <metadata id="metadata3508">
  <rdf:RDF>
   <cc:Work rdf:about="">
    <dc:format>image/svg+xml</dc:format>
    <dc:type rdf:resource="http://purl.org/dc/dcmitype/StillImage"/>
    <dc:title/>
   </cc:Work>
  </rdf:RDF>
 </metadata>
 <text id="text3611" style="word-spacing:0px;letter-spacing:0px" transform="scale(.99998 1)" xml:space="preserve" font-size="13.289px" y="350.36798" x="139.88812" font-family="sans-serif" line-height="125%" fill="#000000"><tspan id="tspan3615" y="342.36798" x="121.88812"/></text>
 <g id="g4771" transform="matrix(1.0142 0 0 1 -12.576 0.000175)">
  <path id="path3008" stroke-linejoin="round" d="m456.76 36.472c0-0.62466 0.54073-1.1155 1.2288-1.1155h427.04c0.63902 0 1.2288 0.49079 1.2288 1.1155v110.78c0 0.62464-0.58986 1.1154-1.2288 1.1154h-427.04c-0.68817 0-1.2288-0.49078-1.2288-1.1154zm2.4579 110.78-1.2288-1.1154h427.04l-1.2288 1.1154v-110.78l1.2288 1.1154h-427.04l1.2288-1.1154z" stroke="#000" stroke-width=".046833px"/>
  <text id="text3010" font-size="26.131px" line-height="125%" xml:space="preserve" style="text-decoration-line:underline;text-decoration:underline" transform="scale(1.036 .96521)" y="101.81919" x="555.87341" font-family="Arial" fill="#000000">Control Memory</text>
  <text id="text3012" font-size="18.232px" xml:space="preserve" transform="scale(1.036 .96521)" y="439.43423" x="196.41794" font-family="Arial" fill="#000000">MUX C</text>
  <path id="path3014" stroke-linejoin="round" d="m704.13 145.88v121.28h-1.6048v-121.28h1.6048zm3.9179 119.99-4.7203 7.7843-4.7204-7.7843h9.4404z" stroke="#000" stroke-width=".042862px"/>
  <path id="path3016" stroke-linejoin="round" d="m716.76 206.74-24.838 16.497 0.70832 0.87987 24.792-16.454z" stroke="#000" stroke-width=".045580px"/>
  <text id="text3018" font-size="13.676px" xml:space="preserve" transform="scale(1.036 .96521)" y="223.16161" x="656.65149" font-family="Arial" line-height="125%" fill="#000000"><tspan id="tspan3920" y="223.16161" x="656.65149">80</tspan></text>
  <path id="path3024" stroke-linejoin="round" d="m212.91 172.56c0 0.28798 0.31114 0.52798 0.70521 0.52798h117.79c0.39406 0 0.70517-0.24 0.70517-0.52798v-131.85c0-0.304-0.31111-0.54401-0.70517-0.54401h-117.79c-0.39407 0-0.70521 0.24-0.70521 0.54401zm1.3897-131.85-0.6845 0.52803h117.79l-0.68448-0.52803v131.85l0.68448-0.52802h-117.79l0.6845 0.52802z" stroke="#000" stroke-width=".018217px"/>
  <path id="path3026" stroke-linejoin="round" d="m375.91 41.294c0-0.35243 0.35416-0.64612 0.77917-0.64612h30.223c0.425 0 0.77919 0.29369 0.77919 0.64612v95.271c0 0.35241-0.35419 0.6461-0.77919 0.6461h-30.223c-0.42501 0-0.77917-0.29369-0.77917-0.6461zm1.5583 95.271-0.77919-0.64613h30.223l-0.80284 0.64613v-95.271l0.80284 0.66568h-30.223l0.77919-0.66568z" stroke="#000" stroke-width=".021502px"/>
  <path id="path3028" stroke-linejoin="round" d="m81.225 447.74c0 0.39547 0.31964 0.70772 0.70319 0.70772h303.66c0.38356 0 0.70321-0.31225 0.70321-0.70772v-44.275c0-0.37468-0.31965-0.68689-0.70321-0.68689h-303.66c-0.38355 0-0.70319 0.31221-0.70319 0.68689zm1.4064-44.275-0.7032 0.68695h303.66l-0.70317-0.68695v44.275l0.70317-0.68693h-303.66l0.7032 0.68693z" stroke="#000" stroke-width=".021062px"/>
  <text id="text3038" font-size="18.232px" xml:space="preserve" transform="scale(1.036 .96521)" y="557.51575" x="69.415474" font-family="Arial" fill="#000000">SR</text>
  <path id="path3040" stroke-linejoin="round" d="m74.526 79.441c0 0.28027 0.3542 0.51383 0.77921 0.51383h55.394c0.44866 0 0.80285-0.23356 0.80285-0.51383v-25.521c0-0.28027-0.35419-0.51383-0.80285-0.51383h-55.394c-0.42502 0-0.7792 0.23356-0.7792 0.51383zm1.582-25.521-0.80281 0.52939h55.394l-0.77922-0.52939v25.521l0.77922-0.51382h-55.394l0.80281 0.51382z" stroke="#000" stroke-width=".019173px"/>
  <g id="g4866" stroke-linejoin="round" stroke="#000" stroke-width=".043902px" transform="matrix(.66789 0 0 .94215 -182.62 66.063)">
   <path id="path3042" d="m828.4 256.34h12.482v1.0922h-12.482z"/>
   <path id="path3044" d="m854.34 256.34h12.482v1.0922h-12.482z"/>
   <path id="path3048" d="m840.5 243.5h13.454v1.0922h-13.454z"/>
   <path id="path3050" d="m841.07 257.26v-13.588h-1.1028v13.588z"/>
   <path id="path3052" d="m854.17 257.26v-13.938h-1.1027v13.938z"/>
   <path id="path3054" d="m866.65 257.26v-13.938h-1.1028v13.938z"/>
   <path id="path3058" d="m865.81 243.5h13.763v1.0922h-13.763z"/>
  </g>
  <path id="path3060" stroke-linejoin="round" d="m320.09 495.44-0.13293-41.265-1.3146-0.38434-0.13291 41.649zm3.916-40.071-4.7179-7.7304-4.4521 7.7304z" stroke="#000" stroke-width=".029517px"/>
  <path id="path3062" stroke-linejoin="round" d="m344.58 472.03v-17.996h-1.582v17.996h1.582zm3.9431-16.74-4.7222-7.4983-4.7222 7.4983h9.4446z" stroke="#000" stroke-width=".021037px"/>
  <text id="text3064" font-size="13.782px" xml:space="preserve" transform="scale(1.036 .96521)" y="528.0423" x="350.70389" font-family="Arial" line-height="125%" fill="#000000"><tspan id="tspan14891" x="350.70389" y="528.0423">0</tspan></text>
  <text id="text3066" font-size="13.912px" xml:space="preserve" transform="scale(1.036 .96521)" y="171.93178" x="281.59039" font-family="Arial" line-height="125%" fill="#000000">A0</text>
  <text id="text3068" font-size="19.703px" xml:space="preserve" transform="scale(1.036 .96521)" y="118.132" x="241.29672" font-family="Arial" line-height="125%" fill="#000000">MUX A</text>
  <text id="text3072" font-size="16.288px" xml:space="preserve" transform="scale(1.036 .96521)" y="201.60361" x="689.37732" font-family="Arial" line-height="125%" fill="#000000"><tspan id="tspan14893" x="689.37732" y="201.60361">µInstruction</tspan></text>
  <text id="text3076" font-size="18.232px" xml:space="preserve" transform="scale(1.036 .96521)" y="202.10744" x="473.57111" font-family="Arial" fill="#000000">MADDR</text>
  <text id="text3080" font-size="18.232px" xml:space="preserve" transform="matrix(0 -.96521 1.036 0 0 0)" y="384.27667" x="-120.61654" font-family="Arial" fill="#000000">µAddr</text>
  <path id="path3082" stroke-linejoin="round" d="m406.13 89.29h46.195v1.4742h-46.195v-1.4742zm45.224-3.6524 5.7926 4.4006-5.7926 4.4006v-8.8013z" stroke="#000" stroke-width=".017851px"/>
  <text id="text3084" font-size="18.232px" xml:space="preserve" transform="scale(1.036 .96521)" y="76.414345" x="89.465218" font-family="Arial" fill="#000000">+1</text>
  <path id="path3086" fill-rule="evenodd" d="m427.57 90.034c0-1.2318 1.0153-2.2217 2.2431-2.2217s2.2431 0.98985 2.2431 2.2217c0 1.2098-1.0153 2.1998-2.2431 2.1998s-2.2431-0.98989-2.2431-2.1998"/>
  <path id="path3088" stroke-linejoin="round" d="m426.5 90.164v-0.28596l0.0475-0.43994c0.0234-0.08799 0.0234-0.17596 0.0707-0.28596l0.11806-0.39596c0.0235-0.08799 0.0707-0.15396 0.0945-0.24195l0.2125-0.37395c0.0474-0.08798 0.0944-0.17599 0.16527-0.26396l0.28331-0.32997c0.0474-0.044 0.11805-0.11001 0.16529-0.15397l0.33053-0.26396c0.0946-0.08802 0.1889-0.15397 0.30697-0.21998l0.40138-0.19799c0.0707-0.044 0.14166-0.06595 0.23609-0.11l0.4014-0.132c0.11807-0.02195 0.2361-0.044 0.35417-0.06605l0.4486-0.044h0.33057l0.44862 0.044c0.11805 0.02205 0.21246 0.044 0.33056 0.06605l0.42497 0.132c0.0946 0.044 0.1889 0.06583 0.28334 0.11l0.37777 0.19799c0.0945 0.06583 0.18887 0.13197 0.25973 0.19798l0.33056 0.26396c0.0706 0.06595 0.14163 0.11001 0.18888 0.17596l0.28334 0.32997c0.0707 0.08799 0.11806 0.17599 0.18889 0.26396l0.18887 0.37395c0.0474 0.08798 0.0706 0.15398 0.0945 0.24195l0.14165 0.39596c0.0234 0.11001 0.0475 0.19798 0.0475 0.28596l0.0474 0.43994c0.0235 0.11001 0.0235 0.19799 0 0.28596l-0.0474 0.46193c0 0.08795-0.0233 0.17598-0.0475 0.26398l-0.14165 0.41795c-0.0234 0.08795-0.0474 0.15396-0.0945 0.24195l-0.18887 0.37395c-0.0707 0.08795-0.11808 0.176-0.18889 0.264l-0.28334 0.32994c-0.0475 0.06597-0.11804 0.11002-0.18888 0.17598l-0.33056 0.26397c-0.0707 0.06597-0.16527 0.132-0.25973 0.19796l-0.37777 0.19799c-0.0945 0.04398-0.18888 0.06585-0.28334 0.11002l-0.42497 0.13196c-0.11812 0.02199-0.21252 0.04398-0.33056 0.06607l-0.44862 0.04398h-0.33057l-0.4486-0.04398c-0.11808-0.02209-0.23611-0.04398-0.35417-0.06607l-0.4014-0.13196c-0.0945-0.04398-0.16525-0.06585-0.23609-0.11002l-0.40138-0.19799c-0.11808-0.06597-0.21252-0.13197-0.30697-0.21995l-0.33053-0.264c-0.0475-0.04398-0.11807-0.11-0.16529-0.15396l-0.28331-0.32994c-0.0706-0.08794-0.11807-0.17599-0.16527-0.264l-0.2125-0.37395c-0.0235-0.08795-0.0707-0.15395-0.0945-0.24195l-0.11805-0.41795c-0.0475-0.08794-0.0475-0.17599-0.0707-0.26398zm3.1875 0.17597-0.0707-0.28596 0.14169 0.41796-0.0945-0.24198 0.18888 0.37396-0.16528-0.26398 0.28333 0.32997-0.16527-0.15399 0.30696 0.28596-0.30696-0.21998 0.3778 0.19796-0.23612-0.10998 0.42501 0.13197-0.35418-0.06597 0.44863 0.04398h-0.33058l0.44863-0.04398-0.33057 0.06597 0.42498-0.13197-0.28333 0.10998 0.3778-0.19796-0.25974 0.19796 0.33056-0.28593-0.18888 0.17598 0.28334-0.32997-0.18888 0.26398 0.21249-0.37396-0.0944 0.24198 0.11809-0.41796-0.0475 0.28596 0.0475-0.46193v0.28596l-0.0475-0.43994 0.0475 0.26396-0.11809-0.39594 0.0944 0.24197-0.21249-0.37396 0.18888 0.26398-0.28334-0.32996 0.18888 0.17597-0.33056-0.28596 0.25974 0.19797-0.3778-0.19797 0.28333 0.11002-0.42498-0.13199 0.33057 0.06604-0.44863-0.04399h0.33058l-0.44863 0.04399 0.35418-0.06604-0.42501 0.13199 0.23612-0.11002-0.3778 0.19797 0.30696-0.21996-0.30696 0.28595 0.16527-0.15397-0.28333 0.32996 0.16528-0.26398-0.18888 0.37396 0.0945-0.24197-0.14169 0.39594 0.0707-0.26396-0.0474 0.43994v-0.28596z" stroke="#000" stroke-width=".022790px"/>
  <path id="path3092" stroke-linejoin="round" d="m331.17 91.447h41.277v-1.4742h-41.277v1.4742zm40.482 3.6523 4.7515-4.4005-4.7515-4.4005v8.8009z" stroke="#000" stroke-width=".016166px"/>
  <path id="path3094" stroke-linejoin="round" d="m270.75 254.85v-73.294h-1.5819v73.294h1.5819zm3.9194-71.842-4.7222-8.7988-4.7223 8.7988h9.4444z" stroke="#000" stroke-width=".022790px"/>
  <path id="path3096" stroke-linejoin="round" d="m423.94 281.27v-53.449c0-0.41628-0.18262-0.7632-0.40173-0.7632h-124.71l0.41388 0.7632v-45.746h-0.81553v45.746c0 0.41629 0.18262 0.76322 0.40175 0.76322h124.71l-0.41392-0.76322v53.449zm-122.67-97.646-2.4347-9.251-2.4346 9.251z" stroke="#000" stroke-width=".016780px"/>
  <path id="path3098" stroke-linejoin="round" d="m430.79 20.998h-327.28v1.0955h327.28z" stroke="#000" stroke-width=".027233px"/>
  <path id="path3100" stroke-linejoin="round" d="m102.69 21.762-0.16891 32.776h1.4074l0.1689-32.776z" stroke="#000" stroke-width=".0078147px"/>
  <path id="path3102" stroke-linejoin="round" d="m130.54 66.071h74.452v1.474h-74.452v-1.474zm72.969-3.6628 8.9168 4.3998-8.9168 4.3998v-8.7996z" stroke="#000" stroke-width=".011072px"/>
  <path id="path3104" stroke-linejoin="round" d="m136.94 119.6h69.034v1.4629h-69.034v-1.4629zm67.738-3.6741 7.8007 4.4002-7.8007 4.4002v-8.8002z" stroke="#000" stroke-width=".010357px"/>
  <path id="path3108" stroke-linejoin="round" d="m368.15 495.96-0.26587-40.38-1.3148-0.5124v40.893zm3.2749-40.193-4.0533-7.9705-3.7875 7.8423z" stroke="#000" stroke-width=".029630px"/>
  <path id="path3110" stroke-linejoin="round" d="m412.72 417.7-12.42 14.011 0.92079 0.7039 12.396-14.011z" stroke="#000" stroke-width=".022790px"/>
  <text id="text3112" font-size="12.216px" xml:space="preserve" transform="scale(1.036 .96521)" y="437.39124" x="385.52539" font-family="Arial" fill="#000000">4</text>
  <path id="path3120" stroke-linejoin="round" d="m478.64 196.26-9.0194 10.801 0.92084 0.68194 9.0194-10.801z" stroke="#000" stroke-width=".022790px"/>
  <text id="text3122" font-size="12.216px" xml:space="preserve" transform="scale(1.036 .96521)" y="204.14511" x="443.72037" font-family="Arial" fill="#000000">12</text>
  <path id="path3124" stroke-linejoin="round" d="m184.66 146.73h22.937v1.4741h-22.937v-1.4741zm21.768-3.6634 7.0331 4.4004-7.0331 4.4004v-8.8008z" stroke="#000" stroke-width=".0098346px"/>
  <text id="text3126" font-size="18.232px" xml:space="preserve" transform="scale(1.036 .96521)" y="159.26581" x="158.68195" font-family="Arial" fill="#000000">0</text>
  <text id="text3130" font-size="13.64px" xml:space="preserve" transform="scale(1.036 .96521)" y="175.94861" x="144.78059" font-family="Arial" line-height="125%" fill="#000000">(fetch) </text>
  <path id="path3134" stroke-linejoin="round" d="m137.2 118.99-0.14217 84.101 1.1844 0.0148 0.14212-84.115z" stroke="#000" stroke-width=".013453px"/>
  <path id="path3136" stroke-linejoin="round" d="m294.15 471.98v-17.996h-1.582v17.996h1.582zm3.9196-16.74-4.7222-7.4984-4.7222 7.4984h9.4446z" stroke="#000" stroke-width=".021037px"/>
  <path id="path3138" stroke-linejoin="round" d="m417.18 426.53v-85.524h-1.1806v85.524z" stroke="#000" stroke-width=".022790px"/>
  <text id="text3140" font-size="12.529px" xml:space="preserve" transform="scale(1.036 .96521)" y="573.74115" x="253.45569" font-family="Arial" line-height="125%" fill="#000000">0</text>
  <path id="path3142" stroke-linejoin="round" d="m148.78 377.98 620.71-2.7695v-1.1351l-620.71 2.7695z" stroke="#000" stroke-width=".038965px"/>
  <path id="path3142b" stroke-linejoin="round" d="m154.02 377.98 614.92-2.7697v-1.135l-614.92 2.7697z" stroke="#000" stroke-width=".038784px"/>
  <path id="path3144" stroke-linejoin="round" d="m443.63 452.94c-0.31926-0.002-0.55347-0.29333-0.55225-0.64183l0.19446-56.111c0.00086-0.34851 0.23741-0.63772 0.55668-0.63606l23.423 0.12197c0.31925 0.002 0.57027 0.29343 0.56908 0.64192l-0.19448 56.111c-0.00087 0.34849-0.25423 0.63762-0.57349 0.63598zm23.428-1.1752-0.55673 0.65541 0.19446-56.111 0.5522 0.6612-23.423-0.12197 0.55677-0.65543-0.19447 56.111-0.55222-0.66121z" stroke="#000" stroke-width=".018037px"/>
  <path id="path3150" stroke-linejoin="round" d="m531.5 452.99c-0.33585 0.003-0.57284-0.31409-0.57504-0.67302l-0.3503-57.788c-0.003-0.35891 0.23122-0.64013 0.56706-0.64306l23.407-0.20305c0.30222-0.003 0.539 0.27454 0.5412 0.63344l0.35031 57.788c0.003 0.35893-0.23098 0.68002-0.53322 0.68264zm23.399-1.559-0.56681 0.68293-0.35033-57.788 0.57505 0.67301-23.407 0.20306 0.53323-0.68264 0.35034 57.788-0.54148-0.67332z" stroke="#000" stroke-width=".036598px"/>
  <path id="path3156" stroke-linejoin="round" d="m623.08 451.04c-0.31441-0.003-0.53168-0.3113-0.52856-0.65561l0.50506-55.438c0.004-0.34435 0.22567-0.61004 0.54007-0.60694l21.914 0.21446c0.28295 0.002 0.50059 0.27275 0.49747 0.61706l-0.50507 55.438c-0.004 0.34431-0.22601 0.64825-0.50897 0.64548zm21.926-1.0864-0.54044 0.64521 0.50509-55.438 0.52855 0.65563-21.914-0.21446 0.50901-0.64551-0.50507 55.438-0.49715-0.65535z" stroke="#000" stroke-width=".034684px"/>
  <path id="path3162" stroke-linejoin="round" d="m644.41 274.15c0-0.39608 0.19532-0.74814 0.47433-0.74814h108.1c0.2511 0 0.44645 0.35206 0.44645 0.74814v30.674c0 0.39609-0.19535 0.74814-0.44645 0.74814h-108.1c-0.27901 0-0.47433-0.35205-0.47433-0.74814zm0.92076 30.674-0.44641-0.74816h108.1l-0.47432 0.74816v-30.674l0.47432 0.74817h-108.1l0.44641-0.74817z" stroke="#000" stroke-width=".035041px"/>
  <text id="text3164" font-size="16.671px" xml:space="preserve" transform="scale(1.036 .96521)" y="306.05658" x="474.52173" font-family="Arial" line-height="125%" fill="#000000">Sel A</text>
  <text id="text3168" font-size="16.671px" xml:space="preserve" transform="scale(1.036 .96521)" y="306.75677" x="526.71332" font-family="Arial" line-height="125%" fill="#000000">Sel B</text>
  <text id="text3172" font-size="16.671px" xml:space="preserve" transform="scale(1.036 .96521)" y="306.75677" x="577.15314" font-family="Arial" line-height="125%" fill="#000000">Sel C</text>
  <path id="path3176" stroke-linejoin="round" d="m483.28 274.13c0-0.39594 0.31904-0.72591 0.7019-0.72591h55.26c0.38288 0 0.70192 0.32997 0.70192 0.72591v30.687c0 0.39598-0.31904 0.72593-0.70192 0.72593h-55.26c-0.38286 0-0.7019-0.32995-0.7019-0.72593zm1.4037 30.687-0.70193-0.74793h55.26l-0.72318 0.74793v-30.687l0.72318 0.74792h-55.26l0.70193-0.74792z" stroke="#000" stroke-width=".021631px"/>
  <path id="path3178" stroke-linejoin="round" d="m538.87 274.15c0-0.39599 0.32655-0.74796 0.69393-0.74796h54.168c0.36736 0 0.69394 0.35197 0.69394 0.74796v30.667c0 0.39598-0.32658 0.74796-0.69394 0.74796h-54.168c-0.36738 0-0.69393-0.35198-0.69393-0.74796zm1.3471 30.667-0.6531-0.74798h54.168l-0.69394 0.74798v-30.667l0.69394 0.74799h-54.168l0.6531-0.74799z" stroke="#000" stroke-width=".042379px"/>
  <path id="path3180" stroke-linejoin="round" d="m592.71 274.15c0-0.39599 0.26341-0.74802 0.63968-0.74802h51.248c0.33867 0 0.60207 0.35203 0.60207 0.74802v30.67c0 0.39599-0.2634 0.74802-0.60207 0.74802h-51.248c-0.37627 0-0.63968-0.35203-0.63968-0.74802zm1.2418 30.67-0.60205-0.74804h51.248l-0.63966 0.74804v-30.67l0.63966 0.74803h-51.248l0.60205-0.74803z" stroke="#000" stroke-width=".040690px"/>
  <path id="path3182" stroke-linejoin="round" d="m460.14 465.99-12.703 8.7329 0.70835 0.87989 12.703-8.7109z" stroke="#000" stroke-width=".022790px"/>
  <path id="path3184" stroke-linejoin="round" d="m550.79 466.67-12.703 8.7329 0.70833 0.8799 12.702-8.7329z" stroke="#000" stroke-width=".022790px"/>
  <path id="path3186" stroke-linejoin="round" d="m639.17 463.98-12.703 8.7549 0.70836 0.87988 12.703-8.7549z" stroke="#000" stroke-width=".045580px"/>
  <path id="path3188" stroke-linejoin="round" d="m456.03 377.32v11.351h-1.5583v-11.351h1.5583zm3.943 9.8768-4.7222 8.7988-4.7223-8.7988h9.4445z" stroke="#000" stroke-width=".022790px"/>
  <path id="path3190" stroke-linejoin="round" d="m544.17 375.44v11.372h-1.5819v-11.372h1.5819zm3.943 9.8987-4.7222 8.7988-4.7222-8.7988h9.4444z" stroke="#000" stroke-width=".022790px"/>
  <path id="path3192" stroke-linejoin="round" d="m633.93 375.95v11.351h-1.6056v-11.351h1.6056zm3.9194 9.8547-4.7223 8.7988-4.7222-8.7988h9.4445z" stroke="#000" stroke-width=".045580px"/>
  <path id="path3194" stroke-linejoin="round" d="m486.39 423.41-11.428 0.066v1.4738l11.428-0.0662v-1.4738zm-9.893-3.6074-9.3971 4.4656 9.4681 4.3335-0.0705-8.7988z" stroke="#000" stroke-width=".022790px"/>
  <path id="path3196" stroke-linejoin="round" d="m573.92 359.17v-53.563h-1.1805v53.563z" stroke="#000" stroke-width=".022790px"/>
  <path id="path3198" fill-rule="evenodd" d="m453.1 375.94c0-1.232 0.90011-2.2221 1.9886-2.2221 1.1094 0 1.9886 0.99004 1.9886 2.2221 0 1.21-0.87918 2.2002-1.9886 2.2002-1.0885 0-1.9886-0.99001-1.9886-2.2002"/>
  <path id="path3200" stroke-linejoin="round" d="m451.58 376.06v-0.28597l0.0445-0.44003c0.022-0.088 0.022-0.176 0.0665-0.28601l0.11072-0.396c0.022-0.088 0.0665-0.15404 0.0885-0.24201l0.19929-0.37404c0.0445-0.088 0.0884-0.17597 0.15499-0.26397l0.26572-0.33002 0.17717-0.176 0.31002-0.26401c0.0884-0.066 0.17713-0.13199 0.26569-0.19802l0.35431-0.198c0.0665-0.0439 0.155-0.0659 0.24357-0.11001l0.39859-0.13205c0.11072-0.022 0.22142-0.0439 0.31001-0.0657l0.42073-0.0439h0.30999l0.42074 0.0439c0.11072 0.022 0.22141 0.0439 0.33217 0.0657l0.39854 0.13205c0.0885 0.0439 0.15502 0.0659 0.24359 0.11001l0.3543 0.198c0.0885 0.0661 0.17715 0.13201 0.26572 0.19802l0.31005 0.26401c0.0666 0.0661 0.1107 0.11003 0.1771 0.176l0.26574 0.33002c0.0444 0.088 0.11068 0.17601 0.15499 0.26397l0.1993 0.37404c0.0219 0.088 0.0665 0.15398 0.0885 0.24201l0.11069 0.396c0.0442 0.11004 0.0442 0.19801 0.0666 0.28601l0.0445 0.44003v0.28597l-0.0445 0.46203c-0.022 0.088-0.022 0.176-0.0666 0.26404l-0.11069 0.41797c-0.022 0.088-0.0665 0.15405-0.0885 0.24203l-0.1993 0.374c-0.0443 0.088-0.1107 0.17598-0.15499 0.26398l-0.26574 0.33003c-0.0664 0.066-0.1107 0.11001-0.1771 0.176l-0.31005 0.26402c-0.0884 0.0658-0.17715 0.132-0.26572 0.19799l-0.3543 0.198c-0.0885 0.0439-0.155 0.066-0.24359 0.11005l-0.39854 0.13202c-0.11072 0.022-0.22145 0.0439-0.33217 0.0659l-0.42074 0.0439h-0.30999l-0.42073-0.0439c-0.0885-0.0221-0.19929-0.0439-0.31001-0.0659l-0.39859-0.13202c-0.0885-0.0439-0.17713-0.0661-0.24357-0.11005l-0.35431-0.198c-0.0885-0.0659-0.17712-0.13199-0.26569-0.19799l-0.31002-0.26402-0.17717-0.176-0.26572-0.33003c-0.0665-0.088-0.11071-0.17595-0.15499-0.26398l-0.19929-0.374c-0.022-0.088-0.0665-0.15402-0.0885-0.24203l-0.11072-0.41797c-0.0442-0.088-0.0442-0.176-0.0665-0.26404zm2.9894 0.17606-0.0666-0.28604 0.13286 0.41801-0.0885-0.24201 0.17715 0.374-0.15502-0.26396 0.26571 0.32997-0.17715-0.176 0.31003 0.286-0.26573-0.19801 0.35427 0.19801-0.24353-0.11002 0.39858 0.132-0.33218-0.066 0.42076 0.0439h-0.31002l0.42072-0.0439-0.31 0.066 0.39858-0.132-0.24359 0.11002 0.35429-0.19801-0.26571 0.19801 0.30999-0.286-0.17715 0.176 0.26573-0.32997-0.15499 0.26396 0.17715-0.374-0.0884 0.24201 0.13286-0.41801-0.0666 0.28604 0.0444-0.46203v0.28597l-0.0444-0.44001 0.0666 0.26405-0.13286-0.39604 0.0884 0.242-0.17715-0.374 0.15499 0.26399-0.26573-0.32997 0.17715 0.17598-0.30999-0.28601 0.26571 0.19802-0.35429-0.19802 0.24359 0.11006-0.39858-0.13203 0.31 0.0659-0.42072-0.0439h0.31002l-0.42076 0.0439 0.33218-0.0659-0.39858 0.13203 0.24353-0.11006-0.35427 0.19802 0.26573-0.19802-0.31003 0.28601 0.17715-0.17598-0.26571 0.32997 0.15502-0.26399-0.17715 0.374 0.0885-0.242-0.13286 0.39604 0.0666-0.26405-0.0443 0.44001v-0.28597z" stroke="#000" stroke-width=".022072px"/>
  <path id="path3202" fill-rule="evenodd" d="m541.34 375.94c0-1.232 0.87921-2.2221 1.9887-2.2221 1.0885 0 1.9676 0.99004 1.9676 2.2221 0 1.21-0.87915 2.2002-1.9676 2.2002-1.1095 0-1.9887-0.99001-1.9887-2.2002"/>
  <path id="path3204" stroke-linejoin="round" d="m539.76 376.06c-0.022-0.088-0.022-0.17596 0-0.28597l0.0442-0.44003c0-0.088 0.0219-0.176 0.0445-0.28601l0.13288-0.396c0.0219-0.088 0.0444-0.15404 0.0884-0.24201l0.17716-0.37404c0.0445-0.088 0.11069-0.17597 0.17712-0.26397l0.26571-0.33002c0.0442-0.0661 0.11074-0.11001 0.17714-0.176l0.31004-0.26401c0.0665-0.066 0.15499-0.13199 0.24357-0.19802l0.3543-0.198c0.0884-0.0439 0.17712-0.0659 0.26571-0.11001l0.39858-0.13205c0.0885-0.022 0.19933-0.0439 0.31002-0.0657l0.42074-0.0439h0.31001l0.42071 0.0439c0.11072 0.022 0.22144 0.0439 0.33214 0.0657l0.37642 0.13205c0.0885 0.0439 0.15503 0.0659 0.22148 0.11001l0.37642 0.198c0.0885 0.0439 0.1993 0.11004 0.26573 0.19802l0.31002 0.26401 0.19927 0.198 0.24357 0.33001c0.0665 0.088 0.11072 0.15402 0.15501 0.24198l0.19932 0.37404c0.022 0.088 0.0664 0.15398 0.0885 0.24201l0.11071 0.396c0.0445 0.11004 0.0445 0.19801 0.0664 0.28601l0.0442 0.44003v0.28597l-0.0442 0.46203c-0.022 0.088-0.022 0.176-0.0664 0.26404l-0.11071 0.41797c-0.0219 0.088-0.0665 0.15405-0.0885 0.24203l-0.19932 0.374c-0.0445 0.088-0.0884 0.154-0.15501 0.24199l-0.24357 0.33002c-0.0666 0.0659-0.13285 0.13199-0.19927 0.198l-0.31002 0.26402c-0.0665 0.088-0.17715 0.15398-0.26573 0.19799l-0.37642 0.198c-0.0666 0.0439-0.13288 0.066-0.22148 0.11005l-0.37642 0.13202c-0.1107 0.022-0.22142 0.0439-0.33214 0.0659l-0.42071 0.0439h-0.31001l-0.42074-0.0439c-0.11071-0.0221-0.22143-0.0439-0.31002-0.0659l-0.39858-0.13202c-0.0884-0.0439-0.17715-0.0661-0.26571-0.11005l-0.3543-0.198c-0.0885-0.0659-0.17715-0.13199-0.24357-0.19799l-0.31004-0.26402c-0.0665-0.0659-0.13285-0.11001-0.17714-0.176l-0.26571-0.33003c-0.0665-0.088-0.13286-0.17595-0.17712-0.26398l-0.17716-0.374c-0.0445-0.088-0.0665-0.15402-0.0884-0.24203l-0.13288-0.41797c-0.022-0.088-0.0445-0.176-0.0445-0.26404zm2.9671 0.17606-0.0445-0.28604 0.11075 0.41801-0.0885-0.24201 0.19929 0.374-0.17714-0.26396 0.26571 0.32997-0.17714-0.176 0.31003 0.286-0.24358-0.19801 0.35427 0.19801-0.26571-0.11002 0.39858 0.132-0.31-0.066 0.42073 0.0439h-0.31l0.42072-0.0439-0.33218 0.066 0.39859-0.132-0.22143 0.11002 0.35432-0.19801-0.26576 0.19801 0.31-0.286-0.19926 0.19802 0.26571-0.33002-0.155 0.24199 0.17715-0.374-0.0885 0.24201 0.13291-0.41801-0.0665 0.28604 0.0445-0.46203v0.28597l-0.0445-0.44001 0.0665 0.26405-0.13291-0.39604 0.0885 0.242-0.17715-0.374 0.155 0.24199-0.26571-0.32999 0.19926 0.198-0.31-0.28601 0.26576 0.19802-0.35432-0.19802 0.22143 0.11006-0.39859-0.13203 0.33218 0.0659-0.42072-0.0439h0.31l-0.42073 0.0439 0.31-0.0659-0.39858 0.13203 0.26571-0.11006-0.35427 0.19802 0.24358-0.19802-0.31003 0.28601 0.17714-0.17598-0.26571 0.32997 0.17714-0.26399-0.19929 0.374 0.0885-0.242-0.11075 0.39604 0.0445-0.26405-0.0445 0.44001v-0.28597z" stroke="#000" stroke-width=".022072px"/>
  <path id="path3206" fill-rule="evenodd" d="m630.91 375.95c0-1.232 0.92106-2.2441 2.0096-2.2441s1.9676 1.012 1.9676 2.2441c0 1.188-0.87917 2.2002-1.9676 2.2002s-2.0096-1.012-2.0096-2.2002"/>
  <path id="path3208" stroke-linejoin="round" d="m629.52 376.09c-0.0446-0.088-0.0446-0.176 0-0.30798l0.0443-0.44001c0-0.088 0-0.17605 0.0445-0.26403l0.13286-0.396c0-0.088 0.0445-0.17602 0.0884-0.26401l0.17716-0.35202c0.0445-0.088 0.0886-0.176 0.13283-0.26402l0.26576-0.30801c0.0445-0.088 0.13284-0.13199 0.17711-0.21998l0.31003-0.26403c0.0885-0.088 0.17716-0.13199 0.26573-0.17601l0.35429-0.21999c0.0883-0.0439 0.17713-0.0439 0.26571-0.088l0.38879-0.10539c0.0884-0.0439 0.22143-0.0439 0.30999-0.088l0.39861-0.0439h0.30999l0.44287 0.0439c0.0884 0.0439 0.22144 0.0439 0.31002 0.088l0.39858 0.132c0.0885 0.0439 0.17714 0.0439 0.26572 0.088l0.35428 0.21999c0.0885 0.0439 0.17717 0.088 0.26575 0.176l0.31001 0.264c0.0445 0.088 0.0884 0.132 0.13285 0.17602l0.26572 0.352c0.0884 0.088 0.13285 0.176 0.17714 0.26401l0.22146 0.35202c0 0.088 0.0445 0.176 0.0884 0.26401l0.0886 0.39599c0.0445 0.088 0.0445 0.17601 0.0884 0.26403l0.0445 0.44v0.30801l-0.0445 0.43998c-0.0443 0.088-0.0443 0.17603-0.0884 0.26404l-0.0886 0.43999c-0.0445 0.088-0.0884 0.13204-0.0884 0.22001l-0.22146 0.39604c-0.0444 0.088-0.0884 0.17598-0.17714 0.26396l-0.26572 0.30801c-0.0445 0.0439-0.0885 0.13203-0.13285 0.17602l-0.31001 0.26401c-0.0885 0.088-0.17715 0.13199-0.26575 0.22002l-0.35428 0.17598c-0.0884 0.0439-0.17718 0.088-0.26572 0.13202l-0.39858 0.13201c-0.0884 0-0.22144 0.0439-0.31002 0.0439l-0.44287 0.0439h-0.30999l-0.39861-0.0439c-0.0884 0-0.22141-0.0439-0.30999-0.0439l-0.39859-0.13201c-0.0884-0.0439-0.17714-0.088-0.26571-0.13202l-0.35429-0.17598c-0.0885-0.088-0.17718-0.13199-0.26575-0.22002l-0.30996-0.26402c-0.0443-0.0439-0.13284-0.132-0.17714-0.21999l-0.26572-0.30805c-0.0444-0.088-0.0884-0.13198-0.13287-0.21995l-0.17713-0.39603c-0.0445-0.088-0.0884-0.132-0.0884-0.22001l-0.13292-0.43999c-0.0442-0.088-0.0442-0.17601-0.0442-0.26404zm2.9671 0.17602-0.0444-0.30801 0.0884 0.44-0.0884-0.26401 0.22143 0.39602-0.17713-0.264 0.2657 0.35198-0.17715-0.21999 0.31004 0.30801-0.26576-0.22001 0.35433 0.22001-0.26575-0.132 0.39859 0.132-0.31001-0.0439 0.39857 0.0439h-0.30997l0.44284-0.0439-0.31002 0.0439 0.39859-0.132-0.2657 0.132 0.3543-0.22001-0.26574 0.22001 0.31003-0.30801-0.17715 0.17601 0.26572-0.308-0.13286 0.264 0.17712-0.39602-0.0884 0.26401 0.13287-0.44-0.0884 0.30801 0.0446-0.484v0.30798l-0.0446-0.44002 0.0884 0.26402-0.13287-0.39601 0.0884 0.22001-0.17712-0.35202 0.13286 0.264-0.26572-0.35199 0.17715 0.17599-0.31003-0.26397 0.26574 0.17597-0.3543-0.17597 0.2657 0.088-0.39859-0.132 0.31002 0.088-0.44284-0.0439h0.30997l-0.39857 0.0439 0.31001-0.088-0.39859 0.132 0.26575-0.088-0.35433 0.17597 0.26576-0.17597-0.31004 0.26397 0.17715-0.22-0.2657 0.35201 0.17713-0.22001-0.22143 0.35202 0.0884-0.22001-0.0884 0.39601 0.0444-0.26402-0.0444 0.44002v-0.30798z" stroke="#000" stroke-width=".044145px"/>
  <path id="path3210" stroke-linejoin="round" d="m707.54 305.86v117.82h-1.5602v-117.82h1.5602zm3.9713 116.94-4.7276 5.1698-4.7276-5.1698h9.4553z" stroke="#000" stroke-width=".034958px"/>
  <path id="path3212" stroke-linejoin="round" d="m712.78 332.63-12.703 8.7109 0.70834 0.92385 12.702-8.7549z" stroke="#000" stroke-width=".045580px"/>
  <text id="text3214" font-size="12.215px" xml:space="preserve" transform="scale(1.036 .96521)" y="346.91174" x="665.23798" font-family="Arial" line-height="125%" fill="#000000"><tspan id="tspan3973" y="346.91174" x="665.23798">49</tspan></text>
  <path id="path3216" stroke-linejoin="round" d="m441.49 487.72c0-0.44073 0.2654-0.80801 0.58384-0.80801h51.252c0.33614 0 0.6015 0.36728 0.6015 0.80801v32.394c0 0.4652-0.26536 0.80802-0.6015 0.80802h-51.252c-0.31844 0-0.58384-0.34282-0.58384-0.80802zm1.1854 32.394-0.60151-0.80804h51.252l-0.58386 0.80804v-32.394l0.58386 0.80803h-51.252l0.60151-0.80803z" stroke="#000" stroke-width=".020813px"/>
  <text id="text3218" font-size="15.156px" xml:space="preserve" transform="scale(1.036 .96521)" y="533.10919" x="434.26453" font-family="Arial" line-height="125%" fill="#000000">MUX</text>
  <path id="path3220" stroke-linejoin="round" d="m427.16 509.78h14.261v1.0998h-14.261z" stroke="#000" stroke-width=".022790px"/>
  <text id="text3222" font-size="12.216px" xml:space="preserve" transform="scale(1.036 .96521)" y="524.29791" x="397.80679" font-family="Arial" fill="#000000">MR</text>
  <text id="text3224" font-size="15.132px" xml:space="preserve" transform="matrix(.0018118 -.95181 1.0506 .0016879 0 0)" y="675.48981" x="-544.57294" font-family="Arial" line-height="125%" fill="#000000"><tspan id="tspan4437" y="675.48981" x="-544.57294">Rest of CPU</tspan></text>
  <text id="text3228" font-size="15.132px" xml:space="preserve" transform="matrix(.0018118 -.95181 1.0506 .0016879 0 0)" y="692.77606" x="-551.99359" font-family="Arial" fill="#000000">control </text>
  <text id="text3230" font-size="15.132px" xml:space="preserve" transform="matrix(.0018118 -.95181 1.0506 .0016879 0 0)" y="692.09637" x="-502.88757" font-family="Arial" fill="#000000">signals</text>
  <path id="path3232" stroke-linejoin="round" d="m632.35 347.8v-41.839h-1.1856v41.839z" stroke="#000" stroke-width=".040612px"/>
  <path id="path3234" stroke-linejoin="round" d="m471.67 519.67v13.439h-1.5583v-13.439h1.5583zm3.943 11.967-4.7222 8.7988-4.7223-8.7988h9.4445z" stroke="#000" stroke-width=".022790px"/>
  <path id="path3236" stroke-linejoin="round" d="m533.23 487.61c0-0.44826 0.24349-0.8467 0.55655-0.8467h50.401c0.31305 0 0.55654 0.39844 0.55654 0.8467v32.974c0 0.44829-0.24349 0.79693-0.55654 0.79693h-50.401c-0.31306 0-0.55655-0.34864-0.55655-0.79693zm1.1478 32.974-0.59126-0.84671h50.401l-0.59129 0.84671v-32.974l0.59129 0.84678h-50.401l0.59126-0.84678z" stroke="#000" stroke-width=".041623px"/>
  <text id="text3238" font-size="15.156px" xml:space="preserve" transform="scale(1.036 .96521)" y="533.1925" x="522.10962" font-family="Arial" line-height="125%" fill="#000000">MUX</text>
  <path id="path3240" stroke-linejoin="round" d="m520.52 509.65h14.237v1.0998h-14.237z" stroke="#000" stroke-width=".022790px"/>
  <text id="text3242" font-size="12.216px" xml:space="preserve" transform="scale(1.036 .96521)" y="524.15259" x="490.31573" font-family="Arial" fill="#000000">MR</text>
  <path id="path3244" stroke-linejoin="round" d="m560.56 519.51v13.461h-1.5583v-13.461h1.5583zm3.9194 12.012-4.7222 8.7988-4.7222-8.7988h9.4445z" stroke="#000" stroke-width=".045580px"/>
  <path id="path3246" stroke-linejoin="round" d="m623.74 486.3c0-0.45718 0.23308-0.86365 0.53287-0.86365h48.26c0.29976 0 0.56621 0.40647 0.56621 0.86365v33.633c0 0.45722-0.26645 0.81285-0.56621 0.81285h-48.26c-0.29979 0-0.53287-0.35563-0.53287-0.81285zm1.0989 33.633-0.56621-0.86362h48.26l-0.56622 0.86362v-33.633l0.56622 0.86367h-48.26l0.56621-0.86367z" stroke="#000" stroke-width=".041134px"/>
  <text id="text3248" font-size="15.156px" xml:space="preserve" transform="scale(1.036 .96521)" y="532.46564" x="609.87946" font-family="Arial" line-height="125%" fill="#000000">MUX</text>
  <path id="path3252" stroke-linejoin="round" d="m610 508.24h14.214v1.0998h-14.214z" stroke="#000" stroke-width=".045580px"/>
  <text id="text3254" font-size="12.216px" xml:space="preserve" transform="scale(1.036 .96521)" y="522.67487" x="575.28625" font-family="Arial" fill="#000000">MR</text>
  <path id="path3256" stroke-linejoin="round" d="m650.59 518.77v13.461h-1.5583v-13.461h1.5583zm3.9666 12.012-4.7222 8.7988-4.7222-8.7988h9.4445z" stroke="#000" stroke-width=".045580px"/>
  <path id="path3258" stroke-linejoin="round" d="m484.39 347h33.765v1.0972h-33.765z" stroke="#000" stroke-width=".025651px"/>
  <path id="path3260" stroke-linejoin="round" d="m484.09 469.7 1.1371-122.79-1.3866-0.021-1.137 122.81z" stroke="#000" stroke-width=".024129px"/>
  <path id="path3262" fill-rule="evenodd" d="m571.64 423.46c0-1.2318 0.99167-2.1998 2.2667-2.1998 1.2278 0 2.2194 0.96785 2.2194 2.1998 0 1.2318-0.99166 2.1998-2.2194 2.1998-1.275 0-2.2667-0.96789-2.2667-2.1998"/>
  <path id="path3264" stroke-linejoin="round" d="m569.85 423.6v-0.26397l0.0474-0.48395c0-0.088 0.0475-0.17596 0.0475-0.26396l0.14167-0.39594c0.0475-0.088 0.0475-0.17596 0.0946-0.21996l0.18887-0.39595c0.0474-0.088 0.14165-0.17599 0.1889-0.26397l0.28334-0.30796c0.0474-0.088 0.14166-0.132 0.18887-0.17597l0.33057-0.30796c0.0944-0.0439 0.18889-0.132 0.28333-0.17598l0.37777-0.17598c0.0944-0.0439 0.18888-0.088 0.28334-0.132l0.42499-0.13196c0.0946-0.0439 0.18891-0.0439 0.33055-0.0439l0.425-0.0439c0.14168-0.0439 0.23611-0.0439 0.33056 0l0.47221 0.0439c0.0946 0 0.23612 0 0.33056 0.0439l0.425 0.13196c0.0945 0.0439 0.14167 0.088 0.2361 0.088l0.37778 0.21997c0.0944 0.0439 0.23614 0.13199 0.28335 0.17601l0.33056 0.30793c0.0942 0.0439 0.14165 0.13198 0.23609 0.17598l0.23609 0.35194c0.0946 0.0439 0.14166 0.13199 0.1889 0.21998l0.18891 0.39595c0.0474 0.0439 0.0946 0.13196 0.0946 0.21997l0.1417 0.39595c0.0474 0.088 0.0474 0.17598 0.0474 0.26395l0.0475 0.48396v0.26394l-0.0475 0.43997c0 0.132 0 0.21997-0.0474 0.30792l-0.1417 0.39596c0 0.088-0.0474 0.17601-0.0946 0.21999l-0.18891 0.39595c-0.0475 0.088-0.0943 0.17597-0.1889 0.21996l-0.23609 0.35195c-0.0944 0.0439-0.14168 0.132-0.23609 0.17599l-0.33056 0.30797c-0.0474 0.0439-0.18889 0.13197-0.28335 0.17596l-0.37778 0.17596c-0.0943 0.0439-0.14166 0.088-0.2361 0.13203l-0.425 0.13197c-0.0945 0.0439-0.2361 0.0439-0.33056 0.0439l-0.47221 0.0439c-0.0943 0.0439-0.18888 0.0439-0.33056 0l-0.425-0.0439c-0.14164 0-0.2361 0-0.33055-0.0439l-0.42499-0.13197c-0.0944-0.0439-0.18888-0.088-0.28334-0.13203l-0.37777-0.17596c-0.0945-0.0439-0.18889-0.13196-0.28333-0.17596l-0.33057-0.30797c-0.0474-0.0439-0.14165-0.088-0.18887-0.17599l-0.28334-0.30792c-0.0475-0.088-0.14168-0.176-0.1889-0.26399l-0.18887-0.39595c-0.0475-0.0439-0.0475-0.13197-0.0946-0.21999l-0.14167-0.39596c0-0.088-0.0475-0.17592-0.0475-0.30792zm3.1637 0.17597-0.0474-0.26395 0.14168 0.39594-0.0942-0.21998 0.18889 0.35195-0.18889-0.26396 0.28332 0.35196-0.18891-0.17596 0.33056 0.26395-0.23608-0.17599 0.37776 0.17599-0.28333-0.088 0.42499 0.13198-0.33055-0.088 0.42498 0.0439h-0.33055l0.47224-0.0439-0.37778 0.088 0.425-0.13198-0.23611 0.088 0.37776-0.21996-0.28334 0.21996 0.33058-0.26395-0.18889 0.17596 0.28333-0.30796-0.1889 0.21996 0.1889-0.35195-0.0944 0.21998 0.14167-0.39594-0.0475 0.26395 0.0475-0.43994v0.26397l-0.0475-0.43992 0.0475 0.26394-0.14167-0.39595 0.0944 0.21997-0.1889-0.35195 0.1889 0.21996-0.28333-0.30795 0.18889 0.17598-0.33058-0.26395 0.28334 0.17596-0.37776-0.17596 0.23611 0.088-0.425-0.13196 0.37778 0.088-0.47224-0.0439h0.33055l-0.42498 0.0439 0.33055-0.088-0.42499 0.13196 0.28333-0.088-0.37776 0.17596 0.23608-0.17596-0.33056 0.26395 0.18891-0.17598-0.28332 0.35198 0.18889-0.26399-0.18889 0.35195 0.0942-0.21997-0.14168 0.39595 0.0474-0.26394-0.0474 0.43992v-0.26397z" stroke="#000" stroke-width=".045580px"/>
  <path id="path3266" fill-rule="evenodd" d="m483.53 423.93c0-1.2098 1.0153-2.1998 2.2431-2.1998 1.2514 0 2.243 0.98986 2.243 2.1998 0 1.2318-0.99162 2.2217-2.243 2.2217-1.2278 0-2.2431-0.9899-2.2431-2.2217"/>
  <path id="path3268" stroke-linejoin="round" d="m480.9 424.08v-0.28595l0.0474-0.46196c0.0234-0.088 0.0234-0.17598 0.0707-0.26395l0.11805-0.41795c0.0233-0.0658 0.0706-0.15398 0.0943-0.21999l0.21249-0.37395c0.0475-0.11001 0.0946-0.19796 0.16529-0.26394l0.28332-0.32996c0.0707-0.0661 0.11809-0.132 0.1889-0.17599l0.33054-0.28594c0.0945-0.0662 0.18889-0.132 0.28333-0.176l0.37782-0.19797c0.0706-0.0439 0.16525-0.088 0.2597-0.10999l0.425-0.13199c0.11805-0.0439 0.23611-0.0659 0.33055-0.0659l0.44858-0.0439c0.11809-0.022 0.23612-0.022 0.33058 0l0.4486 0.0439c0.11806 0 0.23612 0.022 0.35418 0.0659l0.42498 0.13199c0.0943 0.022 0.16529 0.0658 0.25975 0.10999l0.37776 0.19797c0.0943 0.0439 0.18889 0.11003 0.28332 0.176l0.33056 0.28594c0.0706 0.0439 0.11806 0.11 0.18889 0.17599l0.28332 0.32996c0.0474 0.0659 0.11805 0.15396 0.16529 0.26394l0.21252 0.37395c0.0233 0.066 0.0705 0.154 0.0944 0.21999l0.11806 0.41795c0.0474 0.088 0.0474 0.17597 0.0706 0.26395l0.0475 0.46196v0.28595l-0.0475 0.43996c-0.0234 0.10999-0.0234 0.19797-0.0706 0.26393l-0.11806 0.41797c-0.0233 0.088-0.0705 0.17596-0.0944 0.26396l-0.21252 0.37395c-0.0475 0.088-0.11806 0.17597-0.16529 0.26398l-0.28332 0.32994c-0.0707 0.0659-0.11806 0.11003-0.18889 0.17596l-0.33056 0.264c-0.0944 0.0657-0.18887 0.13198-0.28332 0.19796l-0.37776 0.19797c-0.0944 0.0439-0.1653 0.066-0.25975 0.11002l-0.42498 0.13197c-0.11807 0.022-0.23612 0.0439-0.35418 0.066l-0.4486 0.0439h-0.33058l-0.44858-0.0439c-0.0947-0.022-0.2125-0.0439-0.33055-0.066l-0.425-0.13197c-0.0945-0.0439-0.18888-0.0658-0.2597-0.11002l-0.37782-0.19797c-0.0946-0.0661-0.18888-0.13196-0.28333-0.19796l-0.33054-0.264-0.1889-0.17596-0.28332-0.32994c-0.0705-0.088-0.11808-0.17597-0.16529-0.26398l-0.21249-0.37395c-0.0234-0.088-0.0707-0.17596-0.0943-0.26396l-0.14165-0.41797c-0.0234-0.0659-0.0234-0.15396-0.0474-0.26393zm3.1876 0.15399-0.0475-0.26398 0.11806 0.41795-0.0944-0.24196 0.18888 0.37396-0.16527-0.26398 0.28332 0.32997-0.18884-0.17601 0.33053 0.286-0.28333-0.19798 0.37777 0.19798-0.25972-0.11004 0.42498 0.13201-0.35417-0.066 0.44862 0.0439h-0.33057l0.44864-0.0439-0.33055 0.066 0.42498-0.13201-0.2597 0.11004 0.37778-0.19798-0.28335 0.19798 0.33055-0.286-0.18888 0.17601 0.28332-0.32997-0.16526 0.26398 0.18889-0.37396-0.0945 0.24196 0.11807-0.41795-0.0474 0.26398 0.0474-0.43994v0.28595l-0.0474-0.46195 0.0705 0.28598-0.14164-0.41793 0.0945 0.24194-0.18889-0.37395 0.16529 0.26396-0.28337-0.32994 0.1889 0.176-0.33054-0.26399 0.28334 0.17597-0.37778-0.19796 0.25972 0.11001-0.425-0.132 0.33059 0.066-0.44865-0.0439h0.33055l-0.4486 0.0439 0.35417-0.066-0.42499 0.132 0.25969-0.11001-0.37775 0.19796 0.28333-0.17597-0.33057 0.26399 0.18887-0.176-0.2833 0.32994 0.16527-0.26396-0.18889 0.37395 0.0946-0.24194-0.14166 0.41793 0.0706-0.28598-0.0474 0.46195v-0.28595z" stroke="#000" stroke-width=".022790px"/>
  <path id="path3270" stroke-linejoin="round" d="m484.15 457.57v22.167h-1.5583v-22.167h1.5583zm3.9431 20.606-4.7223 9.3236-4.7222-9.3236h9.4445z" stroke="#000" stroke-width=".023459px"/>
  <path id="path3272" stroke-linejoin="round" d="m489.91 466.72-12.703 8.7329 0.68474 0.87991 12.703-8.7329z" stroke="#000" stroke-width=".022790px"/>
  <text id="text3274" font-size="12.216px" xml:space="preserve" transform="scale(1.036 .96521)" y="488.6828" x="456.24442" font-family="Arial" fill="#000000">5</text>
  <path id="path3276" stroke-linejoin="round" d="m574.57 423.13-12.234-0.20956-0.0296 1.4523 12.281 0.21171-0.0176-1.4544zm-10.624-3.8356-9.4908 4.2332 9.3558 4.5702 0.13492-8.8032z" stroke="#000" stroke-width=".045580px"/>
  <path id="path3278" stroke-linejoin="round" d="m574.07 467.29v-107.38h-1.1722v107.38z" stroke="#000" stroke-width=".053638px"/>
  <path id="path3280" stroke-linejoin="round" d="m518.18 347.68-0.27625-43.072 1.1854-0.0169 0.27625 43.072z" stroke="#000" stroke-width=".059861px"/>
  <path id="path3282" stroke-linejoin="round" d="m574.44 458.8v20.898h-1.5583v-20.898h1.5583zm3.9665 19.446-4.7222 8.7988-4.7222-8.7988h9.4445z" stroke="#000" stroke-width=".045580px"/>
  <path id="path3284" stroke-linejoin="round" d="m580.19 467.1-12.703 8.7549 0.70834 0.87987 12.703-8.7549z" stroke="#000" stroke-width=".045580px"/>
  <text id="text3286" font-size="12.216px" xml:space="preserve" transform="scale(1.036 .96521)" y="487.48917" x="541.38306" font-family="Arial" fill="#000000">5</text>
  <path id="path3288" stroke-linejoin="round" d="m631.05 347.64h33.88v1.1165h-33.88z" stroke="#000" stroke-width=".028059px"/>
  <path id="path3290" stroke-linejoin="round" d="m664.61 425.74-12.073 0.15525 0.004-1.4578 12.069-0.19908 0.00027 1.5016zm-10.403 3.7719-9.5524-4.2482 9.3836-4.5269 0.16898 8.775z" stroke="#000" stroke-width=".045580px"/>
  <path id="path3292" stroke-linejoin="round" d="m664.63 469v-121.42h-1.1673v121.42z" stroke="#000" stroke-width=".058370px"/>
  <path id="path3296" stroke-linejoin="round" d="m670.58 464.06-12.703 8.7549 0.70832 0.87987 12.703-8.7109z" stroke="#000" stroke-width=".045580px"/>
  <text id="text3298" font-size="12.216px" xml:space="preserve" transform="scale(1.036 .96521)" y="485.78409" x="628.85767" font-family="Arial" fill="#000000">5</text>
  <path id="path3300" stroke-linejoin="round" d="m664.83 457.13v20.943h-1.5583v-20.943h1.5583zm3.9194 19.446-4.7222 8.7988-4.7222-8.7988h9.4444z" stroke="#000" stroke-width=".045580px"/>
  <path id="path3302" stroke-linejoin="round" d="m756.53 482.07c0-0.45926 0.28933-0.86745 0.6148-0.86745h52.368c0.36166 0 0.6148 0.40819 0.6148 0.86745v33.781c0 0.45928-0.25314 0.81647-0.6148 0.81647h-52.368c-0.32547 0-0.6148-0.35719-0.6148-0.81647zm1.1933 33.781-0.57867-0.86743h52.368l-0.57863 0.86743v-33.781l0.57863 0.86742h-52.368l0.57867-0.86742z" stroke="#000" stroke-width=".042959px"/>
  <text id="text3304" font-size="15.156px" xml:space="preserve" transform="scale(1.036 .96521)" y="527.73456" x="739.57013" font-family="Arial" line-height="125%" fill="#000000">MUX</text>
  <path id="path3306" stroke-linejoin="round" d="m809.11 500.61h14.261v1.0998h-14.261z" stroke="#000" stroke-width=".045580px"/>
  <path id="path3308" stroke-linejoin="round" d="m786.06 516.09v13.461h-1.6056v-13.461h1.6056zm3.9194 12.012-4.7222 8.7988-4.7222-8.7988h9.4445z" stroke="#000" stroke-width=".045580px"/>
  <path id="path3310" stroke-linejoin="round" d="m752.47 274.15c0-0.39587 0.48071-0.7477 1.0988-0.7477h64.894c0.61808 0 1.1674 0.35183 1.1674 0.7477v30.655c0 0.39583-0.54935 0.7477-1.1674 0.7477h-64.894c-0.61807 0-1.0988-0.35187-1.0988-0.7477zm1.665 30.708-0.56633-0.79964h64.894l-0.51526 1.0194 0.0974-31.018 0.418 0.83826h-64.894l0.62098-0.64373z" stroke="#000" stroke-width=".054958px"/>
  <text id="text3312" font-size="16.671px" xml:space="preserve" transform="scale(1.036 .96521)" y="305.202" x="730.54187" font-family="Arial" line-height="125%" fill="#000000">SelCop</text>
  <path id="path3314" fill-rule="evenodd" d="m662.76 425.19c0-1.2318 0.99165-2.2437 2.2667-2.2437 1.2278 0 2.2194 1.0118 2.2194 2.2437 0 1.2318-0.99167 2.1998-2.2194 2.1998-1.275 0-2.2667-0.96788-2.2667-2.1998"/>
  <path id="path3316" stroke-linejoin="round" d="m660.44 424.96v-0.26396l0.0475-0.48393c0-0.088 0.0474-0.176 0.0474-0.26399l0.14165-0.39596c0.0474-0.088 0.0474-0.17597 0.0944-0.26395l0.23609-0.35197c0.0474-0.088 0.0944-0.17596 0.14165-0.26396l0.28335-0.30797c0.0475-0.088 0.0942-0.13196 0.1889-0.21995l0.33056-0.26397c0.0945-0.088 0.1889-0.13197 0.28332-0.17597l0.37777-0.22c0.0947-0.0439 0.1889-0.0439 0.28335-0.088l0.42499-0.13198c0.0947-0.0439 0.18888-0.0439 0.33057-0.088l0.425-0.0439h0.33054l0.47222 0.0439c0.0943 0.0439 0.18887 0.0439 0.33056 0.088l0.42498 0.13198c0.0942 0.0439 0.1889 0.0439 0.28336 0.088l0.37775 0.22c0.0945 0.0439 0.18891 0.088 0.23614 0.17597l0.33052 0.26397 0.18891 0.17596 0.28333 0.35196c0.0945 0.088 0.14166 0.17598 0.18887 0.26396l0.1889 0.35197c0.0475 0.088 0.0945 0.17599 0.0945 0.26395l0.14164 0.39596c0.0474 0.088 0.0474 0.17597 0.0474 0.26399l0.0475 0.48393c0.0474 0.088 0.0474 0.17595 0 0.26396l-0.0475 0.43993c0 0.13197 0 0.21997-0.0474 0.30798l-0.14164 0.39593c0 0.088-0.0474 0.17598-0.0945 0.21996l-0.1889 0.39596c-0.0475 0.088-0.0942 0.17596-0.18887 0.26397l-0.28333 0.30796c-0.0475 0.088-0.0947 0.13197-0.18891 0.17597l-0.33052 0.30797c-0.0475 0.0439-0.14169 0.13197-0.23614 0.17597l-0.37775 0.17598c-0.0943 0.0439-0.18889 0.088-0.28336 0.13198l-0.42498 0.13199c-0.14169 0.0439-0.2361 0.0439-0.33056 0.0439l-0.47222 0.0439c-0.0946 0.0439-0.18889 0.0439-0.33054 0l-0.425-0.0439c-0.14169 0-0.23611 0-0.33057-0.0439l-0.42499-0.13199c-0.0947-0.0439-0.1889-0.088-0.28335-0.13198l-0.37777-0.17598c-0.0945-0.0439-0.18888-0.13199-0.28332-0.17597l-0.33056-0.30797c-0.0946-0.0439-0.14166-0.13196-0.1889-0.17597l-0.28335-0.35193c-0.0474-0.0439-0.0943-0.13199-0.14165-0.22l-0.23609-0.39596c0-0.0439-0.0475-0.13196-0.0944-0.21996l-0.0946-0.39593c-0.0475-0.088-0.0945-0.17601-0.0945-0.30798zm3.2111 0.17598-0.0944-0.26399 0.14168 0.39598-0.0946-0.21999 0.18888 0.35195-0.14166-0.21999 0.28334 0.30799-0.23612-0.17599 0.33056 0.26396-0.23612-0.17597 0.37779 0.17597-0.28333-0.088 0.425 0.13196-0.33057-0.088 0.425 0.0439h-0.33058l0.47224-0.0439-0.33055 0.088 0.42501-0.13196-0.28333 0.088 0.37775-0.17597-0.28331 0.17597 0.33053-0.26396-0.18888 0.17599 0.28334-0.35195-0.1889 0.26395 0.23611-0.35195-0.0946 0.21999 0.0946-0.39598-0.0474 0.26399 0.0474-0.43994v0.26396l-0.0474-0.43995 0.0474 0.26397-0.14167-0.43995 0.14167 0.26397-0.23611-0.35197 0.1889 0.26398-0.28334-0.35194 0.18888 0.17596-0.33053-0.26397 0.28331 0.17597-0.37775-0.17597 0.28333 0.088-0.42501-0.13199 0.33055 0.088-0.47224-0.0439h0.33058l-0.425 0.0439 0.33057-0.088-0.425 0.13199 0.28333-0.088-0.37779 0.17597 0.23612-0.17597-0.33056 0.26397 0.23612-0.21998-0.28334 0.35196 0.14166-0.21998-0.18888 0.35197 0.0946-0.26397-0.14168 0.43995 0.0944-0.26397-0.0474 0.43995v-0.26396z" stroke="#000" stroke-width=".045580px"/>
  <path id="path3318" stroke-linejoin="round" d="m796.33 347.36 0.32623 128.13-1.5589-0.008-0.32624-128.13 1.5589 0.008zm4.2608 126.81-4.7081 7.5533-4.7406-7.5376 9.4487-0.0154z" stroke="#000" stroke-width=".042216px"/>
  <path id="path3320" stroke-linejoin="round" d="m769.26 374.75 0.47205 98.964h-1.5577l-0.51925-98.914 1.6049-0.0507zm4.3898 97.247-4.6732 10.098-4.7677-10.048 9.4407-0.0506z" stroke="#000" stroke-width=".048820px"/>
  <text id="text3322" font-size="12.216px" xml:space="preserve" transform="scale(1.036 .96521)" y="513.65314" x="787.62616" font-family="Arial" fill="#000000">MC</text>
  <path id="path3324" stroke-linejoin="round" d="m799.52 448.29-12.703 8.7549 0.70832 0.87987 12.703-8.7109z" stroke="#000" stroke-width=".045580px"/>
  <path id="path3326" stroke-linejoin="round" d="m766.83 423.29-12.703 8.7109 0.66112 0.92385 12.703-8.7549z" stroke="#000" stroke-width=".045580px"/>
  <text id="text3328" font-size="12.217px" xml:space="preserve" transform="matrix(-.074330 -1.0168 .97844 -.069249 0 0)" line-height="125%" y="743.76093" x="-499.52844" font-family="Arial" fill="#000000"><tspan id="tspan4439" y="743.76093" x="-499.52844">IR3 -- IR0</tspan></text>
  <text id="text3330" font-size="12.216px" xml:space="preserve" transform="scale(1.036 .96521)" y="469.39633" x="753.60443" font-family="Arial" fill="#000000">4</text>
  <text id="text3332" font-size="12.216px" xml:space="preserve" transform="scale(1.036 .96521)" y="487.62585" x="428.21182" font-family="Arial" fill="#000000">5</text>
  <text id="text3334" font-size="12.216px" xml:space="preserve" transform="scale(1.036 .96521)" y="487.0238" x="513.56769" font-family="Arial" fill="#000000">5</text>
  <text id="text3336" font-size="12.216px" xml:space="preserve" transform="scale(1.036 .96521)" y="484.68451" x="598.9975" font-family="Arial" fill="#000000">5</text>
  <text id="text3338" font-size="11.276px" line-height="125%" transform="scale(1.036 .96521)" y="516.48083" x="435.58722" font-family="Arial" xml:space="preserve" fill="#000000">0</text>
  <text id="text3340" font-size="11.276px" line-height="125%" transform="scale(1.036 .96521)" y="516.73981" x="462.18015" font-family="Arial" xml:space="preserve" fill="#000000">1</text>
  <text id="text3342" font-size="15.132px" xml:space="preserve" transform="scale(1.036 .96521)" y="574.86395" x="529.9718" font-family="Arial" fill="#000000">RB</text>
  <text id="text3344" font-size="15.132px" xml:space="preserve" transform="scale(1.036 .96521)" y="573.77386" x="616.87775" font-family="Arial" fill="#000000">RC</text>
  <text id="text3346" font-size="15.132px" xml:space="preserve" transform="scale(1.036 .96521)" y="574.33295" x="444.57169" font-family="Arial" fill="#000000">RA</text>
  <text id="text3348" font-size="15.132px" xml:space="preserve" transform="scale(1.036 .96521)" y="572.09644" x="744.76013" font-family="Arial" fill="#000000">Cop</text>
  <text id="text3350" font-size="11.276px" line-height="125%" transform="scale(1.036 .96521)" y="516.4809" x="522.04816" font-family="Arial" xml:space="preserve" fill="#000000">0</text>
  <text id="text3352" font-size="11.276px" line-height="125%" transform="scale(1.036 .96521)" y="516.73981" x="549.82672" font-family="Arial" xml:space="preserve" fill="#000000">1</text>
  <text id="text3354" font-size="11.276px" line-height="125%" transform="scale(1.036 .96521)" y="511.51334" x="739.81805" font-family="Arial" xml:space="preserve" fill="#000000">0</text>
  <text id="text3356" font-size="11.276px" line-height="125%" transform="scale(1.036 .96521)" y="510.89569" x="765.44635" font-family="Arial" xml:space="preserve" fill="#000000">1</text>
  <text id="text3358" font-size="13.912px" xml:space="preserve" transform="scale(1.036 .96521)" y="171.70673" x="254.44589" font-family="Arial" line-height="125%" fill="#000000">A1</text>
  <text id="text3362" font-size="18.232px" xml:space="preserve" transform="scale(1.036 .96521)" y="290.43845" x="247.6969" font-family="Arial" fill="#000000">MUX B</text>
  <path id="path3364" stroke-linejoin="round" d="m246.46 303.47c0 0.41798 0.26307 0.74794 0.62013 0.74794h78.139c0.33823 0 0.62013-0.32996 0.62013-0.74794v-46.79c0-0.39598-0.2819-0.72595-0.62013-0.72595h-78.139c-0.35706 0-0.62013 0.32997-0.62013 0.72595zm1.2403-46.79-0.62013 0.72595h78.139l-0.62017-0.72595v46.79l0.62017-0.72594h-78.139l0.62013 0.72594z" stroke="#000" stroke-width=".020332px"/>
  <text id="text3366" font-size="12.648px" line-height="125%" transform="scale(1.036 .96521)" y="307.7132" x="257.54614" font-family="Arial" xml:space="preserve" fill="#000000">0</text>
  <text id="text3368" font-size="12.648px" line-height="125%" transform="scale(1.036 .96521)" y="307.97192" x="285.84903" font-family="Arial" xml:space="preserve" fill="#000000">1</text>
  <path id="path3372" stroke-linejoin="round" d="m301.04 324.7v-13.461h-1.5819v13.461h1.5819zm3.9194-11.989-4.7222-8.7988-4.7223 8.7988h9.4444z" stroke="#000" stroke-width=".022790px"/>
  <text id="text3374" font-size="13.912px" xml:space="preserve" transform="scale(1.036 .96521)" y="73.757187" x="213.80421" font-family="Arial" line-height="125%" fill="#000000">00</text>
  <text id="text3376" font-size="13.912px" xml:space="preserve" transform="scale(1.036 .96521)" y="101.35857" x="213.80421" font-family="Arial" line-height="125%" fill="#000000"><tspan id="tspan5996" y="101.35857" x="213.80421">01</tspan></text>
  <text id="text3378" font-size="13.912px" xml:space="preserve" transform="scale(1.036 .96521)" y="128.9599" x="212.9872" font-family="Arial" line-height="125%" fill="#000000"><tspan id="tspan5998" y="128.9599" x="212.9872">10</tspan></text>
  <text id="text3380" font-size="13.912px" xml:space="preserve" transform="scale(1.036 .96521)" y="156.56128" x="212.9872" font-family="Arial" line-height="125%" fill="#000000">11</text>
  <path id="path3382" fill-rule="evenodd" fill="#fff" d="m291.43 347.56 8.9249-16.63 8.925 16.63z"/>
  <path id="path3384" stroke-linejoin="round" d="m291.43 343.77c-0.21254 0-0.40143-0.0833-0.51953-0.19931-0.0943-0.13282-0.11805-0.28228-0.0234-0.39851l8.9264-12.554c0.0944-0.14944 0.30699-0.23248 0.54313-0.23248 0.21253 0 0.42506 0.0832 0.51953 0.23248l8.9264 12.554c0.0946 0.11623 0.0706 0.26569-0.0234 0.39851-0.11807 0.11625-0.30699 0.19931-0.4959 0.19931zm17.853-0.83027-0.54314 0.5978-8.9264-12.554h1.0627l-8.9264 12.554-0.51952-0.5978z" stroke="#000" stroke-width=".019803px"/>
  <path id="path3386" fill-rule="evenodd" fill="#fff" d="m295.76 327.34c0-2.2877 2.0069-4.1573 4.4624-4.1573 2.4792 0 4.4624 1.8696 4.4624 4.1573s-1.9834 4.1574-4.4624 4.1574c-2.4556 0-4.4624-1.8696-4.4624-4.1574"/>
  <path id="path3388" stroke-linejoin="round" d="m295.18 327.42c-0.0234-0.0439-0.0234-0.088 0-0.13201l0.0945-0.83588c0-0.022 0-0.066 0.0234-0.088l0.25971-0.7919c0-0.022 0.0234-0.0659 0.0234-0.088l0.40139-0.70392c0.0234-0.0439 0.0474-0.0657 0.0705-0.11003l0.56666-0.61592 0.0707-0.0659 0.66113-0.50593c0.0234-0.022 0.0707-0.0439 0.0944-0.0439l0.75554-0.39595c0.0233-0.022 0.0706-0.022 0.11808-0.0439l0.82638-0.24199c0.0475 0 0.0707-0.022 0.11808-0.022l0.89719-0.088h0.11807l0.8972 0.088c0.0475 0 0.0707 0.022 0.11807 0.022l0.82638 0.24199c0.0475 0.022 0.0707 0.022 0.11808 0.0439l0.75554 0.39595c0.0234 0 0.0707 0.022 0.0942 0.0439l0.66114 0.50593 0.0707 0.0659 0.56669 0.61592c0.0234 0.0439 0.0475 0.066 0.0707 0.11003l0.40139 0.70392c0 0.022 0.0234 0.0661 0.0234 0.088l0.25972 0.7919c0.0233 0.022 0.0233 0.0661 0.0233 0.088l0.0947 0.83588c0.0234 0.0439 0.0234 0.088 0 0.13201l-0.0947 0.83588c0 0.022 0 0.0659-0.0233 0.088l-0.25972 0.79189c0 0.022-0.0234 0.0659-0.0234 0.088l-0.40139 0.70391c-0.0234 0.0439-0.0475 0.0662-0.0707 0.11003l-0.56669 0.61592-0.0707 0.0659-0.66114 0.50594c-0.0234 0.022-0.0707 0.0439-0.0942 0.066l-0.75554 0.37396c-0.0475 0.022-0.0705 0.022-0.11808 0.0439l-0.82638 0.24197c-0.0475 0-0.0707 0.0219-0.11807 0.0219l-0.8972 0.088h-0.11807l-0.89719-0.088c-0.0475 0-0.0707-0.0219-0.11808-0.0219l-0.82638-0.24197c-0.0475-0.022-0.0707-0.022-0.11808-0.0439l-0.75554-0.37396c-0.0234-0.022-0.0707-0.0439-0.0944-0.066l-0.66113-0.50594-0.0707-0.0659-0.56666-0.61592c-0.0235-0.0439-0.0475-0.0659-0.0705-0.11003l-0.40139-0.70391c0-0.0221-0.0234-0.066-0.0234-0.088l-0.25971-0.79189c-0.0234-0.0219-0.0234-0.0657-0.0234-0.088zm1.2514 0.70389-0.0234-0.088 0.25971 0.76991-0.0233-0.088 0.40137 0.70393-0.0707-0.11001 0.54308 0.61592-0.0707-0.0659 0.66109 0.52794-0.0942-0.0659 0.75559 0.37395-0.1181-0.0439 0.85003 0.24198-0.11806-0.022 0.89719 0.088h-0.11808l0.89725-0.088-0.11806 0.022 0.85-0.24198-0.11809 0.0439 0.75557-0.37395-0.0944 0.0659 0.66109-0.52794-0.0707 0.0659 0.54306-0.61592-0.0705 0.11001 0.40136-0.70393-0.0234 0.088 0.25972-0.76991-0.0234 0.088 0.0944-0.8359v0.13201l-0.0944-0.83588 0.0234 0.088-0.25972-0.76988 0.0234 0.088-0.40136-0.70391 0.0705 0.11001-0.54306-0.61589 0.0707 0.0658-0.66109-0.5059 0.0944 0.0439-0.75557-0.37395 0.11809 0.0439-0.85-0.24195 0.11806 0.022-0.89725-0.088h0.11808l-0.89719 0.088 0.11806-0.022-0.85003 0.24195 0.1181-0.0439-0.75559 0.37395 0.0942-0.0439-0.66109 0.5059 0.0707-0.0658-0.54308 0.61589 0.0707-0.11001-0.40137 0.70391 0.0233-0.088-0.25971 0.76988 0.0234-0.088-0.0945 0.83588v-0.13201z" stroke="#000" stroke-width=".022790px"/>
  <path id="path3390" stroke-linejoin="round" d="m301.3 359.64v-16.63h-1.1805v16.63z" stroke="#000" stroke-width=".022790px"/>
  <path id="path3392" stroke-linejoin="round" d="m268.73 358.82h31.786v1.1013h-31.786z" stroke="#000" stroke-width=".021302px"/>
  <path id="path3394" fill-rule="evenodd" fill="#d9d9d9" d="m434.51 273.66v32.27h22.438v-32.27h-22.438z"/>
  <path id="path3396" stroke-linejoin="round" d="m433.33 273.86c0-0.38334 0.42236-0.70275 0.99551-0.70275h22.412c0.54301 0 0.99551 0.31941 0.99551 0.70275v31.242c0 0.38333-0.4525 0.70275-0.99551 0.70275h-22.412c-0.57315 0-0.99551-0.31942-0.99551-0.70275zm1.9908 31.242-0.99546-0.70278h22.412l-1.0257 0.70278v-31.242l1.0257 0.70276h-22.412l0.99546-0.70276z" stroke="#000" stroke-width=".025347px"/>
  <path id="path3398" fill-rule="evenodd" fill="#d9d9d9" d="m457.23 273.66v32.27h31.238v-32.27h-31.238z"/>
  <path id="path3400" stroke-linejoin="round" d="m456.44 273.86c0-0.38336 0.33059-0.70285 0.7792-0.70285h31.238c0.425 0 0.77921 0.31949 0.77921 0.70285v31.244c0 0.38336-0.35421 0.70281-0.77921 0.70281h-31.238c-0.44861 0-0.7792-0.31945-0.7792-0.70281zm1.5584 31.244-0.77917-0.70282h31.238l-0.80277 0.70282v-31.244l0.80277 0.70283h-31.238l0.77917-0.70283z" stroke="#000" stroke-width=".022425px"/>
  <path id="path3402" fill-rule="evenodd" fill="#d9d9d9" d="m411.96 273.66v32.27h22.275v-32.27h-22.275z"/>
  <path id="path3404" stroke-linejoin="round" d="m411.59 273.86c0-0.38332 0.41593-0.70276 0.98041-0.70276h22.075c0.53477 0 0.98042 0.31944 0.98042 0.70276v31.242c0 0.38333-0.44565 0.70276-0.98042 0.70276h-22.075c-0.56448 0-0.98041-0.31943-0.98041-0.70276zm1.9608 31.242-0.98047-0.70278h22.075l-1.0101 0.70278v-31.242l1.0101 0.70275h-22.075l0.98047-0.70275z" stroke="#000" stroke-width=".025154px"/>
  <text id="text3406" font-size="13.64px" xml:space="preserve" transform="scale(1.036 .96521)" y="305.60843" x="400.38226" font-family="Arial" line-height="125%" fill="#000000">A0</text>
  <text id="text3408" font-size="16.671px" xml:space="preserve" transform="scale(1.036 .96521)" y="306.75677" x="424.38559" font-family="Arial" line-height="125%" fill="#000000">B</text>
  <text id="text3410" font-size="16.671px" xml:space="preserve" transform="scale(1.036 .96521)" y="306.75677" x="449.92139" font-family="Arial" line-height="125%" fill="#000000">C</text>
  <text id="text3412" font-size="15.132px" xml:space="preserve" transform="scale(1.036 .96521)" y="246.87952" x="515.4035" font-family="Arial" fill="#000000">µAddress</text>
  <path id="path3414" stroke-linejoin="round" d="m473.38 305.58v35.306h-1.1544v-35.306z" stroke="#000" stroke-width=".022536px"/>
  <path id="path3416" stroke-linejoin="round" d="m563.7 201.75v21.787h-1.1801v-21.787z" stroke="#000" stroke-width=".023145px"/>
  <path id="path3418" stroke-linejoin="round" d="m489.06 270.68 0.0474-2.5516 0.14168-2.4197 0.0947-1.1438 0.14166-1.0559 0.14166-1.0119 0.14168-0.87989 0.14168-0.87988 0.18886-0.7479 0.18891-0.65991 0.23609-0.57192 0.1889-0.43996c0.0475-0.0439 0.0475-0.088 0.0475-0.088l0.23613-0.30798c0.0474-0.0439 0.0474-0.088 0.0943-0.088l0.23612-0.21998c0.0475-0.0439 0.14167-0.088 0.23612-0.132l0.23611-0.0439c0.0474-0.0439 0.0945-0.0439 0.14166-0.0439h68.566l-0.18887 0.0439 0.2361-0.088-0.2361 0.13195 0.2361-0.17596-0.0942 0.088 0.2361-0.30794-0.0474 0.088 0.18891-0.43995 0.18888-0.48394 0.18888-0.61592 0.14166-0.7039 0.18889-0.79189 0.14167-0.8799 0.0946-0.96787 0.14169-1.0558 0.0946-1.0998 0.0944-2.3757 0.0475-2.5516c0.0474-0.30795 0.28333-0.52793 0.61388-0.52793 0.33057 0 0.56665 0.21998 0.56665 0.52793l0.0474 2.5956 0.14168 2.3318 0.0945 1.0998 0.14168 1.0559 0.0946 0.96787 0.14165 0.8799 0.18889 0.79189 0.14166 0.7039 0.1889 0.61592 0.18889 0.52793 0.18888 0.39595-0.0474-0.088 0.23613 0.30794-0.0945-0.088 0.23611 0.17596-0.23611-0.13194 0.23611 0.088-0.18887-0.0439h68.566c0.0475 0 0.0944 0 0.14167 0.0439l0.23615 0.0439c0.0945 0.0439 0.18888 0.088 0.23607 0.13201l0.23613 0.21997c0.0474 0 0.0474 0.0439 0.0945 0.088l0.2361 0.30798s0 0.0439 0.0474 0.088l0.1889 0.39594 0.23612 0.61594 0.18888 0.65991 0.18886 0.74788 0.14171 0.8359 0.14167 0.92389 0.14163 1.0118 0.14168 1.0559 0.0945 1.0998 0.0944 2.4197 0.0475 2.5956h-1.1806l-0.0474-2.5516-0.0945-2.3757-0.0946-1.0558-0.14168-1.0559-0.0943-0.96787-0.14169-0.87991-0.18886-0.83588-0.14167-0.65992-0.18889-0.61591-0.18887-0.52793-0.18889-0.39593 0.0474 0.088-0.23612-0.30797 0.0943 0.088-0.2361-0.21995 0.2361 0.13196-0.2361-0.0439h0.18886-68.566-0.14167l-0.23613-0.088c-0.0944 0-0.18887-0.0439-0.2361-0.132l-0.23609-0.17599c-0.0474-0.0439-0.0474-0.088-0.0946-0.088l-0.23609-0.30798c0-0.0439 0-0.088-0.0474-0.088l-0.1889-0.48393-0.23611-0.57194-0.18889-0.65989-0.18888-0.7479-0.14167-0.83591-0.14167-0.92388-0.14165-0.96785-0.14168-1.0998-0.0945-1.0998-0.14169-2.4198-0.0475-2.5516h1.1805l-0.0475 2.5516-0.0944 2.4198-0.0945 1.1438-0.14168 1.0559-0.14165 0.96784-0.14168 0.92388-0.14167 0.83591-0.18886 0.79189-0.18893 0.65992-0.23611 0.57192-0.18891 0.43994c-0.0474 0-0.0474 0.0439-0.0474 0.088l-0.23611 0.30798c-0.0474 0-0.0474 0.0439-0.0943 0.088l-0.23613 0.176c-0.0474 0.088-0.14166 0.13198-0.23609 0.13198l-0.23612 0.088h-0.14166-68.566 0.18887l-0.2361 0.0439 0.2361-0.13196-0.2361 0.21996 0.0942-0.088-0.2361 0.30797 0.0475-0.088-0.18892 0.39593-0.18888 0.48394-0.18888 0.61594-0.14167 0.70388-0.18888 0.79191-0.14165 0.87989-0.0944 1.0119-0.14165 1.0119-0.0945 1.0998-0.14165 2.3757-0.0474 2.5516z" stroke="#000" stroke-width=".045580px"/>
  <path id="path3422" stroke-linejoin="round" d="m108.77 514.18c0-0.36129 0.32831-0.62751 0.72228-0.62751h23.813c0.41585 0 0.74416 0.26622 0.74416 0.62751v26.374c0 0.34228-0.32831 0.6275-0.74416 0.6275h-23.813c-0.39397 0-0.72228-0.28522-0.72228-0.6275zm1.4664 26.374-0.74419-0.62752h23.813l-0.72228 0.62752v-26.374l0.72228 0.62754h-23.813l0.74419-0.62754z" stroke="#000" stroke-width=".020401px"/>
  <text id="text3424" font-size="27.347px" xml:space="preserve" transform="scale(1.036 .96521)" y="556.54449" x="111.26686" font-family="Arial" fill="#ffffff">º</text>
  <path id="path3426" stroke-linejoin="round" d="m132.73 514.18c0-0.3613 0.31105-0.62752 0.68432-0.62752h22.562c0.37324 0 0.68428 0.26622 0.68428 0.62752v26.375c0 0.34228-0.31104 0.62751-0.68428 0.62751h-22.562c-0.37327 0-0.68432-0.28523-0.68432-0.62751zm1.3893 26.375-0.705-0.62753h22.562l-0.68431 0.62753v-26.375l0.68431 0.62755h-22.562l0.705-0.62755z" stroke="#000" stroke-width=".019857px"/>
  <path id="path3428" stroke-linejoin="round" d="m155.37 514.18c0-0.36129 0.34069-0.62749 0.74953-0.62749h24.711c0.40885 0 0.74955 0.2662 0.74955 0.62749v26.374c0 0.34227-0.3407 0.62747-0.74955 0.62747h-24.711c-0.40884 0-0.74953-0.2852-0.74953-0.62747zm1.499 26.374-0.74952-0.62752h24.711l-0.74953 0.62752v-26.374l0.74953 0.62754h-24.711l0.74952-0.62754z" stroke="#000" stroke-width=".020782px"/>
  <path id="path3430" stroke-linejoin="round" d="m230.2 514.18c0-0.3613 0.31831-0.62753 0.7003-0.62753h23.089c0.38197 0 0.70026 0.26623 0.70026 0.62753v26.375c0 0.34229-0.31829 0.62752-0.70026 0.62752h-23.089c-0.38199 0-0.7003-0.28523-0.7003-0.62752zm1.4218 26.375-0.72153-0.62752h23.088l-0.70027 0.62752v-26.375l0.70027 0.62754h-23.088l0.72153-0.62754z" stroke="#000" stroke-width=".020088px"/>
  <path id="path3432" stroke-linejoin="round" d="m253.56 514.18c0-0.36128 0.33071-0.6275 0.72758-0.6275h23.988c0.39684 0 0.72753 0.26622 0.72753 0.6275v26.374c0 0.34227-0.33069 0.62749-0.72753 0.62749h-23.988c-0.39687 0-0.72758-0.28522-0.72758-0.62749zm1.4551 26.374-0.72758-0.62752h23.988l-0.74961 0.62752v-26.374l0.74961 0.62754h-23.988l0.72758-0.62754z" stroke="#000" stroke-width=".020475px"/>
  <text id="text3434" font-size="15.132px" xml:space="preserve" transform="scale(1.036 .96521)" y="551.71161" x="111.71055" font-family="Arial" line-height="125%" fill="#000000"><tspan id="tspan3657" y="551.71161" x="111.71055">C</tspan></text>
  <text id="text3436" font-size="15.132px" xml:space="preserve" transform="scale(1.036 .96521)" y="551.71161" x="134.54605" font-family="Arial" line-height="125%" fill="#000000"><tspan id="tspan3655" y="551.71161" x="134.54605">V</tspan></text>
  <text id="text3438" font-size="15.132px" xml:space="preserve" transform="scale(1.036 .96521)" y="551.71161" x="157.32663" font-family="Arial" line-height="125%" fill="#000000"><tspan id="tspan3653" y="551.71161" x="157.32663">N</tspan></text>
  <text id="text3440" font-size="15.132px" xml:space="preserve" transform="scale(1.036 .96521)" y="551.71161" x="232.45288" font-family="Arial" fill="#000000">I</text>
  <text id="text3442" font-size="15.132px" xml:space="preserve" transform="scale(1.036 .96521)" y="551.71161" x="251.64977" font-family="Arial" fill="#000000">U</text>
  <path id="path3444" stroke-linejoin="round" d="m205.76 514.18c0-0.36136 0.15136-0.62764 0.35677-0.62764h25.298c0.2054 0 0.36759 0.26628 0.36759 0.62764v26.38c0 0.34235-0.16219 0.62763-0.36759 0.62763h-25.298c-0.20541 0-0.35677-0.28528-0.35677-0.62763zm0.71351 26.38-0.35676-0.62766h25.298l-0.35677 0.62766v-26.38l0.35677 0.62768h-25.298l0.35676-0.62768z" stroke="#000" stroke-width=".014339px"/>
  <text id="text3446" font-size="12.529px" xml:space="preserve" transform="scale(1.036 .96521)" y="573.74115" x="110.2514" font-family="Arial" line-height="125%" fill="#000000">31</text>
  <text id="text3448" font-size="12.529px" xml:space="preserve" transform="scale(1.036 .96521)" y="573.74115" x="131.97784" font-family="Arial" line-height="125%" fill="#000000">30</text>
  <text id="text3450" font-size="12.529px" xml:space="preserve" transform="scale(1.036 .96521)" y="573.74115" x="155.95248" font-family="Arial" line-height="125%" fill="#000000">29</text>
  <text id="text3452" font-size="12.529px" xml:space="preserve" transform="scale(1.036 .96521)" y="573.74115" x="231.5981" font-family="Arial" line-height="125%" fill="#000000">1</text>
  <text id="text3454" font-size="13.782px" xml:space="preserve" transform="scale(1.036 .96521)" y="504.41763" x="264.42911" font-family="Arial" line-height="125%" fill="#000000"><tspan id="tspan14887" x="264.42911" y="504.41763">MRdy</tspan></text>
  <text id="text3456" font-size="13.782px" xml:space="preserve" transform="scale(1.036 .96521)" y="528.0423" x="289.60223" font-family="Arial" line-height="125%" fill="#000000"><tspan id="tspan14885" x="289.60223" y="528.0423">IORdy</tspan></text>
  <text id="text3458" font-size="13.782px" xml:space="preserve" transform="scale(1.036 .96521)" y="504.94849" x="321.31931" font-family="Arial" line-height="125%" fill="#000000"><tspan id="tspan14889" x="321.31931" y="504.94849">INT</tspan></text>
  <text id="text3460" font-size="12.125px" xml:space="preserve" transform="scale(1.036 .96521)" y="458.62888" x="159.84204" font-family="Arial" line-height="125%" fill="#000000">7</text>
  <text id="text3462" font-size="12.125px" xml:space="preserve" transform="scale(1.036 .96521)" y="458.62885" x="182.94032" font-family="Arial" line-height="125%" fill="#000000">6</text>
  <text id="text3464" font-size="12.125px" xml:space="preserve" transform="scale(1.036 .96521)" y="458.87033" x="230.71422" font-family="Arial" line-height="125%" fill="#000000">5</text>
  <text id="text3466" font-size="12.125px" xml:space="preserve" transform="scale(1.036 .96521)" y="458.62885" x="253.68036" font-family="Arial" line-height="125%" fill="#000000">4</text>
  <text id="text3468" font-size="12.125px" xml:space="preserve" transform="scale(1.036 .96521)" y="458.62888" x="278.77554" font-family="Arial" line-height="125%" fill="#000000">3</text>
  <text id="text3470" font-size="12.125px" xml:space="preserve" transform="scale(1.036 .96521)" y="458.62888" x="305.21945" font-family="Arial" line-height="125%" fill="#000000">2</text>
  <text id="text3472" font-size="12.125px" xml:space="preserve" transform="scale(1.036 .96521)" y="458.62888" x="328.12405" font-family="Arial" line-height="125%" fill="#000000">1</text>
  <text id="text3474" font-size="12.125px" xml:space="preserve" transform="scale(1.036 .96521)" y="458.62888" x="351.24362" font-family="Arial" line-height="125%" fill="#000000">0</text>
  <text id="text3476" font-size="12.125px" xml:space="preserve" transform="scale(1.036 .96521)" y="458.62888" x="136.66518" font-family="Arial" line-height="125%" fill="#000000">8</text>
  <path id="path3480" stroke-linejoin="round" d="m243.62 514.48v-60.651h-1.5583v60.651h1.5583zm3.9432-59.44-4.7222-7.2246-4.7222 7.2246h9.4444z" stroke="#000" stroke-width=".020651px"/>
  <path id="path3482" stroke-linejoin="round" d="m267.29 514.48v-60.651h-1.5819v60.651h1.5819zm3.9196-59.44-4.7223-7.2246-4.7222 7.2246h9.4445z" stroke="#000" stroke-width=".020651px"/>
  <path id="path3484" stroke-linejoin="round" d="m146.07 514.71v-60.628h-1.582v60.628h1.582zm3.9197-59.437-4.7223-7.2241-4.7222 7.2241h9.4446z" stroke="#000" stroke-width=".020651px"/>
  <path id="path3486" stroke-linejoin="round" d="m169.42 514.71v-60.628h-1.582v60.628h1.582zm3.9196-59.437-4.7222-7.2241-4.7222 7.2241h9.4446z" stroke="#000" stroke-width=".020651px"/>
  <path id="path3488" stroke-linejoin="round" d="m194.15 514.79v-60.651h-1.5583v60.651h1.5583zm3.9432-59.44-4.7222-7.2246-4.7223 7.2246h9.4444z" stroke="#000" stroke-width=".020651px"/>
  <path id="path3490" stroke-linejoin="round" d="m633.98 449.75v29.536h-1.5582v-29.536h1.5582zm3.9664 28.118-4.7219 8.5857-4.722-8.5857h9.4439z" stroke="#000" stroke-width=".045023px"/>
  <path id="path3492" stroke-linejoin="round" d="m544.91 452.63v28.113h-1.5819v-28.113h1.5819zm3.9193 26.766-4.7221 8.1727-4.7221-8.1727h9.4442z" stroke="#000" stroke-width=".021964px"/>
  <path id="path3494" stroke-linejoin="round" d="m455.87 450.79v30.215h-1.5818v-30.215h1.5818zm3.9429 28.767-4.7219 8.7831-4.7219-8.7831h9.4438z" stroke="#000" stroke-width=".022769px"/>
  <path id="path3496" stroke-linejoin="round" d="m417.17 425.68h-27.331v1.4531h27.331v-1.4531zm-26.664-3.6768-3.9811 4.4033 3.9811 4.4034v-8.8066z" stroke="#000" stroke-width=".014804px"/>
  <path id="path3498" stroke-linejoin="round" d="m416.67 340.45h56.149v1.1009h-56.149z" stroke="#000" stroke-width=".021502px"/>
  <path id="path3500" stroke-linejoin="round" d="m136.74 201.77h426.92v1.3336h-426.92z" stroke="#000" stroke-width=".023367px"/>
  <path id="path3502" stroke-linejoin="round" d="m850.23 549-0.10867-18.183 1.2159-0.006 0.10869 18.183z" stroke="#000" stroke-width=".028405px"/>
  <path id="path3504" stroke-linejoin="round" d="m107.59 92.689h99.082v1.4632h-99.082v-1.4632zm98.109-3.6635 5.8138 4.4006-5.8138 4.4006v-8.8013z" stroke="#000" stroke-width=".0089416px"/>
  <path id="path3118-3" stroke-linejoin="round" d="m393.15 159.82v-15.331h-1.5819v15.331h1.5819zm3.9194-13.857-4.7223-8.7988-4.7222 8.7988h9.4445z" stroke="#000" stroke-width=".022790px"/>
  <g id="g4875" stroke-linejoin="round" stroke="#000" stroke-width=".043902px" transform="matrix(.73554 0 0 1.0728 105.27 -11.085)">
   <path id="path3042-5" d="m358.27 176.57h12.482v1.0923h-12.482z"/>
   <path id="path3044-3" d="m384.56 176.57h12.483v1.0923h-12.483z"/>
   <path id="path3046-8" d="m409.52 176.57h12.483v1.0923h-12.483z"/>
   <path id="path3048-7" d="m371.07 163.72h13.454v1.0923h-13.454z"/>
   <path id="path3050-6" d="m371.62 177.48v-13.588h-1.1028v13.588z"/>
   <path id="path3052-7" d="m384.73 177.48v-13.938h-1.1028v13.938z"/>
   <path id="path3054-4" d="m397.2 177.48v-13.938h-1.1028v13.938z"/>
   <path id="path3056-8" d="m410.66 177.14v-13.588h-1.1027v13.588z"/>
   <path id="path3058-1" d="m396.38 163.72h13.763v1.0923h-13.763z"/>
  </g>
  <path id="path3100-8" stroke-linejoin="round" d="m108.02 92.808-0.14745 137.97h1.2328l0.14745-137.97z" stroke="#000" stroke-width=".015005px"/>
  <path id="path3100-9" stroke-linejoin="round" d="m429.46 21.294-0.14169 68.448h1.1806l0.14168-68.448z" stroke="#000" stroke-width=".010344px"/>
  <text id="text3172-1" font-size="16.671px" xml:space="preserve" transform="scale(1.036 .96521)" y="306.75677" x="627.14349" font-family="Arial" line-height="125%" fill="#000000"><tspan id="tspan4412" y="306.75677" x="627.14349">MR</tspan></text>
  <path id="path3180-5" stroke-linejoin="round" d="m644.48 274.14c0-0.39606 0.19714-0.74813 0.47876-0.74813h38.357c0.25346 0 0.45058 0.35207 0.45058 0.74813v30.673c0 0.39606-0.19712 0.74813-0.45058 0.74813h-38.357c-0.28162 0-0.47876-0.35207-0.47876-0.74813zm0.92935 30.673-0.45059-0.74817h38.357l-0.47874 0.74817v-30.673l0.47874 0.74814h-38.357l0.45059-0.74814z" stroke="#000" stroke-width=".035204px"/>
  <text id="text3172-1-5" font-size="16.671px" xml:space="preserve" transform="scale(1.036 .96521)" y="306.75677" x="697.42456" font-family="Arial" line-height="125%" fill="#000000"><tspan id="tspan4435" y="306.75677" x="697.42456">MC</tspan></text>
  <path id="path3180-5-7" stroke-linejoin="round" d="m682.02 274.1c0-0.3961 0.1905-0.74816 0.46257-0.74816h37.059c0.24492 0 0.43536 0.35206 0.43536 0.74816v30.674c0 0.39609-0.19044 0.74815-0.43536 0.74815h-37.059c-0.27207 0-0.46257-0.35206-0.46257-0.74815zm0.89789 30.674-0.43532-0.74816h37.059l-0.46254 0.74816v-30.674l0.46254 0.74813h-37.059l0.43532-0.74813z" stroke="#000" stroke-width=".034604px"/>
  <text id="text4138" font-size="14.71px" xml:space="preserve" transform="scale(1.1024 .90715)" y="173.5892" x="364.32236" font-family="Arial" line-height="125%" fill="#000000"><tspan id="tspan4140" y="173.5892" x="364.32236">CLK</tspan></text>
  <path id="path3310-3" stroke-linejoin="round" d="m818.09 274c0-0.39583 0.50456-0.74766 1.1533-0.74766h68.116c0.64876 0 1.2255 0.35183 1.2255 0.74766v30.654c0 0.3958-0.57662 0.74763-1.2255 0.74763h-68.116c-0.64874 0-1.1533-0.35183-1.1533-0.74763zm1.7477 30.706-0.59445-0.79959h68.116l0.0366 0.49139-0.26448-30.142 0.22772 0.4914h-68.116l0.65179-0.64371z" stroke="#000" stroke-width=".056305px"/>
  <text id="text3312-6" font-size="16.671px" xml:space="preserve" transform="scale(1.036 .96521)" y="305.40381" x="793.97192" font-family="Arial" line-height="125%" fill="#000000"><tspan id="tspan3945" y="305.40381" x="793.97192">ExCode</tspan></text>
  <path id="path3324-5" stroke-linejoin="round" d="m855.73 384.61-12.703 8.7549 0.70843 0.8799 12.703-8.7109z" stroke="#000" stroke-width=".045580px"/>
  <text id="text3330-3" font-size="12.216px" xml:space="preserve" transform="scale(1.036 .96521)" y="403.41257" x="807.849" font-family="Arial" fill="#000000">4</text>
  <path id="path3131-3" stroke-linejoin="round" d="m859.58 519.2c0.26569 0 0.4905 0.13864 0.61312 0.35655 0.10227 0.21786 0.0817 0.47533-0.0612 0.6734l-9.0329 12.221c-0.12264 0.17826-0.34742 0.27727-0.55179 0.27727-0.22477 0-0.42916-0.0991-0.55178-0.27727l-9.0533-12.221c-0.14307-0.19807-0.1635-0.45554-0.041-0.6734 0.10226-0.21791 0.34743-0.35655 0.59267-0.35655zm-18.086 1.3072 0.55178-1.0497 9.0533 12.221h-1.1037l9.0329-12.221 0.55175 1.0497z" stroke="#000" stroke-width=".020120px"/>
  <path id="path3133-6" stroke-linejoin="round" d="m868.08 526.45h-13.098v-0.99034h13.098z" stroke="#000" stroke-width="1.0905px"/>
  <path id="path3139-7" stroke-linejoin="round" d="m849.49 498.86v15.198h1.3694v-15.198h-1.3694zm-3.3932 14.076 4.0882 6.6875 4.0882-6.6875h-8.1762z" stroke="#000" stroke-width=".018486px"/>
  <text id="text3147-5" font-size="13.38px" xml:space="preserve" transform="scale(1.0158 .98448)" line-height="125%" y="526.73932" x="849.47699" font-family="Arial" fill="#000000"><tspan id="tspan4426" y="526.73932" x="849.47699">T11</tspan></text>
  <path id="path3081-3" stroke-linejoin="round" d="m850.83 500.63v-195.28h-1.2157v195.28z" stroke="#000" stroke-width=".043513px"/>
  <path id="path3428-3" stroke-linejoin="round" d="m180.14 514.26c0-0.3613 0.34177-0.62751 0.75187-0.62751h24.79c0.41014 0 0.75188 0.26621 0.75188 0.62751v26.374c0 0.34227-0.34174 0.6275-0.75188 0.6275h-24.79c-0.4101 0-0.75187-0.28523-0.75187-0.6275zm1.5037 26.374-0.75187-0.6275h24.79l-0.75189 0.6275v-26.374l0.75189 0.62748h-24.79l0.75187-0.62748z" stroke="#000" stroke-width=".020814px"/>
  <text id="text3438-6" font-size="15.132px" xml:space="preserve" transform="scale(1.036 .96521)" y="551.81274" x="181.93867" font-family="Arial" fill="#000000">Z</text>
  <text id="text3450-7" font-size="12.529px" xml:space="preserve" transform="scale(1.036 .96521)" y="573.84222" x="180.21307" font-family="Arial" line-height="125%" fill="#000000"><tspan id="tspan3651" font-size="12.529px" line-height="125%" y="573.84222" x="180.21307" font-family="Arial">28</tspan></text>
  <text id="text3476-8" font-size="12.125px" xml:space="preserve" transform="scale(1.036 .96521)" y="458.34546" x="114.05827" font-family="Arial" line-height="125%" fill="#000000"><tspan id="tspan3677" y="458.34546" x="114.05827">9</tspan></text>
  <path id="path3484-9" stroke-linejoin="round" d="m122.41 514.23v-60.628h-1.582v60.628h1.582zm3.9196-59.437-4.7222-7.2241-4.7222 7.2241h9.4446z" stroke="#000" stroke-width=".020651px"/>
  <text id="text3476-8-6" font-size="12.125px" xml:space="preserve" transform="scale(1.036 .96521)" y="458.58694" x="88.620804" font-family="Arial" line-height="125%" fill="#000000"><tspan id="tspan3700" y="458.58694" x="88.620804">10</tspan></text>
  <path id="path3108-3" stroke-linejoin="round" d="m100.1 472.37v-17.928h-1.582v17.928h1.582zm3.9432-16.678-4.7223-7.4623-4.7222 7.4623h9.4446z" stroke="#000" stroke-width=".020986px"/>
  <path id="path3260-3" stroke-linejoin="round" d="m64.796 473.45 0.71593-217.38-0.873-0.0371-0.71587 217.44z" stroke="#000" stroke-width=".25476px"/>
  <path id="path3020" stroke-linejoin="round" d="m83.882 327.38c0-0.32191 0.3403-0.59015 0.74868-0.59015h131.22c0.43111 0 0.7714 0.26824 0.7714 0.59015v24.806c0 0.33981-0.34029 0.59016-0.7714 0.59016h-131.22c-0.40838 0-0.74868-0.25035-0.74868-0.59016zm1.5201 24.806-0.77137-0.59018h131.22l-0.74865 0.59018v-24.806l0.74865 0.59017h-131.22l0.77137-0.59017z" stroke="#000" stroke-width=".020144px"/>
  <text id="text3030" font-size="20.909px" xml:space="preserve" transform="scale(1.0156 .98468)" y="270.77539" x="105.76311" font-family="Arial" line-height="125%" fill="#000000"><tspan id="tspan4390" y="270.77539" x="105.76311">co2µaddr</tspan></text>
  <path id="path3032" stroke-linejoin="round" d="m83.962 327.38c0-0.32191 0.34032-0.59015 0.77138-0.59015h51.365c0.43108 0 0.74866 0.26824 0.74866 0.59015v24.806c0 0.33981-0.31758 0.59016-0.74866 0.59016h-51.365c-0.43106 0-0.77138-0.25035-0.77138-0.59016zm1.5201 24.806-0.74869-0.59018h51.365l-0.7487 0.59018v-24.806l0.7487 0.59017h-51.365l0.74869-0.59017z" stroke="#000" stroke-width=".020144px"/>
  <text id="text3034" font-size="16.342px" xml:space="preserve" transform="scale(1.0156 .98468)" y="351.52069" x="97.40271" font-family="Arial" line-height="125%" fill="#000000">CO</text>
  <text id="text3036" font-size="17.872px" xml:space="preserve" transform="scale(1.0156 .98468)" y="393.97992" x="118.61642" font-family="Arial" fill="#000000">IR</text>
  <path id="path3478" stroke-linejoin="round" d="m86.008 354.74 0.04366 2.2922 0.13108 2.1326 0.08741 0.99657 0.08742 0.93677 0.13108 0.89695 0.13109 0.81719 0.15303 0.73745 0.15303 0.67768 0.17496 0.57801 0.19671 0.51822 0.21858 0.41856c0 0.02 0.0217 0.0401 0.0217 0.0598l0.19672 0.27902c0.04366 0.04 0.06571 0.0798 0.10935 0.0998l0.19674 0.17936c0.0657 0.0401 0.13108 0.0798 0.19672 0.0998l0.21857 0.0598c0.04366 0.02 0.10935 0.02 0.15302 0.02h59.497l-0.17475-0.02 0.21857 0.0598-0.19675-0.0997 0.19675 0.15946-0.0873-0.0997 0.1967 0.27901 0.15303 0.31893 0.15302 0.41854 0.17479 0.55809 0.15298 0.61789 0.1311 0.71754 0.1311 0.77732 0.13108 0.85708 0.0873 0.91685 0.0872 0.97663 0.13109 2.1127 0.0217 2.2523c0.0216 0.27901 0.26228 0.49827 0.54642 0.49827 0.30603 0 0.54647-0.21926 0.54647-0.49827l0.0439-2.2721 0.13108-2.0929 0.0873-0.97663 0.0873-0.9368 0.1311-0.83713 0.13106-0.79726 0.15301-0.71751 0.1311-0.63782 0.17496-0.53816 0.17478-0.4385 0.17477-0.33884-0.0439 0.0598 0.19669-0.27903-0.0872 0.0997 0.19671-0.15947-0.19671 0.0997 0.19671-0.0598-0.15303 0.0198h59.497c0.0656 0 0.10929 0 0.15302-0.0198l0.21858-0.0598c0.0656-0.0199 0.13107-0.0598 0.19671-0.0997l0.2186-0.17934c0.0219-0.02 0.0655-0.0598 0.0873-0.0997l0.19673-0.27902c0.0216-0.02 0.0216-0.0401 0.0439-0.0598l0.17494-0.37871 0.21858-0.51822 0.17476-0.59792 0.15306-0.67767 0.15299-0.75741 0.15305-0.79725 0.10931-0.89694 0.10931-0.93679 0.0873-0.9966 0.10933-2.1327 0.0439-2.312h-1.0929l-0.0439 2.2523-0.10931 2.1127-0.0872 0.97667-0.0873 0.91681-0.13104 0.85709-0.1311 0.79728-0.13108 0.69763-0.15303 0.63777-0.17479 0.51822-0.15301 0.43848-0.19673 0.37872 0.0439-0.0598-0.19673 0.27904 0.0873-0.0996-0.19673 0.15945 0.19673-0.0998-0.21859 0.0598 0.17478-0.02h-59.497c-0.0655 0-0.10931 0-0.17476 0.02l-0.19671 0.0598c-0.0657 0.02-0.15305 0.0598-0.19677 0.0997l-0.21856 0.17937c-0.0217 0.02-0.0656 0.0598-0.0872 0.0998l-0.19671 0.27905c-0.0217 0.02-0.0217 0.0401-0.0439 0.0598l-0.19674 0.41858-0.19672 0.51821-0.17478 0.59794-0.17476 0.65775-0.13108 0.73748-0.15303 0.81718-0.10931 0.89694-0.1093 0.93681-0.0873 0.99657-0.13107 2.1526-0.0439 2.2721h1.0929l-0.0439-2.2922-0.10932-2.1526-0.0873-0.97666-0.10931-0.95674-0.1093-0.877-0.1311-0.83713-0.17497-0.73745-0.15302-0.67767-0.17478-0.57803-0.1967-0.53816-0.24047-0.43848-0.19671-0.27905c-0.0216-0.0401-0.0655-0.0798-0.0872-0.0998l-0.21858-0.17936c-0.0658-0.0401-0.13106-0.0797-0.19672-0.0997l-0.21861-0.0598c-0.0438-0.0199-0.0873-0.0199-0.15302-0.0199h-59.497l0.17478 0.0199-0.21858-0.0598 0.21858 0.0998-0.21858-0.15947 0.08742 0.0997-0.1967-0.27905 0.04366 0.0598-0.15302-0.33882-0.17479-0.43851-0.17496-0.53813-0.15303-0.63784-0.13109-0.71751-0.15303-0.77733-0.10935-0.85709-0.10936-0.93676-0.08741-0.95674-0.10935-2.1127-0.04366-2.2721z" stroke="#000" stroke-width=".020873px"/>
  <path id="path3022-6" stroke-linejoin="round" d="m90.433 285.48c0 0.18353 0.46721 0.33234 1.0435 0.33234h123.69c0.57623 0 1.0435-0.14881 1.0435-0.33234v-54.423c0-0.18356-0.46717-0.33241-1.0435-0.33241h-123.69c-0.57623 0-1.0435 0.14885-1.0435 0.33241zm2.0867-54.423-1.0435 0.33239h123.69l-1.0435-0.33239v54.423l1.0435-0.33241h-123.69l1.0435 0.33241z" stroke="#000" stroke-width="0.00879px"/>
  <path id="path3110-0" stroke-linejoin="round" d="m119.6 311.6-16.938 7.1408 0.47518 1.0276 16.916-7.151z" stroke="#000" stroke-width=".022340px"/>
  <text id="text3112-0" font-size="11.975px" xml:space="preserve" transform="scale(1.0156 .98468)" line-height="125%" y="318.93225" x="99.432671" font-family="Arial" fill="#000000"><tspan id="tspan6982">6</tspan></text>
  <path id="path3124-2" stroke-linejoin="round" d="m198.71 327.84v-33.292h1.4693v33.292h-1.4693zm-3.6514-31.595 4.3862-10.208 4.3862 10.208h-8.7724z" stroke="#000" stroke-width=".011828px"/>
  <path id="path3124-2-4" stroke-linejoin="round" d="m111.08 327.84v-33.292h1.4693v33.292h-1.4693zm-3.6514-31.595 4.3862-10.208 4.3862 10.208h-8.7724z" stroke="#000" stroke-width=".011828px"/>
  <text id="text3112-0-4" font-size="11.975px" xml:space="preserve" transform="scale(1.0156 .98468)" y="318.52277" x="186.392" font-family="Arial" fill="#000000">4</text>
  <path id="path3110-0-7" stroke-linejoin="round" d="m207.64 311.44-16.938 7.1408 0.47512 1.0276 16.916-7.151z" stroke="#000" stroke-width=".022340px"/>
  <path id="path3260-3-8" stroke-linejoin="round" d="m63.97 256.05 27.63-0.18052-0.0079-1.3418-27.636 0.18093z" stroke="#000" stroke-width=".011260px"/>
  <path id="path3260-3-8-6" stroke-linejoin="round" d="m64.203 473.4 35.879-0.18039-0.0106-1.3409-35.888 0.18079z" stroke="#000" stroke-width=".012827px"/>
  <text id="text3038-0" font-size="17.583px" xml:space="preserve" transform="scale(1.0322 .96880)" y="507.7644" x="65.527397" font-family="Arial" line-height="125%" fill="#000000"><tspan id="tspan3777" y="507.7644" x="65.527397">InEx</tspan></text>
  <path id="path3232-6" stroke-linejoin="round" d="m796.17 347.02v-41.855h-1.1856v41.855z" stroke="#000" stroke-width=".040618px"/>
  <path id="path3100-8-7" stroke-linejoin="round" d="m268.08 358.56-0.14812 45.805h1.2386l0.14808-45.805z" stroke="#000" stroke-width=".0086660px"/>
  <path id="path3108-1" stroke-linejoin="round" d="m269.79 359.14-0.26581-46.095-1.3144-0.58497v46.681zm3.274-45.882-4.0523-9.0985-3.7864 8.9524z" stroke="#000" stroke-width=".031653px"/>
  <path id="path3198-7" fill-rule="evenodd" d="m266.64 359.05c0-1.2318 1.0153-2.2217 2.243-2.2217 1.2514 0 2.2431 0.98988 2.2431 2.2217 0 1.2098-0.99167 2.1998-2.2431 2.1998-1.2278 0-2.243-0.98988-2.243-2.1998"/>
  <path id="path3200-1" stroke-linejoin="round" d="m265.08 359.18v-0.28593l0.0475-0.43996c0.0234-0.088 0.0234-0.17599 0.0706-0.28597l0.11809-0.39593c0.0234-0.088 0.0707-0.15401 0.0945-0.24199l0.21249-0.37396c0.0475-0.088 0.0945-0.17596 0.16525-0.26397l0.28334-0.32993 0.1889-0.17599 0.33054-0.26397c0.0947-0.0659 0.18889-0.13198 0.28335-0.19797l0.37777-0.19796c0.0706-0.0439 0.16527-0.0661 0.25971-0.11003l0.42501-0.132c0.11804-0.022 0.23609-0.0439 0.33054-0.0658l0.44863-0.0439h0.33053l0.44863 0.0439c0.11806 0.0219 0.2361 0.0439 0.35418 0.0658l0.42496 0.132c0.0945 0.0439 0.16527 0.0659 0.25973 0.11003l0.37779 0.19796c0.0945 0.0659 0.1889 0.13198 0.28332 0.19797l0.33057 0.26397c0.0707 0.0662 0.11806 0.11003 0.18888 0.17599l0.28334 0.32993c0.0474 0.088 0.11806 0.17601 0.16529 0.26397l0.21247 0.37396c0.0234 0.088 0.0705 0.15399 0.0945 0.24199l0.11806 0.39593c0.0474 0.11002 0.0474 0.19797 0.0707 0.28597l0.0474 0.43996v0.28593l-0.0474 0.46195c-0.0234 0.088-0.0234 0.17598-0.0707 0.26397l-0.11806 0.41794c-0.0234 0.088-0.0707 0.154-0.0945 0.24198l-0.21247 0.37396c-0.0474 0.088-0.11806 0.17594-0.16529 0.26394l-0.28334 0.32997c-0.0705 0.0659-0.11807 0.10999-0.18888 0.17598l-0.33057 0.26396c-0.0944 0.0659-0.18889 0.13199-0.28332 0.19797l-0.37779 0.19797c-0.0946 0.0439-0.16527 0.0661-0.25973 0.11002l-0.42496 0.132c-0.11808 0.022-0.23614 0.0439-0.35418 0.0659l-0.44863 0.0439h-0.33053l-0.44863-0.0439c-0.0946-0.022-0.21251-0.0439-0.33054-0.0659l-0.42501-0.132c-0.0945-0.0439-0.18885-0.0659-0.25971-0.11002l-0.37777-0.19797c-0.0944-0.0659-0.18889-0.13196-0.28335-0.19797l-0.33054-0.26396-0.1889-0.17598-0.28334-0.32997c-0.0705-0.088-0.11805-0.17595-0.16525-0.26394l-0.21249-0.37396c-0.0234-0.088-0.0705-0.154-0.0945-0.24198l-0.11809-0.41794c-0.0474-0.088-0.0474-0.17596-0.0706-0.26397zm3.1875 0.176-0.0707-0.28597 0.14164 0.41794-0.0944-0.24196 0.18888 0.37393-0.16529-0.26394 0.28333 0.32995-0.18888-0.17598 0.33056 0.28598-0.28331-0.198 0.37776 0.198-0.25972-0.11002 0.42499 0.13197-0.35417-0.0658 0.44862 0.0439h-0.33056l0.4486-0.0439-0.33054 0.0658 0.42498-0.13197-0.25973 0.11002 0.37781-0.198-0.28334 0.198 0.33056-0.28598-0.1889 0.17598 0.28332-0.32995-0.16528 0.26394 0.18893-0.37393-0.0945 0.24196 0.14169-0.41794-0.0707 0.28597 0.0475-0.46193v0.28593l-0.0475-0.43994 0.0707 0.26398-0.14169-0.39595 0.0945 0.24194-0.18893-0.37393 0.16528 0.26396-0.28332-0.32995 0.1889 0.17597-0.33056-0.28594 0.28334 0.19797-0.37781-0.19797 0.25973 0.11-0.42498-0.13199 0.33054 0.0659-0.4486-0.0439h0.33056l-0.44862 0.0439 0.35417-0.0659-0.42499 0.13199 0.25972-0.11-0.37776 0.19797 0.28331-0.19797-0.33056 0.28594 0.18888-0.17597-0.28333 0.32995 0.16529-0.26396-0.18888 0.37393 0.0944-0.24194-0.14164 0.39595 0.0707-0.26398-0.0474 0.43994v-0.28593z" stroke="#000" stroke-width=".022790px"/>
  <text id="text3146-9" font-size="15.132px" xml:space="preserve" transform="matrix(.0044013 -.95180 1.0506 .0041004 0 0)" y="439.87396" x="-468.49622" font-family="Arial" line-height="125%" fill="#000000"><tspan id="tspan4821" y="439.87396" x="-468.49622">Sel RA</tspan></text>
  <text id="text3146-9-5" font-size="15.132px" xml:space="preserve" transform="matrix(-.0075129 -.95179 1.0506 -.0069992 0 0)" y="518.83496" x="-472.31516" font-family="Arial" line-height="125%" fill="#000000"><tspan id="tspan4823" y="518.83496" x="-472.31516">Sel RB</tspan></text>
  <text id="text3146-9-9" font-size="15.132px" xml:space="preserve" transform="matrix(.0097824 -.95177 1.0506 .0091136 0 0)" y="612.50385" x="-462.77423" font-family="Arial" line-height="125%" fill="#000000"><tspan id="tspan4825" y="612.50385" x="-462.77423">Sel RC</tspan></text>
  <text id="text3350-3" font-size="11.276px" line-height="125%" transform="scale(1.036 .96521)" y="515.32465" x="608.47961" font-family="Arial" xml:space="preserve" fill="#000000">0</text>
  <text id="text3352-3" font-size="11.276px" line-height="125%" transform="scale(1.036 .96521)" y="515.5835" x="636.25806" font-family="Arial" xml:space="preserve" fill="#000000">1</text>
  <path id="path3094-7" opacity=".75" stroke-linejoin="round" d="m268.92 404.02v-90.664h-1.5815v90.664h1.5815zm3.9183-88.869-4.7209-10.884-4.721 10.884h9.4418z" stroke="#000" stroke-width=".025344px"/>
  <path id="path3498-6" stroke-linejoin="round" d="m351.53 322.56h94.586v1.0948h-94.586z" stroke="#000" stroke-width=".027830px"/>
  <path id="path3138-8" stroke-linejoin="round" d="m352.81 323.11v-46.393h-1.1868v46.393z" stroke="#000" stroke-width=".016829px"/>
  <path id="path3138-8-1" stroke-linejoin="round" d="m446.41 323.22v-17.357h-1.1935v17.357z" stroke="#000" stroke-width=".010323px"/>
  <path id="path3124-7" stroke-linejoin="round" d="m393.45 289.45h15.12v1.4744h-15.12v-1.4744zm14.349-3.6641 4.6361 4.4013-4.6361 4.4013v-8.8026z" stroke="#000" stroke-width=".0079855px"/>
  <text id="text4138-7" font-size="14.71px" xml:space="preserve" transform="scale(1.1024 .90715)" y="315.01566" x="336.68777" font-family="Arial" line-height="125%" fill="#000000"><tspan id="tspan4140-2" y="315.01566" x="336.68777">CLK</tspan></text>
  <path id="path3194-0" stroke-linejoin="round" d="m351.83 276.72-15.592 0.0659v1.4732l15.592-0.0662v-1.4732zm-13.498-3.6059-12.821 4.4637 12.918 4.3317-0.0965-8.7951z" stroke="#000" stroke-width=".026615px"/>
 </g>
</svg>
