<?xml version="1.0" encoding="UTF-8" standalone="no"?>
<svg id="svg2996" xmlns:rdf="http://www.w3.org/1999/02/22-rdf-syntax-ns#" xmlns="http://www.w3.org/2000/svg" height="100%" viewBox="20 0 930 590" width="100%" version="1.0" preserveAspectRatio="xMinYMin meet" xmlns:cc="http://creativecommons.org/ns#" xmlns:dc="http://purl.org/dc/elements/1.1/">
 <metadata id="metadata3508">
  <rdf:RDF>
   <cc:Work rdf:about="">
    <dc:format>image/svg+xml</dc:format>
    <dc:type rdf:resource="http://purl.org/dc/dcmitype/StillImage"/>
    <dc:title/>
   </cc:Work>
  </rdf:RDF>
 </metadata>
 <text id="text3611" font-size="13.289px" transform="scale(.99996 1)" style="word-spacing:0px;letter-spacing:0px" xml:space="preserve" y="347.45956" x="128.24675" font-family="sans-serif" line-height="125%" fill="#000000"><tspan id="tspan3615" y="347.45956" x="128.24675"/></text>
 <g id="g6999">
  <path id="path3008" stroke-linejoin="round" d="m472.88 76.244c0-0.62051 0.52736-1.1081 1.1985-1.1081h416.52c0.62326 0 1.1985 0.48754 1.1985 1.1081v110.05c0 0.62051-0.57531 1.108-1.1985 1.108h-416.52c-0.67122 0-1.1985-0.48754-1.1985-1.108zm2.3972 110.05-1.1985-1.108h416.52l-1.1985 1.108v-110.05l1.1985 1.108h-416.52l1.1985-1.108z" stroke="#000" stroke-width=".046097px"/>
  <text id="text3010" font-size="20.088px" transform="scale(1.0171 .98320)" line-height="125%" style="text-decoration-line:underline;text-decoration:underline" y="139.58427" x="606.03503" font-family="Arial" xml:space="preserve" fill="#000000">Control Memory</text>
  <text id="text3012" xml:space="preserve" transform="scale(1.0171 .98320)" font-size="17.26px" y="458.13574" x="193.0045" font-family="Arial" fill="#000000">MUX C</text>
  <path id="path3014" stroke-linejoin="round" d="m794.49 186.58v112.3h-1.4917v-112.3h1.4917zm3.6415 111.11-4.3874 7.2081-4.3874-7.2081h8.7747z" stroke="#000" stroke-width=".039764px"/>
  <path id="path3016" stroke-linejoin="round" d="m804.82 236.98-23.084 15.909 0.65831 0.84849 23.041-15.867z" stroke="#000" stroke-width=".043150px"/>
  <text id="text3018" xml:space="preserve" transform="scale(1.0171 .98320)" font-size="12.946px" y="249.52867" x="757.9906" font-family="Arial" fill="#000000">76</text>
  <path id="path3020" stroke-linejoin="round" d="m80.251 356.71c0-0.31044 0.32916-0.56912 0.72416-0.56912h126.93c0.41696 0 0.7461 0.25868 0.7461 0.56912v23.92c0 0.32768-0.32914 0.56911-0.7461 0.56911h-126.93c-0.395 0-0.72416-0.24143-0.72416-0.56911zm1.4703 23.92-0.7461-0.56912h126.93l-0.72415 0.56912v-23.92l0.72415 0.56911h-126.93l0.7461-0.56911z" stroke="#000" stroke-width=".019454px"/>
  <path id="path3024" stroke-linejoin="round" d="m228.63 205.45c0 0.3735 0.31878 0.68475 0.72257 0.68475h120.69c0.40378 0 0.72256-0.31125 0.72256-0.68475v-170.98c0-0.39424-0.31878-0.70549-0.72256-0.70549h-120.69c-0.40379 0-0.72257 0.31125-0.72257 0.70549zm1.4239-170.98-0.70133 0.68475h120.69l-0.70132-0.68475v170.98l0.70132-0.68474h-120.69l0.70133 0.68474z" stroke="#000" stroke-width=".020999px"/>
  <path id="path3026" stroke-linejoin="round" d="m392.71 67.622c0-0.38183 0.32915-0.70002 0.72414-0.70002h28.088c0.39498 0 0.72414 0.31819 0.72414 0.70002v103.22c0 0.38183-0.32916 0.70002-0.72414 0.70002h-28.088c-0.39499 0-0.72414-0.31819-0.72414-0.70002zm1.4482 103.22-0.72414-0.70001h28.088l-0.74609 0.70001v-103.22l0.74609 0.72122h-28.088l0.72414-0.72122z" stroke="#000" stroke-width=".021575px"/>
  <path id="path3028" stroke-linejoin="round" d="m75.068 472.74c0 0.40303 0.32499 0.72122 0.71497 0.72122h308.74c0.38999 0 0.71498-0.31819 0.71498-0.72122v-45.119c0-0.38182-0.32499-0.70001-0.71498-0.70001h-308.74c-0.38998 0-0.71497 0.31819-0.71497 0.70001zm1.4299-45.119-0.71498 0.70001h308.74l-0.71497-0.70001v45.119l0.71497-0.70001h-308.74l0.71498 0.70001z" stroke="#000" stroke-width=".021439px"/>
  <text id="text3030" transform="scale(1.0171 .98320)" line-height="125%" font-size="20.194px" y="297.8309" x="102.08585" font-family="Arial" xml:space="preserve" fill="#000000"><tspan id="tspan4390" y="297.8309" x="102.08585">co2µaddr</tspan></text>
  <path id="path3032" stroke-linejoin="round" d="m80.321 356.71c0-0.31044 0.32917-0.56912 0.74611-0.56912h49.683c0.41694 0 0.72416 0.25868 0.72416 0.56912v23.92c0 0.32768-0.30722 0.56911-0.72416 0.56911h-49.683c-0.41694 0-0.74611-0.24143-0.74611-0.56911zm1.4703 23.92-0.72417-0.56912h49.683l-0.72418 0.56912v-23.92l0.72418 0.56911h-49.683l0.72417-0.56911z" stroke="#000" stroke-width=".019454px"/>
  <text id="text3034" transform="scale(1.0171 .98320)" line-height="125%" font-size="15.783px" y="381.20053" x="93.197327" font-family="Arial" xml:space="preserve" fill="#000000">CO</text>
  <text id="text3036" xml:space="preserve" transform="scale(1.0171 .98320)" font-size="17.26px" y="363.99908" x="54.590809" font-family="Arial" fill="#000000">IR</text>
  <text id="text3038" xml:space="preserve" transform="scale(1.0171 .98320)" font-size="17.26px" y="549.18964" x="45.982262" font-family="Arial" fill="#000000">SR</text>
  <path id="path3040" stroke-linejoin="round" d="m81.407 72.429c0 0.27028 0.32918 0.49551 0.72418 0.49551h51.483c0.41696 0 0.74613-0.22523 0.74613-0.49551v-24.61c0-0.27028-0.32917-0.49551-0.74613-0.49551h-51.483c-0.395 0-0.72418 0.22523-0.72418 0.49551zm1.4703-24.61-0.74613 0.51051h51.483l-0.72419-0.51051v24.61l0.72419-0.49549h-51.483l0.74613 0.49549z" stroke="#000" stroke-width=".018152px"/>
  <path id="path3042" stroke-linejoin="round" d="m859.89 282.94h12.42v1.0606h-12.42z" stroke="#000" stroke-width=".043150px"/>
  <path id="path3044" stroke-linejoin="round" d="m885.7 282.94h12.42v1.0606h-12.42z" stroke="#000" stroke-width=".043150px"/>
  <path id="path3046" stroke-linejoin="round" d="m910.55 282.94h12.42v1.0606h-12.42z" stroke="#000" stroke-width=".043150px"/>
  <path id="path3048" stroke-linejoin="round" d="m872.63 270.47h13.386v1.0606h-13.386z" stroke="#000" stroke-width=".043150px"/>
  <path id="path3050" stroke-linejoin="round" d="m873.19 283.83v-13.194h-1.0972v13.194z" stroke="#000" stroke-width=".043150px"/>
  <path id="path3052" stroke-linejoin="round" d="m886.23 283.83v-13.534h-1.0972v13.534z" stroke="#000" stroke-width=".043150px"/>
  <path id="path3054" stroke-linejoin="round" d="m898.65 283.83v-13.534h-1.0972v13.534z" stroke="#000" stroke-width=".043150px"/>
  <path id="path3056" stroke-linejoin="round" d="m912.03 283.49v-13.194h-1.0972v13.194z" stroke="#000" stroke-width=".043150px"/>
  <path id="path3058" stroke-linejoin="round" d="m897.81 270.47h13.693v1.0606h-13.693z" stroke="#000" stroke-width=".043150px"/>
  <path id="path3060" stroke-linejoin="round" d="m311.07 496.07v-17.372h-1.4702v17.372h1.4702zm3.6428-16.161-4.3888-7.2309-4.3888 7.2309h8.7776z" stroke="#000" stroke-width=".019916px"/>
  <path id="path3062" stroke-linejoin="round" d="m342.06 496.2v-17.354h-1.4703v17.354h1.4703zm3.6647-16.143-4.3888-7.2309-4.3888 7.2309h8.7777z" stroke="#000" stroke-width=".019916px"/>
  <text id="text3064" transform="scale(1.0171 .98320)" line-height="125%" font-size="12.913px" y="519.23737" x="358.327" font-family="Arial" xml:space="preserve" fill="#000000">0</text>
  <text id="text3066" transform="scale(1.0171 .98320)" line-height="125%" font-size="11.479px" y="204.43863" x="257.68262" font-family="Arial" xml:space="preserve" fill="#000000">A0</text>
  <text id="text3068" transform="scale(1.0171 .98320)" line-height="125%" font-size="18.653px" y="126.43913" x="259.62863" font-family="Arial" xml:space="preserve" fill="#000000">MUX A</text>
  <text id="text3072" transform="scale(1.0171 .98320)" line-height="125%" font-size="14.348px" y="229.45308" x="792.43304" font-family="Arial" xml:space="preserve" fill="#000000">µInstruction</text>
  <text id="text3076" xml:space="preserve" transform="scale(1.0171 .98320)" font-size="17.26px" y="231.23039" x="518.99365" font-family="Arial" fill="#000000">MADDR</text>
  <text id="text3080" xml:space="preserve" font-size="17.26px" transform="matrix(0 -.98320 1.0171 0 0 0)" y="406.40598" x="-146.06551" font-family="Arial" fill="#000000">µAddr</text>
  <path id="path3082" stroke-linejoin="round" d="m420.99 119.5h47.711v1.4214h-47.711v-1.4214zm46.708-3.5218 5.9826 4.2432-5.9826 4.2432v-8.4864z" stroke="#000" stroke-width=".017814px"/>
  <text id="text3084" xml:space="preserve" transform="scale(1.0171 .98320)" font-size="17.26px" y="68.090706" x="96.640778" font-family="Arial" fill="#000000">+1</text>
  <path id="path3086" fill-rule="evenodd" d="m441.26 120.22c0-1.1879 0.94358-2.1425 2.0846-2.1425 1.1411 0 2.0846 0.95456 2.0846 2.1425 0 1.1667-0.94358 2.1213-2.0846 2.1213-1.1411 0-2.0846-0.95457-2.0846-2.1213"/>
  <path id="path3088" stroke-linejoin="round" d="m440.27 120.35v-0.27576l0.0439-0.42425c0.022-0.0849 0.022-0.1697 0.0659-0.27577l0.10974-0.38183c0.022-0.0849 0.0659-0.14848 0.0878-0.23333l0.19749-0.36061c0.0439-0.0849 0.0878-0.1697 0.1536-0.25455l0.26332-0.31819c0.0439-0.0424 0.10975-0.10608 0.15362-0.14848l0.30721-0.25455c0.0878-0.0849 0.17554-0.14849 0.28526-0.21213l0.37304-0.19091c0.0659-0.0424 0.13167-0.0636 0.21944-0.10608l0.37305-0.12728c0.10974-0.0212 0.21943-0.0424 0.32915-0.0636l0.41693-0.0424h0.30722l0.41693 0.0424c0.10974 0.0212 0.19749 0.0424 0.30721 0.0636l0.39499 0.12728c0.0878 0.0424 0.17555 0.0636 0.26333 0.10608l0.35109 0.19091c0.0878 0.0636 0.17555 0.12727 0.24139 0.19091l0.30721 0.25455c0.0658 0.0637 0.13166 0.10609 0.17555 0.1697l0.26332 0.31819c0.0659 0.0849 0.10975 0.1697 0.17556 0.25455l0.17554 0.36061c0.0439 0.0849 0.0658 0.14849 0.0878 0.23333l0.13166 0.38183c0.022 0.10609 0.0439 0.19091 0.0439 0.27577l0.0439 0.42425c0.022 0.10609 0.022 0.19091 0 0.27576l-0.0439 0.44547c0 0.0849-0.0219 0.16969-0.0439 0.25455l-0.13166 0.40303c-0.022 0.0849-0.0439 0.14849-0.0878 0.23333l-0.17554 0.36062c-0.0659 0.0849-0.10975 0.1697-0.17556 0.25456l-0.26332 0.31817c-0.0439 0.0636-0.10974 0.10609-0.17555 0.16971l-0.30721 0.25455c-0.0659 0.0637-0.15361 0.12728-0.24139 0.1909l-0.35109 0.19092c-0.0878 0.0424-0.17556 0.0637-0.26333 0.10609l-0.39499 0.12727c-0.10974 0.0212-0.19749 0.0424-0.30721 0.0636l-0.41693 0.0424h-0.30722l-0.41693-0.0424c-0.10974-0.0212-0.21944-0.0424-0.32915-0.0636l-0.37305-0.12727c-0.0878-0.0424-0.1536-0.0636-0.21944-0.10609l-0.37304-0.19092c-0.10974-0.0636-0.19749-0.12726-0.28526-0.21211l-0.30721-0.25456c-0.0439-0.0424-0.10974-0.10609-0.15362-0.14849l-0.26332-0.31817c-0.0658-0.0849-0.10974-0.16971-0.1536-0.25456l-0.19749-0.36062c-0.022-0.0849-0.0659-0.14848-0.0878-0.23333l-0.10974-0.40303c-0.0439-0.0849-0.0439-0.16971-0.0659-0.25455zm2.9624 0.1697-0.0659-0.27577 0.13166 0.40304-0.0878-0.23333 0.17554 0.36061-0.1536-0.25455 0.26332 0.31819-0.1536-0.14849 0.28527 0.27576-0.28527-0.21213 0.35111 0.19092-0.21944-0.10608 0.39498 0.12727-0.32915-0.0637 0.41693 0.0424h-0.30722l0.41694-0.0424-0.30722 0.0637 0.39499-0.12727-0.26333 0.10608 0.3511-0.19092-0.24138 0.19092 0.30721-0.27576-0.17555 0.1697 0.26334-0.31819-0.17556 0.25455 0.19749-0.36061-0.0878 0.23333 0.10974-0.40304-0.0439 0.27577 0.0439-0.44546v0.27576l-0.0439-0.42425 0.0439 0.25454-0.10974-0.38181 0.0878 0.23333-0.19749-0.36061 0.17556 0.25455-0.26334-0.31818 0.17555 0.16969-0.30721-0.27576 0.24138 0.19091-0.3511-0.19091 0.26333 0.10609-0.39499-0.12728 0.30722 0.0636-0.41694-0.0424h0.30722l-0.41693 0.0424 0.32915-0.0636-0.39498 0.12728 0.21944-0.10609-0.35111 0.19091 0.28527-0.21212-0.28527 0.27576 0.1536-0.14848-0.26332 0.31818 0.1536-0.25455-0.17554 0.36061 0.0878-0.23333-0.13166 0.38181 0.0659-0.25454-0.0439 0.42425v-0.27576z" stroke="#000" stroke-width=".021575px"/>
  <path id="path3092" stroke-linejoin="round" d="m350.59 121.58h38.894v-1.4216h-38.894v1.4216zm38.145 3.522 4.4772-4.2434-4.4772-4.2434v8.4868z" stroke="#000" stroke-width=".015410px"/>
  <path id="path3094" stroke-linejoin="round" d="m308.39 284.18v-70.68h-1.4702v70.68h1.4702zm3.6426-69.28-4.3888-8.485-4.3888 8.485h8.7775z" stroke="#000" stroke-width=".021575px"/>
  <path id="path3096" stroke-linejoin="round" d="m466.94 312.24v-52.866c0-0.41176-0.2938-0.7549-0.64635-0.7549h-200.64l0.66594 0.7549v-45.248h-1.3122v45.248c0 0.41175 0.29379 0.75489 0.64636 0.75489h200.64l-0.66594-0.75489v52.866zm-197.37-96.581-3.9172-9.1502-3.9172 9.1502z" stroke="#000" stroke-width=".021168px"/>
  <path id="path3098" stroke-linejoin="round" d="m444.25 9.1697h-335.65v1.0552h335.65z" stroke="#000" stroke-width=".027066px"/>
  <path id="path3100" stroke-linejoin="round" d="m108.28 9.4405-0.15697 38.884h1.308l0.15696-38.884z" stroke="#000" stroke-width=".0082060px"/>
  <path id="path3102" stroke-linejoin="round" d="m133.96 60.523h84.106v1.4212h-84.106v-1.4212zm82.431-3.5317 10.073 4.2423-10.073 4.2423v-8.4847z" stroke="#000" stroke-width=".011555px"/>
  <path id="path3104" stroke-linejoin="round" d="m146.38 99.222h75.079v1.4107h-75.079v-1.4107zm73.669-3.5428 8.4836 4.2429-8.4836 4.2429v-8.4856z" stroke="#000" stroke-width=".010606px"/>
  <path id="path3106" stroke-linejoin="round" d="m922.81 321.53h-13.901v-1.2736h13.901zm-11.707 3.2033-3.9357-3.8594 3.9357-3.8595z" stroke="#000" stroke-width=".020062px"/>
  <path id="path3108" stroke-linejoin="round" d="m367.93 496.22v-17.372h-1.4703v17.372h1.4703zm3.6647-16.161-4.3888-7.2309-4.3888 7.2309h8.7776z" stroke="#000" stroke-width=".019916px"/>
  <path id="path3110" stroke-linejoin="round" d="m420.59 445.42-11.542 13.512 0.8558 0.6788 11.52-13.512z" stroke="#000" stroke-width=".021575px"/>
  <text id="text3112" xml:space="preserve" transform="scale(1.0171 .98320)" font-size="11.565px" y="455.57312" x="401.30411" font-family="Arial" fill="#000000">4</text>
  <path id="path3120" stroke-linejoin="round" d="m494.33 229.18-8.3825 10.415 0.85581 0.65759 8.3825-10.415z" stroke="#000" stroke-width=".021575px"/>
  <text id="text3122" xml:space="preserve" transform="scale(1.0171 .98320)" font-size="11.565px" y="230.92293" x="475.99915" font-family="Arial" fill="#000000">12</text>
  <path id="path3124" stroke-linejoin="round" d="m190.96 176.36h30.791v1.4212h-30.791v-1.4212zm29.222-3.5319 9.4415 4.2425-9.4415 4.2425v-8.485z" stroke="#000" stroke-width=".011188px"/>
  <text id="text3126" xml:space="preserve" transform="scale(1.0171 .98320)" font-size="17.26px" y="186.24179" x="170.81584" font-family="Arial" fill="#000000">0</text>
  <text id="text3130" transform="scale(1.0171 .98320)" line-height="125%" font-size="12.913px" y="202.03537" x="157.65553" font-family="Arial" xml:space="preserve" fill="#000000">(fetch) </text>
  <path id="path3134" stroke-linejoin="round" d="m146.6 99.763-0.13171 135.29 1.0974 0.0236 0.13169-135.32z" stroke="#000" stroke-width=".016425px"/>
  <path id="path3136" stroke-linejoin="round" d="m270.39 496.14v-17.354h-1.4703v17.354h1.4703zm3.6428-16.143-4.3888-7.2309-4.3888 7.2309h8.7777z" stroke="#000" stroke-width=".019916px"/>
  <path id="path3138" stroke-linejoin="round" d="m439.14 452.32v-82.474h-1.0972v82.474z" stroke="#000" stroke-width=".021575px"/>
  <text id="text3140" transform="scale(1.0171 .98320)" line-height="125%" font-size="11.479px" y="590.69049" x="231.21576" font-family="Arial" xml:space="preserve" fill="#000000">0</text>
  <path id="path3142" stroke-linejoin="round" d="m143.59 405.5 710.7-2.6691v-1.0939l-710.7 2.6691z" stroke="#000" stroke-width=".040931px"/>
  <path id="path3142b" stroke-linejoin="round" d="m143.59 405.5 710.7-2.6691v-1.0939l-710.7 2.6691z" stroke="#000" stroke-width=".040931px"/>
  <path id="path3144" stroke-linejoin="round" d="m462.37 421.98c0-0.40304 0.32916-0.70001 0.72415-0.70001h63.593c0.39498 0 0.72414 0.29697 0.72414 0.70001v29.57c0 0.40304-0.32916 0.72122-0.72414 0.72122h-63.593c-0.39499 0-0.72415-0.31818-0.72415-0.72122zm1.4702 29.57-0.74608-0.70001h63.593l-0.74609 0.70001v-29.57l0.74609 0.70001h-63.593l0.74608-0.70001z" stroke="#000" stroke-width=".021575px"/>
  <text id="text3146" xml:space="preserve" transform="scale(1.0171 .98320)" font-size="14.325px" y="449.30377" x="463.90152" font-family="Arial" fill="#000000">Sel</text>
  <text id="text3148" xml:space="preserve" transform="scale(1.0171 .98320)" font-size="14.325px" y="449.30377" x="488.58337" font-family="Arial" fill="#000000">RA</text>
  <path id="path3150" stroke-linejoin="round" d="m569.28 422c0-0.42426 0.3511-0.72123 0.74609-0.72123h63.593c0.39498 0 0.70219 0.29697 0.70219 0.72123v29.57c0 0.38182-0.30721 0.6788-0.70219 0.6788h-63.593c-0.39499 0-0.74609-0.29698-0.74609-0.6788zm1.4922 29.57-0.74609-0.72122h63.593l-0.7461 0.72122v-29.57l0.7461 0.6788h-63.593l0.74609-0.6788z" stroke="#000" stroke-width=".043150px"/>
  <text id="text3152" xml:space="preserve" transform="scale(1.0171 .98320)" font-size="14.325px" y="449.30377" x="567.95245" font-family="Arial" fill="#000000">Sel</text>
  <text id="text3154" xml:space="preserve" transform="scale(1.0171 .98320)" font-size="14.325px" y="449.30377" x="592.63428" font-family="Arial" fill="#000000">RB</text>
  <path id="path3156" stroke-linejoin="round" d="m677.45 422c0-0.42426 0.3511-0.72123 0.74608-0.72123h63.593c0.39499 0 0.7022 0.29697 0.7022 0.72123v29.57c0 0.38182-0.30721 0.6788-0.7022 0.6788h-63.593c-0.39498 0-0.74608-0.29698-0.74608-0.6788zm1.4921 29.57-0.74608-0.72122h63.593l-0.74609 0.72122v-29.57l0.74609 0.6788h-63.593l0.74608-0.6788z" stroke="#000" stroke-width=".043150px"/>
  <text id="text3158" xml:space="preserve" transform="scale(1.0171 .98320)" font-size="14.325px" y="450.20438" x="674.29401" font-family="Arial" fill="#000000">Sel</text>
  <text id="text3160" xml:space="preserve" transform="scale(1.0171 .98320)" font-size="14.325px" y="450.20438" x="698.97589" font-family="Arial" fill="#000000">RC</text>
  <path id="path3162" stroke-linejoin="round" d="m697.19 305.38c0-0.38186 0.26863-0.72129 0.65239-0.72129h148.67c0.34538 0 0.61401 0.33943 0.61401 0.72129v29.573c0 0.38187-0.26863 0.72129-0.61401 0.72129h-148.67c-0.38376 0-0.65239-0.33942-0.65239-0.72129zm1.2664 29.573-0.61399-0.72129h148.67l-0.65237 0.72129v-29.573l0.65237 0.72129h-148.67l0.61399-0.72129z" stroke="#000" stroke-width=".040351px"/>
  <text id="text3164" transform="scale(1.0171 .98320)" line-height="125%" font-size="15.783px" y="330.71228" x="527.11072" font-family="Arial" xml:space="preserve" fill="#000000">Sel</text>
  <text id="text3166" xml:space="preserve" transform="scale(1.0171 .98320)" font-size="14.325px" y="329.81711" x="551.79254" font-family="Arial" fill="#000000">A</text>
  <text id="text3168" transform="scale(1.0171 .98320)" line-height="125%" font-size="15.783px" y="330.71228" x="582.63702" font-family="Arial" xml:space="preserve" fill="#000000">Sel</text>
  <text id="text3170" xml:space="preserve" transform="scale(1.0171 .98320)" font-size="14.325px" y="329.81711" x="607.31879" font-family="Arial" fill="#000000">B</text>
  <text id="text3172" transform="scale(1.0171 .98320)" line-height="125%" font-size="15.783px" y="330.71228" x="641.42737" font-family="Arial" xml:space="preserve" fill="#000000">Sel</text>
  <text id="text3174" xml:space="preserve" transform="scale(1.0171 .98320)" font-size="14.325px" y="329.81711" x="666.10919" font-family="Arial" fill="#000000">C</text>
  <path id="path3176" stroke-linejoin="round" d="m522.95 305.36c0-0.38182 0.32916-0.70001 0.72415-0.70001h57.01c0.39498 0 0.72414 0.31819 0.72414 0.70001v29.591c0 0.38183-0.32916 0.70001-0.72414 0.70001h-57.01c-0.39499 0-0.72415-0.31818-0.72415-0.70001zm1.4482 29.591-0.72414-0.72123h57.01l-0.74608 0.72123v-29.591l0.74608 0.72122h-57.01l0.72414-0.72122z" stroke="#000" stroke-width=".021575px"/>
  <path id="path3178" stroke-linejoin="round" d="m579.76 305.38c0-0.38183 0.3511-0.72122 0.74609-0.72122h58.238c0.39498 0 0.74609 0.33939 0.74609 0.72122v29.57c0 0.38183-0.35111 0.72122-0.74609 0.72122h-58.238c-0.39499 0-0.74609-0.33939-0.74609-0.72122zm1.4483 29.57-0.7022-0.72123h58.238l-0.74609 0.72123v-29.57l0.74609 0.72123h-58.238l0.7022-0.72123z" stroke="#000" stroke-width=".043150px"/>
  <path id="path3180" stroke-linejoin="round" d="m637.86 305.38c0-0.38183 0.30469-0.72122 0.74-0.72122h59.287c0.39177 0 0.69648 0.33939 0.69648 0.72122v29.571c0 0.38182-0.30471 0.72122-0.69648 0.72122h-59.287c-0.43531 0-0.74-0.3394-0.74-0.72122zm1.4365 29.571-0.69647-0.72124h59.287l-0.73999 0.72124v-29.571l0.73999 0.72124h-59.287l0.69647-0.72124z" stroke="#000" stroke-width=".042973px"/>
  <path id="path3182" stroke-linejoin="round" d="m484.17 465.72-11.806 8.4214 0.65832 0.84851 11.806-8.4002z" stroke="#000" stroke-width=".021575px"/>
  <path id="path3184" stroke-linejoin="round" d="m602.86 466.37-11.806 8.4214 0.65832 0.8485 11.805-8.4214z" stroke="#000" stroke-width=".021575px"/>
  <path id="path3186" stroke-linejoin="round" d="m709.27 465.83-11.806 8.4426 0.65832 0.8485 11.806-8.4426z" stroke="#000" stroke-width=".043150px"/>
  <path id="path3188" stroke-linejoin="round" d="m499.13 403.53v10.946h-1.4483v-10.946h1.4483zm3.6646 9.5245-4.3888 8.485-4.3888-8.485h8.7775z" stroke="#000" stroke-width=".021575px"/>
  <path id="path3190" stroke-linejoin="round" d="m601.79 403.06v10.967h-1.4702v-10.967h1.4702zm3.6646 9.5457-4.3888 8.485-4.3888-8.485h8.7775z" stroke="#000" stroke-width=".021575px"/>
  <path id="path3192" stroke-linejoin="round" d="m705.71 403.54v10.946h-1.4922v-10.946h1.4922zm3.6426 9.5032-4.3888 8.485-4.3888-8.485h8.7775z" stroke="#000" stroke-width=".043150px"/>
  <path id="path3194" stroke-linejoin="round" d="m544.61 435.94-10.621 0.0636v1.4212l10.621-0.0637v-1.4212zm-9.1944-3.4788-8.7336 4.3062 8.7995 4.1789-0.0658-8.485z" stroke="#000" stroke-width=".021575px"/>
  <path id="path3196" stroke-linejoin="round" d="m608.29 387.36v-51.652h-1.0972v51.652z" stroke="#000" stroke-width=".021575px"/>
  <path id="path3198" fill-rule="evenodd" d="m496.27 403.53c0-1.1879 0.94359-2.1425 2.0846-2.1425 1.163 0 2.0846 0.95457 2.0846 2.1425 0 1.1667-0.92164 2.1213-2.0846 2.1213-1.1411 0-2.0846-0.95457-2.0846-2.1213"/>
  <path id="path3200" stroke-linejoin="round" d="m494.82 403.65v-0.27575l0.0439-0.42426c0.022-0.0849 0.022-0.1697 0.0658-0.27576l0.10974-0.38183c0.022-0.0849 0.0658-0.14849 0.0878-0.23333l0.19749-0.36062c0.0439-0.0849 0.0878-0.1697 0.1536-0.25455l0.26332-0.31818 0.17556-0.16971 0.30721-0.25455c0.0878-0.0636 0.17555-0.12727 0.26332-0.19091l0.35111-0.19092c0.0658-0.0424 0.1536-0.0636 0.24137-0.10608l0.39499-0.12728c0.10975-0.0212 0.21944-0.0424 0.30721-0.0636l0.41693-0.0424h0.30722l0.41693 0.0424c0.10974 0.0212 0.21944 0.0424 0.32916 0.0636l0.39498 0.12728c0.0878 0.0424 0.1536 0.0636 0.24138 0.10608l0.3511 0.19092c0.0878 0.0637 0.17555 0.12727 0.26332 0.19091l0.30722 0.25455c0.0659 0.0636 0.10975 0.10609 0.17555 0.16971l0.26332 0.31818c0.0439 0.0849 0.10974 0.16971 0.15362 0.25455l0.19749 0.36062c0.0219 0.0849 0.0658 0.14848 0.0878 0.23333l0.10974 0.38183c0.0439 0.10608 0.0439 0.19091 0.0659 0.27576l0.0439 0.42426v0.27575l-0.0439 0.44547c-0.022 0.0849-0.022 0.16969-0.0659 0.25455l-0.10974 0.40303c-0.022 0.0849-0.0659 0.14849-0.0878 0.23334l-0.19749 0.36061c-0.0439 0.0849-0.10975 0.1697-0.15362 0.25455l-0.26332 0.31819c-0.0658 0.0636-0.10975 0.10608-0.17555 0.1697l-0.30722 0.25455c-0.0878 0.0636-0.17554 0.12728-0.26332 0.19091l-0.3511 0.19092c-0.0878 0.0424-0.1536 0.0636-0.24138 0.10608l-0.39498 0.12727c-0.10974 0.0212-0.21944 0.0424-0.32916 0.0636l-0.41693 0.0424h-0.30722l-0.41693-0.0424c-0.0878-0.0212-0.19749-0.0424-0.30721-0.0636l-0.39499-0.12727c-0.0878-0.0424-0.17554-0.0636-0.24137-0.10608l-0.35111-0.19092c-0.0878-0.0636-0.17554-0.12727-0.26332-0.19091l-0.30721-0.25455-0.17556-0.1697-0.26332-0.31819c-0.0658-0.0849-0.10974-0.1697-0.1536-0.25455l-0.19749-0.36061c-0.022-0.0849-0.0658-0.14849-0.0878-0.23334l-0.10974-0.40303c-0.0439-0.0849-0.0439-0.1697-0.0658-0.25455zm2.9624 0.1697-0.0659-0.27576 0.13167 0.40303-0.0878-0.23333 0.17555 0.36061-0.15361-0.25455 0.26332 0.31819-0.17555-0.1697 0.30722 0.27577-0.26332-0.19092 0.35109 0.19092-0.24137-0.10609 0.39498 0.12727-0.32916-0.0636 0.41694 0.0424h-0.30722l0.41694-0.0424-0.30722 0.0636 0.39499-0.12727-0.24139 0.10609 0.35111-0.19092-0.26332 0.19092 0.3072-0.27577-0.17555 0.1697 0.26333-0.31819-0.15361 0.25455 0.17555-0.36061-0.0878 0.23333 0.13166-0.40303-0.0659 0.27576 0.0439-0.44545v0.27575l-0.0439-0.42425 0.0659 0.25455-0.13166-0.38182 0.0878 0.23333-0.17555-0.36061 0.15361 0.25455-0.26333-0.31818 0.17555 0.16969-0.3072-0.27575 0.26332 0.19091-0.35111-0.19091 0.24139 0.10608-0.39499-0.12728 0.30722 0.0636-0.41694-0.0424h0.30722l-0.41694 0.0424 0.32916-0.0636-0.39498 0.12728 0.24137-0.10608-0.35109 0.19091 0.26332-0.19091-0.30722 0.27575 0.17555-0.16969-0.26332 0.31818 0.15361-0.25455-0.17555 0.36061 0.0878-0.23333-0.13167 0.38182 0.0659-0.25455-0.0439 0.42425v-0.27575z" stroke="#000" stroke-width=".021575px"/>
  <path id="path3202" fill-rule="evenodd" d="m599.02 403.53c0-1.1879 0.92164-2.1425 2.0846-2.1425 1.1411 0 2.0627 0.95457 2.0627 2.1425 0 1.1667-0.92162 2.1213-2.0627 2.1213-1.163 0-2.0846-0.95457-2.0846-2.1213"/>
  <path id="path3204" stroke-linejoin="round" d="m597.57 403.65c-0.022-0.0849-0.022-0.1697 0-0.27575l0.0439-0.42426c0-0.0849 0.0219-0.1697 0.0439-0.27576l0.13166-0.38183c0.0219-0.0849 0.0439-0.14849 0.0878-0.23333l0.17555-0.36062c0.0439-0.0849 0.10974-0.1697 0.17555-0.25455l0.26333-0.31818c0.0439-0.0637 0.10974-0.10609 0.17554-0.16971l0.30722-0.25455c0.0658-0.0636 0.1536-0.12727 0.24137-0.19091l0.35111-0.19092c0.0878-0.0424 0.17554-0.0636 0.26332-0.10608l0.39498-0.12728c0.0878-0.0212 0.19751-0.0424 0.30721-0.0636l0.41694-0.0424h0.30721l0.41693 0.0424c0.10974 0.0212 0.21944 0.0424 0.32916 0.0636l0.37304 0.12728c0.0878 0.0424 0.15361 0.0636 0.21944 0.10608l0.37304 0.19092c0.0878 0.0424 0.19749 0.10609 0.26333 0.19091l0.30721 0.25455 0.1975 0.19092 0.24137 0.31818c0.0658 0.0849 0.10975 0.1485 0.15361 0.23334l0.1975 0.36062c0.022 0.0849 0.0658 0.14848 0.0878 0.23333l0.10975 0.38183c0.0439 0.10608 0.0439 0.19091 0.0658 0.27576l0.0439 0.42426v0.27575l-0.0439 0.44547c-0.022 0.0849-0.022 0.16969-0.0658 0.25455l-0.10975 0.40303c-0.0219 0.0849-0.0658 0.14849-0.0878 0.23334l-0.1975 0.36061c-0.0439 0.0849-0.0878 0.1485-0.15361 0.23334l-0.24137 0.31819c-0.0659 0.0636-0.13167 0.12727-0.1975 0.19091l-0.30721 0.25455c-0.0658 0.0849-0.17556 0.14848-0.26333 0.19091l-0.37304 0.19092c-0.0659 0.0424-0.13167 0.0636-0.21944 0.10608l-0.37304 0.12727c-0.10974 0.0212-0.21944 0.0424-0.32916 0.0636l-0.41693 0.0424h-0.30721l-0.41694-0.0424c-0.10974-0.0212-0.21942-0.0424-0.30721-0.0636l-0.39498-0.12727c-0.0878-0.0424-0.17555-0.0636-0.26332-0.10608l-0.35111-0.19092c-0.0878-0.0636-0.17555-0.12727-0.24137-0.19091l-0.30722-0.25455c-0.0658-0.0637-0.13166-0.10609-0.17554-0.1697l-0.26333-0.31819c-0.0658-0.0849-0.13166-0.1697-0.17555-0.25455l-0.17555-0.36061c-0.0439-0.0849-0.0658-0.14849-0.0878-0.23334l-0.13166-0.40303c-0.022-0.0849-0.0439-0.1697-0.0439-0.25455zm2.9404 0.1697-0.0439-0.27576 0.10975 0.40303-0.0878-0.23333 0.1975 0.36061-0.17555-0.25455 0.26333 0.31819-0.17556-0.1697 0.30722 0.27577-0.24138-0.19092 0.35109 0.19092-0.26332-0.10609 0.39499 0.12727-0.30721-0.0636 0.41693 0.0424h-0.30721l0.41693-0.0424-0.32916 0.0636 0.39499-0.12727-0.21944 0.10609 0.3511-0.19092-0.26333 0.19092 0.30721-0.27577-0.19749 0.19091 0.26333-0.31819-0.15361 0.23334 0.17555-0.36061-0.0878 0.23333 0.13167-0.40303-0.0658 0.27576 0.0439-0.44545v0.27575l-0.0439-0.42425 0.0658 0.25455-0.13167-0.38182 0.0878 0.23333-0.17555-0.36061 0.15361 0.23334-0.26333-0.31819 0.19749 0.19091-0.30721-0.27575 0.26333 0.19091-0.3511-0.19091 0.21944 0.10608-0.39499-0.12728 0.32916 0.0636-0.41693-0.0424h0.30721l-0.41693 0.0424 0.30721-0.0636-0.39499 0.12728 0.26332-0.10608-0.35109 0.19091 0.24138-0.19091-0.30722 0.27575 0.17556-0.16969-0.26333 0.31818 0.17555-0.25455-0.1975 0.36061 0.0878-0.23333-0.10975 0.38182 0.0439-0.25455-0.0439 0.42425v-0.27575z" stroke="#000" stroke-width=".021575px"/>
  <path id="path3206" fill-rule="evenodd" d="m702.85 403.54c0-1.1879 0.96553-2.1637 2.1066-2.1637s2.0627 0.97577 2.0627 2.1637c0 1.1455-0.92164 2.1213-2.0627 2.1213s-2.1066-0.97577-2.1066-2.1213"/>
  <path id="path3208" stroke-linejoin="round" d="m701.45 403.68c-0.0439-0.0849-0.0439-0.1697 0-0.29697l0.0439-0.42425c0-0.0849 0-0.16971 0.0439-0.25455l0.13167-0.38183c0-0.0849 0.0439-0.1697 0.0878-0.25455l0.17555-0.33941c0.0439-0.0849 0.0878-0.16969 0.13167-0.25455l0.26333-0.29697c0.0439-0.0849 0.13165-0.12727 0.17554-0.21212l0.30722-0.25455c0.0878-0.0849 0.17554-0.12727 0.26332-0.16971l0.3511-0.21212c0.0878-0.0424 0.17555-0.0424 0.26332-0.0849l0.38527-0.10157c0.0878-0.0424 0.21944-0.0424 0.30721-0.0849l0.39499-0.0424h0.30721l0.43887 0.0424c0.0878 0.0424 0.21944 0.0424 0.30721 0.0849l0.39499 0.12727c0.0878 0.0424 0.17555 0.0424 0.26333 0.0849l0.35109 0.21212c0.0878 0.0424 0.17556 0.0849 0.26333 0.1697l0.30722 0.25455c0.0439 0.0849 0.0878 0.12728 0.13165 0.16971l0.26333 0.33939c0.0878 0.0849 0.13166 0.16971 0.17555 0.25455l0.21944 0.33941c0 0.0849 0.0439 0.1697 0.0878 0.25455l0.0878 0.38183c0.0439 0.0849 0.0439 0.16969 0.0878 0.25454l0.0439 0.42426v0.29697l-0.0439 0.42425c-0.0439 0.0849-0.0439 0.16969-0.0878 0.25455l-0.0878 0.42424c-0.0439 0.0849-0.0878 0.12728-0.0878 0.21213l-0.21944 0.38183c-0.0439 0.0849-0.0878 0.1697-0.17555 0.25455l-0.26333 0.29697c-0.0439 0.0424-0.0878 0.12728-0.13165 0.1697l-0.30722 0.25455c-0.0878 0.0849-0.17555 0.12728-0.26333 0.21213l-0.35109 0.1697c-0.0878 0.0424-0.17556 0.0849-0.26333 0.12727l-0.39499 0.12728c-0.0878 0-0.21944 0.0424-0.30721 0.0424l-0.43887 0.0424h-0.30721l-0.39499-0.0424c-0.0878 0-0.21944-0.0424-0.30721-0.0424l-0.39499-0.12728c-0.0878-0.0424-0.17556-0.0849-0.26333-0.12727l-0.35109-0.1697c-0.0878-0.0849-0.17556-0.12727-0.26333-0.21213l-0.30722-0.25455c-0.0439-0.0424-0.13165-0.12727-0.17554-0.21213l-0.26332-0.29697c-0.0439-0.0849-0.0878-0.12728-0.13167-0.21212l-0.17555-0.38183c-0.0439-0.0849-0.0878-0.12727-0.0878-0.21213l-0.13167-0.42424c-0.0439-0.0849-0.0439-0.1697-0.0439-0.25455zm2.9404 0.16969-0.0439-0.29697 0.0878 0.42425-0.0878-0.25455 0.21944 0.38183-0.17556-0.25456 0.26333 0.33941-0.17556-0.21213 0.30723 0.29698-0.26333-0.21213 0.3511 0.21213-0.26333-0.12727 0.39499 0.12727-0.30722-0.0424 0.39499 0.0424h-0.3072l0.43887-0.0424-0.30722 0.0424 0.39499-0.12727-0.26332 0.12727 0.35109-0.21213-0.26332 0.21213 0.30721-0.29698-0.17554 0.16971 0.26332-0.29699-0.13167 0.25456 0.17556-0.38183-0.0878 0.25455 0.13166-0.42425-0.0878 0.29697 0.0439-0.46666v0.29697l-0.0439-0.42425 0.0878 0.25455-0.13166-0.38183 0.0878 0.21213-0.17556-0.3394 0.13167 0.25455-0.26332-0.3394 0.17554 0.1697-0.30721-0.25455 0.26332 0.1697-0.35109-0.1697 0.26332 0.0849-0.39499-0.12728 0.30722 0.0849-0.43887-0.0424h0.3072l-0.39499 0.0424 0.30722-0.0849-0.39499 0.12728 0.26333-0.0849-0.3511 0.1697 0.26333-0.1697-0.30723 0.25455 0.17556-0.21213-0.26333 0.33941 0.17556-0.21213-0.21944 0.3394 0.0878-0.21213-0.0878 0.38183 0.0439-0.25455-0.0439 0.42425v-0.29697z" stroke="#000" stroke-width=".043150px"/>
  <path id="path3210" stroke-linejoin="round" d="m791.43 337.45v201.87h-1.4481v-201.87h1.4481zm3.6862 200.36-4.3883 8.8576-4.3883-8.8576h8.7766z" stroke="#000" stroke-width=".044085px"/>
  <path id="path3212" stroke-linejoin="round" d="m796.3 472.73-11.806 8.4002 0.65832 0.89091 11.805-8.4426z" stroke="#000" stroke-width=".043150px"/>
  <text id="text3214" xml:space="preserve" transform="scale(1.0171 .98320)" font-size="11.565px" y="482.97726" x="760.01312" font-family="Arial" fill="#000000">51</text>
  <path id="path3216" stroke-linejoin="round" d="m465.51 488.65c0-0.38182 0.32916-0.70001 0.72414-0.70001h63.571c0.41693 0 0.74609 0.31819 0.74609 0.70001v28.064c0 0.40303-0.32916 0.7-0.74609 0.7h-63.571c-0.39498 0-0.72414-0.29697-0.72414-0.7zm1.4702 28.064-0.7461-0.70002h63.571l-0.72415 0.70002v-28.064l0.72415 0.70001h-63.571l0.7461-0.70001z" stroke="#000" stroke-width=".021575px"/>
  <text id="text3218" transform="scale(1.0171 .98320)" line-height="125%" font-size="14.348px" y="520.81915" x="472.35455" font-family="Arial" xml:space="preserve" fill="#000000">MUX</text>
  <path id="path3220" stroke-linejoin="round" d="m452.82 501.78h13.254v1.0606h-13.254z" stroke="#000" stroke-width=".021575px"/>
  <text id="text3222" xml:space="preserve" transform="scale(1.0171 .98320)" font-size="11.565px" y="515.07001" x="423.0054" font-family="Arial" fill="#000000">MR</text>
  <text id="text3224" transform="scale(1.0171 .98320)" line-height="125%" font-size="14.325px" y="572.82013" x="740.46771" font-family="Arial" xml:space="preserve" fill="#000000"><tspan id="tspan4437" y="572.82013" x="740.46771">Rest of CPU</tspan></text>
  <text id="text3228" xml:space="preserve" transform="scale(1.0171 .98320)" font-size="14.325px" y="589.185" x="735.60443" font-family="Arial" fill="#000000">control </text>
  <text id="text3230" xml:space="preserve" transform="scale(1.0171 .98320)" font-size="14.325px" y="588.54163" x="782.09253" font-family="Arial" fill="#000000">signals</text>
  <path id="path3232" stroke-linejoin="round" d="m676.57 388.49v-51.037h-1.0972v51.037z" stroke="#000" stroke-width=".043150px"/>
  <path id="path3234" stroke-linejoin="round" d="m498.49 517.48v12.96h-1.4483v-12.96h1.4483zm3.6646 11.54-4.3888 8.485-4.3888-8.485h8.7775z" stroke="#000" stroke-width=".021575px"/>
  <path id="path3236" stroke-linejoin="round" d="m580.96 488.52c0-0.38182 0.30721-0.72122 0.7022-0.72122h63.593c0.39499 0 0.7022 0.3394 0.7022 0.72122v28.086c0 0.38183-0.30721 0.6788-0.7022 0.6788h-63.593c-0.39499 0-0.7022-0.29697-0.7022-0.6788zm1.4482 28.086-0.74608-0.72123h63.593l-0.74609 0.72123v-28.086l0.74609 0.72123h-63.593l0.74608-0.72123z" stroke="#000" stroke-width=".043150px"/>
  <text id="text3238" transform="scale(1.0171 .98320)" line-height="125%" font-size="14.348px" y="521.4007" x="585.83887" font-family="Arial" xml:space="preserve" fill="#000000">MUX</text>
  <path id="path3240" stroke-linejoin="round" d="m568.26 501.66h13.232v1.0606h-13.232z" stroke="#000" stroke-width=".021575px"/>
  <text id="text3242" xml:space="preserve" transform="scale(1.0171 .98320)" font-size="11.565px" y="514.93243" x="538.78558" font-family="Arial" fill="#000000">MR</text>
  <path id="path3244" stroke-linejoin="round" d="m613.92 517.33v12.982h-1.4482v-12.982h1.4482zm3.6426 11.583-4.3888 8.485-4.3888-8.485h8.7775z" stroke="#000" stroke-width=".043150px"/>
  <path id="path3246" stroke-linejoin="round" d="m691.93 489.2c0-0.38181 0.3072-0.72122 0.7022-0.72122h63.593c0.39498 0 0.74609 0.33941 0.74609 0.72122v28.086c0 0.38182-0.35111 0.6788-0.74609 0.6788h-63.593c-0.395 0-0.7022-0.29698-0.7022-0.6788zm1.4482 28.086-0.74609-0.72122h63.593l-0.74609 0.72122v-28.086l0.74609 0.72123h-63.593l0.74609-0.72123z" stroke="#000" stroke-width=".043150px"/>
  <text id="text3248" transform="scale(1.0171 .98320)" line-height="125%" font-size="14.348px" y="522.09161" x="694.94727" font-family="Arial" xml:space="preserve" fill="#000000">MUX</text>
  <text id="text3250" xml:space="preserve" transform="scale(1.0171 .98320)" font-size="10.011px" y="508.6376" x="690.4599" font-family="Arial" fill="#000000">0         1</text>
  <path id="path3252" stroke-linejoin="round" d="m679.25 502.36h13.21v1.0606h-13.21z" stroke="#000" stroke-width=".043150px"/>
  <text id="text3254" xml:space="preserve" transform="scale(1.0171 .98320)" font-size="11.565px" y="515.62317" x="646.57562" font-family="Arial" fill="#000000">MR</text>
  <path id="path3256" stroke-linejoin="round" d="m724.88 518.01v12.982h-1.4482v-12.982h1.4482zm3.6865 11.583-4.3888 8.485-4.3888-8.485h8.7775z" stroke="#000" stroke-width=".043150px"/>
  <path id="path3258" stroke-linejoin="round" d="m513.52 458.74h34.645v1.0568h-34.645z" stroke="#000" stroke-width=".025501px"/>
  <path id="path3260" stroke-linejoin="round" d="m548.08 458.64 1.0566-124.05-1.2884-0.0212-1.0565 124.08z" stroke="#000" stroke-width=".023380px"/>
  <path id="path3262" fill-rule="evenodd" d="m651.41 436.04c0-1.1879 0.92164-2.1213 2.1066-2.1213 1.1411 0 2.0627 0.93335 2.0627 2.1213 0 1.1879-0.92163 2.1213-2.0627 2.1213-1.185 0-2.1066-0.93335-2.1066-2.1213"/>
  <path id="path3264" stroke-linejoin="round" d="m651.95 436.17v-0.25455l0.0439-0.46668c0-0.0849 0.0439-0.16969 0.0439-0.25455l0.13167-0.38182c0.0439-0.0849 0.0439-0.1697 0.0878-0.21212l0.17555-0.38183c0.0439-0.0849 0.13165-0.1697 0.17555-0.25455l0.26333-0.29697c0.0439-0.0849 0.13165-0.12728 0.17554-0.1697l0.30722-0.29698c0.0878-0.0424 0.17554-0.12728 0.26332-0.1697l0.3511-0.1697c0.0878-0.0424 0.17555-0.0849 0.26332-0.12727l0.39499-0.12728c0.0878-0.0424 0.17555-0.0424 0.30721-0.0424l0.39499-0.0424c0.13166-0.0424 0.21944-0.0424 0.30721 0l0.43888 0.0424c0.0878 0 0.21944 0 0.30721 0.0424l0.39499 0.12728c0.0878 0.0424 0.13165 0.0849 0.21944 0.0849l0.35109 0.21212c0.0878 0.0424 0.21944 0.12728 0.26333 0.16971l0.30722 0.29697c0.0878 0.0424 0.13165 0.12728 0.21942 0.1697l0.21944 0.3394c0.0878 0.0424 0.13167 0.12728 0.17555 0.21212l0.17556 0.38183c0.0439 0.0424 0.0878 0.12727 0.0878 0.21213l0.13167 0.38182c0.0439 0.0849 0.0439 0.1697 0.0439 0.25454l0.0439 0.46668v0.25455l-0.0439 0.42425c0 0.12728 0 0.21213-0.0439 0.29697l-0.13167 0.38183c0 0.0849-0.0439 0.16971-0.0878 0.21213l-0.17556 0.38183c-0.0439 0.0849-0.0878 0.16969-0.17555 0.21212l-0.21944 0.3394c-0.0878 0.0424-0.13165 0.12727-0.21942 0.1697l-0.30722 0.29697c-0.0439 0.0424-0.17555 0.12727-0.26333 0.16971l-0.35109 0.16969c-0.0878 0.0424-0.13167 0.0849-0.21944 0.12728l-0.39499 0.12727c-0.0878 0.0424-0.21944 0.0424-0.30721 0.0424l-0.43888 0.0424c-0.0878 0.0424-0.17555 0.0424-0.30721 0l-0.39499-0.0424c-0.13166 0-0.21944 0-0.30721-0.0424l-0.39499-0.12727c-0.0878-0.0424-0.17554-0.0849-0.26332-0.12728l-0.3511-0.16969c-0.0878-0.0424-0.17555-0.12728-0.26332-0.16971l-0.30722-0.29697c-0.0439-0.0424-0.13166-0.0849-0.17554-0.1697l-0.26333-0.29697c-0.0439-0.0849-0.13167-0.16971-0.17555-0.25455l-0.17555-0.38183c-0.0439-0.0424-0.0439-0.12728-0.0878-0.21213l-0.13167-0.38183c0-0.0849-0.0439-0.16969-0.0439-0.29697zm2.9404 0.1697-0.0439-0.25455 0.13166 0.38183-0.0878-0.21213 0.17556 0.3394-0.17556-0.25455 0.26333 0.33941-0.17555-0.16971 0.30722 0.25455-0.21944-0.1697 0.35109 0.1697-0.26332-0.0849 0.39499 0.12727-0.30722-0.0849 0.39499 0.0424h-0.30721l0.43888-0.0424-0.35111 0.0849 0.39499-0.12727-0.21943 0.0849 0.35109-0.21212-0.26332 0.21212 0.30722-0.25455-0.17556 0.16971 0.26333-0.29699-0.17556 0.21213 0.17556-0.3394-0.0878 0.21213 0.13166-0.38183-0.0439 0.25455 0.0439-0.42425v0.25455l-0.0439-0.42424 0.0439 0.25454-0.13166-0.38182 0.0878 0.21212-0.17556-0.33941 0.17556 0.21213-0.26333-0.29697 0.17556 0.1697-0.30722-0.25455 0.26332 0.16969-0.35109-0.16969 0.21943 0.0849-0.39499-0.12727 0.35111 0.0849-0.43888-0.0424h0.30721l-0.39499 0.0424 0.30722-0.0849-0.39499 0.12727 0.26332-0.0849-0.35109 0.16969 0.21944-0.16969-0.30722 0.25455 0.17555-0.1697-0.26333 0.33941 0.17556-0.25457-0.17556 0.33941 0.0878-0.21212-0.13166 0.38182 0.0439-0.25454-0.0439 0.42424v-0.25455z" stroke="#000" stroke-width=".043150px"/>
  <path id="path3266" fill-rule="evenodd" d="m545.78 436.43c0-1.1667 0.94358-2.1213 2.0846-2.1213 1.163 0 2.0846 0.95456 2.0846 2.1213 0 1.1879-0.92164 2.1425-2.0846 2.1425-1.1411 0-2.0846-0.95457-2.0846-2.1425"/>
  <path id="path3268" stroke-linejoin="round" d="m544.33 436.57v-0.27575l0.0439-0.44547c0.022-0.0849 0.022-0.16971 0.0659-0.25455l0.10974-0.40304c0.0219-0.0636 0.0658-0.14848 0.0878-0.21212l0.19749-0.36062c0.0439-0.10608 0.0878-0.1909 0.1536-0.25454l0.26332-0.31819c0.0659-0.0636 0.10975-0.12728 0.17556-0.16971l0.30721-0.27575c0.0878-0.0636 0.17555-0.12728 0.26332-0.1697l0.35111-0.19091c0.0658-0.0424 0.1536-0.0849 0.24137-0.10609l0.39499-0.12728c0.10975-0.0424 0.21944-0.0636 0.30721-0.0636l0.41693-0.0424c0.10974-0.0212 0.21944-0.0212 0.30722 0l0.41693 0.0424c0.10974 0 0.21944 0.0212 0.32916 0.0636l0.39498 0.12728c0.0878 0.0212 0.15361 0.0636 0.24139 0.10609l0.35109 0.19091c0.0878 0.0424 0.17555 0.10608 0.26332 0.1697l0.30722 0.27575c0.0658 0.0424 0.10975 0.10609 0.17555 0.16971l0.26332 0.31819c0.0439 0.0636 0.10974 0.14848 0.15362 0.25454l0.19749 0.36062c0.0219 0.0636 0.0658 0.14848 0.0878 0.21212l0.10974 0.40304c0.0439 0.0849 0.0439 0.1697 0.0658 0.25455l0.0439 0.44547v0.27575l-0.0439 0.42425c-0.022 0.10609-0.022 0.19091-0.0658 0.25455l-0.10974 0.40304c-0.0219 0.0849-0.0658 0.1697-0.0878 0.25455l-0.19749 0.36061c-0.0439 0.0849-0.10975 0.1697-0.15362 0.25456l-0.26332 0.31818c-0.0659 0.0636-0.10975 0.10608-0.17555 0.1697l-0.30722 0.25455c-0.0878 0.0636-0.17554 0.12728-0.26332 0.19092l-0.35109 0.19091c-0.0878 0.0424-0.15361 0.0636-0.24139 0.10608l-0.39498 0.12727c-0.10974 0.0212-0.21944 0.0424-0.32916 0.0636l-0.41693 0.0424h-0.30722l-0.41693-0.0424c-0.0878-0.0212-0.19749-0.0424-0.30721-0.0636l-0.39499-0.12727c-0.0878-0.0424-0.17554-0.0636-0.24137-0.10608l-0.35111-0.19091c-0.0878-0.0636-0.17554-0.12728-0.26332-0.19092l-0.30721-0.25455-0.17556-0.1697-0.26332-0.31818c-0.0658-0.0849-0.10974-0.1697-0.1536-0.25456l-0.19749-0.36061c-0.022-0.0849-0.0659-0.16969-0.0878-0.25455l-0.13165-0.40304c-0.0219-0.0636-0.0219-0.14848-0.0439-0.25455zm2.9624 0.14849-0.0439-0.25455 0.10974 0.40304-0.0878-0.23334 0.17554 0.36061-0.15361-0.25455 0.26333 0.31819-0.17554-0.1697 0.30721 0.27577-0.26333-0.19092 0.3511 0.19092-0.24138-0.10609 0.39498 0.12727-0.32916-0.0636 0.41694 0.0424h-0.30722l0.41694-0.0424-0.30722 0.0636 0.39499-0.12727-0.24138 0.10609 0.3511-0.19092-0.26332 0.19092 0.30721-0.27577-0.17555 0.1697 0.26332-0.31819-0.15361 0.25455 0.17556-0.36061-0.0878 0.23334 0.10975-0.40304-0.0439 0.25455 0.0439-0.42424v0.27575l-0.0439-0.44546 0.0658 0.27577-0.13165-0.40305 0.0878 0.23335-0.17555-0.36062 0.1536 0.25455-0.26332-0.31819 0.17555 0.16971-0.30721-0.25455 0.26333 0.16969-0.35111-0.19091 0.24139 0.10609-0.39499-0.12728 0.30722 0.0636-0.41694-0.0424h0.30722l-0.41694 0.0424 0.32916-0.0636-0.39498 0.12728 0.24137-0.10609-0.35109 0.19091 0.26332-0.16969-0.30721 0.25455 0.17554-0.16971-0.26332 0.31819 0.1536-0.25455-0.17554 0.36062 0.0878-0.23335-0.13167 0.40305 0.0658-0.27577-0.0439 0.44546v-0.27575z" stroke="#000" stroke-width=".021575px"/>
  <path id="path3270" stroke-linejoin="round" d="m514.4 459.65v21.376h-1.4482v-21.376h1.4482zm3.6646 19.871-4.3888 8.9911-4.3888-8.9911h8.7775z" stroke="#000" stroke-width=".022209px"/>
  <path id="path3272" stroke-linejoin="round" d="m519.75 466.42-11.806 8.4214 0.63637 0.84851 11.806-8.4214z" stroke="#000" stroke-width=".021575px"/>
  <text id="text3274" xml:space="preserve" transform="scale(1.0171 .98320)" font-size="11.565px" y="479.26349" x="493.84998" font-family="Arial" fill="#000000">5</text>
  <path id="path3276" stroke-linejoin="round" d="m652.02 435.73-11.37-0.20208-0.0276 1.4004 11.414 0.20417-0.0163-1.4025zm-9.8738-3.6988-8.8206 4.0822 8.6952 4.4072 0.12539-8.4893z" stroke="#000" stroke-width=".043150px"/>
  <path id="path3278" stroke-linejoin="round" d="m655.87 460.98v-74.244h-1.0972v74.244z" stroke="#000" stroke-width=".043150px"/>
  <path id="path3280" stroke-linejoin="round" d="m627.82 459.92h27.528v1.0592h-27.528z" stroke="#000" stroke-width=".045235px"/>
  <path id="path3282" stroke-linejoin="round" d="m629.15 460.35v20.152h-1.4482v-20.152h1.4482zm3.6865 18.752-4.3888 8.485-4.3888-8.485h8.7775z" stroke="#000" stroke-width=".043150px"/>
  <path id="path3284" stroke-linejoin="round" d="m634.5 466.29-11.806 8.4426 0.6583 0.8485 11.806-8.4426z" stroke="#000" stroke-width=".043150px"/>
  <text id="text3286" xml:space="preserve" transform="scale(1.0171 .98320)" font-size="11.565px" y="477.63089" x="606.20398" font-family="Arial" fill="#000000">5</text>
  <path id="path3288" stroke-linejoin="round" d="m675.96 388.87h84.351v1.0606h-84.351z" stroke="#000" stroke-width=".043150px"/>
  <path id="path3290" stroke-linejoin="round" d="m760.97 438.7-11.221 0.14972 0.004-1.4058 11.217-0.19197 0.00026 1.4481zm-9.6687 3.6373-8.8779-4.0966 8.7209-4.3654 0.15704 8.462z" stroke="#000" stroke-width=".043150px"/>
  <path id="path3292" stroke-linejoin="round" d="m760.96 459.97v-70.595h-1.0972v70.595z" stroke="#000" stroke-width=".043150px"/>
  <path id="path3294" stroke-linejoin="round" d="m736.85 460.23h23.976v1.0606h-23.976z" stroke="#000" stroke-width=".043933px"/>
  <path id="path3296" stroke-linejoin="round" d="m743.41 467.96-11.806 8.4426 0.65831 0.8485 11.806-8.4002z" stroke="#000" stroke-width=".043150px"/>
  <text id="text3298" xml:space="preserve" transform="scale(1.0171 .98320)" font-size="11.565px" y="478.6091" x="713.50031" font-family="Arial" fill="#000000">5</text>
  <path id="path3300" stroke-linejoin="round" d="m738.32 461.29v20.195h-1.4482v-20.195h1.4482zm3.6426 18.752-4.3888 8.485-4.3888-8.485h8.7775z" stroke="#000" stroke-width=".043150px"/>
  <path id="path3302" stroke-linejoin="round" d="m837.87 489.33c0-0.38183 0.35109-0.72122 0.74608-0.72122h63.549c0.43887 0 0.74609 0.33939 0.74609 0.72122v28.086c0 0.38183-0.30722 0.6788-0.74609 0.6788h-63.549c-0.39499 0-0.74608-0.29697-0.74608-0.6788zm1.4482 28.086-0.7022-0.72123h63.549l-0.7022 0.72123v-28.086l0.7022 0.72123h-63.549l0.7022-0.72123z" stroke="#000" stroke-width=".043150px"/>
  <text id="text3304" transform="scale(1.0171 .98320)" line-height="125%" font-size="14.348px" y="522.21918" x="838.46021" font-family="Arial" xml:space="preserve" fill="#000000">MUX</text>
  <path id="path3306" stroke-linejoin="round" d="m825.19 502.44h13.254v1.0606h-13.254z" stroke="#000" stroke-width=".043150px"/>
  <path id="path3308" stroke-linejoin="round" d="m870.88 518.14v12.982h-1.4922v-12.982h1.4922zm3.6426 11.583-4.3888 8.485-4.3888-8.485h8.7775z" stroke="#000" stroke-width=".043150px"/>
  <path id="path3310" stroke-linejoin="round" d="m845.97 305.38c0-0.38173 0.43176-0.72104 0.9869-0.72104h58.288c0.55514 0 1.0486 0.33931 1.0486 0.72104v29.563c0 0.38172-0.49343 0.72104-1.0486 0.72104h-58.288c-0.55514 0-0.9869-0.33932-0.9869-0.72104zm1.4955 29.613-0.50868-0.77113h58.288l-0.98691 0.72102v-29.563l0.98691 0.72102h-58.288l0.55776-0.6208z" stroke="#000" stroke-width=".051149px"/>
  <text id="text3312" transform="scale(1.0171 .98320)" line-height="125%" font-size="15.783px" y="330.71228" x="836.11694" font-family="Arial" xml:space="preserve" fill="#000000">SelCop</text>
  <path id="path3314" fill-rule="evenodd" d="m759.21 438.18c0-1.1879 0.92163-2.1637 2.1066-2.1637 1.1411 0 2.0627 0.97577 2.0627 2.1637s-0.92164 2.1213-2.0627 2.1213c-1.185 0-2.1066-0.93335-2.1066-2.1213"/>
  <path id="path3316" stroke-linejoin="round" d="m757.06 437.96v-0.25455l0.0439-0.46667c0-0.0849 0.0439-0.1697 0.0439-0.25455l0.13165-0.38183c0.0439-0.0849 0.0439-0.1697 0.0878-0.25455l0.21943-0.3394c0.0439-0.0849 0.0878-0.1697 0.13166-0.25455l0.26332-0.29698c0.0439-0.0849 0.0878-0.12726 0.17556-0.21212l0.30721-0.25455c0.0878-0.0849 0.17555-0.12727 0.26332-0.1697l0.35111-0.21213c0.0878-0.0424 0.17555-0.0424 0.26332-0.0849l0.39499-0.12727c0.0878-0.0424 0.17554-0.0424 0.30721-0.0849l0.39498-0.0424h0.30722l0.43888 0.0424c0.0878 0.0424 0.17554 0.0424 0.30721 0.0849l0.39498 0.12727c0.0878 0.0424 0.17555 0.0424 0.26333 0.0849l0.3511 0.21213c0.0878 0.0424 0.17555 0.0849 0.21944 0.1697l0.3072 0.25455 0.17556 0.1697 0.26332 0.3394c0.0878 0.0849 0.13166 0.1697 0.17555 0.25455l0.17555 0.3394c0.0439 0.0849 0.0878 0.1697 0.0878 0.25455l0.13166 0.38183c0.0439 0.0849 0.0439 0.16969 0.0439 0.25455l0.0439 0.46667c0.0439 0.0849 0.0439 0.1697 0 0.25455l-0.0439 0.42426c0 0.12726 0 0.21211-0.0439 0.29697l-0.13166 0.38182c0 0.0849-0.0439 0.1697-0.0878 0.21212l-0.17555 0.38183c-0.0439 0.0849-0.0878 0.1697-0.17555 0.25455l-0.26332 0.29697c-0.0439 0.0849-0.0878 0.12728-0.17556 0.16971l-0.3072 0.29697c-0.0439 0.0424-0.13167 0.12728-0.21944 0.1697l-0.3511 0.1697c-0.0878 0.0424-0.17555 0.0849-0.26333 0.12727l-0.39498 0.12728c-0.13167 0.0424-0.21944 0.0424-0.30721 0.0424l-0.43888 0.0424c-0.0878 0.0424-0.17555 0.0424-0.30722 0l-0.39498-0.0424c-0.13167 0-0.21944 0-0.30721-0.0424l-0.39499-0.12728c-0.0878-0.0424-0.17555-0.0849-0.26332-0.12727l-0.35111-0.1697c-0.0878-0.0424-0.17554-0.12727-0.26332-0.1697l-0.30721-0.29697c-0.0878-0.0424-0.13166-0.12727-0.17556-0.16971l-0.26332-0.33939c-0.0439-0.0424-0.0878-0.12728-0.13166-0.21213l-0.21943-0.38183c0-0.0424-0.0439-0.12727-0.0878-0.21212l-0.0878-0.38182c-0.0439-0.0849-0.0878-0.16971-0.0878-0.29697zm2.9843 0.1697-0.0878-0.25455 0.13167 0.38183-0.0878-0.21213 0.17554 0.33941-0.13166-0.21213 0.26333 0.29697-0.21944-0.1697 0.30721 0.25455-0.21944-0.16969 0.35111 0.16969-0.26333-0.0849 0.39498 0.12727-0.30721-0.0849 0.39499 0.0424h-0.30722l0.43888-0.0424-0.30721 0.0849 0.39499-0.12727-0.26332 0.0849 0.35109-0.16969-0.26332 0.16969 0.30721-0.25455-0.17555 0.1697 0.26333-0.3394-0.17555 0.25456 0.21944-0.33941-0.0878 0.21213 0.0878-0.38183-0.0439 0.25455 0.0439-0.42425v0.25455l-0.0439-0.42425 0.0439 0.25455-0.13167-0.42425 0.13167 0.25455-0.21944-0.3394 0.17555 0.25455-0.26333-0.33939 0.17555 0.16969-0.30721-0.25455 0.26332 0.1697-0.35109-0.1697 0.26332 0.0849-0.39499-0.12728 0.30721 0.0849-0.43888-0.0424h0.30722l-0.39499 0.0424 0.30721-0.0849-0.39498 0.12728 0.26333-0.0849-0.35111 0.1697 0.21944-0.1697-0.30721 0.25455 0.21944-0.21213-0.26333 0.33941 0.13166-0.21213-0.17554 0.3394 0.0878-0.25455-0.13167 0.42425 0.0878-0.25455-0.0439 0.42425v-0.25455z" stroke="#000" stroke-width=".043150px"/>
  <path id="path3318" stroke-linejoin="round" d="m884.47 334.93 0.30308 147.01-1.4482-0.0113-0.30308-147.01 1.4482 0.0113zm3.9583 145.52-4.3738 8.6668-4.4041-8.6489 8.7779-0.0178z" stroke="#000" stroke-width=".043586px"/>
  <path id="path3320" stroke-linejoin="round" d="m853.32 401.96 0.43888 81.959h-1.4483l-0.48276-81.917 1.4922-0.0419zm4.0815 80.537-4.3449 8.3632-4.4327-8.3214 8.7775-0.0419z" stroke="#000" stroke-width=".042839px"/>
  <text id="text3322" xml:space="preserve" transform="scale(1.0171 .98320)" font-size="11.565px" y="514.76361" x="791.31708" font-family="Arial" fill="#000000">MC</text>
  <path id="path3324" stroke-linejoin="round" d="m889.61 440.43-11.806 8.4426 0.65832 0.84851 11.806-8.4002z" stroke="#000" stroke-width=".043150px"/>
  <path id="path3326" stroke-linejoin="round" d="m859.69 440.28-11.806 8.4002 0.61443 0.89093 11.806-8.4426z" stroke="#000" stroke-width=".043150px"/>
  <text id="text3328" font-size="11.565px" transform="matrix(-.072971 -1.0357 .96056 -.070540 0 0)" xml:space="preserve" y="844.74426" x="-518.1438" font-family="Arial" line-height="125%" fill="#000000"><tspan id="tspan4439" y="844.74426" x="-518.1438">IR3 -- IR0</tspan></text>
  <text id="text3330" xml:space="preserve" transform="scale(1.0171 .98320)" font-size="11.565px" y="452.64587" x="857.50665" font-family="Arial" fill="#000000">4</text>
  <text id="text3332" xml:space="preserve" transform="scale(1.0171 .98320)" font-size="11.565px" y="478.263" x="460.95374" font-family="Arial" fill="#000000">5</text>
  <text id="text3334" xml:space="preserve" transform="scale(1.0171 .98320)" font-size="11.565px" y="477.6929" x="575.63293" font-family="Arial" fill="#000000">5</text>
  <text id="text3336" xml:space="preserve" transform="scale(1.0171 .98320)" font-size="11.565px" y="477.56812" x="680.36401" font-family="Arial" fill="#000000">5</text>
  <text id="text3338" xml:space="preserve" transform="scale(1.0171 .98320)" font-size="10.011px" y="507.49472" x="469.10898" font-family="Arial" fill="#000000">0</text>
  <text id="text3340" xml:space="preserve" transform="scale(1.0171 .98320)" font-size="10.011px" y="507.73975" x="499.64517" font-family="Arial" fill="#000000">1</text>
  <text id="text3342" xml:space="preserve" transform="scale(1.0171 .98320)" font-size="14.325px" y="563.36304" x="592.62018" font-family="Arial" fill="#000000">RB</text>
  <text id="text3344" xml:space="preserve" transform="scale(1.0171 .98320)" font-size="14.325px" y="563.36304" x="702.88873" font-family="Arial" fill="#000000">RC</text>
  <text id="text3346" xml:space="preserve" transform="scale(1.0171 .98320)" font-size="14.325px" y="563.36304" x="477.07803" font-family="Arial" fill="#000000">RA</text>
  <text id="text3348" xml:space="preserve" transform="scale(1.0171 .98320)" font-size="14.325px" y="562.40997" x="843.03088" font-family="Arial" fill="#000000">Cop</text>
  <text id="text3350" xml:space="preserve" transform="scale(1.0171 .98320)" font-size="10.011px" y="507.49472" x="584.63306" font-family="Arial" fill="#000000">0</text>
  <text id="text3352" xml:space="preserve" transform="scale(1.0171 .98320)" font-size="10.011px" y="507.73975" x="615.16925" font-family="Arial" fill="#000000">1</text>
  <text id="text3354" xml:space="preserve" transform="scale(1.0171 .98320)" font-size="10.011px" y="508.08932" x="837.62231" font-family="Arial" fill="#000000">0</text>
  <text id="text3356" xml:space="preserve" transform="scale(1.0171 .98320)" font-size="10.011px" y="507.68076" x="866.29437" font-family="Arial" fill="#000000">1</text>
  <text id="text3358" transform="scale(1.0171 .98320)" line-height="125%" font-size="11.479px" y="204.43863" x="299.18683" font-family="Arial" xml:space="preserve" fill="#000000">A1</text>
  <text id="text3362" xml:space="preserve" transform="scale(1.0171 .98320)" font-size="17.26px" y="312.74112" x="264.85971" font-family="Arial" fill="#000000">MUX B</text>
  <path id="path3364" stroke-linejoin="round" d="m252.07 329.79c0 0.40305 0.29098 0.72124 0.68588 0.72124h86.42c0.3741 0 0.68587-0.31819 0.68587-0.72124v-45.119c0-0.38183-0.31177-0.70002-0.68587-0.70002h-86.42c-0.3949 0-0.68588 0.31819-0.68588 0.70002zm1.3718-45.119-0.68587 0.70001h86.42l-0.68588-0.70001v45.119l0.68588-0.70001h-86.42l0.68587 0.70001z" stroke="#000" stroke-width=".020997px"/>
  <text id="text3366" xml:space="preserve" transform="scale(1.0171 .98320)" font-size="10.011px" y="329.09497" x="271.75735" font-family="Arial" fill="#000000">0</text>
  <text id="text3368" xml:space="preserve" transform="scale(1.0171 .98320)" font-size="10.011px" y="329.33997" x="302.29358" font-family="Arial" fill="#000000">1</text>
  <path id="path3477" stroke-linejoin="round" d="m279.14 427.31v-90.429h-1.4702v90.429h1.4702zm3.6646-89.008-4.3888-8.485-4.3888 8.485h8.7775z" stroke="#000" stroke-width=".021575px"/>
  <path id="path3370" stroke-linejoin="round" d="m279.14 427.31v-90.429h-1.4702v90.429h1.4702zm3.6646-89.008-4.3888-8.485-4.3888 8.485h8.7775z" stroke="#000" stroke-width=".021575px"/>
  <path id="path3372" stroke-linejoin="round" d="m312.01 350.26v-12.982h-1.4702v12.982h1.4702zm3.6426-11.561-4.3888-8.485-4.3888 8.485h8.7775z" stroke="#000" stroke-width=".021575px"/>
  <text id="text3374" transform="scale(1.0171 .98320)" line-height="125%" font-size="11.479px" y="66.580368" x="233.11676" font-family="Arial" xml:space="preserve" fill="#000000">00</text>
  <text id="text3376" transform="scale(1.0171 .98320)" line-height="125%" font-size="11.479px" y="104.42471" x="233.11676" font-family="Arial" xml:space="preserve" fill="#000000">01</text>
  <text id="text3378" transform="scale(1.0171 .98320)" line-height="125%" font-size="11.479px" y="144.28635" x="233.11676" font-family="Arial" xml:space="preserve" fill="#000000">10</text>
  <text id="text3380" transform="scale(1.0171 .98320)" line-height="125%" font-size="11.479px" y="183.68144" x="233.11676" font-family="Arial" xml:space="preserve" fill="#000000">11</text>
  <path id="path3382" d="m303.08 372.32 8.2947-16.037 8.2947 16.037z" fill-rule="evenodd" fill="#fff"/>
  <path id="path3384" stroke-linejoin="round" d="m303.08 372.85c-0.1975 0-0.37304-0.10608-0.48276-0.25455-0.0878-0.1697-0.10974-0.36061-0.022-0.5091l8.2947-16.037c0.0878-0.19091 0.28528-0.29697 0.50471-0.29697 0.19749 0 0.39498 0.10608 0.48277 0.29697l8.2947 16.037c0.0878 0.14849 0.0658 0.3394-0.022 0.5091-0.10974 0.14849-0.28526 0.25455-0.46081 0.25455zm16.59-1.0606-0.50471 0.76366-8.2947-16.037h0.98747l-8.2947 16.037-0.48276-0.76366z" stroke="#000" stroke-width=".021575px"/>
  <path id="path3386" d="m307.09 352.82c0-2.2061 1.8652-4.0091 4.1473-4.0091 2.3041 0 4.1473 1.803 4.1473 4.0091s-1.8433 4.0091-4.1473 4.0091c-2.2822 0-4.1473-1.803-4.1473-4.0091" fill-rule="evenodd" fill="#fff"/>
  <path id="path3388" stroke-linejoin="round" d="m306.57 352.89c-0.022-0.0424-0.022-0.0849 0-0.12727l0.0878-0.80608c0-0.0212 0-0.0636 0.0219-0.0849l0.24138-0.76365c0-0.0212 0.022-0.0636 0.022-0.0849l0.37304-0.67879c0.0219-0.0424 0.0439-0.0636 0.0658-0.10608l0.52666-0.59396 0.0658-0.0636 0.61443-0.48788c0.022-0.0212 0.0659-0.0424 0.0878-0.0424l0.7022-0.38183c0.0219-0.0212 0.0658-0.0212 0.10974-0.0424l0.76803-0.23334c0.0439 0 0.0659-0.0212 0.10975-0.0212l0.83385-0.0849h0.10975l0.83386 0.0849c0.0439 0 0.0659 0.0212 0.10975 0.0212l0.76803 0.23334c0.0439 0.0212 0.0659 0.0212 0.10974 0.0424l0.7022 0.38183c0.022 0 0.0659 0.0212 0.0878 0.0424l0.61443 0.48788 0.0658 0.0636 0.52665 0.59396c0.022 0.0424 0.0439 0.0636 0.0659 0.10608l0.37304 0.67879c0 0.0212 0.022 0.0637 0.022 0.0849l0.24139 0.76365c0.0219 0.0212 0.0219 0.0636 0.0219 0.0849l0.0878 0.80608c0.022 0.0424 0.022 0.0849 0 0.12727l-0.0878 0.80608c0 0.0212 0 0.0636-0.0219 0.0849l-0.24139 0.76365c0 0.0212-0.022 0.0636-0.022 0.0849l-0.37304 0.67881c-0.022 0.0424-0.0439 0.0637-0.0659 0.10608l-0.52665 0.59395-0.0658 0.0636-0.61443 0.48789c-0.022 0.0212-0.0659 0.0424-0.0878 0.0636l-0.7022 0.36061c-0.0439 0.0212-0.0658 0.0212-0.10974 0.0424l-0.76803 0.23333c-0.0439 0-0.0659 0.0212-0.10975 0.0212l-0.83386 0.0849h-0.10975l-0.83385-0.0849c-0.0439 0-0.0659-0.0212-0.10975-0.0212l-0.76803-0.23333c-0.0439-0.0212-0.0659-0.0212-0.10974-0.0424l-0.7022-0.36061c-0.022-0.0212-0.0659-0.0424-0.0878-0.0636l-0.61443-0.48789-0.0658-0.0636-0.52666-0.59395c-0.022-0.0424-0.0439-0.0636-0.0658-0.10608l-0.37304-0.67881c0-0.0212-0.022-0.0636-0.022-0.0849l-0.24138-0.76365c-0.0219-0.0212-0.0219-0.0636-0.0219-0.0849zm1.163 0.6788-0.022-0.0849 0.24138 0.74244-0.0219-0.0849 0.37304 0.67881-0.0659-0.10609 0.50471 0.59396-0.0658-0.0637 0.61443 0.5091-0.0878-0.0636 0.70221 0.36061-0.10975-0.0424 0.78999 0.23334-0.10975-0.0212 0.83386 0.0849h-0.10974l0.83387-0.0849-0.10975 0.0212 0.78998-0.23334-0.10975 0.0424 0.7022-0.36061-0.0878 0.0636 0.61443-0.5091-0.0659 0.0637 0.50471-0.59396-0.0658 0.10609 0.37304-0.67881-0.022 0.0849 0.24139-0.74244-0.022 0.0849 0.0878-0.80607v0.12727l-0.0878-0.80607 0.022 0.0849-0.24139-0.74243 0.022 0.0849-0.37304-0.67881 0.0658 0.10609-0.50471-0.59394 0.0659 0.0636-0.61443-0.48788 0.0878 0.0424-0.7022-0.36061 0.10975 0.0424-0.78998-0.23333 0.10975 0.0212-0.83387-0.0849h0.10974l-0.83386 0.0849 0.10975-0.0212-0.78999 0.23333 0.10975-0.0424-0.70221 0.36061 0.0878-0.0424-0.61443 0.48788 0.0658-0.0636-0.50471 0.59394 0.0659-0.10609-0.37304 0.67881 0.0219-0.0849-0.24138 0.74243 0.022-0.0849-0.0878 0.80607v-0.12727z" stroke="#000" stroke-width=".021575px"/>
  <path id="path3390" stroke-linejoin="round" d="m312.25 388.36v-16.037h-1.0972v16.037z" stroke="#000" stroke-width=".021575px"/>
  <path id="path3392" stroke-linejoin="round" d="m278.17 387.57h33.859v1.0606h-33.859z" stroke="#000" stroke-width=".021575px"/>
  <path id="path3394" d="m476.2 304.9v31.119h18.408v-31.119h-18.408z" fill-rule="evenodd" fill="#d9d9d9"/>
  <path id="path3396" stroke-linejoin="round" d="m475.09 305.1c0-0.36968 0.3502-0.67772 0.82548-0.67772h18.585c0.45027 0 0.82546 0.30804 0.82546 0.67772v30.128c0 0.36967-0.37519 0.67771-0.82546 0.67771h-18.585c-0.47528 0-0.82548-0.30804-0.82548-0.67771zm1.6509 30.128-0.82548-0.67772h18.585l-0.85049 0.67772v-30.128l0.85049 0.67772h-18.585l0.82548-0.67772z" stroke="#000" stroke-width=".022666px"/>
  <path id="path3398" d="m494.86 304.9v31.119h29.032v-31.119h-29.032z" fill-rule="evenodd" fill="#d9d9d9"/>
  <path id="path3400" stroke-linejoin="round" d="m494.13 305.1c0-0.36969 0.30722-0.67776 0.72416-0.67776h29.032c0.39498 0 0.72415 0.30807 0.72415 0.67776v30.129c0 0.3697-0.32917 0.67777-0.72415 0.67777h-29.032c-0.41694 0-0.72416-0.30807-0.72416-0.67777zm1.4484 30.129-0.72415-0.67774h29.032l-0.74609 0.67774v-30.129l0.74609 0.67775h-29.032l0.72415-0.67775z" stroke="#000" stroke-width=".021230px"/>
  <path id="path3402" d="m454.94 304.9v31.119h20.702v-31.119h-20.702z" fill-rule="evenodd" fill="#d9d9d9"/>
  <path id="path3404" stroke-linejoin="round" d="m454.6 305.1c0-0.36965 0.38656-0.6777 0.91119-0.6777h20.516c0.49701 0 0.9112 0.30805 0.9112 0.6777v30.127c0 0.36965-0.41419 0.67769-0.9112 0.67769h-20.516c-0.52463 0-0.91119-0.30804-0.91119-0.67769zm1.8224 30.127-0.91122-0.67771h20.516l-0.93881 0.67771v-30.127l0.93881 0.67769h-20.516l0.91122-0.67769z" stroke="#000" stroke-width=".023813px"/>
  <text id="text3406" transform="scale(1.0171 .98320)" line-height="125%" font-size="12.913px" y="330.71262" x="449.90298" font-family="Arial" xml:space="preserve" fill="#000000">A0</text>
  <text id="text3408" transform="scale(1.0171 .98320)" line-height="125%" font-size="15.783px" y="331.84036" x="472.569" font-family="Arial" xml:space="preserve" fill="#000000">B</text>
  <text id="text3410" transform="scale(1.0171 .98320)" line-height="125%" font-size="15.783px" y="331.32117" x="494.68219" font-family="Arial" xml:space="preserve" fill="#000000">C</text>
  <text id="text3412" xml:space="preserve" transform="scale(1.0171 .98320)" font-size="14.325px" y="275.42734" x="552.43494" font-family="Arial" fill="#000000">µAddress</text>
  <path id="path3414" stroke-linejoin="round" d="m511.27 335.69v34.046h-1.0972v-34.046z" stroke="#000" stroke-width=".021575px"/>
  <path id="path3416" stroke-linejoin="round" d="m591.01 233.68v22.885h-1.0959v-22.885z" stroke="#000" stroke-width=".022858px"/>
  <path id="path3418" stroke-linejoin="round" d="m524.45 302.03 0.0439-2.4606 0.13167-2.3334 0.0878-1.103 0.13167-1.0182 0.13165-0.97577 0.13167-0.84851 0.13166-0.84849 0.17555-0.72122 0.17555-0.63638 0.21944-0.55152 0.17554-0.42425c0.0439-0.0424 0.0439-0.0849 0.0439-0.0849l0.21944-0.29699c0.0439-0.0424 0.0439-0.0849 0.0878-0.0849l0.21944-0.21212c0.0439-0.0424 0.13166-0.0849 0.21944-0.12728l0.21944-0.0424c0.0439-0.0424 0.0878-0.0424 0.13166-0.0424h63.724l-0.17555 0.0424 0.21943-0.0849-0.21943 0.12726 0.21943-0.16969-0.0878 0.0849 0.21944-0.29697-0.0439 0.0849 0.17556-0.42425 0.17555-0.46668 0.17554-0.59394 0.13167-0.6788 0.17555-0.76365 0.13166-0.84851 0.0878-0.93335 0.13167-1.0182 0.0878-1.0606 0.0878-2.291 0.0439-2.4606c0.0439-0.29698 0.26333-0.5091 0.57054-0.5091 0.30722 0 0.52664 0.21212 0.52664 0.5091l0.0439 2.503 0.13166 2.2486 0.0878 1.0606 0.13166 1.0182 0.0878 0.93335 0.13167 0.84851 0.17555 0.76365 0.13166 0.6788 0.17555 0.59394 0.17555 0.50911 0.17555 0.38182-0.0439-0.0849 0.21944 0.29697-0.0878-0.0849 0.21944 0.16969-0.21944-0.12726 0.21944 0.0849-0.17555-0.0424h63.724c0.0439 0 0.0878 0 0.13167 0.0424l0.21944 0.0424c0.0878 0.0424 0.17555 0.0849 0.21944 0.12728l0.21944 0.21212c0.0439 0 0.0439 0.0424 0.0878 0.0849l0.21944 0.29699s0 0.0424 0.0439 0.0849l0.17555 0.38182 0.21944 0.59395 0.17554 0.63638 0.17555 0.72122 0.13167 0.80607 0.13166 0.89093 0.13166 0.97577 0.13166 1.0182 0.0878 1.0606 0.0878 2.3334 0.0439 2.5031h-1.0972l-0.0439-2.4606-0.0878-2.291-0.0878-1.0182-0.13167-1.0182-0.0878-0.93335-0.13167-0.8485-0.17554-0.80607-0.13167-0.63638-0.17555-0.59395-0.17554-0.5091-0.17556-0.38182 0.0439 0.0849-0.21944-0.29697 0.0878 0.0849-0.21944-0.21212 0.21944 0.12728-0.21944-0.0424h0.17554-63.724-0.13166l-0.21944-0.0849c-0.0878 0-0.17554-0.0424-0.21943-0.12727l-0.21944-0.16971c-0.0439-0.0424-0.0439-0.0849-0.0878-0.0849l-0.21944-0.29699c0-0.0424 0-0.0849-0.0439-0.0849l-0.17554-0.46667-0.21944-0.55152-0.17555-0.63638-0.17555-0.72122-0.13166-0.80609-0.13167-0.89091-0.13165-0.93335-0.13167-1.0606-0.0878-1.0606-0.13167-2.3334-0.0439-2.4606h1.0972l-0.0439 2.4606-0.0878 2.3334-0.0878 1.103-0.13167 1.0182-0.13167 0.93335-0.13166 0.89091-0.13166 0.80609-0.17554 0.76364-0.17556 0.63638-0.21944 0.55152-0.17555 0.42425c-0.0439 0-0.0439 0.0424-0.0439 0.0849l-0.21944 0.29699c-0.0439 0-0.0439 0.0424-0.0878 0.0849l-0.21944 0.16971c-0.0439 0.0849-0.13167 0.12727-0.21944 0.12727l-0.21943 0.0849h-0.13166-63.724 0.17555l-0.21944 0.0424 0.21944-0.12728-0.21944 0.21212 0.0878-0.0849-0.21943 0.29697 0.0439-0.0849-0.17555 0.38182-0.17555 0.46667-0.17556 0.59396-0.13165 0.6788-0.17556 0.76365-0.13165 0.8485-0.0878 0.97577-0.13165 0.97578-0.0878 1.0606-0.13165 2.291-0.0439 2.4606z" stroke="#000" stroke-width=".043150px"/>
  <path id="path3420" stroke-linejoin="round" d="m485.6 336.03v14.891l0.76496-0.72123h-78.398l0.78816 0.72123v-43.676c0-0.40304-0.34772-0.72123-0.78816-0.72123h-62.056v1.4212h62.056l-0.76498-0.7v43.676c0 0.38181 0.34771 0.7 0.76498 0.7h78.398c0.44046 0 0.78817-0.31819 0.78817-0.7v-14.891zm-138.14-33.028-9.2724 4.2424 9.2724 4.2424z" stroke="#000" stroke-width=".022174px"/>
  <path id="path3422" stroke-linejoin="round" d="m78.255 538.72c0-0.40304 0.32916-0.70001 0.72414-0.70001h23.875c0.41693 0 0.74609 0.29697 0.74609 0.70001v29.422c0 0.38183-0.32916 0.70002-0.74609 0.70002h-23.875c-0.39498 0-0.72414-0.31819-0.72414-0.70002zm1.4702 29.422-0.7461-0.70001h23.875l-0.72415 0.70001v-29.422l0.72415 0.70002h-23.875l0.7461-0.70002z" stroke="#000" stroke-width=".021575px"/>
  <text id="text3424" xml:space="preserve" transform="scale(1.0171 .98320)" font-size="25.89px" y="572.63367" x="84.711418" font-family="Arial" fill="#ffffff">º</text>
  <path id="path3426" stroke-linejoin="round" d="m102.13 538.72c0-0.40304 0.32916-0.70001 0.72415-0.70001h23.875c0.39499 0 0.72415 0.29697 0.72415 0.70001v29.422c0 0.38183-0.32916 0.70002-0.72415 0.70002h-23.875c-0.39499 0-0.72415-0.31819-0.72415-0.70002zm1.4702 29.422-0.74608-0.70001h23.875l-0.72414 0.70001v-29.422l0.72414 0.70002h-23.875l0.74608-0.70002z" stroke="#000" stroke-width=".021575px"/>
  <path id="path3428" stroke-linejoin="round" d="m126 538.72c0-0.40304 0.32916-0.70001 0.72414-0.70001h23.875c0.39499 0 0.72415 0.29697 0.72415 0.70001v29.422c0 0.38183-0.32916 0.70002-0.72415 0.70002h-23.875c-0.39498 0-0.72414-0.31819-0.72414-0.70002zm1.4482 29.422-0.72415-0.70001h23.875l-0.72414 0.70001v-29.422l0.72414 0.70002h-23.875l0.72415-0.70002z" stroke="#000" stroke-width=".021575px"/>
  <path id="path3430" stroke-linejoin="round" d="m201.22 538.72c0-0.40304 0.32916-0.70001 0.72415-0.70001h23.875c0.39499 0 0.72415 0.29697 0.72415 0.70001v29.422c0 0.38183-0.32916 0.70002-0.72415 0.70002h-23.875c-0.39499 0-0.72415-0.31819-0.72415-0.70002zm1.4702 29.422-0.74609-0.70001h23.875l-0.72414 0.70001v-29.422l0.72414 0.70002h-23.875l0.74609-0.70002z" stroke="#000" stroke-width=".021575px"/>
  <path id="path3432" stroke-linejoin="round" d="m225.1 538.72c0-0.40304 0.32916-0.70001 0.72414-0.70001h23.875c0.39498 0 0.72413 0.29697 0.72413 0.70001v29.422c0 0.38183-0.32915 0.70002-0.72413 0.70002h-23.875c-0.39498 0-0.72414-0.31819-0.72414-0.70002zm1.4482 29.422-0.72415-0.70001h23.875l-0.74608 0.70001v-29.422l0.74608 0.70002h-23.875l0.72415-0.70002z" stroke="#000" stroke-width=".021575px"/>
  <text id="text3434" xml:space="preserve" transform="scale(1.0171 .98320)" font-size="14.325px" y="568.05829" x="84.221443" font-family="Arial" fill="#000000">O</text>
  <text id="text3436" xml:space="preserve" transform="scale(1.0171 .98320)" font-size="14.325px" y="568.05829" x="108.26621" font-family="Arial" fill="#000000">N</text>
  <text id="text3438" xml:space="preserve" transform="scale(1.0171 .98320)" font-size="14.325px" y="568.05829" x="132.39047" font-family="Arial" fill="#000000">Z</text>
  <text id="text3440" xml:space="preserve" transform="scale(1.0171 .98320)" font-size="14.325px" y="568.05829" x="207.96257" font-family="Arial" fill="#000000">I</text>
  <text id="text3442" xml:space="preserve" transform="scale(1.0171 .98320)" font-size="14.325px" y="568.05829" x="229.62671" font-family="Arial" fill="#000000">U</text>
  <path id="path3444" stroke-linejoin="round" d="m149.88 538.72c0-0.40304 0.30721-0.70001 0.72414-0.70001h51.348c0.41693 0 0.74608 0.29697 0.74608 0.70001v29.422c0 0.38183-0.32915 0.70002-0.74608 0.70002h-51.348c-0.41693 0-0.72414-0.31819-0.72414-0.70002zm1.4482 29.422-0.72415-0.70001h51.348l-0.72415 0.70001v-29.422l0.72415 0.70002h-51.348l0.72415-0.70002z" stroke="#000" stroke-width=".021575px"/>
  <text id="text3446" transform="scale(1.0171 .98320)" line-height="125%" font-size="11.479px" y="590.69049" x="85.716446" font-family="Arial" xml:space="preserve" fill="#000000">31</text>
  <text id="text3448" transform="scale(1.0171 .98320)" line-height="125%" font-size="11.479px" y="590.69049" x="108.15561" font-family="Arial" xml:space="preserve" fill="#000000">30</text>
  <text id="text3450" transform="scale(1.0171 .98320)" line-height="125%" font-size="11.479px" y="590.69049" x="131.81325" font-family="Arial" xml:space="preserve" fill="#000000">29</text>
  <text id="text3452" transform="scale(1.0171 .98320)" line-height="125%" font-size="11.479px" y="590.69049" x="206.75005" font-family="Arial" xml:space="preserve" fill="#000000">1</text>
  <text id="text3454" transform="scale(1.0171 .98320)" line-height="125%" font-size="12.913px" y="519.23737" x="248.36314" font-family="Arial" xml:space="preserve" fill="#000000">MRdy</text>
  <text id="text3456" transform="scale(1.0171 .98320)" line-height="125%" font-size="12.913px" y="519.23737" x="287.52322" font-family="Arial" xml:space="preserve" fill="#000000">IORdy</text>
  <text id="text3458" transform="scale(1.0171 .98320)" line-height="125%" font-size="12.913px" y="519.23737" x="328.55463" font-family="Arial" xml:space="preserve" fill="#000000">INT</text>
  <text id="text3460" transform="scale(1.0171 .98320)" line-height="125%" font-size="11.479px" y="475.88943" x="110.42283" font-family="Arial" xml:space="preserve" fill="#000000">7</text>
  <text id="text3462" transform="scale(1.0171 .98320)" line-height="125%" font-size="11.479px" y="475.88943" x="133.18001" font-family="Arial" xml:space="preserve" fill="#000000">6</text>
  <text id="text3464" transform="scale(1.0171 .98320)" line-height="125%" font-size="11.479px" y="475.88943" x="208.0451" font-family="Arial" xml:space="preserve" fill="#000000">5</text>
  <text id="text3466" transform="scale(1.0171 .98320)" line-height="125%" font-size="11.479px" y="475.88943" x="230.21513" font-family="Arial" xml:space="preserve" fill="#000000">4</text>
  <text id="text3468" transform="scale(1.0171 .98320)" line-height="125%" font-size="11.479px" y="475.88943" x="262.84402" font-family="Arial" xml:space="preserve" fill="#000000">3</text>
  <text id="text3470" transform="scale(1.0171 .98320)" line-height="125%" font-size="11.479px" y="475.88943" x="302.99509" font-family="Arial" xml:space="preserve" fill="#000000">2</text>
  <text id="text3472" transform="scale(1.0171 .98320)" line-height="125%" font-size="11.479px" y="475.88943" x="333.05322" font-family="Arial" xml:space="preserve" fill="#000000">1</text>
  <text id="text3474" transform="scale(1.0171 .98320)" line-height="125%" font-size="11.479px" y="475.88943" x="357.68509" font-family="Arial" xml:space="preserve" fill="#000000">0</text>
  <text id="text3476" transform="scale(1.0171 .98320)" line-height="125%" font-size="11.479px" y="475.88943" x="89.317894" font-family="Arial" xml:space="preserve" fill="#000000">8</text>
  <path id="path3478" stroke-linejoin="round" d="m82.306 383.1 0.04226 2.2104 0.12678 2.0566 0.08453 0.96103 0.08452 0.90336 0.12679 0.86494 0.12679 0.78804 0.14801 0.71116 0.14801 0.65351 0.16924 0.5574 0.19026 0.49972 0.21142 0.40366c0 0.0193 0.02101 0.0385 0.02101 0.0577l0.19028 0.26908c0.04226 0.0385 0.06351 0.0769 0.10577 0.0962l0.1903 0.17297c0.06351 0.0385 0.12679 0.0769 0.19028 0.0962l0.21141 0.0577c0.04226 0.0193 0.10577 0.0193 0.14801 0.0193h57.548l-0.16905-0.0193 0.21142 0.0577-0.19029-0.0962 0.19029 0.15377-0.0845-0.0962 0.19027 0.26907 0.14801 0.30755 0.14801 0.40362 0.16905 0.53819 0.14801 0.59584 0.12679 0.69194 0.12679 0.74961 0.12679 0.82648 0.0845 0.88416 0.0845 0.9418 0.12678 2.0374 0.0212 2.1719c0.021 0.26909 0.25371 0.48052 0.52854 0.48052 0.29597 0 0.52854-0.21143 0.52854-0.48052l0.0423-2.1911 0.12679-2.0182 0.0845-0.9418 0.0845-0.90339 0.12679-0.80725 0.12679-0.76883 0.14801-0.69193 0.12679-0.61507 0.16923-0.51896 0.16905-0.42284 0.16905-0.32678-0.0423 0.0577 0.19026-0.26908-0.0845 0.0962 0.19027-0.15376-0.19027 0.0962 0.19027-0.0577-0.14801 0.0192h57.548c0.0635 0 0.10577 0 0.14801-0.0192l0.21142-0.0577c0.0633-0.0193 0.12679-0.0577 0.19027-0.0962l0.21143-0.17297c0.0213-0.0192 0.0633-0.0577 0.0845-0.0962l0.19027-0.26908c0.021-0.0193 0.021-0.0385 0.0423-0.0577l0.16923-0.36522 0.21141-0.49972 0.16905-0.57661 0.14801-0.65351 0.14801-0.73038 0.14802-0.76882 0.10577-0.86495 0.10577-0.90335 0.0845-0.96106 0.10577-2.0566 0.0423-2.2296h-1.0571l-0.0423 2.1719-0.10578 2.0374-0.0845 0.94182-0.0845 0.88414-0.12677 0.82649-0.12679 0.76884-0.12679 0.67273-0.14801 0.61505-0.16905 0.49974-0.14801 0.42284-0.19028 0.3652 0.0423-0.0577-0.19028 0.26909 0.0845-0.0961-0.1903 0.15376 0.1903-0.0962-0.21143 0.0577 0.16905-0.0193h-57.548c-0.0633 0-0.10577 0-0.16905 0.0193l-0.19027 0.0577c-0.0635 0.0192-0.14802 0.0577-0.1903 0.0962l-0.21142 0.17298c-0.021 0.0193-0.0633 0.0577-0.0845 0.0962l-0.19026 0.26909c-0.0212 0.0192-0.0212 0.0385-0.0423 0.0577l-0.19028 0.40364-0.19027 0.49974-0.16905 0.57663-0.16905 0.63427-0.12679 0.71117-0.14801 0.78803-0.10578 0.86494-0.10577 0.90339-0.0845 0.96102-0.12679 2.0758-0.0423 2.1911h1.0571l-0.0423-2.2104-0.10577-2.0758-0.0845-0.9418-0.10577-0.92261-0.10577-0.84572-0.12679-0.80726-0.16924-0.71115-0.14801-0.65351-0.16905-0.5574-0.19025-0.51896-0.2326-0.42285-0.19026-0.2691c-0.021-0.0385-0.0633-0.0769-0.0845-0.0962l-0.21141-0.17297c-0.0635-0.0385-0.12678-0.0769-0.19029-0.0962l-0.21143-0.0577c-0.0423-0.0192-0.0845-0.0192-0.14801-0.0192h-57.548l0.16905 0.0192-0.21143-0.0577 0.21143 0.0962-0.21143-0.15377 0.08452 0.0962-0.19028-0.2691 0.04226 0.0577-0.14801-0.32674-0.16905-0.42287-0.16924-0.51895-0.14801-0.61506-0.12679-0.69195-0.14801-0.74959-0.10577-0.8265-0.10577-0.90336-0.08452-0.92261-0.10577-2.0374-0.04226-2.1911z" stroke="#000" stroke-width=".020159px"/>
  <path id="path3480" stroke-linejoin="round" d="m214.97 538.7v-59.908h-1.4483v59.908h1.4483zm3.6647-58.712-4.3888-7.1361-4.3888 7.1361h8.7775z" stroke="#000" stroke-width=".019786px"/>
  <path id="path3482" stroke-linejoin="round" d="m238.3 538.7v-59.908h-1.4703v59.908h1.4703zm3.6428-58.712-4.3888-7.1361-4.3888 7.1361h8.7775z" stroke="#000" stroke-width=".019786px"/>
  <path id="path3484" stroke-linejoin="round" d="m93.666 538.94v-59.885h-1.4703v59.885h1.4703zm3.6428-58.708-4.3888-7.1356-4.3888 7.1356h8.7777z" stroke="#000" stroke-width=".019786px"/>
  <path id="path3486" stroke-linejoin="round" d="m116.98 538.94v-59.885h-1.4703v59.885h1.4703zm3.6428-58.708-4.3888-7.1356-4.3888 7.1356h8.7777z" stroke="#000" stroke-width=".019786px"/>
  <path id="path3488" stroke-linejoin="round" d="m138.78 539v-59.908h-1.4482v59.908h1.4482zm3.6647-58.712-4.3888-7.1361-4.3888 7.1361h8.7775z" stroke="#000" stroke-width=".019786px"/>
  <path id="path3490" stroke-linejoin="round" d="m704.44 451.46v30.508h-1.4482v-30.508h1.4482zm3.6865 29.044-4.3888 8.8683-4.3888-8.8683h8.7775z" stroke="#000" stroke-width=".044114px"/>
  <path id="path3492" stroke-linejoin="round" d="m597.4 452.23v29.188h-1.4702v-29.188h1.4702zm3.6426 27.789-4.3888 8.485-4.3888-8.485h8.7775z" stroke="#000" stroke-width=".021575px"/>
  <path id="path3494" stroke-linejoin="round" d="m480.2 451.43v30.496h-1.4702v-30.496h1.4702zm3.6646 29.034-4.3888 8.865-4.3888-8.865h8.7775z" stroke="#000" stroke-width=".022053px"/>
  <path id="path3496" stroke-linejoin="round" d="m438.6 451.5h-47.742v1.4004h47.742v-1.4004zm-46.576-3.5435-6.9543 4.2436 6.9543 4.2437v-8.4873z" stroke="#000" stroke-width=".019207px"/>
  <path id="path3498" stroke-linejoin="round" d="m438.02 369.31h72.711v1.0583h-72.711z" stroke="#000" stroke-width=".023990px"/>
  <path id="path3500" stroke-linejoin="round" d="m147.56 233.8h442.74v1.285h-442.74z" stroke="#000" stroke-width=".023358px"/>
  <path id="path3502" stroke-linejoin="round" d="m607.47 386.7h47.383v1.0616h-47.383z" stroke="#000" stroke-width=".042846px"/>
  <path id="path3504" stroke-linejoin="round" d="m108.29 138.15h113.95v1.4109h-113.95v-1.4109zm112.83-3.5324 6.6861 4.2432-6.6861 4.2432v-8.4864z" stroke="#000" stroke-width=".0094158px"/>
  <text id="text3346-5" transform="scale(1.0171 .98320)" line-height="125%" font-size="17.218px" y="37.581902" x="720.84015" font-family="Arial" xml:space="preserve" fill="#134ece">back to CPU</text>
  <path id="path3192-9" stroke-linejoin="round" d="m837.79 29.116v-10.946h-1.4922v10.946zm5.6412-12.501-18.712-5.8203 7.9357 9.4843z" stroke="#000" stroke-width=".043150px" fill="#134ece"/>
  <path id="path3118-3" stroke-linejoin="round" d="m407.52 193.34v-14.785h-1.4702v14.785h1.4702zm3.6426-13.363-4.3888-8.485-4.3888 8.485h8.7775z" stroke="#000" stroke-width=".021575px"/>
  <path id="path3042-5" stroke-linejoin="round" d="m374.95 209.48h12.42v1.0606h-12.42z" stroke="#000" stroke-width=".043150px"/>
  <path id="path3044-3" stroke-linejoin="round" d="m400.75 209.48h12.42v1.0606h-12.42z" stroke="#000" stroke-width=".043150px"/>
  <path id="path3046-8" stroke-linejoin="round" d="m425.59 209.48h12.42v1.0606h-12.42z" stroke="#000" stroke-width=".043150px"/>
  <path id="path3048-7" stroke-linejoin="round" d="m387.67 197.01h13.386v1.0606h-13.386z" stroke="#000" stroke-width=".043150px"/>
  <path id="path3050-6" stroke-linejoin="round" d="m388.24 210.37v-13.194h-1.0972v13.194z" stroke="#000" stroke-width=".043150px"/>
  <path id="path3052-7" stroke-linejoin="round" d="m401.27 210.37v-13.534h-1.0972v13.534z" stroke="#000" stroke-width=".043150px"/>
  <path id="path3054-4" stroke-linejoin="round" d="m413.69 210.37v-13.534h-1.0972v13.534z" stroke="#000" stroke-width=".043150px"/>
  <path id="path3056-8" stroke-linejoin="round" d="m427.08 210.04v-13.194h-1.0972v13.194z" stroke="#000" stroke-width=".043150px"/>
  <path id="path3058-1" stroke-linejoin="round" d="m412.86 197.01h13.693v1.0606h-13.693z" stroke="#000" stroke-width=".043150px"/>
  <path id="path3022-6" stroke-linejoin="round" d="m73.953 316.27c0 0.19367 0.53937 0.35069 1.2046 0.35069h142.79c0.66524 0 1.2046-0.15702 1.2046-0.35069v-57.423c0-0.19367-0.53934-0.35072-1.2046-0.35072h-142.79c-0.66523 0-1.2046 0.15705-1.2046 0.35072zm2.4091-57.423-1.2046 0.35072h142.79l-1.2046-0.35072v57.423l1.2046-0.35072h-142.79l1.2046 0.35072z" stroke="#000" stroke-width=".0097012px"/>
  <path id="path3100-8" stroke-linejoin="round" d="m108.45 139.16-0.13708 120.02h1.1463l0.13707-120.02z" stroke="#000" stroke-width=".013496px"/>
  <path id="path3100-9" stroke-linejoin="round" d="m443.72 9.1809-0.13147 109.65h1.0956l0.13146-109.65z" stroke="#000" stroke-width=".012612px"/>
  <path id="path3100-8-5" stroke-linejoin="round" d="m922.07 290.92-0.13782 30.107h1.1524l0.13781-30.107z" stroke="#000" stroke-width=".0067775px"/>
  <path id="path3498-6" stroke-linejoin="round" d="m857.18 290.85h65.508v1.0595h-65.508z" stroke="#000" stroke-width=".022784px"/>
  <text id="text3172-1" transform="scale(1.0171 .98320)" line-height="125%" font-size="15.783px" y="331.86667" x="692.46875" font-family="Arial" xml:space="preserve" fill="#000000"><tspan id="tspan4412" y="331.86667" x="692.46875">MR</tspan></text>
  <path id="path3180-5" stroke-linejoin="round" d="m697.76 305.37c0-0.38195 0.19065-0.72144 0.46301-0.72144h37.094c0.24513 0 0.43576 0.33949 0.43576 0.72144v29.579c0 0.38194-0.19063 0.72144-0.43576 0.72144h-37.094c-0.27236 0-0.46301-0.3395-0.46301-0.72144zm0.89877 29.579-0.43576-0.72144h37.094l-0.46298 0.72144v-29.579l0.46298 0.72143h-37.094l0.43576-0.72143z" stroke="#000" stroke-width=".033997px"/>
  <text id="text3172-1-5" transform="scale(1.0171 .98320)" line-height="125%" font-size="15.783px" y="331.19022" x="729.12207" font-family="Arial" xml:space="preserve" fill="#000000"><tspan id="tspan4435" y="331.19022" x="729.12207">MC</tspan></text>
  <path id="path3180-5-7" stroke-linejoin="round" d="m735.04 305.33c0-0.38194 0.19065-0.72144 0.46301-0.72144h37.094c0.24513 0 0.43576 0.3395 0.43576 0.72144v29.579c0 0.38194-0.19063 0.72144-0.43576 0.72144h-37.094c-0.27236 0-0.46301-0.3395-0.46301-0.72144zm0.89877 29.579-0.43576-0.72144h37.094l-0.46298 0.72144v-29.579l0.46298 0.72144h-37.094l0.43576-0.72144z" stroke="#000" stroke-width=".033997px"/>
  <text id="text4138" transform="scale(1.0822 .92405)" xml:space="preserve" font-size="13.926px" line-height="125%" y="216.42165" x="399.90549" font-family="Arial" fill="#000000"><tspan id="tspan4140" y="216.42165" x="399.90549">CLK</tspan></text>
  <path id="path3110-0" stroke-linejoin="round" d="m114.79 341.49-16.383 6.8861 0.4596 0.99093 16.363-6.896z" stroke="#000" stroke-width=".021575px"/>
  <text id="text3112-0" style="writing-mode:lr" line-height="125%" font-family="Arial" transform="scale(1.0171 .98320)" font-size="11.565px" y="349.72717" x="95.157852" xml:space="preserve" fill="#000000"><tspan id="tspan6982">6</tspan></text>
  <path id="path3124-2" stroke-linejoin="round" d="m193.16 357.16v-32.104h1.4212v32.104h-1.4212zm-3.5318-30.468 4.2425-9.844 4.2425 9.844h-8.485z" stroke="#000" stroke-width=".011424px"/>
  <path id="path3124-2-4" stroke-linejoin="round" d="m106.56 357.16v-32.104h1.4212v32.104h-1.4212zm-3.5318-30.468 4.2425-9.844 4.2425 9.844h-8.485z" stroke="#000" stroke-width=".011424px"/>
  <text id="text3112-0-4" xml:space="preserve" transform="scale(1.0171 .98320)" font-size="11.565px" y="349.3317" x="180.95726" font-family="Arial" fill="#000000">4</text>
  <path id="path3110-0-7" stroke-linejoin="round" d="m201.8 341.34-16.383 6.8861 0.4596 0.99093 16.363-6.896z" stroke="#000" stroke-width=".021575px"/>
 </g>
</svg>
