<?xml version="1.0" encoding="UTF-8" standalone="no"?>
<svg id="svg2996" xmlns:rdf="http://www.w3.org/1999/02/22-rdf-syntax-ns#" xmlns="http://www.w3.org/2000/svg" height="100%" width="100%" version="1.0" preserveAspectRatio="xMinYMin meet" xmlns:cc="http://creativecommons.org/ns#" xmlns:dc="http://purl.org/dc/elements/1.1/" viewBox="20 0 930 590">
 <metadata id="metadata3508">
  <rdf:RDF>
   <cc:Work rdf:about="">
    <dc:format>image/svg+xml</dc:format>
    <dc:type rdf:resource="http://purl.org/dc/dcmitype/StillImage"/>
    <dc:title/>
   </cc:Work>
  </rdf:RDF>
 </metadata>
 <g id="g3589" transform="matrix(1.138 0 0 1.0776 -91.743 -49.658)">
  <g id="g3612" transform="matrix(1.0259 0 0 1.0473 -8.585 -18.13)">
   <path id="path3008" stroke-linejoin="round" d="m492 128.87c0-0.54982 0.45171-0.98182 1.0266-0.98182h356.77c0.53386 0 1.0266 0.432 1.0266 0.98182v97.513c0 0.54982-0.49279 0.98182-1.0266 0.98182h-356.77c-0.57493 0-1.0266-0.432-1.0266-0.98182zm2.0533 97.513-1.0266-0.98179h356.77l-1.0266 0.98179v-97.513l1.0266 0.98179h-356.77l1.0266-0.98179z" stroke="#000" stroke-width=".040159px"/>
   <text id="text3010" style="text-decoration-line:underline;text-decoration:underline" font-size="17.5px" line-height="125%" y="182.91615" x="614.92133" font-family="Arial" xml:space="preserve" fill="#000000">Control Memory</text>
   <text id="text3012" xml:space="preserve" font-size="15.037px" y="460.43445" x="255.09398" font-family="Arial" fill="#000000">MUX C</text>
   <path id="path3014" stroke-linejoin="round" d="m767.47 226.64v99.508h-1.2777v-99.508h1.2777zm3.1191 98.454-3.758 6.3869-3.758-6.3869h7.516z" stroke="#000" stroke-width=".034642px"/>
   <path id="path3016" stroke-linejoin="round" d="m776.32 271.29-19.773 14.097 0.56387 0.75183 19.736-14.059z" stroke="#000" stroke-width=".037592px"/>
   <text id="text3018" xml:space="preserve" font-size="11.278px" y="278.69843" x="747.30322" font-family="Arial" fill="#000000">76</text>
   <path id="path3020" stroke-linejoin="round" d="m155.69 377.38c0-0.27507 0.28194-0.50428 0.62028-0.50428h108.72c0.35714 0 0.63907 0.22921 0.63907 0.50428v21.195c0 0.29035-0.28193 0.50428-0.63907 0.50428h-108.72c-0.33834 0-0.62028-0.21393-0.62028-0.50428zm1.2594 21.195-0.63907-0.50428h108.72l-0.62027 0.50428v-21.195l0.62027 0.50428h-108.72l0.63907-0.50428z" stroke="#000" stroke-width=".016948px"/>
   <path id="path3024" stroke-linejoin="round" d="m282.78 243.36c0 0.33095 0.27305 0.60674 0.61891 0.60674h103.38c0.34586 0 0.61891-0.27579 0.61891-0.60674v-151.5c0-0.34933-0.27305-0.62512-0.61891-0.62512h-103.38c-0.34586 0-0.61891 0.27579-0.61891 0.62512zm1.2196-151.5-0.60072 0.60674h103.38l-0.60072-0.60674v151.5l0.60072-0.60673h-103.38l0.60072 0.60673z" stroke="#000" stroke-width=".018294px"/>
   <path id="path3026" stroke-linejoin="round" d="m423.33 121.23c0-0.33833 0.28193-0.62027 0.62026-0.62027h24.059c0.33832 0 0.62026 0.28194 0.62026 0.62027v91.461c0 0.33833-0.28194 0.62027-0.62026 0.62027h-24.059c-0.33833 0-0.62026-0.28194-0.62026-0.62027zm1.2405 91.461-0.62027-0.62026h24.059l-0.63906 0.62026v-91.461l0.63906 0.63906h-24.059l0.62027-0.63906z" stroke="#000" stroke-width=".018796px"/>
   <path id="path3028" stroke-linejoin="round" d="m151.25 480.2c0 0.35712 0.27837 0.63906 0.61241 0.63906h264.45c0.33405 0 0.61242-0.28194 0.61242-0.63906v-39.979c0-0.33832-0.27837-0.62026-0.61242-0.62026h-264.45c-0.33404 0-0.61241 0.28194-0.61241 0.62026zm1.2248-39.979-0.61242 0.62027h264.45l-0.61241-0.62027v39.979l0.61241-0.62026h-264.45l0.61242 0.62026z" stroke="#000" stroke-width=".018677px"/>
   <text id="text3030" font-size="17.593px" line-height="125%" y="326.20496" x="167.81688" font-family="Arial" xml:space="preserve" fill="#000000"><tspan id="tspan4390" y="326.20496" x="167.81688">co2µaddr</tspan></text>
   <path id="path3032" stroke-linejoin="round" d="m155.75 377.38c0-0.27507 0.28195-0.50428 0.63908-0.50428h42.556c0.35713 0 0.62028 0.22921 0.62028 0.50428v21.195c0 0.29035-0.26315 0.50428-0.62028 0.50428h-42.556c-0.35713 0-0.63908-0.21393-0.63908-0.50428zm1.2594 21.195-0.62029-0.50428h42.556l-0.6203 0.50428v-21.195l0.6203 0.50428h-42.556l0.62029-0.50428z" stroke="#000" stroke-width=".016948px"/>
   <text id="text3034" font-size="13.75px" line-height="125%" y="393.40939" x="168.14314" font-family="Arial" xml:space="preserve" fill="#000000">CO</text>
   <text id="text3036" xml:space="preserve" font-size="15.037px" y="378.42371" x="134.5096" font-family="Arial" fill="#000000">IR</text>
   <text id="text3038" xml:space="preserve" font-size="15.037px" y="539.75952" x="127.00993" font-family="Arial" fill="#000000">SR</text>
   <path id="path3040" stroke-linejoin="round" d="m156.68 125.49c0 0.23949 0.28196 0.43906 0.6203 0.43906h44.098c0.35715 0 0.6391-0.19957 0.6391-0.43906v-21.806c0-0.23949-0.28195-0.43906-0.6391-0.43906h-44.098c-0.33834 0-0.6203 0.19957-0.6203 0.43906zm1.2594-21.806-0.6391 0.45235h44.098l-0.6203-0.45235v21.806l0.6203-0.43904h-44.098l0.6391 0.43904z" stroke="#000" stroke-width=".015814px"/>
   <path id="path3042" stroke-linejoin="round" d="m823.49 312.02h10.638v0.93979h-10.638z" stroke="#000" stroke-width=".037592px"/>
   <path id="path3044" stroke-linejoin="round" d="m845.6 312.02h10.638v0.93979h-10.638z" stroke="#000" stroke-width=".037592px"/>
   <path id="path3046" stroke-linejoin="round" d="m866.88 312.02h10.638v0.93979h-10.638z" stroke="#000" stroke-width=".037592px"/>
   <path id="path3048" stroke-linejoin="round" d="m834.4 300.97h11.466v0.93979h-11.466z" stroke="#000" stroke-width=".037592px"/>
   <path id="path3050" stroke-linejoin="round" d="m834.88 312.81v-11.691h-0.93979v11.691z" stroke="#000" stroke-width=".037592px"/>
   <path id="path3052" stroke-linejoin="round" d="m846.05 312.81v-11.992h-0.93979v11.992z" stroke="#000" stroke-width=".037592px"/>
   <path id="path3054" stroke-linejoin="round" d="m856.69 312.81v-11.992h-0.93979v11.992z" stroke="#000" stroke-width=".037592px"/>
   <path id="path3056" stroke-linejoin="round" d="m868.15 312.51v-11.691h-0.93979v11.691z" stroke="#000" stroke-width=".037592px"/>
   <path id="path3058" stroke-linejoin="round" d="m855.97 300.97h11.729v0.93979h-11.729z" stroke="#000" stroke-width=".037592px"/>
   <path id="path3060" stroke-linejoin="round" d="m353.4 500.87v-15.393h-1.2593v15.393h1.2593zm3.1202-14.32-3.7592-6.4071-3.7592 6.4071h7.5185z" stroke="#000" stroke-width=".017351px"/>
   <path id="path3062" stroke-linejoin="round" d="m379.94 500.98v-15.377h-1.2594v15.377h1.2594zm3.139-14.304-3.7592-6.4071-3.7592 6.4071h7.5185z" stroke="#000" stroke-width=".017351px"/>
   <text id="text3064" font-size="11.25px" line-height="125%" y="513.66547" x="399.121" font-family="Arial" xml:space="preserve" fill="#000000">0</text>
   <text id="text3066" font-size="10px" line-height="125%" y="239.4165" x="311.4408" font-family="Arial" xml:space="preserve" fill="#000000">A0</text>
   <text id="text3068" font-size="16.25px" line-height="125%" y="171.46426" x="313.13614" font-family="Arial" xml:space="preserve" fill="#000000">MUX A</text>
   <text id="text3072" font-size="12.5px" line-height="125%" y="261.2088" x="777.30908" font-family="Arial" xml:space="preserve" fill="#000000">µInstruction</text>
   <text id="text3076" xml:space="preserve" font-size="15.037px" y="262.75717" x="539.09192" font-family="Arial" fill="#000000">MADDR</text>
   <text id="text3080" xml:space="preserve" transform="rotate(-90)" font-size="15.037px" y="441.00684" x="-188.56253" font-family="Arial" fill="#000000">µAddr</text>
   <path id="path3082" stroke-linejoin="round" d="m447.55 167.2h40.867v1.2595h-40.867v-1.2595zm40.008-3.1206 5.1244 3.7598-5.1244 3.7598v-7.5196z" stroke="#000" stroke-width=".015519px"/>
   <text id="text3084" xml:space="preserve" font-size="15.037px" y="120.6318" x="171.14304" font-family="Arial" fill="#000000">+1</text>
   <path id="path3086" d="m464.91 167.84c0-1.0526 0.80822-1.8984 1.7856-1.8984s1.7856 0.84582 1.7856 1.8984c0 1.0338-0.80823 1.8796-1.7856 1.8796-0.97739 0-1.7856-0.84582-1.7856-1.8796" fill-rule="evenodd"/>
   <path id="path3088" stroke-linejoin="round" d="m464.06 167.95v-0.24434l0.0376-0.37592c0.0188-0.0752 0.0188-0.15037 0.0564-0.24435l0.094-0.33833c0.0188-0.0752 0.0564-0.13157 0.0752-0.20675l0.16916-0.31953c0.0376-0.0752 0.0752-0.15037 0.13157-0.22555l0.22555-0.28194c0.0376-0.0376 0.094-0.094 0.13158-0.13157l0.26314-0.22555c0.0752-0.0752 0.15036-0.13157 0.24434-0.18796l0.31953-0.16916c0.0564-0.0376 0.11278-0.0564 0.18796-0.094l0.31953-0.11278c0.094-0.0188 0.18796-0.0376 0.28194-0.0564l0.35712-0.0376h0.26315l0.35712 0.0376c0.094 0.0188 0.16916 0.0376 0.26314 0.0564l0.33833 0.11278c0.0752 0.0376 0.15037 0.0564 0.22555 0.094l0.30073 0.16916c0.0752 0.0564 0.15037 0.11277 0.20676 0.16916l0.26314 0.22555c0.0564 0.0564 0.11278 0.094 0.15037 0.15037l0.22555 0.28194c0.0564 0.0752 0.094 0.15037 0.15037 0.22555l0.15036 0.31953c0.0376 0.0752 0.0564 0.13157 0.0752 0.20675l0.11277 0.33833c0.0188 0.094 0.0376 0.16916 0.0376 0.24435l0.0376 0.37592c0.0188 0.094 0.0188 0.16916 0 0.24434l-0.0376 0.39472c0 0.0752-0.0188 0.15036-0.0376 0.22555l-0.11277 0.35712c-0.0188 0.0752-0.0376 0.13157-0.0752 0.20675l-0.15036 0.31953c-0.0564 0.0752-0.094 0.15037-0.15037 0.22556l-0.22555 0.28193c-0.0376 0.0564-0.094 0.094-0.15037 0.15037l-0.26314 0.22555c-0.0564 0.0564-0.13157 0.11278-0.20676 0.16916l-0.30073 0.16917c-0.0752 0.0376-0.15037 0.0564-0.22555 0.094l-0.33833 0.11277c-0.094 0.0188-0.16916 0.0376-0.26314 0.0564l-0.35712 0.0376h-0.26315l-0.35712-0.0376c-0.094-0.0188-0.18796-0.0376-0.28194-0.0564l-0.31953-0.11277c-0.0752-0.0376-0.13157-0.0564-0.18796-0.094l-0.31953-0.16917c-0.094-0.0564-0.16916-0.11277-0.24434-0.18795l-0.26314-0.22556c-0.0376-0.0376-0.094-0.094-0.13158-0.13157l-0.22555-0.28193c-0.0564-0.0752-0.094-0.15037-0.13157-0.22556l-0.16916-0.31953c-0.0188-0.0752-0.0564-0.13157-0.0752-0.20675l-0.094-0.35712c-0.0376-0.0752-0.0376-0.15037-0.0564-0.22555zm2.5374 0.15037-0.0564-0.24435 0.11277 0.35712-0.0752-0.20675 0.15036 0.31953-0.13157-0.22555 0.22555 0.28194-0.13157-0.13157 0.24435 0.24434-0.24435-0.18796 0.30074 0.16917-0.18796-0.094 0.33832 0.11277-0.28193-0.0564 0.35712 0.0376h-0.26315l0.35713-0.0376-0.26315 0.0564 0.33833-0.11277-0.22555 0.094 0.30073-0.16917-0.20675 0.16917 0.26314-0.24435-0.15037 0.15037 0.22556-0.28194-0.15037 0.22555 0.16916-0.31953-0.0752 0.20675 0.094-0.35712-0.0376 0.24435 0.0376-0.39471v0.24434l-0.0376-0.37592 0.0376 0.22555-0.094-0.33832 0.0752 0.20675-0.16916-0.31953 0.15037 0.22555-0.22556-0.28193 0.15037 0.15036-0.26314-0.24434 0.20675 0.16916-0.30073-0.16916 0.22555 0.094-0.33833-0.11278 0.26315 0.0564-0.35713-0.0376h0.26315l-0.35712 0.0376 0.28193-0.0564-0.33832 0.11278 0.18796-0.094-0.30074 0.16916 0.24435-0.18796-0.24435 0.24435 0.13157-0.13157-0.22555 0.28193 0.13157-0.22555-0.15036 0.31953 0.0752-0.20675-0.11277 0.33832 0.0564-0.22555-0.0376 0.37592v-0.24434z" stroke="#000" stroke-width=".018796px"/>
   <path id="path3092" stroke-linejoin="round" d="m387.25 169.04h33.315v-1.2596h-33.315v1.2596zm32.673 3.1208 3.8349-3.76-3.8349-3.76v7.52z" stroke="#000" stroke-width=".013425px"/>
   <path id="path3094" stroke-linejoin="round" d="m351.1 313.12v-62.628h-1.2593v62.628h1.2593zm3.1201-61.387-3.7592-7.5184-3.7592 7.5184h7.5184z" stroke="#000" stroke-width=".018796px"/>
   <path id="path3096" stroke-linejoin="round" d="m486.91 337.98v-46.843c0-0.36485-0.25166-0.6689-0.55363-0.6689h-171.86l0.57041 0.6689v-40.093h-1.124v40.093c0 0.36484 0.25165 0.66889 0.55364 0.66889h171.86l-0.57041-0.66889v46.843zm-169.06-85.578-3.3553-8.1078-3.3553 8.1078z" stroke="#000" stroke-width=".018441px"/>
   <path id="path3098" stroke-linejoin="round" d="m467.47 69.437h-287.5v0.93501h287.5z" stroke="#000" stroke-width=".023580px"/>
   <path id="path3100" stroke-linejoin="round" d="m179.7 69.677-0.13446 34.454h1.1204l0.13444-34.454z" stroke="#000" stroke-width=".0071490px"/>
   <path id="path3102" stroke-linejoin="round" d="m201.69 114.94h72.041v1.2593h-72.041v-1.2593zm70.606-3.1294 8.6276 3.759-8.6276 3.759v-7.5181z" stroke="#000" stroke-width=".010067px"/>
   <path id="path3104" stroke-linejoin="round" d="m212.33 149.23h64.309v1.25h-64.309v-1.25zm63.101-3.1392 7.2666 3.7595-7.2666 3.7595v-7.5189z" stroke="#000" stroke-width=".0092396px"/>
   <path id="path3106" stroke-linejoin="round" d="m877.38 346.21h-11.907v-1.1285h11.907zm-10.028 2.8384-3.3711-3.4197 3.3711-3.4198z" stroke="#000" stroke-width=".017478px"/>
   <path id="path3108" stroke-linejoin="round" d="m402.1 501v-15.393h-1.2594v15.393h1.2594zm3.139-14.32-3.7592-6.4071-3.7592 6.4071h7.5185z" stroke="#000" stroke-width=".017351px"/>
   <path id="path3110" stroke-linejoin="round" d="m447.21 455.99-9.8866 11.973 0.73304 0.60147 9.8678-11.973z" stroke="#000" stroke-width=".018796px"/>
   <text id="text3112" xml:space="preserve" font-size="10.075px" y="456.42978" x="434.04202" font-family="Arial" fill="#000000">4</text>
   <path id="path3120" stroke-linejoin="round" d="m510.37 264.38-7.18 9.2288 0.73304 0.58267 7.18-9.2288z" stroke="#000" stroke-width=".018796px"/>
   <text id="text3122" xml:space="preserve" font-size="10.075px" y="262.48932" x="501.63559" font-family="Arial" fill="#000000">12</text>
   <path id="path3124" stroke-linejoin="round" d="m250.52 217.58h26.374v1.2593h-26.374v-1.2593zm25.03-3.1295 8.0871 3.7592-8.0871 3.7592v-7.5184z" stroke="#000" stroke-width=".0097470px"/>
   <text id="text3126" xml:space="preserve" font-size="15.037px" y="223.56363" x="235.76347" font-family="Arial" fill="#000000">0</text>
   <text id="text3130" font-size="11.25px" line-height="125%" y="237.32281" x="224.29837" font-family="Arial" xml:space="preserve" fill="#000000">(fetch) </text>
   <path id="path3134" stroke-linejoin="round" d="m212.52 149.71-0.11281 119.88 0.93999 0.0209 0.1128-119.9z" stroke="#000" stroke-width=".014309px"/>
   <path id="path3136" stroke-linejoin="round" d="m318.55 500.93v-15.377h-1.2594v15.377h1.2594zm3.1202-14.304-3.7592-6.4071-3.7592 6.4071h7.5185z" stroke="#000" stroke-width=".017351px"/>
   <path id="path3138" stroke-linejoin="round" d="m463.1 462.1v-73.078h-0.9398v73.078z" stroke="#000" stroke-width=".018796px"/>
   <text id="text3140" font-size="10px" line-height="125%" y="575.91461" x="288.38318" font-family="Arial" xml:space="preserve" fill="#000000">0</text>
   <path id="path3142" stroke-linejoin="round" d="m209.94 420.62 608.75-2.365v-0.96928l-608.75 2.365z" stroke="#000" stroke-width=".035659px"/>
   <path id="path3142b" stroke-linejoin="round" d="m209.94 420.62 608.75-2.365v-0.96928l-608.75 2.365z" stroke="#000" stroke-width=".035659px"/>
   <path id="path3144" stroke-linejoin="round" d="m482.99 435.22c0-0.35712 0.28194-0.62026 0.62027-0.62026h54.471c0.33832 0 0.62026 0.26314 0.62026 0.62026v26.201c0 0.35712-0.28194 0.63906-0.62026 0.63906h-54.471c-0.33833 0-0.62027-0.28194-0.62027-0.63906zm1.2593 26.201-0.63906-0.62026h54.471l-0.63906 0.62026v-26.201l0.63906 0.62027h-54.471l0.63906-0.62027z" stroke="#000" stroke-width=".018796px"/>
   <text id="text3146" xml:space="preserve" font-size="12.48px" y="452.74014" x="491.09628" font-family="Arial" fill="#000000">Sel</text>
   <text id="text3148" xml:space="preserve" font-size="12.48px" y="452.74014" x="512.59882" font-family="Arial" fill="#000000">RA</text>
   <path id="path3150" stroke-linejoin="round" d="m574.57 435.24c0-0.37592 0.30073-0.63906 0.63906-0.63906h54.471c0.33832 0 0.60146 0.26314 0.60146 0.63906v26.201c0 0.33832-0.26314 0.60147-0.60146 0.60147h-54.471c-0.33833 0-0.63906-0.26315-0.63906-0.60147zm1.2781 26.201-0.63906-0.63906h54.471l-0.63907 0.63906v-26.201l0.63907 0.60147h-54.471l0.63906-0.60147z" stroke="#000" stroke-width=".037592px"/>
   <text id="text3152" xml:space="preserve" font-size="12.48px" y="452.74014" x="581.7442" font-family="Arial" fill="#000000">Sel</text>
   <text id="text3154" xml:space="preserve" font-size="12.48px" y="452.74014" x="603.24677" font-family="Arial" fill="#000000">RB</text>
   <path id="path3156" stroke-linejoin="round" d="m667.22 435.24c0-0.37592 0.30074-0.63906 0.63906-0.63906h54.471c0.33833 0 0.60147 0.26314 0.60147 0.63906v26.201c0 0.33832-0.26314 0.60147-0.60147 0.60147h-54.471c-0.33832 0-0.63906-0.26315-0.63906-0.60147zm1.2781 26.201-0.63906-0.63906h54.471l-0.63906 0.63906v-26.201l0.63906 0.60147h-54.471l0.63906-0.60147z" stroke="#000" stroke-width=".037592px"/>
   <text id="text3158" xml:space="preserve" font-size="12.48px" y="453.52475" x="674.38776" font-family="Arial" fill="#000000">Sel</text>
   <text id="text3160" xml:space="preserve" font-size="12.48px" y="453.52475" x="695.89032" font-family="Arial" fill="#000000">RE</text>
   <path id="path3162" stroke-linejoin="round" d="m684.13 331.9c0-0.33836 0.23009-0.63912 0.5588-0.63912h127.34c0.29583 0 0.52593 0.30076 0.52593 0.63912v26.204c0 0.33836-0.2301 0.63912-0.52593 0.63912h-127.34c-0.32871 0-0.5588-0.30076-0.5588-0.63912zm1.0847 26.204-0.52592-0.63912h127.34l-0.55879 0.63912v-26.204l0.55879 0.63912h-127.34l0.52592-0.63912z" stroke="#000" stroke-width=".035153px"/>
   <text id="text3164" font-size="13.75px" line-height="125%" y="349.42462" x="546.16339" font-family="Arial" xml:space="preserve" fill="#000000">Sel</text>
   <text id="text3166" xml:space="preserve" font-size="12.48px" y="348.64478" x="567.66589" font-family="Arial" fill="#000000">A</text>
   <text id="text3168" font-size="13.75px" line-height="125%" y="349.42462" x="594.53723" font-family="Arial" xml:space="preserve" fill="#000000">Sel</text>
   <text id="text3170" xml:space="preserve" font-size="12.48px" y="348.64478" x="616.03973" font-family="Arial" fill="#000000">B</text>
   <text id="text3172" font-size="13.75px" line-height="125%" y="349.42462" x="645.7547" font-family="Arial" xml:space="preserve" fill="#000000">Sel</text>
   <text id="text3174" xml:space="preserve" font-size="12.48px" y="348.64478" x="667.2572" font-family="Arial" fill="#000000">E</text>
   <path id="path3176" stroke-linejoin="round" d="m534.88 331.88c0-0.33832 0.28194-0.62026 0.62027-0.62026h48.832c0.33832 0 0.62026 0.28194 0.62026 0.62026v26.22c0 0.33833-0.28194 0.62026-0.62026 0.62026h-48.832c-0.33833 0-0.62027-0.28193-0.62027-0.62026zm1.2405 26.22-0.62026-0.63906h48.832l-0.63906 0.63906v-26.22l0.63906 0.63906h-48.832l0.62026-0.63906z" stroke="#000" stroke-width=".018796px"/>
   <path id="path3178" stroke-linejoin="round" d="m583.54 331.9c0-0.33833 0.30073-0.63906 0.63906-0.63906h49.884c0.33832 0 0.63906 0.30073 0.63906 0.63906v26.201c0 0.33833-0.30074 0.63906-0.63906 0.63906h-49.884c-0.33833 0-0.63906-0.30073-0.63906-0.63906zm1.2405 26.201-0.60147-0.63906h49.884l-0.63906 0.63906v-26.201l0.63906 0.63906h-49.884l0.60147-0.63906z" stroke="#000" stroke-width=".037592px"/>
   <path id="path3180" stroke-linejoin="round" d="m633.31 331.9c0-0.33833 0.26099-0.63906 0.63385-0.63906h50.782c0.33557 0 0.59657 0.30073 0.59657 0.63906v26.202c0 0.33833-0.261 0.63906-0.59657 0.63906h-50.782c-0.37286 0-0.63385-0.30073-0.63385-0.63906zm1.2304 26.202-0.59656-0.63907h50.782l-0.63384 0.63907v-26.202l0.63384 0.63907h-50.782l0.59656-0.63907z" stroke="#000" stroke-width=".037438px"/>
   <path id="path3182" stroke-linejoin="round" d="m501.67 473.98-10.112 7.462 0.56388 0.75184 10.112-7.4432z" stroke="#000" stroke-width=".018796px"/>
   <path id="path3184" stroke-linejoin="round" d="m603.33 474.55-10.112 7.462 0.56388 0.75184 10.112-7.462z" stroke="#000" stroke-width=".018796px"/>
   <path id="path3186" stroke-linejoin="round" d="m694.48 474.07-10.112 7.4808 0.56388 0.75184 10.112-7.4808z" stroke="#000" stroke-width=".037592px"/>
   <path id="path3188" stroke-linejoin="round" d="m514.48 418.87v9.6987h-1.2405v-9.6987h1.2405zm3.1389 8.4394-3.7592 7.5184-3.7592-7.5184h7.5184z" stroke="#000" stroke-width=".018796px"/>
   <path id="path3190" stroke-linejoin="round" d="m602.41 418.45v9.7175h-1.2593v-9.7175h1.2593zm3.1389 8.4582-3.7592 7.5184-3.7592-7.5184h7.5184z" stroke="#000" stroke-width=".018796px"/>
   <path id="path3192" stroke-linejoin="round" d="m691.43 418.88v9.6987h-1.2781v-9.6987h1.2781zm3.1201 8.4206-3.7592 7.5184-3.7592-7.5184h7.5184z" stroke="#000" stroke-width=".037592px"/>
   <path id="path3194" stroke-linejoin="round" d="m553.44 447.59-9.0972 0.0564v1.2593l9.0972-0.0564v-1.2593zm-7.8755-3.0825-7.4808 3.8156 7.5372 3.7028-0.0564-7.5184z" stroke="#000" stroke-width=".018796px"/>
   <path id="path3196" stroke-linejoin="round" d="m607.98 404.54v-45.768h-0.9398v45.768z" stroke="#000" stroke-width=".018796px"/>
   <path id="path3198" d="m512.03 418.87c0-1.0526 0.80823-1.8984 1.7856-1.8984 0.99619 0 1.7856 0.84582 1.7856 1.8984 0 1.0338-0.78943 1.8796-1.7856 1.8796-0.97738 0-1.7856-0.84582-1.7856-1.8796" fill-rule="evenodd"/>
   <path id="path3200" stroke-linejoin="round" d="m510.79 418.98v-0.24434l0.0376-0.37592c0.0188-0.0752 0.0188-0.15037 0.0564-0.24435l0.094-0.33833c0.0188-0.0752 0.0564-0.13157 0.0752-0.20675l0.16916-0.31953c0.0376-0.0752 0.0752-0.15037 0.13157-0.22555l0.22555-0.28194 0.15037-0.15037 0.26314-0.22555c0.0752-0.0564 0.15037-0.11277 0.22555-0.16916l0.30074-0.16917c0.0564-0.0376 0.13157-0.0564 0.20675-0.094l0.33833-0.11278c0.094-0.0188 0.18796-0.0376 0.26314-0.0564l0.35712-0.0376h0.26315l0.35712 0.0376c0.094 0.0188 0.18796 0.0376 0.28194 0.0564l0.33832 0.11278c0.0752 0.0376 0.13157 0.0564 0.20676 0.094l0.30073 0.16917c0.0752 0.0564 0.15037 0.11277 0.22555 0.16916l0.26315 0.22555c0.0564 0.0564 0.094 0.094 0.15036 0.15037l0.22555 0.28194c0.0376 0.0752 0.094 0.15037 0.13158 0.22555l0.16916 0.31953c0.0188 0.0752 0.0564 0.13157 0.0752 0.20675l0.094 0.33833c0.0376 0.094 0.0376 0.16916 0.0564 0.24435l0.0376 0.37592v0.24434l-0.0376 0.39472c-0.0188 0.0752-0.0188 0.15036-0.0564 0.22555l-0.094 0.35712c-0.0188 0.0752-0.0564 0.13157-0.0752 0.20675l-0.16916 0.31953c-0.0376 0.0752-0.094 0.15037-0.13158 0.22555l-0.22555 0.28194c-0.0564 0.0564-0.094 0.094-0.15036 0.15037l-0.26315 0.22555c-0.0752 0.0564-0.15036 0.11278-0.22555 0.16916l-0.30073 0.16917c-0.0752 0.0376-0.13157 0.0564-0.20676 0.094l-0.33832 0.11277c-0.094 0.0188-0.18796 0.0376-0.28194 0.0564l-0.35712 0.0376h-0.26315l-0.35712-0.0376c-0.0752-0.0188-0.16916-0.0376-0.26314-0.0564l-0.33833-0.11277c-0.0752-0.0376-0.15036-0.0564-0.20675-0.094l-0.30074-0.16917c-0.0752-0.0564-0.15036-0.11277-0.22555-0.16916l-0.26314-0.22555-0.15037-0.15037-0.22555-0.28194c-0.0564-0.0752-0.094-0.15036-0.13157-0.22555l-0.16916-0.31953c-0.0188-0.0752-0.0564-0.13157-0.0752-0.20675l-0.094-0.35712c-0.0376-0.0752-0.0376-0.15037-0.0564-0.22555zm2.5374 0.15037-0.0564-0.24435 0.11278 0.35712-0.0752-0.20675 0.15036 0.31953-0.13157-0.22555 0.22555 0.28194-0.15037-0.15037 0.26315 0.24435-0.22555-0.16917 0.30073 0.16917-0.20675-0.094 0.33832 0.11277-0.28194-0.0564 0.35713 0.0376h-0.26315l0.35713-0.0376-0.26315 0.0564 0.33833-0.11277-0.20676 0.094 0.30074-0.16917-0.22555 0.16917 0.26314-0.24435-0.15037 0.15037 0.22555-0.28194-0.13157 0.22555 0.15037-0.31953-0.0752 0.20675 0.11277-0.35712-0.0564 0.24435 0.0376-0.39471v0.24434l-0.0376-0.37592 0.0564 0.22555-0.11277-0.33832 0.0752 0.20675-0.15037-0.31953 0.13157 0.22555-0.22555-0.28193 0.15037 0.15036-0.26314-0.24434 0.22555 0.16916-0.30074-0.16916 0.20676 0.094-0.33833-0.11278 0.26315 0.0564-0.35713-0.0376h0.26315l-0.35713 0.0376 0.28194-0.0564-0.33832 0.11278 0.20675-0.094-0.30073 0.16916 0.22555-0.16916-0.26315 0.24434 0.15037-0.15036-0.22555 0.28193 0.13157-0.22555-0.15036 0.31953 0.0752-0.20675-0.11278 0.33832 0.0564-0.22555-0.0376 0.37592v-0.24434z" stroke="#000" stroke-width=".018796px"/>
   <path id="path3202" d="m600.04 418.87c0-1.0526 0.78943-1.8984 1.7856-1.8984 0.97739 0 1.7668 0.84582 1.7668 1.8984 0 1.0338-0.78942 1.8796-1.7668 1.8796-0.99618 0-1.7856-0.84582-1.7856-1.8796" fill-rule="evenodd"/>
   <path id="path3204" stroke-linejoin="round" d="m598.8 418.98c-0.0188-0.0752-0.0188-0.15037 0-0.24434l0.0376-0.37592c0-0.0752 0.0188-0.15037 0.0376-0.24435l0.11278-0.33833c0.0188-0.0752 0.0376-0.13157 0.0752-0.20675l0.15037-0.31953c0.0376-0.0752 0.094-0.15037 0.15037-0.22555l0.22555-0.28194c0.0376-0.0564 0.094-0.094 0.15036-0.15037l0.26315-0.22555c0.0564-0.0564 0.13157-0.11277 0.20675-0.16916l0.30074-0.16917c0.0752-0.0376 0.15036-0.0564 0.22555-0.094l0.33832-0.11278c0.0752-0.0188 0.16917-0.0376 0.26314-0.0564l0.35713-0.0376h0.26314l0.35712 0.0376c0.094 0.0188 0.18796 0.0376 0.28194 0.0564l0.31953 0.11278c0.0752 0.0376 0.13157 0.0564 0.18796 0.094l0.31953 0.16917c0.0752 0.0376 0.16916 0.094 0.22555 0.16916l0.26314 0.22555 0.16917 0.16917 0.20675 0.28193c0.0564 0.0752 0.094 0.13158 0.13157 0.20676l0.16917 0.31953c0.0188 0.0752 0.0564 0.13157 0.0752 0.20675l0.094 0.33833c0.0376 0.094 0.0376 0.16916 0.0564 0.24435l0.0376 0.37592v0.24434l-0.0376 0.39472c-0.0188 0.0752-0.0188 0.15036-0.0564 0.22555l-0.094 0.35712c-0.0188 0.0752-0.0564 0.13157-0.0752 0.20675l-0.16917 0.31953c-0.0376 0.0752-0.0752 0.13158-0.13157 0.20676l-0.20675 0.28194c-0.0564 0.0564-0.11278 0.11277-0.16917 0.16916l-0.26314 0.22555c-0.0564 0.0752-0.15037 0.13157-0.22555 0.16916l-0.31953 0.16917c-0.0564 0.0376-0.11278 0.0564-0.18796 0.094l-0.31953 0.11277c-0.094 0.0188-0.18796 0.0376-0.28194 0.0564l-0.35712 0.0376h-0.26314l-0.35713-0.0376c-0.094-0.0188-0.18795-0.0376-0.26314-0.0564l-0.33832-0.11277c-0.0752-0.0376-0.15037-0.0564-0.22555-0.094l-0.30074-0.16917c-0.0752-0.0564-0.15037-0.11277-0.20675-0.16916l-0.26315-0.22555c-0.0564-0.0564-0.11277-0.094-0.15036-0.15037l-0.22555-0.28194c-0.0564-0.0752-0.11278-0.15036-0.15037-0.22555l-0.15037-0.31953c-0.0376-0.0752-0.0564-0.13157-0.0752-0.20675l-0.11278-0.35712c-0.0188-0.0752-0.0376-0.15037-0.0376-0.22555zm2.5186 0.15037-0.0376-0.24435 0.094 0.35712-0.0752-0.20675 0.16917 0.31953-0.15037-0.22555 0.22555 0.28194-0.15037-0.15037 0.26315 0.24435-0.20676-0.16917 0.30073 0.16917-0.22555-0.094 0.33833 0.11277-0.26314-0.0564 0.35712 0.0376h-0.26314l0.35712-0.0376-0.28194 0.0564 0.33833-0.11277-0.18796 0.094 0.30073-0.16917-0.22555 0.16917 0.26314-0.24435-0.16916 0.16916 0.22555-0.28194-0.13157 0.20676 0.15037-0.31953-0.0752 0.20675 0.11278-0.35712-0.0564 0.24435 0.0376-0.39471v0.24434l-0.0376-0.37592 0.0564 0.22555-0.11278-0.33832 0.0752 0.20675-0.15037-0.31953 0.13157 0.20676-0.22555-0.28194 0.16916 0.16916-0.26314-0.24434 0.22555 0.16916-0.30073-0.16916 0.18796 0.094-0.33833-0.11278 0.28194 0.0564-0.35712-0.0376h0.26314l-0.35712 0.0376 0.26314-0.0564-0.33833 0.11278 0.22555-0.094-0.30073 0.16916 0.20676-0.16916-0.26315 0.24434 0.15037-0.15036-0.22555 0.28193 0.15037-0.22555-0.16917 0.31953 0.0752-0.20675-0.094 0.33832 0.0376-0.22555-0.0376 0.37592v-0.24434z" stroke="#000" stroke-width=".018796px"/>
   <path id="path3206" d="m688.98 418.88c0-1.0526 0.82702-1.9172 1.8044-1.9172 0.97739 0 1.7668 0.86461 1.7668 1.9172 0 1.015-0.78943 1.8796-1.7668 1.8796-0.97738 0-1.8044-0.86461-1.8044-1.8796" fill-rule="evenodd"/>
   <path id="path3208" stroke-linejoin="round" d="m687.78 419c-0.0376-0.0752-0.0376-0.15037 0-0.26314l0.0376-0.37592c0-0.0752 0-0.15037 0.0376-0.22555l0.11278-0.33833c0-0.0752 0.0376-0.15037 0.0752-0.22555l0.15037-0.30074c0.0376-0.0752 0.0752-0.15036 0.11278-0.22555l0.22555-0.26314c0.0376-0.0752 0.11277-0.11277 0.15036-0.18796l0.26315-0.22555c0.0752-0.0752 0.15036-0.11277 0.22555-0.15037l0.30073-0.18796c0.0752-0.0376 0.15037-0.0376 0.22555-0.0752l0.33-0.09c0.0752-0.0376 0.18796-0.0376 0.26314-0.0752l0.33833-0.0376h0.26314l0.37592 0.0376c0.0752 0.0376 0.18796 0.0376 0.26314 0.0752l0.33833 0.11277c0.0752 0.0376 0.15036 0.0376 0.22555 0.0752l0.30073 0.18796c0.0752 0.0376 0.15037 0.0752 0.22555 0.15037l0.26315 0.22555c0.0376 0.0752 0.0752 0.11278 0.11277 0.15037l0.22555 0.30073c0.0752 0.0752 0.11278 0.15037 0.15037 0.22555l0.18796 0.30074c0 0.0752 0.0376 0.15037 0.0752 0.22555l0.0752 0.33833c0.0376 0.0752 0.0376 0.15036 0.0752 0.22555l0.0376 0.37592v0.26314l-0.0376 0.37592c-0.0376 0.0752-0.0376 0.15036-0.0752 0.22555l-0.0752 0.37591c-0.0376 0.0752-0.0752 0.11278-0.0752 0.18796l-0.18796 0.33833c-0.0376 0.0752-0.0752 0.15037-0.15037 0.22555l-0.22555 0.26314c-0.0376 0.0376-0.0752 0.11278-0.11277 0.15037l-0.26315 0.22555c-0.0752 0.0752-0.15036 0.11278-0.22555 0.18796l-0.30073 0.15037c-0.0752 0.0376-0.15037 0.0752-0.22555 0.11277l-0.33833 0.11278c-0.0752 0-0.18796 0.0376-0.26314 0.0376l-0.37592 0.0376h-0.26314l-0.33833-0.0376c-0.0752 0-0.18796-0.0376-0.26314-0.0376l-0.33833-0.11278c-0.0752-0.0376-0.15037-0.0752-0.22555-0.11277l-0.30073-0.15037c-0.0752-0.0752-0.15037-0.11277-0.22555-0.18796l-0.26315-0.22555c-0.0376-0.0376-0.11277-0.11277-0.15036-0.18796l-0.22555-0.26314c-0.0376-0.0752-0.0752-0.11278-0.11278-0.18796l-0.15037-0.33833c-0.0376-0.0752-0.0752-0.11277-0.0752-0.18796l-0.11278-0.37591c-0.0376-0.0752-0.0376-0.15037-0.0376-0.22555zm2.5186 0.15036-0.0376-0.26314 0.0752 0.37592-0.0752-0.22555 0.18796 0.33833-0.15037-0.22556 0.22555 0.30074-0.15037-0.18796 0.26315 0.26314-0.22555-0.18796 0.30073 0.18796-0.22555-0.11277 0.33833 0.11277-0.26315-0.0376 0.33833 0.0376h-0.26314l0.37592-0.0376-0.26315 0.0376 0.33833-0.11277-0.22555 0.11277 0.30073-0.18796-0.22555 0.18796 0.26314-0.26314-0.15036 0.15037 0.22555-0.26315-0.11278 0.22556 0.15037-0.33833-0.0752 0.22555 0.11277-0.37592-0.0752 0.26314 0.0376-0.4135v0.26314l-0.0376-0.37592 0.0752 0.22555-0.11277-0.33833 0.0752 0.18796-0.15037-0.30073 0.11278 0.22555-0.22555-0.30073 0.15036 0.15036-0.26314-0.22555 0.22555 0.15037-0.30073-0.15037 0.22555 0.0752-0.33833-0.11278 0.26315 0.0752-0.37592-0.0376h0.26314l-0.33833 0.0376 0.26315-0.0752-0.33833 0.11278 0.22555-0.0752-0.30073 0.15037 0.22555-0.15037-0.26315 0.22555 0.15037-0.18796-0.22555 0.30074 0.15037-0.18796-0.18796 0.30073 0.0752-0.18796-0.0752 0.33833 0.0376-0.22555-0.0376 0.37592v-0.26314z" stroke="#000" stroke-width=".037592px"/>
   <path id="path3210" stroke-linejoin="round" d="m764.85 360.32v178.87h-1.2404v-178.87h1.2404zm3.1574 177.53-3.7588 7.8485-3.7588-7.8485h7.5176z" stroke="#000" stroke-width=".038406px"/>
   <path id="path3212" stroke-linejoin="round" d="m769.02 480.19-10.112 7.4432 0.56388 0.78942 10.112-7.4808z" stroke="#000" stroke-width=".037592px"/>
   <text id="text3214" xml:space="preserve" font-size="10.075px" y="482.07608" x="749.06525" font-family="Arial" fill="#000000">51</text>
   <path id="path3216" stroke-linejoin="round" d="m485.68 494.29c0-0.33833 0.28194-0.62027 0.62026-0.62027h54.452c0.35712 0 0.63906 0.28194 0.63906 0.62027v24.867c0 0.35712-0.28194 0.62026-0.63906 0.62026h-54.452c-0.33832 0-0.62026-0.26314-0.62026-0.62026zm1.2593 24.867-0.63907-0.62027h54.452l-0.62027 0.62027v-24.867l0.62027 0.62026h-54.452l0.63907-0.62026z" stroke="#000" stroke-width=".018796px"/>
   <text id="text3218" font-size="12.5px" line-height="125%" y="515.04352" x="498.46045" font-family="Arial" xml:space="preserve" fill="#000000">MUX</text>
   <path id="path3220" stroke-linejoin="round" d="m474.81 505.93h11.353v0.9398h-11.353z" stroke="#000" stroke-width=".018796px"/>
   <text id="text3222" xml:space="preserve" font-size="10.075px" y="510.03491" x="455.46805" font-family="Arial" fill="#000000">MR</text>
   <text id="text3224" font-size="12.48px" line-height="125%" y="560.34613" x="732.03748" font-family="Arial" xml:space="preserve" fill="#000000"><tspan id="tspan4437" y="560.34613" x="732.03748">Rest of CPU</tspan></text>
   <text id="text3228" xml:space="preserve" font-size="12.48px" y="574.60303" x="727.80066" font-family="Arial" fill="#000000">control </text>
   <text id="text3230" xml:space="preserve" font-size="12.48px" y="574.04254" x="768.30054" font-family="Arial" fill="#000000">signals</text>
   <path id="path3232" stroke-linejoin="round" d="m666.47 405.54v-45.223h-0.9398v45.223z" stroke="#000" stroke-width=".037592px"/>
   <path id="path3234" stroke-linejoin="round" d="m513.93 519.84v11.484h-1.2405v-11.484h1.2405zm3.1389 10.225-3.7592 7.5184-3.7592-7.5184h7.5184z" stroke="#000" stroke-width=".018796px"/>
   <path id="path3236" stroke-linejoin="round" d="m584.57 494.18c0-0.33832 0.26314-0.63906 0.60147-0.63906h54.471c0.33833 0 0.60147 0.30074 0.60147 0.63906v24.886c0 0.33833-0.26314 0.60147-0.60147 0.60147h-54.471c-0.33833 0-0.60147-0.26314-0.60147-0.60147zm1.2405 24.886-0.63906-0.63906h54.471l-0.63906 0.63906v-24.886l0.63906 0.63906h-54.471l0.63906-0.63906z" stroke="#000" stroke-width=".037592px"/>
   <text id="text3238" font-size="12.5px" line-height="125%" y="515.55011" x="597.32666" font-family="Arial" xml:space="preserve" fill="#000000">MUX</text>
   <path id="path3240" stroke-linejoin="round" d="m573.69 505.82h11.334v0.93979h-11.334z" stroke="#000" stroke-width=".018796px"/>
   <text id="text3242" xml:space="preserve" font-size="10.075px" y="509.91504" x="556.33441" font-family="Arial" fill="#000000">MR</text>
   <path id="path3244" stroke-linejoin="round" d="m612.8 519.71v11.503h-1.2405v-11.503h1.2405zm3.1201 10.263-3.7592 7.5184-3.7592-7.5184h7.5184z" stroke="#000" stroke-width=".037592px"/>
   <path id="path3246" stroke-linejoin="round" d="m679.62 494.78c0-0.33832 0.26314-0.63906 0.60147-0.63906h54.471c0.33832 0 0.63906 0.30074 0.63906 0.63906v24.886c0 0.33832-0.30074 0.60147-0.63906 0.60147h-54.471c-0.33833 0-0.60147-0.26315-0.60147-0.60147zm1.2405 24.886-0.63906-0.63906h54.471l-0.63906 0.63906v-24.886l0.63906 0.63906h-54.471l0.63906-0.63906z" stroke="#000" stroke-width=".037592px"/>
   <text id="text3248" font-size="12.5px" line-height="125%" y="516.15204" x="692.38062" font-family="Arial" xml:space="preserve" fill="#000000">MUX</text>
   <text id="text3250" xml:space="preserve" font-size="8.7213px" y="504.43109" x="688.47125" font-family="Arial" fill="#000000">0         1</text>
   <path id="path3252" stroke-linejoin="round" d="m668.76 506.44h11.315v0.9398h-11.315z" stroke="#000" stroke-width=".037592px"/>
   <text id="text3254" xml:space="preserve" font-size="10.075px" y="510.51685" x="650.23981" font-family="Arial" fill="#000000">MR</text>
   <path id="path3256" stroke-linejoin="round" d="m707.85 520.31v11.503h-1.2405v-11.503h1.2405zm3.1577 10.263-3.7592 7.5184-3.7592-7.5184h7.5184z" stroke="#000" stroke-width=".037592px"/>
   <path id="path3258" stroke-linejoin="round" d="m526.81 467.79h29.675v0.93638h-29.675z" stroke="#000" stroke-width=".022216px"/>
   <path id="path3260" stroke-linejoin="round" d="m556.41 467.7 0.905-109.92-1.1036-0.0188-0.90498 109.94z" stroke="#000" stroke-width=".020368px"/>
   <path id="path3262" d="m644.92 447.68c0-1.0526 0.78943-1.8796 1.8044-1.8796 0.97738 0 1.7668 0.82702 1.7668 1.8796s-0.78943 1.8796-1.7668 1.8796c-1.015 0-1.8044-0.82702-1.8044-1.8796" fill-rule="evenodd"/>
   <path id="path3264" stroke-linejoin="round" d="m645.38 447.79v-0.22555l0.0376-0.41351c0-0.0752 0.0376-0.15036 0.0376-0.22555l0.11278-0.33832c0.0376-0.0752 0.0376-0.15037 0.0752-0.18796l0.15037-0.33833c0.0376-0.0752 0.11277-0.15037 0.15037-0.22555l0.22555-0.26314c0.0376-0.0752 0.11277-0.11278 0.15036-0.15037l0.26315-0.26314c0.0752-0.0376 0.15036-0.11278 0.22555-0.15037l0.30073-0.15037c0.0752-0.0376 0.15037-0.0752 0.22555-0.11277l0.33833-0.11278c0.0752-0.0376 0.15037-0.0376 0.26314-0.0376l0.33833-0.0376c0.11277-0.0376 0.18796-0.0376 0.26314 0l0.37592 0.0376c0.0752 0 0.18796 0 0.26314 0.0376l0.33833 0.11278c0.0752 0.0376 0.11277 0.0752 0.18796 0.0752l0.30073 0.18796c0.0752 0.0376 0.18796 0.11278 0.22555 0.15037l0.26315 0.26314c0.0752 0.0376 0.11277 0.11278 0.18795 0.15037l0.18796 0.30073c0.0752 0.0376 0.11278 0.11278 0.15037 0.18796l0.15037 0.33833c0.0376 0.0376 0.0752 0.11277 0.0752 0.18796l0.11278 0.33832c0.0376 0.0752 0.0376 0.15037 0.0376 0.22555l0.0376 0.41351v0.22555l-0.0376 0.37592c0 0.11278 0 0.18796-0.0376 0.26314l-0.11278 0.33833c0 0.0752-0.0376 0.15037-0.0752 0.18796l-0.15037 0.33833c-0.0376 0.0752-0.0752 0.15036-0.15037 0.18796l-0.18796 0.30073c-0.0752 0.0376-0.11277 0.11277-0.18795 0.15037l-0.26315 0.26314c-0.0376 0.0376-0.15036 0.11277-0.22555 0.15037l-0.30073 0.15036c-0.0752 0.0376-0.11278 0.0752-0.18796 0.11278l-0.33833 0.11277c-0.0752 0.0376-0.18796 0.0376-0.26314 0.0376l-0.37592 0.0376c-0.0752 0.0376-0.15037 0.0376-0.26314 0l-0.33833-0.0376c-0.11277 0-0.18796 0-0.26314-0.0376l-0.33833-0.11277c-0.0752-0.0376-0.15036-0.0752-0.22555-0.11278l-0.30073-0.15036c-0.0752-0.0376-0.15037-0.11278-0.22555-0.15037l-0.26315-0.26314c-0.0376-0.0376-0.11277-0.0752-0.15036-0.15037l-0.22555-0.26314c-0.0376-0.0752-0.11278-0.15037-0.15037-0.22555l-0.15037-0.33833c-0.0376-0.0376-0.0376-0.11278-0.0752-0.18796l-0.11278-0.33833c0-0.0752-0.0376-0.15036-0.0376-0.26314zm2.5186 0.15037-0.0376-0.22555 0.11277 0.33833-0.0752-0.18796 0.15037 0.30073-0.15037-0.22555 0.22555 0.30074-0.15037-0.15037 0.26315 0.22555-0.18796-0.15037 0.30073 0.15037-0.22555-0.0752 0.33833 0.11277-0.26315-0.0752 0.33833 0.0376h-0.26314l0.37592-0.0376-0.30074 0.0752 0.33833-0.11277-0.18796 0.0752 0.30073-0.18796-0.22555 0.18796 0.26315-0.22555-0.15037 0.15037 0.22555-0.26315-0.15037 0.18796 0.15037-0.30073-0.0752 0.18796 0.11277-0.33833-0.0376 0.22555 0.0376-0.37592v0.22555l-0.0376-0.37591 0.0376 0.22555-0.11277-0.33833 0.0752 0.18796-0.15037-0.30074 0.15037 0.18796-0.22555-0.26314 0.15037 0.15037-0.26315-0.22555 0.22555 0.15036-0.30073-0.15036 0.18796 0.0752-0.33833-0.11277 0.30074 0.0752-0.37592-0.0376h0.26314l-0.33833 0.0376 0.26315-0.0752-0.33833 0.11277 0.22555-0.0752-0.30073 0.15036 0.18796-0.15036-0.26315 0.22555 0.15037-0.15037-0.22555 0.30074 0.15037-0.22556-0.15037 0.30074 0.0752-0.18796-0.11277 0.33833 0.0376-0.22555-0.0376 0.37591v-0.22555z" stroke="#000" stroke-width=".037592px"/>
   <path id="path3266" d="m554.44 448.02c0-1.0338 0.80823-1.8796 1.7856-1.8796 0.99618 0 1.7856 0.84582 1.7856 1.8796 0 1.0526-0.78943 1.8984-1.7856 1.8984-0.97739 0-1.7856-0.84582-1.7856-1.8984" fill-rule="evenodd"/>
   <path id="path3268" stroke-linejoin="round" d="m553.2 448.15v-0.24434l0.0376-0.39472c0.0188-0.0752 0.0188-0.15037 0.0564-0.22555l0.094-0.35712c0.0188-0.0564 0.0564-0.13157 0.0752-0.18796l0.16916-0.31953c0.0376-0.094 0.0752-0.16916 0.13157-0.22555l0.22555-0.28194c0.0564-0.0564 0.094-0.11278 0.15037-0.15037l0.26314-0.24434c0.0752-0.0564 0.15037-0.11278 0.22555-0.15037l0.30074-0.16916c0.0564-0.0376 0.13157-0.0752 0.20675-0.094l0.33833-0.11278c0.094-0.0376 0.18796-0.0564 0.26314-0.0564l0.35712-0.0376c0.094-0.0188 0.18796-0.0188 0.26315 0l0.35712 0.0376c0.094 0 0.18796 0.0188 0.28194 0.0564l0.33832 0.11278c0.0752 0.0188 0.13158 0.0564 0.20676 0.094l0.30073 0.16916c0.0752 0.0376 0.15037 0.094 0.22555 0.15037l0.26315 0.24434c0.0564 0.0376 0.094 0.094 0.15036 0.15037l0.22555 0.28194c0.0376 0.0564 0.094 0.13157 0.13158 0.22555l0.16916 0.31953c0.0188 0.0564 0.0564 0.13157 0.0752 0.18796l0.094 0.35712c0.0376 0.0752 0.0376 0.15037 0.0564 0.22555l0.0376 0.39472v0.24434l-0.0376 0.37592c-0.0188 0.094-0.0188 0.16916-0.0564 0.22555l-0.094 0.35712c-0.0188 0.0752-0.0564 0.15037-0.0752 0.22555l-0.16916 0.31953c-0.0376 0.0752-0.094 0.15037-0.13158 0.22556l-0.22555 0.28193c-0.0564 0.0564-0.094 0.094-0.15036 0.15037l-0.26315 0.22555c-0.0752 0.0564-0.15036 0.11278-0.22555 0.16917l-0.30073 0.16916c-0.0752 0.0376-0.13157 0.0564-0.20676 0.094l-0.33832 0.11277c-0.094 0.0188-0.18796 0.0376-0.28194 0.0564l-0.35712 0.0376h-0.26315l-0.35712-0.0376c-0.0752-0.0188-0.16916-0.0376-0.26314-0.0564l-0.33833-0.11277c-0.0752-0.0376-0.15036-0.0564-0.20675-0.094l-0.30074-0.16916c-0.0752-0.0564-0.15036-0.11278-0.22555-0.16917l-0.26314-0.22555-0.15037-0.15037-0.22555-0.28193c-0.0564-0.0752-0.094-0.15037-0.13157-0.22556l-0.16916-0.31953c-0.0188-0.0752-0.0564-0.15036-0.0752-0.22555l-0.11277-0.35712c-0.0188-0.0564-0.0188-0.13157-0.0376-0.22555zm2.5374 0.13157-0.0376-0.22555 0.094 0.35713-0.0752-0.20676 0.15036 0.31953-0.13157-0.22555 0.22555 0.28194-0.15036-0.15037 0.26314 0.24435-0.22555-0.16917 0.30073 0.16917-0.20675-0.094 0.33832 0.11277-0.28194-0.0564 0.35713 0.0376h-0.26315l0.35713-0.0376-0.26315 0.0564 0.33833-0.11277-0.20676 0.094 0.30074-0.16917-0.22555 0.16917 0.26314-0.24435-0.15037 0.15037 0.22555-0.28194-0.13157 0.22555 0.15037-0.31953-0.0752 0.20676 0.094-0.35713-0.0376 0.22555 0.0376-0.37591v0.24434l-0.0376-0.39471 0.0564 0.24435-0.11277-0.35713 0.0752 0.20676-0.15037-0.31953 0.13157 0.22555-0.22555-0.28194 0.15037 0.15037-0.26314-0.22555 0.22555 0.15036-0.30074-0.16916 0.20676 0.094-0.33833-0.11278 0.26315 0.0564-0.35713-0.0376h0.26315l-0.35713 0.0376 0.28194-0.0564-0.33832 0.11278 0.20675-0.094-0.30073 0.16916 0.22555-0.15036-0.26314 0.22555 0.15036-0.15037-0.22555 0.28194 0.13157-0.22555-0.15036 0.31953 0.0752-0.20676-0.11278 0.35713 0.0564-0.24435-0.0376 0.39471v-0.24434z" stroke="#000" stroke-width=".018796px"/>
   <path id="path3270" stroke-linejoin="round" d="m527.56 468.6v18.941h-1.2405v-18.941h1.2405zm3.1389 17.607-3.7592 7.9668-3.7592-7.9668h7.5184z" stroke="#000" stroke-width=".019348px"/>
   <path id="path3272" stroke-linejoin="round" d="m532.14 474.6-10.112 7.462 0.54508 0.75184 10.112-7.462z" stroke="#000" stroke-width=".018796px"/>
   <text id="text3274" xml:space="preserve" font-size="10.075px" y="478.8407" x="517.18701" font-family="Arial" fill="#000000">5</text>
   <path id="path3276" stroke-linejoin="round" d="m645.44 447.4-9.7393-0.17906-0.0236 1.2409 9.7768 0.18091-0.014-1.2427zm-8.4574-3.2774-7.5553 3.6171 7.4479 3.9051 0.1074-7.5222z" stroke="#000" stroke-width=".037592px"/>
   <path id="path3278" stroke-linejoin="round" d="m648.74 469.78v-65.786h-0.93979v65.786z" stroke="#000" stroke-width=".037592px"/>
   <path id="path3280" stroke-linejoin="round" d="m624.71 468.84h23.579v0.93853h-23.579z" stroke="#000" stroke-width=".039408px"/>
   <path id="path3282" stroke-linejoin="round" d="m625.85 469.22v17.856h-1.2405v-17.856h1.2405zm3.1577 16.616-3.7592 7.5184-3.7592-7.5184h7.5184z" stroke="#000" stroke-width=".037592px"/>
   <path id="path3284" stroke-linejoin="round" d="m630.43 474.48-10.112 7.4808 0.56387 0.75183 10.112-7.4808z" stroke="#000" stroke-width=".037592px"/>
   <text id="text3286" xml:space="preserve" font-size="10.075px" y="477.4184" x="615.06848" font-family="Arial" fill="#000000">5</text>
   <path id="path3288" stroke-linejoin="round" d="m665.94 405.88h72.251v0.93979h-72.251z" stroke="#000" stroke-width=".037592px"/>
   <path id="path3290" stroke-linejoin="round" d="m738.76 450.03-9.6116 0.13266 0.003-1.2456 9.6083-0.1701 0.00022 1.2831zm-8.2817 3.2229-7.6044-3.6299 7.4699-3.8681 0.13451 7.498z" stroke="#000" stroke-width=".037592px"/>
   <path id="path3292" stroke-linejoin="round" d="m738.75 468.88v-62.553h-0.93979v62.553z" stroke="#000" stroke-width=".037592px"/>
   <path id="path3294" stroke-linejoin="round" d="m718.1 469.11h20.537v0.93979h-20.537z" stroke="#000" stroke-width=".038274px"/>
   <path id="path3296" stroke-linejoin="round" d="m723.72 475.96-10.112 7.4808 0.56388 0.75184 10.112-7.4432z" stroke="#000" stroke-width=".037592px"/>
   <text id="text3298" xml:space="preserve" font-size="10.075px" y="478.2706" x="708.54382" font-family="Arial" fill="#000000">5</text>
   <path id="path3300" stroke-linejoin="round" d="m719.36 470.05v17.894h-1.2405v-17.894h1.2405zm3.1201 16.616-3.7592 7.5184-3.7592-7.5184h7.5184z" stroke="#000" stroke-width=".037592px"/>
   <path id="path3302" stroke-linejoin="round" d="m804.63 494.9c0-0.33833 0.30073-0.63906 0.63906-0.63906h54.433c0.37591 0 0.63906 0.30073 0.63906 0.63906v24.886c0 0.33833-0.26315 0.60147-0.63906 0.60147h-54.433c-0.33833 0-0.63906-0.26314-0.63906-0.60147zm1.2405 24.886-0.60147-0.63906h54.433l-0.60147 0.63906v-24.886l0.60147 0.63906h-54.433l0.60147-0.63906z" stroke="#000" stroke-width=".037592px"/>
   <text id="text3304" font-size="12.5px" line-height="125%" y="516.26318" x="817.40741" font-family="Arial" xml:space="preserve" fill="#000000">MUX</text>
   <path id="path3306" stroke-linejoin="round" d="m793.77 506.51h11.353v0.93979h-11.353z" stroke="#000" stroke-width=".037592px"/>
   <path id="path3308" stroke-linejoin="round" d="m832.9 520.42v11.503h-1.2781v-11.503h1.2781zm3.1201 10.263-3.7592 7.5184-3.7592-7.5184h7.5184z" stroke="#000" stroke-width=".037592px"/>
   <path id="path3310" stroke-linejoin="round" d="m811.57 331.9c0-0.33824 0.36983-0.6389 0.84533-0.6389h49.927c0.4755 0 0.89815 0.30066 0.89815 0.6389v26.195c0 0.33824-0.42265 0.6389-0.89815 0.6389h-49.927c-0.4755 0-0.84533-0.30066-0.84533-0.6389zm1.281 26.239-0.43571-0.68328h49.927l-0.84533 0.63888v-26.195l0.84533 0.63888h-49.927l0.47775-0.55008z" stroke="#000" stroke-width=".044560px"/>
   <text id="text3312" font-size="13.75px" line-height="125%" y="349.42462" x="815.36597" font-family="Arial" xml:space="preserve" fill="#000000">SelCop</text>
   <path id="path3314" d="m737.25 449.57c0-1.0526 0.78942-1.9172 1.8044-1.9172 0.97739 0 1.7668 0.86461 1.7668 1.9172s-0.78943 1.8796-1.7668 1.8796c-1.015 0-1.8044-0.82702-1.8044-1.8796" fill-rule="evenodd"/>
   <path id="path3316" stroke-linejoin="round" d="m735.41 449.38v-0.22555l0.0376-0.41351c0-0.0752 0.0376-0.15037 0.0376-0.22555l0.11277-0.33833c0.0376-0.0752 0.0376-0.15037 0.0752-0.22555l0.18796-0.30074c0.0376-0.0752 0.0752-0.15036 0.11277-0.22555l0.22555-0.26314c0.0376-0.0752 0.0752-0.11277 0.15037-0.18796l0.26314-0.22555c0.0752-0.0752 0.15037-0.11277 0.22555-0.15037l0.30074-0.18796c0.0752-0.0376 0.15037-0.0376 0.22555-0.0752l0.33833-0.11277c0.0752-0.0376 0.15036-0.0376 0.26314-0.0752l0.33832-0.0376h0.26315l0.37592 0.0376c0.0752 0.0376 0.15036 0.0376 0.26314 0.0752l0.33832 0.11277c0.0752 0.0376 0.15037 0.0376 0.22556 0.0752l0.30073 0.18796c0.0752 0.0376 0.15037 0.0752 0.18796 0.15037l0.26314 0.22555 0.15037 0.15037 0.22555 0.30073c0.0752 0.0752 0.11277 0.15037 0.15037 0.22555l0.15036 0.30074c0.0376 0.0752 0.0752 0.15037 0.0752 0.22555l0.11277 0.33833c0.0376 0.0752 0.0376 0.15036 0.0376 0.22555l0.0376 0.41351c0.0376 0.0752 0.0376 0.15036 0 0.22555l-0.0376 0.37592c0 0.11277 0 0.18795-0.0376 0.26314l-0.11277 0.33832c0 0.0752-0.0376 0.15037-0.0752 0.18796l-0.15036 0.33833c-0.0376 0.0752-0.0752 0.15037-0.15037 0.22555l-0.22555 0.26314c-0.0376 0.0752-0.0752 0.11278-0.15037 0.15037l-0.26314 0.26314c-0.0376 0.0376-0.11278 0.11278-0.18796 0.15037l-0.30073 0.15037c-0.0752 0.0376-0.15037 0.0752-0.22556 0.11277l-0.33832 0.11278c-0.11278 0.0376-0.18796 0.0376-0.26314 0.0376l-0.37592 0.0376c-0.0752 0.0376-0.15037 0.0376-0.26315 0l-0.33832-0.0376c-0.11278 0-0.18796 0-0.26314-0.0376l-0.33833-0.11278c-0.0752-0.0376-0.15037-0.0752-0.22555-0.11277l-0.30074-0.15037c-0.0752-0.0376-0.15036-0.11277-0.22555-0.15037l-0.26314-0.26314c-0.0752-0.0376-0.11277-0.11277-0.15037-0.15037l-0.22555-0.30073c-0.0376-0.0376-0.0752-0.11278-0.11277-0.18796l-0.18796-0.33833c0-0.0376-0.0376-0.11277-0.0752-0.18796l-0.0752-0.33832c-0.0376-0.0752-0.0752-0.15037-0.0752-0.26314zm2.5562 0.15036-0.0752-0.22555 0.11278 0.33833-0.0752-0.18796 0.15036 0.30074-0.11277-0.18796 0.22555 0.26314-0.18796-0.15037 0.26314 0.22555-0.18796-0.15036 0.30074 0.15036-0.22555-0.0752 0.33832 0.11277-0.26314-0.0752 0.33833 0.0376h-0.26315l0.37592-0.0376-0.26314 0.0752 0.33833-0.11277-0.22555 0.0752 0.30073-0.15036-0.22555 0.15036 0.26314-0.22555-0.15037 0.15037 0.22556-0.30074-0.15037 0.22556 0.18796-0.30074-0.0752 0.18796 0.0752-0.33833-0.0376 0.22555 0.0376-0.37591v0.22555l-0.0376-0.37592 0.0376 0.22555-0.11278-0.37592 0.11278 0.22555-0.18796-0.30073 0.15037 0.22555-0.22556-0.30073 0.15037 0.15036-0.26314-0.22555 0.22555 0.15037-0.30073-0.15037 0.22555 0.0752-0.33833-0.11278 0.26314 0.0752-0.37592-0.0376h0.26315l-0.33833 0.0376 0.26314-0.0752-0.33832 0.11278 0.22555-0.0752-0.30074 0.15037 0.18796-0.15037-0.26314 0.22555 0.18796-0.18796-0.22555 0.30074 0.11277-0.18796-0.15036 0.30073 0.0752-0.22555-0.11278 0.37592 0.0752-0.22555-0.0376 0.37592v-0.22555z" stroke="#000" stroke-width=".037592px"/>
   <path id="path3318" stroke-linejoin="round" d="m844.54 358.09 0.2596 130.26-1.2405-0.01-0.2596-130.26 1.2405 0.01zm3.3905 128.94-3.7464 7.6794-3.7723-7.6636 7.5187-0.0158z" stroke="#000" stroke-width=".037972px"/>
   <path id="path3320" stroke-linejoin="round" d="m817.86 417.48 0.37592 72.622h-1.2405l-0.41351-72.585 1.2781-0.0371zm3.496 71.362-3.7216 7.4104-3.7968-7.3734 7.5184-0.0371z" stroke="#000" stroke-width=".037321px"/>
   <text id="text3322" xml:space="preserve" font-size="10.075px" y="509.76801" x="776.33685" font-family="Arial" fill="#000000">MC</text>
   <path id="path3324" stroke-linejoin="round" d="m848.95 451.57-10.112 7.4808 0.56388 0.75184 10.112-7.4432z" stroke="#000" stroke-width=".037592px"/>
   <path id="path3326" stroke-linejoin="round" d="m823.32 451.43-10.112 7.4432 0.52629 0.78943 10.112-7.4808z" stroke="#000" stroke-width=".037592px"/>
   <text id="text3328" transform="matrix(-.071745 -1.0534 .94442 -.071745 0 0)" xml:space="preserve" line-height="125%" font-size="10.075px" y="823.12659" x="-515.54352" font-family="Arial" fill="#000000"><tspan id="tspan4439" y="823.12659" x="-515.54352">IR3 -- IR0</tspan></text>
   <text id="text3330" xml:space="preserve" font-size="10.075px" y="455.65173" x="834.00043" font-family="Arial" fill="#000000">4</text>
   <text id="text3332" xml:space="preserve" font-size="10.075px" y="477.96909" x="488.5282" font-family="Arial" fill="#000000">5</text>
   <text id="text3334" xml:space="preserve" font-size="10.075px" y="477.47241" x="588.43536" font-family="Arial" fill="#000000">5</text>
   <text id="text3336" xml:space="preserve" font-size="10.075px" y="477.36371" x="679.67584" font-family="Arial" fill="#000000">5</text>
   <text id="text3338" xml:space="preserve" font-size="8.7213px" y="503.43542" x="495.63297" font-family="Arial" fill="#000000">0</text>
   <text id="text3340" xml:space="preserve" font-size="8.7213px" y="503.64886" x="522.23572" font-family="Arial" fill="#000000">1</text>
   <text id="text3342" xml:space="preserve" font-size="12.48px" y="552.10724" x="603.23444" font-family="Arial" fill="#000000">RB</text>
   <text id="text3344" xml:space="preserve" font-size="12.48px" y="552.10724" x="699.29913" font-family="Arial" fill="#000000">RE</text>
   <text id="text3346" xml:space="preserve" font-size="12.48px" y="552.10724" x="502.5755" font-family="Arial" fill="#000000">RA</text>
   <text id="text3348" xml:space="preserve" font-size="12.48px" y="551.27692" x="821.38934" font-family="Arial" fill="#000000">Cop</text>
   <text id="text3350" xml:space="preserve" font-size="8.7213px" y="503.43542" x="596.27618" font-family="Arial" fill="#000000">0</text>
   <text id="text3352" xml:space="preserve" font-size="8.7213px" y="503.64886" x="622.87897" font-family="Arial" fill="#000000">1</text>
   <text id="text3354" xml:space="preserve" font-size="8.7213px" y="503.95343" x="816.67743" font-family="Arial" fill="#000000">0</text>
   <text id="text3356" xml:space="preserve" font-size="8.7213px" y="503.59747" x="841.65619" font-family="Arial" fill="#000000">1</text>
   <text id="text3358" font-size="10px" line-height="125%" y="239.4165" x="347.59879" font-family="Arial" xml:space="preserve" fill="#000000">A1</text>
   <text id="text3362" xml:space="preserve" font-size="15.037px" y="333.76837" x="317.69339" font-family="Arial" fill="#000000">MUX B</text>
   <path id="path3364" stroke-linejoin="round" d="m302.86 353.53c0 0.35713 0.24924 0.63907 0.58749 0.63907h74.023c0.32044 0 0.58748-0.28194 0.58748-0.63907v-39.979c0-0.33833-0.26704-0.62027-0.58748-0.62027h-74.023c-0.33825 0-0.58749 0.28194-0.58749 0.62027zm1.175-39.979-0.58748 0.62026h74.023l-0.58749-0.62026v39.979l0.58749-0.62026h-74.023l0.58748 0.62026z" stroke="#000" stroke-width=".018292px"/>
   <text id="text3366" xml:space="preserve" font-size="8.7213px" y="348.01566" x="323.70255" font-family="Arial" fill="#000000">0</text>
   <text id="text3368" xml:space="preserve" font-size="8.7213px" y="348.2291" x="350.30533" font-family="Arial" fill="#000000">1</text>
   <path id="path3477" stroke-linejoin="round" d="m326.05 439.94v-80.127h-1.2593v80.127h1.2593zm3.1389-78.868-3.7592-7.5184-3.7592 7.5184h7.5184z" stroke="#000" stroke-width=".018796px"/>
   <path id="path3370" stroke-linejoin="round" d="m326.05 439.94v-80.127h-1.2593v80.127h1.2593zm3.1389-78.868-3.7592-7.5184-3.7592 7.5184h7.5184z" stroke="#000" stroke-width=".018796px"/>
   <path id="path3372" stroke-linejoin="round" d="m354.2 371.67v-11.503h-1.2593v11.503h1.2593zm3.1201-10.244-3.7592-7.5184-3.7592 7.5184h7.5184z" stroke="#000" stroke-width=".018796px"/>
   <text id="text3374" font-size="10px" line-height="125%" y="119.31601" x="290.03931" font-family="Arial" xml:space="preserve" fill="#000000">00</text>
   <text id="text3376" font-size="10px" line-height="125%" y="152.28555" x="290.03931" font-family="Arial" xml:space="preserve" fill="#000000">01</text>
   <text id="text3378" font-size="10px" line-height="125%" y="187.01254" x="290.03931" font-family="Arial" xml:space="preserve" fill="#000000">10</text>
   <text id="text3380" font-size="10px" line-height="125%" y="221.33308" x="290.03931" font-family="Arial" xml:space="preserve" fill="#000000">11</text>
   <path id="path3382" d="m346.55 391.22 7.1048-14.21 7.1048 14.21z" fill-rule="evenodd" fill="#fff"/>
   <path id="path3384" stroke-linejoin="round" d="m346.55 391.69c-0.16917 0-0.31953-0.094-0.41351-0.22555-0.0752-0.15037-0.094-0.31953-0.0188-0.4511l7.1048-14.21c0.0752-0.16916 0.24435-0.26314 0.43231-0.26314 0.16916 0 0.33832 0.094 0.41351 0.26314l7.1048 14.21c0.0752 0.13157 0.0564 0.30073-0.0188 0.4511-0.094 0.13157-0.24434 0.22555-0.39471 0.22555zm14.21-0.9398-0.43231 0.67666-7.1048-14.21h0.84582l-7.1048 14.21-0.41351-0.67666z" stroke="#000" stroke-width=".018796px"/>
   <path id="path3386" d="m349.99 373.94c0-1.9548 1.5976-3.5524 3.5524-3.5524 1.9736 0 3.5524 1.5976 3.5524 3.5524s-1.5789 3.5524-3.5524 3.5524c-1.9548 0-3.5524-1.5976-3.5524-3.5524" fill-rule="evenodd" fill="#fff"/>
   <path id="path3388" stroke-linejoin="round" d="m349.54 374c-0.0188-0.0376-0.0188-0.0752 0-0.11277l0.0752-0.71425c0-0.0188 0-0.0564 0.0188-0.0752l0.20675-0.67665c0-0.0188 0.0188-0.0564 0.0188-0.0752l0.31953-0.60146c0.0188-0.0376 0.0376-0.0564 0.0564-0.094l0.45111-0.52629 0.0564-0.0564 0.52629-0.4323c0.0188-0.0188 0.0564-0.0376 0.0752-0.0376l0.60147-0.33833c0.0188-0.0188 0.0564-0.0188 0.094-0.0376l0.65786-0.20676c0.0376 0 0.0564-0.0188 0.094-0.0188l0.71424-0.0752h0.094l0.71425 0.0752c0.0376 0 0.0564 0.0188 0.094 0.0188l0.65786 0.20676c0.0376 0.0188 0.0564 0.0188 0.094 0.0376l0.60147 0.33833c0.0188 0 0.0564 0.0188 0.0752 0.0376l0.52629 0.4323 0.0564 0.0564 0.4511 0.52629c0.0188 0.0376 0.0376 0.0564 0.0564 0.094l0.31953 0.60146c0 0.0188 0.0188 0.0564 0.0188 0.0752l0.20676 0.67665c0.0188 0.0188 0.0188 0.0564 0.0188 0.0752l0.0752 0.71425c0.0188 0.0376 0.0188 0.0752 0 0.11277l-0.0752 0.71425c0 0.0188 0 0.0564-0.0188 0.0752l-0.20676 0.67665c0 0.0188-0.0188 0.0564-0.0188 0.0752l-0.31953 0.60147c-0.0188 0.0376-0.0376 0.0564-0.0564 0.094l-0.4511 0.52628-0.0564 0.0564-0.52629 0.43231c-0.0188 0.0188-0.0564 0.0376-0.0752 0.0564l-0.60147 0.31953c-0.0376 0.0188-0.0564 0.0188-0.094 0.0376l-0.65786 0.20675c-0.0376 0-0.0564 0.0188-0.094 0.0188l-0.71425 0.0752h-0.094l-0.71424-0.0752c-0.0376 0-0.0564-0.0188-0.094-0.0188l-0.65786-0.20675c-0.0376-0.0188-0.0564-0.0188-0.094-0.0376l-0.60147-0.31953c-0.0188-0.0188-0.0564-0.0376-0.0752-0.0564l-0.52629-0.43231-0.0564-0.0564-0.45111-0.52628c-0.0188-0.0376-0.0376-0.0564-0.0564-0.094l-0.31953-0.60147c0-0.0188-0.0188-0.0564-0.0188-0.0752l-0.20675-0.67665c-0.0188-0.0188-0.0188-0.0564-0.0188-0.0752zm0.99618 0.60147-0.0188-0.0752 0.20676 0.65786-0.0188-0.0752 0.31953 0.60147-0.0564-0.094 0.43231 0.52629-0.0564-0.0564 0.52629 0.4511-0.0752-0.0564 0.60147 0.31953-0.094-0.0376 0.67666 0.20676-0.094-0.0188 0.71424 0.0752h-0.094l0.71425-0.0752-0.094 0.0188 0.67665-0.20676-0.094 0.0376 0.60147-0.31953-0.0752 0.0564 0.52629-0.4511-0.0564 0.0564 0.43231-0.52629-0.0564 0.094 0.31953-0.60147-0.0188 0.0752 0.20676-0.65786-0.0188 0.0752 0.0752-0.71424v0.11277l-0.0752-0.71424 0.0188 0.0752-0.20676-0.65785 0.0188 0.0752-0.31953-0.60147 0.0564 0.094-0.43231-0.52628 0.0564 0.0564-0.52629-0.4323 0.0752 0.0376-0.60147-0.31953 0.094 0.0376-0.67665-0.20675 0.094 0.0188-0.71425-0.0752h0.094l-0.71424 0.0752 0.094-0.0188-0.67666 0.20675 0.094-0.0376-0.60147 0.31953 0.0752-0.0376-0.52629 0.4323 0.0564-0.0564-0.43231 0.52628 0.0564-0.094-0.31953 0.60147 0.0188-0.0752-0.20676 0.65785 0.0188-0.0752-0.0752 0.71424v-0.11277z" stroke="#000" stroke-width=".018796px"/>
   <path id="path3390" stroke-linejoin="round" d="m354.41 405.43v-14.21h-0.93979v14.21z" stroke="#000" stroke-width=".018796px"/>
   <path id="path3392" stroke-linejoin="round" d="m325.22 404.73h29.002v0.93979h-29.002z" stroke="#000" stroke-width=".018796px"/>
   <path id="path3394" d="m494.84 331.48v27.574h15.767v-27.574h-15.767z" fill-rule="evenodd" fill="#d9d9d9"/>
   <path id="path3396" stroke-linejoin="round" d="m493.89 331.65c0-0.32756 0.29996-0.60051 0.70706-0.60051h15.919c0.38568 0 0.70705 0.27295 0.70705 0.60051v26.696c0 0.32756-0.32137 0.60051-0.70705 0.60051h-15.919c-0.4071 0-0.70706-0.27295-0.70706-0.60051zm1.4141 26.696-0.70706-0.60051h15.919l-0.72848 0.60051v-26.696l0.72848 0.60051h-15.919l0.70706-0.60051z" stroke="#000" stroke-width=".019746px"/>
   <path id="path3398" d="m510.82 331.48v27.574h24.867v-27.574h-24.867z" fill-rule="evenodd" fill="#d9d9d9"/>
   <path id="path3400" stroke-linejoin="round" d="m510.2 331.65c0-0.32757 0.26315-0.60055 0.62028-0.60055h24.867c0.33832 0 0.62027 0.27298 0.62027 0.60055v26.697c0 0.32758-0.28195 0.60055-0.62027 0.60055h-24.867c-0.35713 0-0.62028-0.27297-0.62028-0.60055zm1.2406 26.697-0.62027-0.60053h24.867l-0.63906 0.60053v-26.697l0.63906 0.60054h-24.867l0.62027-0.60054z" stroke="#000" stroke-width=".018495px"/>
   <path id="path3402" d="m476.63 331.48v27.574h17.732v-27.574h-17.732z" fill-rule="evenodd" fill="#d9d9d9"/>
   <path id="path3404" stroke-linejoin="round" d="m476.34 331.65c0-0.32754 0.33111-0.60049 0.78048-0.60049h17.573c0.42571 0 0.78048 0.27295 0.78048 0.60049v26.695c0 0.32754-0.35477 0.60049-0.78048 0.60049h-17.573c-0.44937 0-0.78048-0.27295-0.78048-0.60049zm1.561 26.695-0.7805-0.6005h17.573l-0.80414 0.6005v-26.695l0.80414 0.60049h-17.573l0.7805-0.60049z" stroke="#000" stroke-width=".020746px"/>
   <text id="text3406" font-size="11.25px" line-height="125%" y="349.42493" x="478.90091" font-family="Arial" xml:space="preserve" fill="#000000">A0</text>
   <text id="text3408" font-size="13.75px" line-height="125%" y="350.40741" x="498.64728" font-family="Arial" xml:space="preserve" fill="#000000">B</text>
   <text id="text3410" font-size="13.75px" line-height="125%" y="349.95508" x="517.91205" font-family="Arial" xml:space="preserve" fill="#000000">C</text>
   <text id="text3412" xml:space="preserve" font-size="12.48px" y="301.26105" x="568.22552" font-family="Arial" fill="#000000">µAddress</text>
   <path id="path3414" stroke-linejoin="round" d="m524.88 358.76v30.167h-0.93979v-30.167z" stroke="#000" stroke-width=".018796px"/>
   <path id="path3416" stroke-linejoin="round" d="m593.18 268.37v20.278h-0.93868v-20.278z" stroke="#000" stroke-width=".019914px"/>
   <path id="path3418" stroke-linejoin="round" d="m536.17 328.93 0.0376-2.1803 0.11278-2.0676 0.0752-0.97738 0.11278-0.90221 0.11277-0.86461 0.11278-0.75184 0.11277-0.75183 0.15037-0.63906 0.15037-0.56388 0.18796-0.48869 0.15036-0.37592c0.0376-0.0376 0.0376-0.0752 0.0376-0.0752l0.18796-0.26315c0.0376-0.0376 0.0376-0.0752 0.0752-0.0752l0.18796-0.18796c0.0376-0.0376 0.11277-0.0752 0.18796-0.11278l0.18796-0.0376c0.0376-0.0376 0.0752-0.0376 0.11277-0.0376h54.583l-0.15037 0.0376 0.18796-0.0752-0.18796 0.11277 0.18796-0.15036-0.0752 0.0752 0.18796-0.26314-0.0376 0.0752 0.15037-0.37592 0.15037-0.41351 0.15036-0.52628 0.11278-0.60147 0.15037-0.67665 0.11277-0.75184 0.0752-0.82702 0.11278-0.9022 0.0752-0.9398 0.0752-2.03 0.0376-2.1803c0.0376-0.26314 0.22555-0.4511 0.48869-0.4511 0.26315 0 0.4511 0.18796 0.4511 0.4511l0.0376 2.2179 0.11277 1.9924 0.0752 0.9398 0.11277 0.9022 0.0752 0.82702 0.11278 0.75184 0.15037 0.67665 0.11277 0.60147 0.15037 0.52628 0.15037 0.45111 0.15036 0.33832-0.0376-0.0752 0.18796 0.26314-0.0752-0.0752 0.18796 0.15036-0.18796-0.11277 0.18796 0.0752-0.15037-0.0376h54.583c0.0376 0 0.0752 0 0.11278 0.0376l0.18796 0.0376c0.0752 0.0376 0.15037 0.0752 0.18796 0.11278l0.18796 0.18796c0.0376 0 0.0376 0.0376 0.0752 0.0752l0.18796 0.26315s0 0.0376 0.0376 0.0752l0.15037 0.33833 0.18796 0.52628 0.15036 0.56388 0.15037 0.63906 0.11278 0.71424 0.11277 0.78943 0.11278 0.86461 0.11277 0.90221 0.0752 0.93979 0.0752 2.0676 0.0376 2.2179h-0.93979l-0.0376-2.1803-0.0752-2.03-0.0752-0.9022-0.11278-0.9022-0.0752-0.82702-0.11278-0.75184-0.15036-0.71424-0.11278-0.56388-0.15037-0.52629-0.15036-0.4511-0.15037-0.33832 0.0376 0.0752-0.18796-0.26314 0.0752 0.0752-0.18796-0.18796 0.18796 0.11278-0.18796-0.0376h0.15036-54.583-0.11278l-0.18796-0.0752c-0.0752 0-0.15036-0.0376-0.18795-0.11277l-0.18796-0.15037c-0.0376-0.0376-0.0376-0.0752-0.0752-0.0752l-0.18796-0.26315c0-0.0376 0-0.0752-0.0376-0.0752l-0.15036-0.41351-0.18796-0.48869-0.15037-0.56388-0.15037-0.63906-0.11277-0.71425-0.11278-0.78942-0.11277-0.82702-0.11278-0.9398-0.0752-0.93979-0.11278-2.0676-0.0376-2.1803h0.93979l-0.0376 2.1803-0.0752 2.0676-0.0752 0.97738-0.11278 0.90221-0.11278 0.82702-0.11277 0.78942-0.11278 0.71425-0.15036 0.67665-0.15037 0.56388-0.18796 0.48869-0.15037 0.37592c-0.0376 0-0.0376 0.0376-0.0376 0.0752l-0.18796 0.26315c-0.0376 0-0.0376 0.0376-0.0752 0.0752l-0.18796 0.15037c-0.0376 0.0752-0.11278 0.11277-0.18796 0.11277l-0.18796 0.0752h-0.11277-54.583 0.15037l-0.18796 0.0376 0.18796-0.11278-0.18796 0.18796 0.0752-0.0752-0.18796 0.26314 0.0376-0.0752-0.15037 0.33832-0.15037 0.41351-0.15037 0.52629-0.11277 0.60147-0.15037 0.67665-0.11277 0.75184-0.0752 0.86461-0.11277 0.86461-0.0752 0.93979-0.11277 2.03-0.0376 2.1803z" stroke="#000" stroke-width=".037592px"/>
   <path id="path3420" stroke-linejoin="round" d="m502.89 359.06v13.195l0.65523-0.63907h-67.152l0.6751 0.63907v-38.7c0-0.35712-0.29784-0.63906-0.6751-0.63906h-53.154v1.2593h53.154l-0.65524-0.62025v38.7c0 0.33831 0.29783 0.62025 0.65524 0.62025h67.152c0.37727 0 0.6751-0.28194 0.6751-0.62025v-13.195zm-118.32-29.265-7.9423 3.7591 7.9423 3.7591z" stroke="#000" stroke-width=".019318px"/>
   <path id="path3422" stroke-linejoin="round" d="m153.98 538.66c0-0.35712 0.28194-0.62026 0.62026-0.62026h20.45c0.35712 0 0.63906 0.26314 0.63906 0.62026v26.07c0 0.33833-0.28194 0.62027-0.63906 0.62027h-20.45c-0.33832 0-0.62026-0.28194-0.62026-0.62027zm1.2593 26.07-0.63907-0.62026h20.45l-0.62027 0.62026v-26.07l0.62027 0.62027h-20.45l0.63907-0.62027z" stroke="#000" stroke-width=".018796px"/>
   <text id="text3424" xml:space="preserve" font-size="22.555px" y="560.18372" x="160.75032" font-family="Arial" fill="#ffffff">º</text>
   <path id="path3426" stroke-linejoin="round" d="m174.43 538.66c0-0.35712 0.28194-0.62026 0.62027-0.62026h20.45c0.33833 0 0.62027 0.26314 0.62027 0.62026v26.07c0 0.33833-0.28194 0.62027-0.62027 0.62027h-20.45c-0.33833 0-0.62027-0.28194-0.62027-0.62027zm1.2593 26.07-0.63906-0.62026h20.45l-0.62026 0.62026v-26.07l0.62026 0.62027h-20.45l0.63906-0.62027z" stroke="#000" stroke-width=".018796px"/>
   <path id="path3428" stroke-linejoin="round" d="m194.88 538.66c0-0.35712 0.28194-0.62026 0.62026-0.62026h20.45c0.33833 0 0.62027 0.26314 0.62027 0.62026v26.07c0 0.33833-0.28194 0.62027-0.62027 0.62027h-20.45c-0.33832 0-0.62026-0.28194-0.62026-0.62027zm1.2405 26.07-0.62027-0.62026h20.45l-0.62026 0.62026v-26.07l0.62026 0.62027h-20.45l0.62027-0.62027z" stroke="#000" stroke-width=".018796px"/>
   <path id="path3430" stroke-linejoin="round" d="m259.31 538.66c0-0.35712 0.28194-0.62026 0.62027-0.62026h20.45c0.33833 0 0.62027 0.26314 0.62027 0.62026v26.07c0 0.33833-0.28194 0.62027-0.62027 0.62027h-20.45c-0.33833 0-0.62027-0.28194-0.62027-0.62027zm1.2593 26.07-0.63906-0.62026h20.45l-0.62026 0.62026v-26.07l0.62026 0.62027h-20.45l0.63906-0.62027z" stroke="#000" stroke-width=".018796px"/>
   <path id="path3432" stroke-linejoin="round" d="m279.76 538.66c0-0.35712 0.28194-0.62026 0.62026-0.62026h20.45c0.33832 0 0.62026 0.26314 0.62026 0.62026v26.07c0 0.33833-0.28194 0.62027-0.62026 0.62027h-20.45c-0.33832 0-0.62026-0.28194-0.62026-0.62027zm1.2405 26.07-0.62027-0.62026h20.45l-0.63906 0.62026v-26.07l0.63906 0.62027h-20.45l0.62027-0.62027z" stroke="#000" stroke-width=".018796px"/>
   <text id="text3434" xml:space="preserve" font-size="12.48px" y="556.19769" x="160.32346" font-family="Arial" fill="#000000">O</text>
   <text id="text3436" xml:space="preserve" font-size="12.48px" y="556.19769" x="181.27098" font-family="Arial" fill="#000000">N</text>
   <text id="text3438" xml:space="preserve" font-size="12.48px" y="556.19769" x="202.28775" font-family="Arial" fill="#000000">Z</text>
   <text id="text3440" xml:space="preserve" font-size="12.48px" y="556.19769" x="268.12527" font-family="Arial" fill="#000000">I</text>
   <text id="text3442" xml:space="preserve" font-size="12.48px" y="556.19769" x="286.99881" font-family="Arial" fill="#000000">U</text>
   <path id="path3444" stroke-linejoin="round" d="m215.33 538.66c0-0.35712 0.26314-0.62026 0.62026-0.62026h43.982c0.35712 0 0.63906 0.26314 0.63906 0.62026v26.07c0 0.33833-0.28194 0.62027-0.63906 0.62027h-43.982c-0.35712 0-0.62026-0.28194-0.62026-0.62027zm1.2405 26.07-0.62027-0.62026h43.982l-0.62027 0.62026v-26.07l0.62027 0.62027h-43.982l0.62027-0.62027z" stroke="#000" stroke-width=".018796px"/>
   <text id="text3446" font-size="10px" line-height="125%" y="575.91461" x="161.62589" font-family="Arial" xml:space="preserve" fill="#000000">31</text>
   <text id="text3448" font-size="10px" line-height="125%" y="575.91461" x="181.17462" font-family="Arial" xml:space="preserve" fill="#000000">30</text>
   <text id="text3450" font-size="10px" line-height="125%" y="575.91461" x="201.78488" font-family="Arial" xml:space="preserve" fill="#000000">29</text>
   <text id="text3452" font-size="10px" line-height="125%" y="575.91461" x="267.06894" font-family="Arial" xml:space="preserve" fill="#000000">1</text>
   <text id="text3454" font-size="11.25px" line-height="125%" y="513.66547" x="303.32178" font-family="Arial" xml:space="preserve" fill="#000000">MRdy</text>
   <text id="text3456" font-size="11.25px" line-height="125%" y="513.66547" x="337.43759" font-family="Arial" xml:space="preserve" fill="#000000">IORdy</text>
   <text id="text3458" font-size="11.25px" line-height="125%" y="513.66547" x="373.18365" font-family="Arial" xml:space="preserve" fill="#000000">INT</text>
   <text id="text3460" font-size="10px" line-height="125%" y="475.90125" x="183.1498" font-family="Arial" xml:space="preserve" fill="#000000">7</text>
   <text id="text3462" font-size="10px" line-height="125%" y="475.90125" x="202.97559" font-family="Arial" xml:space="preserve" fill="#000000">6</text>
   <text id="text3464" font-size="10px" line-height="125%" y="475.90125" x="268.19717" font-family="Arial" xml:space="preserve" fill="#000000">5</text>
   <text id="text3466" font-size="10px" line-height="125%" y="475.90125" x="287.51144" font-family="Arial" xml:space="preserve" fill="#000000">4</text>
   <text id="text3468" font-size="10px" line-height="125%" y="475.90125" x="315.93735" font-family="Arial" xml:space="preserve" fill="#000000">3</text>
   <text id="text3470" font-size="10px" line-height="125%" y="475.90125" x="350.91647" font-family="Arial" xml:space="preserve" fill="#000000">2</text>
   <text id="text3472" font-size="10px" line-height="125%" y="475.90125" x="377.10278" font-family="Arial" xml:space="preserve" fill="#000000">1</text>
   <text id="text3474" font-size="10px" line-height="125%" y="475.90125" x="398.56177" font-family="Arial" xml:space="preserve" fill="#000000">0</text>
   <text id="text3476" font-size="10px" line-height="125%" y="475.90125" x="164.76343" font-family="Arial" xml:space="preserve" fill="#000000">8</text>
   <path id="path3478" stroke-linejoin="round" d="m157.45 400.77 0.0362 1.9586 0.10859 1.8223 0.0724 0.85154 0.0724 0.80045 0.1086 0.7664 0.1086 0.69827 0.12678 0.63014 0.12678 0.57906 0.14496 0.4939 0.16297 0.44279 0.18109 0.35767c0 0.0171 0.018 0.0341 0.018 0.0511l0.16298 0.23843c0.0362 0.0341 0.0544 0.0681 0.0906 0.0852l0.163 0.15327c0.0544 0.0341 0.1086 0.0681 0.16298 0.0852l0.18108 0.0511c0.0362 0.0171 0.0906 0.0171 0.12678 0.0171h49.293l-0.1448-0.0171 0.18109 0.0511-0.16299-0.0852 0.16299 0.13625-0.0724-0.0852 0.16297 0.23842 0.12678 0.27251 0.12678 0.35764 0.1448 0.47688 0.12678 0.52796 0.1086 0.61311 0.1086 0.66421 0.1086 0.73233 0.0724 0.78343 0.0724 0.83451 0.1086 1.8053 0.0182 1.9245c0.018 0.23844 0.21731 0.42578 0.45272 0.42578 0.25351 0 0.45272-0.18734 0.45272-0.42578l0.0362-1.9415 0.1086-1.7883 0.0724-0.83451 0.0724-0.80047 0.1086-0.71529 0.1086-0.68124 0.12678-0.6131 0.1086-0.545 0.14496-0.45984 0.1448-0.37467 0.1448-0.28955-0.0362 0.0511 0.16297-0.23843-0.0724 0.0852 0.16298-0.13624-0.16298 0.0852 0.16298-0.0511-0.12678 0.017h49.293c0.0544 0 0.0906 0 0.12678-0.017l0.18109-0.0511c0.0542-0.0171 0.1086-0.0511 0.16298-0.0852l0.1811-0.15327c0.0182-0.017 0.0542-0.0511 0.0724-0.0852l0.16298-0.23843c0.018-0.0171 0.018-0.0341 0.0362-0.0511l0.14496-0.32361 0.18108-0.44279 0.1448-0.51092 0.12678-0.57906 0.12678-0.64718 0.12678-0.68123 0.0906-0.76641 0.0906-0.80044 0.0724-0.85157 0.0906-1.8223 0.0362-1.9756h-0.90547l-0.0362 1.9245-0.0906 1.8053-0.0724 0.83453-0.0724 0.78341-0.10859 0.73234-0.1086 0.68125-0.1086 0.59609-0.12678 0.54498-0.1448 0.44281-0.12678 0.37467-0.16298 0.32359 0.0362-0.0511-0.16298 0.23844 0.0724-0.0852-0.163 0.13624 0.163-0.0852-0.1811 0.0511 0.1448-0.0171h-49.293c-0.0542 0-0.0906 0-0.1448 0.0171l-0.16298 0.0511c-0.0544 0.017-0.12678 0.0511-0.163 0.0852l-0.18109 0.15328c-0.018 0.0171-0.0542 0.0511-0.0724 0.0852l-0.16297 0.23844c-0.0182 0.017-0.0182 0.0341-0.0362 0.0511l-0.16298 0.35765-0.16298 0.44281-0.1448 0.51094-0.1448 0.56201-0.1086 0.63015-0.12678 0.69826-0.0906 0.7664-0.0906 0.80047-0.0724 0.85154-0.1086 1.8393-0.0362 1.9415h0.90545l-0.0362-1.9586-0.0906-1.8393-0.0724-0.83451-0.0906-0.8175-0.0906-0.74937-0.1086-0.7153-0.14496-0.63013-0.12678-0.57906-0.1448-0.4939-0.16296-0.45984-0.19923-0.37468-0.16297-0.23844c-0.018-0.0341-0.0542-0.0681-0.0724-0.0852l-0.18108-0.15326c-0.0544-0.0341-0.10859-0.0681-0.16299-0.0852l-0.1811-0.0511c-0.0362-0.017-0.0724-0.017-0.12678-0.017h-49.293l0.1448 0.017-0.1811-0.0511 0.1811 0.0852-0.1811-0.13625 0.0724 0.0852-0.16298-0.23844 0.0362 0.0511-0.12678-0.28952-0.1448-0.37469-0.14496-0.45983-0.12678-0.54499-0.1086-0.61312-0.12678-0.6642-0.0906-0.73234-0.0906-0.80045-0.0724-0.8175-0.0906-1.8053-0.0362-1.9415z" stroke="#000" stroke-width=".017562px"/>
   <path id="path3480" stroke-linejoin="round" d="m271.08 538.64v-53.083h-1.2405v53.083h1.2405zm3.139-52.023-3.7592-6.3231-3.7592 6.3231h7.5184z" stroke="#000" stroke-width=".017237px"/>
   <path id="path3482" stroke-linejoin="round" d="m291.07 538.64v-53.083h-1.2594v53.083h1.2594zm3.1202-52.023-3.7592-6.3231-3.7592 6.3231h7.5184z" stroke="#000" stroke-width=".017237px"/>
   <path id="path3484" stroke-linejoin="round" d="m167.18 538.85v-53.063h-1.2594v53.063h1.2594zm3.1202-52.02-3.7592-6.3227-3.7592 6.3227h7.5185z" stroke="#000" stroke-width=".017237px"/>
   <path id="path3486" stroke-linejoin="round" d="m187.15 538.85v-53.063h-1.2594v53.063h1.2594zm3.1202-52.02-3.7592-6.3227-3.7592 6.3227h7.5185z" stroke="#000" stroke-width=".017237px"/>
   <path id="path3488" stroke-linejoin="round" d="m205.82 538.91v-53.083h-1.2405v53.083h1.2405zm3.139-52.023-3.7592-6.3231-3.7592 6.3231h7.5184z" stroke="#000" stroke-width=".017237px"/>
   <path id="path3490" stroke-linejoin="round" d="m690.34 461.34v27.032h-1.2405v-27.032h1.2405zm3.1577 25.735-3.7592 7.858-3.7592-7.858h7.5184z" stroke="#000" stroke-width=".038432px"/>
   <path id="path3492" stroke-linejoin="round" d="m598.65 462.02v25.863h-1.2593v-25.863h1.2593zm3.1201 24.623-3.7592 7.5184-3.7592-7.5184h7.5184z" stroke="#000" stroke-width=".018796px"/>
   <path id="path3494" stroke-linejoin="round" d="m498.27 461.31v27.022h-1.2593v-27.022h1.2593zm3.1389 25.726-3.7592 7.8551-3.7592-7.8551h7.5184z" stroke="#000" stroke-width=".019212px"/>
   <path id="path3496" stroke-linejoin="round" d="m462.63 461.38h-40.893v1.2409h40.893v-1.2409zm-39.895-3.1398-5.9567 3.7602 5.9567 3.7602v-7.5204z" stroke="#000" stroke-width=".016733px"/>
   <path id="path3498" stroke-linejoin="round" d="m462.14 388.55h62.281v0.9377h-62.281z" stroke="#000" stroke-width="0.0209px"/>
   <path id="path3500" stroke-linejoin="round" d="m213.34 268.48h379.23v1.1386h-379.23z" stroke="#000" stroke-width=".020349px"/>
   <path id="path3502" stroke-linejoin="round" d="m607.28 403.96h40.586v0.94061h-40.586z" stroke="#000" stroke-width=".037327px"/>
   <path id="path3504" stroke-linejoin="round" d="m179.71 183.72h97.601v1.2502h-97.601v-1.2502zm96.642-3.13 5.727 3.7598-5.727 3.7598v-7.5196z" stroke="#000" stroke-width=".0082029px"/>
   <text id="text3346-5" font-size="15px" line-height="125%" y="94.052887" x="714.93817" font-family="Arial" xml:space="preserve" fill="#134ece">back to CPU</text>
   <path id="path3192-9" stroke-linejoin="round" d="m804.56 87.111v-9.6987h-1.2781v9.6987h1.2781zm3.1201-8.4206-3.7592-7.5184-3.7592 7.5184h7.5184z" stroke="#000" stroke-width=".037592px" fill="#134ece"/>
   <path id="path3118-3" stroke-linejoin="round" d="m436.01 232.63v-13.101h-1.2593v13.101h1.2593zm3.1201-11.841-3.7592-7.5184-3.7592 7.5184h7.5184z" stroke="#000" stroke-width=".018796px"/>
   <path id="path3042-5" stroke-linejoin="round" d="m408.11 246.93h10.638v0.93979h-10.638z" stroke="#000" stroke-width=".037592px"/>
   <path id="path3044-3" stroke-linejoin="round" d="m430.21 246.93h10.638v0.93979h-10.638z" stroke="#000" stroke-width=".037592px"/>
   <path id="path3046-8" stroke-linejoin="round" d="m451.49 246.93h10.638v0.93979h-10.638z" stroke="#000" stroke-width=".037592px"/>
   <path id="path3048-7" stroke-linejoin="round" d="m419.01 235.88h11.466v0.93979h-11.466z" stroke="#000" stroke-width=".037592px"/>
   <path id="path3050-6" stroke-linejoin="round" d="m419.5 247.72v-11.691h-0.93979v11.691z" stroke="#000" stroke-width=".037592px"/>
   <path id="path3052-7" stroke-linejoin="round" d="m430.66 247.72v-11.992h-0.93979v11.992z" stroke="#000" stroke-width=".037592px"/>
   <path id="path3054-4" stroke-linejoin="round" d="m441.3 247.72v-11.992h-0.93979v11.992z" stroke="#000" stroke-width=".037592px"/>
   <path id="path3056-8" stroke-linejoin="round" d="m452.77 247.42v-11.691h-0.93979v11.691z" stroke="#000" stroke-width=".037592px"/>
   <path id="path3058-1" stroke-linejoin="round" d="m440.59 235.88h11.729v0.93979h-11.729z" stroke="#000" stroke-width=".037592px"/>
   <path id="path3022-6" stroke-linejoin="round" d="m163.61 351.51c0 0.20499 0.30762 0.3712 0.68702 0.3712h81.437c0.3794 0 0.68701-0.16621 0.68701-0.3712v-60.779c0-0.205-0.30761-0.37122-0.68701-0.37122h-81.437c-0.3794 0-0.68702 0.16622-0.68702 0.37122zm1.374-60.779-0.687 0.37121h81.437l-0.68701-0.37121v60.779l0.68701-0.37121h-81.437l0.687 0.37121z" stroke="#000" stroke-width=".0075374px"/>
   <path id="path3100-8" stroke-linejoin="round" d="m179.84 184.62-0.11743 104.26h0.98195l0.11742-104.26z" stroke="#000" stroke-width=".011642px"/>
   <path id="path3234-9" stroke-linejoin="round" d="m182.19 377.53v-16.442h-1.2399v16.442h1.2399zm3.1374-14.639-3.7573-10.764-3.7573 10.764h7.5147z" stroke="#000" stroke-width=".022484px"/>
   <path id="path3100-9" stroke-linejoin="round" d="m467.02 69.447-0.11261 97.162h0.93839l0.1126-97.162z" stroke="#000" stroke-width=".010987px"/>
   <path id="path3100-8-5" stroke-linejoin="round" d="m876.75 319.09-0.11805 26.677h0.98707l0.11804-26.677z" stroke="#000" stroke-width=".0059045px"/>
   <path id="path3498-6" stroke-linejoin="round" d="m821.17 319.03h56.111v0.93876h-56.111z" stroke="#000" stroke-width=".019849px"/>
   <text id="text3172-1" font-size="13.75px" line-height="125%" y="350.43033" x="690.22137" font-family="Arial" xml:space="preserve" fill="#000000"><tspan id="tspan4412" y="350.43033" x="690.22137">MR</tspan></text>
   <path id="path3180-5" stroke-linejoin="round" d="m684.62 331.89c0-0.33843 0.1633-0.63925 0.39659-0.63925h31.773c0.20996 0 0.37325 0.30082 0.37325 0.63925v26.209c0 0.33843-0.16329 0.63925-0.37325 0.63925h-31.773c-0.23329 0-0.39659-0.30082-0.39659-0.63925zm0.76984 26.209-0.37325-0.63925h31.773l-0.39657 0.63925v-26.209l0.39657 0.63925h-31.773l0.37325-0.63925z" stroke="#000" stroke-width=".029618px"/>
   <text id="text3172-1-5" font-size="13.75px" line-height="125%" y="349.841" x="722.15332" font-family="Arial" xml:space="preserve" fill="#000000"><tspan id="tspan4435" y="349.841" x="722.15332">MC</tspan></text>
   <path id="path3180-5-7" stroke-linejoin="round" d="m716.55 331.86c0-0.33843 0.1633-0.63925 0.39659-0.63925h31.773c0.20996 0 0.37325 0.30082 0.37325 0.63925v26.209c0 0.33843-0.16329 0.63925-0.37325 0.63925h-31.773c-0.23329 0-0.39659-0.30082-0.39659-0.63925zm0.76984 26.209-0.37325-0.63925h31.773l-0.39657 0.63925v-26.209l0.39657 0.63925h-31.773l0.37325-0.63925z" stroke="#000" stroke-width=".029618px"/>
   <text id="text4138" transform="scale(1.064 .93983)" line-height="125%" font-size="12.132px" y="253.78328" x="430.11722" font-family="Arial" xml:space="preserve" fill="#000000"><tspan id="tspan4140" y="253.78328" x="430.11722">CLK</tspan></text>
  </g>
  <text id="text3611" style="word-spacing:0px;letter-spacing:0px" xml:space="preserve" transform="scale(.97307 1.0277)" line-height="125%" font-size="12" y="358.60107" x="198.65758" font-family="sans-serif" fill="#000000"><tspan id="tspan3615" x="198.65758" y="358.60107"/></text>
 </g>
</svg>
